 0
SECTION
 2
ENTITIES
  0
POLYLINE
 8
Layer0
 66
     1
70
    8
 10
0.0
 20
 0.0
 30
0.0
  0
VERTEX
  8
MY3DLAYER
10
36.406760834317005
20
75.98941107195718
30
7.58391777601168e-07
 70
     32
  0
VERTEX
  8
MY3DLAYER
10
36.40676083431736
20
74.3924999960369
30
7.591870724907475e-07
 70
     32
  0
VERTEX
  8
MY3DLAYER
10
36.395029037675
20
74.19985830978848
30
7.592889817448298e-07
 70
     32
  0
VERTEX
  8
MY3DLAYER
10
36.36000704624597
20
74.0100639093179
30
7.594018629267056e-07
 70
     32
  0
VERTEX
  8
MY3DLAYER
10
36.302212492633466
20
73.82592199690816
30
7.595236866629173e-07
 70
     32
  0
VERTEX
  8
MY3DLAYER
10
36.22249959283726
20
73.65015422984206
30
7.596530106617794e-07
 70
     32
  0
VERTEX
  8
MY3DLAYER
10
36.12204652075248
20
73.4853584937249
30
7.597877430093671e-07
 70
     32
  0
VERTEX
  8
MY3DLAYER
10
36.00233799451036
20
73.33397050517185
30
7.599258923301697e-07
 70
     32
  0
VERTEX
  8
MY3DLAYER
10
35.86514333200913
20
73.19822781139065
30
7.600655972259985e-07
 70
     32
  0
VERTEX
  8
MY3DLAYER
10
35.71249030003306
20
73.08013671874745
30
7.602044345470221e-07
 70
     32
  0
VERTEX
  8
MY3DLAYER
10
35.54663514340036
20
72.981442639129
30
7.603405327167353e-07
 70
     32
  0
VERTEX
  8
MY3DLAYER
10
35.37002923719278
20
72.90360429237168
30
7.604718801792424e-07
 70
     32
  0
VERTEX
  8
MY3DLAYER
10
35.18528285489215
20
72.84777214607305
30
7.605963551080441e-07
 70
     32
  0
VERTEX
  8
MY3DLAYER
10
34.995126588003586
20
72.81477141101671
30
7.607121150791408e-07
 70
     32
  0
VERTEX
  8
MY3DLAYER
10
31.202563501276373
20
72.17464581012221
30
7.630192717749101e-07
 70
     32
  0
VERTEX
  8
MY3DLAYER
10
27.50572908800848
20
71.11317943166326
30
7.654859004833578e-07
 70
     32
  0
VERTEX
  8
MY3DLAYER
10
23.951277558402825
20
69.64376802725167
30
7.680812332001071e-07
 70
     32
  0
VERTEX
  8
MY3DLAYER
10
20.584066244516816
20
67.78495563237097
30
7.707719775605897e-07
 70
     32
  0
VERTEX
  8
MY3DLAYER
10
17.44658949878232
20
65.56020053985101
30
7.735245349254401e-07
 70
     32
  0
VERTEX
  8
MY3DLAYER
10
14.985382137957162
20
63.36117023172992
30
7.759101201710184e-07
 70
     32
  0
VERTEX
  8
MY3DLAYER
10
14.578442413443668
20
62.997579255191056
30
7.763045265820646e-07
 70
     32
  0
VERTEX
  8
MY3DLAYER
10
12.01582112878371
20
60.12943216985277
30
7.790763297610154e-07
 70
     32
  0
VERTEX
  8
MY3DLAYER
10
9.791066036262322
20
56.99195542411791
30
7.818055056216244e-07
 70
     32
  0
VERTEX
  8
MY3DLAYER
10
7.932253641381617
20
53.624744110230814
30
7.844570749691772e-07
 70
     32
  0
VERTEX
  8
MY3DLAYER
10
6.462842236969672
20
50.070292580626244
30
7.869975771554026e-07
 70
     32
  0
VERTEX
  8
MY3DLAYER
10
5.40137585851215
20
46.373458167357626
30
7.893940485456142e-07
 70
     32
  0
VERTEX
  8
MY3DLAYER
10
4.761250257617303
20
42.58089508063006
30
7.916187585918325e-07
 70
     32
  0
VERTEX
  8
MY3DLAYER
10
4.728249522561313
20
42.39073881374113
30
7.917307603792778e-07
 70
     32
  0
VERTEX
  8
MY3DLAYER
10
4.672417376263402
20
42.2059924314405
30
7.918520368767594e-07
 70
     32
  0
VERTEX
  8
MY3DLAYER
10
4.594579029506084
20
42.02938652523292
30
7.919804346322948e-07
 70
     32
  0
VERTEX
  8
MY3DLAYER
10
4.495884949886912
20
41.863531368600945
30
7.921151334266875e-07
 70
     32
  0
VERTEX
  8
MY3DLAYER
10
4.377793857242992
20
41.71087833662343
30
7.922530648610173e-07
 70
     32
  0
VERTEX
  8
MY3DLAYER
10
4.242051163462162
20
41.57368367412364
30
7.92392551225967e-07
 70
     32
  0
VERTEX
  8
MY3DLAYER
10
4.090663174908744
20
41.45397514788152
30
7.925315308836971e-07
 70
     32
  0
VERTEX
  8
MY3DLAYER
10
3.9258674387926646
20
41.35352207579675
30
7.926679496869041e-07
 70
     32
  0
VERTEX
  8
MY3DLAYER
10
3.750099671725843
20
41.27380917600054
30
7.927997913375218e-07
 70
     32
  0
VERTEX
  8
MY3DLAYER
10
3.565957759317186
20
41.21601462238731
30
7.929251071836333e-07
 70
     32
  0
VERTEX
  8
MY3DLAYER
10
3.376163358846969
20
41.180992630957554
30
7.930420450304956e-07
 70
     32
  0
VERTEX
  8
MY3DLAYER
10
3.1835216725978284
20
41.169260834317
30
7.931488765140423e-07
 70
     32
  0
VERTEX
  8
MY3DLAYER
10
1.58661059413823
20
41.169260834316276
30
7.939860273289446e-07
 70
     32
  0
VERTEX
  8
MY3DLAYER
10
1.3654687912552532
20
41.184739030073246
30
7.940942483234368e-07
 70
     32
  0
VERTEX
  8
MY3DLAYER
10
1.148639273240613
20
41.230871791144956
30
7.941849420751209e-07
 70
     32
  0
VERTEX
  8
MY3DLAYER
10
0.9403502350240074
20
41.306759524579434
30
7.942563400464234e-07
 70
     32
  0
VERTEX
  8
MY3DLAYER
10
0.7446633314204489
20
41.41092241280971
30
7.943070499725253e-07
 70
     32
  0
VERTEX
  8
MY3DLAYER
10
0.5653944744933141
20
41.5413292702292
30
7.943360829980317e-07
 70
     32
  0
VERTEX
  8
MY3DLAYER
10
0.40603942293182627
20
41.695437151494815
30
7.943432339373342e-07
 70
     32
  0
VERTEX
  8
MY3DLAYER
10
0.26970561444702523
20
41.87024093918345
30
7.943272875170649e-07
 70
     32
  0
VERTEX
  8
MY3DLAYER
10
0.1590515704572425
20
42.062331943853465
30
7.942896305218345e-07
 70
     32
  0
VERTEX
  8
MY3DLAYER
10
0.07623505468444307
20
42.26796437379028
30
7.942306363107991e-07
 70
     32
  0
VERTEX
  8
MY3DLAYER
10
0.022870996568795474
20
42.483128378278835
30
7.941518162372842e-07
 70
     32
  0
VERTEX
  8
MY3DLAYER
10
0.0
20
42.70362824005298
30
7.940536314594415e-07
 70
     32
  0
VERTEX
  8
MY3DLAYER
10
0.008068053365892069
20
42.92516419213351
30
7.93939072430555e-07
 70
     32
  0
VERTEX
  8
MY3DLAYER
10
0.723479799169371
20
47.27868083581224
30
7.913958894586146e-07
 70
     32
  0
VERTEX
  8
MY3DLAYER
10
1.9260204697324865
20
51.52353855644941
30
7.886514526443937e-07
 70
     32
  0
VERTEX
  8
MY3DLAYER
10
3.6003006111983606
20
55.605414000495855
30
7.857408837836852e-07
 70
     32
  0
VERTEX
  8
MY3DLAYER
10
5.724893707523472
20
59.47206957190073
30
7.827012502563836e-07
 70
     32
  0
VERTEX
  8
MY3DLAYER
10
8.272610385225898
20
63.07402194012734
30
7.795725321758495e-07
 70
     32
  0
VERTEX
  8
MY3DLAYER
10
11.210846368040722
20
66.36517530059255
30
7.763927931357227e-07
 70
     32
  0
VERTEX
  8
MY3DLAYER
10
14.501999728506666
20
69.30341128340883
30
7.732041648892979e-07
 70
     32
  0
VERTEX
  8
MY3DLAYER
10
18.10395209673399
20
71.85112796111197
30
7.700467318446333e-07
 70
     32
  0
VERTEX
  8
MY3DLAYER
10
21.970607668138147
20
73.97572105743565
30
7.66962340282987e-07
 70
     32
  0
VERTEX
  8
MY3DLAYER
10
26.05248311218351
20
75.65000119890225
30
7.639881255884061e-07
 70
     32
  0
VERTEX
  8
MY3DLAYER
10
30.297340832822847
20
76.8525418694639
30
7.611639479650905e-07
 70
     32
  0
VERTEX
  8
MY3DLAYER
10
34.65085747650085
20
77.56795361526846
30
7.585254082561471e-07
 70
     32
  0
VERTEX
  8
MY3DLAYER
10
34.87239342858139
20
77.5760216660936
30
7.584052541108332e-07
 70
     32
  0
VERTEX
  8
MY3DLAYER
10
35.092893290355526
20
77.55315066952517
30
7.583014123645638e-07
 70
     32
  0
VERTEX
  8
MY3DLAYER
10
35.30805729484373
20
77.49978661140952
30
7.582151930625099e-07
 70
     32
  0
VERTEX
  8
MY3DLAYER
10
35.51368972478018
20
77.41697009563671
30
7.581486384497342e-07
 70
     32
  0
VERTEX
  8
MY3DLAYER
10
35.705780729450915
20
77.30631605164658
30
7.581030463387015e-07
 70
     32
  0
VERTEX
  8
MY3DLAYER
10
35.880584517139916
20
77.16998224316177
30
7.580793057844307e-07
 70
     32
  0
VERTEX
  8
MY3DLAYER
10
36.0346923984048
20
77.01062719160028
30
7.580778797295837e-07
 70
     32
  0
VERTEX
  8
MY3DLAYER
10
36.16509925582321
20
76.83135833467279
30
7.580987959882826e-07
 70
     32
  0
VERTEX
  8
MY3DLAYER
10
36.269262144054935
20
76.63567143106923
30
7.581416466788132e-07
 70
     32
  0
VERTEX
  8
MY3DLAYER
10
36.345149877488325
20
76.42738239285407
30
7.582055962208726e-07
 70
     32
  0
VERTEX
  8
MY3DLAYER
10
36.391282638560035
20
76.21055287484015
30
7.582895780667859e-07
 70
     32
  0
VERTEX
  8
MY3DLAYER
10
36.406760834317005
20
75.98941107195718
30
7.58391777601168e-07
 70
     32
  0
SEQEND
  0
POLYLINE
 8
Layer0
 66
     1
70
    8
 10
0.0
 20
 0.0
 30
0.0
  0
VERTEX
  8
MY3DLAYER
10
41.169260834317
20
74.39249999603761
30
7.566900598441391e-07
 70
     32
  0
VERTEX
  8
MY3DLAYER
10
41.169260834317
20
75.98941107195718
30
7.558947649600675e-07
 70
     32
  0
VERTEX
  8
MY3DLAYER
10
41.184739030072166
20
76.21055287484015
30
7.557763371134149e-07
 70
     32
  0
VERTEX
  8
MY3DLAYER
10
41.23087179114532
20
76.42738239285335
30
7.556443477505295e-07
 70
     32
  0
VERTEX
  8
MY3DLAYER
10
41.30675952457907
20
76.63567143106923
30
7.555008327550255e-07
 70
     32
  0
VERTEX
  8
MY3DLAYER
10
41.41092241281079
20
76.83135833467206
30
7.553485906847731e-07
 70
     32
  0
VERTEX
  8
MY3DLAYER
10
41.54132927023065
20
77.01062719160028
30
7.551911281901239e-07
 70
     32
  0
VERTEX
  8
MY3DLAYER
10
41.69543715149445
20
77.1699822431625
30
7.55030616926165e-07
 70
     32
  0
VERTEX
  8
MY3DLAYER
10
41.87024093918381
20
77.30631605164729
30
7.548710822353251e-07
 70
     32
  0
VERTEX
  8
MY3DLAYER
10
42.06233194385491
20
77.41697009563599
30
7.547152741026533e-07
 70
     32
  0
VERTEX
  8
MY3DLAYER
10
42.26796437378955
20
77.49978661140952
30
7.545662307941858e-07
 70
     32
  0
VERTEX
  8
MY3DLAYER
10
42.483128378278835
20
77.55315066952444
30
7.544268586764327e-07
 70
     32
  0
VERTEX
  8
MY3DLAYER
10
42.70362824005298
20
77.5760216660936
30
7.542998755086151e-07
 70
     32
  0
VERTEX
  8
MY3DLAYER
10
42.925164192134595
20
77.56795361526919
30
7.541877574801688e-07
 70
     32
  0
VERTEX
  8
MY3DLAYER
10
47.2786808358126
20
76.8525418694639
30
7.522616171133471e-07
 70
     32
  0
VERTEX
  8
MY3DLAYER
10
51.52353855644941
20
75.65000119890225
30
7.506359418730027e-07
 70
     32
  0
VERTEX
  8
MY3DLAYER
10
55.60541400049658
20
73.97572105743565
30
7.493295602347197e-07
 70
     32
  0
VERTEX
  8
MY3DLAYER
10
59.472069571901095
20
71.85112796111197
30
7.483606297533848e-07
 70
     32
  0
VERTEX
  8
MY3DLAYER
10
63.07402194012806
20
69.30341128340883
30
7.477408283618376e-07
 70
     32
  0
VERTEX
  8
MY3DLAYER
10
66.36517530059184
20
66.36517530059255
30
7.474791661889624e-07
 70
     32
  0
VERTEX
  8
MY3DLAYER
10
69.30341128340991
20
63.07402194012661
30
7.475780940610198e-07
 70
     32
  0
VERTEX
  8
MY3DLAYER
10
71.85112796111162
20
59.47206957190073
30
7.480359873193124e-07
 70
     32
  0
VERTEX
  8
MY3DLAYER
10
73.97572105743565
20
55.60541400049658
30
7.48847883863795e-07
 70
     32
  0
VERTEX
  8
MY3DLAYER
10
75.65000119890296
20
51.523538556450134
30
7.50003032528191e-07
 70
     32
  0
VERTEX
  8
MY3DLAYER
10
76.85254186946499
20
47.27868083581224
30
7.514866503597304e-07
 70
     32
  0
VERTEX
  8
MY3DLAYER
10
77.56795361526846
20
42.92516419213351
30
7.532797508380279e-07
 70
     32
  0
VERTEX
  8
MY3DLAYER
10
77.57602166609468
20
42.70362824005298
30
7.533858508211675e-07
 70
     32
  0
VERTEX
  8
MY3DLAYER
10
77.55315066952625
20
42.483128378278835
30
7.535076540244982e-07
 70
     32
  0
VERTEX
  8
MY3DLAYER
10
77.49978661140987
20
42.26796437379028
30
7.536427852761727e-07
 70
     32
  0
VERTEX
  8
MY3DLAYER
10
77.41697009563816
20
42.062331943853465
30
7.537886095102843e-07
 70
     32
  0
VERTEX
  8
MY3DLAYER
10
77.30631605164729
20
41.87024093918345
30
7.539421026597683e-07
 70
     32
  0
VERTEX
  8
MY3DLAYER
10
77.16998224316177
20
41.695437151494815
30
7.541008095086899e-07
 70
     32
  0
VERTEX
  8
MY3DLAYER
10
77.01062719160065
20
41.5413292702292
30
7.542610973453826e-07
 70
     32
  0
VERTEX
  8
MY3DLAYER
10
76.83135833467279
20
41.41092241280971
30
7.544198405399268e-07
 70
     32
  0
VERTEX
  8
MY3DLAYER
10
76.63567143106958
20
41.30675952458015
30
7.545744815038931e-07
 70
     32
  0
VERTEX
  8
MY3DLAYER
10
76.42738239285407
20
41.230871791144956
30
7.54721286337287e-07
 70
     32
  0
VERTEX
  8
MY3DLAYER
10
76.21055287484087
20
41.184739030073246
30
7.548581107089548e-07
 70
     32
  0
VERTEX
  8
MY3DLAYER
10
75.98941107195753
20
41.169260834317
30
7.549817486364549e-07
 70
     32
  0
VERTEX
  8
MY3DLAYER
10
74.39249999603726
20
41.169260834317
30
7.558188994458494e-07
 70
     32
  0
VERTEX
  8
MY3DLAYER
10
74.19985830978884
20
41.180992630957554
30
7.559140455721136e-07
 70
     32
  0
VERTEX
  8
MY3DLAYER
10
74.0100639093179
20
41.21601462238731
30
7.559961000645678e-07
 70
     32
  0
VERTEX
  8
MY3DLAYER
10
73.82592199690744
20
41.27380917600054
30
7.560638501338378e-07
 70
     32
  0
VERTEX
  8
MY3DLAYER
10
73.65015422984243
20
41.353522075797464
30
7.561161139440878e-07
 70
     32
  0
VERTEX
  8
MY3DLAYER
10
73.48535849372563
20
41.45397514788008
30
7.561526577961036e-07
 70
     32
  0
VERTEX
  8
MY3DLAYER
10
73.33397050517256
20
41.57368367412364
30
7.561724027883333e-07
 70
     32
  0
VERTEX
  8
MY3DLAYER
10
73.19822781139318
20
41.71087833662343
30
7.561752375651476e-07
 70
     32
  0
VERTEX
  8
MY3DLAYER
10
73.0801367187489
20
41.863531368600945
30
7.561611202346226e-07
 70
     32
  0
VERTEX
  8
MY3DLAYER
10
72.981442639129
20
42.02938652523365
30
7.561304399301017e-07
 70
     32
  0
VERTEX
  8
MY3DLAYER
10
72.90360429237349
20
42.2059924314405
30
7.560831113420912e-07
 70
     32
  0
VERTEX
  8
MY3DLAYER
10
72.84777214607449
20
42.39073881374113
30
7.560201922884867e-07
 70
     32
  0
VERTEX
  8
MY3DLAYER
10
72.81477141101742
20
42.580895080630775
30
7.559429710147971e-07
 70
     32
  0
VERTEX
  8
MY3DLAYER
10
72.17464581012474
20
46.37345816735618
30
7.543899501840246e-07
 70
     32
  0
VERTEX
  8
MY3DLAYER
10
71.11317943166397
20
50.070292580626244
30
7.53105484256741e-07
 70
     32
  0
VERTEX
  8
MY3DLAYER
10
69.64376802725202
20
53.62474411023154
30
7.52105244089616e-07
 70
     32
  0
VERTEX
  8
MY3DLAYER
10
67.7849556323724
20
56.99195542411791
30
7.514031115459733e-07
 70
     32
  0
VERTEX
  8
MY3DLAYER
10
65.56020053985138
20
60.12943216985277
30
7.510068692651462e-07
 70
     32
  0
VERTEX
  8
MY3DLAYER
10
62.99757925519214
20
62.997579255191056
30
7.509215178353162e-07
 70
     32
  0
VERTEX
  8
MY3DLAYER
10
60.12943216985349
20
65.56020053985101
30
7.511486712687056e-07
 70
     32
  0
VERTEX
  8
MY3DLAYER
10
56.99195542411899
20
67.78495563237168
30
7.516858215686396e-07
 70
     32
  0
VERTEX
  8
MY3DLAYER
10
53.62474411023045
20
69.64376802725239
30
7.525254725096463e-07
 70
     32
  0
VERTEX
  8
MY3DLAYER
10
50.070292580626244
20
71.11317943166397
30
7.536570299403015e-07
 70
     32
  0
VERTEX
  8
MY3DLAYER
10
46.373458167357626
20
72.17464581012221
30
7.550658526056433e-07
 70
     32
  0
VERTEX
  8
MY3DLAYER
10
42.580895080630775
20
72.81477141101671
30
7.567354176060431e-07
 70
     32
  0
VERTEX
  8
MY3DLAYER
10
42.39073881374185
20
72.84777214607305
30
7.568188489085782e-07
 70
     32
  0
VERTEX
  8
MY3DLAYER
10
42.20599243144122
20
72.90360429237168
30
7.568880736550861e-07
 70
     32
  0
VERTEX
  8
MY3DLAYER
10
42.02938652523257
20
72.981442639129
30
7.569417104144865e-07
 70
     32
  0
VERTEX
  8
MY3DLAYER
10
41.86353136860166
20
73.08013671874745
30
7.569795051805012e-07
 70
     32
  0
VERTEX
  8
MY3DLAYER
10
41.71087833662379
20
73.19822781139065
30
7.570007188630479e-07
 70
     32
  0
VERTEX
  8
MY3DLAYER
10
41.57368367412472
20
73.33397050517185
30
7.570052184004659e-07
 70
     32
  0
VERTEX
  8
MY3DLAYER
10
41.45397514788008
20
73.4853584937249
30
7.569923985188947e-07
 70
     32
  0
VERTEX
  8
MY3DLAYER
10
41.35352207579783
20
73.65015422984133
30
7.569629874636628e-07
 70
     32
  0
VERTEX
  8
MY3DLAYER
10
41.273809176001265
20
73.82592199690816
30
7.569174199447206e-07
 70
     32
  0
VERTEX
  8
MY3DLAYER
10
41.21601462238731
20
74.0100639093179
30
7.568560111594155e-07
 70
     32
  0
VERTEX
  8
MY3DLAYER
10
41.18099263095792
20
74.19985830978776
30
7.567798492347753e-07
 70
     32
  0
VERTEX
  8
MY3DLAYER
10
41.169260834317
20
74.39249999603761
30
7.566900598441391e-07
 70
     32
  0
SEQEND
  0
POLYLINE
 8
Layer0
 66
     1
70
    8
 10
0.0
 20
 0.0
 30
0.0
  0
VERTEX
  8
MY3DLAYER
10
41.16926083431736
20
66.39166420957623
30
7.606746422684791e-07
 70
     32
  0
VERTEX
  8
MY3DLAYER
10
41.16926083431736
20
67.99459653583673
30
7.598763486750103e-07
 70
     32
  0
VERTEX
  8
MY3DLAYER
10
41.1852738737056
20
68.2195075907622
30
7.597559437564661e-07
 70
     32
  0
VERTEX
  8
MY3DLAYER
10
41.232989946288725
20
68.43988131078105
30
7.596209983306689e-07
 70
     32
  0
VERTEX
  8
MY3DLAYER
10
41.31144643241377
20
68.65127189676518
30
7.594745920819126e-07
 70
     32
  0
VERTEX
  8
MY3DLAYER
10
41.41906055815616
20
68.84941477450487
30
7.593194981167679e-07
 70
     32
  0
VERTEX
  8
MY3DLAYER
10
41.55366132605564
20
69.03031262783307
30
7.591590257650416e-07
 70
     32
  0
VERTEX
  8
MY3DLAYER
10
41.71253331261787
20
69.19031604012018
30
7.589960550717211e-07
 70
     32
  0
VERTEX
  8
MY3DLAYER
10
41.89247144901987
20
69.32619711726598
30
7.588338737872599e-07
 70
     32
  0
VERTEX
  8
MY3DLAYER
10
42.089845679871104
20
69.43521460693376
30
7.586762915321593e-07
 70
     32
  0
VERTEX
  8
MY3DLAYER
10
42.300674195620644
20
69.51516920032917
30
7.585257690961942e-07
 70
     32
  0
VERTEX
  8
MY3DLAYER
10
42.52070376120882
20
69.56444790085011
30
7.583858808860206e-07
 70
     32
  0
VERTEX
  8
MY3DLAYER
10
42.74549552044836
20
69.58205656453126
30
7.582592685272722e-07
 70
     32
  0
VERTEX
  8
MY3DLAYER
10
42.97051454508354
20
69.5676399574793
30
7.581483057983364e-07
 70
     32
  0
VERTEX
  8
MY3DLAYER
10
46.275644760593025
20
68.93455697871154
30
7.567307609986951e-07
 70
     32
  0
VERTEX
  8
MY3DLAYER
10
49.49289342317277
20
67.9476472348075
30
7.55536040978385e-07
 70
     32
  0
VERTEX
  8
MY3DLAYER
10
52.58450003178765
20
66.61849397913542
30
7.545776308391563e-07
 70
     32
  0
VERTEX
  8
MY3DLAYER
10
55.51417873265473
20
64.96269734030227
30
7.538660616577142e-07
 70
     32
  0
VERTEX
  8
MY3DLAYER
10
58.24754420240741
20
62.999691225115455
30
7.534109441552187e-07
 70
     32
  0
VERTEX
  8
MY3DLAYER
10
60.75251522492411
20
60.75251522492411
30
7.532165392459475e-07
 70
     32
  0
VERTEX
  8
MY3DLAYER
10
62.999691225116536
20
58.247544202406324
30
7.53286026800113e-07
 70
     32
  0
VERTEX
  8
MY3DLAYER
10
64.962697340303
20
55.514178732655445
30
7.536185912415497e-07
 70
     32
  0
VERTEX
  8
MY3DLAYER
10
66.61849397913579
20
52.58450003178765
30
7.542096116255718e-07
 70
     32
  0
VERTEX
  8
MY3DLAYER
10
67.94764723480715
20
49.492893423173484
30
7.550525121703763e-07
 70
     32
  0
VERTEX
  8
MY3DLAYER
10
68.93455697871046
20
46.27564476059266
30
7.561372193553433e-07
 70
     32
  0
VERTEX
  8
MY3DLAYER
10
69.5676399574793
20
42.97051454508246
30
7.574513609300264e-07
 70
     32
  0
VERTEX
  8
MY3DLAYER
10
69.58205656453234
20
42.74549552044619
30
7.575556869614773e-07
 70
     32
  0
VERTEX
  8
MY3DLAYER
10
69.5644479008512
20
42.5207037612081
30
7.57677049418367e-07
 70
     32
  0
VERTEX
  8
MY3DLAYER
10
69.5151692003299
20
42.300674195620644
30
7.578126426323242e-07
 70
     32
  0
VERTEX
  8
MY3DLAYER
10
69.43521460693376
20
42.089845679871466
30
7.579593738326479e-07
 70
     32
  0
VERTEX
  8
MY3DLAYER
10
69.32619711726635
20
41.892471449018785
30
7.581148206846529e-07
 70
     32
  0
VERTEX
  8
MY3DLAYER
10
69.19031604012163
20
41.71253331261643
30
7.582756667315078e-07
 70
     32
  0
VERTEX
  8
MY3DLAYER
10
69.03031262783452
20
41.553661326054915
30
7.584386670840461e-07
 70
     32
  0
VERTEX
  8
MY3DLAYER
10
68.84941477450451
20
41.41906055815616
30
7.586005333804542e-07
 70
     32
  0
VERTEX
  8
MY3DLAYER
10
68.65127189676589
20
41.311446432413405
30
7.587581806324777e-07
 70
     32
  0
VERTEX
  8
MY3DLAYER
10
68.43988131078214
20
41.232989946288
30
7.589078906812628e-07
 70
     32
  0
VERTEX
  8
MY3DLAYER
10
68.21950759076148
20
41.18527387370488
30
7.590473615639355e-07
 70
     32
  0
VERTEX
  8
MY3DLAYER
10
67.99459653583709
20
41.169260834317
30
7.591732418109168e-07
 70
     32
  0
VERTEX
  8
MY3DLAYER
10
66.39166420957623
20
41.169260834317
30
7.600135491486921e-07
 70
     32
  0
VERTEX
  8
MY3DLAYER
10
66.20319743563243
20
41.18048784872161
30
7.601067580461067e-07
 70
     32
  0
VERTEX
  8
MY3DLAYER
10
66.01739638664915
20
41.21401009400888
30
7.601874660045655e-07
 70
     32
  0
VERTEX
  8
MY3DLAYER
10
65.83688908284691
20
41.269353422488564
30
7.602545314608789e-07
 70
     32
  0
VERTEX
  8
MY3DLAYER
10
65.66422866829187
20
41.345735043172176
30
7.603070058212827e-07
 70
     32
  0
VERTEX
  8
MY3DLAYER
10
65.50185729852241
20
41.44207459378691
30
7.603439664059623e-07
 70
     32
  0
VERTEX
  8
MY3DLAYER
10
65.35207159805475
20
41.55700942170347
30
7.603654293085546e-07
 70
     32
  0
VERTEX
  8
MY3DLAYER
10
65.21699017629325
20
41.688913857671544
30
7.603705520695808e-07
 70
     32
  0
VERTEX
  8
MY3DLAYER
10
65.09852366135702
20
41.83592220971933
30
7.603594427179911e-07
 70
     32
  0
VERTEX
  8
MY3DLAYER
10
64.99834767563134
20
41.995955152006744
30
7.60332258378793e-07
 70
     32
  0
VERTEX
  8
MY3DLAYER
10
64.91787913531935
20
42.16674913536964
30
7.602893835533148e-07
 70
     32
  0
VERTEX
  8
MY3DLAYER
10
64.85825620918806
20
42.34588840357292
30
7.602314246830597e-07
 70
     32
  0
VERTEX
  8
MY3DLAYER
10
64.8203222204826
20
42.53083916242622
30
7.60159021068749e-07
 70
     32
  0
VERTEX
  8
MY3DLAYER
10
64.27107268097653
20
45.29212944634395
30
7.590719554389623e-07
 70
     32
  0
VERTEX
  8
MY3DLAYER
10
63.429800821937036
20
47.978885994282166
30
7.581745549771652e-07
 70
     32
  0
VERTEX
  8
MY3DLAYER
10
62.306147170904644
20
50.560320006847775
30
7.57478001654592e-07
 70
     32
  0
VERTEX
  8
MY3DLAYER
10
60.91298820040154
20
53.00684962481853
30
7.569899166564794e-07
 70
     32
  0
VERTEX
  8
MY3DLAYER
10
59.26628877039607
20
55.290438921501426
30
7.567158931770512e-07
 70
     32
  0
VERTEX
  8
MY3DLAYER
10
57.38491917952334
20
57.38491917952334
30
7.566590713701561e-07
 70
     32
  0
VERTEX
  8
MY3DLAYER
10
55.290438921501426
20
59.26628877039607
30
7.568204633504049e-07
 70
     32
  0
VERTEX
  8
MY3DLAYER
10
53.006849624819615
20
60.912988200400825
30
7.571975018687803e-07
 70
     32
  0
VERTEX
  8
MY3DLAYER
10
50.560320006846325
20
62.306147170905724
30
7.577865881853995e-07
 70
     32
  0
VERTEX
  8
MY3DLAYER
10
47.978885994282166
20
63.429800821936674
30
7.585797124608565e-07
 70
     32
  0
VERTEX
  8
MY3DLAYER
10
45.29212944634359
20
64.2710726809769
30
7.595692235477704e-07
 70
     32
  0
VERTEX
  8
MY3DLAYER
10
42.53083916242658
20
64.82032222048295
30
7.607430602512166e-07
 70
     32
  0
VERTEX
  8
MY3DLAYER
10
42.34588840357364
20
64.85825620918841
30
7.608214862784775e-07
 70
     32
  0
VERTEX
  8
MY3DLAYER
10
42.16674913536928
20
64.91787913531935
30
7.608855227603239e-07
 70
     32
  0
VERTEX
  8
MY3DLAYER
10
41.995955152007106
20
64.99834767563134
30
7.609348028312333e-07
 70
     32
  0
VERTEX
  8
MY3DLAYER
10
41.83592220971969
20
65.09852366135702
30
7.609691683472652e-07
 70
     32
  0
VERTEX
  8
MY3DLAYER
10
41.688913857671906
20
65.2169901762936
30
7.609870554662647e-07
 70
     32
  0
VERTEX
  8
MY3DLAYER
10
41.55700942170419
20
65.3520715980544
30
7.609889305512044e-07
 70
     32
  0
VERTEX
  8
MY3DLAYER
10
41.44207459378763
20
65.50185729852241
30
7.609747670767747e-07
 70
     32
  0
VERTEX
  8
MY3DLAYER
10
41.34573504317254
20
65.66422866829114
30
7.609442264927806e-07
 70
     32
  0
VERTEX
  8
MY3DLAYER
10
41.26935342248928
20
65.83688908284726
30
7.608982796608078e-07
 70
     32
  0
VERTEX
  8
MY3DLAYER
10
41.21401009400924
20
66.01739638664843
30
7.608373959785974e-07
 70
     32
  0
VERTEX
  8
MY3DLAYER
10
41.18048784872053
20
66.20319743563387
30
7.607624366044296e-07
 70
     32
  0
VERTEX
  8
MY3DLAYER
10
41.16926083431736
20
66.39166420957623
30
7.606746422684791e-07
 70
     32
  0
SEQEND
  0
POLYLINE
 8
Layer0
 66
     1
70
    8
 10
0.0
 20
 0.0
 30
0.0
  0
VERTEX
  8
MY3DLAYER
10
36.40676083431664
20
67.99459653583746
30
7.623733613161109e-07
 70
     32
  0
VERTEX
  8
MY3DLAYER
10
36.40676083431664
20
66.39166420957696
30
7.631716549095796e-07
 70
     32
  0
VERTEX
  8
MY3DLAYER
10
36.39553381991239
20
66.20319743563387
30
7.632712203529262e-07
 70
     32
  0
VERTEX
  8
MY3DLAYER
10
36.362011574624766
20
66.01739638664915
30
7.633813265445817e-07
 70
     32
  0
VERTEX
  8
MY3DLAYER
10
36.30666824614508
20
65.83688908284726
30
7.63500235641647e-07
 70
     32
  0
VERTEX
  8
MY3DLAYER
10
36.23028662546074
20
65.66422866829114
30
7.636262657544252e-07
 70
     32
  0
VERTEX
  8
MY3DLAYER
10
36.13394707484709
20
65.50185729852241
30
7.63757634278557e-07
 70
     32
  0
VERTEX
  8
MY3DLAYER
10
36.019012246930174
20
65.3520715980544
30
7.638924831039791e-07
 70
     32
  0
VERTEX
  8
MY3DLAYER
10
35.88710781096174
20
65.2169901762936
30
7.640289048978927e-07
 70
     32
  0
VERTEX
  8
MY3DLAYER
10
35.74009945891359
20
65.09852366135702
30
7.641651505430405e-07
 70
     32
  0
VERTEX
  8
MY3DLAYER
10
35.58006651662726
20
64.99834767563206
30
7.642987540668575e-07
 70
     32
  0
VERTEX
  8
MY3DLAYER
10
35.409272533264364
20
64.91787913531935
30
7.644283646282903e-07
 70
     32
  0
VERTEX
  8
MY3DLAYER
10
35.230133265061085
20
64.85825620918841
30
7.645517880235357e-07
 70
     32
  0
VERTEX
  8
MY3DLAYER
10
35.04518250620778
20
64.82032222048223
30
7.646674564393534e-07
 70
     32
  0
VERTEX
  8
MY3DLAYER
10
32.28389222229078
20
64.2710726809769
30
7.663883685075402e-07
 70
     32
  0
VERTEX
  8
MY3DLAYER
10
29.597135674351833
20
63.42980082193595
30
7.68216001794178e-07
 70
     32
  0
VERTEX
  8
MY3DLAYER
10
27.015701661786593
20
62.306147170905724
30
7.701288732273047e-07
 70
     32
  0
VERTEX
  8
MY3DLAYER
10
24.56917204381547
20
60.912988200400825
30
7.721054232764142e-07
 70
     32
  0
VERTEX
  8
MY3DLAYER
10
22.285582747132576
20
59.26628877039607
30
7.74122642838073e-07
 70
     32
  0
VERTEX
  8
MY3DLAYER
10
21.273216407218328
20
58.356929400955494
30
7.751065977979008e-07
 70
     32
  0
VERTEX
  8
MY3DLAYER
10
20.19110248911211
20
57.38491917952261
30
7.761572351832821e-07
 70
     32
  0
VERTEX
  8
MY3DLAYER
10
18.309732898239016
20
55.29043892150071
30
7.781866027364511e-07
 70
     32
  0
VERTEX
  8
MY3DLAYER
10
16.66303346823354
20
53.00684962481781
30
7.801871290658967e-07
 70
     32
  0
VERTEX
  8
MY3DLAYER
10
15.269874497729361
20
50.56032000684705
30
7.821362501657467e-07
 70
     32
  0
VERTEX
  8
MY3DLAYER
10
14.146220846698053
20
47.978885994282166
30
7.840105514136768e-07
 70
     32
  0
VERTEX
  8
MY3DLAYER
10
13.304948987658554
20
45.292129446343225
30
7.857899940066914e-07
 70
     32
  0
VERTEX
  8
MY3DLAYER
10
12.75569944815033
20
42.53083916242694
30
7.874531077389258e-07
 70
     32
  0
VERTEX
  8
MY3DLAYER
10
12.71776545690446
20
42.34588840357364
30
7.875651032475395e-07
 70
     32
  0
VERTEX
  8
MY3DLAYER
10
12.658142530775333
20
42.16674913536892
30
7.876855745289277e-07
 70
     32
  0
VERTEX
  8
MY3DLAYER
10
12.5776739904619
20
41.99595515200602
30
7.878124566571258e-07
 70
     32
  0
VERTEX
  8
MY3DLAYER
10
12.477498004736582
20
41.83592220971933
30
7.879450327272565e-07
 70
     32
  0
VERTEX
  8
MY3DLAYER
10
12.359031489800714
20
41.688913857671544
30
7.880799888435909e-07
 70
     32
  0
VERTEX
  8
MY3DLAYER
10
12.223950068039564
20
41.55700942170347
30
7.882168548648417e-07
 70
     32
  0
VERTEX
  8
MY3DLAYER
10
12.074164367571543
20
41.44207459378691
30
7.883526171501096e-07
 70
     32
  0
VERTEX
  8
MY3DLAYER
10
11.911792997802095
20
41.3457350431729
30
7.88485716406639e-07
 70
     32
  0
VERTEX
  8
MY3DLAYER
10
11.739132583247411
20
41.26935342248928
30
7.886142700369233e-07
 70
     32
  0
VERTEX
  8
MY3DLAYER
10
11.558625279443719
20
41.2140100940096
30
7.887364597464023e-07
 70
     32
  0
VERTEX
  8
MY3DLAYER
10
11.372824230461168
20
41.180487848720894
30
7.888505572536258e-07
 70
     32
  0
VERTEX
  8
MY3DLAYER
10
11.184357456515553
20
41.169260834317
30
7.889549487281269e-07
 70
     32
  0
VERTEX
  8
MY3DLAYER
10
9.581425130256505
20
41.169260834317
30
7.897952560659022e-07
 70
     32
  0
VERTEX
  8
MY3DLAYER
10
9.356514075330676
20
41.1852738737056
30
7.899051866595667e-07
 70
     32
  0
VERTEX
  8
MY3DLAYER
10
9.136140355313268
20
41.232989946288
30
7.899969498725238e-07
 70
     32
  0
VERTEX
  8
MY3DLAYER
10
8.924749769328061
20
41.311446432413405
30
7.900686944793938e-07
 70
     32
  0
VERTEX
  8
MY3DLAYER
10
8.726606891590892
20
41.419060558155444
30
7.901189731103486e-07
 70
     32
  0
VERTEX
  8
MY3DLAYER
10
8.545709038260165
20
41.553661326054915
30
7.901467714531862e-07
 70
     32
  0
VERTEX
  8
MY3DLAYER
10
8.38570562597269
20
41.712533312617154
30
7.901518896593056e-07
 70
     32
  0
VERTEX
  8
MY3DLAYER
10
8.249824548828338
20
41.892471449018785
30
7.901331488945929e-07
 70
     32
  0
VERTEX
  8
MY3DLAYER
10
8.14080705915984
20
42.089845679871466
30
7.90092002807708e-07
 70
     32
  0
VERTEX
  8
MY3DLAYER
10
8.060852465762979
20
42.300674195619926
30
7.900289205320203e-07
 70
     32
  0
VERTEX
  8
MY3DLAYER
10
8.011573765242758
20
42.5207037612081
30
7.89945535632254e-07
 70
     32
  0
VERTEX
  8
MY3DLAYER
10
7.993965101561261
20
42.74549552044619
30
7.898424547206523e-07
 70
     32
  0
VERTEX
  8
MY3DLAYER
10
8.008381711153254
20
42.97051454508246
30
7.897228329376438e-07
 70
     32
  0
VERTEX
  8
MY3DLAYER
10
8.64146468992354
20
46.27564476059266
30
7.877449275035895e-07
 70
     32
  0
VERTEX
  8
MY3DLAYER
10
9.628374433826135
20
49.49289342317421
30
7.856253018339881e-07
 70
     32
  0
VERTEX
  8
MY3DLAYER
10
10.957527689498217
20
52.584500031788366
30
7.833891947059672e-07
 70
     32
  0
VERTEX
  8
MY3DLAYER
10
12.613324328332814
20
55.51417873265473
30
7.810617724312261e-07
 70
     32
  0
VERTEX
  8
MY3DLAYER
10
14.576330443517465
20
58.24754420240705
30
7.786710693926095e-07
 70
     32
  0
VERTEX
  8
MY3DLAYER
10
16.82350644371025
20
60.75251522492339
30
7.762455017369402e-07
 70
     32
  0
VERTEX
  8
MY3DLAYER
10
17.500292917911537
20
61.35965131887796
30
7.755885231575457e-07
 70
     32
  0
VERTEX
  8
MY3DLAYER
10
19.328477466228037
20
62.999691225115455
30
7.738129966497822e-07
 70
     32
  0
VERTEX
  8
MY3DLAYER
10
22.061842935977836
20
64.96269734030227
30
7.714031849399665e-07
 70
     32
  0
VERTEX
  8
MY3DLAYER
10
24.991521636845995
20
66.61849397913542
30
7.690425539908733e-07
 70
     32
  0
VERTEX
  8
MY3DLAYER
10
28.083128245460156
20
67.9476472348075
30
7.667598910282743e-07
 70
     32
  0
VERTEX
  8
MY3DLAYER
10
31.300376908040977
20
68.93455697871083
30
7.645812655132124e-07
 70
     32
  0
VERTEX
  8
MY3DLAYER
10
34.605507123552265
20
69.5676399574793
30
7.625335047231531e-07
 70
     32
  0
VERTEX
  8
MY3DLAYER
10
34.83052614818817
20
69.58205656453198
30
7.624083629328634e-07
 70
     32
  0
VERTEX
  8
MY3DLAYER
10
35.05531790742554
20
69.56444790085084
30
7.622996504876109e-07
 70
     32
  0
VERTEX
  8
MY3DLAYER
10
35.27534747301408
20
69.5151692003299
30
7.622090263868959e-07
 70
     32
  0
VERTEX
  8
MY3DLAYER
10
35.48617598876218
20
69.43521460693376
30
7.621383225239058e-07
 70
     32
  0
VERTEX
  8
MY3DLAYER
10
35.68355021961377
20
69.32619711726598
30
7.620891457452844e-07
 70
     32
  0
VERTEX
  8
MY3DLAYER
10
35.86348835601649
20
69.1903160401209
30
7.620624881339664e-07
 70
     32
  0
VERTEX
  8
MY3DLAYER
10
36.022360342578004
20
69.0303126278338
30
7.620590679662583e-07
 70
     32
  0
VERTEX
  8
MY3DLAYER
10
36.15696111047784
20
68.84941477450487
30
7.620784164392556e-07
 70
     32
  0
VERTEX
  8
MY3DLAYER
10
36.26457523621915
20
68.65127189676589
30
7.621206810118699e-07
 70
     32
  0
VERTEX
  8
MY3DLAYER
10
36.34303172234528
20
68.43988131078105
30
7.621848285684507e-07
 70
     32
  0
VERTEX
  8
MY3DLAYER
10
36.39074779492804
20
68.21950759076148
30
7.62269564997739e-07
 70
     32
  0
VERTEX
  8
MY3DLAYER
10
36.40676083431664
20
67.99459653583746
30
7.623733613161109e-07
 70
     32
  0
SEQEND
  0
POLYLINE
 8
Layer0
 66
     1
70
    8
 10
0.0
 20
 0.0
 30
0.0
  0
VERTEX
  8
MY3DLAYER
10
36.389791770214906
20
60.1881814796714
30
7.662700138918923e-07
 70
     32
  0
VERTEX
  8
MY3DLAYER
10
36.40676083431664
20
59.95668886771663
30
7.663764063033529e-07
 70
     32
  0
VERTEX
  8
MY3DLAYER
10
36.40676083431718
20
59.14797672847683
30
7.667791617484067e-07
 70
     32
  0
VERTEX
  8
MY3DLAYER
10
36.40676083431772
20
58.33926458923702
30
7.671819171934605e-07
 70
     32
  0
VERTEX
  8
MY3DLAYER
10
36.39641838737836
20
58.15834940793399
30
7.67277438546007e-07
 70
     32
  0
VERTEX
  8
MY3DLAYER
10
36.365525807135135
20
57.97979152510634
30
7.673825589377819e-07
 70
     32
  0
VERTEX
  8
MY3DLAYER
10
36.314485619413304
20
57.80591752396828
30
7.674959086692058e-07
 70
     32
  0
VERTEX
  8
MY3DLAYER
10
36.2439628704302
20
57.638992957441516
30
7.676160108048644e-07
 70
     32
  0
VERTEX
  8
MY3DLAYER
10
36.154876461333345
20
57.48119282832738
30
7.677413004341e-07
 70
     32
  0
VERTEX
  8
MY3DLAYER
10
36.04838717506492
20
57.33457324933279
30
7.678701450496757e-07
 70
     32
  0
VERTEX
  8
MY3DLAYER
10
35.92588255152377
20
57.20104465222635
30
7.68000504868492e-07
 70
     32
  0
VERTEX
  8
MY3DLAYER
10
35.78895880811621
20
57.08234689518983
30
7.681317594924151e-07
 70
     32
  0
VERTEX
  8
MY3DLAYER
10
35.639400041286194
20
56.98002659271473
30
7.682611205143529e-07
 70
     32
  0
VERTEX
  8
MY3DLAYER
10
35.47915497999234
20
56.8954169634457
30
7.683872633486819e-07
 70
     32
  0
VERTEX
  8
MY3DLAYER
10
35.31031159405146
20
56.82962045853441
30
7.68508544368024e-07
 70
     32
  0
VERTEX
  8
MY3DLAYER
10
35.13506988819026
20
56.78349439809145
30
7.686230223393972e-07
 70
     32
  0
VERTEX
  8
MY3DLAYER
10
33.40026563730022
20
56.342315375995554
30
7.697518164342248e-07
 70
     32
  0
VERTEX
  8
MY3DLAYER
10
31.716660327119968
20
55.734320410573794
30
7.709372092005919e-07
 70
     32
  0
VERTEX
  8
MY3DLAYER
10
30.100253008328785
20
54.96528718749116
30
7.721675750733177e-07
 70
     32
  0
VERTEX
  8
MY3DLAYER
10
28.56640415909716
20
54.042523715005025
30
7.734312220637924e-07
 70
     32
  0
VERTEX
  8
MY3DLAYER
10
27.598291381878184
20
53.32305015247732
30
7.742974108446501e-07
 70
     32
  0
VERTEX
  8
MY3DLAYER
10
27.129689716745073
20
52.974798877053956
30
7.74716502884281e-07
 70
     32
  0
VERTEX
  8
MY3DLAYER
10
25.803762564778395
20
51.772259103854886
30
7.760104852180642e-07
 70
     32
  0
VERTEX
  8
MY3DLAYER
10
24.601222791580412
20
50.446331951890016
30
7.773012335019271e-07
 70
     32
  0
VERTEX
  8
MY3DLAYER
10
23.53349795362753
20
49.00961750953684
30
7.78576481944666e-07
 70
     32
  0
VERTEX
  8
MY3DLAYER
10
22.6107344811414
20
47.47576866030522
30
7.798241120542635e-07
 70
     32
  0
VERTEX
  8
MY3DLAYER
10
21.841701258059487
20
45.859361341514756
30
7.810322677828489e-07
 70
     32
  0
VERTEX
  8
MY3DLAYER
10
21.23370629263628
20
44.17575603133559
30
7.821898291654038e-07
 70
     32
  0
VERTEX
  8
MY3DLAYER
10
20.792527270540752
20
42.44095178044483
30
7.832850775778537e-07
 70
     32
  0
VERTEX
  8
MY3DLAYER
10
20.746401207558108
20
42.26571007458254
30
7.833961713636303e-07
 70
     32
  0
VERTEX
  8
MY3DLAYER
10
20.680604702649344
20
42.09686668864167
30
7.835147514664419e-07
 70
     32
  0
VERTEX
  8
MY3DLAYER
10
20.59599507337995
20
41.93662162734781
30
7.836389118533182e-07
 70
     32
  0
VERTEX
  8
MY3DLAYER
10
20.49367477090521
20
41.78706286051779
30
7.837668542558673e-07
 70
     32
  0
VERTEX
  8
MY3DLAYER
10
20.374977013866527
20
41.65013911711023
30
7.838970897262788e-07
 70
     32
  0
VERTEX
  8
MY3DLAYER
10
20.241448416761887
20
41.527634493568726
30
7.840280994482299e-07
 70
     32
  0
VERTEX
  8
MY3DLAYER
10
20.094828837766574
20
41.42114520730102
30
7.841579959002882e-07
 70
     32
  0
VERTEX
  8
MY3DLAYER
10
19.93702870865208
20
41.33205879820452
30
7.842850865517892e-07
 70
     32
  0
VERTEX
  8
MY3DLAYER
10
19.770104142127117
20
41.26153604921925
30
7.844075349546387e-07
 70
     32
  0
VERTEX
  8
MY3DLAYER
10
19.5962301409887
20
41.21049586149886
30
7.845241042285771e-07
 70
     32
  0
VERTEX
  8
MY3DLAYER
10
19.41767225816033
20
41.17960328125636
30
7.846332754856809e-07
 70
     32
  0
VERTEX
  8
MY3DLAYER
10
19.236757076857657
20
41.169260834317
30
7.847330871693821e-07
 70
     32
  0
VERTEX
  8
MY3DLAYER
10
17.619332800917373
20
41.169260834316276
30
7.855813525957724e-07
 70
     32
  0
VERTEX
  8
MY3DLAYER
10
17.387840188962244
20
41.1862298984191
30
7.856942573287745e-07
 70
     32
  0
VERTEX
  8
MY3DLAYER
10
17.16129650673638
20
41.23677432016208
30
7.857876659756509e-07
 70
     32
  0
VERTEX
  8
MY3DLAYER
10
16.944544884019706
20
41.319813543283246
30
7.858601191817159e-07
 70
     32
  0
VERTEX
  8
MY3DLAYER
10
16.742219112541154
20
41.43357232633264
30
7.859095304526674e-07
 70
     32
  0
VERTEX
  8
MY3DLAYER
10
16.558644583143504
20
41.57561869440528
30
7.859348434521938e-07
 70
     32
  0
VERTEX
  8
MY3DLAYER
10
16.39774581608898
20
41.74291593074468
30
7.859358741279121e-07
 70
     32
  0
VERTEX
  8
MY3DLAYER
10
16.2629625612916
20
41.931887496732315
30
7.859124199654718e-07
 70
     32
  0
VERTEX
  8
MY3DLAYER
10
16.157176262138357
20
42.1384934923798
30
7.858649823791474e-07
 70
     32
  0
VERTEX
  8
MY3DLAYER
10
16.0826484549968
20
42.35831702271481
30
7.857945755048931e-07
 70
     32
  0
VERTEX
  8
MY3DLAYER
10
16.040972421300268
20
42.586658623702384
30
7.857027045273575e-07
 70
     32
  0
VERTEX
  8
MY3DLAYER
10
16.033039125819766
20
42.818636729024206
30
7.855913334981184e-07
 70
     32
  0
VERTEX
  8
MY3DLAYER
10
16.05901816917735
20
43.04929202992548
30
7.85462843339111e-07
 70
     32
  0
VERTEX
  8
MY3DLAYER
10
16.598059867298183
20
45.297365724111856
30
7.840606733932903e-07
 70
     32
  0
VERTEX
  8
MY3DLAYER
10
17.358866011297142
20
47.480385489953996
30
7.825746457902366e-07
 70
     32
  0
VERTEX
  8
MY3DLAYER
10
18.333833170537215
20
49.576534417203476
30
7.81019611756752e-07
 70
     32
  0
VERTEX
  8
MY3DLAYER
10
19.51321760777121
20
51.5648637752367
30
7.794111121666759e-07
 70
     32
  0
VERTEX
  8
MY3DLAYER
10
20.885232657195616
20
53.4255023728567
30
7.777659441338385e-07
 70
     32
  0
VERTEX
  8
MY3DLAYER
10
22.436166519377615
20
55.139855149255666
30
7.760991127274321e-07
 70
     32
  0
VERTEX
  8
MY3DLAYER
10
23.78369854475099
20
56.358935071017804
30
7.747852061462841e-07
 70
     32
  0
VERTEX
  8
MY3DLAYER
10
24.1505192957773
20
56.69078901143695
30
7.744279980177563e-07
 70
     32
  0
VERTEX
  8
MY3DLAYER
10
26.011157893397662
20
58.06280406086316
30
7.727689400307147e-07
 70
     32
  0
VERTEX
  8
MY3DLAYER
10
27.999487251430164
20
59.24218849809715
30
7.711392375477684e-07
 70
     32
  0
VERTEX
  8
MY3DLAYER
10
30.09563617868109
20
60.21715565733794
30
7.695544557649678e-07
 70
     32
  0
VERTEX
  8
MY3DLAYER
10
32.27865594452323
20
60.97796180133582
30
7.680309706738045e-07
 70
     32
  0
VERTEX
  8
MY3DLAYER
10
34.52672963870924
20
61.517003499456294
30
7.665840060616137e-07
 70
     32
  0
VERTEX
  8
MY3DLAYER
10
34.7573849396098
20
61.54298254281424
30
7.664503317026619e-07
 70
     32
  0
VERTEX
  8
MY3DLAYER
10
34.98936304493234
20
61.53504924733301
30
7.663326724566005e-07
 70
     32
  0
VERTEX
  8
MY3DLAYER
10
35.21770464591919
20
61.49337321363684
30
7.662340851230347e-07
 70
     32
  0
VERTEX
  8
MY3DLAYER
10
35.43752817625348
20
61.41884540649637
30
7.661561436177883e-07
 70
     32
  0
VERTEX
  8
MY3DLAYER
10
35.6441341719006
20
61.31305910734312
30
7.661005180549951e-07
 70
     32
  0
VERTEX
  8
MY3DLAYER
10
35.833105737890406
20
61.17827585254394
30
7.660685781011884e-07
 70
     32
  0
VERTEX
  8
MY3DLAYER
10
36.00040297422945
20
61.017377085490864
30
7.660610065793067e-07
 70
     32
  0
VERTEX
  8
MY3DLAYER
10
36.14244934230173
20
60.83380255609321
30
7.6607796535102e-07
 70
     32
  0
VERTEX
  8
MY3DLAYER
10
36.25620812535076
20
60.631476784613575
30
7.661190918743874e-07
 70
     32
  0
VERTEX
  8
MY3DLAYER
10
36.339247348471204
20
60.414725161897984
30
7.661836873980657e-07
 70
     32
  0
VERTEX
  8
MY3DLAYER
10
36.389791770214906
20
60.1881814796714
30
7.662700138918923e-07
 70
     32
  0
SEQEND
  0
POLYLINE
 8
Layer0
 66
     1
70
    8
 10
0.0
 20
 0.0
 30
0.0
  0
VERTEX
  8
MY3DLAYER
10
36.40676083431682
20
18.428044938886973
30
7.870585336527828e-07
 70
     32
  0
VERTEX
  8
MY3DLAYER
10
36.40676083431664
20
17.619332800917373
30
7.874612890950826e-07
 70
     32
  0
VERTEX
  8
MY3DLAYER
10
36.389791770213826
20
17.387840188962603
30
7.875854729394536e-07
 70
     32
  0
VERTEX
  8
MY3DLAYER
10
36.33924734847193
20
17.161296506736022
30
7.877247933725083e-07
 70
     32
  0
VERTEX
  8
MY3DLAYER
10
36.25620812535184
20
16.944544884020427
30
7.878762719423434e-07
 70
     32
  0
VERTEX
  8
MY3DLAYER
10
36.14244934230137
20
16.742219112540074
30
7.880366702974883e-07
 70
     32
  0
VERTEX
  8
MY3DLAYER
10
36.000402974228365
20
16.558644583143142
30
7.882025593807309e-07
 70
     32
  0
VERTEX
  8
MY3DLAYER
10
35.833105737890044
20
16.397745816089344
30
7.883703927647704e-07
 70
     32
  0
VERTEX
  8
MY3DLAYER
10
35.6441341719006
20
16.26296256129088
30
7.885365824388152e-07
 70
     32
  0
VERTEX
  8
MY3DLAYER
10
35.43752817625384
20
16.157176262137636
30
7.886975755480238e-07
 70
     32
  0
VERTEX
  8
MY3DLAYER
10
35.217704645919554
20
16.082648454996438
30
7.888499303233039e-07
 70
     32
  0
VERTEX
  8
MY3DLAYER
10
34.9893630449327
20
16.040972421299546
30
7.889900287201198e-07
 70
     32
  0
VERTEX
  8
MY3DLAYER
10
34.7573849396098
20
16.033039125819766
30
7.891155898537456e-07
 70
     32
  0
VERTEX
  8
MY3DLAYER
10
34.526729638711046
20
16.059018169176987
30
7.892235684853372e-07
 70
     32
  0
VERTEX
  8
MY3DLAYER
10
32.278655944522505
20
16.598059867298183
30
7.901332642158004e-07
 70
     32
  0
VERTEX
  8
MY3DLAYER
10
30.095636178680728
20
17.358866011295337
30
7.908987742999418e-07
 70
     32
  0
VERTEX
  8
MY3DLAYER
10
27.999487251429443
20
18.33383317053613
30
7.915124482843569e-07
 70
     32
  0
VERTEX
  8
MY3DLAYER
10
26.011157893398384
20
19.513217607770127
30
7.919674348732131e-07
 70
     32
  0
VERTEX
  8
MY3DLAYER
10
24.150519295777663
20
20.885232657196337
30
7.922599088701007e-07
 70
     32
  0
VERTEX
  8
MY3DLAYER
10
22.436166519377252
20
22.436166519378336
30
7.923862290153301e-07
 70
     32
  0
VERTEX
  8
MY3DLAYER
10
20.88523265719742
20
24.150519295775858
30
7.923454938339128e-07
 70
     32
  0
VERTEX
  8
MY3DLAYER
10
19.513217607770486
20
26.01115789339802
30
7.921373885195516e-07
 70
     32
  0
VERTEX
  8
MY3DLAYER
10
18.33383317053613
20
27.999487251430523
30
7.917654294602952e-07
 70
     32
  0
VERTEX
  8
MY3DLAYER
10
17.358866011295337
20
30.095636178679285
30
7.912326120774158e-07
 70
     32
  0
VERTEX
  8
MY3DLAYER
10
16.598059867298904
20
32.27865594452287
30
7.905444417771571e-07
 70
     32
  0
VERTEX
  8
MY3DLAYER
10
16.05901816917771
20
34.52672963870924
30
7.897072564452042e-07
 70
     32
  0
VERTEX
  8
MY3DLAYER
10
16.033039125819403
20
34.7573849396098
30
7.896061848203065e-07
 70
     32
  0
VERTEX
  8
MY3DLAYER
10
16.040972421300268
20
34.98936304493162
30
7.894864960245398e-07
 70
     32
  0
VERTEX
  8
MY3DLAYER
10
16.08264845499752
20
35.217704645918474
30
7.8935074880296e-07
 70
     32
  0
VERTEX
  8
MY3DLAYER
10
16.157176262137636
20
35.43752817625348
30
7.892022023097983e-07
 70
     32
  0
VERTEX
  8
MY3DLAYER
10
16.262962561292323
20
35.644134171900966
30
7.890440322128565e-07
 70
     32
  0
VERTEX
  8
MY3DLAYER
10
16.397745816089703
20
35.833105737889326
30
7.888792628435708e-07
 70
     32
  0
VERTEX
  8
MY3DLAYER
10
16.55864458314242
20
36.00040297422945
30
7.887114166925737e-07
 70
     32
  0
VERTEX
  8
MY3DLAYER
10
16.742219112540074
20
36.14244934230137
30
7.885446196131701e-07
 70
     32
  0
VERTEX
  8
MY3DLAYER
10
16.94454488402079
20
36.25620812535148
30
7.883818998693277e-07
 70
     32
  0
VERTEX
  8
MY3DLAYER
10
17.1612965067353
20
36.33924734847193
30
7.882267361430591e-07
 70
     32
  0
VERTEX
  8
MY3DLAYER
10
17.387840188962965
20
36.38979177021346
30
7.880829831522981e-07
 70
     32
  0
VERTEX
  8
MY3DLAYER
10
17.619332800917373
20
36.406760834317005
30
7.879531765260863e-07
 70
     32
  0
VERTEX
  8
MY3DLAYER
10
19.236757076856936
20
36.406760834317005
30
7.87104911099696e-07
 70
     32
  0
VERTEX
  8
MY3DLAYER
10
19.41767225815961
20
36.39641838737692
30
7.870154009242957e-07
 70
     32
  0
VERTEX
  8
MY3DLAYER
10
19.5962301409887
20
36.365525807135135
30
7.869369999572838e-07
 70
     32
  0
VERTEX
  8
MY3DLAYER
10
19.770104142126755
20
36.31448561941403
30
7.868712688353062e-07
 70
     32
  0
VERTEX
  8
MY3DLAYER
10
19.937028708652804
20
36.24396287042948
30
7.868190640185346e-07
 70
     32
  0
VERTEX
  8
MY3DLAYER
10
20.094828837766574
20
36.15487646133298
30
7.867807071318573e-07
 70
     32
  0
VERTEX
  8
MY3DLAYER
10
20.241448416761887
20
36.04838717506528
30
7.86756878431603e-07
 70
     32
  0
VERTEX
  8
MY3DLAYER
10
20.374977013865802
20
35.92588255152377
30
7.867478884059954e-07
 70
     32
  0
VERTEX
  8
MY3DLAYER
10
20.49367477090557
20
35.78895880811621
30
7.867540346716532e-07
 70
     32
  0
VERTEX
  8
MY3DLAYER
10
20.595995073379587
20
35.639400041286194
30
7.867750590143802e-07
 70
     32
  0
VERTEX
  8
MY3DLAYER
10
20.680604702648623
20
35.47915497999161
30
7.868105093638069e-07
 70
     32
  0
VERTEX
  8
MY3DLAYER
10
20.746401207558108
20
35.31031159405218
30
7.868602847684383e-07
 70
     32
  0
VERTEX
  8
MY3DLAYER
10
20.792527270541473
20
35.13506988818918
30
7.869235585264595e-07
 70
     32
  0
VERTEX
  8
MY3DLAYER
10
21.233706292637365
20
33.400265637299135
30
7.875562472199094e-07
 70
     32
  0
VERTEX
  8
MY3DLAYER
10
21.841701258059487
20
31.71666032711852
30
7.880758071527465e-07
 70
     32
  0
VERTEX
  8
MY3DLAYER
10
22.610734481142483
20
30.100253008328785
30
7.884776602691112e-07
 70
     32
  0
VERTEX
  8
MY3DLAYER
10
23.533497953628977
20
28.56640415909644
30
7.887576268609478e-07
 70
     32
  0
VERTEX
  8
MY3DLAYER
10
24.601222791579687
20
27.12968971674327
30
7.889135861702603e-07
 70
     32
  0
VERTEX
  8
MY3DLAYER
10
25.803762564779117
20
25.803762564779117
30
7.889433359354117e-07
 70
     32
  0
VERTEX
  8
MY3DLAYER
10
27.129689716744352
20
24.60122279158005
30
7.888471331754173e-07
 70
     32
  0
VERTEX
  8
MY3DLAYER
10
28.56640415909716
20
23.53349795362753
30
7.886257116103064e-07
 70
     32
  0
VERTEX
  8
MY3DLAYER
10
30.100253008328785
20
22.61073448114212
30
7.882808144199851e-07
 70
     32
  0
VERTEX
  8
MY3DLAYER
10
31.716660327119605
20
21.841701258059487
30
7.878164375850829e-07
 70
     32
  0
VERTEX
  8
MY3DLAYER
10
33.40026563729986
20
21.233706292637724
30
7.872366330669705e-07
 70
     32
  0
VERTEX
  8
MY3DLAYER
10
35.13506988818954
20
20.792527270541836
30
7.865472716062603e-07
 70
     32
  0
VERTEX
  8
MY3DLAYER
10
35.31031159405218
20
20.74640120755919
30
7.864787371126419e-07
 70
     32
  0
VERTEX
  8
MY3DLAYER
10
35.47915497999125
20
20.680604702648623
30
7.86422992141893e-07
 70
     32
  0
VERTEX
  8
MY3DLAYER
10
35.63940004128583
20
20.59599507338031
30
7.863811240169105e-07
 70
     32
  0
VERTEX
  8
MY3DLAYER
10
35.78895880811585
20
20.493674770904487
30
7.863536782635148e-07
 70
     32
  0
VERTEX
  8
MY3DLAYER
10
35.92588255152269
20
20.374977013867248
30
7.863410124942133e-07
 70
     32
  0
VERTEX
  8
MY3DLAYER
10
36.04838717506528
20
20.241448416760804
30
7.863432917486462e-07
 70
     32
  0
VERTEX
  8
MY3DLAYER
10
36.15487646133298
20
20.094828837766215
30
7.863604863235334e-07
 70
     32
  0
VERTEX
  8
MY3DLAYER
10
36.24396287042984
20
19.93702870865208
30
7.863923721802487e-07
 70
     32
  0
VERTEX
  8
MY3DLAYER
10
36.31448561941367
20
19.770104142125312
30
7.864385338474024e-07
 70
     32
  0
VERTEX
  8
MY3DLAYER
10
36.365525807135135
20
19.596230140987977
30
7.864983698459715e-07
 70
     32
  0
VERTEX
  8
MY3DLAYER
10
36.396418387376556
20
19.417672258158888
30
7.865711005268244e-07
 70
     32
  0
VERTEX
  8
MY3DLAYER
10
36.406760834317005
20
19.236757076856577
30
7.866557782104828e-07
 70
     32
  0
VERTEX
  8
MY3DLAYER
10
36.40676083431682
20
18.428044938886973
30
7.870585336527828e-07
 70
     32
  0
SEQEND
  0
POLYLINE
 8
Layer0
 66
     1
70
    8
 10
0.0
 20
 0.0
 30
0.0
  0
VERTEX
  8
MY3DLAYER
10
41.16926083431736
20
59.05668886771663
30
7.638793936622524e-07
 70
     32
  0
VERTEX
  8
MY3DLAYER
10
41.16926083431736
20
59.95668886771663
30
7.638793936622524e-07
 70
     32
  0
VERTEX
  8
MY3DLAYER
10
41.18622989841982
20
60.1881814796714
30
7.637552098178814e-07
 70
     32
  0
VERTEX
  8
MY3DLAYER
10
41.236774320162795
20
60.414725161897984
30
7.636158893903344e-07
 70
     32
  0
VERTEX
  8
MY3DLAYER
10
41.31981354328288
20
60.631476784613575
30
7.634644108149915e-07
 70
     32
  0
VERTEX
  8
MY3DLAYER
10
41.43357232633299
20
60.83380255609321
30
7.633040124598467e-07
 70
     32
  0
VERTEX
  8
MY3DLAYER
10
41.57561869440672
20
61.017377085490864
30
7.63138123376604e-07
 70
     32
  0
VERTEX
  8
MY3DLAYER
10
41.74291593074504
20
61.17827585254466
30
7.629701095202175e-07
 70
     32
  0
VERTEX
  8
MY3DLAYER
10
41.93188749673268
20
61.313059107342404
30
7.628039198461725e-07
 70
     32
  0
VERTEX
  8
MY3DLAYER
10
42.1384934923798
20
61.41884540649565
30
7.626431072148189e-07
 70
     32
  0
VERTEX
  8
MY3DLAYER
10
42.35831702271481
20
61.49337321363684
30
7.624905719561762e-07
 70
     32
  0
VERTEX
  8
MY3DLAYER
10
42.5866586237031
20
61.53504924733301
30
7.623501126091582e-07
 70
     32
  0
VERTEX
  8
MY3DLAYER
10
42.81863672902456
20
61.54298254281424
30
7.622245514700247e-07
 70
     32
  0
VERTEX
  8
MY3DLAYER
10
43.049292029924764
20
61.51700349945702
30
7.621163923605782e-07
 70
     32
  0
VERTEX
  8
MY3DLAYER
10
45.297365724111856
20
60.97796180133582
30
7.612063356744053e-07
 70
     32
  0
VERTEX
  8
MY3DLAYER
10
47.48038548995436
20
60.217155657338665
30
7.604408255957717e-07
 70
     32
  0
VERTEX
  8
MY3DLAYER
10
49.57653441720456
20
59.24218849809715
30
7.598278735172683e-07
 70
     32
  0
VERTEX
  8
MY3DLAYER
10
51.56486377523598
20
58.06280406086316
30
7.593732478896296e-07
 70
     32
  0
VERTEX
  8
MY3DLAYER
10
53.42550237285706
20
56.69078901143695
30
7.590807738872343e-07
 70
     32
  0
VERTEX
  8
MY3DLAYER
10
55.13985514925603
20
55.139855149255666
30
7.589540927862952e-07
 70
     32
  0
VERTEX
  8
MY3DLAYER
10
56.6907890114373
20
53.4255023728567
30
7.589951889234222e-07
 70
     32
  0
VERTEX
  8
MY3DLAYER
10
58.06280406086316
20
51.56486377523598
30
7.592025723263638e-07
 70
     32
  0
VERTEX
  8
MY3DLAYER
10
59.242188498097875
20
49.576534417203476
30
7.595745313856202e-07
 70
     32
  0
VERTEX
  8
MY3DLAYER
10
60.2171556573383
20
47.480385489953996
30
7.601069878127898e-07
 70
     32
  0
VERTEX
  8
MY3DLAYER
10
60.9779618013369
20
45.29736572411113
30
7.607953385909034e-07
 70
     32
  0
VERTEX
  8
MY3DLAYER
10
61.517003499457374
20
43.049292029924764
30
7.616323434450015e-07
 70
     32
  0
VERTEX
  8
MY3DLAYER
10
61.5429825428146
20
42.818636729024206
30
7.61733595547754e-07
 70
     32
  0
VERTEX
  8
MY3DLAYER
10
61.535049247334456
20
42.586658623702384
30
7.618534648268833e-07
 70
     32
  0
VERTEX
  8
MY3DLAYER
10
61.49337321363684
20
42.35831702271481
30
7.619890315651006e-07
 70
     32
  0
VERTEX
  8
MY3DLAYER
10
61.418845406496004
20
42.1384934923798
30
7.62137397585915e-07
 70
     32
  0
VERTEX
  8
MY3DLAYER
10
61.313059107343484
20
41.93188749673304
30
7.622957481552041e-07
 70
     32
  0
VERTEX
  8
MY3DLAYER
10
61.178275852545745
20
41.742915930743955
30
7.624606980023446e-07
 70
     32
  0
VERTEX
  8
MY3DLAYER
10
61.017377085491944
20
41.57561869440528
30
7.626281831976319e-07
 70
     32
  0
VERTEX
  8
MY3DLAYER
10
60.83380255609285
20
41.43357232633264
30
7.627951607548904e-07
 70
     32
  0
VERTEX
  8
MY3DLAYER
10
60.631476784613575
20
41.31981354328252
30
7.629578805042405e-07
 70
     32
  0
VERTEX
  8
MY3DLAYER
10
60.414725161899064
20
41.23677432016208
30
7.631126832747994e-07
 70
     32
  0
VERTEX
  8
MY3DLAYER
10
60.18818147967248
20
41.1862298984191
30
7.632567972157624e-07
 70
     32
  0
VERTEX
  8
MY3DLAYER
10
59.956688867717354
20
41.169260834316276
30
7.633866038419742e-07
 70
     32
  0
VERTEX
  8
MY3DLAYER
10
58.33926458923666
20
41.169260834317
30
7.642346887905098e-07
 70
     32
  0
VERTEX
  8
MY3DLAYER
10
58.15834940793471
20
41.17960328125709
30
7.643241989659099e-07
 70
     32
  0
VERTEX
  8
MY3DLAYER
10
57.97979152510598
20
41.21049586149886
30
7.644025999329218e-07
 70
     32
  0
VERTEX
  8
MY3DLAYER
10
57.80591752396828
20
41.26153604921998
30
7.644683310604073e-07
 70
     32
  0
VERTEX
  8
MY3DLAYER
10
57.63899295744296
20
41.33205879820452
30
7.645207163495259e-07
 70
     32
  0
VERTEX
  8
MY3DLAYER
10
57.481192828327025
20
41.42114520730102
30
7.645588927638561e-07
 70
     32
  0
VERTEX
  8
MY3DLAYER
10
57.334573249333154
20
41.527634493568726
30
7.645829019364576e-07
 70
     32
  0
VERTEX
  8
MY3DLAYER
10
57.20104465222743
20
41.65013911711023
30
7.645918919675729e-07
 70
     32
  0
VERTEX
  8
MY3DLAYER
10
57.082346895190554
20
41.78706286051707
30
7.645859261797699e-07
 70
     32
  0
VERTEX
  8
MY3DLAYER
10
56.98002659271401
20
41.93662162734709
30
7.645652627927528e-07
 70
     32
  0
VERTEX
  8
MY3DLAYER
10
56.89541696344678
20
42.09686668864167
30
7.645296319654711e-07
 70
     32
  0
VERTEX
  8
MY3DLAYER
10
56.82962045853549
20
42.26571007458182
30
7.644800370386946e-07
 70
     32
  0
VERTEX
  8
MY3DLAYER
10
56.78349439809145
20
42.44095178044483
30
7.644169437530205e-07
 70
     32
  0
VERTEX
  8
MY3DLAYER
10
56.34231537599628
20
44.175756031334146
30
7.637842550650783e-07
 70
     32
  0
VERTEX
  8
MY3DLAYER
10
55.73432041057343
20
45.859361341514756
30
7.632646951322412e-07
 70
     32
  0
VERTEX
  8
MY3DLAYER
10
54.96528718749188
20
47.47576866030522
30
7.628628420158767e-07
 70
     32
  0
VERTEX
  8
MY3DLAYER
10
54.04252371500611
20
49.00961750953684
30
7.625826949406773e-07
 70
     32
  0
VERTEX
  8
MY3DLAYER
10
52.974798877053956
20
50.446331951890016
30
7.624269161092197e-07
 70
     32
  0
VERTEX
  8
MY3DLAYER
10
51.77225910385452
20
51.77225910385417
30
7.623969858662136e-07
 70
     32
  0
VERTEX
  8
MY3DLAYER
10
50.446331951890734
20
52.974798877053956
30
7.624935495819177e-07
 70
     32
  0
VERTEX
  8
MY3DLAYER
10
49.00961750953756
20
54.04252371500575
30
7.627142492356089e-07
 70
     32
  0
VERTEX
  8
MY3DLAYER
10
47.475768660305576
20
54.96528718749188
30
7.630587854757283e-07
 70
     32
  0
VERTEX
  8
MY3DLAYER
10
45.859361341516205
20
55.734320410573794
30
7.635231623051228e-07
 70
     32
  0
VERTEX
  8
MY3DLAYER
10
44.17575603133595
20
56.342315375995554
30
7.641029668232351e-07
 70
     32
  0
VERTEX
  8
MY3DLAYER
10
42.44095178044483
20
56.78349439809217
30
7.647930501953649e-07
 70
     32
  0
VERTEX
  8
MY3DLAYER
10
42.26571007458254
20
56.82962045853441
30
7.648619456502008e-07
 70
     32
  0
VERTEX
  8
MY3DLAYER
10
42.09686668864203
20
56.8954169634457
30
7.649173296597321e-07
 70
     32
  0
VERTEX
  8
MY3DLAYER
10
41.93662162734745
20
56.98002659271401
30
7.649595587459323e-07
 70
     32
  0
VERTEX
  8
MY3DLAYER
10
41.78706286051779
20
57.08234689518983
30
7.649870044993279e-07
 70
     32
  0
VERTEX
  8
MY3DLAYER
10
41.65013911711095
20
57.20104465222707
30
7.649996702631216e-07
 70
     32
  0
VERTEX
  8
MY3DLAYER
10
41.527634493568364
20
57.33457324933279
30
7.649973910086888e-07
 70
     32
  0
VERTEX
  8
MY3DLAYER
10
41.4211452073003
20
57.48119282832738
30
7.649801964338016e-07
 70
     32
  0
VERTEX
  8
MY3DLAYER
10
41.33205879820452
20
57.63899295744224
30
7.649483105770863e-07
 70
     32
  0
VERTEX
  8
MY3DLAYER
10
41.26153604921925
20
57.80591752396828
30
7.649021489099326e-07
 70
     32
  0
VERTEX
  8
MY3DLAYER
10
41.210495861499226
20
57.97979152510634
30
7.648423129113634e-07
 70
     32
  0
VERTEX
  8
MY3DLAYER
10
41.17960328125781
20
58.15834940793471
30
7.647695822360183e-07
 70
     32
  0
VERTEX
  8
MY3DLAYER
10
41.16926083431736
20
58.33926458923702
30
7.646849045523599e-07
 70
     32
  0
VERTEX
  8
MY3DLAYER
10
41.16926083431736
20
59.05668886771663
30
7.638793936622524e-07
 70
     32
  0
SEQEND
  0
POLYLINE
 8
Layer0
 66
     1
70
    8
 10
0.0
 20
 0.0
 30
0.0
  0
VERTEX
  8
MY3DLAYER
10
41.16926083431736
20
18.428044938886973
30
7.845615210116821e-07
 70
     32
  0
VERTEX
  8
MY3DLAYER
10
41.169260834317
20
19.236757076857298
30
7.841587655693822e-07
 70
     32
  0
VERTEX
  8
MY3DLAYER
10
41.17960328125636
20
19.41767225815961
30
7.84063244211328e-07
 70
     32
  0
VERTEX
  8
MY3DLAYER
10
41.2104958614985
20
19.596230140987977
30
7.83958123819553e-07
 70
     32
  0
VERTEX
  8
MY3DLAYER
10
41.261536049220695
20
19.770104142125312
30
7.838447740881291e-07
 70
     32
  0
VERTEX
  8
MY3DLAYER
10
41.33205879820488
20
19.93702870865208
30
7.837246719524706e-07
 70
     32
  0
VERTEX
  8
MY3DLAYER
10
41.42114520730102
20
20.094828837766215
30
7.835993823287427e-07
 70
     32
  0
VERTEX
  8
MY3DLAYER
10
41.52763449356909
20
20.241448416760804
30
7.83470537713167e-07
 70
     32
  0
VERTEX
  8
MY3DLAYER
10
41.65013911711095
20
20.374977013867248
30
7.833398169331332e-07
 70
     32
  0
VERTEX
  8
MY3DLAYER
10
41.78706286051743
20
20.493674770904487
30
7.832089232704276e-07
 70
     32
  0
VERTEX
  8
MY3DLAYER
10
41.93662162734781
20
20.595995073379587
30
7.83079562242982e-07
 70
     32
  0
VERTEX
  8
MY3DLAYER
10
42.09686668864167
20
20.680604702648623
30
7.82953419408653e-07
 70
     32
  0
VERTEX
  8
MY3DLAYER
10
42.26571007458182
20
20.74640120755919
30
7.82832138389311e-07
 70
     32
  0
VERTEX
  8
MY3DLAYER
10
42.44095178044483
20
20.792527270541836
30
7.82717299462228e-07
 70
     32
  0
VERTEX
  8
MY3DLAYER
10
44.17575603133559
20
21.233706292637002
30
7.815877834559808e-07
 70
     32
  0
VERTEX
  8
MY3DLAYER
10
45.85936134151584
20
21.841701258058762
30
7.804023906896137e-07
 70
     32
  0
VERTEX
  8
MY3DLAYER
10
47.47576866030594
20
22.61073448114212
30
7.791720248223957e-07
 70
     32
  0
VERTEX
  8
MY3DLAYER
10
49.0096175095372
20
23.533497953628256
30
7.779083778264132e-07
 70
     32
  0
VERTEX
  8
MY3DLAYER
10
50.44633195188929
20
24.60122279157933
30
7.76624179873054e-07
 70
     32
  0
VERTEX
  8
MY3DLAYER
10
51.77225910385452
20
25.803762564779117
30
7.753301975392708e-07
 70
     32
  0
VERTEX
  8
MY3DLAYER
10
52.974798877054674
20
27.12968971674327
30
7.740390882996981e-07
 70
     32
  0
VERTEX
  8
MY3DLAYER
10
54.04252371500539
20
28.56640415909716
30
7.727638398569592e-07
 70
     32
  0
VERTEX
  8
MY3DLAYER
10
54.96528718749296
20
30.100253008328785
30
7.715162097473617e-07
 70
     32
  0
VERTEX
  8
MY3DLAYER
10
55.4630829921718
20
31.146554725598705
30
7.707339891256658e-07
 70
     32
  0
VERTEX
  8
MY3DLAYER
10
55.73432041057488
20
31.71666032711852
30
7.703080540187763e-07
 70
     32
  0
VERTEX
  8
MY3DLAYER
10
56.34231537599664
20
33.400265637299135
30
7.69150673119584e-07
 70
     32
  0
VERTEX
  8
MY3DLAYER
10
56.78349439809253
20
35.13506988818918
30
7.680554247016264e-07
 70
     32
  0
VERTEX
  8
MY3DLAYER
10
56.82962045853549
20
35.31031159405218
30
7.679439699656478e-07
 70
     32
  0
VERTEX
  8
MY3DLAYER
10
56.89541696344642
20
35.47915497999161
30
7.678253898628362e-07
 70
     32
  0
VERTEX
  8
MY3DLAYER
10
56.980026592715454
20
35.639400041286194
30
7.677014099538148e-07
 70
     32
  0
VERTEX
  8
MY3DLAYER
10
57.082346895190554
20
35.78895880811621
30
7.675731065955558e-07
 70
     32
  0
VERTEX
  8
MY3DLAYER
10
57.20104465222743
20
35.92588255152305
30
7.674426906417817e-07
 70
     32
  0
VERTEX
  8
MY3DLAYER
10
57.334573249333154
20
36.048387175066
30
7.673116809253384e-07
 70
     32
  0
VERTEX
  8
MY3DLAYER
10
57.481192828327025
20
36.15487646133298
30
7.671816039954253e-07
 70
     32
  0
VERTEX
  8
MY3DLAYER
10
57.63899295744296
20
36.24396287042948
30
7.670546938162714e-07
 70
     32
  0
VERTEX
  8
MY3DLAYER
10
57.80591752396901
20
36.31448561941403
30
7.66932064935567e-07
 70
     32
  0
VERTEX
  8
MY3DLAYER
10
57.97979152510634
20
36.365525807135135
30
7.668154956671363e-07
 70
     32
  0
VERTEX
  8
MY3DLAYER
10
58.15834940793471
20
36.39641838737692
30
7.667063244045247e-07
 70
     32
  0
VERTEX
  8
MY3DLAYER
10
58.33926458923774
20
36.40676083431628
30
7.666065127263314e-07
 70
     32
  0
VERTEX
  8
MY3DLAYER
10
59.956688867717354
20
36.40676083431628
30
7.657584277722881e-07
 70
     32
  0
VERTEX
  8
MY3DLAYER
10
60.188181479672124
20
36.38979177021418
30
7.65645523039286e-07
 70
     32
  0
VERTEX
  8
MY3DLAYER
10
60.414725161898346
20
36.33924734847193
30
7.655517534422077e-07
 70
     32
  0
VERTEX
  8
MY3DLAYER
10
60.631476784612495
20
36.2562081253522
30
7.654796611863446e-07
 70
     32
  0
VERTEX
  8
MY3DLAYER
10
60.83380255609429
20
36.14244934230137
30
7.654302499153931e-07
 70
     32
  0
VERTEX
  8
MY3DLAYER
10
61.01737708549158
20
36.00040297422945
30
7.65404756438012e-07
 70
     32
  0
VERTEX
  8
MY3DLAYER
10
61.17827585254466
20
35.833105737889326
30
7.654039062401484e-07
 70
     32
  0
VERTEX
  8
MY3DLAYER
10
61.313059107343484
20
35.644134171900966
30
7.654271799247339e-07
 70
     32
  0
VERTEX
  8
MY3DLAYER
10
61.41884540649637
20
35.43752817625348
30
7.654746175110582e-07
 70
     32
  0
VERTEX
  8
MY3DLAYER
10
61.49337321363648
20
35.21770464591919
30
7.655452048631674e-07
 70
     32
  0
VERTEX
  8
MY3DLAYER
10
61.53504924733374
20
34.98936304493162
30
7.65637075840703e-07
 70
     32
  0
VERTEX
  8
MY3DLAYER
10
61.542982542815324
20
34.7573849396098
30
7.65748266397595e-07
 70
     32
  0
VERTEX
  8
MY3DLAYER
10
61.51700349945702
20
34.52672963870924
30
7.658767565566024e-07
 70
     32
  0
VERTEX
  8
MY3DLAYER
10
60.97796180133654
20
32.27865594452215
30
7.672789264969153e-07
 70
     32
  0
VERTEX
  8
MY3DLAYER
10
60.217155657339745
20
30.095636178679285
30
7.68764954099969e-07
 70
     32
  0
VERTEX
  8
MY3DLAYER
10
59.28951830075495
20
28.101244848214655
30
7.702444989746062e-07
 70
     32
  0
VERTEX
  8
MY3DLAYER
10
59.242188498097875
20
27.9994872514298
30
7.703199881389614e-07
 70
     32
  0
VERTEX
  8
MY3DLAYER
10
58.06280406086316
20
26.0111578933973
30
7.719288486847473e-07
 70
     32
  0
VERTEX
  8
MY3DLAYER
10
56.6907890114373
20
24.15051929577658
30
7.735747386234964e-07
 70
     32
  0
VERTEX
  8
MY3DLAYER
10
55.13985514925603
20
22.436166519377615
30
7.752415700299028e-07
 70
     32
  0
VERTEX
  8
MY3DLAYER
10
53.4255023728567
20
20.885232657197058
30
7.769126847395786e-07
 70
     32
  0
VERTEX
  8
MY3DLAYER
10
51.56486377523562
20
19.513217607770848
30
7.785717427266203e-07
 70
     32
  0
VERTEX
  8
MY3DLAYER
10
49.5765344172042
20
18.33383317053613
30
7.802010842593645e-07
 70
     32
  0
VERTEX
  8
MY3DLAYER
10
47.48038548995616
20
17.358866011294616
30
7.817851441307457e-07
 70
     32
  0
VERTEX
  8
MY3DLAYER
10
45.297365724110776
20
16.598059867298183
30
7.833084487385462e-07
 70
     32
  0
VERTEX
  8
MY3DLAYER
10
43.0492920299244
20
16.05901816917771
30
7.847557743064468e-07
 70
     32
  0
VERTEX
  8
MY3DLAYER
10
42.81863672902601
20
16.033039125819766
30
7.848896291432535e-07
 70
     32
  0
VERTEX
  8
MY3DLAYER
10
42.58665862370202
20
16.040972421300268
30
7.850072883893148e-07
 70
     32
  0
VERTEX
  8
MY3DLAYER
10
42.35831702271553
20
16.082648454996438
30
7.851062366785906e-07
 70
     32
  0
VERTEX
  8
MY3DLAYER
10
42.13849349238052
20
16.157176262137636
30
7.851843586616919e-07
 70
     32
  0
VERTEX
  8
MY3DLAYER
10
41.93188749673304
20
16.26296256129088
30
7.852399842244849e-07
 70
     32
  0
VERTEX
  8
MY3DLAYER
10
41.74291593074468
20
16.397745816089344
30
7.852719241782917e-07
 70
     32
  0
VERTEX
  8
MY3DLAYER
10
41.575618694404916
20
16.55864458314242
30
7.852794957001734e-07
 70
     32
  0
VERTEX
  8
MY3DLAYER
10
41.43357232633299
20
16.742219112540074
30
7.852625369284601e-07
 70
     32
  0
VERTEX
  8
MY3DLAYER
10
41.31981354328252
20
16.944544884020427
30
7.852214104106005e-07
 70
     32
  0
VERTEX
  8
MY3DLAYER
10
41.236774320161715
20
17.161296506736022
30
7.851569953592693e-07
 70
     32
  0
VERTEX
  8
MY3DLAYER
10
41.18622989842018
20
17.38784018896188
30
7.850706688709504e-07
 70
     32
  0
VERTEX
  8
MY3DLAYER
10
41.169260834317726
20
17.619332800916652
30
7.84964276453982e-07
 70
     32
  0
VERTEX
  8
MY3DLAYER
10
41.16926083431736
20
18.428044938886973
30
7.845615210116821e-07
 70
     32
  0
SEQEND
  0
POLYLINE
 8
Layer0
 66
     1
70
    8
 10
0.0
 20
 0.0
 30
0.0
  0
VERTEX
  8
MY3DLAYER
10
36.40676083431646
20
2.3850661333667658
30
7.950484508358405e-07
 70
     32
  0
VERTEX
  8
MY3DLAYER
10
36.40676083431664
20
1.5866105941364252
30
7.954460982806301e-07
 70
     32
  0
VERTEX
  8
MY3DLAYER
10
36.39128263856039
20
1.3654687912534484
30
7.955641651715729e-07
 70
     32
  0
VERTEX
  8
MY3DLAYER
10
36.345149877488325
20
1.14863927323953
30
7.956963350123132e-07
 70
     32
  0
VERTEX
  8
MY3DLAYER
10
36.269262144054935
20
0.9403502350243684
30
7.958398500078172e-07
 70
     32
  0
VERTEX
  8
MY3DLAYER
10
36.16509925582357
20
0.7446633314215318
30
7.959917311223599e-07
 70
     32
  0
VERTEX
  8
MY3DLAYER
10
36.034692398405525
20
0.5653944744933141
30
7.961495545727187e-07
 70
     32
  0
VERTEX
  8
MY3DLAYER
10
35.88058451713883
20
0.40603942293110434
30
7.963097048754603e-07
 70
     32
  0
VERTEX
  8
MY3DLAYER
10
35.70578072945055
20
0.2697056144463033
30
7.964692395663001e-07
 70
     32
  0
VERTEX
  8
MY3DLAYER
10
35.51368972478018
20
0.15905157045688156
30
7.966252281823346e-07
 70
     32
  0
VERTEX
  8
MY3DLAYER
10
35.30805729484373
20
0.07623505468408211
30
7.967740910074395e-07
 70
     32
  0
VERTEX
  8
MY3DLAYER
10
35.09289329035517
20
0.02287099656843452
30
7.969132826528453e-07
 70
     32
  0
VERTEX
  8
MY3DLAYER
10
34.87239342858103
20
7.219114195322617e-13
30
7.970399048594454e-07
 70
     32
  0
VERTEX
  8
MY3DLAYER
10
34.65085747650013
20
0.008068053364809202
30
7.971522033657467e-07
 70
     32
  0
VERTEX
  8
MY3DLAYER
10
30.29734083282321
20
0.723479799169371
30
7.990779827768586e-07
 70
     32
  0
VERTEX
  8
MY3DLAYER
10
26.052483112183147
20
1.9260204697317647
30
8.00704921367695e-07
 70
     32
  0
VERTEX
  8
MY3DLAYER
10
21.970607668136704
20
3.6003006111983606
30
8.020109420502682e-07
 70
     32
  0
VERTEX
  8
MY3DLAYER
10
18.10395209673399
20
5.724893707521306
30
8.029791506146758e-07
 70
     32
  0
VERTEX
  8
MY3DLAYER
10
14.501999728507387
20
8.272610385224453
30
8.03598952006223e-07
 70
     32
  0
VERTEX
  8
MY3DLAYER
10
11.210846368041082
20
11.210846368041445
30
8.038613360960255e-07
 70
     32
  0
VERTEX
  8
MY3DLAYER
10
8.272610385225175
20
14.501999728505943
30
8.037625886963151e-07
 70
     32
  0
VERTEX
  8
MY3DLAYER
10
5.724893707522028
20
18.10395209673327
30
8.033036125708933e-07
 70
     32
  0
VERTEX
  8
MY3DLAYER
10
3.6003006111979996
20
21.970607668137426
30
8.024917160319184e-07
 70
     32
  0
VERTEX
  8
MY3DLAYER
10
1.9260204697324865
20
26.052483112183868
30
8.013365673620147e-07
 70
     32
  0
VERTEX
  8
MY3DLAYER
10
0.723479799169371
20
30.297340832821764
30
7.998531300083301e-07
 70
     32
  0
VERTEX
  8
MY3DLAYER
10
0.008068053365170158
20
34.65085747650049
30
7.980598490521777e-07
 70
     32
  0
VERTEX
  8
MY3DLAYER
10
7.219114195322617e-13
20
34.87239342858103
30
7.979539295524009e-07
 70
     32
  0
VERTEX
  8
MY3DLAYER
10
0.02287099656915643
20
35.092893290354446
30
7.97832306826925e-07
 70
     32
  0
VERTEX
  8
MY3DLAYER
10
0.07623505468408211
20
35.30805729484445
30
7.976969950918878e-07
 70
     32
  0
VERTEX
  8
MY3DLAYER
10
0.15905157045688156
20
35.51368972478054
30
7.975511708577763e-07
 70
     32
  0
VERTEX
  8
MY3DLAYER
10
0.2697056144463033
20
35.70578072945055
30
7.973974972304373e-07
 70
     32
  0
VERTEX
  8
MY3DLAYER
10
0.40603942293327006
20
35.880584517138466
30
7.972391513427334e-07
 70
     32
  0
VERTEX
  8
MY3DLAYER
10
0.5653944744929532
20
36.03469239840408
30
7.970786830281857e-07
 70
     32
  0
VERTEX
  8
MY3DLAYER
10
0.7446633314222537
20
36.16509925582357
30
7.969197593502789e-07
 70
     32
  0
VERTEX
  8
MY3DLAYER
10
0.9403502350261732
20
36.26926214405385
30
7.967652988641674e-07
 70
     32
  0
VERTEX
  8
MY3DLAYER
10
1.1486392732398911
20
36.34514987748904
30
7.966183135584263e-07
 70
     32
  0
VERTEX
  8
MY3DLAYER
10
1.3654687912545311
20
36.39128263856075
30
7.96481489181251e-07
 70
     32
  0
VERTEX
  8
MY3DLAYER
10
1.5866105941371471
20
36.406760834317005
30
7.963580317371134e-07
 70
     32
  0
VERTEX
  8
MY3DLAYER
10
3.1835216725974673
20
36.406760834317005
30
7.955207004498639e-07
 70
     32
  0
VERTEX
  8
MY3DLAYER
10
3.376163358846969
20
36.395029037676444
30
7.95425554318092e-07
 70
     32
  0
VERTEX
  8
MY3DLAYER
10
3.565957759315742
20
36.36000704624669
30
7.953434998311456e-07
 70
     32
  0
VERTEX
  8
MY3DLAYER
10
3.750099671725843
20
36.302212492633466
30
7.952757497563679e-07
 70
     32
  0
VERTEX
  8
MY3DLAYER
10
3.9258674387930252
20
36.222499592836535
30
7.952233054682629e-07
 70
     32
  0
VERTEX
  8
MY3DLAYER
10
4.090663174909466
20
36.1220465207532
30
7.951869420996099e-07
 70
     32
  0
VERTEX
  8
MY3DLAYER
10
4.242051163462162
20
36.00233799450964
30
7.951671971073801e-07
 70
     32
  0
VERTEX
  8
MY3DLAYER
10
4.377793857244074
20
35.86514333200985
30
7.95164362325058e-07
 70
     32
  0
VERTEX
  8
MY3DLAYER
10
4.495884949885828
20
35.71249030003306
30
7.951784796555832e-07
 70
     32
  0
VERTEX
  8
MY3DLAYER
10
4.594579029505724
20
35.546635143401076
30
7.952091599656117e-07
 70
     32
  0
VERTEX
  8
MY3DLAYER
10
4.67241737626268
20
35.37002923719278
30
7.952564885536223e-07
 70
     32
  0
VERTEX
  8
MY3DLAYER
10
4.728249522560231
20
35.18528285489359
30
7.953192271293718e-07
 70
     32
  0
VERTEX
  8
MY3DLAYER
10
4.761250257616581
20
34.99512658800395
30
7.953966288809164e-07
 70
     32
  0
VERTEX
  8
MY3DLAYER
10
5.401375858512512
20
31.202563501276373
30
7.969496497116889e-07
 70
     32
  0
VERTEX
  8
MY3DLAYER
10
6.462842236969672
20
27.505729088007755
30
7.982351985061017e-07
 70
     32
  0
VERTEX
  8
MY3DLAYER
10
7.932253641381979
20
23.951277558401742
30
7.992350777120092e-07
 70
     32
  0
VERTEX
  8
MY3DLAYER
10
9.791066036261238
20
20.584066244516094
30
7.999375712113617e-07
 70
     32
  0
VERTEX
  8
MY3DLAYER
10
12.015821128782266
20
17.446589498781236
30
8.00333452536479e-07
 70
     32
  0
VERTEX
  8
MY3DLAYER
10
14.578442413443305
20
14.578442413442223
30
8.00418443016107e-07
 70
     32
  0
VERTEX
  8
MY3DLAYER
10
17.44658949878268
20
12.015821128782266
30
8.00191109099355e-07
 70
     32
  0
VERTEX
  8
MY3DLAYER
10
20.584066244516816
20
9.791066036261599
30
7.996543197606384e-07
 70
     32
  0
VERTEX
  8
MY3DLAYER
10
23.951277558402825
20
7.932253641380896
30
7.988152102531963e-07
 70
     32
  0
VERTEX
  8
MY3DLAYER
10
27.505729088007755
20
6.462842236970033
30
7.976832918613237e-07
 70
     32
  0
VERTEX
  8
MY3DLAYER
10
31.202563501276373
20
5.4013758585117895
30
7.96273927767925e-07
 70
     32
  0
VERTEX
  8
MY3DLAYER
10
34.99512658800287
20
4.761250257616581
30
7.946045432398723e-07
 70
     32
  0
VERTEX
  8
MY3DLAYER
10
35.18528285489324
20
4.728249522560231
30
7.945214728985547e-07
 70
     32
  0
VERTEX
  8
MY3DLAYER
10
35.37002923719278
20
4.672417376262319
30
7.944526091022489e-07
 70
     32
  0
VERTEX
  8
MY3DLAYER
10
35.546635143399996
20
4.594579029505724
30
7.943987918705014e-07
 70
     32
  0
VERTEX
  8
MY3DLAYER
10
35.71249030003198
20
4.495884949885828
30
7.943609970989789e-07
 70
     32
  0
VERTEX
  8
MY3DLAYER
10
35.86514333200949
20
4.377793857243352
30
7.943397834164322e-07
 70
     32
  0
VERTEX
  8
MY3DLAYER
10
36.00233799451
20
4.24205116346144
30
7.943352838790142e-07
 70
     32
  0
VERTEX
  8
MY3DLAYER
10
36.122046520753564
20
4.090663174909104
30
7.943481037605855e-07
 70
     32
  0
VERTEX
  8
MY3DLAYER
10
36.22249959283726
20
3.9258674387919426
30
7.943775148158173e-07
 70
     32
  0
VERTEX
  8
MY3DLAYER
10
36.30221249263418
20
3.750099671725121
30
7.944232628181221e-07
 70
     32
  0
VERTEX
  8
MY3DLAYER
10
36.36000704624597
20
3.5659577593153813
30
7.944846715979195e-07
 70
     32
  0
VERTEX
  8
MY3DLAYER
10
36.39502903767753
20
3.3761633588455253
30
7.945608335280674e-07
 70
     32
  0
VERTEX
  8
MY3DLAYER
10
36.40676083431628
20
3.1835216725971063
30
7.946508033910507e-07
 70
     32
  0
VERTEX
  8
MY3DLAYER
10
36.40676083431646
20
2.3850661333667658
30
7.950484508358405e-07
 70
     32
  0
SEQEND
  0
POLYLINE
 8
Layer0
 66
     1
70
    8
 10
0.0
 20
 0.0
 30
0.0
  0
VERTEX
  8
MY3DLAYER
10
72.63419653511046
20
4.941825130983858
30
7.747828532037037e-07
 70
     32
  0
VERTEX
  8
MY3DLAYER
10
73.19181083277668
20
5.369697630466521
30
7.74277444931179e-07
 70
     32
  0
VERTEX
  8
MY3DLAYER
10
73.84116643574238
20
5.638669528018095
30
7.738028983112539e-07
 70
     32
  0
VERTEX
  8
MY3DLAYER
10
74.53801083277698
20
5.730410833317205
30
7.733919015747402e-07
 70
     32
  0
VERTEX
  8
MY3DLAYER
10
75.23485522981157
20
5.638669528017374
30
7.730724634659198e-07
 70
     32
  0
VERTEX
  8
MY3DLAYER
10
75.88421083277655
20
5.369697630466521
30
7.728660045107794e-07
 70
     32
  0
VERTEX
  8
MY3DLAYER
10
76.44182513044422
20
4.941825130983136
30
7.727867750188885e-07
 70
     32
  0
VERTEX
  8
MY3DLAYER
10
76.86969762992723
20
4.384210833316552
30
7.728399938779824e-07
 70
     32
  0
VERTEX
  8
MY3DLAYER
10
77.13866952747844
20
3.7348552303508598
30
7.730223829651491e-07
 70
     32
  0
VERTEX
  8
MY3DLAYER
10
77.23041083277647
20
3.038010833316622
30
7.733215127603883e-07
 70
     32
  0
VERTEX
  8
MY3DLAYER
10
77.13866952747844
20
2.341166436283106
30
7.737164689327128e-07
 70
     32
  0
VERTEX
  8
MY3DLAYER
10
76.86969762992723
20
1.6918108333166912
30
7.741808650061754e-07
 70
     32
  0
VERTEX
  8
MY3DLAYER
10
76.45804142885325
20
1.1553300271893363
30
7.746638466690856e-07
 70
     32
  0
VERTEX
  8
MY3DLAYER
10
76.44182513044349
20
1.1341965356508297
30
7.746832336357271e-07
 70
     32
  0
VERTEX
  8
MY3DLAYER
10
75.88421083277763
20
0.7063240361674445
30
7.751886419082518e-07
 70
     32
  0
VERTEX
  8
MY3DLAYER
10
75.23485522981157
20
0.4373521386165919
30
7.756630080503219e-07
 70
     32
  0
VERTEX
  8
MY3DLAYER
10
74.53801083277733
20
0.34561083331676057
30
7.76073643831126e-07
 70
     32
  0
VERTEX
  8
MY3DLAYER
10
73.8411664357431
20
0.4373521386165919
30
7.763932624178012e-07
 70
     32
  0
VERTEX
  8
MY3DLAYER
10
73.19181083277813
20
0.7063240361674445
30
7.766000823286513e-07
 70
     32
  0
VERTEX
  8
MY3DLAYER
10
72.63419653511119
20
1.1341965356501078
30
7.766793118205421e-07
 70
     32
  0
VERTEX
  8
MY3DLAYER
10
72.20632403562708
20
1.6918108333166912
30
7.766257320057385e-07
 70
     32
  0
VERTEX
  8
MY3DLAYER
10
71.93735213807695
20
2.341166436283106
30
7.764433429185719e-07
 70
     32
  0
VERTEX
  8
MY3DLAYER
10
71.84561083277748
20
3.038010833316622
30
7.761443936011875e-07
 70
     32
  0
VERTEX
  8
MY3DLAYER
10
71.93735213807659
20
3.7348552303515814
30
7.757492569510082e-07
 70
     32
  0
VERTEX
  8
MY3DLAYER
10
72.2063240356296
20
4.384210833316552
30
7.752848608775457e-07
 70
     32
  0
VERTEX
  8
MY3DLAYER
10
72.63419653511046
20
4.941825130983858
30
7.747828532037037e-07
 70
     32
  0
SEQEND
  0
POLYLINE
 8
Layer0
 66
     1
70
    8
 10
0.0
 20
 0.0
 30
0.0
  0
VERTEX
  8
MY3DLAYER
10
71.84561083277711
20
74.53801083277625
30
7.405357278577641e-07
 70
     32
  0
VERTEX
  8
MY3DLAYER
10
71.93735213807622
20
75.23485522981122
30
7.401405912075848e-07
 70
     32
  0
VERTEX
  8
MY3DLAYER
10
72.20632403562816
20
75.8842108327769
30
7.396761951341222e-07
 70
     32
  0
VERTEX
  8
MY3DLAYER
10
72.63419653510974
20
76.44182513044422
30
7.391741874657881e-07
 70
     32
  0
VERTEX
  8
MY3DLAYER
10
73.1918108327774
20
76.86969762992543
30
7.386687791877556e-07
 70
     32
  0
VERTEX
  8
MY3DLAYER
10
73.84116643574382
20
77.13866952747773
30
7.381942325678306e-07
 70
     32
  0
VERTEX
  8
MY3DLAYER
10
74.53801083277662
20
77.23041083277684
30
7.377832358313168e-07
 70
     32
  0
VERTEX
  8
MY3DLAYER
10
75.23485522981157
20
77.13866952747773
30
7.374636172446415e-07
 70
     32
  0
VERTEX
  8
MY3DLAYER
10
75.8842108327769
20
76.86969762992615
30
7.372571582895011e-07
 70
     32
  0
VERTEX
  8
MY3DLAYER
10
76.44182513044312
20
76.44182513044422
30
7.371781092809729e-07
 70
     32
  0
VERTEX
  8
MY3DLAYER
10
76.8696976299258
20
75.8842108327769
30
7.372313281400668e-07
 70
     32
  0
VERTEX
  8
MY3DLAYER
10
77.13866952747809
20
75.23485522981122
30
7.374137172217257e-07
 70
     32
  0
VERTEX
  8
MY3DLAYER
10
77.23041083277755
20
74.53801083277625
30
7.37712847016965e-07
 70
     32
  0
VERTEX
  8
MY3DLAYER
10
77.13866952747844
20
73.84116643574274
30
7.38107803194797e-07
 70
     32
  0
VERTEX
  8
MY3DLAYER
10
76.86969762992688
20
73.19181083277633
30
7.385721992682596e-07
 70
     32
  0
VERTEX
  8
MY3DLAYER
10
76.44182513044422
20
72.63419653511046
30
7.390743874144488e-07
 70
     32
  0
VERTEX
  8
MY3DLAYER
10
75.88421083277655
20
72.20632403562853
30
7.395796152146263e-07
 70
     32
  0
VERTEX
  8
MY3DLAYER
10
75.23485522981049
20
71.93735213807622
30
7.400539813511887e-07
 70
     32
  0
VERTEX
  8
MY3DLAYER
10
74.5380108327777
20
71.84561083277639
30
7.404649780932102e-07
 70
     32
  0
VERTEX
  8
MY3DLAYER
10
73.84116643574274
20
71.93735213807622
30
7.407845966743778e-07
 70
     32
  0
VERTEX
  8
MY3DLAYER
10
73.19181083277705
20
72.2063240356278
30
7.409912361128809e-07
 70
     32
  0
VERTEX
  8
MY3DLAYER
10
72.63419653511082
20
72.63419653511046
30
7.410704655992638e-07
 70
     32
  0
VERTEX
  8
MY3DLAYER
10
72.20632403562816
20
73.19181083277633
30
7.410170662623151e-07
 70
     32
  0
VERTEX
  8
MY3DLAYER
10
71.93735213807622
20
73.84116643574274
30
7.408346771806562e-07
 70
     32
  0
VERTEX
  8
MY3DLAYER
10
71.84561083277711
20
74.53801083277625
30
7.405357278577641e-07
 70
     32
  0
SEQEND
  0
POLYLINE
 8
Layer0
 66
     1
70
    8
 10
0.0
 20
 0.0
 30
0.0
  0
VERTEX
  8
MY3DLAYER
10
0.4373521386162309
20
73.84116643574274
30
7.783172169305644e-07
 70
     32
  0
VERTEX
  8
MY3DLAYER
10
0.3456108333174825
20
74.53801083277625
30
7.7801826761318e-07
 70
     32
  0
VERTEX
  8
MY3DLAYER
10
0.43735213861586997
20
75.23485522981122
30
7.77623130957493e-07
 70
     32
  0
VERTEX
  8
MY3DLAYER
10
0.7063240361674445
20
75.8842108327769
30
7.771587348840304e-07
 70
     32
  0
VERTEX
  8
MY3DLAYER
10
1.1341965356508297
20
76.44182513044422
30
7.766567272156962e-07
 70
     32
  0
VERTEX
  8
MY3DLAYER
10
1.691810833317052
20
76.86969762992543
30
7.761513189376637e-07
 70
     32
  0
VERTEX
  8
MY3DLAYER
10
2.341166436284189
20
77.13866952747773
30
7.756769528011013e-07
 70
     32
  0
VERTEX
  8
MY3DLAYER
10
3.038010833317344
20
77.23041083277684
30
7.752659560590798e-07
 70
     32
  0
VERTEX
  8
MY3DLAYER
10
3.7348552303519424
20
77.13866952747773
30
7.749463374779122e-07
 70
     32
  0
VERTEX
  8
MY3DLAYER
10
4.384210833318718
20
76.86969762992615
30
7.747395175615543e-07
 70
     32
  0
VERTEX
  8
MY3DLAYER
10
4.941825130983858
20
76.44182513044349
30
7.746602880751712e-07
 70
     32
  0
VERTEX
  8
MY3DLAYER
10
5.3696976304679644
20
75.88421083277619
30
7.747140483678298e-07
 70
     32
  0
VERTEX
  8
MY3DLAYER
10
5.638669528019539
20
75.23485522981122
30
7.748960764937789e-07
 70
     32
  0
VERTEX
  8
MY3DLAYER
10
5.730410833318288
20
74.53801083277625
30
7.751953867723808e-07
 70
     32
  0
VERTEX
  8
MY3DLAYER
10
5.638669528017735
20
73.84116643574274
30
7.755901624668503e-07
 70
     32
  0
VERTEX
  8
MY3DLAYER
10
5.369697630467604
20
73.19181083277633
30
7.760549194960226e-07
 70
     32
  0
VERTEX
  8
MY3DLAYER
10
4.941825130984219
20
72.63419653511046
30
7.765565662086471e-07
 70
     32
  0
VERTEX
  8
MY3DLAYER
10
4.3842108333194405
20
72.20632403562708
30
7.770619744866796e-07
 70
     32
  0
VERTEX
  8
MY3DLAYER
10
3.7348552303526645
20
71.9373521380755
30
7.775367015844594e-07
 70
     32
  0
VERTEX
  8
MY3DLAYER
10
3.038010833317344
20
71.84561083277639
30
7.779476983209732e-07
 70
     32
  0
VERTEX
  8
MY3DLAYER
10
2.341166436283467
20
71.93735213807622
30
7.782673169076486e-07
 70
     32
  0
VERTEX
  8
MY3DLAYER
10
1.691810833317413
20
72.2063240356278
30
7.784737758627889e-07
 70
     32
  0
VERTEX
  8
MY3DLAYER
10
1.1341965356511905
20
72.63419653511046
30
7.78553005349172e-07
 70
     32
  0
VERTEX
  8
MY3DLAYER
10
0.7063240361699712
20
73.19181083277633
30
7.784996060122232e-07
 70
     32
  0
VERTEX
  8
MY3DLAYER
10
0.4373521386162309
20
73.84116643574274
30
7.783172169305644e-07
 70
     32
  0
SEQEND
  0
POLYLINE
 8
Layer0
 66
     1
70
    8
 10
0.0
 20
 0.0
 30
0.0
  0
VERTEX
  8
MY3DLAYER
10
0.3456108333171215
20
3.038010833316622
30
8.136271138289505e-07
 70
     32
  0
VERTEX
  8
MY3DLAYER
10
0.4373521386165919
20
3.7348552303508598
30
8.132319771787712e-07
 70
     32
  0
VERTEX
  8
MY3DLAYER
10
0.7063240361670835
20
4.384210833317274
30
8.127675811053086e-07
 70
     32
  0
VERTEX
  8
MY3DLAYER
10
1.1341965356511905
20
4.941825130983136
30
8.122655734369744e-07
 70
     32
  0
VERTEX
  8
MY3DLAYER
10
1.691810833317413
20
5.369697630465799
30
8.11760165158942e-07
 70
     32
  0
VERTEX
  8
MY3DLAYER
10
2.341166436283467
20
5.638669528017374
30
8.112857990168719e-07
 70
     32
  0
VERTEX
  8
MY3DLAYER
10
3.0380108333180655
20
5.730410833317205
30
8.108746218025031e-07
 70
     32
  0
VERTEX
  8
MY3DLAYER
10
3.7348552303519424
20
5.638669528017374
30
8.105550032158279e-07
 70
     32
  0
VERTEX
  8
MY3DLAYER
10
4.384210833317996
20
5.369697630465799
30
8.103485442606875e-07
 70
     32
  0
VERTEX
  8
MY3DLAYER
10
4.941825130984219
20
4.941825130983858
30
8.102691342964495e-07
 70
     32
  0
VERTEX
  8
MY3DLAYER
10
5.369697630466521
20
4.384210833317274
30
8.103227141112532e-07
 70
     32
  0
VERTEX
  8
MY3DLAYER
10
5.638669528018457
20
3.7348552303508598
30
8.105049227150571e-07
 70
     32
  0
VERTEX
  8
MY3DLAYER
10
5.730410833317927
20
3.038010833316622
30
8.108040525102965e-07
 70
     32
  0
VERTEX
  8
MY3DLAYER
10
5.638669528018095
20
2.341166436283106
30
8.111990086881286e-07
 70
     32
  0
VERTEX
  8
MY3DLAYER
10
5.36969763046616
20
1.6918108333166912
30
8.116635852394461e-07
 70
     32
  0
VERTEX
  8
MY3DLAYER
10
4.941825130984579
20
1.1341965356508297
30
8.121654124299254e-07
 70
     32
  0
VERTEX
  8
MY3DLAYER
10
4.384210833318718
20
0.7063240361674445
30
8.126710011858128e-07
 70
     32
  0
VERTEX
  8
MY3DLAYER
10
3.7348552303526645
20
0.43735213861586997
30
8.13145367322375e-07
 70
     32
  0
VERTEX
  8
MY3DLAYER
10
3.038010833317344
20
0.34561083331676057
30
8.135563640643967e-07
 70
     32
  0
VERTEX
  8
MY3DLAYER
10
2.341166436283106
20
0.43735213861586997
30
8.13876163123419e-07
 70
     32
  0
VERTEX
  8
MY3DLAYER
10
1.6918108333163302
20
0.7063240361681664
30
8.140826220840672e-07
 70
     32
  0
VERTEX
  8
MY3DLAYER
10
1.1341965356504686
20
1.1341965356508297
30
8.141618515704503e-07
 70
     32
  0
VERTEX
  8
MY3DLAYER
10
0.7063240361681664
20
1.6918108333166912
30
8.141084522335015e-07
 70
     32
  0
VERTEX
  8
MY3DLAYER
10
0.4373521386165919
20
2.3411664362823843
30
8.139260631518427e-07
 70
     32
  0
VERTEX
  8
MY3DLAYER
10
0.3456108333171215
20
3.038010833316622
30
8.136271138289505e-07
 70
     32
  0
SEQEND
  0
POLYLINE
 8
Layer0
 66
     1
70
    8
 10
0.0
 20
 0.0
 30
0.0
  0
VERTEX
  8
MY3DLAYER
10
36.40676083431664
20
9.581425130256866
30
7.914645145656873e-07
 70
     32
  0
VERTEX
  8
MY3DLAYER
10
36.390747794927684
20
9.356514075331399
30
7.915847390008688e-07
 70
     32
  0
VERTEX
  8
MY3DLAYER
10
36.34303172234528
20
9.136140355312545
30
7.91719503954319e-07
 70
     32
  0
VERTEX
  8
MY3DLAYER
10
36.264575236219876
20
8.924749769328423
30
7.918659102030753e-07
 70
     32
  0
VERTEX
  8
MY3DLAYER
10
36.156961110477475
20
8.72660689158945
30
7.9202100416822e-07
 70
     32
  0
VERTEX
  8
MY3DLAYER
10
36.02236034257873
20
8.545709038260526
30
7.921818374756559e-07
 70
     32
  0
VERTEX
  8
MY3DLAYER
10
35.86348835601613
20
8.38570562597269
30
7.923446276911216e-07
 70
     32
  0
VERTEX
  8
MY3DLAYER
10
35.68355021961485
20
8.249824548828338
30
7.925066284977279e-07
 70
     32
  0
VERTEX
  8
MY3DLAYER
10
35.4861759887629
20
8.14080705915984
30
7.926643912251757e-07
 70
     32
  0
VERTEX
  8
MY3DLAYER
10
35.27534747301372
20
8.060852465764423
30
7.928147331887937e-07
 70
     32
  0
VERTEX
  8
MY3DLAYER
10
35.055317907425184
20
8.01157376524348
30
7.929544409156046e-07
 70
     32
  0
VERTEX
  8
MY3DLAYER
10
34.83052614818817
20
7.993965101562344
30
7.93080692324151e-07
 70
     32
  0
VERTEX
  8
MY3DLAYER
10
34.60550712355082
20
8.008381711154698
30
7.931914745752319e-07
 70
     32
  0
VERTEX
  8
MY3DLAYER
10
31.300376908040977
20
8.641464689923179
30
7.946088388915105e-07
 70
     32
  0
VERTEX
  8
MY3DLAYER
10
28.083128245459434
20
9.628374433827219
30
7.958042808232402e-07
 70
     32
  0
VERTEX
  8
MY3DLAYER
10
24.991521636845995
20
10.957527689497857
30
7.967628714458316e-07
 70
     32
  0
VERTEX
  8
MY3DLAYER
10
22.061842935978557
20
12.61332432833173
30
7.974744406272737e-07
 70
     32
  0
VERTEX
  8
MY3DLAYER
10
19.328477466228037
20
14.576330443517826
30
7.979290166962045e-07
 70
     32
  0
VERTEX
  8
MY3DLAYER
10
16.823506443709167
20
16.823506443709892
30
7.981230606442582e-07
 70
     32
  0
VERTEX
  8
MY3DLAYER
10
14.576330443518549
20
19.328477466226957
30
7.980535730900926e-07
 70
     32
  0
VERTEX
  8
MY3DLAYER
10
12.613324328332453
20
22.061842935978557
30
7.977217305600754e-07
 70
     32
  0
VERTEX
  8
MY3DLAYER
10
10.957527689498217
20
24.991521636845633
30
7.971308906539083e-07
 70
     32
  0
VERTEX
  8
MY3DLAYER
10
9.628374433826856
20
28.083128245459793
30
7.962878096367566e-07
 70
     32
  0
VERTEX
  8
MY3DLAYER
10
8.641464689923902
20
31.300376908039894
30
7.952031024517896e-07
 70
     32
  0
VERTEX
  8
MY3DLAYER
10
8.008381711153975
20
34.60550712355155
30
7.938891413549615e-07
 70
     32
  0
VERTEX
  8
MY3DLAYER
10
7.993965101562704
20
34.83052614818709
30
7.93784454362293e-07
 70
     32
  0
VERTEX
  8
MY3DLAYER
10
8.01157376524348
20
35.055317907425184
30
7.936634528611132e-07
 70
     32
  0
VERTEX
  8
MY3DLAYER
10
8.060852465764423
20
35.275347473013355
30
7.935278596526637e-07
 70
     32
  0
VERTEX
  8
MY3DLAYER
10
8.14080705915948
20
35.48617598876254
30
7.933809479689773e-07
 70
     32
  0
VERTEX
  8
MY3DLAYER
10
8.249824548828338
20
35.683550219614496
30
7.932255011224801e-07
 70
     32
  0
VERTEX
  8
MY3DLAYER
10
8.38570562597269
20
35.86348835601685
30
7.930648355534801e-07
 70
     32
  0
VERTEX
  8
MY3DLAYER
10
8.545709038259442
20
36.022360342579084
30
7.929014742452319e-07
 70
     32
  0
VERTEX
  8
MY3DLAYER
10
8.72660689158981
20
36.15696111047784
30
7.92739788421171e-07
 70
     32
  0
VERTEX
  8
MY3DLAYER
10
8.924749769328061
20
36.2645752362206
30
7.925823216470024e-07
 70
     32
  0
VERTEX
  8
MY3DLAYER
10
9.136140355311824
20
36.343031722346
30
7.924324311203625e-07
 70
     32
  0
VERTEX
  8
MY3DLAYER
10
9.356514075331399
20
36.3907477949284
30
7.922931407210523e-07
 70
     32
  0
VERTEX
  8
MY3DLAYER
10
9.58142513025831
20
36.40676083431628
30
7.921672604740709e-07
 70
     32
  0
VERTEX
  8
MY3DLAYER
10
11.184357456517358
20
36.406760834317005
30
7.913267726584408e-07
 70
     32
  0
VERTEX
  8
MY3DLAYER
10
11.372824230460445
20
36.39553381991311
30
7.912337442333734e-07
 70
     32
  0
VERTEX
  8
MY3DLAYER
10
11.558625279445524
20
36.36201157462512
30
7.911528558025674e-07
 70
     32
  0
VERTEX
  8
MY3DLAYER
10
11.739132583247049
20
36.30666824614472
30
7.910857903462541e-07
 70
     32
  0
VERTEX
  8
MY3DLAYER
10
11.911792997803538
20
36.23028662546038
30
7.910333159803426e-07
 70
     32
  0
VERTEX
  8
MY3DLAYER
10
12.074164367571903
20
36.13394707484709
30
7.909961749233158e-07
 70
     32
  0
VERTEX
  8
MY3DLAYER
10
12.223950068039564
20
36.01901224693054
30
7.909748924985783e-07
 70
     32
  0
VERTEX
  8
MY3DLAYER
10
12.359031489800714
20
35.88710781096174
30
7.909695892541895e-07
 70
     32
  0
VERTEX
  8
MY3DLAYER
10
12.477498004737665
20
35.74009945891395
30
7.909808790891419e-07
 70
     32
  0
VERTEX
  8
MY3DLAYER
10
12.57767399046226
20
35.58006651662726
30
7.91007882950485e-07
 70
     32
  0
VERTEX
  8
MY3DLAYER
10
12.65814253077425
20
35.409272533264364
30
7.910509382483103e-07
 70
     32
  0
VERTEX
  8
MY3DLAYER
10
12.717765456906264
20
35.23013326506036
30
7.911088971185656e-07
 70
     32
  0
VERTEX
  8
MY3DLAYER
10
12.75569944815033
20
35.04518250620778
30
7.911811202550214e-07
 70
     32
  0
VERTEX
  8
MY3DLAYER
10
13.30494898765711
20
32.283892222290056
30
7.922683663626629e-07
 70
     32
  0
VERTEX
  8
MY3DLAYER
10
14.146220846697693
20
29.59713567435111
30
7.931652253964031e-07
 70
     32
  0
VERTEX
  8
MY3DLAYER
10
15.269874497729361
20
27.01570166178623
30
7.938617787134685e-07
 70
     32
  0
VERTEX
  8
MY3DLAYER
10
16.663033468233902
20
24.56917204381547
30
7.943496832337262e-07
 70
     32
  0
VERTEX
  8
MY3DLAYER
10
18.309732898238295
20
22.285582747131855
30
7.946237067186622e-07
 70
     32
  0
VERTEX
  8
MY3DLAYER
10
20.191102489111753
20
20.19110248911067
30
7.946805285200496e-07
 70
     32
  0
VERTEX
  8
MY3DLAYER
10
22.285582747132576
20
18.309732898237932
30
7.9452021940693e-07
 70
     32
  0
VERTEX
  8
MY3DLAYER
10
24.569172043815833
20
16.66303346823318
30
7.94142819932845e-07
 70
     32
  0
VERTEX
  8
MY3DLAYER
10
27.01570166178623
20
15.269874497728999
30
7.935540945774431e-07
 70
     32
  0
VERTEX
  8
MY3DLAYER
10
29.597135674352195
20
14.146220846698053
30
7.927604288629138e-07
 70
     32
  0
VERTEX
  8
MY3DLAYER
10
32.283892222289694
20
13.30494898765711
30
7.917705568202901e-07
 70
     32
  0
VERTEX
  8
MY3DLAYER
10
35.04518250620706
20
12.755699448151773
30
7.905969005946987e-07
 70
     32
  0
VERTEX
  8
MY3DLAYER
10
35.23013326506036
20
12.71776545690518
30
7.905188355286554e-07
 70
     32
  0
VERTEX
  8
MY3DLAYER
10
35.409272533264
20
12.658142530774972
30
7.904549795246639e-07
 70
     32
  0
VERTEX
  8
MY3DLAYER
10
35.58006651662762
20
12.57767399046226
30
7.904055189703919e-07
 70
     32
  0
VERTEX
  8
MY3DLAYER
10
35.74009945891359
20
12.477498004736582
30
7.903715144100698e-07
 70
     32
  0
VERTEX
  8
MY3DLAYER
10
35.887107810962455
20
12.35903148979999
30
7.903534468132155e-07
 70
     32
  0
VERTEX
  8
MY3DLAYER
10
36.01901224693054
20
12.223950068039203
30
7.903515717337834e-07
 70
     32
  0
VERTEX
  8
MY3DLAYER
10
36.133947074847455
20
12.074164367571182
30
7.903659156860681e-07
 70
     32
  0
VERTEX
  8
MY3DLAYER
10
36.23028662546147
20
11.911792997803177
30
7.903962757866994e-07
 70
     32
  0
VERTEX
  8
MY3DLAYER
10
36.30666824614472
20
11.739132583247049
30
7.904420421463252e-07
 70
     32
  0
VERTEX
  8
MY3DLAYER
10
36.36201157462368
20
11.558625279445163
30
7.905031063063904e-07
 70
     32
  0
VERTEX
  8
MY3DLAYER
10
36.39553381991239
20
11.372824230459724
30
7.905780656750506e-07
 70
     32
  0
VERTEX
  8
MY3DLAYER
10
36.40676083431664
20
11.184357456516636
30
7.906662209667108e-07
 70
     32
  0
VERTEX
  8
MY3DLAYER
10
36.40676083431664
20
10.38289129338675
30
7.910653677661991e-07
 70
     32
  0
VERTEX
  8
MY3DLAYER
10
36.40676083431664
20
9.581425130256866
30
7.914645145656873e-07
 70
     32
  0
SEQEND
  0
POLYLINE
 8
Layer0
 66
     1
70
    8
 10
0.0
 20
 0.0
 30
0.0
  0
VERTEX
  8
MY3DLAYER
10
41.169260834317726
20
9.581425130256866
30
7.889675019245867e-07
 70
     32
  0
VERTEX
  8
MY3DLAYER
10
41.16926083431718
20
10.38289129338675
30
7.885683551250984e-07
 70
     32
  0
VERTEX
  8
MY3DLAYER
10
41.16926083431664
20
11.184357456516636
30
7.881692083256102e-07
 70
     32
  0
VERTEX
  8
MY3DLAYER
10
41.18048784872053
20
11.372824230459724
30
7.880692819265539e-07
 70
     32
  0
VERTEX
  8
MY3DLAYER
10
41.214010094009964
20
11.558625279444442
30
7.879593562127533e-07
 70
     32
  0
VERTEX
  8
MY3DLAYER
10
41.26935342248928
20
11.739132583246327
30
7.878402666433407e-07
 70
     32
  0
VERTEX
  8
MY3DLAYER
10
41.345735043172176
20
11.911792997803177
30
7.877142365305626e-07
 70
     32
  0
VERTEX
  8
MY3DLAYER
10
41.44207459378727
20
12.074164367571182
30
7.875828680064308e-07
 70
     32
  0
VERTEX
  8
MY3DLAYER
10
41.55700942170311
20
12.223950068039203
30
7.874481996533559e-07
 70
     32
  0
VERTEX
  8
MY3DLAYER
10
41.68891385767118
20
12.359031489800714
30
7.873115973870952e-07
 70
     32
  0
VERTEX
  8
MY3DLAYER
10
41.83592220972005
20
12.477498004736582
30
7.871757126976571e-07
 70
     32
  0
VERTEX
  8
MY3DLAYER
10
41.99595515200747
20
12.57767399046154
30
7.870417482126225e-07
 70
     32
  0
VERTEX
  8
MY3DLAYER
10
42.16674913536928
20
12.658142530774972
30
7.869121376511897e-07
 70
     32
  0
VERTEX
  8
MY3DLAYER
10
42.345888403574364
20
12.71776545690518
30
7.867887142614521e-07
 70
     32
  0
VERTEX
  8
MY3DLAYER
10
42.53083916242694
20
12.75569944815105
30
7.866726848844169e-07
 70
     32
  0
VERTEX
  8
MY3DLAYER
10
45.29212944634467
20
13.304948987656388
30
7.849515923383752e-07
 70
     32
  0
VERTEX
  8
MY3DLAYER
10
47.97888599428145
20
14.146220846697332
30
7.831237785793903e-07
 70
     32
  0
VERTEX
  8
MY3DLAYER
10
50.56032000684705
20
15.269874497728999
30
7.81211629057683e-07
 70
     32
  0
VERTEX
  8
MY3DLAYER
10
53.00684962481817
20
16.66303346823246
30
7.792352594864285e-07
 70
     32
  0
VERTEX
  8
MY3DLAYER
10
55.290438921500346
20
18.309732898238654
30
7.772176789635522e-07
 70
     32
  0
VERTEX
  8
MY3DLAYER
10
57.38491917952369
20
20.19110248911139
30
7.751823647069236e-07
 70
     32
  0
VERTEX
  8
MY3DLAYER
10
59.26628877039679
20
22.285582747132576
30
7.731529971592622e-07
 70
     32
  0
VERTEX
  8
MY3DLAYER
10
60.91298820040119
20
24.56917204381547
30
7.711524708243089e-07
 70
     32
  0
VERTEX
  8
MY3DLAYER
10
61.79075041334913
20
26.110612250553395
30
7.69925012089178e-07
 70
     32
  0
VERTEX
  8
MY3DLAYER
10
62.30614717090681
20
27.015701661786952
30
7.692037106801687e-07
 70
     32
  0
VERTEX
  8
MY3DLAYER
10
63.429800821935586
20
29.597135674351833
30
7.67329048476529e-07
 70
     32
  0
VERTEX
  8
MY3DLAYER
10
64.27107268097726
20
32.283892222290056
30
7.655503278004415e-07
 70
     32
  0
VERTEX
  8
MY3DLAYER
10
64.82032222048295
20
35.04518250620778
30
7.638870335848445e-07
 70
     32
  0
VERTEX
  8
MY3DLAYER
10
64.8582562091877
20
35.23013326506036
30
7.637752185595935e-07
 70
     32
  0
VERTEX
  8
MY3DLAYER
10
64.91787913531935
20
35.409272533264364
30
7.636547472726975e-07
 70
     32
  0
VERTEX
  8
MY3DLAYER
10
64.99834767563169
20
35.58006651662726
30
7.635275041942973e-07
 70
     32
  0
VERTEX
  8
MY3DLAYER
10
65.09852366135702
20
35.74009945891395
30
7.633952890743686e-07
 70
     32
  0
VERTEX
  8
MY3DLAYER
10
65.21699017629288
20
35.88710781096174
30
7.632599720023246e-07
 70
     32
  0
VERTEX
  8
MY3DLAYER
10
65.35207159805367
20
36.01901224693054
30
7.631234669422913e-07
 70
     32
  0
VERTEX
  8
MY3DLAYER
10
65.50185729852278
20
36.13394707484709
30
7.629875241736607e-07
 70
     32
  0
VERTEX
  8
MY3DLAYER
10
65.66422866829078
20
36.230286625461105
30
7.628546054004939e-07
 70
     32
  0
VERTEX
  8
MY3DLAYER
10
65.83688908284726
20
36.30666824614472
30
7.627260517647018e-07
 70
     32
  0
VERTEX
  8
MY3DLAYER
10
66.0173963866488
20
36.362011574624404
30
7.626038620552229e-07
 70
     32
  0
VERTEX
  8
MY3DLAYER
10
66.20319743563424
20
36.39553381991239
30
7.624897645535072e-07
 70
     32
  0
VERTEX
  8
MY3DLAYER
10
66.39166420957733
20
36.406760834317005
30
7.62385373079006e-07
 70
     32
  0
VERTEX
  8
MY3DLAYER
10
67.99459653583709
20
36.406760834317005
30
7.615450657412307e-07
 70
     32
  0
VERTEX
  8
MY3DLAYER
10
68.21950759076148
20
36.390747794929126
30
7.614351351475663e-07
 70
     32
  0
VERTEX
  8
MY3DLAYER
10
68.43988131078105
20
36.34303172234528
30
7.613431914567544e-07
 70
     32
  0
VERTEX
  8
MY3DLAYER
10
68.65127189676481
20
36.2645752362206
30
7.612716273277392e-07
 70
     32
  0
VERTEX
  8
MY3DLAYER
10
68.84941477450523
20
36.15696111047784
30
7.612211682134217e-07
 70
     32
  0
VERTEX
  8
MY3DLAYER
10
69.03031262783415
20
36.02236034257837
30
7.611933698705841e-07
 70
     32
  0
VERTEX
  8
MY3DLAYER
10
69.19031604012127
20
35.86348835601685
30
7.611886126201744e-07
 70
     32
  0
VERTEX
  8
MY3DLAYER
10
69.32619711726635
20
35.68355021961521
30
7.612069924346851e-07
 70
     32
  0
VERTEX
  8
MY3DLAYER
10
69.4352146069334
20
35.48617598876326
30
7.612481385160623e-07
 70
     32
  0
VERTEX
  8
MY3DLAYER
10
69.51516920032954
20
35.27534747301408
30
7.613114012751127e-07
 70
     32
  0
VERTEX
  8
MY3DLAYER
10
69.56444790084976
20
35.0553179074259
30
7.613949666527338e-07
 70
     32
  0
VERTEX
  8
MY3DLAYER
10
69.58205656453161
20
34.83052614818781
30
7.61497506125263e-07
 70
     32
  0
VERTEX
  8
MY3DLAYER
10
69.56763995747895
20
34.60550712355155
30
7.616173083916343e-07
 70
     32
  0
VERTEX
  8
MY3DLAYER
10
68.93455697871119
20
31.30037690804062
30
7.635953943035435e-07
 70
     32
  0
VERTEX
  8
MY3DLAYER
10
67.94764723480642
20
28.083128245459793
30
7.65715019967637e-07
 70
     32
  0
VERTEX
  8
MY3DLAYER
10
66.61849397913507
20
24.991521636845633
30
7.679514880568755e-07
 70
     32
  0
VERTEX
  8
MY3DLAYER
10
65.55693423819244
20
23.11325416740155
30
7.694434071427169e-07
 70
     32
  0
VERTEX
  8
MY3DLAYER
10
64.96269734030227
20
22.061842935978557
30
7.702785493703991e-07
 70
     32
  0
VERTEX
  8
MY3DLAYER
10
62.99969122511618
20
19.328477466226957
30
7.726685304975961e-07
 70
     32
  0
VERTEX
  8
MY3DLAYER
10
60.752515224923755
20
16.823506443710613
30
7.750940981532655e-07
 70
     32
  0
VERTEX
  8
MY3DLAYER
10
58.24754420240669
20
14.576330443518549
30
7.775267837182784e-07
 70
     32
  0
VERTEX
  8
MY3DLAYER
10
55.51417873265508
20
12.613324328332453
30
7.799373173450214e-07
 70
     32
  0
VERTEX
  8
MY3DLAYER
10
52.58450003178801
20
10.957527689497857
30
7.822979482941146e-07
 70
     32
  0
VERTEX
  8
MY3DLAYER
10
49.49289342317529
20
9.628374433826496
30
7.84580430773351e-07
 70
     32
  0
VERTEX
  8
MY3DLAYER
10
46.275644760594105
20
8.641464689922458
30
7.867585148603559e-07
 70
     32
  0
VERTEX
  8
MY3DLAYER
10
42.97051454508137
20
8.008381711154698
30
7.888064561227623e-07
 70
     32
  0
VERTEX
  8
MY3DLAYER
10
42.74549552044655
20
7.993965101562344
30
7.889315979185597e-07
 70
     32
  0
VERTEX
  8
MY3DLAYER
10
42.52070376120774
20
8.01157376524348
30
7.89040671319522e-07
 70
     32
  0
VERTEX
  8
MY3DLAYER
10
42.300674195619564
20
8.060852465764423
30
7.891314758925842e-07
 70
     32
  0
VERTEX
  8
MY3DLAYER
10
42.089845679871104
20
8.14080705915984
30
7.892023602334291e-07
 70
     32
  0
VERTEX
  8
MY3DLAYER
10
41.89247144901951
20
8.249824548827615
30
7.892515370175583e-07
 70
     32
  0
VERTEX
  8
MY3DLAYER
10
41.71253331261751
20
8.385705625973412
30
7.892781946233686e-07
 70
     32
  0
VERTEX
  8
MY3DLAYER
10
41.55366132605528
20
8.545709038260526
30
7.892817952744393e-07
 70
     32
  0
VERTEX
  8
MY3DLAYER
10
41.41906055815472
20
8.726606891590171
30
7.892620858457321e-07
 70
     32
  0
VERTEX
  8
MY3DLAYER
10
41.311446432413405
20
8.924749769328423
30
7.892200017509728e-07
 70
     32
  0
VERTEX
  8
MY3DLAYER
10
41.23298994628836
20
9.136140355312545
30
7.89155854194392e-07
 70
     32
  0
VERTEX
  8
MY3DLAYER
10
41.18527387370524
20
9.356514075331399
30
7.890711177651037e-07
 70
     32
  0
VERTEX
  8
MY3DLAYER
10
41.169260834317726
20
9.581425130256866
30
7.889675019245867e-07
 70
     32
  0
SEQEND
  0
POLYLINE
 8
Layer0
 66
     1
70
    8
 10
0.0
 20
 0.0
 30
0.0
  0
VERTEX
  8
MY3DLAYER
10
41.16926083431808
20
1.5866105941364252
30
7.929490856395295e-07
 70
     32
  0
VERTEX
  8
MY3DLAYER
10
41.16926083431718
20
2.3850661333667658
30
7.925514381947398e-07
 70
     32
  0
VERTEX
  8
MY3DLAYER
10
41.169260834316276
20
3.1835216725971063
30
7.921537907499502e-07
 70
     32
  0
VERTEX
  8
MY3DLAYER
10
41.18099263095792
20
3.3761633588448032
30
7.920517010125052e-07
 70
     32
  0
VERTEX
  8
MY3DLAYER
10
41.216014622387675
20
3.5659577593153813
30
7.919388198306294e-07
 70
     32
  0
VERTEX
  8
MY3DLAYER
10
41.2738091760009
20
3.750099671725843
30
7.918168156220706e-07
 70
     32
  0
VERTEX
  8
MY3DLAYER
10
41.35352207579819
20
3.9258674387919426
30
7.916873111453535e-07
 70
     32
  0
VERTEX
  8
MY3DLAYER
10
41.453975147880804
20
4.090663174909104
30
7.915525787977658e-07
 70
     32
  0
VERTEX
  8
MY3DLAYER
10
41.573683674124005
20
4.24205116346144
30
7.914146099548182e-07
 70
     32
  0
VERTEX
  8
MY3DLAYER
10
41.71087833662379
20
4.37779385724263
30
7.912749050534815e-07
 70
     32
  0
VERTEX
  8
MY3DLAYER
10
41.86353136860022
20
4.49588494988655
30
7.911360677324581e-07
 70
     32
  0
VERTEX
  8
MY3DLAYER
10
42.02938652523184
20
4.5945790295050015
30
7.909999695627449e-07
 70
     32
  0
VERTEX
  8
MY3DLAYER
10
42.20599243144014
20
4.672417376262319
30
7.908688025780926e-07
 70
     32
  0
VERTEX
  8
MY3DLAYER
10
42.39073881374149
20
4.728249522560231
30
7.90743966693581e-07
 70
     32
  0
VERTEX
  8
MY3DLAYER
10
42.580895080630775
20
4.761250257616581
30
7.906278457722824e-07
 70
     32
  0
VERTEX
  8
MY3DLAYER
10
46.37345816735691
20
5.4013758585117895
30
7.883206890710054e-07
 70
     32
  0
VERTEX
  8
MY3DLAYER
10
50.070292580626244
20
6.462842236970033
30
7.858546017961224e-07
 70
     32
  0
VERTEX
  8
MY3DLAYER
10
53.6247441102319
20
7.932253641381617
30
7.832592690793731e-07
 70
     32
  0
VERTEX
  8
MY3DLAYER
10
56.99195542411719
20
9.791066036262322
30
7.805681637686883e-07
 70
     32
  0
VERTEX
  8
MY3DLAYER
10
60.12943216985385
20
12.015821128782266
30
7.778150649702733e-07
 70
     32
  0
VERTEX
  8
MY3DLAYER
10
62.99757925519178
20
14.578442413442223
30
7.750352537859959e-07
 70
     32
  0
VERTEX
  8
MY3DLAYER
10
65.56020053985173
20
17.446589498780515
30
7.722638115627549e-07
 70
     32
  0
VERTEX
  8
MY3DLAYER
10
67.7849556323724
20
20.58406624451537
30
7.695349966578557e-07
 70
     32
  0
VERTEX
  8
MY3DLAYER
10
68.07490295790066
20
21.10930156016279
30
7.691214190902202e-07
 70
     32
  0
VERTEX
  8
MY3DLAYER
10
69.6437680272531
20
23.951277558402467
30
7.668836077936655e-07
 70
     32
  0
VERTEX
  8
MY3DLAYER
10
71.11317943166397
20
27.505729088007755
30
7.643431056074401e-07
 70
     32
  0
VERTEX
  8
MY3DLAYER
10
72.1746458101233
20
31.202563501276373
30
7.619455513500992e-07
 70
     32
  0
VERTEX
  8
MY3DLAYER
10
72.81477141101814
20
34.995126588003224
30
7.597208412983731e-07
 70
     32
  0
VERTEX
  8
MY3DLAYER
10
72.84777214607341
20
35.18528285489215
30
7.59608659033073e-07
 70
     32
  0
VERTEX
  8
MY3DLAYER
10
72.90360429237276
20
35.37002923719278
30
7.594875630134462e-07
 70
     32
  0
VERTEX
  8
MY3DLAYER
10
72.981442639129
20
35.546635143401076
30
7.593589847855637e-07
 70
     32
  0
VERTEX
  8
MY3DLAYER
10
73.08013671874926
20
35.712490300032336
30
7.592244664635181e-07
 70
     32
  0
VERTEX
  8
MY3DLAYER
10
73.19822781139173
20
35.86514333200985
30
7.590865350346962e-07
 70
     32
  0
VERTEX
  8
MY3DLAYER
10
73.33397050517293
20
36.00233799450891
30
7.589470486697465e-07
 70
     32
  0
VERTEX
  8
MY3DLAYER
10
73.48535849372453
20
36.1220465207532
30
7.588080690120162e-07
 70
     32
  0
VERTEX
  8
MY3DLAYER
10
73.65015422984243
20
36.222499592836535
30
7.586714697309545e-07
 70
     32
  0
VERTEX
  8
MY3DLAYER
10
73.82592199690744
20
36.302212492633466
30
7.585398085581916e-07
 70
     32
  0
VERTEX
  8
MY3DLAYER
10
74.01006390931899
20
36.36000704624597
30
7.584144927120801e-07
 70
     32
  0
VERTEX
  8
MY3DLAYER
10
74.19985830978776
20
36.39502903767717
30
7.5829755485971e-07
 70
     32
  0
VERTEX
  8
MY3DLAYER
10
74.39249999603653
20
36.406760834317005
30
7.581907233761633e-07
 70
     32
  0
VERTEX
  8
MY3DLAYER
10
75.98941107195681
20
36.406760834317005
30
7.573535725667688e-07
 70
     32
  0
VERTEX
  8
MY3DLAYER
10
76.2105528748405
20
36.39128263856075
30
7.572453515667688e-07
 70
     32
  0
VERTEX
  8
MY3DLAYER
10
76.42738239285407
20
36.34514987748904
30
7.571544773372299e-07
 70
     32
  0
VERTEX
  8
MY3DLAYER
10
76.63567143107068
20
36.26926214405385
30
7.570832598437823e-07
 70
     32
  0
VERTEX
  8
MY3DLAYER
10
76.83135833467279
20
36.165099255824295
30
7.570323694453332e-07
 70
     32
  0
VERTEX
  8
MY3DLAYER
10
77.01062719160065
20
36.03469239840408
30
7.570035168976818e-07
 70
     32
  0
VERTEX
  8
MY3DLAYER
10
77.1699822431625
20
35.88058451713919
30
7.56996726914089e-07
 70
     32
  0
VERTEX
  8
MY3DLAYER
10
77.30631605164838
20
35.705780729449835
30
7.570121319007937e-07
 70
     32
  0
VERTEX
  8
MY3DLAYER
10
77.41697009563816
20
35.513689724779816
30
7.57049969373879e-07
 70
     32
  0
VERTEX
  8
MY3DLAYER
10
77.49978661140987
20
35.30805729484445
30
7.571089635794066e-07
 70
     32
  0
VERTEX
  8
MY3DLAYER
10
77.55315066952697
20
35.092893290354446
30
7.57188144614139e-07
 70
     32
  0
VERTEX
  8
MY3DLAYER
10
77.57602166609395
20
34.87239342858175
30
7.572859684307643e-07
 70
     32
  0
VERTEX
  8
MY3DLAYER
10
77.56795361526919
20
34.65085747650049
30
7.574005274651584e-07
 70
     32
  0
VERTEX
  8
MY3DLAYER
10
76.85254186946499
20
30.297340832821764
30
7.599437104370987e-07
 70
     32
  0
VERTEX
  8
MY3DLAYER
10
75.65000119890405
20
26.052483112183147
30
7.626881472458119e-07
 70
     32
  0
VERTEX
  8
MY3DLAYER
10
73.97572105743528
20
21.970607668137426
30
7.655987161065206e-07
 70
     32
  0
VERTEX
  8
MY3DLAYER
10
71.85112796111234
20
18.103952096732545
30
7.68638169161475e-07
 70
     32
  0
VERTEX
  8
MY3DLAYER
10
69.30341128340919
20
14.501999728505943
30
7.717679701091384e-07
 70
     32
  0
VERTEX
  8
MY3DLAYER
10
66.36517530059292
20
11.210846368041445
30
7.749475286714102e-07
 70
     32
  0
VERTEX
  8
MY3DLAYER
10
63.07402194012842
20
8.272610385224453
30
7.781357959566176e-07
 70
     32
  0
VERTEX
  8
MY3DLAYER
10
59.472069571900015
20
5.724893707522028
30
7.8129286805108e-07
 70
     32
  0
VERTEX
  8
MY3DLAYER
10
55.605414000495855
20
3.6003006111983606
30
7.843783424743479e-07
 70
     32
  0
VERTEX
  8
MY3DLAYER
10
51.523538556450134
20
1.9260204697317647
30
7.87352196213219e-07
 70
     32
  0
VERTEX
  8
MY3DLAYER
10
47.27868083581224
20
0.723479799169371
30
7.901758324029701e-07
 70
     32
  0
VERTEX
  8
MY3DLAYER
10
42.92516419213387
20
0.008068053364809202
30
7.928145525897684e-07
 70
     32
  0
VERTEX
  8
MY3DLAYER
10
42.703628240053334
20
0.0
30
7.929347067350823e-07
 70
     32
  0
VERTEX
  8
MY3DLAYER
10
42.4831283782792
20
0.02287099656843452
30
7.930389094370615e-07
 70
     32
  0
VERTEX
  8
MY3DLAYER
10
42.26796437378955
20
0.07623505468480402
30
7.931251287391152e-07
 70
     32
  0
VERTEX
  8
MY3DLAYER
10
42.062331943853465
20
0.15905157045688156
30
7.931916833573988e-07
 70
     32
  0
VERTEX
  8
MY3DLAYER
10
41.87024093918345
20
0.2697056144463033
30
7.932374559462864e-07
 70
     32
  0
VERTEX
  8
MY3DLAYER
10
41.695437151494815
20
0.40603942293182627
30
7.932610160171945e-07
 70
     32
  0
VERTEX
  8
MY3DLAYER
10
41.54132927022956
20
0.5653944744933141
30
7.932624420720415e-07
 70
     32
  0
VERTEX
  8
MY3DLAYER
10
41.41092241281007
20
0.74466333142081
30
7.932415258188503e-07
 70
     32
  0
VERTEX
  8
MY3DLAYER
10
41.30675952457979
20
0.9403502350243684
30
7.931988556006668e-07
 70
     32
  0
VERTEX
  8
MY3DLAYER
10
41.23087179114532
20
1.14863927323953
30
7.931349060586074e-07
 70
     32
  0
VERTEX
  8
MY3DLAYER
10
41.18473903007433
20
1.3654687912527264
30
7.93050924218202e-07
 70
     32
  0
VERTEX
  8
MY3DLAYER
10
41.16926083431808
20
1.5866105941364252
30
7.929490856395295e-07
 70
     32
  0
SEQEND
 0
ENDSEC
 0
EOF
