<?xml version="1.0"?>
<svg 
  xmlns="http://www.w3.org/2000/svg" 
  xmlns:xlink="http://www.w3.org/1999/xlink" version="1.1" preserveAspectRatio="xMinYMin meet" viewBox="0 -77.5760216660936 77.57602166609468 77.5760216660936" width="100%" height="100%">
  <path fill="none" stroke="#000000" stroke-width="1%" d="M36.406760834317005,-75.98941107195718L36.40676083431736,-74.3924999960369L36.395029037675,-74.19985830978848L36.36000704624597,-74.0100639093179L36.302212492633466,-73.82592199690816L36.22249959283726,-73.65015422984206L36.12204652075248,-73.4853584937249L36.00233799451036,-73.33397050517185L35.86514333200913,-73.19822781139065L35.71249030003306,-73.08013671874745L35.54663514340036,-72.981442639129L35.37002923719278,-72.90360429237168L35.18528285489215,-72.84777214607305L34.995126588003586,-72.81477141101671L31.202563501276373,-72.17464581012221L27.50572908800848,-71.11317943166326L23.951277558402825,-69.64376802725167L20.584066244516816,-67.78495563237097L17.44658949878232,-65.56020053985101L14.985382137957162,-63.36117023172992L14.578442413443668,-62.997579255191056L12.01582112878371,-60.12943216985277L9.791066036262322,-56.99195542411791L7.932253641381617,-53.624744110230814L6.462842236969672,-50.070292580626244L5.40137585851215,-46.373458167357626L4.761250257617303,-42.58089508063006L4.728249522561313,-42.39073881374113L4.672417376263402,-42.2059924314405L4.594579029506084,-42.02938652523292L4.495884949886912,-41.863531368600945L4.377793857242992,-41.71087833662343L4.242051163462162,-41.57368367412364L4.090663174908744,-41.45397514788152L3.9258674387926646,-41.35352207579675L3.750099671725843,-41.27380917600054L3.565957759317186,-41.21601462238731L3.376163358846969,-41.180992630957554L3.1835216725978284,-41.169260834317L1.58661059413823,-41.169260834316276L1.3654687912552532,-41.184739030073246L1.148639273240613,-41.230871791144956L0.9403502350240074,-41.306759524579434L0.7446633314204489,-41.41092241280971L0.5653944744933141,-41.5413292702292L0.40603942293182627,-41.695437151494815L0.26970561444702523,-41.87024093918345L0.1590515704572425,-42.062331943853465L0.07623505468444307,-42.26796437379028L0.022870996568795474,-42.483128378278835L0,-42.70362824005298L0.008068053365892069,-42.92516419213351L0.723479799169371,-47.27868083581224L1.9260204697324865,-51.52353855644941L3.6003006111983606,-55.605414000495855L5.724893707523472,-59.47206957190073L8.272610385225898,-63.07402194012734L11.210846368040722,-66.36517530059255L14.501999728506666,-69.30341128340883L18.10395209673399,-71.85112796111197L21.970607668138147,-73.97572105743565L26.05248311218351,-75.65000119890225L30.297340832822847,-76.8525418694639L34.65085747650085,-77.56795361526846L34.87239342858139,-77.5760216660936L35.092893290355526,-77.55315066952517L35.30805729484373,-77.49978661140952L35.51368972478018,-77.41697009563671L35.705780729450915,-77.30631605164658L35.880584517139916,-77.16998224316177L36.0346923984048,-77.01062719160028L36.16509925582321,-76.83135833467279L36.269262144054935,-76.63567143106923L36.345149877488325,-76.42738239285407L36.391282638560035,-76.21055287484015L36.406760834317005,-75.98941107195718"/>
  <path fill="none" stroke="#000000" stroke-width="1%" d="M41.169260834317,-74.39249999603761L41.169260834317,-75.98941107195718L41.184739030072166,-76.21055287484015L41.23087179114532,-76.42738239285335L41.30675952457907,-76.63567143106923L41.41092241281079,-76.83135833467206L41.54132927023065,-77.01062719160028L41.69543715149445,-77.1699822431625L41.87024093918381,-77.30631605164729L42.06233194385491,-77.41697009563599L42.26796437378955,-77.49978661140952L42.483128378278835,-77.55315066952444L42.70362824005298,-77.5760216660936L42.925164192134595,-77.56795361526919L47.2786808358126,-76.8525418694639L51.52353855644941,-75.65000119890225L55.60541400049658,-73.97572105743565L59.472069571901095,-71.85112796111197L63.07402194012806,-69.30341128340883L66.36517530059184,-66.36517530059255L69.30341128340991,-63.07402194012661L71.85112796111162,-59.47206957190073L73.97572105743565,-55.60541400049658L75.65000119890296,-51.523538556450134L76.85254186946499,-47.27868083581224L77.56795361526846,-42.92516419213351L77.57602166609468,-42.70362824005298L77.55315066952625,-42.483128378278835L77.49978661140987,-42.26796437379028L77.41697009563816,-42.062331943853465L77.30631605164729,-41.87024093918345L77.16998224316177,-41.695437151494815L77.01062719160065,-41.5413292702292L76.83135833467279,-41.41092241280971L76.63567143106958,-41.30675952458015L76.42738239285407,-41.230871791144956L76.21055287484087,-41.184739030073246L75.98941107195753,-41.169260834317L74.39249999603726,-41.169260834317L74.19985830978884,-41.180992630957554L74.0100639093179,-41.21601462238731L73.82592199690744,-41.27380917600054L73.65015422984243,-41.353522075797464L73.48535849372563,-41.45397514788008L73.33397050517256,-41.57368367412364L73.19822781139318,-41.71087833662343L73.0801367187489,-41.863531368600945L72.981442639129,-42.02938652523365L72.90360429237349,-42.2059924314405L72.84777214607449,-42.39073881374113L72.81477141101742,-42.580895080630775L72.17464581012474,-46.37345816735618L71.11317943166397,-50.070292580626244L69.64376802725202,-53.62474411023154L67.7849556323724,-56.99195542411791L65.56020053985138,-60.12943216985277L62.99757925519214,-62.997579255191056L60.12943216985349,-65.56020053985101L56.99195542411899,-67.78495563237168L53.62474411023045,-69.64376802725239L50.070292580626244,-71.11317943166397L46.373458167357626,-72.17464581012221L42.580895080630775,-72.81477141101671L42.39073881374185,-72.84777214607305L42.20599243144122,-72.90360429237168L42.02938652523257,-72.981442639129L41.86353136860166,-73.08013671874745L41.71087833662379,-73.19822781139065L41.57368367412472,-73.33397050517185L41.45397514788008,-73.4853584937249L41.35352207579783,-73.65015422984133L41.273809176001265,-73.82592199690816L41.21601462238731,-74.0100639093179L41.18099263095792,-74.19985830978776L41.169260834317,-74.39249999603761"/>
  <path fill="none" stroke="#000000" stroke-width="1%" d="M41.16926083431736,-66.39166420957623L41.16926083431736,-67.99459653583673L41.1852738737056,-68.2195075907622L41.232989946288725,-68.43988131078105L41.31144643241377,-68.65127189676518L41.41906055815616,-68.84941477450487L41.55366132605564,-69.03031262783307L41.71253331261787,-69.19031604012018L41.89247144901987,-69.32619711726598L42.089845679871104,-69.43521460693376L42.300674195620644,-69.51516920032917L42.52070376120882,-69.56444790085011L42.74549552044836,-69.58205656453126L42.97051454508354,-69.5676399574793L46.275644760593025,-68.93455697871154L49.49289342317277,-67.9476472348075L52.58450003178765,-66.61849397913542L55.51417873265473,-64.96269734030227L58.24754420240741,-62.999691225115455L60.75251522492411,-60.75251522492411L62.999691225116536,-58.247544202406324L64.962697340303,-55.514178732655445L66.61849397913579,-52.58450003178765L67.94764723480715,-49.492893423173484L68.93455697871046,-46.27564476059266L69.5676399574793,-42.97051454508246L69.58205656453234,-42.74549552044619L69.5644479008512,-42.5207037612081L69.5151692003299,-42.300674195620644L69.43521460693376,-42.089845679871466L69.32619711726635,-41.892471449018785L69.19031604012163,-41.71253331261643L69.03031262783452,-41.553661326054915L68.84941477450451,-41.41906055815616L68.65127189676589,-41.311446432413405L68.43988131078214,-41.232989946288L68.21950759076148,-41.18527387370488L67.99459653583709,-41.169260834317L66.39166420957623,-41.169260834317L66.20319743563243,-41.18048784872161L66.01739638664915,-41.21401009400888L65.83688908284691,-41.269353422488564L65.66422866829187,-41.345735043172176L65.50185729852241,-41.44207459378691L65.35207159805475,-41.55700942170347L65.21699017629325,-41.688913857671544L65.09852366135702,-41.83592220971933L64.99834767563134,-41.995955152006744L64.91787913531935,-42.16674913536964L64.85825620918806,-42.34588840357292L64.8203222204826,-42.53083916242622L64.27107268097653,-45.29212944634395L63.429800821937036,-47.978885994282166L62.306147170904644,-50.560320006847775L60.91298820040154,-53.00684962481853L59.26628877039607,-55.290438921501426L57.38491917952334,-57.38491917952334L55.290438921501426,-59.26628877039607L53.006849624819615,-60.912988200400825L50.560320006846325,-62.306147170905724L47.978885994282166,-63.429800821936674L45.29212944634359,-64.2710726809769L42.53083916242658,-64.82032222048295L42.34588840357364,-64.85825620918841L42.16674913536928,-64.91787913531935L41.995955152007106,-64.99834767563134L41.83592220971969,-65.09852366135702L41.688913857671906,-65.2169901762936L41.55700942170419,-65.3520715980544L41.44207459378763,-65.50185729852241L41.34573504317254,-65.66422866829114L41.26935342248928,-65.83688908284726L41.21401009400924,-66.01739638664843L41.18048784872053,-66.20319743563387L41.16926083431736,-66.39166420957623"/>
  <path fill="none" stroke="#000000" stroke-width="1%" d="M36.40676083431664,-67.99459653583746L36.40676083431664,-66.39166420957696L36.39553381991239,-66.20319743563387L36.362011574624766,-66.01739638664915L36.30666824614508,-65.83688908284726L36.23028662546074,-65.66422866829114L36.13394707484709,-65.50185729852241L36.019012246930174,-65.3520715980544L35.88710781096174,-65.2169901762936L35.74009945891359,-65.09852366135702L35.58006651662726,-64.99834767563206L35.409272533264364,-64.91787913531935L35.230133265061085,-64.85825620918841L35.04518250620778,-64.82032222048223L32.28389222229078,-64.2710726809769L29.597135674351833,-63.42980082193595L27.015701661786593,-62.306147170905724L24.56917204381547,-60.912988200400825L22.285582747132576,-59.26628877039607L21.273216407218328,-58.356929400955494L20.19110248911211,-57.38491917952261L18.309732898239016,-55.29043892150071L16.66303346823354,-53.00684962481781L15.269874497729361,-50.56032000684705L14.146220846698053,-47.978885994282166L13.304948987658554,-45.292129446343225L12.75569944815033,-42.53083916242694L12.71776545690446,-42.34588840357364L12.658142530775333,-42.16674913536892L12.5776739904619,-41.99595515200602L12.477498004736582,-41.83592220971933L12.359031489800714,-41.688913857671544L12.223950068039564,-41.55700942170347L12.074164367571543,-41.44207459378691L11.911792997802095,-41.3457350431729L11.739132583247411,-41.26935342248928L11.558625279443719,-41.2140100940096L11.372824230461168,-41.180487848720894L11.184357456515553,-41.169260834317L9.581425130256505,-41.169260834317L9.356514075330676,-41.1852738737056L9.136140355313268,-41.232989946288L8.924749769328061,-41.311446432413405L8.726606891590892,-41.419060558155444L8.545709038260165,-41.553661326054915L8.38570562597269,-41.712533312617154L8.249824548828338,-41.892471449018785L8.14080705915984,-42.089845679871466L8.060852465762979,-42.300674195619926L8.011573765242758,-42.5207037612081L7.993965101561261,-42.74549552044619L8.008381711153254,-42.97051454508246L8.64146468992354,-46.27564476059266L9.628374433826135,-49.49289342317421L10.957527689498217,-52.584500031788366L12.613324328332814,-55.51417873265473L14.576330443517465,-58.24754420240705L16.82350644371025,-60.75251522492339L17.500292917911537,-61.35965131887796L19.328477466228037,-62.999691225115455L22.061842935977836,-64.96269734030227L24.991521636845995,-66.61849397913542L28.083128245460156,-67.9476472348075L31.300376908040977,-68.93455697871083L34.605507123552265,-69.5676399574793L34.83052614818817,-69.58205656453198L35.05531790742554,-69.56444790085084L35.27534747301408,-69.5151692003299L35.48617598876218,-69.43521460693376L35.68355021961377,-69.32619711726598L35.86348835601649,-69.1903160401209L36.022360342578004,-69.0303126278338L36.15696111047784,-68.84941477450487L36.26457523621915,-68.65127189676589L36.34303172234528,-68.43988131078105L36.39074779492804,-68.21950759076148L36.40676083431664,-67.99459653583746"/>
  <path fill="none" stroke="#000000" stroke-width="1%" d="M36.389791770214906,-60.1881814796714L36.40676083431664,-59.95668886771663L36.40676083431718,-59.14797672847683L36.40676083431772,-58.33926458923702L36.39641838737836,-58.15834940793399L36.365525807135135,-57.97979152510634L36.314485619413304,-57.80591752396828L36.2439628704302,-57.638992957441516L36.154876461333345,-57.48119282832738L36.04838717506492,-57.33457324933279L35.92588255152377,-57.20104465222635L35.78895880811621,-57.08234689518983L35.639400041286194,-56.98002659271473L35.47915497999234,-56.8954169634457L35.31031159405146,-56.82962045853441L35.13506988819026,-56.78349439809145L33.40026563730022,-56.342315375995554L31.716660327119968,-55.734320410573794L30.100253008328785,-54.96528718749116L28.56640415909716,-54.042523715005025L27.598291381878184,-53.32305015247732L27.129689716745073,-52.974798877053956L25.803762564778395,-51.772259103854886L24.601222791580412,-50.446331951890016L23.53349795362753,-49.00961750953684L22.6107344811414,-47.47576866030522L21.841701258059487,-45.859361341514756L21.23370629263628,-44.17575603133559L20.792527270540752,-42.44095178044483L20.746401207558108,-42.26571007458254L20.680604702649344,-42.09686668864167L20.59599507337995,-41.93662162734781L20.49367477090521,-41.78706286051779L20.374977013866527,-41.65013911711023L20.241448416761887,-41.527634493568726L20.094828837766574,-41.42114520730102L19.93702870865208,-41.33205879820452L19.770104142127117,-41.26153604921925L19.5962301409887,-41.21049586149886L19.41767225816033,-41.17960328125636L19.236757076857657,-41.169260834317L17.619332800917373,-41.169260834316276L17.387840188962244,-41.1862298984191L17.16129650673638,-41.23677432016208L16.944544884019706,-41.319813543283246L16.742219112541154,-41.43357232633264L16.558644583143504,-41.57561869440528L16.39774581608898,-41.74291593074468L16.2629625612916,-41.931887496732315L16.157176262138357,-42.1384934923798L16.0826484549968,-42.35831702271481L16.040972421300268,-42.586658623702384L16.033039125819766,-42.818636729024206L16.05901816917735,-43.04929202992548L16.598059867298183,-45.297365724111856L17.358866011297142,-47.480385489953996L18.333833170537215,-49.576534417203476L19.51321760777121,-51.5648637752367L20.885232657195616,-53.4255023728567L22.436166519377615,-55.139855149255666L23.78369854475099,-56.358935071017804L24.1505192957773,-56.69078901143695L26.011157893397662,-58.06280406086316L27.999487251430164,-59.24218849809715L30.09563617868109,-60.21715565733794L32.27865594452323,-60.97796180133582L34.52672963870924,-61.517003499456294L34.7573849396098,-61.54298254281424L34.98936304493234,-61.53504924733301L35.21770464591919,-61.49337321363684L35.43752817625348,-61.41884540649637L35.6441341719006,-61.31305910734312L35.833105737890406,-61.17827585254394L36.00040297422945,-61.017377085490864L36.14244934230173,-60.83380255609321L36.25620812535076,-60.631476784613575L36.339247348471204,-60.414725161897984L36.389791770214906,-60.1881814796714"/>
  <path fill="none" stroke="#000000" stroke-width="1%" d="M36.40676083431682,-18.428044938886973L36.40676083431664,-17.619332800917373L36.389791770213826,-17.387840188962603L36.33924734847193,-17.161296506736022L36.25620812535184,-16.944544884020427L36.14244934230137,-16.742219112540074L36.000402974228365,-16.558644583143142L35.833105737890044,-16.397745816089344L35.6441341719006,-16.26296256129088L35.43752817625384,-16.157176262137636L35.217704645919554,-16.082648454996438L34.9893630449327,-16.040972421299546L34.7573849396098,-16.033039125819766L34.526729638711046,-16.059018169176987L32.278655944522505,-16.598059867298183L30.095636178680728,-17.358866011295337L27.999487251429443,-18.33383317053613L26.011157893398384,-19.513217607770127L24.150519295777663,-20.885232657196337L22.436166519377252,-22.436166519378336L20.88523265719742,-24.150519295775858L19.513217607770486,-26.01115789339802L18.33383317053613,-27.999487251430523L17.358866011295337,-30.095636178679285L16.598059867298904,-32.27865594452287L16.05901816917771,-34.52672963870924L16.033039125819403,-34.7573849396098L16.040972421300268,-34.98936304493162L16.08264845499752,-35.217704645918474L16.157176262137636,-35.43752817625348L16.262962561292323,-35.644134171900966L16.397745816089703,-35.833105737889326L16.55864458314242,-36.00040297422945L16.742219112540074,-36.14244934230137L16.94454488402079,-36.25620812535148L17.1612965067353,-36.33924734847193L17.387840188962965,-36.38979177021346L17.619332800917373,-36.406760834317005L19.236757076856936,-36.406760834317005L19.41767225815961,-36.39641838737692L19.5962301409887,-36.365525807135135L19.770104142126755,-36.31448561941403L19.937028708652804,-36.24396287042948L20.094828837766574,-36.15487646133298L20.241448416761887,-36.04838717506528L20.374977013865802,-35.92588255152377L20.49367477090557,-35.78895880811621L20.595995073379587,-35.639400041286194L20.680604702648623,-35.47915497999161L20.746401207558108,-35.31031159405218L20.792527270541473,-35.13506988818918L21.233706292637365,-33.400265637299135L21.841701258059487,-31.71666032711852L22.610734481142483,-30.100253008328785L23.533497953628977,-28.56640415909644L24.601222791579687,-27.12968971674327L25.803762564779117,-25.803762564779117L27.129689716744352,-24.60122279158005L28.56640415909716,-23.53349795362753L30.100253008328785,-22.61073448114212L31.716660327119605,-21.841701258059487L33.40026563729986,-21.233706292637724L35.13506988818954,-20.792527270541836L35.31031159405218,-20.74640120755919L35.47915497999125,-20.680604702648623L35.63940004128583,-20.59599507338031L35.78895880811585,-20.493674770904487L35.92588255152269,-20.374977013867248L36.04838717506528,-20.241448416760804L36.15487646133298,-20.094828837766215L36.24396287042984,-19.93702870865208L36.31448561941367,-19.770104142125312L36.365525807135135,-19.596230140987977L36.396418387376556,-19.417672258158888L36.406760834317005,-19.236757076856577L36.40676083431682,-18.428044938886973"/>
  <path fill="none" stroke="#000000" stroke-width="1%" d="M41.16926083431736,-59.05668886771663L41.16926083431736,-59.95668886771663L41.18622989841982,-60.1881814796714L41.236774320162795,-60.414725161897984L41.31981354328288,-60.631476784613575L41.43357232633299,-60.83380255609321L41.57561869440672,-61.017377085490864L41.74291593074504,-61.17827585254466L41.93188749673268,-61.313059107342404L42.1384934923798,-61.41884540649565L42.35831702271481,-61.49337321363684L42.5866586237031,-61.53504924733301L42.81863672902456,-61.54298254281424L43.049292029924764,-61.51700349945702L45.297365724111856,-60.97796180133582L47.48038548995436,-60.217155657338665L49.57653441720456,-59.24218849809715L51.56486377523598,-58.06280406086316L53.42550237285706,-56.69078901143695L55.13985514925603,-55.139855149255666L56.6907890114373,-53.4255023728567L58.06280406086316,-51.56486377523598L59.242188498097875,-49.576534417203476L60.2171556573383,-47.480385489953996L60.9779618013369,-45.29736572411113L61.517003499457374,-43.049292029924764L61.5429825428146,-42.818636729024206L61.535049247334456,-42.586658623702384L61.49337321363684,-42.35831702271481L61.418845406496004,-42.1384934923798L61.313059107343484,-41.93188749673304L61.178275852545745,-41.742915930743955L61.017377085491944,-41.57561869440528L60.83380255609285,-41.43357232633264L60.631476784613575,-41.31981354328252L60.414725161899064,-41.23677432016208L60.18818147967248,-41.1862298984191L59.956688867717354,-41.169260834316276L58.33926458923666,-41.169260834317L58.15834940793471,-41.17960328125709L57.97979152510598,-41.21049586149886L57.80591752396828,-41.26153604921998L57.63899295744296,-41.33205879820452L57.481192828327025,-41.42114520730102L57.334573249333154,-41.527634493568726L57.20104465222743,-41.65013911711023L57.082346895190554,-41.78706286051707L56.98002659271401,-41.93662162734709L56.89541696344678,-42.09686668864167L56.82962045853549,-42.26571007458182L56.78349439809145,-42.44095178044483L56.34231537599628,-44.175756031334146L55.73432041057343,-45.859361341514756L54.96528718749188,-47.47576866030522L54.04252371500611,-49.00961750953684L52.974798877053956,-50.446331951890016L51.77225910385452,-51.77225910385417L50.446331951890734,-52.974798877053956L49.00961750953756,-54.04252371500575L47.475768660305576,-54.96528718749188L45.859361341516205,-55.734320410573794L44.17575603133595,-56.342315375995554L42.44095178044483,-56.78349439809217L42.26571007458254,-56.82962045853441L42.09686668864203,-56.8954169634457L41.93662162734745,-56.98002659271401L41.78706286051779,-57.08234689518983L41.65013911711095,-57.20104465222707L41.527634493568364,-57.33457324933279L41.4211452073003,-57.48119282832738L41.33205879820452,-57.63899295744224L41.26153604921925,-57.80591752396828L41.210495861499226,-57.97979152510634L41.17960328125781,-58.15834940793471L41.16926083431736,-58.33926458923702L41.16926083431736,-59.05668886771663"/>
  <path fill="none" stroke="#000000" stroke-width="1%" d="M41.16926083431736,-18.428044938886973L41.169260834317,-19.236757076857298L41.17960328125636,-19.41767225815961L41.2104958614985,-19.596230140987977L41.261536049220695,-19.770104142125312L41.33205879820488,-19.93702870865208L41.42114520730102,-20.094828837766215L41.52763449356909,-20.241448416760804L41.65013911711095,-20.374977013867248L41.78706286051743,-20.493674770904487L41.93662162734781,-20.595995073379587L42.09686668864167,-20.680604702648623L42.26571007458182,-20.74640120755919L42.44095178044483,-20.792527270541836L44.17575603133559,-21.233706292637002L45.85936134151584,-21.841701258058762L47.47576866030594,-22.61073448114212L49.0096175095372,-23.533497953628256L50.44633195188929,-24.60122279157933L51.77225910385452,-25.803762564779117L52.974798877054674,-27.12968971674327L54.04252371500539,-28.56640415909716L54.96528718749296,-30.100253008328785L55.4630829921718,-31.146554725598705L55.73432041057488,-31.71666032711852L56.34231537599664,-33.400265637299135L56.78349439809253,-35.13506988818918L56.82962045853549,-35.31031159405218L56.89541696344642,-35.47915497999161L56.980026592715454,-35.639400041286194L57.082346895190554,-35.78895880811621L57.20104465222743,-35.92588255152305L57.334573249333154,-36.048387175066L57.481192828327025,-36.15487646133298L57.63899295744296,-36.24396287042948L57.80591752396901,-36.31448561941403L57.97979152510634,-36.365525807135135L58.15834940793471,-36.39641838737692L58.33926458923774,-36.40676083431628L59.956688867717354,-36.40676083431628L60.188181479672124,-36.38979177021418L60.414725161898346,-36.33924734847193L60.631476784612495,-36.2562081253522L60.83380255609429,-36.14244934230137L61.01737708549158,-36.00040297422945L61.17827585254466,-35.833105737889326L61.313059107343484,-35.644134171900966L61.41884540649637,-35.43752817625348L61.49337321363648,-35.21770464591919L61.53504924733374,-34.98936304493162L61.542982542815324,-34.7573849396098L61.51700349945702,-34.52672963870924L60.97796180133654,-32.27865594452215L60.217155657339745,-30.095636178679285L59.28951830075495,-28.101244848214655L59.242188498097875,-27.9994872514298L58.06280406086316,-26.0111578933973L56.6907890114373,-24.15051929577658L55.13985514925603,-22.436166519377615L53.4255023728567,-20.885232657197058L51.56486377523562,-19.513217607770848L49.5765344172042,-18.33383317053613L47.48038548995616,-17.358866011294616L45.297365724110776,-16.598059867298183L43.0492920299244,-16.05901816917771L42.81863672902601,-16.033039125819766L42.58665862370202,-16.040972421300268L42.35831702271553,-16.082648454996438L42.13849349238052,-16.157176262137636L41.93188749673304,-16.26296256129088L41.74291593074468,-16.397745816089344L41.575618694404916,-16.55864458314242L41.43357232633299,-16.742219112540074L41.31981354328252,-16.944544884020427L41.236774320161715,-17.161296506736022L41.18622989842018,-17.38784018896188L41.169260834317726,-17.619332800916652L41.16926083431736,-18.428044938886973"/>
  <path fill="none" stroke="#000000" stroke-width="1%" d="M36.40676083431646,-2.3850661333667658L36.40676083431664,-1.5866105941364252L36.39128263856039,-1.3654687912534484L36.345149877488325,-1.14863927323953L36.269262144054935,-0.9403502350243684L36.16509925582357,-0.7446633314215318L36.034692398405525,-0.5653944744933141L35.88058451713883,-0.40603942293110434L35.70578072945055,-0.2697056144463033L35.51368972478018,-0.15905157045688156L35.30805729484373,-0.07623505468408211L35.09289329035517,-0.02287099656843452L34.87239342858103,-7.219114195322617e-13L34.65085747650013,-0.008068053364809202L30.29734083282321,-0.723479799169371L26.052483112183147,-1.9260204697317647L21.970607668136704,-3.6003006111983606L18.10395209673399,-5.724893707521306L14.501999728507387,-8.272610385224453L11.210846368041082,-11.210846368041445L8.272610385225175,-14.501999728505943L5.724893707522028,-18.10395209673327L3.6003006111979996,-21.970607668137426L1.9260204697324865,-26.052483112183868L0.723479799169371,-30.297340832821764L0.008068053365170158,-34.65085747650049L7.219114195322617e-13,-34.87239342858103L0.02287099656915643,-35.092893290354446L0.07623505468408211,-35.30805729484445L0.15905157045688156,-35.51368972478054L0.2697056144463033,-35.70578072945055L0.40603942293327006,-35.880584517138466L0.5653944744929532,-36.03469239840408L0.7446633314222537,-36.16509925582357L0.9403502350261732,-36.26926214405385L1.1486392732398911,-36.34514987748904L1.3654687912545311,-36.39128263856075L1.5866105941371471,-36.406760834317005L3.1835216725974673,-36.406760834317005L3.376163358846969,-36.395029037676444L3.565957759315742,-36.36000704624669L3.750099671725843,-36.302212492633466L3.9258674387930252,-36.222499592836535L4.090663174909466,-36.1220465207532L4.242051163462162,-36.00233799450964L4.377793857244074,-35.86514333200985L4.495884949885828,-35.71249030003306L4.594579029505724,-35.546635143401076L4.67241737626268,-35.37002923719278L4.728249522560231,-35.18528285489359L4.761250257616581,-34.99512658800395L5.401375858512512,-31.202563501276373L6.462842236969672,-27.505729088007755L7.932253641381979,-23.951277558401742L9.791066036261238,-20.584066244516094L12.015821128782266,-17.446589498781236L14.578442413443305,-14.578442413442223L17.44658949878268,-12.015821128782266L20.584066244516816,-9.791066036261599L23.951277558402825,-7.932253641380896L27.505729088007755,-6.462842236970033L31.202563501276373,-5.4013758585117895L34.99512658800287,-4.761250257616581L35.18528285489324,-4.728249522560231L35.37002923719278,-4.672417376262319L35.546635143399996,-4.594579029505724L35.71249030003198,-4.495884949885828L35.86514333200949,-4.377793857243352L36.00233799451,-4.24205116346144L36.122046520753564,-4.090663174909104L36.22249959283726,-3.9258674387919426L36.30221249263418,-3.750099671725121L36.36000704624597,-3.5659577593153813L36.39502903767753,-3.3761633588455253L36.40676083431628,-3.1835216725971063L36.40676083431646,-2.3850661333667658"/>
  <path fill="none" stroke="#000000" stroke-width="1%" d="M72.63419653511046,-4.941825130983858L73.19181083277668,-5.369697630466521L73.84116643574238,-5.638669528018095L74.53801083277698,-5.730410833317205L75.23485522981157,-5.638669528017374L75.88421083277655,-5.369697630466521L76.44182513044422,-4.941825130983136L76.86969762992723,-4.384210833316552L77.13866952747844,-3.7348552303508598L77.23041083277647,-3.038010833316622L77.13866952747844,-2.341166436283106L76.86969762992723,-1.6918108333166912L76.45804142885325,-1.1553300271893363L76.44182513044349,-1.1341965356508297L75.88421083277763,-0.7063240361674445L75.23485522981157,-0.4373521386165919L74.53801083277733,-0.34561083331676057L73.8411664357431,-0.4373521386165919L73.19181083277813,-0.7063240361674445L72.63419653511119,-1.1341965356501078L72.20632403562708,-1.6918108333166912L71.93735213807695,-2.341166436283106L71.84561083277748,-3.038010833316622L71.93735213807659,-3.7348552303515814L72.2063240356296,-4.384210833316552L72.63419653511046,-4.941825130983858"/>
  <path fill="none" stroke="#000000" stroke-width="1%" d="M71.84561083277711,-74.53801083277625L71.93735213807622,-75.23485522981122L72.20632403562816,-75.8842108327769L72.63419653510974,-76.44182513044422L73.1918108327774,-76.86969762992543L73.84116643574382,-77.13866952747773L74.53801083277662,-77.23041083277684L75.23485522981157,-77.13866952747773L75.8842108327769,-76.86969762992615L76.44182513044312,-76.44182513044422L76.8696976299258,-75.8842108327769L77.13866952747809,-75.23485522981122L77.23041083277755,-74.53801083277625L77.13866952747844,-73.84116643574274L76.86969762992688,-73.19181083277633L76.44182513044422,-72.63419653511046L75.88421083277655,-72.20632403562853L75.23485522981049,-71.93735213807622L74.5380108327777,-71.84561083277639L73.84116643574274,-71.93735213807622L73.19181083277705,-72.2063240356278L72.63419653511082,-72.63419653511046L72.20632403562816,-73.19181083277633L71.93735213807622,-73.84116643574274L71.84561083277711,-74.53801083277625"/>
  <path fill="none" stroke="#000000" stroke-width="1%" d="M0.4373521386162309,-73.84116643574274L0.3456108333174825,-74.53801083277625L0.43735213861586997,-75.23485522981122L0.7063240361674445,-75.8842108327769L1.1341965356508297,-76.44182513044422L1.691810833317052,-76.86969762992543L2.341166436284189,-77.13866952747773L3.038010833317344,-77.23041083277684L3.7348552303519424,-77.13866952747773L4.384210833318718,-76.86969762992615L4.941825130983858,-76.44182513044349L5.3696976304679644,-75.88421083277619L5.638669528019539,-75.23485522981122L5.730410833318288,-74.53801083277625L5.638669528017735,-73.84116643574274L5.369697630467604,-73.19181083277633L4.941825130984219,-72.63419653511046L4.3842108333194405,-72.20632403562708L3.7348552303526645,-71.9373521380755L3.038010833317344,-71.84561083277639L2.341166436283467,-71.93735213807622L1.691810833317413,-72.2063240356278L1.1341965356511905,-72.63419653511046L0.7063240361699712,-73.19181083277633L0.4373521386162309,-73.84116643574274"/>
  <path fill="none" stroke="#000000" stroke-width="1%" d="M0.3456108333171215,-3.038010833316622L0.4373521386165919,-3.7348552303508598L0.7063240361670835,-4.384210833317274L1.1341965356511905,-4.941825130983136L1.691810833317413,-5.369697630465799L2.341166436283467,-5.638669528017374L3.0380108333180655,-5.730410833317205L3.7348552303519424,-5.638669528017374L4.384210833317996,-5.369697630465799L4.941825130984219,-4.941825130983858L5.369697630466521,-4.384210833317274L5.638669528018457,-3.7348552303508598L5.730410833317927,-3.038010833316622L5.638669528018095,-2.341166436283106L5.36969763046616,-1.6918108333166912L4.941825130984579,-1.1341965356508297L4.384210833318718,-0.7063240361674445L3.7348552303526645,-0.43735213861586997L3.038010833317344,-0.34561083331676057L2.341166436283106,-0.43735213861586997L1.6918108333163302,-0.7063240361681664L1.1341965356504686,-1.1341965356508297L0.7063240361681664,-1.6918108333166912L0.4373521386165919,-2.3411664362823843L0.3456108333171215,-3.038010833316622"/>
  <path fill="none" stroke="#000000" stroke-width="1%" d="M36.40676083431664,-9.581425130256866L36.390747794927684,-9.356514075331399L36.34303172234528,-9.136140355312545L36.264575236219876,-8.924749769328423L36.156961110477475,-8.72660689158945L36.02236034257873,-8.545709038260526L35.86348835601613,-8.38570562597269L35.68355021961485,-8.249824548828338L35.4861759887629,-8.14080705915984L35.27534747301372,-8.060852465764423L35.055317907425184,-8.01157376524348L34.83052614818817,-7.993965101562344L34.60550712355082,-8.008381711154698L31.300376908040977,-8.641464689923179L28.083128245459434,-9.628374433827219L24.991521636845995,-10.957527689497857L22.061842935978557,-12.61332432833173L19.328477466228037,-14.576330443517826L16.823506443709167,-16.823506443709892L14.576330443518549,-19.328477466226957L12.613324328332453,-22.061842935978557L10.957527689498217,-24.991521636845633L9.628374433826856,-28.083128245459793L8.641464689923902,-31.300376908039894L8.008381711153975,-34.60550712355155L7.993965101562704,-34.83052614818709L8.01157376524348,-35.055317907425184L8.060852465764423,-35.275347473013355L8.14080705915948,-35.48617598876254L8.249824548828338,-35.683550219614496L8.38570562597269,-35.86348835601685L8.545709038259442,-36.022360342579084L8.72660689158981,-36.15696111047784L8.924749769328061,-36.2645752362206L9.136140355311824,-36.343031722346L9.356514075331399,-36.3907477949284L9.58142513025831,-36.40676083431628L11.184357456517358,-36.406760834317005L11.372824230460445,-36.39553381991311L11.558625279445524,-36.36201157462512L11.739132583247049,-36.30666824614472L11.911792997803538,-36.23028662546038L12.074164367571903,-36.13394707484709L12.223950068039564,-36.01901224693054L12.359031489800714,-35.88710781096174L12.477498004737665,-35.74009945891395L12.57767399046226,-35.58006651662726L12.65814253077425,-35.409272533264364L12.717765456906264,-35.23013326506036L12.75569944815033,-35.04518250620778L13.30494898765711,-32.283892222290056L14.146220846697693,-29.59713567435111L15.269874497729361,-27.01570166178623L16.663033468233902,-24.56917204381547L18.309732898238295,-22.285582747131855L20.191102489111753,-20.19110248911067L22.285582747132576,-18.309732898237932L24.569172043815833,-16.66303346823318L27.01570166178623,-15.269874497728999L29.597135674352195,-14.146220846698053L32.283892222289694,-13.30494898765711L35.04518250620706,-12.755699448151773L35.23013326506036,-12.71776545690518L35.409272533264,-12.658142530774972L35.58006651662762,-12.57767399046226L35.74009945891359,-12.477498004736582L35.887107810962455,-12.35903148979999L36.01901224693054,-12.223950068039203L36.133947074847455,-12.074164367571182L36.23028662546147,-11.911792997803177L36.30666824614472,-11.739132583247049L36.36201157462368,-11.558625279445163L36.39553381991239,-11.372824230459724L36.40676083431664,-11.184357456516636L36.40676083431664,-10.38289129338675L36.40676083431664,-9.581425130256866"/>
  <path fill="none" stroke="#000000" stroke-width="1%" d="M41.169260834317726,-9.581425130256866L41.16926083431718,-10.38289129338675L41.16926083431664,-11.184357456516636L41.18048784872053,-11.372824230459724L41.214010094009964,-11.558625279444442L41.26935342248928,-11.739132583246327L41.345735043172176,-11.911792997803177L41.44207459378727,-12.074164367571182L41.55700942170311,-12.223950068039203L41.68891385767118,-12.359031489800714L41.83592220972005,-12.477498004736582L41.99595515200747,-12.57767399046154L42.16674913536928,-12.658142530774972L42.345888403574364,-12.71776545690518L42.53083916242694,-12.75569944815105L45.29212944634467,-13.304948987656388L47.97888599428145,-14.146220846697332L50.56032000684705,-15.269874497728999L53.00684962481817,-16.66303346823246L55.290438921500346,-18.309732898238654L57.38491917952369,-20.19110248911139L59.26628877039679,-22.285582747132576L60.91298820040119,-24.56917204381547L61.79075041334913,-26.110612250553395L62.30614717090681,-27.015701661786952L63.429800821935586,-29.597135674351833L64.27107268097726,-32.283892222290056L64.82032222048295,-35.04518250620778L64.8582562091877,-35.23013326506036L64.91787913531935,-35.409272533264364L64.99834767563169,-35.58006651662726L65.09852366135702,-35.74009945891395L65.21699017629288,-35.88710781096174L65.35207159805367,-36.01901224693054L65.50185729852278,-36.13394707484709L65.66422866829078,-36.230286625461105L65.83688908284726,-36.30666824614472L66.0173963866488,-36.362011574624404L66.20319743563424,-36.39553381991239L66.39166420957733,-36.406760834317005L67.99459653583709,-36.406760834317005L68.21950759076148,-36.390747794929126L68.43988131078105,-36.34303172234528L68.65127189676481,-36.2645752362206L68.84941477450523,-36.15696111047784L69.03031262783415,-36.02236034257837L69.19031604012127,-35.86348835601685L69.32619711726635,-35.68355021961521L69.4352146069334,-35.48617598876326L69.51516920032954,-35.27534747301408L69.56444790084976,-35.0553179074259L69.58205656453161,-34.83052614818781L69.56763995747895,-34.60550712355155L68.93455697871119,-31.30037690804062L67.94764723480642,-28.083128245459793L66.61849397913507,-24.991521636845633L65.55693423819244,-23.11325416740155L64.96269734030227,-22.061842935978557L62.99969122511618,-19.328477466226957L60.752515224923755,-16.823506443710613L58.24754420240669,-14.576330443518549L55.51417873265508,-12.613324328332453L52.58450003178801,-10.957527689497857L49.49289342317529,-9.628374433826496L46.275644760594105,-8.641464689922458L42.97051454508137,-8.008381711154698L42.74549552044655,-7.993965101562344L42.52070376120774,-8.01157376524348L42.300674195619564,-8.060852465764423L42.089845679871104,-8.14080705915984L41.89247144901951,-8.249824548827615L41.71253331261751,-8.385705625973412L41.55366132605528,-8.545709038260526L41.41906055815472,-8.726606891590171L41.311446432413405,-8.924749769328423L41.23298994628836,-9.136140355312545L41.18527387370524,-9.356514075331399L41.169260834317726,-9.581425130256866"/>
  <path fill="none" stroke="#000000" stroke-width="1%" d="M41.16926083431808,-1.5866105941364252L41.16926083431718,-2.3850661333667658L41.169260834316276,-3.1835216725971063L41.18099263095792,-3.3761633588448032L41.216014622387675,-3.5659577593153813L41.2738091760009,-3.750099671725843L41.35352207579819,-3.9258674387919426L41.453975147880804,-4.090663174909104L41.573683674124005,-4.24205116346144L41.71087833662379,-4.37779385724263L41.86353136860022,-4.49588494988655L42.02938652523184,-4.5945790295050015L42.20599243144014,-4.672417376262319L42.39073881374149,-4.728249522560231L42.580895080630775,-4.761250257616581L46.37345816735691,-5.4013758585117895L50.070292580626244,-6.462842236970033L53.6247441102319,-7.932253641381617L56.99195542411719,-9.791066036262322L60.12943216985385,-12.015821128782266L62.99757925519178,-14.578442413442223L65.56020053985173,-17.446589498780515L67.7849556323724,-20.58406624451537L68.07490295790066,-21.10930156016279L69.6437680272531,-23.951277558402467L71.11317943166397,-27.505729088007755L72.1746458101233,-31.202563501276373L72.81477141101814,-34.995126588003224L72.84777214607341,-35.18528285489215L72.90360429237276,-35.37002923719278L72.981442639129,-35.546635143401076L73.08013671874926,-35.712490300032336L73.19822781139173,-35.86514333200985L73.33397050517293,-36.00233799450891L73.48535849372453,-36.1220465207532L73.65015422984243,-36.222499592836535L73.82592199690744,-36.302212492633466L74.01006390931899,-36.36000704624597L74.19985830978776,-36.39502903767717L74.39249999603653,-36.406760834317005L75.98941107195681,-36.406760834317005L76.2105528748405,-36.39128263856075L76.42738239285407,-36.34514987748904L76.63567143107068,-36.26926214405385L76.83135833467279,-36.165099255824295L77.01062719160065,-36.03469239840408L77.1699822431625,-35.88058451713919L77.30631605164838,-35.705780729449835L77.41697009563816,-35.513689724779816L77.49978661140987,-35.30805729484445L77.55315066952697,-35.092893290354446L77.57602166609395,-34.87239342858175L77.56795361526919,-34.65085747650049L76.85254186946499,-30.297340832821764L75.65000119890405,-26.052483112183147L73.97572105743528,-21.970607668137426L71.85112796111234,-18.103952096732545L69.30341128340919,-14.501999728505943L66.36517530059292,-11.210846368041445L63.07402194012842,-8.272610385224453L59.472069571900015,-5.724893707522028L55.605414000495855,-3.6003006111983606L51.523538556450134,-1.9260204697317647L47.27868083581224,-0.723479799169371L42.92516419213387,-0.008068053364809202L42.703628240053334,0L42.4831283782792,-0.02287099656843452L42.26796437378955,-0.07623505468480402L42.062331943853465,-0.15905157045688156L41.87024093918345,-0.2697056144463033L41.695437151494815,-0.40603942293182627L41.54132927022956,-0.5653944744933141L41.41092241281007,-0.74466333142081L41.30675952457979,-0.9403502350243684L41.23087179114532,-1.14863927323953L41.18473903007433,-1.3654687912527264L41.16926083431808,-1.5866105941364252"/>
</svg>