 0
SECTION
 2
ENTITIES
  0
POLYLINE
 8
Layer0
 66
     1
70
    8
 10
0.0
 20
 0.0
 30
0.0
  0
VERTEX
  8
MY3DLAYER
10
3.4142135623723693
20
11.41421356237343
30
8.040152124855637e-07
 70
     32
  0
VERTEX
  8
MY3DLAYER
10
3.732050807568326
20
11.000000000001096
30
8.036397792055699e-07
 70
     32
  0
VERTEX
  8
MY3DLAYER
10
3.931851652578523
20
10.517638090206043
30
8.032874050118137e-07
 70
     32
  0
VERTEX
  8
MY3DLAYER
10
3.9999999999998144
20
10.000000000000615
30
8.02981923142933e-07
 70
     32
  0
VERTEX
  8
MY3DLAYER
10
3.9318516525770795
20
9.48236190979374
30
8.027446808112938e-07
 70
     32
  0
VERTEX
  8
MY3DLAYER
10
3.732050807567602
20
9.000000000000119
30
8.025918579931783e-07
 70
     32
  0
VERTEX
  8
MY3DLAYER
10
3.4142135623723715
20
8.585786437627425
30
8.025328233387564e-07
 70
     32
  0
VERTEX
  8
MY3DLAYER
10
2.9999999999993183
20
8.267949192431477
30
8.025728510115126e-07
 70
     32
  0
VERTEX
  8
MY3DLAYER
10
2.517638090204249
20
8.068148347423078
30
8.02707974447694e-07
 70
     32
  0
VERTEX
  8
MY3DLAYER
10
1.9999999999995417
20
8.000000000001785
30
8.029302239483549e-07
 70
     32
  0
VERTEX
  8
MY3DLAYER
10
1.4823619097941148
20
8.068148347423433
30
8.03223563493197e-07
 70
     32
  0
VERTEX
  8
MY3DLAYER
10
0.9999999999990492
20
8.267949192432193
30
8.03568892556979e-07
 70
     32
  0
VERTEX
  8
MY3DLAYER
10
0.5857864376259954
20
8.585786437628501
30
8.039414388026546e-07
 70
     32
  0
VERTEX
  8
MY3DLAYER
10
0.2679491924307669
20
9.000000000001558
30
8.043170525549956e-07
 70
     32
  0
VERTEX
  8
MY3DLAYER
10
0.06814834742056915
20
9.482361909794824
30
8.046688853151871e-07
 70
     32
  0
VERTEX
  8
MY3DLAYER
10
0.0
20
9.999999999999893
30
8.049740062338658e-07
 70
     32
  0
VERTEX
  8
MY3DLAYER
10
0.06814834742129106
20
10.517638090205317
30
8.052116095212149e-07
 70
     32
  0
VERTEX
  8
MY3DLAYER
10
0.2679491924307683
20
11.000000000000025
30
8.05364973772895e-07
 70
     32
  0
VERTEX
  8
MY3DLAYER
10
0.5857864376259968
20
11.414213562373085
30
8.054238279439542e-07
 70
     32
  0
VERTEX
  8
MY3DLAYER
10
0.9999999999990506
20
11.73205080756903
30
8.053839807490529e-07
 70
     32
  0
VERTEX
  8
MY3DLAYER
10
1.4823619097948395
20
11.931851652578876
30
8.052486768405242e-07
 70
     32
  0
VERTEX
  8
MY3DLAYER
10
1.9999999999995473
20
12.000000000000874
30
8.050266078177184e-07
 70
     32
  0
VERTEX
  8
MY3DLAYER
10
2.5176380902042537
20
11.931851652579947
30
8.047330877950214e-07
 70
     32
  0
VERTEX
  8
MY3DLAYER
10
3.0000000000000417
20
11.732050807569024
30
8.043879392035865e-07
 70
     32
  0
VERTEX
  8
MY3DLAYER
10
3.4142135623723693
20
11.41421356237343
30
8.040152124855637e-07
 70
     32
  0
SEQEND
  0
POLYLINE
 8
Layer0
 66
     1
70
    8
 10
0.0
 20
 0.0
 30
0.0
  0
VERTEX
  8
MY3DLAYER
10
7.999999999999631
20
18.300000000001948
30
8.053414861439517e-07
 70
     32
  0
VERTEX
  8
MY3DLAYER
10
7.999999999999631
20
20.000000000001947
30
8.062326947373775e-07
 70
     32
  0
VERTEX
  8
MY3DLAYER
10
35.99999999999904
20
19.999999999999773
30
7.922879326174858e-07
 70
     32
  0
VERTEX
  8
MY3DLAYER
10
35.999999999999034
20
1.0659473304031052e-12
30
7.818031256304984e-07
 70
     32
  0
VERTEX
  8
MY3DLAYER
10
7.999999999999626
20
0.0
30
7.957478877558977e-07
 70
     32
  0
VERTEX
  8
MY3DLAYER
10
7.999999999999631
20
18.300000000001948
30
8.053414861439517e-07
 70
     32
  0
SEQEND
  0
POLYLINE
 8
Layer0
 66
     1
70
    8
 10
0.0
 20
 0.0
 30
0.0
  0
VERTEX
  8
MY3DLAYER
10
43.931851652577365
20
10.517638090204944
30
7.83366393619124e-07
 70
     32
  0
VERTEX
  8
MY3DLAYER
10
44.0000000000001
20
10.000000000000599
30
7.830609117447356e-07
 70
     32
  0
VERTEX
  8
MY3DLAYER
10
43.931851652577365
20
9.4823619097948
30
7.828236694130963e-07
 70
     32
  0
VERTEX
  8
MY3DLAYER
10
43.73205080756861
20
9.000000000001545
30
7.826708465949808e-07
 70
     32
  0
VERTEX
  8
MY3DLAYER
10
43.41421356237267
20
8.585786437627407
30
7.826118119460667e-07
 70
     32
  0
VERTEX
  8
MY3DLAYER
10
42.99999999999889
20
8.267949192431816
30
7.826518396188228e-07
 70
     32
  0
VERTEX
  8
MY3DLAYER
10
42.51763809020383
20
8.068148347422706
30
7.827869630494966e-07
 70
     32
  0
VERTEX
  8
MY3DLAYER
10
41.99999999999911
20
8.000000000001412
30
7.830092125556652e-07
 70
     32
  0
VERTEX
  8
MY3DLAYER
10
41.48236190979368
20
8.068148347422706
30
7.833025520949995e-07
 70
     32
  0
VERTEX
  8
MY3DLAYER
10
40.999999999999346
20
8.267949192431093
30
7.836478811642892e-07
 70
     32
  0
VERTEX
  8
MY3DLAYER
10
40.5857864376263
20
8.585786437627775
30
7.840204274044571e-07
 70
     32
  0
VERTEX
  8
MY3DLAYER
10
40.26794919242961
20
9.00000000000118
30
7.843960411623059e-07
 70
     32
  0
VERTEX
  8
MY3DLAYER
10
40.06814834742158
20
9.482361909795529
30
7.847478739224974e-07
 70
     32
  0
VERTEX
  8
MY3DLAYER
10
39.99999999999957
20
9.999999999999876
30
7.850529948356683e-07
 70
     32
  0
VERTEX
  8
MY3DLAYER
10
40.068148347420866
20
10.517638090206393
30
7.852905981230174e-07
 70
     32
  0
VERTEX
  8
MY3DLAYER
10
40.26794919242961
20
10.99999999999892
30
7.854439623746975e-07
 70
     32
  0
VERTEX
  8
MY3DLAYER
10
40.585786437627014
20
11.414213562374146
30
7.855028165512645e-07
 70
     32
  0
VERTEX
  8
MY3DLAYER
10
40.99999999999863
20
11.73205080756793
30
7.854629693563631e-07
 70
     32
  0
VERTEX
  8
MY3DLAYER
10
41.48236190979441
20
11.931851652578848
30
7.853276654423268e-07
 70
     32
  0
VERTEX
  8
MY3DLAYER
10
41.99999999999912
20
11.99999999999942
30
7.851055964195209e-07
 70
     32
  0
VERTEX
  8
MY3DLAYER
10
42.51763809020526
20
11.931851652579203
30
7.848120764023316e-07
 70
     32
  0
VERTEX
  8
MY3DLAYER
10
42.999999999999616
20
11.73205080757045
30
7.844669278108968e-07
 70
     32
  0
VERTEX
  8
MY3DLAYER
10
43.41421356237265
20
11.41421356237378
30
7.840942010873662e-07
 70
     32
  0
VERTEX
  8
MY3DLAYER
10
43.73205080756789
20
11.000000000000002
30
7.837187678128802e-07
 70
     32
  0
VERTEX
  8
MY3DLAYER
10
43.931851652577365
20
10.517638090204944
30
7.83366393619124e-07
 70
     32
  0
SEQEND
 0
ENDSEC
 0
EOF
