<?xml version="1.0"?>
<svg 
  xmlns="http://www.w3.org/2000/svg" 
  xmlns:xlink="http://www.w3.org/1999/xlink" version="1.1" preserveAspectRatio="xMinYMin meet" viewBox="0 -20.000000000001947 44.0000000000001 20.000000000001947" width="100%" height="100%">
  <path fill="none" stroke="#000000" stroke-width="1%" d="M3.4142135623723693,-11.41421356237343L3.732050807568326,-11.000000000001096L3.931851652578523,-10.517638090206043L3.9999999999998144,-10.000000000000615L3.9318516525770795,-9.48236190979374L3.732050807567602,-9.000000000000119L3.4142135623723715,-8.585786437627425L2.9999999999993183,-8.267949192431477L2.517638090204249,-8.068148347423078L1.9999999999995417,-8.000000000001785L1.4823619097941148,-8.068148347423433L0.9999999999990492,-8.267949192432193L0.5857864376259954,-8.585786437628501L0.2679491924307669,-9.000000000001558L0.06814834742056915,-9.482361909794824L0,-9.999999999999893L0.06814834742129106,-10.517638090205317L0.2679491924307683,-11.000000000000025L0.5857864376259968,-11.414213562373085L0.9999999999990506,-11.73205080756903L1.4823619097948395,-11.931851652578876L1.9999999999995473,-12.000000000000874L2.5176380902042537,-11.931851652579947L3.0000000000000417,-11.732050807569024L3.4142135623723693,-11.41421356237343"/>
  <path fill="none" stroke="#000000" stroke-width="1%" d="M7.999999999999631,-18.300000000001948L7.999999999999631,-20.000000000001947L35.99999999999904,-19.999999999999773L35.999999999999034,-1.0659473304031052e-12L7.999999999999626,0L7.999999999999631,-18.300000000001948"/>
  <path fill="none" stroke="#000000" stroke-width="1%" d="M43.931851652577365,-10.517638090204944L44.0000000000001,-10.000000000000599L43.931851652577365,-9.4823619097948L43.73205080756861,-9.000000000001545L43.41421356237267,-8.585786437627407L42.99999999999889,-8.267949192431816L42.51763809020383,-8.068148347422706L41.99999999999911,-8.000000000001412L41.48236190979368,-8.068148347422706L40.999999999999346,-8.267949192431093L40.5857864376263,-8.585786437627775L40.26794919242961,-9.00000000000118L40.06814834742158,-9.482361909795529L39.99999999999957,-9.999999999999876L40.068148347420866,-10.517638090206393L40.26794919242961,-10.99999999999892L40.585786437627014,-11.414213562374146L40.99999999999863,-11.73205080756793L41.48236190979441,-11.931851652578848L41.99999999999912,-11.99999999999942L42.51763809020526,-11.931851652579203L42.999999999999616,-11.73205080757045L43.41421356237265,-11.41421356237378L43.73205080756789,-11.000000000000002L43.931851652577365,-10.517638090204944"/>
</svg>