<?xml version="1.0"?>
<svg 
  xmlns="http://www.w3.org/2000/svg" 
  xmlns:xlink="http://www.w3.org/1999/xlink" version="1.1" preserveAspectRatio="xMinYMin meet" viewBox="0 -52.21999999999989 52.22000000000003 52.21999999999989" width="100%" height="100%">
  <path fill="none" stroke="#000000" stroke-width="1%" d="M0.08654840122581753,-49.0225996254396L0,-49.67999999999994L0.08654840122581753,-50.33740037456029L0.3402954743875288,-50.949999999999875L0.7439487757861638,-51.47605122421377L1.269999999999973,-51.87970452561232L1.8825996254395996,-52.133451598774116L2.540000000000036,-52.21999999999989L3.197400374560427,-52.133451598774116L3.810000000000009,-51.87970452561232L4.336051224213863,-51.47605122421377L4.739704525612453,-50.949999999999875L4.9934515987742545,-50.33740037456029L5.080000000000027,-49.67999999999994L4.9934515987742545,-49.02259962543951L4.739704525612453,-48.409999999999926L4.336051224213863,-47.883948775786116L3.810000000000009,-47.48029547438748L3.197400374560427,-47.22654840122573L2.540000000000036,-47.13999999999995L1.8825996254395996,-47.22654840122573L1.269999999999973,-47.48029547438748L0.7439487757861638,-47.883948775786116L0.3402954743875288,-48.409999999999975L0.08654840122581753,-49.0225996254396"/>
  <path fill="none" stroke="#000000" stroke-width="1%" d="M47.22654840122577,-49.0225996254396L47.13999999999995,-49.67999999999994L47.22654840122577,-50.33740037456029L47.480295474387525,-50.949999999999875L47.883948775786166,-51.47605122421377L48.41000000000002,-51.87970452561232L49.0225996254396,-52.133451598774116L49.67999999999999,-52.21999999999989L50.337400374560424,-52.133451598774116L50.95000000000001,-51.87970452561232L51.47605122421382,-51.47605122421377L51.879704525612496,-50.949999999999875L52.13345159877425,-50.33740037456029L52.22000000000003,-49.67999999999994L52.13345159877425,-49.02259962543951L51.879704525612496,-48.409999999999926L51.47605122421382,-47.883948775786116L50.95000000000001,-47.48029547438748L50.33740037456038,-47.22654840122573L49.67999999999999,-47.13999999999995L49.0225996254396,-47.22654840122573L48.41000000000002,-47.48029547438748L47.883948775786166,-47.883948775786116L47.480295474387525,-48.409999999999975L47.22654840122577,-49.0225996254396"/>
  <path fill="none" stroke="#000000" stroke-width="1%" d="M38.18407282861342,-29.845238063781416L38.60999999999999,-26.60999999999992L38.60999999999994,-25.609999999999946L38.18407282861342,-22.374761936218405L36.935317547305615,-19.359999999999857L34.94883476483188,-16.7711652351681L32.35999999999997,-14.784682452694504L29.345238063781395,-13.535927171386563L26.110000000000127,-13.109999999999925L22.874761936218587,-13.535927171386698L19.85999999999992,-14.784682452694414L17.271165235168056,-16.771165235168194L15.28468245269464,-19.360000000000035L14.035927171386742,-22.374761936218565L13.60999999999999,-25.609999999999946L13.610000000000037,-26.60999999999992L14.035927171386698,-29.845238063781462L15.284682452694549,-32.859999999999964L17.27116523516819,-35.44883476483179L19.86000000000006,-37.43531754730543L22.87476193621854,-38.6840728286133L26.11000000000008,-39.10999999999992L29.34523806378153,-38.68407282861326L32.360000000000056,-37.43531754730541L34.94883476483188,-35.448834764831766L36.93531754730552,-32.85999999999992L38.18407282861342,-29.845238063781416"/>
  <path fill="none" stroke="#000000" stroke-width="1%" d="M52.13345159877425,-3.1974003745603596L52.22000000000003,-2.5399999999999907L52.13345159877425,-1.882599625439577L51.879704525612496,-1.269999999999973L51.47605122421382,-0.7439487757861412L50.95000000000001,-0.3402954743875062L50.33740037456038,-0.08654840122574985L49.67999999999999,0L49.0225996254396,-0.08654840122574985L48.41000000000002,-0.3402954743875062L47.883948775786166,-0.7439487757861638L47.480295474387525,-1.2699999999999954L47.22654840122577,-1.8825996254395996L47.13999999999995,-2.539999999999946L47.22654840122577,-3.1974003745603596L47.480295474387525,-3.8099999999999636L47.883948775786166,-4.336051224213795L48.41000000000002,-4.739704525612431L49.0225996254396,-4.993451598774164L49.67999999999999,-5.079999999999936L50.337400374560424,-4.993451598774164L50.95000000000001,-4.739704525612431L51.47605122421382,-4.336051224213795L51.879704525612496,-3.8099999999999636L52.13345159877425,-3.1974003745603596"/>
  <path fill="none" stroke="#000000" stroke-width="1%" d="M0.08654840122581753,-1.8825996254395996L0,-2.539999999999946L0.08654840122581753,-3.1974003745603596L0.3402954743875288,-3.8099999999999636L0.7439487757861638,-4.336051224213795L1.269999999999973,-4.739704525612431L1.8825996254395996,-4.993451598774164L2.540000000000036,-5.079999999999936L3.197400374560427,-4.993451598774164L3.810000000000009,-4.739704525612431L4.336051224213863,-4.336051224213795L4.739704525612453,-3.8099999999999636L4.9934515987742545,-3.1974003745603596L5.080000000000027,-2.5399999999999907L4.9934515987742545,-1.882599625439577L4.739704525612453,-1.269999999999973L4.336051224213863,-0.7439487757861412L3.810000000000009,-0.3402954743875062L3.197400374560427,-0.08654840122574985L2.540000000000036,0L1.8825996254395996,-0.08654840122574985L1.269999999999973,-0.3402954743875062L0.7439487757861638,-0.7439487757861638L0.3402954743875288,-1.2699999999999954L0.08654840122581753,-1.8825996254395996"/>
</svg>