<?xml version="1.0"?>
<svg 
  xmlns="http://www.w3.org/2000/svg" 
  xmlns:xlink="http://www.w3.org/1999/xlink" version="1.1" preserveAspectRatio="xMinYMin meet" viewBox="3.7000000000000046 -38.3 34.6 34.6" width="100%" height="100%">
  <path fill="none" stroke="#000000" stroke-width="1%" d="M12.514718625761432,-29.485281374238575L15.000000000000004,-31.392304845413264L17.894171458769755,-32.59110991546882L21,-33L24.105828541230252,-32.59110991546882L27,-31.392304845413264L29.48528137423857,-29.485281374238575L31.392304845413264,-27L32.59110991546882,-24.10582854123025L33,-21L32.59110991546881,-17.89417145876974L31.39230484541326,-14.999999999999995L29.48528137423857,-12.514718625761429L26.99999999999999,-10.607695154586732L24.10582854123024,-9.40889008453118L20.999999999999996,-9L17.89417145876974,-9.408890084531183L14.999999999999995,-10.60769515458674L12.514718625761427,-12.514718625761436L10.607695154586736,-15.000000000000004L9.408890084531182,-17.894171458769755L9.000000000000002,-21.000000000000004L9.408890084531183,-24.105828541230256L10.60769515458674,-27.000000000000007L12.514718625761432,-29.485281374238575"/>
  <path fill="none" stroke="#000000" stroke-width="1%" d="M3.7000000000000046,-5.500000000000001L3.761333512679682,-5.965874281184538L3.9411542731880154,-6.400000000000001L4.227207793864219,-6.772792206135787L4.600000000000004,-7.058845726811991L5.034125718815467,-7.238666487320324L5.500000000000004,-7.300000000000001L5.965874281184542,-7.238666487320324L6.400000000000004,-7.05884572681199L6.772792206135789,-6.772792206135787L7.058845726811994,-6.400000000000001L7.238666487320327,-5.965874281184538L7.300000000000003,-5.500000000000001L7.238666487320327,-5.034125718815463L7.058845726811993,-4.6000000000000005L6.772792206135788,-4.227207793864215L6.400000000000002,-3.9411542731880114L5.965874281184541,-3.7613335126796783L5.500000000000004,-3.7000000000000015L5.034125718815465,-3.761333512679679L4.600000000000003,-3.9411542731880127L4.227207793864219,-4.227207793864217L3.941154273188015,-4.600000000000002L3.761333512679681,-5.0341257188154644L3.7000000000000046,-5.500000000000001"/>
  <path fill="none" stroke="#000000" stroke-width="1%" d="M36.5,-38.3L36.96587428118454,-38.238666487320316L37.4,-38.05884572681199L37.77279220613578,-37.77279220613578L38.05884572681199,-37.4L38.23866648732032,-36.96587428118453L38.3,-36.5L38.238666487320316,-36.03412571881546L38.05884572681199,-35.6L37.77279220613578,-35.22720779386422L37.4,-34.94115427318801L36.96587428118454,-34.761333512679684L36.5,-34.7L36.03412571881546,-34.761333512679684L35.6,-34.94115427318801L35.22720779386422,-35.22720779386422L34.94115427318801,-35.6L34.761333512679684,-36.03412571881546L34.7,-36.5L34.761333512679684,-36.96587428118454L34.94115427318801,-37.4L35.22720779386422,-37.77279220613578L35.6,-38.05884572681199L36.03412571881547,-38.23866648732032L36.5,-38.3"/>
  <path fill="none" stroke="#000000" stroke-width="1%" d="M6.772792206135788,-35.22720779386422L6.400000000000002,-34.94115427318801L5.965874281184541,-34.76133351267968L5.500000000000004,-34.7L5.034125718815465,-34.76133351267968L4.600000000000003,-34.94115427318801L4.227207793864219,-35.22720779386422L3.941154273188015,-35.6L3.761333512679681,-36.03412571881546L3.7000000000000046,-36.5L3.761333512679682,-36.96587428118454L3.9411542731880154,-37.4L4.227207793864219,-37.77279220613578L4.600000000000004,-38.05884572681199L5.034125718815467,-38.23866648732032L5.500000000000004,-38.3L5.965874281184542,-38.23866648732032L6.400000000000004,-38.05884572681199L6.772792206135789,-37.77279220613578L7.058845726811994,-37.4L7.238666487320327,-36.96587428118454L7.300000000000003,-36.5L7.238666487320327,-36.03412571881546L7.058845726811993,-35.6L6.772792206135788,-35.22720779386422"/>
  <path fill="none" stroke="#000000" stroke-width="1%" d="M35.22720779386422,-4.227207793864214L34.941154273188005,-4.6L34.76133351267968,-5.034125718815464L34.699999999999996,-5.500000000000001L34.76133351267968,-5.965874281184541L34.941154273188005,-6.400000000000004L35.22720779386422,-6.772792206135788L35.6,-7.058845726811994L36.03412571881546,-7.238666487320327L36.5,-7.300000000000003L36.96587428118454,-7.238666487320326L37.400000000000006,-7.058845726811993L37.77279220613579,-6.772792206135788L38.058845726811995,-6.400000000000002L38.23866648732032,-5.965874281184538L38.300000000000004,-5.500000000000001L38.23866648732032,-5.034125718815463L38.058845726811995,-4.6L37.77279220613578,-4.227207793864214L37.4,-3.94115427318801L36.96587428118454,-3.7613335126796756L36.5,-3.699999999999999L36.03412571881546,-3.761333512679676L35.6,-3.94115427318801L35.22720779386422,-4.227207793864214"/>
</svg>