 0
SECTION
 2
ENTITIES
  0
POLYLINE
 8
Layer0
 66
     1
70
    8
 10
0.0
 20
 0.0
 30
0.0
  0
VERTEX
  8
MY3DLAYER
10
0.08654840122581753
20
49.0225996254396
30
0.0
 70
     32
  0
VERTEX
  8
MY3DLAYER
10
0.0
20
49.67999999999994
30
0.0
 70
     32
  0
VERTEX
  8
MY3DLAYER
10
0.0
20
58.67999999999997
30
0.0
 70
     32
  0
VERTEX
  8
MY3DLAYER
10
0.08654840122581753
20
59.33740037456032
30
0.0
 70
     32
  0
VERTEX
  8
MY3DLAYER
10
0.3402954743875288
20
59.9499999999999
30
0.0
 70
     32
  0
VERTEX
  8
MY3DLAYER
10
0.7439487757861638
20
60.4760512242138
30
0.0
 70
     32
  0
VERTEX
  8
MY3DLAYER
10
1.269999999999973
20
60.87970452561235
30
0.0
 70
     32
  0
VERTEX
  8
MY3DLAYER
10
1.8825996254395996
20
61.133451598774144
30
0.0
 70
     32
  0
VERTEX
  8
MY3DLAYER
10
2.540000000000036
20
61.21999999999992
30
0.0
 70
     32
  0
VERTEX
  8
MY3DLAYER
10
3.197400374560427
20
61.133451598774144
30
0.0
 70
     32
  0
VERTEX
  8
MY3DLAYER
10
3.810000000000009
20
60.87970452561235
30
0.0
 70
     32
  0
VERTEX
  8
MY3DLAYER
10
4.336051224213863
20
60.4760512242138
30
0.0
 70
     32
  0
VERTEX
  8
MY3DLAYER
10
4.739704525612453
20
59.9499999999999
30
0.0
 70
     32
  0
VERTEX
  8
MY3DLAYER
10
4.9934515987742545
20
59.33740037456032
30
0.0
 70
     32
  0
VERTEX
  8
MY3DLAYER
10
5.080000000000027
20
58.67999999999997
30
0.0
 70
     32
  0
VERTEX
  8
MY3DLAYER
10
5.080000000000027
20
49.67999999999994
30
0.0
 70
     32
  0
VERTEX
  8
MY3DLAYER
10
4.9934515987742545
20
49.02259962543951
30
0.0
 70
     32
  0
VERTEX
  8
MY3DLAYER
10
4.739704525612453
20
48.409999999999926
30
0.0
 70
     32
  0
VERTEX
  8
MY3DLAYER
10
4.336051224213863
20
47.883948775786116
30
0.0
 70
     32
  0
VERTEX
  8
MY3DLAYER
10
3.810000000000009
20
47.48029547438748
30
0.0
 70
     32
  0
VERTEX
  8
MY3DLAYER
10
3.197400374560427
20
47.22654840122573
30
0.0
 70
     32
  0
VERTEX
  8
MY3DLAYER
10
2.540000000000036
20
47.13999999999995
30
0.0
 70
     32
  0
VERTEX
  8
MY3DLAYER
10
1.8825996254395996
20
47.22654840122573
30
0.0
 70
     32
  0
VERTEX
  8
MY3DLAYER
10
1.269999999999973
20
47.48029547438748
30
0.0
 70
     32
  0
VERTEX
  8
MY3DLAYER
10
0.7439487757861638
20
47.883948775786116
30
0.0
 70
     32
  0
VERTEX
  8
MY3DLAYER
10
0.3402954743875288
20
48.409999999999975
30
0.0
 70
     32
  0
VERTEX
  8
MY3DLAYER
10
0.08654840122581753
20
49.0225996254396
30
0.0
 70
     32
  0
SEQEND
  0
POLYLINE
 8
Layer0
 66
     1
70
    8
 10
0.0
 20
 0.0
 30
0.0
  0
VERTEX
  8
MY3DLAYER
10
47.22654840122577
20
49.0225996254396
30
0.0
 70
     32
  0
VERTEX
  8
MY3DLAYER
10
47.13999999999995
20
49.67999999999994
30
0.0
 70
     32
  0
VERTEX
  8
MY3DLAYER
10
47.13999999999995
20
58.67999999999997
30
0.0
 70
     32
  0
VERTEX
  8
MY3DLAYER
10
47.22654840122577
20
59.33740037456032
30
0.0
 70
     32
  0
VERTEX
  8
MY3DLAYER
10
47.480295474387525
20
59.9499999999999
30
0.0
 70
     32
  0
VERTEX
  8
MY3DLAYER
10
47.883948775786166
20
60.4760512242138
30
0.0
 70
     32
  0
VERTEX
  8
MY3DLAYER
10
48.41000000000002
20
60.87970452561235
30
0.0
 70
     32
  0
VERTEX
  8
MY3DLAYER
10
49.0225996254396
20
61.133451598774144
30
0.0
 70
     32
  0
VERTEX
  8
MY3DLAYER
10
49.67999999999999
20
61.21999999999992
30
0.0
 70
     32
  0
VERTEX
  8
MY3DLAYER
10
50.337400374560424
20
61.133451598774144
30
0.0
 70
     32
  0
VERTEX
  8
MY3DLAYER
10
50.95000000000001
20
60.87970452561235
30
0.0
 70
     32
  0
VERTEX
  8
MY3DLAYER
10
51.47605122421382
20
60.4760512242138
30
0.0
 70
     32
  0
VERTEX
  8
MY3DLAYER
10
51.879704525612496
20
59.9499999999999
30
0.0
 70
     32
  0
VERTEX
  8
MY3DLAYER
10
52.13345159877425
20
59.33740037456032
30
0.0
 70
     32
  0
VERTEX
  8
MY3DLAYER
10
52.22000000000003
20
58.67999999999997
30
0.0
 70
     32
  0
VERTEX
  8
MY3DLAYER
10
52.22000000000003
20
49.67999999999994
30
0.0
 70
     32
  0
VERTEX
  8
MY3DLAYER
10
52.13345159877425
20
49.02259962543951
30
0.0
 70
     32
  0
VERTEX
  8
MY3DLAYER
10
51.879704525612496
20
48.409999999999926
30
0.0
 70
     32
  0
VERTEX
  8
MY3DLAYER
10
51.47605122421382
20
47.883948775786116
30
0.0
 70
     32
  0
VERTEX
  8
MY3DLAYER
10
50.95000000000001
20
47.48029547438748
30
0.0
 70
     32
  0
VERTEX
  8
MY3DLAYER
10
50.33740037456038
20
47.22654840122573
30
0.0
 70
     32
  0
VERTEX
  8
MY3DLAYER
10
49.67999999999999
20
47.13999999999995
30
0.0
 70
     32
  0
VERTEX
  8
MY3DLAYER
10
49.0225996254396
20
47.22654840122573
30
0.0
 70
     32
  0
VERTEX
  8
MY3DLAYER
10
48.41000000000002
20
47.48029547438748
30
0.0
 70
     32
  0
VERTEX
  8
MY3DLAYER
10
47.883948775786166
20
47.883948775786116
30
0.0
 70
     32
  0
VERTEX
  8
MY3DLAYER
10
47.480295474387525
20
48.409999999999975
30
0.0
 70
     32
  0
VERTEX
  8
MY3DLAYER
10
47.22654840122577
20
49.0225996254396
30
0.0
 70
     32
  0
SEQEND
  0
POLYLINE
 8
Layer0
 66
     1
70
    8
 10
0.0
 20
 0.0
 30
0.0
  0
VERTEX
  8
MY3DLAYER
10
38.18407282861342
20
38.845238063781444
30
0.0
 70
     32
  0
VERTEX
  8
MY3DLAYER
10
38.60999999999999
20
35.60999999999995
30
0.0
 70
     32
  0
VERTEX
  8
MY3DLAYER
10
38.60999999999994
20
25.609999999999946
30
0.0
 70
     32
  0
VERTEX
  8
MY3DLAYER
10
38.18407282861342
20
22.374761936218405
30
0.0
 70
     32
  0
VERTEX
  8
MY3DLAYER
10
36.935317547305615
20
19.359999999999857
30
0.0
 70
     32
  0
VERTEX
  8
MY3DLAYER
10
34.94883476483188
20
16.7711652351681
30
0.0
 70
     32
  0
VERTEX
  8
MY3DLAYER
10
32.35999999999997
20
14.784682452694504
30
0.0
 70
     32
  0
VERTEX
  8
MY3DLAYER
10
29.345238063781395
20
13.535927171386563
30
0.0
 70
     32
  0
VERTEX
  8
MY3DLAYER
10
26.110000000000127
20
13.109999999999925
30
0.0
 70
     32
  0
VERTEX
  8
MY3DLAYER
10
22.874761936218587
20
13.535927171386698
30
0.0
 70
     32
  0
VERTEX
  8
MY3DLAYER
10
19.85999999999992
20
14.784682452694414
30
0.0
 70
     32
  0
VERTEX
  8
MY3DLAYER
10
17.271165235168056
20
16.771165235168194
30
0.0
 70
     32
  0
VERTEX
  8
MY3DLAYER
10
15.28468245269464
20
19.360000000000035
30
0.0
 70
     32
  0
VERTEX
  8
MY3DLAYER
10
14.035927171386742
20
22.374761936218565
30
0.0
 70
     32
  0
VERTEX
  8
MY3DLAYER
10
13.60999999999999
20
25.609999999999946
30
0.0
 70
     32
  0
VERTEX
  8
MY3DLAYER
10
13.610000000000037
20
35.60999999999995
30
0.0
 70
     32
  0
VERTEX
  8
MY3DLAYER
10
14.035927171386698
20
38.845238063781494
30
0.0
 70
     32
  0
VERTEX
  8
MY3DLAYER
10
15.284682452694549
20
41.85999999999999
30
0.0
 70
     32
  0
VERTEX
  8
MY3DLAYER
10
17.27116523516819
20
44.448834764831815
30
0.0
 70
     32
  0
VERTEX
  8
MY3DLAYER
10
19.86000000000006
20
46.43531754730546
30
0.0
 70
     32
  0
VERTEX
  8
MY3DLAYER
10
22.87476193621854
20
47.68407282861333
30
0.0
 70
     32
  0
VERTEX
  8
MY3DLAYER
10
26.11000000000008
20
48.10999999999995
30
0.0
 70
     32
  0
VERTEX
  8
MY3DLAYER
10
29.34523806378153
20
47.68407282861329
30
0.0
 70
     32
  0
VERTEX
  8
MY3DLAYER
10
32.360000000000056
20
46.43531754730544
30
0.0
 70
     32
  0
VERTEX
  8
MY3DLAYER
10
34.94883476483188
20
44.448834764831794
30
0.0
 70
     32
  0
VERTEX
  8
MY3DLAYER
10
36.93531754730552
20
41.85999999999995
30
0.0
 70
     32
  0
VERTEX
  8
MY3DLAYER
10
38.18407282861342
20
38.845238063781444
30
0.0
 70
     32
  0
SEQEND
  0
POLYLINE
 8
Layer0
 66
     1
70
    8
 10
0.0
 20
 0.0
 30
0.0
  0
VERTEX
  8
MY3DLAYER
10
52.13345159877425
20
12.197400374560388
30
0.0
 70
     32
  0
VERTEX
  8
MY3DLAYER
10
52.22000000000003
20
11.539999999999974
30
0.0
 70
     32
  0
VERTEX
  8
MY3DLAYER
10
52.22000000000003
20
2.5399999999999907
30
0.0
 70
     32
  0
VERTEX
  8
MY3DLAYER
10
52.13345159877425
20
1.882599625439577
30
0.0
 70
     32
  0
VERTEX
  8
MY3DLAYER
10
51.879704525612496
20
1.269999999999973
30
0.0
 70
     32
  0
VERTEX
  8
MY3DLAYER
10
51.47605122421382
20
0.7439487757861412
30
0.0
 70
     32
  0
VERTEX
  8
MY3DLAYER
10
50.95000000000001
20
0.3402954743875062
30
0.0
 70
     32
  0
VERTEX
  8
MY3DLAYER
10
50.33740037456038
20
0.08654840122574985
30
0.0
 70
     32
  0
VERTEX
  8
MY3DLAYER
10
49.67999999999999
20
0.0
30
0.0
 70
     32
  0
VERTEX
  8
MY3DLAYER
10
49.0225996254396
20
0.08654840122574985
30
0.0
 70
     32
  0
VERTEX
  8
MY3DLAYER
10
48.41000000000002
20
0.3402954743875062
30
0.0
 70
     32
  0
VERTEX
  8
MY3DLAYER
10
47.883948775786166
20
0.7439487757861638
30
0.0
 70
     32
  0
VERTEX
  8
MY3DLAYER
10
47.480295474387525
20
1.2699999999999954
30
0.0
 70
     32
  0
VERTEX
  8
MY3DLAYER
10
47.22654840122577
20
1.8825996254395996
30
0.0
 70
     32
  0
VERTEX
  8
MY3DLAYER
10
47.13999999999995
20
2.5399999999999907
30
0.0
 70
     32
  0
VERTEX
  8
MY3DLAYER
10
47.13999999999995
20
11.539999999999974
30
0.0
 70
     32
  0
VERTEX
  8
MY3DLAYER
10
47.22654840122577
20
12.197400374560388
30
0.0
 70
     32
  0
VERTEX
  8
MY3DLAYER
10
47.480295474387525
20
12.809999999999992
30
0.0
 70
     32
  0
VERTEX
  8
MY3DLAYER
10
47.883948775786166
20
13.336051224213824
30
0.0
 70
     32
  0
VERTEX
  8
MY3DLAYER
10
48.41000000000002
20
13.739704525612458
30
0.0
 70
     32
  0
VERTEX
  8
MY3DLAYER
10
49.0225996254396
20
13.993451598774193
30
0.0
 70
     32
  0
VERTEX
  8
MY3DLAYER
10
49.67999999999999
20
14.079999999999965
30
0.0
 70
     32
  0
VERTEX
  8
MY3DLAYER
10
50.337400374560424
20
13.993451598774193
30
0.0
 70
     32
  0
VERTEX
  8
MY3DLAYER
10
50.95000000000001
20
13.739704525612458
30
0.0
 70
     32
  0
VERTEX
  8
MY3DLAYER
10
51.47605122421382
20
13.336051224213824
30
0.0
 70
     32
  0
VERTEX
  8
MY3DLAYER
10
51.879704525612496
20
12.809999999999992
30
0.0
 70
     32
  0
VERTEX
  8
MY3DLAYER
10
52.13345159877425
20
12.197400374560388
30
0.0
 70
     32
  0
SEQEND
  0
POLYLINE
 8
Layer0
 66
     1
70
    8
 10
0.0
 20
 0.0
 30
0.0
  0
VERTEX
  8
MY3DLAYER
10
0.08654840122581753
20
1.8825996254395996
30
0.0
 70
     32
  0
VERTEX
  8
MY3DLAYER
10
0.0
20
2.5399999999999907
30
0.0
 70
     32
  0
VERTEX
  8
MY3DLAYER
10
0.0
20
11.539999999999974
30
0.0
 70
     32
  0
VERTEX
  8
MY3DLAYER
10
0.08654840122581753
20
12.197400374560388
30
0.0
 70
     32
  0
VERTEX
  8
MY3DLAYER
10
0.3402954743875288
20
12.809999999999992
30
0.0
 70
     32
  0
VERTEX
  8
MY3DLAYER
10
0.7439487757861638
20
13.336051224213824
30
0.0
 70
     32
  0
VERTEX
  8
MY3DLAYER
10
1.269999999999973
20
13.739704525612458
30
0.0
 70
     32
  0
VERTEX
  8
MY3DLAYER
10
1.8825996254395996
20
13.993451598774193
30
0.0
 70
     32
  0
VERTEX
  8
MY3DLAYER
10
2.540000000000036
20
14.079999999999965
30
0.0
 70
     32
  0
VERTEX
  8
MY3DLAYER
10
3.197400374560427
20
13.993451598774193
30
0.0
 70
     32
  0
VERTEX
  8
MY3DLAYER
10
3.810000000000009
20
13.739704525612458
30
0.0
 70
     32
  0
VERTEX
  8
MY3DLAYER
10
4.336051224213863
20
13.336051224213824
30
0.0
 70
     32
  0
VERTEX
  8
MY3DLAYER
10
4.739704525612453
20
12.809999999999992
30
0.0
 70
     32
  0
VERTEX
  8
MY3DLAYER
10
4.9934515987742545
20
12.197400374560388
30
0.0
 70
     32
  0
VERTEX
  8
MY3DLAYER
10
5.080000000000027
20
11.539999999999974
30
0.0
 70
     32
  0
VERTEX
  8
MY3DLAYER
10
5.080000000000027
20
2.5399999999999907
30
0.0
 70
     32
  0
VERTEX
  8
MY3DLAYER
10
4.9934515987742545
20
1.882599625439577
30
0.0
 70
     32
  0
VERTEX
  8
MY3DLAYER
10
4.739704525612453
20
1.269999999999973
30
0.0
 70
     32
  0
VERTEX
  8
MY3DLAYER
10
4.336051224213863
20
0.7439487757861412
30
0.0
 70
     32
  0
VERTEX
  8
MY3DLAYER
10
3.810000000000009
20
0.3402954743875062
30
0.0
 70
     32
  0
VERTEX
  8
MY3DLAYER
10
3.197400374560427
20
0.08654840122574985
30
0.0
 70
     32
  0
VERTEX
  8
MY3DLAYER
10
2.540000000000036
20
0.0
30
0.0
 70
     32
  0
VERTEX
  8
MY3DLAYER
10
1.8825996254395996
20
0.08654840122574985
30
0.0
 70
     32
  0
VERTEX
  8
MY3DLAYER
10
1.269999999999973
20
0.3402954743875062
30
0.0
 70
     32
  0
VERTEX
  8
MY3DLAYER
10
0.7439487757861638
20
0.7439487757861638
30
0.0
 70
     32
  0
VERTEX
  8
MY3DLAYER
10
0.3402954743875288
20
1.2699999999999954
30
0.0
 70
     32
  0
VERTEX
  8
MY3DLAYER
10
0.08654840122581753
20
1.8825996254395996
30
0.0
 70
     32
  0
SEQEND
 0
ENDSEC
 0
EOF
