 0
SECTION
 2
ENTITIES
  0
POLYLINE
 8
Layer0
 66
     1
70
    8
 10
0.0
 20
 0.0
 30
0.0
  0
VERTEX
  8
MY3DLAYER
10
12.514718625761432
20
29.485281374238575
30
0.0
 70
     32
  0
VERTEX
  8
MY3DLAYER
10
15.000000000000004
20
31.392304845413264
30
0.0
 70
     32
  0
VERTEX
  8
MY3DLAYER
10
17.894171458769755
20
32.59110991546882
30
0.0
 70
     32
  0
VERTEX
  8
MY3DLAYER
10
21.0
20
33.0
30
0.0
 70
     32
  0
VERTEX
  8
MY3DLAYER
10
24.105828541230252
20
32.59110991546882
30
0.0
 70
     32
  0
VERTEX
  8
MY3DLAYER
10
27.0
20
31.392304845413264
30
0.0
 70
     32
  0
VERTEX
  8
MY3DLAYER
10
29.48528137423857
20
29.485281374238575
30
0.0
 70
     32
  0
VERTEX
  8
MY3DLAYER
10
31.392304845413264
20
27.0
30
0.0
 70
     32
  0
VERTEX
  8
MY3DLAYER
10
32.59110991546882
20
24.10582854123025
30
0.0
 70
     32
  0
VERTEX
  8
MY3DLAYER
10
33.0
20
21.0
30
0.0
 70
     32
  0
VERTEX
  8
MY3DLAYER
10
32.59110991546881
20
17.89417145876974
30
0.0
 70
     32
  0
VERTEX
  8
MY3DLAYER
10
31.39230484541326
20
14.999999999999995
30
0.0
 70
     32
  0
VERTEX
  8
MY3DLAYER
10
29.48528137423857
20
12.514718625761429
30
0.0
 70
     32
  0
VERTEX
  8
MY3DLAYER
10
26.99999999999999
20
10.607695154586732
30
0.0
 70
     32
  0
VERTEX
  8
MY3DLAYER
10
24.10582854123024
20
9.40889008453118
30
0.0
 70
     32
  0
VERTEX
  8
MY3DLAYER
10
20.999999999999996
20
9.0
30
0.0
 70
     32
  0
VERTEX
  8
MY3DLAYER
10
17.89417145876974
20
9.408890084531183
30
0.0
 70
     32
  0
VERTEX
  8
MY3DLAYER
10
14.999999999999995
20
10.60769515458674
30
0.0
 70
     32
  0
VERTEX
  8
MY3DLAYER
10
12.514718625761427
20
12.514718625761436
30
0.0
 70
     32
  0
VERTEX
  8
MY3DLAYER
10
10.607695154586736
20
15.000000000000004
30
0.0
 70
     32
  0
VERTEX
  8
MY3DLAYER
10
9.408890084531182
20
17.894171458769755
30
0.0
 70
     32
  0
VERTEX
  8
MY3DLAYER
10
9.000000000000002
20
21.000000000000004
30
0.0
 70
     32
  0
VERTEX
  8
MY3DLAYER
10
9.408890084531183
20
24.105828541230256
30
0.0
 70
     32
  0
VERTEX
  8
MY3DLAYER
10
10.60769515458674
20
27.000000000000007
30
0.0
 70
     32
  0
VERTEX
  8
MY3DLAYER
10
12.514718625761432
20
29.485281374238575
30
0.0
 70
     32
  0
SEQEND
  0
POLYLINE
 8
Layer0
 66
     1
70
    8
 10
0.0
 20
 0.0
 30
0.0
  0
VERTEX
  8
MY3DLAYER
10
3.7000000000000046
20
5.500000000000001
30
0.0
 70
     32
  0
VERTEX
  8
MY3DLAYER
10
3.761333512679682
20
5.965874281184538
30
0.0
 70
     32
  0
VERTEX
  8
MY3DLAYER
10
3.9411542731880154
20
6.400000000000001
30
0.0
 70
     32
  0
VERTEX
  8
MY3DLAYER
10
4.227207793864219
20
6.772792206135787
30
0.0
 70
     32
  0
VERTEX
  8
MY3DLAYER
10
4.600000000000004
20
7.058845726811991
30
0.0
 70
     32
  0
VERTEX
  8
MY3DLAYER
10
5.034125718815467
20
7.238666487320324
30
0.0
 70
     32
  0
VERTEX
  8
MY3DLAYER
10
5.500000000000004
20
7.300000000000001
30
0.0
 70
     32
  0
VERTEX
  8
MY3DLAYER
10
5.965874281184542
20
7.238666487320324
30
0.0
 70
     32
  0
VERTEX
  8
MY3DLAYER
10
6.400000000000004
20
7.05884572681199
30
0.0
 70
     32
  0
VERTEX
  8
MY3DLAYER
10
6.772792206135789
20
6.772792206135787
30
0.0
 70
     32
  0
VERTEX
  8
MY3DLAYER
10
7.058845726811994
20
6.400000000000001
30
0.0
 70
     32
  0
VERTEX
  8
MY3DLAYER
10
7.238666487320327
20
5.965874281184538
30
0.0
 70
     32
  0
VERTEX
  8
MY3DLAYER
10
7.300000000000003
20
5.500000000000001
30
0.0
 70
     32
  0
VERTEX
  8
MY3DLAYER
10
7.238666487320327
20
5.034125718815463
30
0.0
 70
     32
  0
VERTEX
  8
MY3DLAYER
10
7.058845726811993
20
4.6000000000000005
30
0.0
 70
     32
  0
VERTEX
  8
MY3DLAYER
10
6.772792206135788
20
4.227207793864215
30
0.0
 70
     32
  0
VERTEX
  8
MY3DLAYER
10
6.400000000000002
20
3.9411542731880114
30
0.0
 70
     32
  0
VERTEX
  8
MY3DLAYER
10
5.965874281184541
20
3.7613335126796783
30
0.0
 70
     32
  0
VERTEX
  8
MY3DLAYER
10
5.500000000000004
20
3.7000000000000015
30
0.0
 70
     32
  0
VERTEX
  8
MY3DLAYER
10
5.034125718815465
20
3.761333512679679
30
0.0
 70
     32
  0
VERTEX
  8
MY3DLAYER
10
4.600000000000003
20
3.9411542731880127
30
0.0
 70
     32
  0
VERTEX
  8
MY3DLAYER
10
4.227207793864219
20
4.227207793864217
30
0.0
 70
     32
  0
VERTEX
  8
MY3DLAYER
10
3.941154273188015
20
4.600000000000002
30
0.0
 70
     32
  0
VERTEX
  8
MY3DLAYER
10
3.761333512679681
20
5.0341257188154644
30
0.0
 70
     32
  0
VERTEX
  8
MY3DLAYER
10
3.7000000000000046
20
5.500000000000001
30
0.0
 70
     32
  0
SEQEND
  0
POLYLINE
 8
Layer0
 66
     1
70
    8
 10
0.0
 20
 0.0
 30
0.0
  0
VERTEX
  8
MY3DLAYER
10
36.5
20
38.3
30
0.0
 70
     32
  0
VERTEX
  8
MY3DLAYER
10
36.96587428118454
20
38.238666487320316
30
0.0
 70
     32
  0
VERTEX
  8
MY3DLAYER
10
37.4
20
38.05884572681199
30
0.0
 70
     32
  0
VERTEX
  8
MY3DLAYER
10
37.77279220613578
20
37.77279220613578
30
0.0
 70
     32
  0
VERTEX
  8
MY3DLAYER
10
38.05884572681199
20
37.4
30
0.0
 70
     32
  0
VERTEX
  8
MY3DLAYER
10
38.23866648732032
20
36.96587428118453
30
0.0
 70
     32
  0
VERTEX
  8
MY3DLAYER
10
38.3
20
36.5
30
0.0
 70
     32
  0
VERTEX
  8
MY3DLAYER
10
38.238666487320316
20
36.03412571881546
30
0.0
 70
     32
  0
VERTEX
  8
MY3DLAYER
10
38.05884572681199
20
35.6
30
0.0
 70
     32
  0
VERTEX
  8
MY3DLAYER
10
37.77279220613578
20
35.22720779386422
30
0.0
 70
     32
  0
VERTEX
  8
MY3DLAYER
10
37.4
20
34.94115427318801
30
0.0
 70
     32
  0
VERTEX
  8
MY3DLAYER
10
36.96587428118454
20
34.761333512679684
30
0.0
 70
     32
  0
VERTEX
  8
MY3DLAYER
10
36.5
20
34.7
30
0.0
 70
     32
  0
VERTEX
  8
MY3DLAYER
10
36.03412571881546
20
34.761333512679684
30
0.0
 70
     32
  0
VERTEX
  8
MY3DLAYER
10
35.6
20
34.94115427318801
30
0.0
 70
     32
  0
VERTEX
  8
MY3DLAYER
10
35.22720779386422
20
35.22720779386422
30
0.0
 70
     32
  0
VERTEX
  8
MY3DLAYER
10
34.94115427318801
20
35.6
30
0.0
 70
     32
  0
VERTEX
  8
MY3DLAYER
10
34.761333512679684
20
36.03412571881546
30
0.0
 70
     32
  0
VERTEX
  8
MY3DLAYER
10
34.7
20
36.5
30
0.0
 70
     32
  0
VERTEX
  8
MY3DLAYER
10
34.761333512679684
20
36.96587428118454
30
0.0
 70
     32
  0
VERTEX
  8
MY3DLAYER
10
34.94115427318801
20
37.4
30
0.0
 70
     32
  0
VERTEX
  8
MY3DLAYER
10
35.22720779386422
20
37.77279220613578
30
0.0
 70
     32
  0
VERTEX
  8
MY3DLAYER
10
35.6
20
38.05884572681199
30
0.0
 70
     32
  0
VERTEX
  8
MY3DLAYER
10
36.03412571881547
20
38.23866648732032
30
0.0
 70
     32
  0
VERTEX
  8
MY3DLAYER
10
36.5
20
38.3
30
0.0
 70
     32
  0
SEQEND
  0
POLYLINE
 8
Layer0
 66
     1
70
    8
 10
0.0
 20
 0.0
 30
0.0
  0
VERTEX
  8
MY3DLAYER
10
6.772792206135788
20
35.22720779386422
30
0.0
 70
     32
  0
VERTEX
  8
MY3DLAYER
10
6.400000000000002
20
34.94115427318801
30
0.0
 70
     32
  0
VERTEX
  8
MY3DLAYER
10
5.965874281184541
20
34.76133351267968
30
0.0
 70
     32
  0
VERTEX
  8
MY3DLAYER
10
5.500000000000004
20
34.7
30
0.0
 70
     32
  0
VERTEX
  8
MY3DLAYER
10
5.034125718815465
20
34.76133351267968
30
0.0
 70
     32
  0
VERTEX
  8
MY3DLAYER
10
4.600000000000003
20
34.94115427318801
30
0.0
 70
     32
  0
VERTEX
  8
MY3DLAYER
10
4.227207793864219
20
35.22720779386422
30
0.0
 70
     32
  0
VERTEX
  8
MY3DLAYER
10
3.941154273188015
20
35.6
30
0.0
 70
     32
  0
VERTEX
  8
MY3DLAYER
10
3.761333512679681
20
36.03412571881546
30
0.0
 70
     32
  0
VERTEX
  8
MY3DLAYER
10
3.7000000000000046
20
36.5
30
0.0
 70
     32
  0
VERTEX
  8
MY3DLAYER
10
3.761333512679682
20
36.96587428118454
30
0.0
 70
     32
  0
VERTEX
  8
MY3DLAYER
10
3.9411542731880154
20
37.4
30
0.0
 70
     32
  0
VERTEX
  8
MY3DLAYER
10
4.227207793864219
20
37.77279220613578
30
0.0
 70
     32
  0
VERTEX
  8
MY3DLAYER
10
4.600000000000004
20
38.05884572681199
30
0.0
 70
     32
  0
VERTEX
  8
MY3DLAYER
10
5.034125718815467
20
38.23866648732032
30
0.0
 70
     32
  0
VERTEX
  8
MY3DLAYER
10
5.500000000000004
20
38.3
30
0.0
 70
     32
  0
VERTEX
  8
MY3DLAYER
10
5.965874281184542
20
38.23866648732032
30
0.0
 70
     32
  0
VERTEX
  8
MY3DLAYER
10
6.400000000000004
20
38.05884572681199
30
0.0
 70
     32
  0
VERTEX
  8
MY3DLAYER
10
6.772792206135789
20
37.77279220613578
30
0.0
 70
     32
  0
VERTEX
  8
MY3DLAYER
10
7.058845726811994
20
37.4
30
0.0
 70
     32
  0
VERTEX
  8
MY3DLAYER
10
7.238666487320327
20
36.96587428118454
30
0.0
 70
     32
  0
VERTEX
  8
MY3DLAYER
10
7.300000000000003
20
36.5
30
0.0
 70
     32
  0
VERTEX
  8
MY3DLAYER
10
7.238666487320327
20
36.03412571881546
30
0.0
 70
     32
  0
VERTEX
  8
MY3DLAYER
10
7.058845726811993
20
35.6
30
0.0
 70
     32
  0
VERTEX
  8
MY3DLAYER
10
6.772792206135788
20
35.22720779386422
30
0.0
 70
     32
  0
SEQEND
  0
POLYLINE
 8
Layer0
 66
     1
70
    8
 10
0.0
 20
 0.0
 30
0.0
  0
VERTEX
  8
MY3DLAYER
10
35.22720779386422
20
4.227207793864214
30
0.0
 70
     32
  0
VERTEX
  8
MY3DLAYER
10
34.941154273188005
20
4.6
30
0.0
 70
     32
  0
VERTEX
  8
MY3DLAYER
10
34.76133351267968
20
5.034125718815464
30
0.0
 70
     32
  0
VERTEX
  8
MY3DLAYER
10
34.699999999999996
20
5.500000000000001
30
0.0
 70
     32
  0
VERTEX
  8
MY3DLAYER
10
34.76133351267968
20
5.965874281184541
30
0.0
 70
     32
  0
VERTEX
  8
MY3DLAYER
10
34.941154273188005
20
6.400000000000004
30
0.0
 70
     32
  0
VERTEX
  8
MY3DLAYER
10
35.22720779386422
20
6.772792206135788
30
0.0
 70
     32
  0
VERTEX
  8
MY3DLAYER
10
35.6
20
7.058845726811994
30
0.0
 70
     32
  0
VERTEX
  8
MY3DLAYER
10
36.03412571881546
20
7.238666487320327
30
0.0
 70
     32
  0
VERTEX
  8
MY3DLAYER
10
36.5
20
7.300000000000003
30
0.0
 70
     32
  0
VERTEX
  8
MY3DLAYER
10
36.96587428118454
20
7.238666487320326
30
0.0
 70
     32
  0
VERTEX
  8
MY3DLAYER
10
37.400000000000006
20
7.058845726811993
30
0.0
 70
     32
  0
VERTEX
  8
MY3DLAYER
10
37.77279220613579
20
6.772792206135788
30
0.0
 70
     32
  0
VERTEX
  8
MY3DLAYER
10
38.058845726811995
20
6.400000000000002
30
0.0
 70
     32
  0
VERTEX
  8
MY3DLAYER
10
38.23866648732032
20
5.965874281184538
30
0.0
 70
     32
  0
VERTEX
  8
MY3DLAYER
10
38.300000000000004
20
5.500000000000001
30
0.0
 70
     32
  0
VERTEX
  8
MY3DLAYER
10
38.23866648732032
20
5.034125718815463
30
0.0
 70
     32
  0
VERTEX
  8
MY3DLAYER
10
38.058845726811995
20
4.6
30
0.0
 70
     32
  0
VERTEX
  8
MY3DLAYER
10
37.77279220613578
20
4.227207793864214
30
0.0
 70
     32
  0
VERTEX
  8
MY3DLAYER
10
37.4
20
3.94115427318801
30
0.0
 70
     32
  0
VERTEX
  8
MY3DLAYER
10
36.96587428118454
20
3.7613335126796756
30
0.0
 70
     32
  0
VERTEX
  8
MY3DLAYER
10
36.5
20
3.699999999999999
30
0.0
 70
     32
  0
VERTEX
  8
MY3DLAYER
10
36.03412571881546
20
3.761333512679676
30
0.0
 70
     32
  0
VERTEX
  8
MY3DLAYER
10
35.6
20
3.94115427318801
30
0.0
 70
     32
  0
VERTEX
  8
MY3DLAYER
10
35.22720779386422
20
4.227207793864214
30
0.0
 70
     32
  0
SEQEND
 0
ENDSEC
 0
EOF
