<?xml version="1.0"?>
<svg 
  xmlns="http://www.w3.org/2000/svg" 
  xmlns:xlink="http://www.w3.org/1999/xlink" version="1.1" preserveAspectRatio="xMinYMin meet" viewBox="0 -61.21999999999992 52.22000000000003 61.21999999999992" width="100%" height="100%">
  <path fill="none" stroke="#000000" stroke-width="1%" d="M0.08654840122581753,-49.0225996254396L0,-49.67999999999994L0,-58.67999999999997L0.08654840122581753,-59.33740037456032L0.3402954743875288,-59.9499999999999L0.7439487757861638,-60.4760512242138L1.269999999999973,-60.87970452561235L1.8825996254395996,-61.133451598774144L2.540000000000036,-61.21999999999992L3.197400374560427,-61.133451598774144L3.810000000000009,-60.87970452561235L4.336051224213863,-60.4760512242138L4.739704525612453,-59.9499999999999L4.9934515987742545,-59.33740037456032L5.080000000000027,-58.67999999999997L5.080000000000027,-49.67999999999994L4.9934515987742545,-49.02259962543951L4.739704525612453,-48.409999999999926L4.336051224213863,-47.883948775786116L3.810000000000009,-47.48029547438748L3.197400374560427,-47.22654840122573L2.540000000000036,-47.13999999999995L1.8825996254395996,-47.22654840122573L1.269999999999973,-47.48029547438748L0.7439487757861638,-47.883948775786116L0.3402954743875288,-48.409999999999975L0.08654840122581753,-49.0225996254396"/>
  <path fill="none" stroke="#000000" stroke-width="1%" d="M47.22654840122577,-49.0225996254396L47.13999999999995,-49.67999999999994L47.13999999999995,-58.67999999999997L47.22654840122577,-59.33740037456032L47.480295474387525,-59.9499999999999L47.883948775786166,-60.4760512242138L48.41000000000002,-60.87970452561235L49.0225996254396,-61.133451598774144L49.67999999999999,-61.21999999999992L50.337400374560424,-61.133451598774144L50.95000000000001,-60.87970452561235L51.47605122421382,-60.4760512242138L51.879704525612496,-59.9499999999999L52.13345159877425,-59.33740037456032L52.22000000000003,-58.67999999999997L52.22000000000003,-49.67999999999994L52.13345159877425,-49.02259962543951L51.879704525612496,-48.409999999999926L51.47605122421382,-47.883948775786116L50.95000000000001,-47.48029547438748L50.33740037456038,-47.22654840122573L49.67999999999999,-47.13999999999995L49.0225996254396,-47.22654840122573L48.41000000000002,-47.48029547438748L47.883948775786166,-47.883948775786116L47.480295474387525,-48.409999999999975L47.22654840122577,-49.0225996254396"/>
  <path fill="none" stroke="#000000" stroke-width="1%" d="M38.18407282861342,-38.845238063781444L38.60999999999999,-35.60999999999995L38.60999999999994,-25.609999999999946L38.18407282861342,-22.374761936218405L36.935317547305615,-19.359999999999857L34.94883476483188,-16.7711652351681L32.35999999999997,-14.784682452694504L29.345238063781395,-13.535927171386563L26.110000000000127,-13.109999999999925L22.874761936218587,-13.535927171386698L19.85999999999992,-14.784682452694414L17.271165235168056,-16.771165235168194L15.28468245269464,-19.360000000000035L14.035927171386742,-22.374761936218565L13.60999999999999,-25.609999999999946L13.610000000000037,-35.60999999999995L14.035927171386698,-38.845238063781494L15.284682452694549,-41.85999999999999L17.27116523516819,-44.448834764831815L19.86000000000006,-46.43531754730546L22.87476193621854,-47.68407282861333L26.11000000000008,-48.10999999999995L29.34523806378153,-47.68407282861329L32.360000000000056,-46.43531754730544L34.94883476483188,-44.448834764831794L36.93531754730552,-41.85999999999995L38.18407282861342,-38.845238063781444"/>
  <path fill="none" stroke="#000000" stroke-width="1%" d="M52.13345159877425,-12.197400374560388L52.22000000000003,-11.539999999999974L52.22000000000003,-2.5399999999999907L52.13345159877425,-1.882599625439577L51.879704525612496,-1.269999999999973L51.47605122421382,-0.7439487757861412L50.95000000000001,-0.3402954743875062L50.33740037456038,-0.08654840122574985L49.67999999999999,0L49.0225996254396,-0.08654840122574985L48.41000000000002,-0.3402954743875062L47.883948775786166,-0.7439487757861638L47.480295474387525,-1.2699999999999954L47.22654840122577,-1.8825996254395996L47.13999999999995,-2.5399999999999907L47.13999999999995,-11.539999999999974L47.22654840122577,-12.197400374560388L47.480295474387525,-12.809999999999992L47.883948775786166,-13.336051224213824L48.41000000000002,-13.739704525612458L49.0225996254396,-13.993451598774193L49.67999999999999,-14.079999999999965L50.337400374560424,-13.993451598774193L50.95000000000001,-13.739704525612458L51.47605122421382,-13.336051224213824L51.879704525612496,-12.809999999999992L52.13345159877425,-12.197400374560388"/>
  <path fill="none" stroke="#000000" stroke-width="1%" d="M0.08654840122581753,-1.8825996254395996L0,-2.5399999999999907L0,-11.539999999999974L0.08654840122581753,-12.197400374560388L0.3402954743875288,-12.809999999999992L0.7439487757861638,-13.336051224213824L1.269999999999973,-13.739704525612458L1.8825996254395996,-13.993451598774193L2.540000000000036,-14.079999999999965L3.197400374560427,-13.993451598774193L3.810000000000009,-13.739704525612458L4.336051224213863,-13.336051224213824L4.739704525612453,-12.809999999999992L4.9934515987742545,-12.197400374560388L5.080000000000027,-11.539999999999974L5.080000000000027,-2.5399999999999907L4.9934515987742545,-1.882599625439577L4.739704525612453,-1.269999999999973L4.336051224213863,-0.7439487757861412L3.810000000000009,-0.3402954743875062L3.197400374560427,-0.08654840122574985L2.540000000000036,0L1.8825996254395996,-0.08654840122574985L1.269999999999973,-0.3402954743875062L0.7439487757861638,-0.7439487757861638L0.3402954743875288,-1.2699999999999954L0.08654840122581753,-1.8825996254395996"/>
</svg>