999
DXF generated by JSCAD
  0
SECTION
  2
HEADER
  9
$ACADVER
  1
AC1027
  9
$ACADMAINTVER
 70
8
  9
$DWGCODEPAGE
  3
ANSI_1252
  9
$LASTSAVEDBY
  1
unknown
  9
$REQUIREDVERSIONS
160
0
  9
$INSBASE
 10
0.0
 20
0.0
 30
0.0
  9
$EXTMIN
 10
1e+20
 20
1e+20
 30
1e+20
  9
$EXTMAX
 10
-1e+20
 20
-1e+20
 30
-1e+20
  9
$LIMMIN
 10
0.0
 20
0.0
  9
$LIMMAX
 10
12.0
 20
9.0
  9
$ORTHOMODE
 70
0
  9
$REGENMODE
 70
1
  9
$FILLMODE
 70
1
  9
$QTEXTMODE
 70
0
  9
$MIRRTEXT
 70
0
  9
$LTSCALE
 40
1.0
  9
$ATTMODE
 70
1
  9
$TEXTSIZE
 40
0.2
  9
$TRACEWID
 40
0.05
  9
$TEXTSTYLE
  7
Notes
  9
$CLAYER
  8
0
  9
$CELTYPE
  6
ByLayer
  9
$CECOLOR
 62
256
  9
$CELTSCALE
 40
1.0
  9
$DISPSILH
 70
0
  9
$DIMSCALE
 40
1.0
  9
$DIMASZ
 40
3.0
  9
$DIMEXO
 40
1.5
  9
$DIMDLI
 40
6.0
  9
$DIMRND
 40
0.0
  9
$DIMDLE
 40
0.0
  9
$DIMEXE
 40
3.0
  9
$DIMTP
 40
0.0
  9
$DIMTM
 40
0.0
  9
$DIMTXT
 40
3.0
  9
$DIMCEN
 40
3.0
  9
$DIMTSZ
 40
0.0
  9
$DIMTOL
 70
0
  9
$DIMLIM
 70
0
  9
$DIMTIH
 70
0
  9
$DIMTOH
 70
0
  9
$DIMSE1
 70
0
  9
$DIMSE2
 70
0
  9
$DIMTAD
 70
1
  9
$DIMZIN
 70
3
  9
$DIMBLK
  1

  9
$DIMASO
 70
1
  9
$DIMSHO
 70
1
  9
$DIMPOST
  1

  9
$DIMAPOST
  1

  9
$DIMALT
 70
0
  9
$DIMALTD
 70
2
  9
$DIMALTF
 40
25.4
  9
$DIMLFAC
 40
1.0
  9
$DIMTOFL
 70
0
  9
$DIMTVP
 40
0.0
  9
$DIMTIX
 70
0
  9
$DIMSOXD
 70
0
  9
$DIMSAH
 70
0
  9
$DIMBLK1
  1

  9
$DIMBLK2
  1

  9
$DIMSTYLE
  2
Civil-Metric
  9
$DIMCLRD
 70
0
  9
$DIMCLRE
 70
0
  9
$DIMCLRT
 70
0
  9
$DIMTFAC
 40
1.0
  9
$DIMGAP
 40
2.0
  9
$DIMJUST
 70
0
  9
$DIMSD1
 70
0
  9
$DIMSD2
 70
0
  9
$DIMTOLJ
 70
1
  9
$DIMTZIN
 70
0
  9
$DIMALTZ
 70
0
  9
$DIMALTTZ
 70
0
  9
$DIMUPT
 70
0
  9
$DIMDEC
 70
2
  9
$DIMTDEC
 70
2
  9
$DIMALTU
 70
2
  9
$DIMALTTD
 70
2
  9
$DIMTXSTY
  7
Standard
  9
$DIMAUNIT
 70
0
  9
$DIMADEC
 70
2
  9
$DIMALTRND
 40
0.0
  9
$DIMAZIN
 70
2
  9
$DIMDSEP
 70
46
  9
$DIMATFIT
 70
3
  9
$DIMFRAC
 70
1
  9
$DIMLDRBLK
  1

  9
$DIMLUNIT
 70
2
  9
$DIMLWD
 70
-2
  9
$DIMLWE
 70
-2
  9
$DIMTMOVE
 70
0
  9
$DIMFXL
 40
1.0
  9
$DIMFXLON
 70
0
  9
$DIMJOGANG
 40
0.785398163397
  9
$DIMTFILL
 70
0
  9
$DIMTFILLCLR
 70
0
  9
$DIMARCSYM
 70
0
  9
$DIMLTYPE
  6

  9
$DIMLTEX1
  6

  9
$DIMLTEX2
  6

  9
$DIMTXTDIRECTION
 70
0
  9
$LUNITS
 70
2
  9
$LUPREC
 70
4
  9
$SKETCHINC
 40
0.1
  9
$FILLETRAD
 40
0.0
  9
$AUNITS
 70
4
  9
$AUPREC
 70
5
  9
$MENU
  1
.
  9
$ELEVATION
 40
0.0
  9
$PELEVATION
 40
0.0
  9
$THICKNESS
 40
0.0
  9
$LIMCHECK
 70
0
  9
$CHAMFERA
 40
0.0
  9
$CHAMFERB
 40
0.0
  9
$CHAMFERC
 40
0.0
  9
$CHAMFERD
 40
0.0
  9
$SKPOLY
 70
0
  9
$TDCREATE
 40
2457986.69756
  9
$TDUCREATE
 40
2455631.2632
  9
$TDUPDATE
 40
2457986.69756
  9
$TDUUPDATE
 40
2456436.43179
  9
$TDINDWG
 40
0.0003490741
  9
$TDUSRTIMER
 40
0.0003487153
  9
$USRTIMER
 70
1
  9
$ANGBASE
 50
0.0
  9
$ANGDIR
 70
0
  9
$PDMODE
 70
0
  9
$PDSIZE
 40
0.0
  9
$PLINEWID
 40
0.0
  9
$SPLFRAME
 70
0
  9
$SPLINETYPE
 70
6
  9
$SPLINESEGS
 70
8
  9
$HANDSEED
  5
5C7
  9
$SURFTAB1
 70
6
  9
$SURFTAB2
 70
6
  9
$SURFTYPE
 70
6
  9
$SURFU
 70
6
  9
$SURFV
 70
6
  9
$UCSBASE
  2

  9
$UCSNAME
  2

  9
$UCSORG
 10
0.0
 20
0.0
 30
0.0
  9
$UCSXDIR
 10
1.0
 20
0.0
 30
0.0
  9
$UCSYDIR
 10
0.0
 20
1.0
 30
0.0
  9
$UCSORTHOREF
  2

  9
$UCSORTHOVIEW
 70
0
  9
$UCSORGTOP
 10
0.0
 20
0.0
 30
0.0
  9
$UCSORGBOTTOM
 10
0.0
 20
0.0
 30
0.0
  9
$UCSORGLEFT
 10
0.0
 20
0.0
 30
0.0
  9
$UCSORGRIGHT
 10
0.0
 20
0.0
 30
0.0
  9
$UCSORGFRONT
 10
0.0
 20
0.0
 30
0.0
  9
$UCSORGBACK
 10
0.0
 20
0.0
 30
0.0
  9
$PUCSBASE
  2

  9
$PUCSNAME
  2

  9
$PUCSORG
 10
0.0
 20
0.0
 30
0.0
  9
$PUCSXDIR
 10
1.0
 20
0.0
 30
0.0
  9
$PUCSYDIR
 10
0.0
 20
1.0
 30
0.0
  9
$PUCSORTHOREF
  2

  9
$PUCSORTHOVIEW
 70
0
  9
$PUCSORGTOP
 10
0.0
 20
0.0
 30
0.0
  9
$PUCSORGBOTTOM
 10
0.0
 20
0.0
 30
0.0
  9
$PUCSORGLEFT
 10
0.0
 20
0.0
 30
0.0
  9
$PUCSORGRIGHT
 10
0.0
 20
0.0
 30
0.0
  9
$PUCSORGFRONT
 10
0.0
 20
0.0
 30
0.0
  9
$PUCSORGBACK
 10
0.0
 20
0.0
 30
0.0
  9
$USERI1
 70
0
  9
$USERI2
 70
0
  9
$USERI3
 70
0
  9
$USERI4
 70
0
  9
$USERI5
 70
0
  9
$USERR1
 40
0.0
  9
$USERR2
 40
0.0
  9
$USERR3
 40
0.0
  9
$USERR4
 40
0.0
  9
$USERR5
 40
0.0
  9
$WORLDVIEW
 70
1
  9
$SHADEDGE
 70
3
  9
$SHADEDIF
 70
70
  9
$TILEMODE
 70
1
  9
$MAXACTVP
 70
64
  9
$PINSBASE
 10
0.0
 20
0.0
 30
0.0
  9
$PLIMCHECK
 70
0
  9
$PEXTMIN
 10
0.628866766397
 20
0.799999952316
 30
0.0
  9
$PEXTMAX
 10
9.02886638493
 20
7.19999957085
 30
0.0
  9
$PLIMMIN
 10
-0.700541819174
 20
-0.228100386192
  9
$PLIMMAX
 10
10.2994579405
 20
8.27189937351
  9
$UNITMODE
 70
0
  9
$VISRETAIN
 70
1
  9
$PLINEGEN
 70
0
  9
$PSLTSCALE
 70
1
  9
$TREEDEPTH
 70
3020
  9
$CMLSTYLE
  2
Standard
  9
$CMLJUST
 70
0
  9
$CMLSCALE
 40
1.0
  9
$PROXYGRAPHICS
 70
1
  9
$MEASUREMENT
 70
1
  9
$CELWEIGHT
370
-1
  9
$ENDCAPS
280
0
  9
$JOINSTYLE
280
0
  9
$LWDISPLAY
290
0
  9
$INSUNITS
 70
4
  9
$HYPERLINKBASE
  1

  9
$STYLESHEET
  1

  9
$XEDIT
290
1
  9
$CEPSNTYPE
380
0
  9
$PSTYLEMODE
290
1
  9
$FINGERPRINTGUID
  2
{39DB1BDD-BC6C-46D3-A333-DFCC0DC4782D}
  9
$VERSIONGUID
  2
{69EEBB2D-7039-498F-9366-3F994E4A07E7}
  9
$EXTNAMES
290
1
  9
$PSVPSCALE
 40
0.0
  9
$OLESTARTUP
290
0
  9
$SORTENTS
280
127
  9
$INDEXCTL
280
0
  9
$HIDETEXT
280
1
  9
$XCLIPFRAME
280
0
  9
$HALOGAP
280
0
  9
$OBSCOLOR
 70
257
  9
$OBSLTYPE
280
0
  9
$INTERSECTIONDISPLAY
280
0
  9
$INTERSECTIONCOLOR
 70
257
  9
$DIMASSOC
280
2
  9
$PROJECTNAME
  1

  9
$CAMERADISPLAY
290
0
  9
$LENSLENGTH
 40
50.0
  9
$CAMERAHEIGHT
 40
0.0
  9
$STEPSPERSEC
 40
2.0
  9
$STEPSIZE
 40
6.0
  9
$3DDWFPREC
 40
2.0
  9
$PSOLWIDTH
 40
0.25
  9
$PSOLHEIGHT
 40
4.0
  9
$LOFTANG1
 40
1.57079632679
  9
$LOFTANG2
 40
1.57079632679
  9
$LOFTMAG1
 40
0.0
  9
$LOFTMAG2
 40
0.0
  9
$LOFTPARAM
 70
7
  9
$LOFTNORMALS
280
1
  9
$LATITUDE
 40
37.795
  9
$LONGITUDE
 40
-122.394
  9
$NORTHDIRECTION
 40
0.0
  9
$TIMEZONE
 70
-8000
  9
$LIGHTGLYPHDISPLAY
280
1
  9
$TILEMODELIGHTSYNCH
280
1
  9
$CMATERIAL
347
96
  9
$SOLIDHIST
280
1
  9
$SHOWHIST
280
1
  9
$DWFFRAME
280
2
  9
$DGNFRAME
280
0
  9
$REALWORLDSCALE
290
1
  9
$INTERFERECOLOR
 62
1
  9
$INTERFEREOBJVS
345
A3
  9
$INTERFEREVPVS
346
A0
  9
$CSHADOW
280
0
  9
$SHADOWPLANELOCATION
 40
0.0
  0
ENDSEC
  0
SECTION
  2
CLASSES
  0
CLASS
  1
ACDBDICTIONARYWDFLT
  2
AcDbDictionaryWithDefault
  3
ObjectDBX Classes
 90
0
 91
1
280
0
281
0
  0
CLASS
  1
DICTIONARYVAR
  2
AcDbDictionaryVar
  3
ObjectDBX Classes
 90
0
 91
15
280
0
281
0
  0
CLASS
  1
TABLESTYLE
  2
AcDbTableStyle
  3
ObjectDBX Classes
 90
4095
 91
1
280
0
281
0
  0
CLASS
  1
MATERIAL
  2
AcDbMaterial
  3
ObjectDBX Classes
 90
1153
 91
3
280
0
281
0
  0
CLASS
  1
VISUALSTYLE
  2
AcDbVisualStyle
  3
ObjectDBX Classes
 90
4095
 91
26
280
0
281
0
  0
CLASS
  1
SCALE
  2
AcDbScale
  3
ObjectDBX Classes
 90
1153
 91
17
280
0
281
0
  0
CLASS
  1
MLEADERSTYLE
  2
AcDbMLeaderStyle
  3
ACDB_MLEADERSTYLE_CLASS
 90
4095
 91
3
280
0
281
0
  0
CLASS
  1
CELLSTYLEMAP
  2
AcDbCellStyleMap
  3
ObjectDBX Classes
 90
1152
 91
2
280
0
281
0
  0
CLASS
  1
EXACXREFPANELOBJECT
  2
ExAcXREFPanelObject
  3
EXAC_ESW
 90
1025
 91
0
280
0
281
0
  0
CLASS
  1
NPOCOLLECTION
  2
AcDbImpNonPersistentObjectsCollection
  3
ObjectDBX Classes
 90
1153
 91
0
280
0
281
0
  0
CLASS
  1
LAYER_INDEX
  2
AcDbLayerIndex
  3
ObjectDBX Classes
 90
0
 91
0
280
0
281
0
  0
CLASS
  1
SPATIAL_INDEX
  2
AcDbSpatialIndex
  3
ObjectDBX Classes
 90
0
 91
0
280
0
281
0
  0
CLASS
  1
IDBUFFER
  2
AcDbIdBuffer
  3
ObjectDBX Classes
 90
0
 91
0
280
0
281
0
  0
CLASS
  1
DIMASSOC
  2
AcDbDimAssoc
  3
"AcDbDimAssoc|Product Desc:     AcDim ARX App For Dimension|Company:          Autodesk, Inc.|WEB Address:      www.autodesk.com"
 90
0
 91
0
280
0
281
0
  0
CLASS
  1
ACDBSECTIONVIEWSTYLE
  2
AcDbSectionViewStyle
  3
ObjectDBX Classes
 90
1025
 91
1
280
0
281
0
  0
CLASS
  1
ACDBDETAILVIEWSTYLE
  2
AcDbDetailViewStyle
  3
ObjectDBX Classes
 90
1025
 91
1
280
0
281
0
  0
CLASS
  1
IMAGEDEF
  2
AcDbRasterImageDef
  3
ISM
 90
0
 91
1
280
0
281
0
  0
CLASS
  1
RASTERVARIABLES
  2
AcDbRasterVariables
  3
ISM
 90
0
 91
1
280
0
281
0
  0
CLASS
  1
IMAGEDEF_REACTOR
  2
AcDbRasterImageDefReactor
  3
ISM
 90
1
 91
1
280
0
281
0
  0
CLASS
  1
IMAGE
  2
AcDbRasterImage
  3
ISM
 90
2175
 91
1
280
0
281
1
  0
CLASS
  1
PDFDEFINITION
  2
AcDbPdfDefinition
  3
ObjectDBX Classes
 90
1153
 91
1
280
0
281
0
  0
CLASS
  1
PDFUNDERLAY
  2
AcDbPdfReference
  3
ObjectDBX Classes
 90
4095
 91
1
280
0
281
1
  0
CLASS
  1
DWFDEFINITION
  2
AcDbDwfDefinition
  3
ObjectDBX Classes
 90
1153
 91
2
280
0
281
0
  0
CLASS
  1
DWFUNDERLAY
  2
AcDbDwfReference
  3
ObjectDBX Classes
 90
1153
 91
1
280
0
281
1
  0
CLASS
  1
DGNDEFINITION
  2
AcDbDgnDefinition
  3
ObjectDBX Classes
 90
1153
 91
2
280
0
281
0
  0
CLASS
  1
DGNUNDERLAY
  2
AcDbDgnReference
  3
ObjectDBX Classes
 90
1153
 91
1
280
0
281
1
  0
ENDSEC
  0
SECTION
  2
TABLES
  0
TABLE
  2
VPORT
  5
8
330
0
100
AcDbSymbolTable
 70
0
  0
ENDTAB
  0
TABLE
  2
LTYPE
  5
5F
330
0
100
AcDbSymbolTable
 70
7
  0
LTYPE
  5
14
330
5F
100
AcDbSymbolTableRecord
100
AcDbLinetypeTableRecord
  2
ByBlock
 70
0
  3

 72
65
 73
0
 40
0.0
  0
LTYPE
  5
15
330
5F
100
AcDbSymbolTableRecord
100
AcDbLinetypeTableRecord
  2
ByLayer
 70
0
  3

 72
65
 73
0
 40
0.0
  0
LTYPE
  5
16
330
5F
100
AcDbSymbolTableRecord
100
AcDbLinetypeTableRecord
  2
Continuous
 70
0
  3
Solid line
 72
65
 73
0
 40
0.0
  0
LTYPE
  5
1B1
330
5F
100
AcDbSymbolTableRecord
100
AcDbLinetypeTableRecord
  2
CENTER
 70
0
  3
Center ____ _ ____ _ ____ _ ____ _ ____ _ ____
 72
65
 73
4
 40
2.0
 49
1.25
 74
0
 49
-0.25
 74
0
 49
0.25
 74
0
 49
-0.25
 74
0
  0
LTYPE
  5
1B2
330
5F
100
AcDbSymbolTableRecord
100
AcDbLinetypeTableRecord
  2
DASHED
 70
0
  3
Dashed __ __ __ __ __ __ __ __ __ __ __ __ __ _
 72
65
 73
2
 40
0.75
 49
0.5
 74
0
 49
-0.25
 74
0
  0
LTYPE
  5
1B3
330
5F
100
AcDbSymbolTableRecord
100
AcDbLinetypeTableRecord
  2
PHANTOM
 70
0
  3
Phantom ______  __  __  ______  __  __  ______
 72
65
 73
6
 40
2.5
 49
1.25
 74
0
 49
-0.25
 74
0
 49
0.25
 74
0
 49
-0.25
 74
0
 49
0.25
 74
0
 49
-0.25
 74
0
  0
LTYPE
  5
39E
330
5F
100
AcDbSymbolTableRecord
100
AcDbLinetypeTableRecord
  2
HIDDEN
 70
0
  3
Hidden __ __ __ __ __ __ __ __ __ __ __ __ __ __
 72
65
 73
2
 40
9.525
 49
6.35
 74
0
 49
-3.175
 74
0
  0
ENDTAB
  0
TABLE
  2
LAYER
  5
2
330
0
100
AcDbSymbolTable
 70
3
  0
LAYER
  5
10
330
2
100
AcDbSymbolTableRecord
100
AcDbLayerTableRecord
  2
0
 70
0
 62
7
  6
Continuous
370
-3
390
F
347
98
348
0
  0
LAYER
  5
1B4
330
2
100
AcDbSymbolTableRecord
100
AcDbLayerTableRecord
  2
View Port
 70
0
 62
7
  6
Continuous
290
0
370
-3
390
F
347
98
348
0
  0
LAYER
  5
21D
330
2
100
AcDbSymbolTableRecord
100
AcDbLayerTableRecord
  2
Defpoints
 70
0
 62
7
  6
Continuous
290
0
370
-3
390
F
347
98
348
0
  0
ENDTAB
  0
TABLE
  2
STYLE
  5
3
330
0
100
AcDbSymbolTable
 70
3
  0
STYLE
  5
11
330
3
100
AcDbSymbolTableRecord
100
AcDbTextStyleTableRecord
  2
Standard
 70
0
 40
0.0
 41
1.0
 50
0.0
 71
0
 42
0.2
  3
arial.ttf
  4

  0
STYLE
  5
DC
330
3
100
AcDbSymbolTableRecord
100
AcDbTextStyleTableRecord
  2
Annotative
 70
0
 40
0.0
 41
1.0
 50
0.0
 71
0
 42
0.2
  3
arial.ttf
  4

  0
STYLE
  5
178
330
3
100
AcDbSymbolTableRecord
100
AcDbTextStyleTableRecord
  2
Notes
 70
0
 40
3.0
 41
1.0
 50
0.0
 71
0
 42
0.2
  3
arial.ttf
  4

  0
ENDTAB
  0
TABLE
  2
VIEW
  5
6
330
0
100
AcDbSymbolTable
 70
0
  0
ENDTAB
  0
TABLE
  2
UCS
  5
7
330
0
100
AcDbSymbolTable
 70
0
  0
ENDTAB
  0
TABLE
  2
APPID
  5
9
330
0
100
AcDbSymbolTable
 70
12
  0
APPID
  5
12
330
9
100
AcDbSymbolTableRecord
100
AcDbRegAppTableRecord
  2
ACAD
 70
0
  0
APPID
  5
DD
330
9
100
AcDbSymbolTableRecord
100
AcDbRegAppTableRecord
  2
AcadAnnoPO
 70
0
  0
APPID
  5
DE
330
9
100
AcDbSymbolTableRecord
100
AcDbRegAppTableRecord
  2
AcadAnnotative
 70
0
  0
APPID
  5
DF
330
9
100
AcDbSymbolTableRecord
100
AcDbRegAppTableRecord
  2
ACAD_DSTYLE_DIMJAG
 70
0
  0
APPID
  5
E0
330
9
100
AcDbSymbolTableRecord
100
AcDbRegAppTableRecord
  2
ACAD_DSTYLE_DIMTALN
 70
0
  0
APPID
  5
107
330
9
100
AcDbSymbolTableRecord
100
AcDbRegAppTableRecord
  2
ACAD_MLEADERVER
 70
0
  0
APPID
  5
1B5
330
9
100
AcDbSymbolTableRecord
100
AcDbRegAppTableRecord
  2
AcAecLayerStandard
 70
0
  0
APPID
  5
1BA
330
9
100
AcDbSymbolTableRecord
100
AcDbRegAppTableRecord
  2
ACAD_EXEMPT_FROM_CAD_STANDARDS
 70
0
  0
APPID
  5
237
330
9
100
AcDbSymbolTableRecord
100
AcDbRegAppTableRecord
  2
ACAD_DSTYLE_DIMBREAK
 70
0
  0
APPID
  5
28E
330
9
100
AcDbSymbolTableRecord
100
AcDbRegAppTableRecord
  2
ACAD_PSEXT
 70
0
  0
APPID
  5
4B0
330
9
100
AcDbSymbolTableRecord
100
AcDbRegAppTableRecord
  2
ACAD_NAV_VCDISPLAY
 70
0
  0
APPID
  5
4E3
330
9
100
AcDbSymbolTableRecord
100
AcDbRegAppTableRecord
  2
HATCHBACKGROUNDCOLOR
 70
0
  0
ENDTAB
  0
TABLE
  2
DIMSTYLE
  5
A
330
0
100
AcDbSymbolTable
 70
3
100
AcDbDimStyleTable
 71
3
340
242
340
27
340
E1
  0
DIMSTYLE
105
27
330
A
100
AcDbSymbolTableRecord
100
AcDbDimStyleTableRecord
  2
Standard
 70
0
 41
3.0
 42
2.0
 43
9.0
 44
5.0
140
3.0
141
2.0
147
2.0
340
11
1001
ACAD_DSTYLE_DIMJAG
1070
388
1040
38.0
1001
ACAD_DSTYLE_DIMBREAK
1070
391
1040
90.0
1001
ACAD_DSTYLE_DIMTALN
1070
392
1070
0
  0
DIMSTYLE
105
E1
330
A
100
AcDbSymbolTableRecord
100
AcDbDimStyleTableRecord
  2
Annotative
 70
0
 40
0.0
 41
3.0
 42
2.5
 43
10.0
 44
5.0
140
3.0
141
2.0
147
2.0
340
11
1001
AcadAnnotative
1000
AnnotativeData
1002
{
1070
1
1070
1
1002
}
1001
ACAD_DSTYLE_DIMJAG
1070
388
1040
38.0
1001
ACAD_DSTYLE_DIMBREAK
1070
391
1040
90.0
1001
ACAD_DSTYLE_DIMTALN
1070
392
1070
0
  0
DIMSTYLE
105
242
330
A
100
AcDbSymbolTableRecord
100
AcDbDimStyleTableRecord
  2
Civil-Metric
 70
0
 41
3.0
 42
1.5
 43
6.0
 44
3.0
 73
0
 74
0
 77
1
 78
3
 79
2
140
3.0
141
3.0
147
2.0
179
2
271
2
272
2
276
1
340
11
1001
ACAD_DSTYLE_DIMBREAK
1070
391
1040
3.0
1001
ACAD_DSTYLE_DIMJAG
1070
388
1040
38.0
1001
ACAD_DSTYLE_DIMTALN
1070
392
1070
0
  0
ENDTAB
  0
TABLE
  2
BLOCK_RECORD
  5
1
330
0
100
AcDbSymbolTable
 70
4
  0
BLOCK_RECORD
  5
1F
330
1
100
AcDbSymbolTableRecord
100
AcDbBlockTableRecord
  2
*Model_Space
340
530
 70
0
280
1
281
0
  0
BLOCK_RECORD
  5
58
330
1
100
AcDbSymbolTableRecord
100
AcDbBlockTableRecord
  2
*Paper_Space
340
531
 70
0
280
1
281
0
  0
BLOCK_RECORD
  5
238
330
1
100
AcDbSymbolTableRecord
100
AcDbBlockTableRecord
  2
_ArchTick
340
0
 70
0
280
1
281
0
  0
BLOCK_RECORD
  5
23C
330
1
100
AcDbSymbolTableRecord
100
AcDbBlockTableRecord
  2
_Open30
340
0
 70
0
280
1
281
0
  0
ENDTAB
  0
ENDSEC
  0
SECTION
  2
BLOCKS
  0
BLOCK
  5
23A
330
238
100
AcDbEntity
  8
0
100
AcDbBlockBegin
  2
_ArchTick
 70
0
 10
0.0
 20
0.0
 30
0.0
  3
_ArchTick
  1

  0
LWPOLYLINE
  5
239
330
238
100
AcDbEntity
  8
0
  6
ByBlock
 62
0
100
AcDbPolyline
 90
2
 70
0
 43
0.15
 10
-0.5
 20
-0.5
 10
0.5
 20
0.5
  0
ENDBLK
  5
23B
330
238
100
AcDbEntity
  8
0
100
AcDbBlockEnd
  0
BLOCK
  5
20
330
1F
100
AcDbEntity
  8
0
100
AcDbBlockBegin
  2
*Model_Space
 70
0
 10
0.0
 20
0.0
 30
0.0
  3
*Model_Space
  1

  0
ENDBLK
  5
21
330
1F
100
AcDbEntity
  8
0
100
AcDbBlockEnd
  0
BLOCK
  5
5A
330
58
100
AcDbEntity
 67
1
  8
0
100
AcDbBlockBegin
  2
*Paper_Space
 70
0
 10
0.0
 20
0.0
 30
0.0
  3
*Paper_Space
  1

  0
ENDBLK
  5
5B
330
58
100
AcDbEntity
 67
1
  8
0
100
AcDbBlockEnd
  0
BLOCK
  5
240
330
23C
100
AcDbEntity
  8
0
100
AcDbBlockBegin
  2
_Open30
 70
0
 10
0.0
 20
0.0
 30
0.0
  3
_Open30
  1

  0
LINE
  5
23D
330
23C
100
AcDbEntity
  8
0
  6
ByBlock
 62
0
370
-2
100
AcDbLine
 10
-1.0
 20
0.26794919
 30
0.0
 11
0.0
 21
0.0
 31
0.0
  0
LINE
  5
23E
330
23C
100
AcDbEntity
  8
0
  6
ByBlock
 62
0
370
-2
100
AcDbLine
 10
0.0
 20
0.0
 30
0.0
 11
-1.0
 21
-0.26794919
 31
0.0
  0
LINE
  5
23F
330
23C
100
AcDbEntity
  8
0
  6
ByBlock
 62
0
370
-2
100
AcDbLine
 10
0.0
 20
0.0
 30
0.0
 11
-1.0
 21
0.0
 31
0.0
  0
ENDBLK
  5
241
330
23C
100
AcDbEntity
  8
0
100
AcDbBlockEnd
  0
ENDSEC
  0
SECTION
  2
ENTITIES
  0
LWPOLYLINE
  5
CAD00001
  100
AcDbEntity
  8
0
  67
0
  100
AcDbPolyline
  90
951
  70
1
  10
37.97747125198041
  20
70.36571969618619
  10
37.977471251980404
  20
69.32292706566672
  10
38.88851388938929
  20
68.87697222567307
  10
39.79897354072317
  20
68.47765476124891
  10
40.62685887503977
  20
68.15517994708281
  10
41.36750430393298
  20
67.90186432842417
  10
42.01674548292606
  20
67.70977560477054
  10
42.662393696947674
  20
67.54781893873047
  10
42.88400078371694
  20
67.45318380313971
  10
42.98978216624449
  20
67.34701262021761
  10
42.98978216624449
  20
65.0699000322393
  10
42.884000784153244
  20
64.96372884784256
  10
42.66239369694702
  20
64.86909371372921
  10
42.016745482923156
  20
64.70713704768839
  10
41.36750430361232
  20
64.51504832511642
  10
40.62685888602006
  20
64.26173267326935
  10
39.79897354072304
  20
63.93925789120794
  10
38.88851388938936
  20
63.539940426783886
  10
37.977471251980404
  20
63.09398558679018
  10
37.977471251980404
  20
62.05119295627073
  10
38.108167824300494
  20
61.016623057109975
  10
39.06791958051815
  20
60.68836862389131
  10
40.02124773459515
  20
60.406310749075985
  10
40.88302175697577
  20
60.190140291108506
  10
41.64957584104092
  20
60.0316496282925
  10
42.31777266028545
  20
59.92244707792531
  10
42.97862829794583
  20
59.84268866697943
  10
43.21034887419748
  20
59.7765744904645
  10
43.3286029165954
  20
59.68449842175461
  10
43.614000800436706
  20
57.425341546673074
  10
43.522360313990404
  20
57.3067496311087
  10
43.314361592224856
  20
57.18508599047366
  10
42.69410305986653
  20
56.94348522271005
  10
42.07405644190469
  20
56.67153968072356
  10
41.371000104408644
  20
56.32739401334159
  10
40.59005968951534
  20
55.90370049390871
  10
39.73682703350853
  20
55.3934209148305
  10
38.88886120153085
  20
54.836798642289
  10
39.01955777385087
  20
53.80222874312824
  10
39.27888975547101
  20
52.792197360658015
  10
40.27221477197422
  20
52.58682010271596
  10
41.253376874313865
  20
52.42647003868852
  10
42.135448893626744
  20
52.320013074175776
  10
42.915822617040924
  20
52.258846859632754
  10
43.59243721353598
  20
52.23425267200573
  10
44.25807818665317
  20
52.237950353940015
  10
44.49625788047656
  20
52.20139979655925
  10
44.62511964585472
  20
52.124870936668714
  10
45.19141451842072
  20
49.91929802795889
  10
45.115360152833986
  20
49.79015564657871
  10
44.92425006060377
  20
49.643382207713124
  10
44.339163057490765
  20
49.32594752665966
  10
43.75808950644106
  20
48.97843390890816
  10
43.10370986746905
  20
48.54888560874858
  10
42.38203027983354
  20
48.03065525184791
  10
41.5994806078353
  20
47.417460971903864
  10
40.827964509009405
  20
46.75894953256258
  10
41.087296490629654
  20
45.74891815009241
  10
41.47117406128244
  20
44.779354082577754
  10
42.48240700917712
  20
44.700092921956454
  10
43.47592954730771
  20
44.66397948501509
  10
44.364388760883976
  20
44.66891490388177
  10
45.146275163856274
  20
44.70603776535399
  10
45.82063692122516
  20
44.76643980549787
  10
46.4805656740185
  20
44.85353526565933
  10
46.72144824936037
  20
44.84712475153688
  10
46.85888551070044
  20
44.78735000630229
  10
47.6971465635626
  20
42.67014426627992
  10
47.637877741613444
  20
42.53248807158421
  10
47.466670199236646
  20
42.362919539297195
  10
46.92598189692209
  20
41.97465707950039
  10
46.393045289801094
  20
41.55705588333039
  10
45.79766230716716
  20
41.04887918368642
  10
45.14662486499695
  20
40.44428479162211
  10
44.44709945280717
  20
39.737846250911446
  10
43.764200356892886
  20
38.98783076354437
  10
44.14807792754574
  20
38.018266696029826
  10
44.650447108624704
  20
37.10446054800509
  10
45.66364024024132
  20
37.152565480555836
  10
46.653854770234936
  20
37.24125820117423
  10
47.5346896455367
  20
37.357508168916524
  10
48.30575791241593
  20
37.492334656702454
  10
48.967231742900765
  20
37.63678034836173
  10
49.61104080471635
  20
37.80590003931531
  10
49.85082739946729
  20
37.82973066608834
  10
49.9946726890569
  20
37.787652718949744
  10
51.09168004465874
  20
35.79220374689238
  10
51.05013147107475
  20
35.64820465930333
  10
50.90152652376909
  20
35.458515230644394
  10
50.41376389977201
  20
35.00554812303197
  10
49.93736896523493
  20
34.524445168769944
  10
49.41037218423975
  20
33.94565431976502
  10
48.84024413690878
  20
33.264230707267096
  10
48.23477491815395
  20
32.47568886358276
  10
47.65126255183811
  20
31.64599752046329
  10
48.153631732917056
  20
30.73219137243858
  10
48.76656986233564
  20
29.888554412739357
  10
49.76574451673633
  20
30.06326679493933
  10
50.73703476392949
  20
30.275366935930883
  10
51.596354008788
  20
30.501098121113124
  10
52.34444393239162
  20
30.731501940958942
  10
52.982597998540335
  20
30.957713289288478
  10
53.60013411588046
  20
31.206190092480632
  10
53.835043152199674
  20
31.259886036929196
  10
53.98302794389299
  20
31.236168482249127
  10
55.3214811409162
  20
29.393945700469565
  10
55.29830806152273
  20
29.245874671619326
  10
55.174649298079515
  20
29.03905586219338
  10
54.74750466035562
  20
28.528527668641836
  10
54.33516443110463
  20
27.991510237273467
  10
53.88486490579712
  20
27.351233116349277
  10
53.40463751318978
  20
26.603726740849588
  10
52.90277309913944
  20
25.745517370118534
  10
52.42784980101217
  20
24.849234899361214
  10
53.04078793043077
  20
24.00559793966204
  10
53.75462860773666
  20
23.24543482710707
  10
54.72402720374353
  20
23.543999340320866
  10
55.66107534071731
  20
23.876161955759656
  10
56.4853269773087
  20
24.20781444274624
  10
57.19864073265424
  20
24.530161988776413
  10
57.8034109636289
  20
24.83457150568094
  10
58.38493522302491
  20
25.158486793492486
  10
58.61126204508179
  20
25.241201238496238
  10
58.761052530311986
  20
25.236218116280163
  10
60.31984336228633
  20
23.576274478537606
  10
60.315411230388335
  20
23.426466677004505
  10
60.21864882337722
  20
23.205780142983762
  10
59.85885849802727
  20
22.645742198080164
  10
59.51707582579777
  20
22.06127937529679
  10
59.15057504868793
  20
21.36961353513334
  10
58.76782178365958
  20
20.56781301871215
  10
58.377476875922554
  20
19.65347059538025
  10
58.01863247010076
  20
18.704731906962127
  10
58.732473147406616
  20
17.944568794407203
  10
59.53595867869083
  20
17.27986775538095
  10
60.46029322135427
  20
17.6975758588814
  10
61.348321439223184
  20
18.14456254589762
  10
62.12450652685434
  20
18.576905976849204
  10
62.791794729907004
  20
18.98611363570172
  10
63.353643537892935
  20
19.363920601254236
  10
63.88998495438839
  20
19.758166036098764
  10
64.10416025299801
  20
19.86859452544877
  10
64.2533941463325
  20
19.88242442251083
  10
66.00793955066125
  20
18.430938231574743
  10
66.02231826362639
  20
18.281756215879795
  10
65.95397821400901
  20
18.050682315737497
  10
65.66721630939206
  20
17.449966752423443
  10
65.40138131109619
  20
16.82727586608152
  10
65.124459218376
  20
16.095129290159328
  10
64.84521632856186
  20
15.251679505933033
  10
64.57254689951392
  20
14.295623756217893
  10
64.33544057664068
  20
13.309391026004391
  10
65.13892610792492
  20
12.644689986978161
  10
66.01938504638022
  20
12.08593375393911
  10
66.88407822779165
  20
12.616197941407329
  10
67.70908179107755
  20
13.170959452929814
  10
68.42495942724605
  20
13.697175513670828
  10
69.03569854442505
  20
14.186789836116802
  10
69.54576523808808
  20
14.632036008779579
  10
70.02846538715004
  20
15.090394104638797
  10
70.2271114899112
  20
15.226795115091235
  10
70.37343528370408
  20
15.259219925693174
  10
72.29606503124634
  20
14.039081985870432
  10
72.32902782818174
  20
13.892878445518164
  10
72.29018789936492
  20
13.655061352696428
  10
72.08097682202006
  20
13.023141814255432
  10
71.89528187438307
  20
12.3720430716101
  10
71.71230569287997
  20
11.610962148794606
  10
71.54097700546401
  20
10.739164803712931
  10
71.39028321488607
  20
9.756473297907604
  10
71.27865428331354
  20
8.748300005201006
  10
72.1591132217688
  20
8.189543772162068
  10
73.10266020397503
  20
7.745544264690114
  10
73.89407529612095
  20
8.380001953125223
  10
74.64304340579758
  20
9.033789368718828
  10
75.28732377253645
  20
9.645579317625135
  10
75.83188208312603
  20
10.207878793318173
  10
76.28212260600804
  20
10.71354237497117
  10
76.70356901793467
  20
11.228784550863509
  10
76.8835531571414
  20
11.389006957001534
  10
77.024659237755
  20
11.439515322510516
  10
79.08505230886868
  20
10.469967937987214
  10
79.13607934677562
  20
10.32904859014672
  10
79.12735206763867
  20
10.088238822264387
  10
78.99899120123227
  20
9.435081057308125
  10
78.89636482450717
  20
8.765842674478414
  10
78.81022019790814
  20
7.987830105570147
  10
78.7495076686377
  20
7.101433964551518
  10
78.7231660476273
  20
6.107604334733992
  10
78.73877496229024
  20
5.093389974613796
  10
79.68232194449644
  20
4.649390467141956
  10
80.67407667089651
  20
4.327149822702463
  10
81.37973258500536
  20
5.055795235351162
  10
82.04085356657127
  20
5.798297936918296
  10
82.60337597762262
  20
6.4860134810300565
  10
83.0731654717614
  20
7.11213031133704
  10
83.45647926185588
  20
7.670236685228787
  10
83.81002547497123
  20
8.234237264249693
  10
83.96850919323093
  20
8.415754263016261
  10
84.10217223348126
  20
8.48354963633598
  10
86.26783499861574
  20
7.779883148545565
  10
86.33612155062437
  20
7.646470375513466
  10
86.35764455557268
  20
7.40646564646282
  10
86.31215822764703
  20
6.742370343122175
  10
86.29421890110083
  20
6.065546609188942
  10
86.30626438162761
  20
5.282872117161752
  10
86.35712548335722
  20
4.395856176857421
  10
86.45555145501339
  20
3.406561709974973
  10
86.59815205400326
  20
2.4023010487626912
  10
87.5899067804034
  20
2.0800604043232305
  10
88.61422868651651
  20
1.8846605503761893
  10
89.22299680728428
  20
2.6960025138092334
  10
89.78584438792564
  20
3.515510790196565
  10
90.25773752883259
  20
4.268306244561785
  10
90.64534934555935
  20
4.948366193044727
  10
90.95569131541595
  20
5.550113688262378
  10
91.23576169474093
  20
6.153978044363043
  10
91.37024560914305
  20
6.353927004254622
  10
91.49435766303893
  20
6.437940211848826
  10
93.73113632668384
  20
6.011251861653754
  10
93.81560547307656
  20
5.887449662557671
  10
93.8670393314649
  20
5.652034990287724
  10
93.90514488858359
  20
4.987475328207687
  10
93.97217552611235
  20
4.3137401577699706
  10
94.08222114934142
  20
3.538746986910219
  10
94.24385377211385
  20
2.6651000185764104
  10
94.46549510006673
  20
1.69594247934765
  10
94.73283848675203
  20
0.7174733075867046
  10
95.7571603928651
  20
0.5220734536396598
  10
96.79789531033158
  20
0.4565959626079259
  10
97.3001750008334
  20
1.3378391293900336
  10
97.75587273797466
  20
2.221428845528422
  10
98.12969457200981
  20
3.0274321761335514
  10
98.42901584142669
  20
3.750710291156743
  10
98.66149171279147
  20
4.38660899023418
  10
98.86366938113818
  20
5.020813821787826
  10
98.97203260001582
  20
5.2360414282632135
  10
99.08463634632636
  20
5.334947531661086
  10
101.35725557276919
  20
5.1919664492351885
  10
101.45657518464799
  20
5.079727258710719
  10
101.53710875380445
  20
4.852615273233084
  10
101.65820524856858
  20
4.1980717552733395
  10
101.8091487369763
  20
3.5380503544388233
  10
102.01545901769128
  20
2.7829606100094466
  10
102.28531411849075
  20
1.9364605482281974
  10
102.62667538659645
  20
1.0027241299934104
  10
103.0145453960659
  20
0.06547749103164069
  10
104.05528031353228
  20
-1.7763568394002505e-15
  10
105.09601523099876
  20
0.06547749103170908
  10
105.48388524046811
  20
1.0027241299933252
  10
105.8252465085739
  20
1.9364605482283395
  10
106.09510164210417
  20
2.7829606010666907
  10
106.30141188898662
  20
3.538050354690803
  10
106.4523553784938
  20
4.198071755276118
  10
106.57345187325734
  20
4.852615273233546
  10
106.65398544391574
  20
5.079727258367875
  10
106.75330505429541
  20
5.1919664492351885
  10
109.02592428073824
  20
5.334947531661086
  10
109.13852802849311
  20
5.236041428791246
  10
109.24689124592368
  20
5.020813821787009
  10
109.44906891427128
  20
4.386608990231146
  10
109.6815447845765
  20
3.7507102907686587
  10
109.98086608640673
  20
3.0274321891080547
  10
110.35468788909
  20
2.221428845528294
  10
110.81038562623114
  20
1.3378391293901188
  10
111.31266531673313
  20
0.4565959626080094
  10
112.35340023419948
  20
0.522073453639651
  10
113.37772214031266
  20
0.7174733075867117
  10
113.64506552699781
  20
1.6959424793475648
  10
113.86670685495076
  20
2.6651000185765596
  10
114.02833951131674
  20
3.538746982140239
  10
114.13838509982766
  20
4.313740157881888
  10
114.20541573847845
  20
4.9874753282101665
  10
114.24352129559684
  20
5.652034990287845
  10
114.2949551555183
  20
5.887449662405416
  10
114.37942430038075
  20
6.011251861653747
  10
116.61620296402565
  20
6.437940211848833
  10
116.74031501928829
  20
6.353927004959516
  10
116.87479893232104
  20
6.153978044361885
  10
117.15486931164718
  20
5.550113688259145
  10
117.46521128050082
  20
4.948366192526677
  10
117.85282312771056
  20
4.268306261363421
  10
118.32471623913902
  20
3.515510790196437
  10
118.88756381978024
  20
2.6960025138093116
  10
119.49633194054815
  20
1.8846605503761573
  10
120.52065384666128
  20
2.080060404323209
  10
121.51240857306135
  20
2.402301048762723
  10
121.65500917205118
  20
3.4065617099748806
  10
121.75343514370738
  20
4.395856176857571
  10
121.8042962793635
  20
5.282872116639787
  10
121.81634172483402
  20
6.065546609159028
  10
121.79840239941473
  20
6.742370343124307
  10
121.75291607148905
  20
7.406465646462571
  10
121.7744390779775
  20
7.646470375554195
  10
121.84272562844885
  20
7.779883148545551
  10
124.00838839358333
  20
8.483549636335965
  10
124.1420514351013
  20
8.415754263886882
  10
124.3005351520909
  20
8.2342372642482
  10
124.65408136520767
  20
7.67023668522539
  10
125.03739515437164
  20
7.112130310697189
  10
125.50718467658228
  20
6.486013501393835
  10
126.06970706049341
  20
5.798297936918168
  10
126.73082804205916
  20
5.055795235351212
  10
127.43648395616808
  20
4.32714982270258
  10
128.42823868256818
  20
4.649390467142048
  10
129.37178566477445
  20
5.093389974613814
  10
129.38739457943728
  20
6.107604334733914
  10
129.36105295842688
  20
7.101433964551674
  10
129.30034046288088
  20
7.987830109304433
  10
129.21419580144033
  20
8.765842674307159
  10
129.11156942582926
  20
9.435081057309901
  10
128.98320855942313
  20
10.088238822263804
  10
128.97448128180903
  20
10.329048590379834
  10
129.02550831819593
  20
10.4699679379872
  10
131.08590138930958
  20
11.439515322510523
  10
131.22700747107172
  20
11.389006958024176
  10
131.4069916091277
  20
11.228784550861754
  10
131.82843802105594
  20
10.71354237496768
  10
132.27867854309454
  20
10.207878792566639
  10
132.8232368789022
  20
9.645579341229947
  10
133.46751722126714
  20
9.033789368718736
  10
134.21648533094358
  20
8.380001953125294
  10
135.00790042308967
  20
7.745544264690217
  10
135.95144740529582
  20
8.189543772162054
  10
136.83190634375117
  20
8.748300005200967
  10
136.72027741217852
  20
9.756473297907533
  10
136.56958362160057
  20
10.739164803713095
  10
136.3982549671751
  20
11.61096215672623
  10
136.21527875159472
  20
12.372043071300176
  10
136.02958380504128
  20
13.023141814256817
  10
135.820372727697
  20
13.65506135269549
  10
135.78153280036173
  20
13.892878445939935
  10
135.81449559581827
  20
14.039081985870432
  10
137.7371253433605
  20
15.25921992569318
  10
137.8834491381647
  20
15.226795116249775
  10
138.08209523991258
  20
15.090394104636765
  10
138.56479538897636
  20
14.632036008776048
  10
139.0748620818964
  20
14.186789835265394
  10
139.68560122104196
  20
13.697175540144379
  10
140.40147883598718
  20
13.170959452929736
  10
141.22648239927287
  20
12.616197941407371
  10
142.09117558068442
  20
12.085933753939166
  10
142.97163451913968
  20
12.644689986978115
  10
143.77512005042396
  20
13.309391026004363
  10
143.53801372755066
  20
14.2956237562178
  10
143.26534429850267
  20
15.251679505933176
  10
142.98610144042482
  20
16.095129302163194
  10
142.709179314929
  20
16.827275865637823
  10
142.4433443176691
  20
17.449966752424373
  10
142.156582413053
  20
18.050682315736225
  10
142.08824236485253
  20
18.281756216483586
  10
142.10262107640335
  20
18.43093823157473
  10
143.85716648073208
  20
19.882424422510823
  10
144.00640037492468
  20
19.868594526724912
  10
144.22057567267444
  20
19.758166036096483
  10
144.75691708917194
  20
19.36392060125069
  10
145.31876589652697
  20
18.986113634763882
  10
145.98605411794827
  20
18.576906005773978
  10
146.76223918784154
  20
18.144562545897536
  10
147.65026740571022
  20
17.697575858881436
  10
148.5746019483737
  20
17.27986775538102
  10
149.37808747965792
  20
17.944568794407274
  10
150.09192815696377
  20
18.70473190696228
  10
149.73308375114206
  20
19.653470595380178
  10
149.34273884340496
  20
20.567813018712314
  10
148.95998560835815
  20
21.36961355102018
  10
148.59348480029124
  20
22.06127937472634
  10
148.25170212903382
  20
22.64574219808069
  10
147.891911803685
  20
23.205780142982192
  10
147.7951493980038
  20
23.426466677780816
  10
147.79071726477827
  20
23.576274478537613
  10
149.3495080967526
  20
25.236218116280185
  10
149.49929858267421
  20
25.24120123986988
  10
149.72562540403825
  20
25.158486793490027
  10
150.30714966343643
  20
24.83457150567748
  10
150.91191989390228
  20
24.530161987766945
  10
151.62523366372884
  20
24.20781447366614
  10
152.44948528634743
  20
23.876161955759613
  10
153.38653342332097
  20
23.54399934032091
  10
154.35593201932795
  20
23.24543482710712
  10
155.06977269663383
  20
24.005597939662024
  10
155.68271082605239
  20
24.849234899361278
  10
155.20778752792518
  20
25.745517370118435
  10
154.70592311387472
  20
26.60372674084971
  10
154.22569574902138
  20
27.351233135868505
  10
153.77539619506356
  20
27.99151023658522
  10
153.36305596670542
  20
28.5285276686419
  10
152.93591132898288
  20
29.039055862191496
  10
152.8122525667616
  20
29.24587467255588
  10
152.78907948614838
  20
29.39394570046955
  10
154.12753268317158
  20
31.236168482249127
  10
154.2755174753787
  20
31.259886038378653
  10
154.510426511183
  20
31.206190092477996
  10
155.1279626285254
  20
30.957713289285117
  10
155.7661166942954
  20
30.73150193989374
  10
156.51420662826405
  20
30.501098153540454
  10
157.37352586313526
  20
30.27536693593084
  10
158.34481611032814
  20
30.06326679493933
  10
159.34399076472894
  20
29.88855441273941
  10
159.95692889414758
  20
30.73219137243862
  10
160.45929807522646
  20
31.645997520463347
  10
159.8757857089107
  20
32.47568886358272
  10
159.27031649015572
  20
33.26423070726725
  10
158.70018846791353
  20
33.94565434260886
  10
158.1731916610266
  20
34.52444516797482
  10
157.69679672728907
  20
35.00554812303163
  10
157.2090341032936
  20
35.4585152306423
  10
157.0604291570826
  20
35.64820466038542
  10
157.01888058240587
  20
35.79220374689241
  10
158.1158879380077
  20
37.787652718949786
  10
158.25973322792538
  20
37.829730667590795
  10
158.49951982234748
  20
37.8059000393126
  10
159.1433288841654
  20
37.63678034835859
  10
159.8048027144076
  20
37.49233465559837
  10
160.57587098737238
  20
37.35750820233996
  10
161.4567058568298
  20
37.24125820117425
  10
162.4469203868232
  20
37.152565480555864
  10
163.46011351843978
  20
37.104460548005214
  10
163.9624826995187
  20
38.01826669602986
  10
164.3463602701716
  20
38.98783076354448
  10
163.6634611742575
  20
39.737846250911396
  10
162.96393576206754
  20
40.44428479162224
  10
162.3128983419252
  20
41.04887920949456
  10
161.71751533656644
  20
41.557055882440864
  10
161.18457873013907
  20
41.97465707949959
  10
160.64389042782634
  20
42.362919539294865
  10
160.47268288639967
  20
42.532488072794706
  10
160.413414063502
  20
42.67014426627993
  10
161.25167511636417
  20
44.787350006302304
  10
161.38911237784143
  20
44.84712475306859
  10
161.62999495304567
  20
44.85353526565652
  10
162.2899237058414
  20
44.76643980549494
  10
162.96428546310753
  20
44.706037764228384
  10
163.74617186778994
  20
44.66891493777415
  10
164.63463107975704
  20
44.66397948501511
  10
165.6281536178874
  20
44.70009292195647
  10
166.6393865657821
  20
44.77935408257787
  10
167.02326413643496
  20
45.74891815009241
  10
167.2825961180553
  20
46.75894953256253
  10
166.51108001922935
  20
47.41746097190381
  10
165.72853034723093
  20
48.03065525184801
  10
165.00685077821498
  20
48.548885637114005
  10
164.35247112004345
  20
48.97843390793828
  10
163.7713975695705
  20
49.325947526658425
  10
163.1863105664595
  20
49.643382207710594
  10
162.9952004750199
  20
49.790155647898516
  10
162.91914610864387
  20
49.91929802795889
  10
163.48544098120988
  20
52.12487093666872
  10
163.61430274653216
  20
52.20139979809607
  10
163.85248244041134
  20
52.237950353937165
  10
164.51812341353093
  20
52.234252672003045
  10
165.19473801006475
  20
52.258846858503375
  10
165.97511173078667
  20
52.32001310800259
  10
166.85718375275087
  20
52.42647003868854
  10
167.8383458550903
  20
52.58682010271594
  10
168.8316708715934
  20
52.792197360658086
  10
169.09100285321358
  20
53.80222874312826
  10
169.22169942553373
  20
54.836798642289025
  10
168.37373359355612
  20
55.393420914830465
  10
167.5205009375491
  20
55.9037004939088
  10
166.73956053757345
  20
56.327394043817
  10
166.03650418470593
  20
56.67153967968863
  10
165.4164575671949
  20
56.94348522270842
  10
164.79619903483874
  20
57.185085990470995
  10
164.58820031369186
  20
57.30674963251705
  10
164.49655982662787
  20
57.42534154667309
  10
164.7819577104692
  20
59.684498421754625
  10
164.90021175261907
  20
59.7765744919822
  10
165.13193232911905
  20
59.842688666976606
  10
165.79278796678176
  20
59.92244707792295
  10
166.46098478620598
  20
60.03164962717719
  10
167.22753886321888
  20
60.19014032433631
  10
168.0893128924696
  20
60.40631074907604
  10
169.04264104654635
  20
60.68836862389129
  10
170.002392802764
  20
61.01662305711001
  10
170.133089375084
  20
62.051192956270725
  10
170.13308937508418
  20
63.09398558679018
  10
169.2220467376753
  20
63.539940426783836
  10
168.3115870863414
  20
63.939257891207994
  10
167.4837017520248
  20
64.2617327053741
  10
166.7430563231316
  20
64.51504832403275
  10
166.09381514413852
  20
64.70713704768636
  10
165.4481669301169
  20
64.86909371372643
  10
165.22655984334764
  20
64.96372884931719
  10
165.1207784608201
  20
65.0699000322393
  10
165.1207784608201
  20
67.34701262021761
  10
165.22655984291134
  20
67.45318380461434
  10
165.44816693011757
  20
67.5478189387277
  10
166.09381514414142
  20
67.70977560476851
  10
166.74305632345227
  20
67.90186432734048
  10
167.48370174104454
  20
68.15517997918755
  10
168.31158708634155
  20
68.47765476124897
  10
169.22204673767524
  20
68.87697222567303
  10
170.13308937508486
  20
69.32292706566673
  10
170.13308937508498
  20
70.36571969618619
  10
170.002392802764
  20
71.40028959534695
  10
169.04264104654644
  20
71.72854402856561
  10
168.08931289246945
  20
72.01060190338093
  10
167.2275388700888
  20
72.22677236134841
  10
166.46098478602366
  20
72.38526302416442
  10
165.79278796677914
  20
72.4944655745316
  10
165.13193232911877
  20
72.57422398547749
  10
164.9002117528671
  20
72.64033816199242
  10
164.7819577104692
  20
72.7324142307023
  10
164.49655982662787
  20
74.99157110578383
  10
164.58820031307417
  20
75.11016302134821
  10
164.79619903483973
  20
75.23182666198326
  10
165.41645756719805
  20
75.47342742974686
  10
166.03650418515988
  20
75.74537297173336
  10
166.73956052265595
  20
76.08951863911533
  10
167.52050093754926
  20
76.51321215854821
  10
168.37373359355607
  20
77.02349173762641
  10
169.22169942553376
  20
77.58011401016793
  10
169.09100285321375
  20
78.6146839093287
  10
168.8316708715935
  20
79.62471529179888
  10
167.83834585509035
  20
79.83009254974097
  10
166.85718375275073
  20
79.99044261376841
  10
165.97511173343784
  20
80.09689957828115
  10
165.19473801002366
  20
80.15806579282417
  10
164.5181234135286
  20
80.1826599804512
  10
163.85248244041142
  20
80.17896229851692
  10
163.61430274658804
  20
80.21551285589767
  10
163.48544098120988
  20
80.29204171578822
  10
162.91914610864387
  20
82.49761462449804
  10
162.9952004742306
  20
82.62675700587822
  10
163.18631056646083
  20
82.77353044474381
  10
163.77139756957382
  20
83.09096512579727
  10
164.35247112062353
  20
83.43847874354877
  10
165.00685075959555
  20
83.86802704370835
  10
165.72853034723104
  20
84.38625740060903
  10
166.5110800192293
  20
84.99945168055307
  10
167.28259611805515
  20
85.65796311989436
  10
167.02326413643493
  20
86.66799450236448
  10
166.63938656578196
  20
87.63755856987902
  10
165.62815361788748
  20
87.71681973050042
  10
164.63463107975687
  20
87.7529331674418
  10
163.74617186618062
  20
87.7479977485751
  10
162.96428546320834
  20
87.71087488710289
  10
162.28992370583944
  20
87.65047284695902
  10
161.6299949530461
  20
87.56337738679755
  10
161.38911237770424
  20
87.56978790092
  10
161.25167511636417
  20
87.6295626461546
  10
160.41341406350202
  20
89.74676838617697
  10
160.47268288545115
  20
89.88442458087268
  10
160.64389042782796
  20
90.05399311315969
  10
161.1845787301425
  20
90.4422555729565
  10
161.7175153372635
  20
90.8598567691265
  10
162.31289831989744
  20
91.36803346877048
  10
162.96393576206765
  20
91.97262786083478
  10
163.66346117425744
  20
92.67906640154544
  10
164.3463602701716
  20
93.42908188891245
  10
163.96248269951872
  20
94.39864595642707
  10
163.46011351843967
  20
95.31245210445171
  10
162.44692038682325
  20
95.26434717190111
  10
161.45670585682964
  20
95.17565445128271
  10
160.57587098152786
  20
95.05940448354042
  10
159.80480271464864
  20
94.92457799575449
  10
159.14332888416382
  20
94.7801323040952
  10
158.49951982234822
  20
94.61101261314164
  10
158.25973322759728
  20
94.5871819863686
  10
158.11588793800766
  20
94.6292599335072
  10
157.01888058240584
  20
96.62470890556456
  10
157.06042915598982
  20
96.76870799315361
  10
157.20903410329547
  20
96.95839742181255
  10
157.69679672729256
  20
97.41136452942496
  10
158.17319166182963
  20
97.892467483687
  10
158.7001884428248
  20
98.47125833269192
  10
159.2703164901558
  20
99.15268194518984
  10
159.87578570891063
  20
99.94122378887418
  10
160.45929807522643
  20
100.77091513199358
  10
159.95692889414752
  20
101.68472128001827
  10
159.3439907647291
  20
102.52835823971762
  10
158.34481611032825
  20
102.35364585751758
  10
157.3735258631351
  20
102.14154571652602
  10
156.51420661827657
  20
101.91581453134378
  10
155.76611669467297
  20
101.68541071149797
  10
155.12796262852427
  20
101.45919936316844
  10
154.51042651118414
  20
101.21072255997628
  10
154.27551747486493
  20
101.15702661552771
  10
154.1275326831716
  20
101.18074417020779
  10
152.78907948614838
  20
103.02296695198734
  10
152.81225256554185
  20
103.17103798083758
  10
152.93591132898507
  20
103.37785679026354
  10
153.36305596670897
  20
103.88838498381507
  10
153.77539619595996
  20
104.42540241518344
  10
154.22569572126747
  20
105.06567953610764
  10
154.7059231138748
  20
105.81318591160732
  10
155.20778752792515
  20
106.67139528233838
  10
155.68271082605253
  20
107.5676777530957
  10
155.06977269663386
  20
108.41131471279492
  10
154.35593201932795
  20
109.17147782534984
  10
153.38653342332103
  20
108.87291331213606
  10
152.44948528634725
  20
108.54075069669727
  10
151.62523364975587
  20
108.20909820971069
  10
150.91191989441032
  20
107.88675066368052
  10
150.30714966343567
  20
107.582341146776
  10
149.72562540403965
  20
107.25842585896444
  10
149.49929858198277
  20
107.1757114139607
  10
149.34950809675257
  20
107.18069453617676
  10
147.79071726477824
  20
108.84063817391933
  10
147.79514939667624
  20
108.99044597545243
  10
147.89191180368735
  20
109.21113250947317
  10
148.2517021290373
  20
109.77117045437676
  10
148.5934848012668
  20
110.35563327716014
  10
148.95998557837663
  20
111.0472991173236
  10
149.342738843405
  20
111.84909963374477
  10
149.733083751142
  20
112.76344205707669
  10
150.09192815696377
  20
113.71218074549473
  10
149.37808747965792
  20
114.47234385804964
  10
148.5746019483737
  20
115.13704489707592
  10
147.65026740571028
  20
114.71933679357552
  10
146.76223918784137
  20
114.2723501065593
  10
145.98605410021023
  20
113.84000667560773
  10
145.31876589715756
  20
113.4307990167552
  10
144.75691708917162
  20
113.0529920512027
  10
144.22057567267618
  20
112.65874661635817
  10
144.00640037406657
  20
112.54831812700814
  10
143.85716648073208
  20
112.53448822994609
  10
142.10262107640332
  20
113.98597442088219
  10
142.08824236343818
  20
114.13515643657715
  10
142.15658241305556
  20
114.36623033671944
  10
142.44334431767248
  20
114.9669459000335
  10
142.70917931596836
  20
115.5896367863754
  10
142.98610140868857
  20
116.3217833622976
  10
143.26534429850273
  20
117.16523314652389
  10
143.53801372755063
  20
118.12128889623904
  10
143.77512005042394
  20
119.10752162645251
  10
142.97163451913968
  20
119.77222266547876
  10
142.09117558068453
  20
120.33097889851787
  10
141.22648239927292
  20
119.80071471104961
  10
140.401478835987
  20
119.24595319952712
  10
139.68560119981854
  20
118.71973713878612
  10
139.07486208263953
  20
118.23012281634013
  10
138.56479538897648
  20
117.78487664367735
  10
138.08209523991454
  20
117.32651854781813
  10
137.88344913715338
  20
117.1901175373657
  10
137.7371253433605
  20
117.15769272676376
  10
135.81449559581824
  20
118.3778306665865
  10
135.78153279888284
  20
118.52403420693877
  10
135.82037272769963
  20
118.76185129976051
  10
136.0295838050445
  20
119.39377083820149
  10
136.21527875268148
  20
120.04486958084684
  10
136.3982549341846
  20
120.80595050366233
  10
136.56958362160057
  20
121.67774784874399
  10
136.7202774121785
  20
122.66043935454931
  10
136.8319063437512
  20
123.66861264725593
  10
135.95144740529588
  20
124.2273688802949
  10
135.0079004230895
  20
124.6713683877666
  10
134.2164853309436
  20
124.03691069933171
  10
133.46751722126697
  20
123.3831232837381
  10
132.8232368545281
  20
122.77133333483178
  10
132.27867854393853
  20
122.20903385913876
  10
131.8284380210565
  20
121.70337027748576
  10
131.40699160912988
  20
121.18812810159342
  10
131.22700746992314
  20
121.02790569545539
  10
131.08590138930956
  20
120.97739732994643
  10
129.02550831819588
  20
121.94694471446971
  10
128.97448128028893
  20
122.0878640623102
  10
128.9832085594259
  20
122.32867383019254
  10
129.11156942583227
  20
122.9818315951488
  10
129.21419580255736
  20
123.65106997797852
  10
129.30034042915642
  20
124.42908254688678
  10
129.36105295842685
  20
125.31547868790541
  10
129.38739457943726
  20
126.30930831772292
  10
129.37178566477436
  20
127.3235226778431
  10
128.42823868256824
  20
127.76752218531493
  10
127.43648395616813
  20
128.08976282975442
  10
126.73082804205924
  20
127.36111741710576
  10
126.06970706049333
  20
126.61861471553863
  10
125.50718464944197
  20
125.93089917142686
  10
125.0373951553032
  20
125.30478234111987
  10
124.65408136520871
  20
124.74667596722813
  10
124.30053515209337
  20
124.18267538820723
  10
124.14205143383366
  20
124.00115838944066
  10
124.00838839358335
  20
123.93336301612094
  10
121.84272562844885
  20
124.63702950391135
  10
121.77443907644022
  20
124.77044227694344
  10
121.75291607149191
  20
125.0104470059941
  10
121.79840239941755
  20
125.67454230933474
  10
121.81634172596375
  20
126.35136604326797
  10
121.80429624543697
  20
127.13404053529516
  10
121.75343514370738
  20
128.0210564755995
  10
121.65500917205121
  20
129.01035094248195
  10
121.51240857306138
  20
130.0146116036942
  10
120.52065384666128
  20
130.33685224813365
  10
119.49633194054815
  20
130.53225210208072
  10
118.88756381978031
  20
129.72091013864767
  10
118.32471623913895
  20
128.90140186226034
  10
117.85282309823201
  20
128.14860640789513
  10
117.46521128150525
  20
127.46854645941218
  10
117.15486931164864
  20
126.86679896419454
  10
116.87479893232367
  20
126.26293460809387
  10
116.74031501792153
  20
126.0629856482023
  10
116.61620296402566
  20
125.97897244060809
  10
114.37942430038076
  20
126.40566079080315
  10
114.29495515398803
  20
126.52946298989924
  10
114.2435212955997
  20
126.7648776621692
  10
114.205415738481
  20
127.42943732424922
  10
114.13838510095225
  20
128.10317249468693
  10
114.02833947772316
  20
128.8781656655467
  10
113.86670685495075
  20
129.7518126338805
  10
113.64506552699785
  20
130.72097017310927
  10
113.37772214031258
  20
131.69943934487011
  10
112.35340023419943
  20
131.89483919881715
  10
111.3126653167331
  20
131.96031668984912
  10
110.81038562623117
  20
131.07907352306688
  10
110.35468788908992
  20
130.1954838069285
  10
109.98086605505478
  20
129.38948047632337
  10
109.68154478563788
  20
128.66620236130018
  10
109.4490689142731
  20
128.03030366222274
  10
109.24689124592639
  20
127.39609883066909
  10
109.13852802704875
  20
127.18087122419371
  10
109.02592428073822
  20
127.08196512079583
  10
106.7533050542954
  20
127.22494620322172
  10
106.6539854424166
  20
127.3371853937462
  10
106.57345187326014
  20
127.56429737922383
  10
106.452355378496
  20
128.21884089718358
  10
106.30141189008829
  20
128.87886229801808
  10
106.0951016093733
  20
129.63395204244748
  10
105.82524650857383
  20
130.48045210422873
  10
105.48388524046814
  20
131.41418852246352
  10
105.09601523099877
  20
132.35143516142531
  10
104.05528031353234
  20
132.41691265245694
  10
103.01454539606587
  20
132.3514351614253
  10
102.62667538659645
  20
131.41418852246358
  10
102.28531411849066
  20
130.48045210422856
  10
102.0154589849604
  20
129.63395205139022
  10
101.80914873807794
  20
128.87886229776612
  10
101.65820524857075
  20
128.2188408971808
  10
101.53710875380723
  20
127.56429737922336
  10
101.45657518314883
  20
127.33718539408903
  10
101.35725557276916
  20
127.22494620322172
  10
99.08463634632633
  20
127.08196512079583
  10
98.97203259857146
  20
127.18087122366566
  10
98.86366938114088
  20
127.3960988306699
  10
98.66149171279329
  20
128.03030366222578
  10
98.42901584248807
  20
128.66620236168825
  10
98.12969454065784
  20
129.38948046334886
  10
97.75587273797456
  20
130.19548380692862
  10
97.30017500083342
  20
131.0790735230668
  10
96.79789531033153
  20
131.96031668984892
  10
95.75716039286515
  20
131.89483919881727
  10
94.73283848675203
  20
131.69943934487014
  10
94.46549510006678
  20
130.72097017310935
  10
94.24385377211382
  20
129.75181263388038
  10
94.08222111574784
  20
128.8781656703167
  10
93.97217552723693
  20
128.10317249457503
  10
93.90514488858614
  20
127.42943732424675
  10
93.86703933146775
  20
126.76487766216907
  10
93.81560547154629
  20
126.5294629900515
  10
93.73113632668384
  20
126.40566079080317
  10
91.49435766303894
  20
125.97897244060809
  10
91.37024560777631
  20
126.06298564749738
  10
91.23576169474354
  20
126.26293460809504
  10
90.95569131541741
  20
126.86679896419777
  10
90.64534934656376
  20
127.46854645993024
  10
90.25773749935402
  20
128.1486063910935
  10
89.78584438792556
  20
128.90140186226049
  10
89.22299680728435
  20
129.7209101386476
  10
88.61422868651651
  20
130.53225210208075
  10
87.58990678040337
  20
130.3368522481337
  10
86.59815205400324
  20
130.0146116036942
  10
86.4555514550134
  20
129.01035094248203
  10
86.35712548335722
  20
128.02105647559935
  10
86.3062643477011
  20
127.13404053581712
  10
86.29421890223057
  20
126.35136604329789
  10
86.31215822764987
  20
125.67454230933261
  10
86.35764455557555
  20
125.01044700599434
  10
86.3361215490871
  20
124.77044227690271
  10
86.26783499861575
  20
124.63702950391136
  10
84.10217223348126
  20
123.93336301612095
  10
83.9685091919633
  20
124.00115838857003
  10
83.81002547497368
  20
124.18267538820871
  10
83.45647926185691
  20
124.74667596723152
  10
83.07316547269295
  20
125.30478234175973
  10
82.6033759504823
  20
125.93089915106307
  10
82.04085356657119
  20
126.61861471553874
  10
81.37973258500543
  20
127.3611174171057
  10
80.67407667089653
  20
128.08976282975436
  10
79.6823219444964
  20
127.7675221853149
  10
78.7387749622902
  20
127.32352267784307
  10
78.7231660476273
  20
126.30930831772301
  10
78.7495076686377
  20
125.31547868790526
  10
78.8102201641837
  20
124.42908254315249
  10
78.89636482562426
  20
123.65106997814976
  10
78.99899120123534
  20
122.98183159514703
  10
79.12735206764145
  20
122.32867383019311
  10
79.13607934525555
  20
122.08786406207709
  10
79.08505230886868
  20
121.94694471446972
  10
77.024659237755
  20
120.9773973299464
  10
76.88355315599287
  20
121.02790569443275
  10
76.70356901793691
  20
121.18812810159517
  10
76.28212260600864
  20
121.70337027748924
  10
75.83188208397004
  20
122.20903385989028
  10
75.2873237481624
  20
122.77133331122698
  10
74.64304340579747
  20
123.38312328373819
  10
73.89407529612102
  20
124.03691069933163
  10
73.10266020397503
  20
124.67136838776668
  10
72.15911322176878
  20
124.22736888029479
  10
71.27865428331346
  20
123.66861264725587
  10
71.39028321488601
  20
122.66043935454937
  10
71.54097700546399
  20
121.67774784874379
  10
71.71230565988944
  20
120.80595049573066
  10
71.89528187546982
  20
120.04486958115672
  10
72.08097682202327
  20
119.39377083820008
  10
72.29018789936757
  20
118.76185129976139
  10
72.32902782670281
  20
118.52403420651694
  10
72.29606503124629
  20
118.37783066658645
  10
70.37343528370404
  20
117.15769272676371
  10
70.22711148889985
  20
117.19011753620711
  10
70.02846538715197
  20
117.32651854782011
  10
69.5457652380882
  20
117.78487664368085
  10
69.03569854516816
  20
118.2301228171915
  10
68.4249594060226
  20
118.71973711231252
  10
67.70908179107738
  20
119.24595319952715
  10
66.88407822779166
  20
119.80071471104951
  10
66.01938504638018
  20
120.33097889851769
  10
65.13892610792496
  20
119.77222266547875
  10
64.33544057664069
  20
119.10752162645252
  10
64.57254689951391
  20
118.1212888962391
  10
64.84521632856189
  20
117.16523314652372
  10
65.12445918663977
  20
116.32178335029371
  10
65.40138131213558
  20
115.58963678681909
  10
65.66721630939549
  20
114.96694590003253
  10
65.95397821401156
  20
114.36623033672068
  10
66.02231826221205
  20
114.13515643597331
  10
66.00793955066123
  20
113.98597442088217
  10
64.25339414633251
  20
112.53448822994608
  10
64.10416025213988
  20
112.548318125732
  10
63.889984954390115
  20
112.65874661636042
  10
63.35364353789263
  20
113.05299205120622
  10
62.7917947305376
  20
113.43079901769302
  10
62.124506509116294
  20
113.84000664668292
  10
61.34832143922304
  20
114.27235010655936
  10
60.46029322135435
  20
114.71933679357547
  10
59.53595867869093
  20
115.13704489707594
  10
58.73247314740668
  20
114.47234385804968
  10
58.01863247010073
  20
113.71218074549473
  10
58.37747687592251
  20
112.76344205707673
  10
58.76782178365962
  20
111.8490996337446
  10
59.15057501870642
  20
111.04729910143672
  10
59.51707582677333
  20
110.35563327773056
  10
59.85885849803075
  20
109.7711704543762
  10
60.21864882337959
  20
109.21113250947471
  10
60.3154112290608
  20
108.99044597467608
  10
60.319843362286306
  20
108.84063817391929
  10
58.76105253031197
  20
107.18069453617672
  10
58.61126204439035
  20
107.17571141258702
  10
58.38493522302632
  20
107.25842585896687
  10
57.80341096362815
  20
107.58234114677941
  10
57.19864073316231
  20
107.88675066468996
  10
56.485326963335744
  20
108.20909817879075
  10
55.661075340717154
  20
108.54075069669729
  10
54.724027203743596
  20
108.87291331213599
  10
53.75462860773666
  20
109.17147782534983
  10
53.04078793043084
  20
108.41131471279492
  10
52.42784980101224
  20
107.5676777530957
  10
52.90277309913941
  20
106.6713952823385
  10
53.404637513189876
  20
105.8131859116072
  10
53.8848648780432
  20
105.06567951658842
  10
54.33516443200103
  20
104.4254024158717
  10
54.747504660359176
  20
103.88838498381503
  10
55.17464929808168
  20
103.37785679026543
  10
55.29830806030299
  20
103.17103797990104
  10
55.3214811409162
  20
103.02296695198737
  10
53.983027943893006
  20
101.18074417020779
  10
53.83504315168587
  20
101.15702661407828
  10
53.60013411588157
  20
101.21072255997893
  10
52.982597998539184
  20
101.4591993631718
  10
52.34444393276918
  20
101.68541071256318
  10
51.596353998800545
  20
101.91581449891646
  10
50.737034763929344
  20
102.14154571652608
  10
49.76574451673644
  20
102.35364585751759
  10
48.76656986233574
  20
102.52835823971756
  10
48.15363173291709
  20
101.68472128001832
  10
47.65126255183818
  20
100.77091513199365
  10
48.234774918153896
  20
99.94122378887423
  10
48.84024413690888
  20
99.1526819451897
  10
49.410372159151066
  20
98.47125830984808
  10
49.937368966037994
  20
97.89246748448213
  10
50.41376389977554
  20
97.41136452942531
  10
50.901526523771004
  20
96.95839742181465
  10
51.050131469982
  20
96.76870799207153
  10
51.09168004465873
  20
96.62470890556453
  10
49.99467268905691
  20
94.62925993350716
  10
49.85082739913921
  20
94.58718198486615
  10
49.611040804717135
  20
94.61101261314434
  10
48.9672317428992
  20
94.78013230409836
  10
48.30575791265701
  20
94.92457799685857
  10
47.53468963969223
  20
95.05940445011699
  10
46.65385477023479
  20
95.1756544512827
  10
45.66364024024141
  20
95.26434717190108
  10
44.65044710862478
  20
95.31245210445182
  10
44.1480779275458
  20
94.39864595642705
  10
43.76420035689289
  20
93.42908188891246
  10
44.44709945280709
  20
92.67906640154547
  10
45.14662486499704
  20
91.97262786083463
  10
45.79766228513936
  20
91.36803344296231
  10
46.39304529049814
  20
90.85985677001601
  10
46.925981896925514
  20
90.44225557295728
  10
47.46667019923825
  20
90.053993113162
  10
47.63787774066491
  20
89.88442457966217
  10
47.697146563562576
  20
89.74676838617694
  10
46.85888551070041
  20
87.62956264615457
  10
46.72144824922315
  20
87.56978789938827
  10
46.48056567401889
  20
87.56337738680034
  10
45.82063692122317
  20
87.65047284696193
  10
45.14627516395703
  20
87.71087488822849
  10
44.364388759274625
  20
87.74799771468273
  10
43.47592954730752
  20
87.75293316744175
  10
42.48240700917718
  20
87.7168197305004
  10
41.47117406128242
  20
87.63755856987908
  10
41.08729649062957
  20
86.66799450236454
  10
40.827964509009355
  20
85.65796311989435
  10
41.59948060783521
  20
84.99945168055308
  10
42.382030279833664
  20
84.38625740060888
  10
43.1037098488496
  20
83.86802701534289
  10
43.75808950702114
  20
83.43847874451862
  10
44.339163057494076
  20
83.09096512579848
  10
44.924250060605075
  20
82.7735304447463
  10
45.115360152044666
  20
82.62675700455839
  10
45.1914145184207
  20
82.497614624498
  10
44.62511964585471
  20
80.29204171578817
  10
44.49625788053242
  20
80.21551285436082
  10
44.258078186653236
  20
80.17896229851974
  10
43.59243721353366
  20
80.18265998045385
  10
42.91582261699983
  20
80.15806579395351
  10
42.13544889627793
  20
80.0968995444543
  10
41.2533768743137
  20
79.99044261376835
  10
40.2722147719743
  20
79.83009254974095
  10
39.278889755471155
  20
79.62471529179886
  10
39.01955777385095
  20
78.61468390932868
  10
38.88886120153091
  20
77.58011401016788
  10
39.73682703350846
  20
77.02349173762643
  10
40.590059689515485
  20
76.5132121585481
  10
41.37100008949115
  20
76.08951860863989
  10
42.07405644235864
  20
75.74537297276827
  10
42.69410305986967
  20
75.47342742974848
  10
43.31436159222586
  20
75.2318266619859
  10
43.52236031337272
  20
75.11016301993985
  10
43.61400080043671
  20
74.9915711057838
  10
43.32860291659541
  20
72.73241423070226
  10
43.21034887444551
  20
72.64033816047468
  10
42.978628297945534
  20
72.57422398548029
  10
42.31777266028282
  20
72.49446557453395
  10
41.64957584085862
  20
72.38526302527971
  10
40.88302176384569
  20
72.22677232812059
  10
40.02124773459499
  20
72.01060190338086
  10
39.067919580518236
  20
71.72854402856561
  10
38.108167824300445
  20
71.4002895953469
  10
37.97747125198041
  20
70.36571969618619
  0
LWPOLYLINE
  5
CAD00002
  100
AcDbEntity
  8
0
  67
0
  100
AcDbPolyline
  90
31
  70
1
  10
104.34744637065711
  20
68.18700099215444
  10
104.75242440817593
  20
68.08302030521224
  10
105.12693390349028
  20
67.89711217723249
  10
105.45460699455903
  20
67.63740168549407
  10
105.72112279495249
  20
67.31523942471514
  10
105.9148332853088
  20
66.94470543159781
  10
106.0272723876733
  20
66.54199381966066
  10
106.05352597373
  20
66.12470501877006
  10
105.99244663578955
  20
65.71107655189874
  10
105.84670383401112
  20
65.3191859678586
  10
105.62266722818397
  20
64.96616076567183
  10
105.33012829302967
  20
64.66742984067687
  10
104.98187238377201
  20
64.43604916776603
  10
104.59311995476283
  20
64.28213119263314
  10
104.18086135259092
  20
64.21240286937191
  10
103.76311425640748
  20
64.22991166030248
  10
103.35813621888866
  20
64.33389234724467
  10
102.9836267235743
  20
64.51980047522443
  10
102.65595363250556
  20
64.77951096696285
  10
102.3894378321121
  20
65.10167322774177
  10
102.19572734175578
  20
65.4722072208591
  10
102.08328823939128
  20
65.87491883279625
  10
102.05703465333458
  20
66.29220763368686
  10
102.11811399127504
  20
66.70583610055817
  10
102.26385679305346
  20
67.09772668459831
  10
102.48789339888062
  20
67.45075188678508
  10
102.78043233403491
  20
67.74948281178004
  10
103.12868824329257
  20
67.98086348469089
  10
103.51744067230176
  20
68.13478145982377
  10
103.92969927447366
  20
68.204509783085
  10
104.34744637065711
  20
68.18700099215444
  0
LWPOLYLINE
  5
CAD00003
  100
AcDbEntity
  8
0
  67
0
  100
AcDbPolyline
  90
286
  70
1
  10
41.068467349670314
  20
57.404612295860474
  10
41.36984338408241
  20
58.232636145172485
  10
40.92677989348808
  20
58.862624409036314
  10
40.036886903655784
  20
59.812976905393214
  10
39.29808357433143
  20
60.408726985979385
  10
38.78640480368741
  20
60.71473874709733
  10
38.56222361444526
  20
60.80935231941756
  10
38.208081865657874
  20
60.90346118441532
  10
37.49118673125052
  20
61.26137340980587
  10
37.19949403748287
  20
61.6637977781985
  10
37.67293236583184
  20
63.89114999273023
  10
38.10308763794281
  20
64.14014083945102
  10
38.903579948657864
  20
64.17552240678184
  10
39.26538205845708
  20
64.11745270684963
  10
39.50866457237303
  20
64.11270380172041
  10
40.100572585525924
  20
64.18414095056944
  10
41.01781639901107
  20
64.42788734451722
  10
42.21731728176727
  20
64.9341254633423
  10
42.87831523266812
  20
65.32943822332948
  10
42.939782166244484
  20
66.20845632622846
  10
42.87831523266812
  20
67.08747442912745
  10
42.21731728176727
  20
67.48278718911463
  10
41.01781639901107
  20
67.9890253079397
  10
40.100572585525825
  20
68.2327717018868
  10
39.50866457237301
  20
68.30420885073642
  10
39.26538205845698
  20
68.29945994560781
  10
38.90357994865779
  20
68.24139024567563
  10
38.103087637942735
  20
68.2767718130097
  10
37.67293236583184
  20
68.5257626597267
  10
37.19949403748287
  20
70.75311487425842
  10
37.49118673124903
  20
71.15553924265456
  10
38.20808186565772
  20
71.51345146804213
  10
38.56222361444513
  20
71.60756033303987
  10
38.786404803687475
  20
71.70217390535952
  10
39.29808357433179
  20
72.00818566647696
  10
40.036886903655784
  20
72.6039357470637
  10
40.926779893488074
  20
73.5542882434206
  10
41.3698433840824
  20
74.18427650728444
  10
41.068467349670314
  20
75.01230035659644
  10
40.65478563933041
  20
75.79032249746243
  10
39.890145778811664
  20
75.88260658606748
  10
38.58844160288353
  20
75.85719715758694
  10
37.651357093487434
  20
75.70679389901504
  10
37.08156611061541
  20
75.53130430357409
  10
36.861248028833856
  20
75.42801404983584
  10
36.55434442967613
  20
75.22780656363867
  10
35.80866733542034
  20
74.93453967849275
  10
35.31442723935215
  20
74.9870442241259
  10
33.97597404232895
  20
76.82926700590546
  10
34.07876784105322
  20
77.31554206677063
  10
34.58810811762842
  20
77.93409867491496
  10
34.873355179761916
  20
78.16411382713235
  10
35.03967208008847
  20
78.34173033070947
  10
35.38264770032412
  20
78.82940449056854
  10
35.81526473802929
  20
79.67414765664124
  10
36.241679252571664
  20
80.90428995022847
  10
36.390198580230255
  20
81.66002302388321
  10
35.77809023209489
  20
82.29387977370166
  10
35.08372307088957
  20
82.83637885626965
  10
34.347654479171666
  20
82.60967751619813
  10
33.16882348770076
  20
82.05701406143368
  10
32.373928707213906
  20
81.53846724012057
  10
31.924776791949846
  20
81.14639464571374
  10
31.765518140169718
  20
80.96242286659967
  10
31.56657947207949
  20
80.6546952873289
  10
31.00465193814353
  20
80.08348845839073
  10
30.531785620758548
  20
79.93042819001126
  10
28.559748272291998
  20
81.06898448400041
  10
28.455869194322606
  20
81.55502886164078
  10
28.66958505203333
  20
82.32727579558335
  10
28.836615619081815
  20
82.65342552557992
  10
28.916310527484516
  20
82.88333345335076
  10
29.03127939673706
  20
83.46834671933117
  10
29.082906726801777
  20
84.41601920322512
  10
28.972111822635604
  20
85.71324851598953
  10
28.80040664635056
  20
86.46405328538083
  10
27.983405078714284
  20
86.79414334525433
  10
27.12841485694357
  20
87.00731634969887
  10
26.54819048050777
  20
86.50082830216617
  10
25.69606326126277
  20
85.51647135323645
  10
25.18080273862371
  20
84.71944242543715
  10
24.92995233753381
  20
84.17857974550506
  10
24.859290383467325
  20
83.94573683295515
  10
24.802714949458462
  20
83.583698054684
  10
24.52169935141124
  20
82.83331813192814
  10
24.151969694840954
  20
82.50115856044772
  10
21.88733136787781
  20
82.73918163995651
  10
21.594741049507455
  20
83.14095384590352
  10
21.4758790750079
  20
83.9333625951225
  10
21.49581204450363
  20
84.29925265160458
  10
21.475104987314136
  20
84.5416988342096
  10
21.342187943630417
  20
85.12289709794467
  10
21.003898731666933
  20
86.00963771786036
  10
20.375051854262647
  20
87.14965131666668
  10
19.912811558906203
  20
87.76570681631958
  10
19.032183765039573
  20
87.73495461612194
  10
18.164406059389947
  20
87.58194199335861
  10
17.840351964094975
  20
86.8832436230826
  10
17.462269054616094
  20
85.6373974390597
  10
17.315736015184022
  20
84.69969994717121
  10
17.306561441521072
  20
84.10356725265731
  10
17.33671427897003
  20
83.8621138615629
  10
17.432284485554348
  20
83.5083636780735
  10
17.480770973244788
  20
82.708558167132
  10
17.278107593998687
  20
82.25473270003457
  10
15.112444828864195
  20
81.55106621224417
  10
14.681734794238707
  20
81.79909618210365
  10
14.250847302746987
  20
82.47465207505161
  10
14.120236083178803
  20
82.81701674324663
  10
14.002707498702893
  20
83.030080033159
  10
13.64488710644926
  20
83.50696883482846
  10
12.975174630467063
  20
84.17945208179682
  10
11.9370091178224
  20
84.96513125871303
  10
11.264159249782942
  20
85.33991589604902
  10
10.472173775497835
  20
84.9536387705694
  10
9.741655234789075
  20
84.46089779315002
  10
9.729803317650468
  20
83.69080039582686
  10
9.89113868776201
  20
82.39888310008558
  10
10.1386700252656
  20
81.4826534591697
  10
10.372757646164315
  20
80.93432750865097
  10
10.498511575603859
  20
80.72601312386746
  10
10.729702465834858
  20
80.44171815560465
  10
11.099307285055373
  20
79.73078069532426
  10
11.098752522544109
  20
79.23375987874593
  10
9.40652808575859
  20
77.71007415200461
  10
8.912172012742543
  20
77.76147525070635
  10
8.243763366027544
  20
78.20336853625996
  10
7.985191823824469
  20
78.46300985475163
  10
7.791163472031695
  20
78.60984967352628
  10
7.270310127725015
  20
78.89997060692274
  10
6.384973758968272
  20
79.24191801822445
  10
5.116997859657086
  20
79.53741170589046
  10
4.349880273767788
  20
79.60612181230263
  10
3.7834786025302627
  20
78.93111058575396
  10
3.316532519003509
  20
78.18384064508561
  10
3.6189320841658237
  20
77.47550105682765
  10
4.291789382689679
  20
76.36089688650186
  10
4.890584680122956
  20
75.62455952515792
  10
5.327458619310674
  20
75.21885085686392
  10
5.527069643902124
  20
75.07969492799717
  10
5.853906212555561
  20
74.91401235771228
  10
6.480721332308551
  20
74.41487049363957
  10
6.68237111001018
  20
73.96059374205907
  10
5.756185980070235
  20
71.8803478807707
  10
5.283662524772037
  20
71.72623239138484
  10
4.493306650152707
  20
71.85805570599739
  10
4.151484154010365
  20
71.9900793320512
  10
3.914505299617936
  20
72.04530574102411
  10
3.3206792782929178
  20
72.09849426109737
  10
2.3728017179480787
  20
72.05078002282366
  10
1.094259984160697
  20
71.80499467816615
  10
0.36551628006629855
  20
71.55574965204411
  10
0.12263440643097567
  20
70.70871989778112
  10
0
  20
69.83613075533964
  10
0.5643634154328616
  20
69.31202732601986
  10
1.6323995027376021
  20
68.56746146801989
  10
2.4789216132898524
  20
68.13833580543917
  10
3.04304239780587
  20
67.94539513386547
  10
3.2819959579881406
  20
67.89945898520845
  10
3.647965193126822
  20
67.88103683448266
  10
4.423608584770406
  20
67.67999672947725
  10
4.792595824189597
  20
67.34701262021761
  10
4.792595824189597
  20
65.0699000322393
  10
4.423608584771131
  20
64.73691592297591
  10
3.6479651931268613
  20
64.53587581797369
  10
3.2819959579881584
  20
64.51745366724792
  10
3.043042397805827
  20
64.47151751859151
  10
2.4789216132896144
  20
64.27857684701839
  10
1.6323995027376021
  20
63.84945118443702
  10
0.5643634154328652
  20
63.104885326437035
  10
7.105427357601002e-15
  20
62.580781897117255
  10
0.12263440643097212
  20
61.70819275467579
  10
0.3655162800663021
  20
60.861163000412795
  10
1.0942599841607006
  20
60.611917974290755
  10
2.3728017179480823
  20
60.36613262963325
  10
3.320679278292875
  20
60.318418391360225
  10
3.914505299617943
  20
60.3716069114329
  10
4.151484154010568
  20
60.42683332040523
  10
4.493306650152899
  20
60.558856946459
  10
5.283662524772897
  20
60.690680261068366
  10
5.756185980070235
  20
60.53656477168621
  10
6.68237111001018
  20
58.45631891039784
  10
6.480721332310736
  20
58.00204215881423
  10
5.8539062125558186
  20
57.502900294744144
  10
5.527069643902356
  20
57.337217724459265
  10
5.327458619310601
  20
57.19806179559305
  10
4.89058468012248
  20
56.792353127299485
  10
4.291789382689682
  20
56.05601576595504
  10
3.6189320841658272
  20
54.941411595629255
  10
3.3165325190035198
  20
54.2330720073713
  10
3.783478602530252
  20
53.48580206670297
  10
4.349880273767784
  20
52.81079084015428
  10
5.116997859657083
  20
52.87950094656646
  10
6.384973758968263
  20
53.17499463423247
  10
7.270310127724688
  20
53.51694204553479
  10
7.791163472031656
  20
53.80706297893073
  10
7.985191823824845
  20
53.95390279770492
  10
8.24376336602792
  20
54.21354411619657
  10
8.91217201274483
  20
54.65543740174752
  10
9.406528085758582
  20
54.70683850045231
  10
11.0987525225441
  20
53.18315277371099
  10
11.099307285058629
  20
52.6861319571307
  10
10.729702465835285
  20
51.97519449685194
  10
10.498511575604262
  20
51.690899528589114
  10
10.372757646164217
  20
51.48258514380597
  10
10.138670025264958
  20
50.934259193287474
  10
9.891138687762004
  20
50.01802955237133
  10
9.729803317650466
  20
48.72611225663007
  10
9.741655234789075
  20
47.95601485930688
  10
10.472173775497831
  20
47.463273881887524
  10
11.264159249782951
  20
47.07699675640788
  10
11.937009117822406
  20
47.451781393743886
  10
12.975174630467066
  20
48.23746057066009
  10
13.644887106448724
  20
48.90994381762888
  10
14.00270749870283
  20
49.38683261929799
  10
14.120236083179305
  20
49.599895909210105
  10
14.250847302747498
  20
49.942260577405094
  10
14.68173479424204
  20
50.617816470351414
  10
15.112444828864193
  20
50.865846440212756
  10
17.278107593998687
  20
50.162179952422335
  10
17.480770973248568
  20
49.708354485324456
  10
17.432284485554884
  20
48.908548974383294
  10
17.336714278970543
  20
48.55479879089387
  10
17.306561441520984
  20
48.31334539979958
  10
17.315736015183337
  20
47.71721270528568
  10
17.462269054616094
  20
46.77951521339722
  10
17.84035196409498
  20
45.53366902937431
  10
18.164406059389957
  20
44.834970659098296
  10
19.032183765039562
  20
44.68195803633498
  10
19.912811558906213
  20
44.651205836137336
  10
20.37505185426265
  20
45.26726133579024
  10
21.003898731666933
  20
46.407274934596565
  10
21.342187943629757
  20
47.29401555451241
  10
21.47510498731405
  20
47.87521381824735
  10
21.495812044504163
  20
48.11766000085237
  10
21.475879075008454
  20
48.483550057334426
  10
21.59474104951125
  20
49.27595880655306
  10
21.88733136787781
  20
49.6777310125004
  10
24.151969694840954
  20
49.9157540920092
  10
24.52169935141488
  20
49.58359452052989
  10
24.80271494945901
  20
48.83321459777301
  10
24.859290383467854
  20
48.47117581950184
  10
24.92995233753373
  20
48.2383329069518
  10
25.180802738623097
  20
47.697470227019465
  10
25.69606326126277
  20
46.90044129922047
  10
26.548190480507778
  20
45.916084350290745
  10
27.128414856943582
  20
45.40959630275805
  10
27.98340507871427
  20
45.62276930720258
  10
28.80040664635056
  20
45.95285936707607
  10
28.9721118226356
  20
46.703664136467374
  10
29.08290672680177
  20
48.0008934492318
  10
29.031279396736373
  20
48.94856593312562
  10
28.916310527484416
  20
49.53357919910616
  10
28.836615619082277
  20
49.763487126877244
  10
28.66958505203382
  20
50.0896368568738
  10
28.4558691943262
  20
50.86188379081737
  10
28.559748272291994
  20
51.347928168456505
  10
30.531785620758537
  20
52.48648446244566
  10
31.0046519381464
  20
52.33342419406867
  10
31.56657947207994
  20
51.762217365128315
  10
31.765518140170165
  20
51.454489785857525
  10
31.924776791949792
  20
51.270518006743096
  10
32.373928707213466
  20
50.878445412335815
  10
33.168823487700756
  20
50.35989859102323
  10
34.347654479171666
  20
49.80723513625878
  10
35.08372307088957
  20
49.58053379618727
  10
35.77809023209489
  20
50.123032878755254
  10
36.39019858023027
  20
50.75688962857372
  10
36.24167925257167
  20
51.51262270222845
  10
35.81526473802929
  20
52.742764995815676
  10
35.38264770032355
  20
53.587508161887996
  10
35.039672080088394
  20
54.075182321747405
  10
34.87335517976225
  20
54.25279882532499
  10
34.588108117628785
  20
54.48281397754237
  10
34.078767841056006
  20
55.101370585688876
  10
33.97597404232895
  20
55.58764564655145
  10
35.31442723935215
  20
57.42986842833102
  10
35.80866733542195
  20
57.48237297396762
  10
36.55434442967642
  20
57.18910608881872
  10
36.861248028834154
  20
56.988898602621525
  10
37.0815661106154
  20
56.885608348882734
  10
37.65135709348725
  20
56.71011875344122
  10
38.58844160288353
  20
56.559715494869984
  10
39.89014577881167
  20
56.53430606638945
  10
40.65478563933041
  20
56.6265901549945
  10
41.068467349670314
  20
57.404612295860474
  0
LWPOLYLINE
  5
CAD00004
  100
AcDbEntity
  8
0
  67
0
  100
AcDbPolyline
  90
31
  70
1
  10
19.215592997569125
  20
56.4269803188904
  10
17.227343474988714
  20
57.073001749802444
  10
15.41685738282198
  20
58.118286382478985
  10
13.863261650972774
  20
59.51715026263987
  10
12.634455867902329
  20
61.20845632622846
  10
11.784144742795178
  20
63.118286382478985
  10
11.34949095206398
  20
65.16317169355193
  10
11.34949095206398
  20
67.253740958905
  10
11.78414474279518
  20
69.29862626997793
  10
12.634455867902329
  20
71.20845632622846
  10
13.863261650972774
  20
72.89976238981704
  10
15.416857382821984
  20
74.29862626997793
  10
17.22734347498871
  20
75.34391090265447
  10
19.21559299756912
  20
75.98993233356651
  10
21.294709905746718
  20
76.20845632622846
  10
23.373826813924307
  20
75.98993233356651
  10
25.362076336504714
  20
75.34391090265447
  10
27.172562428671448
  20
74.29862626997793
  10
28.726158160520658
  20
72.89976238981704
  10
29.954963943591103
  20
71.20845632622846
  10
30.80527506869825
  20
69.29862626997793
  10
31.239928859429448
  20
67.25374095890498
  10
31.239928859429448
  20
65.16317169355193
  10
30.80527506869825
  20
63.118286382478985
  10
29.9549639435911
  20
61.20845632622846
  10
28.726158160520654
  20
59.51715026263987
  10
27.172562428671448
  20
58.118286382478985
  10
25.362076336504717
  20
57.07300174980245
  10
23.373826813924307
  20
56.4269803188904
  10
21.294709905746714
  20
56.20845632622846
  10
19.215592997569125
  20
56.4269803188904
  0
ENDSEC
  0
SECTION
  2
OBJECTS
  0
DICTIONARY
  5
C
330
0
100
AcDbDictionary
281
1
  3
ACAD_COLOR
350
524
  3
ACAD_GROUP
350
525
  3
ACAD_LAYOUT
350
526
  3
ACAD_MATERIAL
350
527
  3
ACAD_MLEADERSTYLE
350
528
  3
ACAD_MLINESTYLE
350
529
  3
ACAD_PLOTSETTINGS
350
52A
  3
ACAD_PLOTSTYLENAME
350
52C
  3
ACAD_SCALELIST
350
52D
  3
ACAD_TABLESTYLE
350
52E
  3
ACAD_VISUALSTYLE
350
52F
  0
DICTIONARY
  5
524
330
C
100
AcDbDictionary
281
1
  0
DICTIONARY
  5
525
330
C
100
AcDbDictionary
281
1
  0
DICTIONARY
  5
526
330
C
100
AcDbDictionary
281
1
  3
Model
350
530
  3
Layout1
350
531
  0
DICTIONARY
  5
527
330
C
100
AcDbDictionary
281
1
  0
DICTIONARY
  5
528
330
C
100
AcDbDictionary
281
1
  0
DICTIONARY
  5
529
330
C
100
AcDbDictionary
281
1
  0
DICTIONARY
  5
52A
330
C
100
AcDbDictionary
281
1
  0
ACDBPLACEHOLDER
  5
52B
330
52C
  0
ACDBDICTIONARYWDFLT
  5
52C
330
C
100
AcDbDictionary
281
1
  3
Normal
350
52B
100
AcDbDictionaryWithDefault
340
52B
  0
DICTIONARY
  5
52D
330
C
100
AcDbDictionary
281
1
  0
DICTIONARY
  5
52E
330
C
100
AcDbDictionary
281
1
  0
DICTIONARY
  5
52F
330
C
100
AcDbDictionary
281
1
  0
LAYOUT
  5
530
330
526
100
AcDbPlotSettings
  1

  2
DWFx ePlot (XPS Compatible).pc3
  4
ANSI_A_(8.50_x_11.00_Inches)
  6

 40
5.8
 41
17.8
 42
5.8
 43
17.8
 44
215.9
 45
279.4
 46
0.0
 47
0.0
 48
0.0
 49
0.0
140
0.0
141
0.0
142
1.0
143
14.53
 70
11952
 72
0
 73
1
 74
0
  7

 75
0
147
0.069
148
114.98
149
300.29
100
AcDbLayout
  1
Model
 70
1
 71
0
 10
0.0
 20
0.0
 11
12.0
 21
9.0
 12
0.0
 22
0.0
 32
0.0
 14
0.0
 24
0.0
 34
0.0
 15
0.0
 25
0.0
 35
0.0
146
0.0
 13
0.0
 23
0.0
 33
0.0
 16
1.0
 26
0.0
 36
0.0
 17
0.0
 27
1.0
 37
0.0
 76
0
330
1F
  0
LAYOUT
  5
531
330
526
100
AcDbPlotSettings
  1

  2
DWFx ePlot (XPS Compatible).pc3
  4
ANSI_A_(8.50_x_11.00_Inches)
  6

 40
5.8
 41
17.8
 42
5.8
 43
17.8
 44
215.9
 45
279.4
 46
0.0
 47
0.0
 48
0.0
 49
0.0
140
0.0
141
0.0
142
1.0
143
1.0
 70
688
 72
0
 73
1
 74
5
  7
acad.ctb
 75
16
147
1.0
148
0.0
149
0.0
100
AcDbLayout
  1
Layout1
 70
1
 71
1
 10
-0.7
 20
-0.23
 11
10.3
 21
8.27
 12
0.0
 22
0.0
 32
0.0
 14
0.63
 24
0.8
 34
0.0
 15
9.0
 25
7.2
 35
0.0
146
0.0
 13
0.0
 23
0.0
 33
0.0
 16
1.0
 26
0.0
 36
0.0
 17
0.0
 27
1.0
 37
0.0
 76
0
330
58
  0
ENDSEC
  0
EOF
