<?xml version="1.0" encoding="UTF-8" standalone="no"?>
<svg
   xmlns:dc="http://purl.org/dc/elements/1.1/"
   xmlns:cc="http://creativecommons.org/ns#"
   xmlns:rdf="http://www.w3.org/1999/02/22-rdf-syntax-ns#"
   xmlns:svg="http://www.w3.org/2000/svg"
   xmlns="http://www.w3.org/2000/svg"
   xmlns:sodipodi="http://sodipodi.sourceforge.net/DTD/sodipodi-0.dtd"
   xmlns:inkscape="http://www.inkscape.org/namespaces/inkscape"
   version="1.1"
   viewBox="0 0 400 92"
   id="svg67"
   sodipodi:docname="OpenBuildsCAM.svg"
   inkscape:version="1.0.1 (3bc2e813f5, 2020-09-07)"
   width="400"
   height="92">
  <metadata
     id="metadata71">
    <rdf:RDF>
      <cc:Work
         rdf:about="">
        <dc:format>image/svg+xml</dc:format>
        <dc:type
           rdf:resource="http://purl.org/dc/dcmitype/StillImage" />
        <dc:title></dc:title>
      </cc:Work>
    </rdf:RDF>
  </metadata>
  <sodipodi:namedview
     pagecolor="#ffffff"
     bordercolor="#666666"
     borderopacity="1"
     objecttolerance="10"
     gridtolerance="10"
     guidetolerance="10"
     inkscape:pageopacity="0"
     inkscape:pageshadow="2"
     inkscape:window-width="1920"
     inkscape:window-height="1017"
     id="namedview69"
     showgrid="false"
     inkscape:zoom="1.3687151"
     inkscape:cx="153.59563"
     inkscape:cy="231.40742"
     inkscape:window-x="-8"
     inkscape:window-y="-8"
     inkscape:window-maximized="1"
     inkscape:current-layer="svg67"
     inkscape:document-rotation="0" />
  <defs
     id="defs4">
    <rect
       x="-556.7265"
       y="539.19183"
       width="414.98776"
       height="153.42857"
       id="rect155" />
    <style
       id="style2">
      .cls-1, .cls-2, .cls-3, .cls-4 {
        fill: #fff;
      }

      .cls-2 {
        font-family: SpaceBT-Bold, 'Space Bd BT';
        font-size: 38.7px;
        font-weight: 700;
      }

      .cls-3 {
        letter-spacing: .3em;
      }

      .cls-3, .cls-4 {
        font-family: SegoeUISymbol, 'Segoe UI Symbol';
        font-size: 14.3px;
      }

      .cls-4 {
        letter-spacing: .3em;
      }
    </style>
  </defs>
  <!-- Generator: Adobe Illustrator 28.7.2, SVG Export Plug-In . SVG Version: 1.2.0 Build 154)  -->
  <text
     xml:space="preserve"
     id="text153"
     style="font-size:24px;line-height:1.25;font-family:AdelonOutline;-inkscape-font-specification:AdelonOutline;text-align:center;letter-spacing:0px;word-spacing:0px;white-space:pre;shape-inside:url(#rect155)" />
  <path
     class="cls-1"
     d="M 80.127132,28.171129 C 70.556361,10.209545 50.890392,4.1786477 35.288725,8.7673733 17.064928,14.142739 6.9697302,29.744407 7.3630505,46.39492 7.7563696,64.618717 19.555951,78.253789 35.550938,82.711408 53.643629,87.693453 73.57181,78.909321 81.438197,60.423311 c 2.097703,1.179958 4.0643,2.359916 6.162004,3.670981 C 81.962622,78.647108 65.44321,92.151073 44.597283,91.495541 21.39144,90.708901 4.0853882,73.796169 0.67662039,53.605775 -3.5187862,28.564448 12.345095,7.718522 33.059916,1.8187316 54.561374,-4.3432718 75.80062,5.7519252 85.502497,23.057978 c -1.83549,1.704384 -3.539875,3.408768 -5.375365,5.113151 z"
     id="path34-5-2-4"
     style="fill:#ffffff;stroke-width:1.31106" />
  <g
     aria-label="OPENBUILDS"
     id="text38-9-5-4"
     style="font-weight:700;font-size:38.7px;font-family:SpaceBT-Bold, 'Space Bd BT';fill:#ffffff"
     class="cls-2"
     transform="matrix(1.3110646,0,0,1.3110646,161.75225,-887.708)">
    <path
       d="m -53.695563,701.82681 q -1.587304,0 -2.399853,0.81255 -0.812549,0.81254 -0.812549,2.39985 v 10.223 q 0,1.5873 0.812549,2.39985 0.812549,0.81255 2.399853,0.81255 h 7.63418 q 1.587305,0 2.399854,-0.81255 0.812549,-0.81255 0.812549,-2.39985 v -10.223 q 0,-1.58731 -0.812549,-2.39985 -0.812549,-0.81255 -2.399854,-0.81255 z m -0.547998,-5.65005 h 8.71128 q 3.949365,0 6.17915,2.22978 2.229786,2.22979 2.229786,6.16026 v 11.11113 q 0,3.94936 -2.229786,6.19805 -2.229785,2.24868 -6.17915,2.24868 h -8.71128 q -3.930468,0 -6.160254,-2.24868 -2.229785,-2.24869 -2.229785,-6.19805 V 704.5668 q 0,-3.93047 2.229785,-6.16026 2.229786,-2.22978 6.160254,-2.22978 z"
       style="fill:#ffffff"
       id="path219-5" />
    <path
       d="m -27.996343,702.33701 v 5.57446 h 8.408936 q 1.379443,0 2.09751,-0.54799 0.718066,-0.548 0.718066,-1.58731 v -1.32275 q 0,-1.03931 -0.718066,-1.56841 -0.718067,-0.548 -2.09751,-0.548 z m -5.725635,-5.61225 h 14.909327 q 3.892676,0 5.820117,1.6062 1.946338,1.5873 1.946338,4.78081 v 4.02495 q 0,3.1935 -1.946338,4.8186 -1.946338,1.6062 -5.820117,1.6062 h -9.183692 v 10.01514 h -5.725635 z"
       style="fill:#ffffff"
       id="path221-9" />
    <path
       d="M -0.14292507,696.72476 H 13.141304 v 5.61225 H 0.29169408 q -1.75737308,0 -2.43764648,0.68027 -0.661377,0.66138 -0.661377,2.45655 v 1.70068 H 13.141304 v 5.65005 H -2.8073294 v 2.00303 q 0,1.77627 0.661377,2.43764 0.6613769,0.66138 2.43764648,0.66138 H 13.141304 v 5.65005 H -0.14292507 q -4.53515633,0 -6.46259773,-1.92744 -1.9274415,-1.94634 -1.9274415,-6.50039 v -10.03404 q 0,-4.55405 1.908545,-6.46259 1.9274414,-1.92744 6.48149423,-1.92744 z"
       style="fill:#ffffff"
       id="path223-1" />
    <path
       d="m 30.866208,702.3748 4.024951,14.22906 q 0.321241,1.13379 0.661377,1.51172 0.359034,0.35903 1.001514,0.35903 0.69917,0 1.058203,-0.43462 0.37793,-0.43462 0.37793,-1.26606 v -20.04917 h 5.725635 v 20.69165 q 0,3.15571 -1.851856,4.93198 -1.851855,1.77627 -5.15874,1.77627 -3.004541,0 -4.686328,-1.39834 -1.662891,-1.39834 -2.626612,-4.79971 l -4.024951,-14.24795 q -0.32124,-1.11489 -0.680273,-1.47392 -0.340137,-0.37793 -0.982618,-0.37793 -0.718066,0 -1.077099,0.41572 -0.359033,0.41572 -0.359033,1.24717 v 20.08696 h -5.725635 v -20.74834 q 0,-3.13682 1.851855,-4.89419 1.851856,-1.75737 5.158741,-1.75737 3.004541,0 4.667431,1.39834 1.681787,1.39834 2.645508,4.7997 z"
       style="fill:#ffffff"
       id="path225-8" />
    <path
       d="m 52.993993,702.16694 v 15.94864 h 8.97583 q 1.832959,0 2.588818,-0.66138 0.75586,-0.66138 0.75586,-2.22979 0,-1.5684 -0.75586,-2.19199 -0.736962,-0.64248 -2.588818,-0.64248 h -6.254736 v -5.02646 h 6.065771 q 1.795166,0 2.494336,-0.5669 0.718067,-0.58579 0.718067,-2.02192 0,-1.43614 -0.718067,-2.02193 -0.69917,-0.58579 -2.494336,-0.58579 z m -5.725635,-5.44218 h 15.249463 q 4.006055,0 6.065772,1.45502 2.059717,1.45503 2.059717,4.27061 v 2.92896 q 0,1.90854 -1.436133,3.08012 -1.417237,1.15269 -3.81709,1.19048 2.664404,0.13228 4.100537,1.43613 1.436133,1.28496 1.436133,3.55254 v 3.17461 q 0,2.81558 -2.078614,4.2895 -2.078613,1.47393 -6.065771,1.47393 H 47.268358 Z"
       style="fill:#ffffff"
       id="path227-6" />
    <path
       d="m 74.328119,696.72476 h 5.725635 v 18.53745 q 0,1.5873 0.812549,2.39985 0.831445,0.81255 2.437646,0.81255 h 6.424805 q 1.606201,0 2.41875,-0.81255 0.831445,-0.81255 0.831445,-2.39985 v -18.53745 h 5.725635 v 18.95317 q 0,3.94936 -2.248681,6.19805 -2.229786,2.24868 -6.179151,2.24868 h -7.501904 q -3.949366,0 -6.198047,-2.24868 -2.248682,-2.24869 -2.248682,-6.19805 z"
       style="fill:#ffffff"
       id="path229-7" />
    <path
       d="m 102.27603,696.72476 h 5.72563 v 26.8519 h -5.72563 z"
       style="fill:#ffffff"
       id="path231-8" />
    <path
       d="m 111.61089,696.72476 h 5.72564 v 18.10283 q 0,1.75737 0.68027,2.43764 0.68028,0.66138 2.45655,0.66138 h 8.71128 v 5.65005 h -9.12701 q -4.55405,0 -6.50039,-1.92744 -1.94634,-1.94634 -1.94634,-6.50039 z"
       style="fill:#ffffff"
       id="path233-9" />
    <path
       d="m 137.02665,702.33701 v 15.5896 h 9.41045 q 1.6062,0 2.41875,-0.81255 0.83145,-0.81255 0.83145,-2.39985 v -9.127 q 0,-1.6062 -0.83145,-2.41875 -0.83144,-0.83145 -2.41875,-0.83145 z m -5.72563,-5.61225 h 15.68408 q 3.94937,0 6.17915,2.22978 2.24868,2.21089 2.24868,6.16025 v 10.03404 q 0,3.93047 -2.24868,6.17915 -2.22978,2.24868 -6.17915,2.24868 h -15.68408 z"
       style="fill:#ffffff"
       id="path235-8" />
    <path
       d="m 166.82642,696.72476 h 13.92671 v 5.61225 h -14.04009 q -1.41724,0 -2.1542,0.62359 -0.71807,0.60468 -0.71807,1.81406 0,1.19048 0.71807,1.79516 0.73696,0.60469 2.1542,0.60469 h 6.02798 q 4.34619,0 6.78384,2.1731 2.43764,2.17309 2.43764,6.02798 0,3.85488 -2.43764,6.02797 -2.43765,2.1731 -6.78384,2.1731 h -14.07788 v -5.65005 h 14.21015 q 1.644,0 2.47544,-0.64248 0.85035,-0.64248 0.85035,-1.90854 0,-1.28497 -0.85035,-1.90855 -0.83144,-0.64248 -2.47544,-0.64248 h -6.04687 q -4.04385,0 -6.38701,-2.1542 -2.32427,-2.17309 -2.32427,-5.8957 0,-3.74151 2.32427,-5.89571 2.34316,-2.15419 6.38701,-2.15419 z"
       style="fill:#ffffff"
       id="path237-3" />
  </g>
  <g
     aria-label="CAM"
     transform="matrix(1.375056,0,0,1.250051,161.75225,-887.708)"
     id="text42-2-0-8"
     style="font-size:14.3px;font-family:SegoeUISymbol, 'Segoe UI Symbol';letter-spacing:0.3em;fill:#ffffff;stroke-width:1.04881"
     class="cls-3">
    <path
       d="m 141.84223,775.15118 q -1.1102,0.58653 -2.76504,0.58653 -2.13662,0 -3.42139,-1.37554 -1.28476,-1.37554 -1.28476,-3.60991 0,-2.40195 1.44536,-3.88223 1.44536,-1.48027 3.66577,-1.48027 1.42442,0 2.36006,0.41196 v 1.24985 q -1.07529,-0.60048 -2.37402,-0.60048 -1.72466,0 -2.79995,1.1521 -1.06831,1.1521 -1.06831,3.07924 0,1.8294 0.99848,2.91866 1.00547,1.08227 2.63237,1.08227 1.50821,0 2.61143,-0.67031 z"
       style="fill:#ffffff;stroke-width:1.04881"
       id="path240-0" />
    <path
       d="m 155.92159,775.57013 h -1.29873 l -1.06133,-2.80693 h -4.24532 l -0.99848,2.80693 h -1.30571 l 3.84033,-10.01279 h 1.21494 z m -2.7441,-3.86128 -1.57104,-4.26626 q -0.0768,-0.20947 -0.15361,-0.67031 h -0.0279 q -0.0698,0.42593 -0.1606,0.67031 l -1.55708,4.26626 z"
       style="fill:#ffffff;stroke-width:1.04881"
       id="path242-9" />
    <path
       d="m 171.89318,775.57013 h -1.16607 v -6.71709 q 0,-0.796 0.0978,-1.9481 h -0.0279 q -0.16758,0.6773 -0.30025,0.97056 l -3.42138,7.69463 h -0.57256 l -3.41441,-7.63877 q -0.14663,-0.33516 -0.30024,-1.02642 h -0.0279 q 0.0559,0.60049 0.0559,1.96206 v 6.70313 h -1.13115 v -10.01279 h 1.5501 l 3.07226,6.98242 q 0.35611,0.80298 0.46084,1.20097 h 0.0419 q 0.30024,-0.82392 0.48178,-1.2289 l 3.13511,-6.95449 h 1.46631 z"
       style="fill:#ffffff;stroke-width:1.04881"
       id="path244-5" />
  </g>
  <path
     id="polygon44-3-0-1"
     style="fill:#ffffff;stroke-width:1.31106"
     d="m 52.46367,50.197034 -0.917745,1.311064 -1.048852,1.179958 -1.44217,0.786639 -0.131106,0.131106 5.768683,12.58622 0.655532,-0.262214 1.704384,-1.179957 5.506472,4.0643 5.244258,-5.113151 -4.195407,-5.506472 1.179959,-1.704384 1.573276,-4.195407 0.131107,-1.048851 6.686429,-0.917745 v -7.341962 l -6.686429,-1.048851 -0.786639,-3.015448 -1.966597,-3.933194 4.064301,-5.375358 -5.244258,-5.244258 -5.375365,4.064299 -3.802087,-1.966596 -3.146556,-0.786639 -0.917744,-6.817536 h -7.341962 l -0.917745,6.817536 -1.048851,0.131106 -4.064301,1.573278 -1.83549,1.179957 -5.375365,-4.195405 -5.244258,5.244258 4.0643,5.506464 -1.048851,1.704384 -1.573278,4.195406 -0.131106,0.917746 -6.817536,1.048851 v 7.341962 l 6.817536,0.917745 0.786638,3.146555 1.966597,3.802087 -4.0643,5.506472 5.244258,5.113151 5.375365,-3.933194 2.491022,1.179959 L 42.368474,53.605801 41.450728,53.081376 40.27077,52.16363 39.221918,50.852566 38.43528,49.410394 38.041961,47.837118 V 46.26384 l 0.131106,-1.573278 0.655532,-1.573278 0.786638,-1.311064 1.179959,-1.179958 1.311065,-0.786639 1.573277,-0.655532 1.573277,-0.262212 1.573278,0.131106 1.573277,0.393319 1.442171,0.786639 1.179959,0.917745 1.048851,1.311064 0.786638,1.442172 0.393321,1.573278 v 1.573276 l -0.262214,1.573278 z"
     class="cls-1" />
</svg>
