<svg viewBox="0 -96 512 512" xmlns="http://www.w3.org/2000/svg"><path d="m256 60c5.519531 0 10-4.480469 10-10s-4.480469-10-10-10-10 4.480469-10 10 4.480469 10 10 10zm0 0"/><path d="m502 200h-36.234375c-5.234375-111.171875-97.320313-200-209.765625-200s-204.53125 88.828125-209.765625 200h-36.234375c-5.523438 0-10 4.476562-10 10v100c0 5.523438 4.476562 10 10 10h492c5.523438 0 10-4.476562 10-10v-100c0-5.523438-4.476562-10-10-10zm-10 100h-46v-30c0-5.523438-4.476562-10-10-10s-10 4.476562-10 10v30h-40v-10c0-5.523438-4.476562-10-10-10s-10 4.476562-10 10v10h-40v-30c0-5.523438-4.476562-10-10-10s-10 4.476562-10 10v30h-40v-10c0-5.523438-4.476562-10-10-10s-10 4.476562-10 10v10h-40v-30c0-5.523438-4.476562-10-10-10s-10 4.476562-10 10v30h-40v-10c0-5.523438-4.476562-10-10-10s-10 4.476562-10 10v10h-40v-30c0-5.523438-4.476562-10-10-10s-10 4.476562-10 10v30h-46v-80h36c5.523438 0 10-4.476562 10-10 0-104.765625 85.234375-190 190-190s190 85.234375 190 190c0 5.523438 4.476562 10 10 10h36zm0 0"/><path d="m298.171875 45.292969c-5.351563-1.371094-10.796875 1.851562-12.167969 7.203125-1.371094 5.351562 1.851563 10.800781 7.203125 12.167968 38.722657 9.929688 72.5 35.570313 92.671875 70.351563 2.761719 4.761719 8.878906 6.414063 13.667969 3.632813 4.777344-2.769532 6.40625-8.886719 3.632813-13.664063-22.84375-39.394531-61.117188-68.441406-105.007813-79.691406zm0 0"/><path d="m256 100c-59.792969 0-110 48.632812-110 110 0 5.523438 4.476562 10 10 10h200c5.523438 0 10-4.476562 10-10 0-60.652344-49.347656-110-110-110zm-89.453125 100c4.949219-44.941406 43.460937-80 89.453125-80 46.246094 0 84.457031 35.0625 89.449219 80zm0 0"/></svg>