<?xml version="1.0" encoding="UTF-8" standalone="no"?>
<svg
   xmlns:dc="http://purl.org/dc/elements/1.1/"
   xmlns:cc="http://creativecommons.org/ns#"
   xmlns:rdf="http://www.w3.org/1999/02/22-rdf-syntax-ns#"
   xmlns:svg="http://www.w3.org/2000/svg"
   xmlns="http://www.w3.org/2000/svg"
   xmlns:sodipodi="http://sodipodi.sourceforge.net/DTD/sodipodi-0.dtd"
   xmlns:inkscape="http://www.inkscape.org/namespaces/inkscape"
   width="512"
   height="512"
   viewBox="0 0 135.46666 135.46667"
   version="1.1"
   id="svg8"
   inkscape:version="1.0.1 (3bc2e813f5, 2020-09-07)"
   sodipodi:docname="splash.svg">
  <defs
     id="defs2" />
  <sodipodi:namedview
     id="base"
     pagecolor="#ffffff"
     bordercolor="#666666"
     borderopacity="1.0"
     inkscape:pageopacity="0.0"
     inkscape:pageshadow="2"
     inkscape:zoom="0.98994948"
     inkscape:cx="259.8908"
     inkscape:cy="236.6633"
     inkscape:document-units="px"
     inkscape:current-layer="layer1"
     inkscape:document-rotation="0"
     showgrid="false"
     inkscape:window-width="1920"
     inkscape:window-height="1017"
     inkscape:window-x="1912"
     inkscape:window-y="-8"
     inkscape:window-maximized="1"
     units="px" />
  <metadata
     id="metadata5">
    <rdf:RDF>
      <cc:Work
         rdf:about="">
        <dc:format>image/svg+xml</dc:format>
        <dc:type
           rdf:resource="http://purl.org/dc/dcmitype/StillImage" />
        <dc:title></dc:title>
      </cc:Work>
    </rdf:RDF>
  </metadata>
  <g
     inkscape:label="Layer 1"
     inkscape:groupmode="layer"
     id="layer1">
    <path
       style="fill:#000000;stroke-width:0.31805"
       d="M 57.714853,134.59568 C 10.785426,126.98113 -14.357051,75.757118 8.638411,34.609824 36.982482,-16.108079 112.34295,-9.7580206 131.59356,44.970322 148.49524,93.020767 107.55835,142.68302 57.714853,134.59568 Z M 76.353167,133.7739 C 132.05901,125.98878 154.10226,58.637104 113.75392,19.498333 76.656007,-16.487462 14.126841,2.5035004 2.6309713,53.247889 -7.4278472,97.648883 31.396866,140.05673 76.353167,133.7739 Z M 58.350324,129.4961 C 12.601993,121.99887 -9.7428055,70.559802 16.100963,32.235615 44.84941,-10.39595 111.04872,-1.1858497 127.08488,47.676451 141.71305,92.248634 104.1211,136.99703 58.350324,129.4961 Z m 17.181773,-0.80386 C 128.88657,121.21551 148.27586,55.442035 107.43522,20.468583 73.036706,-8.9882307 18.44281,8.902918 7.9757384,53.062789 -1.9640116,94.997912 33.406618,134.59539 75.532097,128.69224 Z m -44.471732,-22.4008 c -3.581604,-3.59402 -4.965973,-5.18403 -4.781576,-5.49185 0.142749,-0.2383 1.738965,-2.405011 3.547151,-4.814916 4.104301,-5.470147 3.927951,-4.648486 1.877079,-8.745956 -0.960288,-1.918582 -2.062689,-4.698267 -2.44977,-6.177074 -0.70379,-2.688752 -0.70379,-2.688752 -7.091551,-3.630825 -6.387759,-0.942083 -6.387759,-0.942083 -6.473166,-8.190545 -0.10087,-8.562384 -0.959532,-7.458507 6.598958,-8.48381 6.296782,-0.854148 6.354689,-0.8689 6.354689,-1.619 0,-1.005125 2.917575,-8.339934 4.010152,-10.081537 1.03198,-1.645028 1.03198,-1.645028 -2.601153,-6.501165 -1.998225,-2.670884 -3.633147,-5.155887 -3.633147,-5.522237 0,-0.819122 9.118573,-10.04998 9.92773,-10.04998 0.300786,0 2.762817,1.64608 5.471185,3.657955 4.924313,3.657955 4.924313,3.657955 6.412775,2.71212 1.64687,-1.046494 9.342178,-4.1415 10.297278,-4.1415 0.722248,0 0.726176,-0.01549 1.574025,-6.208171 0.359592,-2.626536 0.732395,-5.172109 0.828442,-5.656833 0.174632,-0.881312 0.174632,-0.881312 7.535435,-0.795918 8.18145,0.09491 7.263806,-0.93357 8.777161,9.837347 0.386097,2.747861 0.386097,2.747861 3.138814,3.470859 1.513992,0.397648 4.365686,1.539183 6.337083,2.536748 3.584378,1.813751 3.584378,1.813751 8.394631,-1.799428 2.645647,-1.987248 5.03786,-3.613179 5.31603,-3.613179 0.84481,0 10.31551,9.71655 10.07721,10.338804 -0.11157,0.291337 -1.78214,2.659417 -3.71236,5.2624 -3.50949,4.732681 -3.50949,4.732681 -1.63959,8.494338 1.02843,2.068895 2.13874,4.818065 2.46732,6.109256 0.72064,2.831728 0.40469,2.667793 6.80921,3.532914 2.70867,0.365882 5.31807,0.743941 5.79864,0.840107 0.87378,0.174861 0.87378,0.174861 0.87378,7.453236 0,4.003107 -0.11399,7.348936 -0.25321,7.435175 -0.13926,0.08627 -2.99886,0.548479 -6.35468,1.027192 -4.46528,0.63698 -6.10148,0.985101 -6.10148,1.298182 0,0.844534 -3.23474,8.887943 -4.14951,10.317993 -1.19527,1.86861 -1.47677,1.167891 2.71971,6.769785 2.00967,2.682701 3.65394,5.081933 3.65394,5.331613 0,0.56329 -9.54468,10.15648 -10.10512,10.15648 -0.22374,0 -2.647881,-1.66822 -5.387003,-3.70715 -4.980216,-3.70715 -4.980216,-3.70715 -5.944178,-3.13299 -2.548122,1.51768 -3.268522,1.84454 -3.69988,1.67868 C 85.048044,106.02193 74.0641,82.925369 74.082485,82.219357 c 0.0048,-0.175102 0.736443,-0.748164 1.626407,-1.273468 11.126058,-6.567225 7.246898,-24.194457 -5.62772,-25.572851 -14.721003,-1.576079 -21.511684,18.16712 -8.813296,25.623714 1.851296,1.087091 2.037841,0.455297 -3.889812,13.173858 -6.287258,13.49015 -5.489906,12.44011 -8.350343,10.99675 -1.242364,-0.6269 -2.309543,-1.13981 -2.37152,-1.13981 -0.06197,0 -2.306096,1.64756 -4.986928,3.66124 -2.680819,2.01367 -5.030279,3.66123 -5.221016,3.66123 -0.190724,0 -2.615276,-2.27637 -5.387892,-5.05858 z m 10.189271,0.28306 c 5.196722,-3.91346 5.287293,-3.94195 8.066129,-2.53638 1.909156,0.96565 1.909156,0.96565 2.353399,-0.0795 0.244333,-0.57489 2.579982,-5.622293 5.190334,-11.216461 4.746078,-10.171193 4.746078,-10.171193 3.397424,-11.066289 -13.061692,-8.668958 -5.585341,-29.095658 9.997466,-27.314851 12.869694,1.470745 17.839413,19.224587 7.424496,26.523261 -0.798011,0.559237 -1.66582,1.170708 -1.928465,1.358828 -0.517282,0.370479 9.56481,22.743762 10.242782,22.729862 0.174752,-0.004 1.097501,-0.50428 2.050547,-1.11266 2.267992,-1.44776 1.75549,-1.62658 7.322614,2.55509 2.68082,2.01368 4.955258,3.66123 5.054308,3.66123 0.27844,0 8.92599,-8.71393 8.92599,-8.99453 0,-0.13636 -1.64428,-2.442871 -3.65395,-5.125584 -4.1844,-5.585757 -3.96811,-4.99745 -2.59392,-7.055587 1.03874,-1.555757 3.94308,-8.596257 4.32944,-10.495177 0.21531,-1.058249 -0.22937,-0.951505 9.94121,-2.38638 2.78018,-0.392234 2.78018,-0.392234 2.78018,-6.879826 0,-6.468833 -0.002,-6.488036 -0.71491,-6.645498 -0.39319,-0.08687 -3.19407,-0.508301 -6.22417,-0.936537 -3.03011,-0.428236 -5.56307,-0.832513 -5.62881,-0.898381 -0.0657,-0.06582 -0.46239,-1.402157 -0.88144,-2.969538 -0.41905,-1.567368 -1.56783,-4.459127 -2.55284,-6.426105 -2.23572,-4.464528 -2.30642,-3.880529 1.00418,-8.295857 1.53733,-2.050304 3.1299,-4.207604 3.53907,-4.793983 0.74394,-1.066147 0.74394,-1.066147 -3.79348,-5.620745 -4.53742,-4.554596 -4.53742,-4.554596 -9.3651,-0.923649 -5.655557,4.2536 -4.798016,4.07967 -9.140609,1.853951 -1.920348,-0.984241 -4.834536,-2.157054 -6.532288,-2.628912 -3.065199,-0.851921 -3.065199,-0.851921 -3.765015,-5.784243 -0.384907,-2.712777 -0.790266,-5.541199 -0.900796,-6.285384 -0.20098,-1.353063 -0.20098,-1.353063 -6.784413,-1.353063 -6.583433,0 -6.583433,0 -7.436145,6.061329 -0.925918,6.581668 -0.950921,6.673384 -1.819425,6.673384 -1.01733,0 -8.949741,3.183706 -10.367301,4.160959 -1.979252,1.36448 -2.230646,1.273639 -7.520845,-2.717804 -4.838619,-3.650731 -4.838619,-3.650731 -9.40191,0.912509 -4.563291,4.563241 -4.563291,4.563241 -0.873776,9.488382 4.193083,5.597346 4.041603,5.159412 2.606293,7.534747 -1.018988,1.686324 -3.709882,8.392673 -4.134515,10.304155 -0.226512,1.019659 -0.04864,0.968412 -6.379547,1.838636 -2.621303,0.360309 -5.159205,0.733279 -5.639788,0.828818 -0.873764,0.173706 -0.873764,0.173706 -0.873764,6.618413 0,6.444708 0,6.444708 6.275249,7.353834 3.451392,0.500023 6.365052,1.042894 6.4748,1.206383 0.109765,0.163491 0.523707,1.526747 0.91989,3.029462 0.42491,1.611649 1.483297,4.187715 2.580618,6.281098 2.311056,4.408817 2.497265,3.452824 -1.782029,9.14897 -3.642321,4.848283 -3.642321,4.848283 0.869657,9.385023 2.481593,2.4952 4.552663,4.53673 4.60238,4.53673 0.04972,0 2.183077,-1.57592 4.740795,-3.50204 z"
       id="path24" />
  </g>
</svg>
