<?xml version="1.0"?>
<svg 
  xmlns="http://www.w3.org/2000/svg" 
  xmlns:xlink="http://www.w3.org/1999/xlink" version="1.1" preserveAspectRatio="xMinYMin meet" viewBox="0 -79.3053497950583 105.80478674580402 79.32638214483549" width="100%" height="100%">
  <path fill="none" stroke="#000000" stroke-width="1%" d="M55.42425287002478,-5.600995844220119L55.40191532274007,-5.5694745051980945L55.32669212308682,-5.5075391230080415L55.30615323447372,-5.529679999628172L55.288916402235756,-5.557809211952241L55.26687180777559,-5.596878584170536L55.24026258331082,-5.646381285158229L55.20933186105889,-5.705810483790503L55.174322773237435,-5.774659348942527L55.1354784520639,-5.852421049489483L55.09304202975577,-5.9385887543065445L55.04725663853069,-6.03265563226889L54.99836541060609,-6.134114852251697L54.94661147819959,-6.242459583130151L54.8922379735286,-6.357182993779407L54.83548802881075,-6.477778253074664L54.77660477626352,-6.603738529891085L54.71583134810439,-6.734556993103855L54.65341087655097,-6.869726811588151L54.58958649382081,-7.008741154219148L54.52460133213127,-7.151093189872019L54.45869852370004,-7.296276087421946L54.39212120074454,-7.443783015744106L54.315074656863096,-7.614962097327209L54.23285807044986,-7.797602304600536L54.14607755553478,-7.990358081350121L54.05533922614783,-8.191883871362002L53.96124919631883,-8.400834118422207L53.86441358007782,-8.615863266316767L53.76543849145463,-8.83562575883172L53.66493004447928,-9.05877603975309L53.56349435318156,-9.283968552866918L53.461737531591446,-9.509857741959236L53.360265693738896,-9.735098050816084L53.259684953653824,-9.958343923223472L53.16060142536611,-10.178249802967452L53.0636212229057,-10.393470133834048L52.9693504603026,-10.602659359609307L52.8783952515865,-10.804471924079248L52.7913617107875,-10.997562271029894L52.70885595193548,-11.180584844247303L52.63709326889749,-11.33867775005624L52.56605177583189,-11.493053415780027L52.495993766166606,-11.643215716418664L52.4271815333294,-11.788668526972145L52.359877370748094,-11.92891572244048L52.29434357185045,-12.06346117782366L52.23084243006429,-12.191808768121698L52.16963623881747,-12.31346236833457L52.1109872915377,-12.4279258534623L52.05515788165282,-12.534703098504872L52.00241030259061,-12.6332979784623L51.95300684777898,-12.723214368334565L51.907209810645604,-12.803956143121688L51.86528148461832,-12.87502717782366L51.82748416312498,-12.935931347440482L51.794080139593326,-12.986172526972146L51.76533170745121,-13.02525459141866L51.72285079104668,-13.067956875056238L51.69756488805507,-13.06262776941297L51.67691786553854,-13.044678542643538L51.64797291649703,-13.017039825313807L51.61100113133717,-12.980014278798548L51.5662736004656,-12.933904564472549L51.514061414289,-12.879013343710604L51.454635663214034,-12.815643277887471L51.38826743764727,-12.744097028377942L51.31522782799551,-12.664677256556814L51.23578792466521,-12.57768662379885L51.15021881806315,-12.483427791478851L51.058791598595946,-12.3822034209716L50.96177735667031,-12.274316173651854L50.85944718269279,-12.160068710894425L50.75207216707017,-12.03976369407408L50.63992340020893,-11.913703784565618L50.52327197251584,-11.782191643743806L50.40238897439752,-11.645529932983433L50.27754549626066,-11.504021313659285L50.14901262851184,-11.357968447146146L50.017061461557766,-11.207673994818803L49.8819630858051,-11.053440618052013L49.74398859166041,-10.895570978220595L49.60340906953044,-10.734367736699307L49.460495609821805,-10.570133554862936L49.315519302941134,-10.403171094086277L49.16875123929518,-10.233783015744107L48.95154884379273,-9.983671087529796L48.74120531117002,-9.74325381864064L48.537120764941086,-9.511991083891965L48.33869532861973,-9.28934275809916L48.1453291257199,-9.074768716077573L47.95642227975545,-8.867728832642529L47.77137491424028,-8.6676829826094L47.58958715268833,-8.474091040793532L47.41045911861346,-8.286412882010271L47.23339093552957,-8.104108381074989L47.057782726950585,-7.926637412803007L46.88303461639035,-7.753459852009704L46.70854672736283,-7.584035573510424L46.53371918338189,-7.417824452120509L46.3579521079614,-7.254286362655319L46.18064562461529,-7.092881179930201L46.001199856857454,-6.933068778760514L45.81901492820182,-6.774309033961606L45.633490962162206,-6.61606182034882L45.444028082252515,-6.457787012737518L45.25002641198674,-6.298944485943062L45.050886074878704,-6.138994114780779L44.84600719444236,-5.9773957740660375L44.63478989419152,-5.813609338614179L44.41663429764013,-5.647094683240564L44.19094052830209,-5.477311682760542L43.95710870969129,-5.303720211989459L43.71453896532166,-5.125780145742672L43.46263141870703,-4.942951358835536L43.200786193361374,-4.75469372608339L42.92840341279853,-4.560467122301599L42.64488320053237,-4.359731422305514L42.18125585703606,-4.038267792284663L41.717772205948236,-3.728367673582916L41.25464737473583,-3.4301295453219454L40.79209649086583,-3.14365188662342L40.330334681805155,-2.869033176609005L39.86957707502075,-2.6063718944003798L39.410038797979475,-2.3557665191192068L38.9519349781484,-2.117315529887161L38.495480742994374,-1.891117405825911L38.04089121998438,-1.6772706260571297L37.588381536585345,-1.4758736697024848L37.13816682026419,-1.2870250158836485L36.690462198487914,-1.1108231437222877L36.24548279872337,-0.9473665323400764L35.80344374843758,-0.7967536608586846L35.36456017509744,-0.6590830083997823L34.92904720616994,-0.5344530540850391L34.49711996912198,-0.422962277036125L34.06899359142041,-0.3247091563747118L33.64488320053233,-0.23979217122246996L33.18517955766798,-0.16187843645287797L32.722897047563706,-0.09792543653736469L32.25834581124905,-0.04779551471626886L31.791835989753586,-0.011351014229922953L31.323677724106844,0.011545721681340885L30.854181155338317,0.021032349777191595L30.383656424477543,0.017246526817297096L29.91241367255407,0.0003259095613253416L29.440763040597396,-0.029591845231055767L28.96901466963705,-0.07236908080017823L28.497478700702533,-0.12786814038637273L28.02646527482346,-0.19595136722997245L27.556284533029263,-0.2764811045713091L27.0872466163495,-0.3693196956507142L26.619661665813695,-0.47432948370851874L26.153839822451385,-0.5913728119850569L25.6900912272921,-0.7203120237206582L25.22872602136535,-0.8610094621556557L24.770054345700657,-1.0133274705303807L24.314386341327513,-1.1771283920851667L23.86203214927554,-1.352274570060345L23.41330191057417,-1.538628347696244L22.96850576625297,-1.7360520682331992L22.527953857341487,-1.9444080749115429L22.09195632486921,-2.163558710971605L21.66082330986566,-2.3933663196537203L21.234864953360397,-2.633693244198217L20.814391396382916,-2.884401827845426L20.39971277996277,-3.1453544138356837L19.99113924512946,-3.4164133454093193L19.58898093291254,-3.697440965806665L19.193547984341496,-3.988299618268058L18.80515054044588,-4.288851646033819L18.424098742255204,-4.598959392344288L18.050702730799003,-4.918485200439804L17.685272647106846,-5.247291413560678L17.32811863220816,-5.585240374947258L16.97955082713255,-5.932194427839869L16.63987937290953,-6.288015915478849L16.309414410568586,-6.652567181104519L15.988466081139302,-7.025710567957227L15.677344525651142,-7.407308419277293L15.376359885133697,-7.797223078305052L15.085822300616417,-8.195316888280837L14.80604191312884,-8.601452192444967L14.637325963530248,-8.85845380316191L14.468067200537833,-9.125585867494156L14.298691863246827,-9.401938448173075L14.129626190752443,-9.686601607930031L13.961296422149928,-9.978665409496353L13.794128796534498,-10.277219915603423L13.628549553001374,-10.581355188982585L13.464984930645773,-10.89016129236521L13.303861168562893,-11.202728288482636L13.14560450584797,-11.518146240066239L12.99064118159627,-11.835505209847346L12.839397434902963,-12.153895260557364L12.6922995048633,-12.472406454927603L12.549773630572501,-12.790128855689435L12.41224605112574,-13.106152525574231L12.280143005618312,-13.419567527313315L12.15389073314536,-13.72946392363809L12.033915472802198,-14.034931777279876L11.920643463683973,-14.335061150970045L11.814500944885925,-14.628942107439954L11.715914155503329,-14.915664709420952L11.625309334631337,-15.19431901964441L11.543112721365175,-15.463995100841677L11.469750554800061,-15.723783015744113L11.431424543161295,-15.866366461725404L11.395143926347691,-16.00322956578844L11.360851871511205,-16.134970802975474L11.328491545803917,-16.26218864832873L11.298006116377806,-16.38548157689046L11.269338750384843,-16.505448063702904L11.24243261497706,-16.622686583808303L11.217230877306513,-16.7377956122489L11.19367670452512,-16.85137362406694L11.171713263784909,-16.964019094304664L11.151283722237912,-17.076330498004296L11.132331247036147,-17.188906310208104L11.114799005331568,-17.302345005958326L11.098630164276212,-17.417245060297198L11.083767891022122,-17.534204948266968L11.070155352721223,-17.65382314490985L11.057735716525572,-17.776698125268123L11.046452149587186,-17.903428364384027L11.036247819058007,-18.034612337299787L11.027065892090132,-18.17084851905764L11.018849535835473,-18.312735384699838L11.011541917446115,-18.46087140926864L11.005086204074038,-18.615855067806258L10.999425562871224,-18.77828483535497L10.99450316098969,-18.94875918695697L10.990262165581495,-19.12787659765454L10.986645743798535,-19.316235542489913L10.9835970627929,-19.514434496505302L10.981059289716592,-19.723071934742983L10.978975591721559,-19.9427463322452L10.977289135959865,-20.17405616405418L10.975943089583522,-20.41759990521216L10.97488061974448,-20.673976030761402L10.974044893594838,-20.943783015744113L10.97350815862647,-21.218979163624486L10.973430580305278,-21.481130173369944L10.973845779487108,-21.730708643663338L10.974787377027983,-21.968187173187474L10.976288993783704,-22.194038360625207L10.978384250610299,-22.40873480465931L10.981106768363654,-22.612749103972643L10.984490167899677,-22.80655385724803L10.988568070074303,-22.990621663168305L10.993374095743453,-23.165425120416288L10.998941865763062,-23.331436827674775L11.005305000989038,-23.489129383626608L11.012497122277308,-23.638975386954655L11.02055185048379,-23.78144743634169L11.029502806464434,-23.917018130470534L11.039383611075126,-24.046160068024058L11.050227885171799,-24.169345847685065L11.062069249610389,-24.28704806813634L11.074941325246822,-24.399739328060775L11.088877732936991,-24.507892226141152L11.10391209353684,-24.611979361060307L11.120078027902272,-24.7124733315011L11.137409156889245,-24.809846736146294L11.155939101353656,-24.904572173678762L11.175701482151442,-24.997122242781302L11.196729920138523,-25.08796954213674L11.219058036170832,-25.177586670427935L11.242719451104247,-25.26644622633767L11.267747785794725,-25.35502080854881L11.294176661098247,-25.443783015744103L11.380136153433497,-25.7097461085056L11.476935009513218,-25.980001375320477L11.583924051580523,-26.253419822007935L11.700454101878503,-26.528872454387134L11.825875982650349,-26.805230278277257L11.959540516139153,-27.08136429949752L12.10079852458804,-27.356145523867085L12.249000830240186,-27.628444957205147L12.403498255338643,-27.897133605330918L12.563641622126616,-28.161082474063537L12.728781752847183,-28.419162569222216L12.89826946974351,-28.670244896626155L13.071455595058675,-28.913200462094533L13.247690951035864,-29.146900271446494L13.426326359918187,-29.370215330501296L13.606712643948798,-29.582016645078085L13.788200625370738,-29.78117522099603L13.8764875649426,-29.875149245621824L13.962298873135158,-29.967511263468552L14.045190205854766,-30.0577394039901L14.124717219007719,-30.1453117966404L14.200435568500296,-30.229706570873258L14.271900910238797,-30.310401856142644L14.338668900129456,-30.38687578190242L14.400295194078618,-30.45860647760647L14.456335447992576,-30.525072072708646L14.506345317777612,-30.585750696662902L14.54988045934,-30.640120478923084L14.586496528586025,-30.687659548943063L14.615749181421963,-30.727846036176782L14.637194073754136,-30.760158070078067L14.650386861488839,-30.78407378010087L14.648894124519632,-30.815169372275605L14.631414379412668,-30.837599203750464L14.60317518960838,-30.865832973801407L14.56490777950367,-30.899342866106316L14.51734337349548,-30.937601064343017L14.461213195980694,-30.980079752189308L14.397248471356198,-31.026251113323077L14.326180424018952,-31.07558733142215L14.248740278365752,-31.12756059016436L14.165659258793596,-31.18164307322753L14.077668589699375,-31.237306964289534L13.985499495479988,-31.29402444702819L13.889883200532315,-31.351267705121362L13.771876144666194,-31.424409250790323L13.646586146497704,-31.50859969184501L13.514686573014336,-31.603170857874407L13.376850791203463,-31.707454578467463L13.233752168052488,-31.82078268321323L13.086064070548824,-31.942487001700652L12.934459865679935,-32.07189936351872L12.77961292043317,-32.20835159825642L12.622196601795968,-32.351175535502776L12.462884276755718,-32.49970300484672L12.30234931229983,-32.65326583587728L12.14126507541577,-32.81119585818343L11.980304933090935,-32.97282490135413L11.820142252312664,-33.137484794978405L11.661450400068459,-33.30450736864522L11.504902743345696,-33.47322445194358L11.351172649131819,-33.64296787446245L11.200933484414168,-33.813069465790846L11.05485861618022,-33.98286105551773L10.913621411417363,-34.15167447323208L10.777895237113015,-34.318841548522926L10.648353460254604,-34.48369411097921L10.525669447829491,-34.64556399018995L10.410516566825038,-34.80378301574411L10.177661918601745,-35.139077302514366L9.947003720180826,-35.48747207559498L9.718681701552873,-35.84856854363498L9.492835592708406,-36.22196791528349L9.269605123637973,-36.60727139918965L9.049130024332133,-37.00408020400257L8.831550024781443,-37.411995538371315L8.617004854976392,-37.830618610945024L8.405634244907576,-38.25955063037287L8.197577924565525,-38.698392805303804L7.9929756239407945,-39.14674634438705L7.791967073023897,-39.60421245627165L7.59469200180543,-40.070392349606706L7.40129014027591,-40.54488723304139L7.211901218425876,-41.027298315224805L7.026664966245834,-41.517226804805986L6.845721113726434,-42.0142739104341L6.669209390858135,-42.51804084075823L6.497269527631507,-43.02812880442749L6.330041254037119,-43.54413901009099L6.167664300065452,-44.06567266639784L6.010278395707153,-44.592330981997115L5.8580232709526525,-45.12371516553795L5.711038655792582,-45.659426425669444L5.569464280217431,-46.19906597104075L5.433439874217786,-46.74223501030085L5.303105167784117,-47.288534752099L5.1785998909070745,-47.837566405084225L5.060063773577161,-48.388931177905604L4.94763654578493,-48.942230279212325L4.841457937520863,-49.49706491765341L4.74166767877559,-50.05303630187805L4.648405499539641,-50.609745640535294L4.561811129803495,-51.16679414227423L4.48202429955778,-51.723783015744004L4.4737253190278885,-51.79160369191629L4.465735169666711,-51.87140093782064L4.45805466493016,-51.962658100508044L4.450684618274174,-52.06485852702962L4.443625843154573,-52.177485564436424L4.436879153027295,-52.30002255977952L4.430445361348307,-52.43195286010993L4.424325281573417,-52.572759812478814L4.418519727158553,-52.72192676393715L4.41302951155966,-52.87893706153602L4.407855448232582,-53.04327405232653L4.402998350633267,-53.21442108335965L4.3984590322175885,-53.391861501686556L4.394238306441496,-53.57507865435831L4.39033698676081,-53.7635558884258L4.3867558866315015,-53.956776550940326L4.3834958195094575,-54.154223988952815L4.380557598850578,-54.355381549514355L4.377942038110752,-54.55973257967602L4.375649950745929,-54.76676042648883L4.373682150211905,-54.975948437003936L4.372039449964701,-55.186779958272304L4.370722663460169,-55.39873833734506L4.369732604154184,-55.611306921273304L4.369070085502692,-55.82396905710802L4.368735920961583,-56.03620809190031L4.368730923986757,-56.24750737270119L4.369055908034153,-56.45735024656182L4.369711686559575,-56.66522006053319L4.370699073019026,-56.8706001616664L4.37201888086837,-57.07297389701248L4.373671923563489,-57.271824613622506L4.375659014560304,-57.466635658547574L4.377980967314763,-57.65689037883868L4.3806385952826785,-57.84207212154699L4.383632711920029,-58.02166423372343L4.386964130682685,-58.195150062419195L4.390633665026551,-58.36201295468529L4.394642128407538,-58.52173625757276L4.39899033428155,-58.67380331813274L4.403679096104438,-58.817697483416154L4.408709227332176,-58.95290210047423L4.414081541420658,-59.07890051635797L4.4197968518257005,-59.19517607811842L4.425855972003329,-59.30121213280664L4.432259715409371,-59.39649202747371L4.439008895499769,-59.48049910917068L4.446104325730376,-59.55271672494867L4.453546819557126,-59.61262822185865L4.461337190435936,-59.65971694695176L4.469476251822649,-59.69346624727902L4.47530034394422,-59.73073029053604L4.472119761553959,-59.77585148476111L4.45987914798543,-59.82890929665234L4.438523146572127,-59.88998319290774L4.407996400647597,-59.95915264022541L4.36824355354533,-60.03649710530338L4.319209248598839,-60.122096054839766L4.260838129141718,-60.21602895553256L4.193074838507378,-60.31837527407989L4.115864020029402,-60.42921447717972L4.029150317041311,-60.54862603153022L3.9328783728765946,-60.676689403829364L3.826992830868828,-60.81348406077527L3.71143833435148,-60.95908946906597L3.5861595266580633,-61.113585095399536L3.4511010511221434,-61.277050406474L3.306207551077172,-61.449564868987494L3.1514236698567366,-61.631207949638L2.9866940507943553,-61.82205911512355L2.791288599901216,-62.04872837485758L2.60585027940124,-62.26734356537746L2.4300564988346474,-62.47860135531578L2.2635846677416214,-62.68319841330544L2.1061121956622784,-62.88183140797903L1.957316492136817,-63.07519700796924L1.8168749667053854,-63.26399188190872L1.6844650289082181,-63.44891269843035L1.5597640882854633,-63.630656126166656L1.442449554377224,-63.809918833750416L1.3321988367237618,-63.98739748981433L1.228689344865247,-64.16378876299106L1.131598488341792,-64.33978932191337L1.040603676693582,-64.51609583521389L0.9553823194608485,-64.69340497152538L0.875611826183676,-64.87241339948051L0.8009696064022805,-65.05381778771199L0.7311330696568439,-65.23831480485248L0.6657796254875166,-65.42660111953475L0.6045866834344977,-65.61937340039145L0.5472316530379362,-65.81732831605534L0.4933919438380326,-66.02116253515902L0.4427449653748874,-66.23157272633532L0.3949681271887645,-66.44925555821682L0.3497388388198139,-66.67490769943625L0.30673450980815326,-66.9092258186264L0.2656325496939977,-67.15290658441987L0.22611036801752998,-67.40664666544937L0.187845374318884,-67.67114273034767L0.15051497813830714,-67.94709144774734L0.1058611717839139,-68.31127659652702L0.06894204057644644,-68.66442206200843L0.03982697115510254,-69.00682948964041L0.01858535015907982,-69.33880052487208L0.005286564227640994,-69.66063681315222L0,-69.97263999992998L0.002795044115322058,-70.27511173065423L0.01374108321285359,-70.56835365077397L0.03290750393180855,-70.8526674057381L0.0603636929114496,-71.1283546409957L0.0961790367909258,-71.39571700199565L0.14042292220948344,-71.6550561341869L0.19316473580632035,-71.90667368301848L0.2544738642206828,-72.15087129393939L0.324419694091785,-72.3879506123985L0.40307161205882436,-72.61821328384482L0.4904990047610473,-72.84196095372732L0.5867712588376518,-73.05949526749498L0.691957760927852,-73.27111787059683L0.806127897670894,-73.47713040848164L0.9293510557059105,-73.6778345265986L1.061696621672245,-73.87353187039652L1.203233982209,-74.06452408532445L1.3540325239554647,-74.25111281683137L1.514161633550844,-74.43359971036611L1.6836906976343458,-74.6122864113778L1.8515484291316222,-74.77593004819664L2.0234552464067197,-74.92997561236533L2.1998906741333073,-75.07460444817019L2.381334236985107,-75.20999789989752L2.568265459635808,-75.33633731183339L2.761163866759028,-75.45380402826427L2.9605089830285394,-75.56257939347638L3.1667803331180444,-75.662844751756L3.3804574417011692,-75.7547814473894L3.602019833451608,-75.83857082466278L3.831947033043125,-75.91439422786245L4.070718565149376,-75.98243300127466L4.318813954444023,-76.04286848918572L4.576712725600801,-76.09588203588189L4.844894403293396,-76.14165498564944L5.123838512195482,-76.18036868277464L5.414024576980757,-76.21220447154366L5.715932122322901,-76.23734369624289L6.030040672895595,-76.2559677011585L6.432592251974564,-76.26945676956458L6.842608362435646,-76.27153454287549L7.260019424805106,-76.26222700908562L7.684755859609185,-76.24156015618932L8.116748087374123,-76.20955997218104L8.555926528626198,-76.16625244505506L9.0022216038916,-76.11166356280577L9.455563733696673,-76.04581931342757L9.915883338567617,-75.96874568491482L10.383110839030676,-75.88046866526184L10.85717665561209,-75.78101424246307L11.338011208838124,-75.67040840451284L11.825544919235066,-75.54867713940548L12.319708207329146,-75.41584643513549L12.820431493646563,-75.27194227969717L13.327645198713627,-75.11699066108481L13.841279743056603,-74.95101756729288L14.361265547201691,-74.77404898631572L14.887533031675172,-74.58611090614767L15.420012617003302,-74.38722931478314L15.958634723712288,-74.17743020021653L16.503329772328406,-73.95673955044212L17.054028183377973,-73.72518335345437L17.610660377387106,-73.48278759724747L18.173156774882194,-73.22957826981609L18.741447796389366,-72.96558135915436L19.31546386243499,-72.6908228532567L19.895135393545225,-72.40532874011753L20.480392810246382,-72.10912500773127L21.071166533064655,-71.80223764409207L21.667386982526363,-71.48469263719453L22.268984579157674,-71.15651597503295L22.87588974348492,-70.81773364560163L23.488032896034305,-70.468371636895L24.105344457332123,-70.10845593690745L24.72775484790456,-69.7380125336333L25.35519448827789,-69.35706741506695L25.987593798978402,-68.96564656920275L26.62488320053228,-68.5637759840351L26.742259177094766,-68.48956760505617L26.87117226303226,-68.4089663278268L27.01092519271977,-68.32238408447905L27.160820700532273,-68.23023280714487L27.320161520844795,-68.13292442795627L27.4882503880323,-68.03087087904522L27.664390036469786,-67.92448409254374L27.847883200532298,-67.81417600058377L28.038032614594783,-67.70035853529734L28.234141013032296,-67.58344362881648L28.435511130219783,-67.46384321327312L28.64144570053229,-67.34196922079926L28.85124745834481,-67.2182335835269L29.064219138032282,-67.09304823358806L29.27966347396981,-66.9668251031147L29.496883200532306,-66.83997612423883L29.715181052094817,-66.71291322909244L29.933859763032284,-66.58604834980747L30.152222067719794,-66.45979341851597L30.36957070053232,-66.33456036734995L30.58520839584483,-66.21076112844135L30.798437888032318,-66.08880763392216L31.0085619114698,-65.96911181592442L31.21488320053233,-65.8520856065801L31.69299754492123,-65.58120676521914L32.158946317672154,-65.31658578931447L32.613067070898786,-65.05800228851446L33.055697356714916,-64.80523587246739L33.4871747272343,-64.55806615082147L33.907836734570665,-64.31627273322516L34.31802093083781,-64.07963522932671L34.7180648681494,-63.84793324877437L35.10830609861922,-63.62094640121651L35.48908217436105,-63.3984542963014L35.860730647488595,-63.18023654367743L36.223589070115615,-62.96607275299279L36.57799499435587,-62.75574253389589L36.92428597232316,-62.54902549603495L37.26279955613111,-62.3457012490583L37.59387329789356,-62.14554940261429L37.91784474972421,-61.94834956635123L38.23505146373689,-61.75388134991738L38.545830992045204,-61.56192436296107L38.85052088676304,-61.3722582151306L39.14945870000408,-61.184662516074276L39.442981983882106,-60.99891687544045L39.7314282905108,-60.814800902877394L40.01513517200399,-60.63209420803337L40.29444018047541,-60.45057640055675L40.56968086803877,-60.27002709009585L40.84119478680782,-60.09022588629892L41.10931948889635,-59.91095239881431L41.37439252641807,-59.73198623729029L41.63675145148674,-59.553107011375204L41.89673381621618,-59.37409433071737L42.15467717271997,-59.19472780496506L42.410919073111984,-59.014787043766596L42.66579706950598,-58.83405165677026L42.91964871401566,-58.65230125362443L43.17281155875476,-58.469315443977365L43.425623155837044,-58.28487383747731L43.67842105737631,-58.09875604377271L43.93154281548623,-57.910741672511776L44.1853259822806,-57.72061033334283L44.440108109873144,-57.52814163591419L44.69622675037762,-57.33311518987418L44.95401945590781,-57.13531060487107L45.21382377857739,-56.93450749055321L45.47597727050019,-56.73048545656888L45.740817483789904,-56.523024112566404L46.00868197056029,-56.31190306819406L46.27990828292507,-56.096901933100185L46.55483397299806,-55.877800316933104L46.833796592892966,-55.6543778293411L46.91405699808982,-55.59110495479451L46.99235416695911,-55.531622975433194L47.06788880376747,-55.47642004576208L47.13986161278159,-55.42598432028619L47.207473298268155,-55.38080395351047L47.26992456449388,-55.34136709993986L47.326416115725465,-55.3081619140794L47.37614865622952,-55.281676550434L47.418322890272805,-55.26239916350874L47.4767992560437,-55.247420937838264L47.49597073209781,-55.26675966834386L47.49475358011829,-55.29339430860017L47.48804409830533,-55.33212951443562L47.476035044598035,-55.382494471413914L47.45891917693553,-55.44401836509891L47.43688925325687,-55.516230381054186L47.41013803150123,-55.59865970484346L47.37885826960777,-55.690835522030504L47.343242725515545,-55.792287018179024L47.30348415716368,-55.90254337885272L47.25977532249133,-56.021133789615355L47.212308979437566,-56.14758743603055L47.161277885941566,-56.28143350366209L47.10687479994237,-56.42220117807366L47.049292479379154,-56.56941964482896L46.98872368219104,-56.722618089491775L46.92536116631712,-56.88132569762577L46.859397689696564,-57.045071654794704L46.791026010268375,-57.21338514656223L46.72043888597181,-57.38579535849204L46.64782907474592,-57.561831476147965L46.573389334529786,-57.7410226850936L46.49731242326261,-57.92289817089276L46.41979109888348,-58.10698711910907L46.34101811933146,-58.29281871530635L46.261186242545755,-58.47992214504822L46.18048822646544,-58.66782659389842L46.09911682902964,-58.85606124742071L46.017264808177444,-59.044155291178754L45.935124921848036,-59.23163791073629L45.85288992798048,-59.41803829165706L45.77075258451391,-59.602885619504704L45.68890564938743,-59.78570907984302L45.607541880540246,-59.96603785823561L45.52685403591131,-60.143401140246304L45.447034873439904,-60.31732811143881L45.36827715106507,-60.48734795737676L45.29077362672593,-60.652989863623965L45.21471705836165,-60.81378301574405L45.08711608309979,-61.07691619681364L44.956100193043426,-61.337220412171774L44.822003530958156,-61.59421848220352L44.68516023960964,-61.84743322729396L44.545904461763506,-62.09638746782811L44.404570340185394,-62.34060402419105L44.261492017640855,-62.579605716767865L44.11700363689568,-62.81291536594359L43.97143934071533,-63.0400557921033L43.82513327186554,-63.260549815632054L43.6784195731119,-63.47392025691494L43.53163238722007,-63.67968993633699L43.38510585695563,-63.87738167428327L43.23917412508429,-64.06651829113882L43.094171334371595,-64.24662260728877L42.950431627583214,-64.41721744311809L42.80828914748479,-64.57782561901195L42.668078036841955,-64.7279699553553L42.53013243842029,-64.86717327253328L42.39478649498548,-64.9949583909309L42.26237434930309,-65.11084813093329L42.133230144138885,-65.21436531292547L41.980198484771556,-65.336173516608L41.83054397086911,-65.46532758608359L41.68457037214978,-65.6012226348929L41.542581458331895,-65.7432537765766L41.404880999133745,-65.89081612467514L41.271772764273514,-66.04330479272923L41.14356052346961,-66.20011489427941L41.02054804644019,-66.3606415428664L40.903039102903605,-66.52427985203072L40.791337462578156,-66.69042493531299L40.68574689518205,-66.85847190625387L40.58657117043364,-67.02781587839391L40.49411405805113,-67.19785196527374L40.4086793277529,-67.36797528043397L40.330570749257134,-67.53758093741517L40.26009209228217,-67.70606404975808L40.197547126546255,-67.87281973100313L40.14323962176772,-68.03724309469105L40.09747334766479,-68.1987292543624L40.060552073955776,-68.35667332355786L40.03277957035893,-68.51047041581792L40.014459606592546,-68.65951564468324L40.00589595237498,-68.80320412369448L40.007392377424345,-68.94093096639222L40.01925265145908,-69.07209128631702L40.041780544197394,-69.19608019700954L40.07527982535754,-69.31229281201041L40.131754152901756,-69.45553773936459L40.19737472293798,-69.58811220525199L40.27184658672694,-69.71008133838474L40.3548747955294,-69.82151026747474L40.44616440060618,-69.92246412123409L40.54542045321803,-70.0130080283748L40.652348004625786,-70.09320711760878L40.76665210609017,-70.1631265176482L40.888037808871985,-70.22283135720501L41.016210164231985,-70.27238676499118L41.15087422343101,-70.31185786971879L41.29173503772979,-70.34130980009985L41.43849765838914,-70.36080768484635L41.590867136669786,-70.37041665267031L41.74854852383258,-70.37020183228377L41.911246871138275,-70.36022835239879L42.07866722984761,-70.34056134172727L42.25051465122146,-70.31126592898129L42.4264941865205,-70.27240724287287L42.6063108870056,-70.22405041211405L42.789669803937485,-70.16626056541679L42.97627598857697,-70.09910283149318L43.16583449218479,-70.02264233905515L43.35805036602179,-69.9369442168148L43.55262866134873,-69.84207359348403L43.749274429426336,-69.73809559777499L43.947692721515445,-69.62507535839968L44.14758858887684,-69.50307800407006L44.34866708277127,-69.37216866349814L44.55063325445955,-69.232412465396L44.75319215520242,-69.08387453847556L44.95604883626069,-68.92662001144893L45.15890834889518,-68.7607140130281L45.36147574436659,-68.58622167192512L45.563456073935754,-68.40320811685191L45.76455438886343,-68.21173847652057L45.964475740410386,-68.01187787964311L46.07675814490307,-67.8948016514392L46.19570510065308,-67.76683830261123L46.320543796149686,-67.62895264123239L46.45050141988208,-67.48210947537574L46.58480516033947,-67.32727361311439L46.72268220601111,-67.1654098625214L46.86335974538617,-66.99748303166993L47.00606496695387,-66.82445792863312L47.150025059203436,-66.64729936148404L47.29446721062407,-66.46697213829579L47.438618609704996,-66.28444106714153L47.581706444935456,-66.10067095609428L47.72295790480461,-65.91662661322725L47.8616001778017,-65.73327284661349L47.99686045241593,-65.55157446432607L48.12796591713653,-65.37249627443818L48.25414376045271,-65.19700308502293L48.374621170853686,-65.02605970415333L48.48862533682868,-64.86063093990258L48.59933251003161,-64.69565114404598L48.71532631914194,-64.51831847790837L48.83624868584522,-64.32930012487246L48.961741531827094,-64.1292632683211L49.09144677877317,-63.918875091637055L49.22500634836902,-63.69880277820318L49.36206216230029,-63.46971351140219L49.50225614225262,-63.23227447461691L49.645230209911546,-62.987152851230114L49.7906262869627,-62.73501582462462L49.938086295091686,-62.4765305781832L50.08725215598416,-62.212364295288715L50.23776579132566,-61.94318415932384L50.3892691228018,-61.66965735367147L50.54140407209825,-61.39245106171436L50.693812560900604,-61.112232466835295L50.846136510894354,-60.82966875241707L50.99801784376526,-60.5454271018425L51.14909848119883,-60.26017469849435L51.29902034488072,-59.97457872575545L51.447425356496545,-59.689306367008555L51.5939554377319,-59.405024805636515L51.738252510272346,-59.12240122502202L51.87995849580355,-58.842102808547956L52.01871531601111,-58.56479673959712L52.15416489258058,-58.29115020155223L52.28594914719764,-58.02183037779616L52.41371000154787,-57.757504451711625L52.53708937731691,-57.49883960668151L52.65572919619025,-57.2465030260885L52.76927137985362,-57.00116189331546L52.877357849992606,-56.763483391745176L52.97963052829277,-56.53413470476043L53.075731336439716,-56.31378301574405L53.13041576613542,-56.18912875685223L53.18373545133503,-56.07208940671824L53.23547806583522,-55.96298760657665L53.28543128343239,-55.862145997661955L53.33338277792319,-55.76988722120867L53.37912022310416,-55.686533918451254L53.42243129277181,-55.6124087306243L53.46310366072275,-55.54783429896223L53.50092500075351,-55.4931332646996L53.53568298666064,-55.44862826907095L53.567165292240674,-55.41464195331073L53.59515959129017,-55.391496958653434L53.619453557605695,-55.37951592633365L53.656091187221,-55.390336313644426L53.66801019811388,-55.41378301574405L53.7371639194693,-55.62023291009956L53.81315834951318,-55.837489400950325L53.895682060085676,-56.064905828898084L53.98442362302663,-56.301835534544786L54.07907161017632,-56.54763185849219L54.17931459337463,-56.80164814134205L54.284841144461765,-57.06323772369623L54.395339835277724,-57.331753946156546L54.510499237662586,-57.60655014932476L54.63000792345631,-57.886979673802735L54.753554464499025,-58.17239586019229L54.880827432630795,-58.4621520490952L55.01151539969175,-58.755601581113325L55.14530693752177,-59.05209779684838L55.28189061796102,-59.35099403690228L55.42095501284955,-59.651643641876774L55.562188694027434,-59.95339995237365L55.70528023333465,-60.25561630899483L55.84991820261135,-60.55764605234204L55.99579117369759,-60.858842523017096L56.14258771843339,-61.15855906162185L56.28999640865873,-61.4561490087581L56.437705816213814,-61.750965705027596L56.5854045129386,-62.04236249103225L56.732781070673205,-62.32969270737382L56.87952406125762,-62.612309694654144L57.02532205653202,-62.88956679347496L57.169863628336266,-63.16081734443814L57.312837348510634,-63.42541468814549L57.45393178889499,-63.68271216519885L57.59283552132954,-63.93206311619996L57.72923711765427,-64.17282088175071L57.86282514970922,-64.40433880245286L57.9932881893345,-64.62597021890822L58.12031480837015,-64.83706847171867L58.2435935786562,-65.0369869014859L58.362813072032736,-65.22507884881182L58.47766186033981,-65.40069765429821L58.626371769681974,-65.61869518593696L58.78348537474641,-65.83854618189793L58.94839771869021,-66.05967570065584L59.12050384467049,-66.28150880068549L59.29919879584432,-66.50347054046144L59.483877615368876,-66.72498597845853L59.67393534640121,-66.9454801731514L59.86876703209844,-67.16437818301482L60.06776771561763,-67.3811050665235L60.27033244011594,-67.59508588215215L60.475856248750425,-67.8057456883755L60.68373418467822,-68.0125095436682L60.893361291056415,-68.21480250650501L61.10413261104221,-68.41204963536065L61.31544318779256,-68.6036759887099L61.52668806446469,-68.78910662502737L61.73726228421558,-68.96776660278785L61.94656089020244,-69.139080980466L62.153978925582315,-69.30247481653655L62.35891143351237,-69.45737316947421L62.56075345714971,-69.60320109775381L62.75890003965132,-69.73938365984989L62.95274622417443,-69.8653459142373L63.141687053876076,-69.98051291939068L63.32511757191344,-70.08430973378479L63.50243282144351,-70.1761614158943L63.679111709624834,-70.26117837261009L63.84622412771929,-70.33735897746976L64.00434141313683,-70.4046796294716L64.1540349032874,-70.46311672761385L64.29587593558081,-70.51264667089474L64.43043584742684,-70.55324585831254L64.55828597623547,-70.58489068886547L64.67999765941649,-70.6075575615518L64.79614223437977,-70.62122287536978L64.9072910385352,-70.62586302931763L65.01401540929267,-70.62145442239365L65.11688668406194,-70.6079734535961L65.21647620025294,-70.58539652192316L65.31335529527554,-70.55370002637312L65.40809530653964,-70.51286036594428L65.50126757145503,-70.46285393963477L65.59344342743154,-70.40365714644297L65.68519421187914,-70.33524638536699L65.7770912622076,-70.25759805540521L65.86970591582684,-70.17068855555576L65.96360951014671,-70.07449428481699L66.02160275503195,-70.01109697748274L66.07350215406069,-69.95035519594842L66.11952153964064,-69.89129369320499L66.1598747441792,-69.83293722224316L66.19477560008411,-69.77431053605386L66.22443793976288,-69.71443838762792L66.249075595623,-69.65234552995618L66.26890240007218,-69.58705671602942L66.2841321855179,-69.51759669883857L66.29497878436779,-69.44299023137447L66.30165602902936,-69.36226206662788L66.3043777519103,-69.27443695758969L66.30335778541802,-69.17853965725078L66.29880996196023,-69.07359491860196L66.29094811394448,-68.95862749463406L66.27998607377826,-68.83266213833792L66.26613767386928,-68.69472360270439L66.23186117727069,-68.42754406413015L66.18587075795244,-68.16333520517674L66.12844883567827,-67.90273101720975L66.05987783021156,-67.64636549159466L65.98044016131601,-67.394872619697L65.89041824875507,-67.14888639288223L65.79009451229228,-66.90904080251588L65.67975137169127,-66.6759698399634L65.55967124671552,-66.45030749659038L65.4301365571287,-66.2326877637623L65.29142972269423,-66.02374463284464L65.14383316317573,-65.82411209520285L64.98762929833678,-65.63442414220255L64.82310054794091,-65.45531476520918L64.62657513384336,-65.24588077069919L64.4301214733121,-65.02241099621581L64.23380125987858,-64.78500450482427L64.03767618707421,-64.53376035958988L63.84180794843043,-64.26877762357802L63.646258237478605,-63.99015535985396L63.45108874775025,-63.69799263148302L63.25636117277677,-63.39238850153048L63.06213720608956,-63.07344203306169L62.86847854122009,-62.74125228914194L62.67544687169973,-62.39591833283653L62.48310389105998,-62.03753922721077L62.29151129283229,-61.66621403532994L62.10073077054798,-61.28204182025944L61.91082401773856,-60.88512164506447L61.721852727935456,-60.47555257281031L61.63424851504656,-60.28094895926808L61.54637717362158,-60.08317719858266L61.458416082139664,-59.882713217053436L61.37054261908009,-59.68003294097991L61.28293416292198,-59.4756122966615L61.19576809214462,-59.26992721039762L61.10922178522716,-59.063453608487734L61.02347262064887,-58.85666741723128L60.938697976888875,-58.65004456292772L60.855075232426465,-58.44406097187648L60.772781765740795,-58.239192570377014L60.69199495531109,-58.03591528472874L60.612892179616544,-57.83470504123108L60.5356508171364,-57.63603776618359L60.46044824634981,-57.440389385885524L60.38746184573605,-57.24823582663652L60.31686899377427,-57.060053014735885L60.2488470689437,-56.87631687648307L60.18357344972355,-56.69750333817762L60.121225514593014,-56.52408832611886L60.061980642031315,-56.35654776660623L60.00601621051768,-56.19535758593931L59.95350959853124,-56.040993710417375L59.90463818455134,-55.89393206634002L59.85957934705703,-55.754648580006496L59.81851046452758,-55.623619177716435L59.78160891544222,-55.50131978576919L59.74905207828019,-55.388226330464235L59.72101733152059,-55.284814738100934L59.69768205364271,-55.191560934978796L59.679223623125736,-55.10894084739724L59.6658194184489,-55.03743040165576L59.657646818091365,-54.977505524053704L59.65977578628413,-54.91349828611471L59.69791406958012,-54.90909147718206L59.73049149864573,-54.92030586758159L59.77162894033736,-54.94011701759583L59.82099226041573,-54.96826359950282L59.8782473246414,-55.00448428558078L59.943059998775134,-55.04851774810786L60.01509614857759,-55.10010265936209L60.0940216398095,-55.1589776916216L60.17950233823149,-55.224881517164484L60.27120410960429,-55.29755280826891L60.368792819688544,-55.37673023721301L60.47193433424492,-55.46215247627483L60.58029451903418,-55.553558197732556L60.69353923981692,-55.650686073864264L60.81133436235392,-55.753274776948096L60.933345752405785,-55.8610629792621L61.05923927573323,-55.97378935308451L61.18868079809691,-56.09119257069336L61.32133618525754,-56.21301130436682L61.45687130297586,-56.33898422638295L61.784692717361494,-56.64259901403525L62.1243744736277,-56.95156329076615L62.47557190757104,-57.26560741563874L62.83794035498807,-57.58446174771621L63.21113515167541,-57.90785664606183L63.59481163342961,-58.23552246973867L63.98862513604734,-58.56718957780993L64.39223099532504,-58.9025883293388L64.80528454705946,-59.24144908338846L65.22744112704704,-59.58350219902207L65.65835607108447,-59.92847803530285L66.09768471496834,-60.276106951293954L66.54508239449515,-60.62611930605852L67.0002044454615,-60.9782454586598L67.46270620366408,-61.33221576816092L67.93224300489936,-61.687760593625015L68.40847018496399,-62.044610294115365L68.89104307965454,-62.402495228695074L69.3796170247676,-62.76114575642738L69.87384735609973,-63.120292236375384L70.3733894094475,-63.4796650276023L70.87789852060763,-63.838994489171284L71.38703002537646,-64.19801098014563L71.90043925955084,-64.55644485958832L72.41778155892723,-64.91402648656265L72.6293189883152,-65.05951540244465L72.83987912372241,-65.20434817792683L73.04911196514882,-65.34828368207853L73.2566675125945,-65.49108078396895L73.46219576605932,-65.63249835266738L73.66534672554344,-65.77229525724307L73.86577039104678,-65.91023036676529L74.06311676256931,-66.0460625503033L74.25703584011106,-66.17955067692637L74.44717762367199,-66.3104536157037L74.63319211325219,-66.43853023570468L74.81472930885154,-66.56353940599845L74.99143921047016,-66.68523999565441L75.16297181810803,-66.80339087374166L75.32897713176509,-66.91775090932958L75.48910515144135,-67.02807897148736L75.64300587713686,-67.13413392928435L75.79032930885157,-67.23567465178971L75.93072544658548,-67.33246000807279L76.06384429033866,-67.42424886720279L76.18933584011101,-67.510800098249L76.30685009590263,-67.59187257028073L76.41603705771344,-67.66722515236717L76.51654672554348,-67.73661671357759L76.60802909939271,-67.79980612298127L76.69013417926118,-67.85655224964754L76.76251196514892,-67.90661396264558L76.82481245705577,-67.94975013104462L76.8766856549819,-67.985719623914L76.91778155892727,-68.01428131032304L77.5053919923963,-68.42243225929572L78.08251812920217,-68.82140332387999L78.6493300790971,-69.21128404267176L79.20599795183375,-69.5921639542667L79.75269185716455,-69.96413259726059L80.28958190484191,-70.32727951024931L80.8168382046184,-70.68169423182862L81.33463086624648,-71.02746630059428L81.84312999947862,-71.36468525514205L82.34250571406724,-71.69344063406773L82.8329281197649,-72.01382197596719L83.31456732632404,-72.32591881943608L83.78759344349706,-72.62982070307027L84.25217658103662,-72.92561716546557L84.70848684869509,-73.21339774521773L85.156694356225,-73.49325198092254L85.59696921337871,-73.76526941117571L86.02948152990878,-74.02953957457319L86.45440141556766,-74.28615200971065L86.87189898010791,-74.5351962551839L87.28214433328193,-74.77676184958867L87.68530758484228,-75.01093833152083L88.08155884454125,-75.23781523957618L88.47106822213154,-75.4574821123504L88.85400582736543,-75.67002848843946L89.2305417699956,-75.87554390643898L89.60084615977442,-76.07411790494479L89.96508910645429,-76.26584002255272L90.32344071978792,-76.45079979785848L90.67607110952753,-76.62908676945791L91.02315038542571,-76.80079047594677L91.36484865723497,-76.96600045592089L91.70133603470778,-77.12480624797597L92.0327826275965,-77.27729739070782L92.35935854565378,-77.42356342271242L92.68123389863203,-77.5636938825853L92.99857879628371,-77.69777830892232L93.31156334836133,-77.82590624031933L93.62035766461734,-77.94816721537207L93.9251318548042,-78.06465077267634L94.22605602867439,-78.17544645082792L94.52330029598046,-78.28064378842255L94.81703476647479,-78.38033232405611L95.10742954990994,-78.47460159632435L95.39465475603835,-78.56354114382297L95.6788804946125,-78.64724050514785L95.96027687538485,-78.7257892188949L96.23901400810793,-78.79927682365961L96.51526200253421,-78.86779285803799L96.78919096841614,-78.93142686062575L97.06097101550615,-78.9902683700187L97.3307722535568,-79.04440692481252L97.5987647923205,-79.09393206360319L97.86511874154985,-79.13893332498628L98.13000421099721,-79.17950024755778L98.45706536551752,-79.22320500797025L98.77370888921267,-79.25769737537951L99.080474370404,-79.28292231733255L99.37790139741271,-79.29882480137645L99.66652955856001,-79.3053497950583L99.94689844216725,-79.30244226592511L100.21954763655548,-79.29004718152385L100.48501673004608,-79.2681095094017L100.74384531096027,-79.2365742171056L100.99657296761914,-79.19538627218262L101.2437392883441,-79.14449064217987L101.48588386145634,-79.08383229464431L101.72354627527685,-79.01335619712302L101.95726611812725,-78.93300731716299L102.18758297832862,-78.84273062231132L102.4150364442021,-78.7424710801151L102.65146969104862,-78.62612978858748L102.8789035864124,-78.50129902275742L103.09738928597075,-78.36786984336828L103.30697794540096,-78.2257333111636L103.50772072038039,-78.07478048688698L103.69966876658653,-77.91490243128179L103.88287323969662,-77.74599020509166L104.05738529538809,-77.56793486905994L104.22325608933832,-77.38062748393027L104.3805367772245,-77.18395911044607L104.52927851472418,-76.97782080935087L104.66953245751463,-76.76210364138811L104.80134976127331,-76.5366986673014L104.92478158167731,-76.30149694783415L105.03987907440435,-76.05638954372986L105.1466933951315,-75.8012675157321L105.24527569953632,-75.53602192458433L105.335677143296,-75.26054383103005L105.417948882088,-74.97472429581272L105.49214207158974,-74.67845437967594L105.55830786747846,-74.37162514336309L105.61649742543153,-74.05412764761778L105.66676190112638,-73.72585295318342L105.70915245024027,-73.38669212080354L105.74372022845064,-73.03653621122164L105.7705163914349,-72.6752762851813L105.78959209487023,-72.30280340342586L105.80099849443417,-71.91900862669897L105.80478674580402,-71.52378301574409L105.80407837932032,-71.28948288093729L105.80180987484427,-71.06492344717935L105.79775937147797,-70.84948755719277L105.79170500832367,-70.64255805369987L105.78342492448343,-70.443517779423L105.7726972590595,-70.25174957708467L105.75930015115412,-70.06663628940723L105.74301173986925,-69.88756075911307L105.7236101643073,-69.71390582892455L105.70087356357031,-69.54505434156417L105.6745800767606,-69.38038913975426L105.64450784298018,-69.21929306621723L105.61043500133137,-69.06114896367546L105.57213969091626,-68.90533967485139L105.52940005083703,-68.75124804246738L105.48199422019587,-68.59825690924585L105.42970033809495,-68.4457491179092L105.37229654363658,-68.29310751117984L105.3095609759228,-68.1397149317801L105.24127177405573,-67.98495422243244L105.16720707713775,-67.82820822585927L105.08714502427084,-67.66885978478298L105.00086375455724,-67.50629174192593L104.90814140709921,-67.33988694001057L104.80875612099886,-67.1690282217592L104.70248603535842,-66.99309842989435L104.58910928927997,-66.81148040713838L104.46840402186587,-66.62355699621362L104.34014837221801,-66.42871103984251L104.2041204794388,-66.22632538074748L104.06009848263034,-66.01578286165092L103.90786052089496,-65.79646632527522L103.74718473333452,-65.56775861434268L103.57784925905146,-65.32904257157587L102.153670402432,-63.32952832032337L102.45873983439245,-61.756655668033716L102.48404628523876,-61.62223854268945L102.50800986915979,-61.48661364763976L102.5306570366644,-61.34927510832001L102.55201423826108,-61.209717050165644L102.57210792445834,-61.06743359861209L102.59096454576493,-60.9219188790948L102.60861055268947,-60.77266701704916L102.62507239574042,-60.61917213791062L102.6403765254265,-60.46092836711458L102.65454939225633,-60.29742983009651L102.66761744673838,-60.12817065229181L102.67960713938128,-59.95264495913591L102.69054492069382,-59.77034687606425L102.70045724118441,-59.580770528512254L102.70937055136169,-59.38341004191532L102.71731130173433,-59.17775954170889L102.72430594281089,-58.9633131533284L102.73038092510002,-58.7395650022093L102.73556269911019,-58.50600921378698L102.73987771535015,-58.26213991349685L102.74335242432852,-58.0074512267744L102.74601327655387,-57.74143727905499L102.74788672253457,-57.46359219577409L102.74899921277958,-57.17341010236712L102.74937719779729,-56.87038512426953L102.74904712809644,-56.55401138691669L102.74803545418546,-56.223783015744054L102.74664053136489,-55.919504108198886L102.7449012844236,-55.62835516428421L102.74276879689151,-55.34966876888864L102.74019415229836,-55.082777506900754L102.7371284341742,-54.827013963209076L102.73352272604883,-54.58171072270222L102.72932811145212,-54.34620037026881L102.72449567391395,-54.11981549079738L102.7189764969642,-53.90188866917644L102.71272166413272,-53.69175249029468L102.70568225894937,-53.48873953904066L102.6978093649441,-53.292182400302885L102.68905406564667,-53.10141365896998L102.67936744458703,-52.91576589993053L102.66870058529513,-52.734571708073105L102.6570045713007,-52.55716366828625L102.64423048613368,-52.38287436545864L102.63032941332389,-52.21103638447875L102.61525243640126,-52.040982310235215L102.59895063889566,-51.872044727616526L102.58137510433698,-51.70355622151136L102.56247691625506,-51.53484937680829L102.5422071581798,-51.36525677839585L102.52051691364113,-51.194111011162654L102.4973572661687,-51.02074465999721L102.47267929929257,-50.84449030978817L102.44643409654275,-50.66468054542412L102.41857274144871,-50.4806479517936L102.38904631754065,-50.2917251137852L102.35780590834835,-50.097244616287426L102.32480259740169,-49.89653904418892L102.28998746823055,-49.68894098237833L102.25331160436477,-49.47378301574409L102.17702636125155,-49.035451179104186L102.10087020021633,-48.61027360006947L102.0246459236538,-48.19756048347611L101.94815633395878,-47.79662203416041L101.871204233526,-47.40676845695856L101.79359242475012,-47.027309956706894L101.71512371002606,-46.657556738241524L101.63560089174834,-46.296819006398756L101.5548267723121,-45.9444069660148L101.47260415411166,-45.59963082192596L101.38873583954191,-45.2618007789684L101.30302463099773,-44.93022704197833L101.21527333087379,-44.60421981579207L101.1252847415648,-44.28308930524583L101.03286166546557,-43.966145715175834L100.9378069049708,-43.652699250418344L100.83992326247531,-43.34206011580955L100.73901354037382,-43.03353851618576L100.63488054106107,-42.7264446563831L100.52732706693185,-42.420088741237905L100.41615592038082,-42.11378097558643L100.30116990380282,-41.80683156426483L100.18217181959254,-41.49855071210942L100.05896447014484,-41.18824862395637L99.93135065785435,-40.87523550464195L99.79913318511586,-40.55882155900242L99.66211485432414,-40.23831699187392L99.52009846787399,-39.91303200809283L99.36164807945751,-39.56183848623167L99.19856143267737,-39.21629579261767L99.03111258123185,-38.87677431782599L98.85957557881925,-38.543644452431764L98.68422447913784,-38.21727658701012L98.50533333588585,-37.898041112136205L98.32317620276176,-37.5863084183852L98.13802713346372,-37.282448896332255L97.9501601816901,-36.986832936552496L97.75984940113916,-36.69983092962107L97.56736884550918,-36.42181326611313L97.37299256849856,-36.153150336603865L97.1769946238055,-35.89421253166832L96.97964906512836,-35.64537024188171L96.78122994616535,-35.40699385781919L96.58201132061482,-35.179453770055865L96.38226724217512,-34.96312036916694L96.18227176454445,-34.758364045727475L95.98229894142119,-34.56555519031271L95.78262282650361,-34.385064193497726L95.58351747349,-34.21726144585773L95.38525693607865,-34.06251733796782L95.1881152679679,-33.92120226040315L94.99236652285597,-33.79368660373889L94.38870048083211,-33.420600471914014L95.70906076019733,-32.017049262951176L95.93698699267864,-31.770695642419255L96.15475410063034,-31.526790896076456L96.36261520197017,-31.284740293296394L96.56082341461594,-31.04394910345269L96.74963185648538,-30.803822595918973L96.92929364549617,-30.563766040068785L97.10006189956617,-30.3231847052758L97.26218973661317,-30.081483860913597L97.41593027455482,-29.838068776355808L97.56153663130891,-29.592344720976023L97.6992619247932,-29.34371696414785L97.82935927292554,-29.0915907752449L97.95208179362366,-28.83537142364078L98.06768260480526,-28.57446417870913L98.17641482438806,-28.3082743098235L98.27853157028991,-28.036207086357525L98.37428596042855,-27.757667777684844L98.46393111272175,-27.47206165317905L98.54772014508724,-27.178793982213744L98.62590617544282,-26.8772700341625L98.69874232170622,-26.566895078399007L98.7664817017951,-26.247074384296813L98.82937743362744,-25.91721322122955L98.88768263512083,-25.576716858570805L98.94165042419306,-25.224990565694238L98.99153391876197,-24.86143961197339L99.03758623674523,-24.485469266781923L99.08006049606063,-24.096484799493425L99.1256017583385,-23.587702182476193L99.15744744434637,-23.078310673600622L99.17560078545822,-22.568326120157725L99.18006501304791,-22.057764369438573L99.17084335848926,-21.54664126873421L99.14793905315616,-21.034972665335676L99.11135532842242,-20.522774406534026L99.06109541566197,-20.010062339620298L98.9971625462486,-19.496852311885537L98.91955995155611,-18.9831601706208L98.8282908629585,-18.469001763117127L98.7233585118295,-17.9543929366656L98.6047661295431,-17.4393495385572L98.47251694747308,-16.92388741608304L98.32661419699328,-16.408022416534124L98.1670611094776,-15.891770387201511L97.99386091629987,-15.375147175376252L97.80701684883394,-14.858168628349386L97.60653213845367,-14.340850593411973L97.39241001653293,-13.823208917855046L97.16465371444568,-13.305259448969654L96.9232664635655,-12.78701803404685L96.66825149526653,-12.268500520377678L96.42071414255005,-11.792247624633378L96.16346481964398,-11.324777540768496L95.89669143745328,-10.866224822160376L95.62058190688312,-10.416724022186349L95.33532413883856,-9.97640969422375L95.04110604422466,-9.545416391649942L94.73811553394658,-9.123878667842229L94.42654051890932,-8.711931076177974L94.10656891001798,-8.30970817003451L93.77838861817771,-7.917344502789178L93.44218755429357,-7.534974627819308L93.09815362927058,-7.162733098502246L92.74647475401387,-6.800754468215326L92.3873388394285,-6.449173290335892L92.0209337964195,-6.108124118241275L91.64744753589211,-5.777741505308827L91.26706796875129,-5.458160004915879L90.87998300590216,-5.149514170439762L90.48638055824978,-4.8519385552578225L90.08644853669922,-4.565567712747399L89.68037485215564,-4.290536196285831L89.26834741552406,-4.026978559250459L88.85055413770957,-3.7750293550186167L88.42718292961729,-3.5348231369676433L87.99842170215226,-3.3064944584748837L87.56445836621955,-3.0901778729176725L87.12548083272432,-2.8860079336733446L86.68167701257158,-2.694119194119241L86.2332348166665,-2.5146462076327016L85.780342155914,-2.347723527591066L85.32318694121929,-2.1934857073716723L84.86195708348744,-2.0520673003518577L84.39684049362347,-1.9236028599089627L83.92802508253261,-1.808226939420327L83.45569876111976,-1.7060740922632847L82.98004944029012,-1.617278871815178L82.50126503094876,-1.5419758314533474L82.01953344400071,-1.480299524555125L81.53504259035115,-1.432384504497863L81.00829487579892,-1.3942647595203734L80.4847372520684,-1.3690921412784782L79.96425213499393,-1.3569015625998868L79.44672194040979,-1.3577279363122972L78.93202908415029,-1.3716061752434159L78.42005598204967,-1.3985711922209392L77.9106850499424,-1.4386579000725752L77.40379870366274,-1.491901211626027L76.89927935904493,-1.558336039708993L76.39700943192338,-1.6379972971491759L75.89687133813226,-1.730919896774284L75.39874749350608,-1.8371387514120137L74.90252031387904,-1.9566887738900725L74.40807221508547,-2.089604877036161L73.91528561295975,-2.2359219736779816L73.42404292333599,-2.395674976643241L72.93422656204876,-2.568898798759635L72.44571894493225,-2.755628352854868L71.95840248782076,-2.9558985517566447L71.47215960654859,-3.1697443082926684L70.98687271695016,-3.3972005352906374L70.50242423485966,-3.6383021455782596L70.0186965761115,-3.893084051983239L69.53557215653991,-4.161581167333273L69.05293339197931,-4.443828404456066L68.57066269826393,-4.739860676179316L68.08864249122809,-5.049712895330741L67.60675518670612,-5.373419974738029L67.1248832005324,-5.711016827228887L66.99208536102624,-5.8057522910461055L66.85816715114967,-5.900875474776468L66.7238415338657,-5.995895287593484L66.58982147213736,-6.090320638670662L66.45681992892746,-6.183660437181502L66.32554986719902,-6.275423592299527L66.19672424991509,-6.3651190131982265L66.07105604003854,-6.452255609051107L65.94925820053241,-6.536342289031693L65.8320436943595,-6.616887962313483L65.72012548448298,-6.693401538069978L65.61421653386569,-6.765391925474694L65.51502980547066,-6.832368033701131L65.42327826226075,-6.893838771922803L65.33967486719907,-6.94931304931321L65.26493258324842,-6.998299775045865L65.19976437337188,-7.040307858294271L65.14488320053235,-7.074846208231938L65.09977416597185,-7.104448559238741L65.04575472570137,-7.142847180286477L64.98328637483738,-7.189636171705553L64.91283060849628,-7.244409633826352L64.83484892179457,-7.306761666979289L64.74980280984865,-7.376286371494768L64.658153767775,-7.452577847703178L64.5603632906901,-7.535230195934929L64.45689287371039,-7.623837516520423L64.34820401195233,-7.717993909790058L64.23475820053234,-7.817293476074234L64.11701693456696,-7.921330315703354L63.99544170917246,-8.02969852900782L63.870494019465475,-8.141992216318034L63.742635360562396,-8.257805477964393L63.61232722757967,-8.376732414277301L63.48003111563377,-8.498367125587162L63.34620851984115,-8.622303712224372L63.21132093531817,-8.748136274519336L63.07582985718151,-8.87545891280245L62.940196780547396,-9.003865727404124L62.8048832005324,-9.132950818654747L62.661378013763276,-9.270386720298445L62.514160161773965,-9.41138132725374L62.363890492755786,-9.555301628710529L62.21122985490011,-9.701514613858711L62.0568390963983,-9.849387271888197L61.90137906544179,-9.998286591988892L61.74551061022177,-10.147579563350693L61.58989457892973,-10.296633175163516L61.43519181975699,-10.444814416617257L61.28206318089493,-10.591490276901819L61.13116951053489,-10.7360277452071L60.9831716568682,-10.87779381072302L60.83873046808627,-11.016155462639462L60.69850679238038,-11.150479690146353L60.56316147794197,-11.280133482433579L60.43335537296236,-11.40448382869106L60.30974932563293,-11.522897718108682L60.193004184145046,-11.634742139876359L60.08378079669,-11.739384083183994L59.98274001145918,-11.836190537221489L59.890542676643996,-11.924528491178757L58.77620215275565,-12.992253767899573L58.31153677291646,-11.928018391821842L58.15154912154143,-11.56177218512552L57.99702715991539,-11.208408078722723L57.84788499971873,-10.867741996780447L57.70403675263163,-10.53958986346571L57.56539653033432,-10.223767602945538L57.43187844450709,-9.920091139386937L57.303396606830184,-9.628376396956922L57.17986512898389,-9.348439299822497L57.061198122648406,-9.080095772150695L56.947309699504025,-8.823161738108517L56.838113971230975,-8.577453121862977L56.7335250495095,-8.342785847581093L56.63345704601989,-8.118975839429876L56.53782407244238,-7.905839021576339L56.44654024045722,-7.703191318187496L56.35951966174475,-7.510848653430371L56.27667644798505,-7.328626951471965L56.19792471085847,-7.1563421364793L56.12317856204533,-6.9938101326193785L56.05235211322577,-6.840846864059224L55.9853594760801,-6.697268254965847L55.92211476228856,-6.562890229506266L55.86253208353137,-6.437528711847489L55.80652555148884,-6.320999626156537L55.75400927784122,-6.213118896600413L55.70489737426878,-6.113702447346138L55.65910395245174,-6.022566202560731L55.61654312407028,-5.939526086411187L55.577129000804774,-5.864398023064543L55.54077569433541,-5.796997936687798L55.50739731634248,-5.7371417514479655L55.476907978506226,-5.684645391512072L55.44922179250695,-5.639324781047114L55.42425287002478,-5.600995844220119"/>
</svg>