 0
SECTION
 2
ENTITIES
  0
POLYLINE
 8
Layer0
 66
     1
70
    8
 10
0.0
 20
 0.0
 30
0.0
  0
VERTEX
  8
MY3DLAYER
10
55.42425287002478
20
5.600995844220119
30
0.0
 70
     32
  0
VERTEX
  8
MY3DLAYER
10
55.40191532274007
20
5.5694745051980945
30
0.0
 70
     32
  0
VERTEX
  8
MY3DLAYER
10
55.32669212308682
20
5.5075391230080415
30
0.0
 70
     32
  0
VERTEX
  8
MY3DLAYER
10
55.30615323447372
20
5.529679999628172
30
0.0
 70
     32
  0
VERTEX
  8
MY3DLAYER
10
55.288916402235756
20
5.557809211952241
30
0.0
 70
     32
  0
VERTEX
  8
MY3DLAYER
10
55.26687180777559
20
5.596878584170536
30
0.0
 70
     32
  0
VERTEX
  8
MY3DLAYER
10
55.24026258331082
20
5.646381285158229
30
0.0
 70
     32
  0
VERTEX
  8
MY3DLAYER
10
55.20933186105889
20
5.705810483790503
30
0.0
 70
     32
  0
VERTEX
  8
MY3DLAYER
10
55.174322773237435
20
5.774659348942527
30
0.0
 70
     32
  0
VERTEX
  8
MY3DLAYER
10
55.1354784520639
20
5.852421049489483
30
0.0
 70
     32
  0
VERTEX
  8
MY3DLAYER
10
55.09304202975577
20
5.9385887543065445
30
0.0
 70
     32
  0
VERTEX
  8
MY3DLAYER
10
55.04725663853069
20
6.03265563226889
30
0.0
 70
     32
  0
VERTEX
  8
MY3DLAYER
10
54.99836541060609
20
6.134114852251697
30
0.0
 70
     32
  0
VERTEX
  8
MY3DLAYER
10
54.94661147819959
20
6.242459583130151
30
0.0
 70
     32
  0
VERTEX
  8
MY3DLAYER
10
54.8922379735286
20
6.357182993779407
30
0.0
 70
     32
  0
VERTEX
  8
MY3DLAYER
10
54.83548802881075
20
6.477778253074664
30
0.0
 70
     32
  0
VERTEX
  8
MY3DLAYER
10
54.77660477626352
20
6.603738529891085
30
0.0
 70
     32
  0
VERTEX
  8
MY3DLAYER
10
54.71583134810439
20
6.734556993103855
30
0.0
 70
     32
  0
VERTEX
  8
MY3DLAYER
10
54.65341087655097
20
6.869726811588151
30
0.0
 70
     32
  0
VERTEX
  8
MY3DLAYER
10
54.58958649382081
20
7.008741154219148
30
0.0
 70
     32
  0
VERTEX
  8
MY3DLAYER
10
54.52460133213127
20
7.151093189872019
30
0.0
 70
     32
  0
VERTEX
  8
MY3DLAYER
10
54.45869852370004
20
7.296276087421946
30
0.0
 70
     32
  0
VERTEX
  8
MY3DLAYER
10
54.39212120074454
20
7.443783015744106
30
0.0
 70
     32
  0
VERTEX
  8
MY3DLAYER
10
54.315074656863096
20
7.614962097327209
30
0.0
 70
     32
  0
VERTEX
  8
MY3DLAYER
10
54.23285807044986
20
7.797602304600536
30
0.0
 70
     32
  0
VERTEX
  8
MY3DLAYER
10
54.14607755553478
20
7.990358081350121
30
0.0
 70
     32
  0
VERTEX
  8
MY3DLAYER
10
54.05533922614783
20
8.191883871362002
30
0.0
 70
     32
  0
VERTEX
  8
MY3DLAYER
10
53.96124919631883
20
8.400834118422207
30
0.0
 70
     32
  0
VERTEX
  8
MY3DLAYER
10
53.86441358007782
20
8.615863266316767
30
0.0
 70
     32
  0
VERTEX
  8
MY3DLAYER
10
53.76543849145463
20
8.83562575883172
30
0.0
 70
     32
  0
VERTEX
  8
MY3DLAYER
10
53.66493004447928
20
9.05877603975309
30
0.0
 70
     32
  0
VERTEX
  8
MY3DLAYER
10
53.56349435318156
20
9.283968552866918
30
0.0
 70
     32
  0
VERTEX
  8
MY3DLAYER
10
53.461737531591446
20
9.509857741959236
30
0.0
 70
     32
  0
VERTEX
  8
MY3DLAYER
10
53.360265693738896
20
9.735098050816084
30
0.0
 70
     32
  0
VERTEX
  8
MY3DLAYER
10
53.259684953653824
20
9.958343923223472
30
0.0
 70
     32
  0
VERTEX
  8
MY3DLAYER
10
53.16060142536611
20
10.178249802967452
30
0.0
 70
     32
  0
VERTEX
  8
MY3DLAYER
10
53.0636212229057
20
10.393470133834048
30
0.0
 70
     32
  0
VERTEX
  8
MY3DLAYER
10
52.9693504603026
20
10.602659359609307
30
0.0
 70
     32
  0
VERTEX
  8
MY3DLAYER
10
52.8783952515865
20
10.804471924079248
30
0.0
 70
     32
  0
VERTEX
  8
MY3DLAYER
10
52.7913617107875
20
10.997562271029894
30
0.0
 70
     32
  0
VERTEX
  8
MY3DLAYER
10
52.70885595193548
20
11.180584844247303
30
0.0
 70
     32
  0
VERTEX
  8
MY3DLAYER
10
52.63709326889749
20
11.33867775005624
30
0.0
 70
     32
  0
VERTEX
  8
MY3DLAYER
10
52.56605177583189
20
11.493053415780027
30
0.0
 70
     32
  0
VERTEX
  8
MY3DLAYER
10
52.495993766166606
20
11.643215716418664
30
0.0
 70
     32
  0
VERTEX
  8
MY3DLAYER
10
52.4271815333294
20
11.788668526972145
30
0.0
 70
     32
  0
VERTEX
  8
MY3DLAYER
10
52.359877370748094
20
11.92891572244048
30
0.0
 70
     32
  0
VERTEX
  8
MY3DLAYER
10
52.29434357185045
20
12.06346117782366
30
0.0
 70
     32
  0
VERTEX
  8
MY3DLAYER
10
52.23084243006429
20
12.191808768121698
30
0.0
 70
     32
  0
VERTEX
  8
MY3DLAYER
10
52.16963623881747
20
12.31346236833457
30
0.0
 70
     32
  0
VERTEX
  8
MY3DLAYER
10
52.1109872915377
20
12.4279258534623
30
0.0
 70
     32
  0
VERTEX
  8
MY3DLAYER
10
52.05515788165282
20
12.534703098504872
30
0.0
 70
     32
  0
VERTEX
  8
MY3DLAYER
10
52.00241030259061
20
12.6332979784623
30
0.0
 70
     32
  0
VERTEX
  8
MY3DLAYER
10
51.95300684777898
20
12.723214368334565
30
0.0
 70
     32
  0
VERTEX
  8
MY3DLAYER
10
51.907209810645604
20
12.803956143121688
30
0.0
 70
     32
  0
VERTEX
  8
MY3DLAYER
10
51.86528148461832
20
12.87502717782366
30
0.0
 70
     32
  0
VERTEX
  8
MY3DLAYER
10
51.82748416312498
20
12.935931347440482
30
0.0
 70
     32
  0
VERTEX
  8
MY3DLAYER
10
51.794080139593326
20
12.986172526972146
30
0.0
 70
     32
  0
VERTEX
  8
MY3DLAYER
10
51.76533170745121
20
13.02525459141866
30
0.0
 70
     32
  0
VERTEX
  8
MY3DLAYER
10
51.72285079104668
20
13.067956875056238
30
0.0
 70
     32
  0
VERTEX
  8
MY3DLAYER
10
51.69756488805507
20
13.06262776941297
30
0.0
 70
     32
  0
VERTEX
  8
MY3DLAYER
10
51.67691786553854
20
13.044678542643538
30
0.0
 70
     32
  0
VERTEX
  8
MY3DLAYER
10
51.64797291649703
20
13.017039825313807
30
0.0
 70
     32
  0
VERTEX
  8
MY3DLAYER
10
51.61100113133717
20
12.980014278798548
30
0.0
 70
     32
  0
VERTEX
  8
MY3DLAYER
10
51.5662736004656
20
12.933904564472549
30
0.0
 70
     32
  0
VERTEX
  8
MY3DLAYER
10
51.514061414289
20
12.879013343710604
30
0.0
 70
     32
  0
VERTEX
  8
MY3DLAYER
10
51.454635663214034
20
12.815643277887471
30
0.0
 70
     32
  0
VERTEX
  8
MY3DLAYER
10
51.38826743764727
20
12.744097028377942
30
0.0
 70
     32
  0
VERTEX
  8
MY3DLAYER
10
51.31522782799551
20
12.664677256556814
30
0.0
 70
     32
  0
VERTEX
  8
MY3DLAYER
10
51.23578792466521
20
12.57768662379885
30
0.0
 70
     32
  0
VERTEX
  8
MY3DLAYER
10
51.15021881806315
20
12.483427791478851
30
0.0
 70
     32
  0
VERTEX
  8
MY3DLAYER
10
51.058791598595946
20
12.3822034209716
30
0.0
 70
     32
  0
VERTEX
  8
MY3DLAYER
10
50.96177735667031
20
12.274316173651854
30
0.0
 70
     32
  0
VERTEX
  8
MY3DLAYER
10
50.85944718269279
20
12.160068710894425
30
0.0
 70
     32
  0
VERTEX
  8
MY3DLAYER
10
50.75207216707017
20
12.03976369407408
30
0.0
 70
     32
  0
VERTEX
  8
MY3DLAYER
10
50.63992340020893
20
11.913703784565618
30
0.0
 70
     32
  0
VERTEX
  8
MY3DLAYER
10
50.52327197251584
20
11.782191643743806
30
0.0
 70
     32
  0
VERTEX
  8
MY3DLAYER
10
50.40238897439752
20
11.645529932983433
30
0.0
 70
     32
  0
VERTEX
  8
MY3DLAYER
10
50.27754549626066
20
11.504021313659285
30
0.0
 70
     32
  0
VERTEX
  8
MY3DLAYER
10
50.14901262851184
20
11.357968447146146
30
0.0
 70
     32
  0
VERTEX
  8
MY3DLAYER
10
50.017061461557766
20
11.207673994818803
30
0.0
 70
     32
  0
VERTEX
  8
MY3DLAYER
10
49.8819630858051
20
11.053440618052013
30
0.0
 70
     32
  0
VERTEX
  8
MY3DLAYER
10
49.74398859166041
20
10.895570978220595
30
0.0
 70
     32
  0
VERTEX
  8
MY3DLAYER
10
49.60340906953044
20
10.734367736699307
30
0.0
 70
     32
  0
VERTEX
  8
MY3DLAYER
10
49.460495609821805
20
10.570133554862936
30
0.0
 70
     32
  0
VERTEX
  8
MY3DLAYER
10
49.315519302941134
20
10.403171094086277
30
0.0
 70
     32
  0
VERTEX
  8
MY3DLAYER
10
49.16875123929518
20
10.233783015744107
30
0.0
 70
     32
  0
VERTEX
  8
MY3DLAYER
10
48.95154884379273
20
9.983671087529796
30
0.0
 70
     32
  0
VERTEX
  8
MY3DLAYER
10
48.74120531117002
20
9.74325381864064
30
0.0
 70
     32
  0
VERTEX
  8
MY3DLAYER
10
48.537120764941086
20
9.511991083891965
30
0.0
 70
     32
  0
VERTEX
  8
MY3DLAYER
10
48.33869532861973
20
9.28934275809916
30
0.0
 70
     32
  0
VERTEX
  8
MY3DLAYER
10
48.1453291257199
20
9.074768716077573
30
0.0
 70
     32
  0
VERTEX
  8
MY3DLAYER
10
47.95642227975545
20
8.867728832642529
30
0.0
 70
     32
  0
VERTEX
  8
MY3DLAYER
10
47.77137491424028
20
8.6676829826094
30
0.0
 70
     32
  0
VERTEX
  8
MY3DLAYER
10
47.58958715268833
20
8.474091040793532
30
0.0
 70
     32
  0
VERTEX
  8
MY3DLAYER
10
47.41045911861346
20
8.286412882010271
30
0.0
 70
     32
  0
VERTEX
  8
MY3DLAYER
10
47.23339093552957
20
8.104108381074989
30
0.0
 70
     32
  0
VERTEX
  8
MY3DLAYER
10
47.057782726950585
20
7.926637412803007
30
0.0
 70
     32
  0
VERTEX
  8
MY3DLAYER
10
46.88303461639035
20
7.753459852009704
30
0.0
 70
     32
  0
VERTEX
  8
MY3DLAYER
10
46.70854672736283
20
7.584035573510424
30
0.0
 70
     32
  0
VERTEX
  8
MY3DLAYER
10
46.53371918338189
20
7.417824452120509
30
0.0
 70
     32
  0
VERTEX
  8
MY3DLAYER
10
46.3579521079614
20
7.254286362655319
30
0.0
 70
     32
  0
VERTEX
  8
MY3DLAYER
10
46.18064562461529
20
7.092881179930201
30
0.0
 70
     32
  0
VERTEX
  8
MY3DLAYER
10
46.001199856857454
20
6.933068778760514
30
0.0
 70
     32
  0
VERTEX
  8
MY3DLAYER
10
45.81901492820182
20
6.774309033961606
30
0.0
 70
     32
  0
VERTEX
  8
MY3DLAYER
10
45.633490962162206
20
6.61606182034882
30
0.0
 70
     32
  0
VERTEX
  8
MY3DLAYER
10
45.444028082252515
20
6.457787012737518
30
0.0
 70
     32
  0
VERTEX
  8
MY3DLAYER
10
45.25002641198674
20
6.298944485943062
30
0.0
 70
     32
  0
VERTEX
  8
MY3DLAYER
10
45.050886074878704
20
6.138994114780779
30
0.0
 70
     32
  0
VERTEX
  8
MY3DLAYER
10
44.84600719444236
20
5.9773957740660375
30
0.0
 70
     32
  0
VERTEX
  8
MY3DLAYER
10
44.63478989419152
20
5.813609338614179
30
0.0
 70
     32
  0
VERTEX
  8
MY3DLAYER
10
44.41663429764013
20
5.647094683240564
30
0.0
 70
     32
  0
VERTEX
  8
MY3DLAYER
10
44.19094052830209
20
5.477311682760542
30
0.0
 70
     32
  0
VERTEX
  8
MY3DLAYER
10
43.95710870969129
20
5.303720211989459
30
0.0
 70
     32
  0
VERTEX
  8
MY3DLAYER
10
43.71453896532166
20
5.125780145742672
30
0.0
 70
     32
  0
VERTEX
  8
MY3DLAYER
10
43.46263141870703
20
4.942951358835536
30
0.0
 70
     32
  0
VERTEX
  8
MY3DLAYER
10
43.200786193361374
20
4.75469372608339
30
0.0
 70
     32
  0
VERTEX
  8
MY3DLAYER
10
42.92840341279853
20
4.560467122301599
30
0.0
 70
     32
  0
VERTEX
  8
MY3DLAYER
10
42.64488320053237
20
4.359731422305514
30
0.0
 70
     32
  0
VERTEX
  8
MY3DLAYER
10
42.18125585703606
20
4.038267792284663
30
0.0
 70
     32
  0
VERTEX
  8
MY3DLAYER
10
41.717772205948236
20
3.728367673582916
30
0.0
 70
     32
  0
VERTEX
  8
MY3DLAYER
10
41.25464737473583
20
3.4301295453219454
30
0.0
 70
     32
  0
VERTEX
  8
MY3DLAYER
10
40.79209649086583
20
3.14365188662342
30
0.0
 70
     32
  0
VERTEX
  8
MY3DLAYER
10
40.330334681805155
20
2.869033176609005
30
0.0
 70
     32
  0
VERTEX
  8
MY3DLAYER
10
39.86957707502075
20
2.6063718944003798
30
0.0
 70
     32
  0
VERTEX
  8
MY3DLAYER
10
39.410038797979475
20
2.3557665191192068
30
0.0
 70
     32
  0
VERTEX
  8
MY3DLAYER
10
38.9519349781484
20
2.117315529887161
30
0.0
 70
     32
  0
VERTEX
  8
MY3DLAYER
10
38.495480742994374
20
1.891117405825911
30
0.0
 70
     32
  0
VERTEX
  8
MY3DLAYER
10
38.04089121998438
20
1.6772706260571297
30
0.0
 70
     32
  0
VERTEX
  8
MY3DLAYER
10
37.588381536585345
20
1.4758736697024848
30
0.0
 70
     32
  0
VERTEX
  8
MY3DLAYER
10
37.13816682026419
20
1.2870250158836485
30
0.0
 70
     32
  0
VERTEX
  8
MY3DLAYER
10
36.690462198487914
20
1.1108231437222877
30
0.0
 70
     32
  0
VERTEX
  8
MY3DLAYER
10
36.24548279872337
20
0.9473665323400764
30
0.0
 70
     32
  0
VERTEX
  8
MY3DLAYER
10
35.80344374843758
20
0.7967536608586846
30
0.0
 70
     32
  0
VERTEX
  8
MY3DLAYER
10
35.36456017509744
20
0.6590830083997823
30
0.0
 70
     32
  0
VERTEX
  8
MY3DLAYER
10
34.92904720616994
20
0.5344530540850391
30
0.0
 70
     32
  0
VERTEX
  8
MY3DLAYER
10
34.49711996912198
20
0.422962277036125
30
0.0
 70
     32
  0
VERTEX
  8
MY3DLAYER
10
34.06899359142041
20
0.3247091563747118
30
0.0
 70
     32
  0
VERTEX
  8
MY3DLAYER
10
33.64488320053233
20
0.23979217122246996
30
0.0
 70
     32
  0
VERTEX
  8
MY3DLAYER
10
33.18517955766798
20
0.16187843645287797
30
0.0
 70
     32
  0
VERTEX
  8
MY3DLAYER
10
32.722897047563706
20
0.09792543653736469
30
0.0
 70
     32
  0
VERTEX
  8
MY3DLAYER
10
32.25834581124905
20
0.04779551471626886
30
0.0
 70
     32
  0
VERTEX
  8
MY3DLAYER
10
31.791835989753586
20
0.011351014229922953
30
0.0
 70
     32
  0
VERTEX
  8
MY3DLAYER
10
31.323677724106844
20
-0.011545721681340885
30
0.0
 70
     32
  0
VERTEX
  8
MY3DLAYER
10
30.854181155338317
20
-0.021032349777191595
30
0.0
 70
     32
  0
VERTEX
  8
MY3DLAYER
10
30.383656424477543
20
-0.017246526817297096
30
0.0
 70
     32
  0
VERTEX
  8
MY3DLAYER
10
29.91241367255407
20
-0.0003259095613253416
30
0.0
 70
     32
  0
VERTEX
  8
MY3DLAYER
10
29.440763040597396
20
0.029591845231055767
30
0.0
 70
     32
  0
VERTEX
  8
MY3DLAYER
10
28.96901466963705
20
0.07236908080017823
30
0.0
 70
     32
  0
VERTEX
  8
MY3DLAYER
10
28.497478700702533
20
0.12786814038637273
30
0.0
 70
     32
  0
VERTEX
  8
MY3DLAYER
10
28.02646527482346
20
0.19595136722997245
30
0.0
 70
     32
  0
VERTEX
  8
MY3DLAYER
10
27.556284533029263
20
0.2764811045713091
30
0.0
 70
     32
  0
VERTEX
  8
MY3DLAYER
10
27.0872466163495
20
0.3693196956507142
30
0.0
 70
     32
  0
VERTEX
  8
MY3DLAYER
10
26.619661665813695
20
0.47432948370851874
30
0.0
 70
     32
  0
VERTEX
  8
MY3DLAYER
10
26.153839822451385
20
0.5913728119850569
30
0.0
 70
     32
  0
VERTEX
  8
MY3DLAYER
10
25.6900912272921
20
0.7203120237206582
30
0.0
 70
     32
  0
VERTEX
  8
MY3DLAYER
10
25.22872602136535
20
0.8610094621556557
30
0.0
 70
     32
  0
VERTEX
  8
MY3DLAYER
10
24.770054345700657
20
1.0133274705303807
30
0.0
 70
     32
  0
VERTEX
  8
MY3DLAYER
10
24.314386341327513
20
1.1771283920851667
30
0.0
 70
     32
  0
VERTEX
  8
MY3DLAYER
10
23.86203214927554
20
1.352274570060345
30
0.0
 70
     32
  0
VERTEX
  8
MY3DLAYER
10
23.41330191057417
20
1.538628347696244
30
0.0
 70
     32
  0
VERTEX
  8
MY3DLAYER
10
22.96850576625297
20
1.7360520682331992
30
0.0
 70
     32
  0
VERTEX
  8
MY3DLAYER
10
22.527953857341487
20
1.9444080749115429
30
0.0
 70
     32
  0
VERTEX
  8
MY3DLAYER
10
22.09195632486921
20
2.163558710971605
30
0.0
 70
     32
  0
VERTEX
  8
MY3DLAYER
10
21.66082330986566
20
2.3933663196537203
30
0.0
 70
     32
  0
VERTEX
  8
MY3DLAYER
10
21.234864953360397
20
2.633693244198217
30
0.0
 70
     32
  0
VERTEX
  8
MY3DLAYER
10
20.814391396382916
20
2.884401827845426
30
0.0
 70
     32
  0
VERTEX
  8
MY3DLAYER
10
20.39971277996277
20
3.1453544138356837
30
0.0
 70
     32
  0
VERTEX
  8
MY3DLAYER
10
19.99113924512946
20
3.4164133454093193
30
0.0
 70
     32
  0
VERTEX
  8
MY3DLAYER
10
19.58898093291254
20
3.697440965806665
30
0.0
 70
     32
  0
VERTEX
  8
MY3DLAYER
10
19.193547984341496
20
3.988299618268058
30
0.0
 70
     32
  0
VERTEX
  8
MY3DLAYER
10
18.80515054044588
20
4.288851646033819
30
0.0
 70
     32
  0
VERTEX
  8
MY3DLAYER
10
18.424098742255204
20
4.598959392344288
30
0.0
 70
     32
  0
VERTEX
  8
MY3DLAYER
10
18.050702730799003
20
4.918485200439804
30
0.0
 70
     32
  0
VERTEX
  8
MY3DLAYER
10
17.685272647106846
20
5.247291413560678
30
0.0
 70
     32
  0
VERTEX
  8
MY3DLAYER
10
17.32811863220816
20
5.585240374947258
30
0.0
 70
     32
  0
VERTEX
  8
MY3DLAYER
10
16.97955082713255
20
5.932194427839869
30
0.0
 70
     32
  0
VERTEX
  8
MY3DLAYER
10
16.63987937290953
20
6.288015915478849
30
0.0
 70
     32
  0
VERTEX
  8
MY3DLAYER
10
16.309414410568586
20
6.652567181104519
30
0.0
 70
     32
  0
VERTEX
  8
MY3DLAYER
10
15.988466081139302
20
7.025710567957227
30
0.0
 70
     32
  0
VERTEX
  8
MY3DLAYER
10
15.677344525651142
20
7.407308419277293
30
0.0
 70
     32
  0
VERTEX
  8
MY3DLAYER
10
15.376359885133697
20
7.797223078305052
30
0.0
 70
     32
  0
VERTEX
  8
MY3DLAYER
10
15.085822300616417
20
8.195316888280837
30
0.0
 70
     32
  0
VERTEX
  8
MY3DLAYER
10
14.80604191312884
20
8.601452192444967
30
0.0
 70
     32
  0
VERTEX
  8
MY3DLAYER
10
14.637325963530248
20
8.85845380316191
30
0.0
 70
     32
  0
VERTEX
  8
MY3DLAYER
10
14.468067200537833
20
9.125585867494156
30
0.0
 70
     32
  0
VERTEX
  8
MY3DLAYER
10
14.298691863246827
20
9.401938448173075
30
0.0
 70
     32
  0
VERTEX
  8
MY3DLAYER
10
14.129626190752443
20
9.686601607930031
30
0.0
 70
     32
  0
VERTEX
  8
MY3DLAYER
10
13.961296422149928
20
9.978665409496353
30
0.0
 70
     32
  0
VERTEX
  8
MY3DLAYER
10
13.794128796534498
20
10.277219915603423
30
0.0
 70
     32
  0
VERTEX
  8
MY3DLAYER
10
13.628549553001374
20
10.581355188982585
30
0.0
 70
     32
  0
VERTEX
  8
MY3DLAYER
10
13.464984930645773
20
10.89016129236521
30
0.0
 70
     32
  0
VERTEX
  8
MY3DLAYER
10
13.303861168562893
20
11.202728288482636
30
0.0
 70
     32
  0
VERTEX
  8
MY3DLAYER
10
13.14560450584797
20
11.518146240066239
30
0.0
 70
     32
  0
VERTEX
  8
MY3DLAYER
10
12.99064118159627
20
11.835505209847346
30
0.0
 70
     32
  0
VERTEX
  8
MY3DLAYER
10
12.839397434902963
20
12.153895260557364
30
0.0
 70
     32
  0
VERTEX
  8
MY3DLAYER
10
12.6922995048633
20
12.472406454927603
30
0.0
 70
     32
  0
VERTEX
  8
MY3DLAYER
10
12.549773630572501
20
12.790128855689435
30
0.0
 70
     32
  0
VERTEX
  8
MY3DLAYER
10
12.41224605112574
20
13.106152525574231
30
0.0
 70
     32
  0
VERTEX
  8
MY3DLAYER
10
12.280143005618312
20
13.419567527313315
30
0.0
 70
     32
  0
VERTEX
  8
MY3DLAYER
10
12.15389073314536
20
13.72946392363809
30
0.0
 70
     32
  0
VERTEX
  8
MY3DLAYER
10
12.033915472802198
20
14.034931777279876
30
0.0
 70
     32
  0
VERTEX
  8
MY3DLAYER
10
11.920643463683973
20
14.335061150970045
30
0.0
 70
     32
  0
VERTEX
  8
MY3DLAYER
10
11.814500944885925
20
14.628942107439954
30
0.0
 70
     32
  0
VERTEX
  8
MY3DLAYER
10
11.715914155503329
20
14.915664709420952
30
0.0
 70
     32
  0
VERTEX
  8
MY3DLAYER
10
11.625309334631337
20
15.19431901964441
30
0.0
 70
     32
  0
VERTEX
  8
MY3DLAYER
10
11.543112721365175
20
15.463995100841677
30
0.0
 70
     32
  0
VERTEX
  8
MY3DLAYER
10
11.469750554800061
20
15.723783015744113
30
0.0
 70
     32
  0
VERTEX
  8
MY3DLAYER
10
11.431424543161295
20
15.866366461725404
30
0.0
 70
     32
  0
VERTEX
  8
MY3DLAYER
10
11.395143926347691
20
16.00322956578844
30
0.0
 70
     32
  0
VERTEX
  8
MY3DLAYER
10
11.360851871511205
20
16.134970802975474
30
0.0
 70
     32
  0
VERTEX
  8
MY3DLAYER
10
11.328491545803917
20
16.26218864832873
30
0.0
 70
     32
  0
VERTEX
  8
MY3DLAYER
10
11.298006116377806
20
16.38548157689046
30
0.0
 70
     32
  0
VERTEX
  8
MY3DLAYER
10
11.269338750384843
20
16.505448063702904
30
0.0
 70
     32
  0
VERTEX
  8
MY3DLAYER
10
11.24243261497706
20
16.622686583808303
30
0.0
 70
     32
  0
VERTEX
  8
MY3DLAYER
10
11.217230877306513
20
16.7377956122489
30
0.0
 70
     32
  0
VERTEX
  8
MY3DLAYER
10
11.19367670452512
20
16.85137362406694
30
0.0
 70
     32
  0
VERTEX
  8
MY3DLAYER
10
11.171713263784909
20
16.964019094304664
30
0.0
 70
     32
  0
VERTEX
  8
MY3DLAYER
10
11.151283722237912
20
17.076330498004296
30
0.0
 70
     32
  0
VERTEX
  8
MY3DLAYER
10
11.132331247036147
20
17.188906310208104
30
0.0
 70
     32
  0
VERTEX
  8
MY3DLAYER
10
11.114799005331568
20
17.302345005958326
30
0.0
 70
     32
  0
VERTEX
  8
MY3DLAYER
10
11.098630164276212
20
17.417245060297198
30
0.0
 70
     32
  0
VERTEX
  8
MY3DLAYER
10
11.083767891022122
20
17.534204948266968
30
0.0
 70
     32
  0
VERTEX
  8
MY3DLAYER
10
11.070155352721223
20
17.65382314490985
30
0.0
 70
     32
  0
VERTEX
  8
MY3DLAYER
10
11.057735716525572
20
17.776698125268123
30
0.0
 70
     32
  0
VERTEX
  8
MY3DLAYER
10
11.046452149587186
20
17.903428364384027
30
0.0
 70
     32
  0
VERTEX
  8
MY3DLAYER
10
11.036247819058007
20
18.034612337299787
30
0.0
 70
     32
  0
VERTEX
  8
MY3DLAYER
10
11.027065892090132
20
18.17084851905764
30
0.0
 70
     32
  0
VERTEX
  8
MY3DLAYER
10
11.018849535835473
20
18.312735384699838
30
0.0
 70
     32
  0
VERTEX
  8
MY3DLAYER
10
11.011541917446115
20
18.46087140926864
30
0.0
 70
     32
  0
VERTEX
  8
MY3DLAYER
10
11.005086204074038
20
18.615855067806258
30
0.0
 70
     32
  0
VERTEX
  8
MY3DLAYER
10
10.999425562871224
20
18.77828483535497
30
0.0
 70
     32
  0
VERTEX
  8
MY3DLAYER
10
10.99450316098969
20
18.94875918695697
30
0.0
 70
     32
  0
VERTEX
  8
MY3DLAYER
10
10.990262165581495
20
19.12787659765454
30
0.0
 70
     32
  0
VERTEX
  8
MY3DLAYER
10
10.986645743798535
20
19.316235542489913
30
0.0
 70
     32
  0
VERTEX
  8
MY3DLAYER
10
10.9835970627929
20
19.514434496505302
30
0.0
 70
     32
  0
VERTEX
  8
MY3DLAYER
10
10.981059289716592
20
19.723071934742983
30
0.0
 70
     32
  0
VERTEX
  8
MY3DLAYER
10
10.978975591721559
20
19.9427463322452
30
0.0
 70
     32
  0
VERTEX
  8
MY3DLAYER
10
10.977289135959865
20
20.17405616405418
30
0.0
 70
     32
  0
VERTEX
  8
MY3DLAYER
10
10.975943089583522
20
20.41759990521216
30
0.0
 70
     32
  0
VERTEX
  8
MY3DLAYER
10
10.97488061974448
20
20.673976030761402
30
0.0
 70
     32
  0
VERTEX
  8
MY3DLAYER
10
10.974044893594838
20
20.943783015744113
30
0.0
 70
     32
  0
VERTEX
  8
MY3DLAYER
10
10.97350815862647
20
21.218979163624486
30
0.0
 70
     32
  0
VERTEX
  8
MY3DLAYER
10
10.973430580305278
20
21.481130173369944
30
0.0
 70
     32
  0
VERTEX
  8
MY3DLAYER
10
10.973845779487108
20
21.730708643663338
30
0.0
 70
     32
  0
VERTEX
  8
MY3DLAYER
10
10.974787377027983
20
21.968187173187474
30
0.0
 70
     32
  0
VERTEX
  8
MY3DLAYER
10
10.976288993783704
20
22.194038360625207
30
0.0
 70
     32
  0
VERTEX
  8
MY3DLAYER
10
10.978384250610299
20
22.40873480465931
30
0.0
 70
     32
  0
VERTEX
  8
MY3DLAYER
10
10.981106768363654
20
22.612749103972643
30
0.0
 70
     32
  0
VERTEX
  8
MY3DLAYER
10
10.984490167899677
20
22.80655385724803
30
0.0
 70
     32
  0
VERTEX
  8
MY3DLAYER
10
10.988568070074303
20
22.990621663168305
30
0.0
 70
     32
  0
VERTEX
  8
MY3DLAYER
10
10.993374095743453
20
23.165425120416288
30
0.0
 70
     32
  0
VERTEX
  8
MY3DLAYER
10
10.998941865763062
20
23.331436827674775
30
0.0
 70
     32
  0
VERTEX
  8
MY3DLAYER
10
11.005305000989038
20
23.489129383626608
30
0.0
 70
     32
  0
VERTEX
  8
MY3DLAYER
10
11.012497122277308
20
23.638975386954655
30
0.0
 70
     32
  0
VERTEX
  8
MY3DLAYER
10
11.02055185048379
20
23.78144743634169
30
0.0
 70
     32
  0
VERTEX
  8
MY3DLAYER
10
11.029502806464434
20
23.917018130470534
30
0.0
 70
     32
  0
VERTEX
  8
MY3DLAYER
10
11.039383611075126
20
24.046160068024058
30
0.0
 70
     32
  0
VERTEX
  8
MY3DLAYER
10
11.050227885171799
20
24.169345847685065
30
0.0
 70
     32
  0
VERTEX
  8
MY3DLAYER
10
11.062069249610389
20
24.28704806813634
30
0.0
 70
     32
  0
VERTEX
  8
MY3DLAYER
10
11.074941325246822
20
24.399739328060775
30
0.0
 70
     32
  0
VERTEX
  8
MY3DLAYER
10
11.088877732936991
20
24.507892226141152
30
0.0
 70
     32
  0
VERTEX
  8
MY3DLAYER
10
11.10391209353684
20
24.611979361060307
30
0.0
 70
     32
  0
VERTEX
  8
MY3DLAYER
10
11.120078027902272
20
24.7124733315011
30
0.0
 70
     32
  0
VERTEX
  8
MY3DLAYER
10
11.137409156889245
20
24.809846736146294
30
0.0
 70
     32
  0
VERTEX
  8
MY3DLAYER
10
11.155939101353656
20
24.904572173678762
30
0.0
 70
     32
  0
VERTEX
  8
MY3DLAYER
10
11.175701482151442
20
24.997122242781302
30
0.0
 70
     32
  0
VERTEX
  8
MY3DLAYER
10
11.196729920138523
20
25.08796954213674
30
0.0
 70
     32
  0
VERTEX
  8
MY3DLAYER
10
11.219058036170832
20
25.177586670427935
30
0.0
 70
     32
  0
VERTEX
  8
MY3DLAYER
10
11.242719451104247
20
25.26644622633767
30
0.0
 70
     32
  0
VERTEX
  8
MY3DLAYER
10
11.267747785794725
20
25.35502080854881
30
0.0
 70
     32
  0
VERTEX
  8
MY3DLAYER
10
11.294176661098247
20
25.443783015744103
30
0.0
 70
     32
  0
VERTEX
  8
MY3DLAYER
10
11.380136153433497
20
25.7097461085056
30
0.0
 70
     32
  0
VERTEX
  8
MY3DLAYER
10
11.476935009513218
20
25.980001375320477
30
0.0
 70
     32
  0
VERTEX
  8
MY3DLAYER
10
11.583924051580523
20
26.253419822007935
30
0.0
 70
     32
  0
VERTEX
  8
MY3DLAYER
10
11.700454101878503
20
26.528872454387134
30
0.0
 70
     32
  0
VERTEX
  8
MY3DLAYER
10
11.825875982650349
20
26.805230278277257
30
0.0
 70
     32
  0
VERTEX
  8
MY3DLAYER
10
11.959540516139153
20
27.08136429949752
30
0.0
 70
     32
  0
VERTEX
  8
MY3DLAYER
10
12.10079852458804
20
27.356145523867085
30
0.0
 70
     32
  0
VERTEX
  8
MY3DLAYER
10
12.249000830240186
20
27.628444957205147
30
0.0
 70
     32
  0
VERTEX
  8
MY3DLAYER
10
12.403498255338643
20
27.897133605330918
30
0.0
 70
     32
  0
VERTEX
  8
MY3DLAYER
10
12.563641622126616
20
28.161082474063537
30
0.0
 70
     32
  0
VERTEX
  8
MY3DLAYER
10
12.728781752847183
20
28.419162569222216
30
0.0
 70
     32
  0
VERTEX
  8
MY3DLAYER
10
12.89826946974351
20
28.670244896626155
30
0.0
 70
     32
  0
VERTEX
  8
MY3DLAYER
10
13.071455595058675
20
28.913200462094533
30
0.0
 70
     32
  0
VERTEX
  8
MY3DLAYER
10
13.247690951035864
20
29.146900271446494
30
0.0
 70
     32
  0
VERTEX
  8
MY3DLAYER
10
13.426326359918187
20
29.370215330501296
30
0.0
 70
     32
  0
VERTEX
  8
MY3DLAYER
10
13.606712643948798
20
29.582016645078085
30
0.0
 70
     32
  0
VERTEX
  8
MY3DLAYER
10
13.788200625370738
20
29.78117522099603
30
0.0
 70
     32
  0
VERTEX
  8
MY3DLAYER
10
13.8764875649426
20
29.875149245621824
30
0.0
 70
     32
  0
VERTEX
  8
MY3DLAYER
10
13.962298873135158
20
29.967511263468552
30
0.0
 70
     32
  0
VERTEX
  8
MY3DLAYER
10
14.045190205854766
20
30.0577394039901
30
0.0
 70
     32
  0
VERTEX
  8
MY3DLAYER
10
14.124717219007719
20
30.1453117966404
30
0.0
 70
     32
  0
VERTEX
  8
MY3DLAYER
10
14.200435568500296
20
30.229706570873258
30
0.0
 70
     32
  0
VERTEX
  8
MY3DLAYER
10
14.271900910238797
20
30.310401856142644
30
0.0
 70
     32
  0
VERTEX
  8
MY3DLAYER
10
14.338668900129456
20
30.38687578190242
30
0.0
 70
     32
  0
VERTEX
  8
MY3DLAYER
10
14.400295194078618
20
30.45860647760647
30
0.0
 70
     32
  0
VERTEX
  8
MY3DLAYER
10
14.456335447992576
20
30.525072072708646
30
0.0
 70
     32
  0
VERTEX
  8
MY3DLAYER
10
14.506345317777612
20
30.585750696662902
30
0.0
 70
     32
  0
VERTEX
  8
MY3DLAYER
10
14.54988045934
20
30.640120478923084
30
0.0
 70
     32
  0
VERTEX
  8
MY3DLAYER
10
14.586496528586025
20
30.687659548943063
30
0.0
 70
     32
  0
VERTEX
  8
MY3DLAYER
10
14.615749181421963
20
30.727846036176782
30
0.0
 70
     32
  0
VERTEX
  8
MY3DLAYER
10
14.637194073754136
20
30.760158070078067
30
0.0
 70
     32
  0
VERTEX
  8
MY3DLAYER
10
14.650386861488839
20
30.78407378010087
30
0.0
 70
     32
  0
VERTEX
  8
MY3DLAYER
10
14.648894124519632
20
30.815169372275605
30
0.0
 70
     32
  0
VERTEX
  8
MY3DLAYER
10
14.631414379412668
20
30.837599203750464
30
0.0
 70
     32
  0
VERTEX
  8
MY3DLAYER
10
14.60317518960838
20
30.865832973801407
30
0.0
 70
     32
  0
VERTEX
  8
MY3DLAYER
10
14.56490777950367
20
30.899342866106316
30
0.0
 70
     32
  0
VERTEX
  8
MY3DLAYER
10
14.51734337349548
20
30.937601064343017
30
0.0
 70
     32
  0
VERTEX
  8
MY3DLAYER
10
14.461213195980694
20
30.980079752189308
30
0.0
 70
     32
  0
VERTEX
  8
MY3DLAYER
10
14.397248471356198
20
31.026251113323077
30
0.0
 70
     32
  0
VERTEX
  8
MY3DLAYER
10
14.326180424018952
20
31.07558733142215
30
0.0
 70
     32
  0
VERTEX
  8
MY3DLAYER
10
14.248740278365752
20
31.12756059016436
30
0.0
 70
     32
  0
VERTEX
  8
MY3DLAYER
10
14.165659258793596
20
31.18164307322753
30
0.0
 70
     32
  0
VERTEX
  8
MY3DLAYER
10
14.077668589699375
20
31.237306964289534
30
0.0
 70
     32
  0
VERTEX
  8
MY3DLAYER
10
13.985499495479988
20
31.29402444702819
30
0.0
 70
     32
  0
VERTEX
  8
MY3DLAYER
10
13.889883200532315
20
31.351267705121362
30
0.0
 70
     32
  0
VERTEX
  8
MY3DLAYER
10
13.771876144666194
20
31.424409250790323
30
0.0
 70
     32
  0
VERTEX
  8
MY3DLAYER
10
13.646586146497704
20
31.50859969184501
30
0.0
 70
     32
  0
VERTEX
  8
MY3DLAYER
10
13.514686573014336
20
31.603170857874407
30
0.0
 70
     32
  0
VERTEX
  8
MY3DLAYER
10
13.376850791203463
20
31.707454578467463
30
0.0
 70
     32
  0
VERTEX
  8
MY3DLAYER
10
13.233752168052488
20
31.82078268321323
30
0.0
 70
     32
  0
VERTEX
  8
MY3DLAYER
10
13.086064070548824
20
31.942487001700652
30
0.0
 70
     32
  0
VERTEX
  8
MY3DLAYER
10
12.934459865679935
20
32.07189936351872
30
0.0
 70
     32
  0
VERTEX
  8
MY3DLAYER
10
12.77961292043317
20
32.20835159825642
30
0.0
 70
     32
  0
VERTEX
  8
MY3DLAYER
10
12.622196601795968
20
32.351175535502776
30
0.0
 70
     32
  0
VERTEX
  8
MY3DLAYER
10
12.462884276755718
20
32.49970300484672
30
0.0
 70
     32
  0
VERTEX
  8
MY3DLAYER
10
12.30234931229983
20
32.65326583587728
30
0.0
 70
     32
  0
VERTEX
  8
MY3DLAYER
10
12.14126507541577
20
32.81119585818343
30
0.0
 70
     32
  0
VERTEX
  8
MY3DLAYER
10
11.980304933090935
20
32.97282490135413
30
0.0
 70
     32
  0
VERTEX
  8
MY3DLAYER
10
11.820142252312664
20
33.137484794978405
30
0.0
 70
     32
  0
VERTEX
  8
MY3DLAYER
10
11.661450400068459
20
33.30450736864522
30
0.0
 70
     32
  0
VERTEX
  8
MY3DLAYER
10
11.504902743345696
20
33.47322445194358
30
0.0
 70
     32
  0
VERTEX
  8
MY3DLAYER
10
11.351172649131819
20
33.64296787446245
30
0.0
 70
     32
  0
VERTEX
  8
MY3DLAYER
10
11.200933484414168
20
33.813069465790846
30
0.0
 70
     32
  0
VERTEX
  8
MY3DLAYER
10
11.05485861618022
20
33.98286105551773
30
0.0
 70
     32
  0
VERTEX
  8
MY3DLAYER
10
10.913621411417363
20
34.15167447323208
30
0.0
 70
     32
  0
VERTEX
  8
MY3DLAYER
10
10.777895237113015
20
34.318841548522926
30
0.0
 70
     32
  0
VERTEX
  8
MY3DLAYER
10
10.648353460254604
20
34.48369411097921
30
0.0
 70
     32
  0
VERTEX
  8
MY3DLAYER
10
10.525669447829491
20
34.64556399018995
30
0.0
 70
     32
  0
VERTEX
  8
MY3DLAYER
10
10.410516566825038
20
34.80378301574411
30
0.0
 70
     32
  0
VERTEX
  8
MY3DLAYER
10
10.177661918601745
20
35.139077302514366
30
0.0
 70
     32
  0
VERTEX
  8
MY3DLAYER
10
9.947003720180826
20
35.48747207559498
30
0.0
 70
     32
  0
VERTEX
  8
MY3DLAYER
10
9.718681701552873
20
35.84856854363498
30
0.0
 70
     32
  0
VERTEX
  8
MY3DLAYER
10
9.492835592708406
20
36.22196791528349
30
0.0
 70
     32
  0
VERTEX
  8
MY3DLAYER
10
9.269605123637973
20
36.60727139918965
30
0.0
 70
     32
  0
VERTEX
  8
MY3DLAYER
10
9.049130024332133
20
37.00408020400257
30
0.0
 70
     32
  0
VERTEX
  8
MY3DLAYER
10
8.831550024781443
20
37.411995538371315
30
0.0
 70
     32
  0
VERTEX
  8
MY3DLAYER
10
8.617004854976392
20
37.830618610945024
30
0.0
 70
     32
  0
VERTEX
  8
MY3DLAYER
10
8.405634244907576
20
38.25955063037287
30
0.0
 70
     32
  0
VERTEX
  8
MY3DLAYER
10
8.197577924565525
20
38.698392805303804
30
0.0
 70
     32
  0
VERTEX
  8
MY3DLAYER
10
7.9929756239407945
20
39.14674634438705
30
0.0
 70
     32
  0
VERTEX
  8
MY3DLAYER
10
7.791967073023897
20
39.60421245627165
30
0.0
 70
     32
  0
VERTEX
  8
MY3DLAYER
10
7.59469200180543
20
40.070392349606706
30
0.0
 70
     32
  0
VERTEX
  8
MY3DLAYER
10
7.40129014027591
20
40.54488723304139
30
0.0
 70
     32
  0
VERTEX
  8
MY3DLAYER
10
7.211901218425876
20
41.027298315224805
30
0.0
 70
     32
  0
VERTEX
  8
MY3DLAYER
10
7.026664966245834
20
41.517226804805986
30
0.0
 70
     32
  0
VERTEX
  8
MY3DLAYER
10
6.845721113726434
20
42.0142739104341
30
0.0
 70
     32
  0
VERTEX
  8
MY3DLAYER
10
6.669209390858135
20
42.51804084075823
30
0.0
 70
     32
  0
VERTEX
  8
MY3DLAYER
10
6.497269527631507
20
43.02812880442749
30
0.0
 70
     32
  0
VERTEX
  8
MY3DLAYER
10
6.330041254037119
20
43.54413901009099
30
0.0
 70
     32
  0
VERTEX
  8
MY3DLAYER
10
6.167664300065452
20
44.06567266639784
30
0.0
 70
     32
  0
VERTEX
  8
MY3DLAYER
10
6.010278395707153
20
44.592330981997115
30
0.0
 70
     32
  0
VERTEX
  8
MY3DLAYER
10
5.8580232709526525
20
45.12371516553795
30
0.0
 70
     32
  0
VERTEX
  8
MY3DLAYER
10
5.711038655792582
20
45.659426425669444
30
0.0
 70
     32
  0
VERTEX
  8
MY3DLAYER
10
5.569464280217431
20
46.19906597104075
30
0.0
 70
     32
  0
VERTEX
  8
MY3DLAYER
10
5.433439874217786
20
46.74223501030085
30
0.0
 70
     32
  0
VERTEX
  8
MY3DLAYER
10
5.303105167784117
20
47.288534752099
30
0.0
 70
     32
  0
VERTEX
  8
MY3DLAYER
10
5.1785998909070745
20
47.837566405084225
30
0.0
 70
     32
  0
VERTEX
  8
MY3DLAYER
10
5.060063773577161
20
48.388931177905604
30
0.0
 70
     32
  0
VERTEX
  8
MY3DLAYER
10
4.94763654578493
20
48.942230279212325
30
0.0
 70
     32
  0
VERTEX
  8
MY3DLAYER
10
4.841457937520863
20
49.49706491765341
30
0.0
 70
     32
  0
VERTEX
  8
MY3DLAYER
10
4.74166767877559
20
50.05303630187805
30
0.0
 70
     32
  0
VERTEX
  8
MY3DLAYER
10
4.648405499539641
20
50.609745640535294
30
0.0
 70
     32
  0
VERTEX
  8
MY3DLAYER
10
4.561811129803495
20
51.16679414227423
30
0.0
 70
     32
  0
VERTEX
  8
MY3DLAYER
10
4.48202429955778
20
51.723783015744004
30
0.0
 70
     32
  0
VERTEX
  8
MY3DLAYER
10
4.4737253190278885
20
51.79160369191629
30
0.0
 70
     32
  0
VERTEX
  8
MY3DLAYER
10
4.465735169666711
20
51.87140093782064
30
0.0
 70
     32
  0
VERTEX
  8
MY3DLAYER
10
4.45805466493016
20
51.962658100508044
30
0.0
 70
     32
  0
VERTEX
  8
MY3DLAYER
10
4.450684618274174
20
52.06485852702962
30
0.0
 70
     32
  0
VERTEX
  8
MY3DLAYER
10
4.443625843154573
20
52.177485564436424
30
0.0
 70
     32
  0
VERTEX
  8
MY3DLAYER
10
4.436879153027295
20
52.30002255977952
30
0.0
 70
     32
  0
VERTEX
  8
MY3DLAYER
10
4.430445361348307
20
52.43195286010993
30
0.0
 70
     32
  0
VERTEX
  8
MY3DLAYER
10
4.424325281573417
20
52.572759812478814
30
0.0
 70
     32
  0
VERTEX
  8
MY3DLAYER
10
4.418519727158553
20
52.72192676393715
30
0.0
 70
     32
  0
VERTEX
  8
MY3DLAYER
10
4.41302951155966
20
52.87893706153602
30
0.0
 70
     32
  0
VERTEX
  8
MY3DLAYER
10
4.407855448232582
20
53.04327405232653
30
0.0
 70
     32
  0
VERTEX
  8
MY3DLAYER
10
4.402998350633267
20
53.21442108335965
30
0.0
 70
     32
  0
VERTEX
  8
MY3DLAYER
10
4.3984590322175885
20
53.391861501686556
30
0.0
 70
     32
  0
VERTEX
  8
MY3DLAYER
10
4.394238306441496
20
53.57507865435831
30
0.0
 70
     32
  0
VERTEX
  8
MY3DLAYER
10
4.39033698676081
20
53.7635558884258
30
0.0
 70
     32
  0
VERTEX
  8
MY3DLAYER
10
4.3867558866315015
20
53.956776550940326
30
0.0
 70
     32
  0
VERTEX
  8
MY3DLAYER
10
4.3834958195094575
20
54.154223988952815
30
0.0
 70
     32
  0
VERTEX
  8
MY3DLAYER
10
4.380557598850578
20
54.355381549514355
30
0.0
 70
     32
  0
VERTEX
  8
MY3DLAYER
10
4.377942038110752
20
54.55973257967602
30
0.0
 70
     32
  0
VERTEX
  8
MY3DLAYER
10
4.375649950745929
20
54.76676042648883
30
0.0
 70
     32
  0
VERTEX
  8
MY3DLAYER
10
4.373682150211905
20
54.975948437003936
30
0.0
 70
     32
  0
VERTEX
  8
MY3DLAYER
10
4.372039449964701
20
55.186779958272304
30
0.0
 70
     32
  0
VERTEX
  8
MY3DLAYER
10
4.370722663460169
20
55.39873833734506
30
0.0
 70
     32
  0
VERTEX
  8
MY3DLAYER
10
4.369732604154184
20
55.611306921273304
30
0.0
 70
     32
  0
VERTEX
  8
MY3DLAYER
10
4.369070085502692
20
55.82396905710802
30
0.0
 70
     32
  0
VERTEX
  8
MY3DLAYER
10
4.368735920961583
20
56.03620809190031
30
0.0
 70
     32
  0
VERTEX
  8
MY3DLAYER
10
4.368730923986757
20
56.24750737270119
30
0.0
 70
     32
  0
VERTEX
  8
MY3DLAYER
10
4.369055908034153
20
56.45735024656182
30
0.0
 70
     32
  0
VERTEX
  8
MY3DLAYER
10
4.369711686559575
20
56.66522006053319
30
0.0
 70
     32
  0
VERTEX
  8
MY3DLAYER
10
4.370699073019026
20
56.8706001616664
30
0.0
 70
     32
  0
VERTEX
  8
MY3DLAYER
10
4.37201888086837
20
57.07297389701248
30
0.0
 70
     32
  0
VERTEX
  8
MY3DLAYER
10
4.373671923563489
20
57.271824613622506
30
0.0
 70
     32
  0
VERTEX
  8
MY3DLAYER
10
4.375659014560304
20
57.466635658547574
30
0.0
 70
     32
  0
VERTEX
  8
MY3DLAYER
10
4.377980967314763
20
57.65689037883868
30
0.0
 70
     32
  0
VERTEX
  8
MY3DLAYER
10
4.3806385952826785
20
57.84207212154699
30
0.0
 70
     32
  0
VERTEX
  8
MY3DLAYER
10
4.383632711920029
20
58.02166423372343
30
0.0
 70
     32
  0
VERTEX
  8
MY3DLAYER
10
4.386964130682685
20
58.195150062419195
30
0.0
 70
     32
  0
VERTEX
  8
MY3DLAYER
10
4.390633665026551
20
58.36201295468529
30
0.0
 70
     32
  0
VERTEX
  8
MY3DLAYER
10
4.394642128407538
20
58.52173625757276
30
0.0
 70
     32
  0
VERTEX
  8
MY3DLAYER
10
4.39899033428155
20
58.67380331813274
30
0.0
 70
     32
  0
VERTEX
  8
MY3DLAYER
10
4.403679096104438
20
58.817697483416154
30
0.0
 70
     32
  0
VERTEX
  8
MY3DLAYER
10
4.408709227332176
20
58.95290210047423
30
0.0
 70
     32
  0
VERTEX
  8
MY3DLAYER
10
4.414081541420658
20
59.07890051635797
30
0.0
 70
     32
  0
VERTEX
  8
MY3DLAYER
10
4.4197968518257005
20
59.19517607811842
30
0.0
 70
     32
  0
VERTEX
  8
MY3DLAYER
10
4.425855972003329
20
59.30121213280664
30
0.0
 70
     32
  0
VERTEX
  8
MY3DLAYER
10
4.432259715409371
20
59.39649202747371
30
0.0
 70
     32
  0
VERTEX
  8
MY3DLAYER
10
4.439008895499769
20
59.48049910917068
30
0.0
 70
     32
  0
VERTEX
  8
MY3DLAYER
10
4.446104325730376
20
59.55271672494867
30
0.0
 70
     32
  0
VERTEX
  8
MY3DLAYER
10
4.453546819557126
20
59.61262822185865
30
0.0
 70
     32
  0
VERTEX
  8
MY3DLAYER
10
4.461337190435936
20
59.65971694695176
30
0.0
 70
     32
  0
VERTEX
  8
MY3DLAYER
10
4.469476251822649
20
59.69346624727902
30
0.0
 70
     32
  0
VERTEX
  8
MY3DLAYER
10
4.47530034394422
20
59.73073029053604
30
0.0
 70
     32
  0
VERTEX
  8
MY3DLAYER
10
4.472119761553959
20
59.77585148476111
30
0.0
 70
     32
  0
VERTEX
  8
MY3DLAYER
10
4.45987914798543
20
59.82890929665234
30
0.0
 70
     32
  0
VERTEX
  8
MY3DLAYER
10
4.438523146572127
20
59.88998319290774
30
0.0
 70
     32
  0
VERTEX
  8
MY3DLAYER
10
4.407996400647597
20
59.95915264022541
30
0.0
 70
     32
  0
VERTEX
  8
MY3DLAYER
10
4.36824355354533
20
60.03649710530338
30
0.0
 70
     32
  0
VERTEX
  8
MY3DLAYER
10
4.319209248598839
20
60.122096054839766
30
0.0
 70
     32
  0
VERTEX
  8
MY3DLAYER
10
4.260838129141718
20
60.21602895553256
30
0.0
 70
     32
  0
VERTEX
  8
MY3DLAYER
10
4.193074838507378
20
60.31837527407989
30
0.0
 70
     32
  0
VERTEX
  8
MY3DLAYER
10
4.115864020029402
20
60.42921447717972
30
0.0
 70
     32
  0
VERTEX
  8
MY3DLAYER
10
4.029150317041311
20
60.54862603153022
30
0.0
 70
     32
  0
VERTEX
  8
MY3DLAYER
10
3.9328783728765946
20
60.676689403829364
30
0.0
 70
     32
  0
VERTEX
  8
MY3DLAYER
10
3.826992830868828
20
60.81348406077527
30
0.0
 70
     32
  0
VERTEX
  8
MY3DLAYER
10
3.71143833435148
20
60.95908946906597
30
0.0
 70
     32
  0
VERTEX
  8
MY3DLAYER
10
3.5861595266580633
20
61.113585095399536
30
0.0
 70
     32
  0
VERTEX
  8
MY3DLAYER
10
3.4511010511221434
20
61.277050406474
30
0.0
 70
     32
  0
VERTEX
  8
MY3DLAYER
10
3.306207551077172
20
61.449564868987494
30
0.0
 70
     32
  0
VERTEX
  8
MY3DLAYER
10
3.1514236698567366
20
61.631207949638
30
0.0
 70
     32
  0
VERTEX
  8
MY3DLAYER
10
2.9866940507943553
20
61.82205911512355
30
0.0
 70
     32
  0
VERTEX
  8
MY3DLAYER
10
2.791288599901216
20
62.04872837485758
30
0.0
 70
     32
  0
VERTEX
  8
MY3DLAYER
10
2.60585027940124
20
62.26734356537746
30
0.0
 70
     32
  0
VERTEX
  8
MY3DLAYER
10
2.4300564988346474
20
62.47860135531578
30
0.0
 70
     32
  0
VERTEX
  8
MY3DLAYER
10
2.2635846677416214
20
62.68319841330544
30
0.0
 70
     32
  0
VERTEX
  8
MY3DLAYER
10
2.1061121956622784
20
62.88183140797903
30
0.0
 70
     32
  0
VERTEX
  8
MY3DLAYER
10
1.957316492136817
20
63.07519700796924
30
0.0
 70
     32
  0
VERTEX
  8
MY3DLAYER
10
1.8168749667053854
20
63.26399188190872
30
0.0
 70
     32
  0
VERTEX
  8
MY3DLAYER
10
1.6844650289082181
20
63.44891269843035
30
0.0
 70
     32
  0
VERTEX
  8
MY3DLAYER
10
1.5597640882854633
20
63.630656126166656
30
0.0
 70
     32
  0
VERTEX
  8
MY3DLAYER
10
1.442449554377224
20
63.809918833750416
30
0.0
 70
     32
  0
VERTEX
  8
MY3DLAYER
10
1.3321988367237618
20
63.98739748981433
30
0.0
 70
     32
  0
VERTEX
  8
MY3DLAYER
10
1.228689344865247
20
64.16378876299106
30
0.0
 70
     32
  0
VERTEX
  8
MY3DLAYER
10
1.131598488341792
20
64.33978932191337
30
0.0
 70
     32
  0
VERTEX
  8
MY3DLAYER
10
1.040603676693582
20
64.51609583521389
30
0.0
 70
     32
  0
VERTEX
  8
MY3DLAYER
10
0.9553823194608485
20
64.69340497152538
30
0.0
 70
     32
  0
VERTEX
  8
MY3DLAYER
10
0.875611826183676
20
64.87241339948051
30
0.0
 70
     32
  0
VERTEX
  8
MY3DLAYER
10
0.8009696064022805
20
65.05381778771199
30
0.0
 70
     32
  0
VERTEX
  8
MY3DLAYER
10
0.7311330696568439
20
65.23831480485248
30
0.0
 70
     32
  0
VERTEX
  8
MY3DLAYER
10
0.6657796254875166
20
65.42660111953475
30
0.0
 70
     32
  0
VERTEX
  8
MY3DLAYER
10
0.6045866834344977
20
65.61937340039145
30
0.0
 70
     32
  0
VERTEX
  8
MY3DLAYER
10
0.5472316530379362
20
65.81732831605534
30
0.0
 70
     32
  0
VERTEX
  8
MY3DLAYER
10
0.4933919438380326
20
66.02116253515902
30
0.0
 70
     32
  0
VERTEX
  8
MY3DLAYER
10
0.4427449653748874
20
66.23157272633532
30
0.0
 70
     32
  0
VERTEX
  8
MY3DLAYER
10
0.3949681271887645
20
66.44925555821682
30
0.0
 70
     32
  0
VERTEX
  8
MY3DLAYER
10
0.3497388388198139
20
66.67490769943625
30
0.0
 70
     32
  0
VERTEX
  8
MY3DLAYER
10
0.30673450980815326
20
66.9092258186264
30
0.0
 70
     32
  0
VERTEX
  8
MY3DLAYER
10
0.2656325496939977
20
67.15290658441987
30
0.0
 70
     32
  0
VERTEX
  8
MY3DLAYER
10
0.22611036801752998
20
67.40664666544937
30
0.0
 70
     32
  0
VERTEX
  8
MY3DLAYER
10
0.187845374318884
20
67.67114273034767
30
0.0
 70
     32
  0
VERTEX
  8
MY3DLAYER
10
0.15051497813830714
20
67.94709144774734
30
0.0
 70
     32
  0
VERTEX
  8
MY3DLAYER
10
0.1058611717839139
20
68.31127659652702
30
0.0
 70
     32
  0
VERTEX
  8
MY3DLAYER
10
0.06894204057644644
20
68.66442206200843
30
0.0
 70
     32
  0
VERTEX
  8
MY3DLAYER
10
0.03982697115510254
20
69.00682948964041
30
0.0
 70
     32
  0
VERTEX
  8
MY3DLAYER
10
0.01858535015907982
20
69.33880052487208
30
0.0
 70
     32
  0
VERTEX
  8
MY3DLAYER
10
0.005286564227640994
20
69.66063681315222
30
0.0
 70
     32
  0
VERTEX
  8
MY3DLAYER
10
0.0
20
69.97263999992998
30
0.0
 70
     32
  0
VERTEX
  8
MY3DLAYER
10
0.002795044115322058
20
70.27511173065423
30
0.0
 70
     32
  0
VERTEX
  8
MY3DLAYER
10
0.01374108321285359
20
70.56835365077397
30
0.0
 70
     32
  0
VERTEX
  8
MY3DLAYER
10
0.03290750393180855
20
70.8526674057381
30
0.0
 70
     32
  0
VERTEX
  8
MY3DLAYER
10
0.0603636929114496
20
71.1283546409957
30
0.0
 70
     32
  0
VERTEX
  8
MY3DLAYER
10
0.0961790367909258
20
71.39571700199565
30
0.0
 70
     32
  0
VERTEX
  8
MY3DLAYER
10
0.14042292220948344
20
71.6550561341869
30
0.0
 70
     32
  0
VERTEX
  8
MY3DLAYER
10
0.19316473580632035
20
71.90667368301848
30
0.0
 70
     32
  0
VERTEX
  8
MY3DLAYER
10
0.2544738642206828
20
72.15087129393939
30
0.0
 70
     32
  0
VERTEX
  8
MY3DLAYER
10
0.324419694091785
20
72.3879506123985
30
0.0
 70
     32
  0
VERTEX
  8
MY3DLAYER
10
0.40307161205882436
20
72.61821328384482
30
0.0
 70
     32
  0
VERTEX
  8
MY3DLAYER
10
0.4904990047610473
20
72.84196095372732
30
0.0
 70
     32
  0
VERTEX
  8
MY3DLAYER
10
0.5867712588376518
20
73.05949526749498
30
0.0
 70
     32
  0
VERTEX
  8
MY3DLAYER
10
0.691957760927852
20
73.27111787059683
30
0.0
 70
     32
  0
VERTEX
  8
MY3DLAYER
10
0.806127897670894
20
73.47713040848164
30
0.0
 70
     32
  0
VERTEX
  8
MY3DLAYER
10
0.9293510557059105
20
73.6778345265986
30
0.0
 70
     32
  0
VERTEX
  8
MY3DLAYER
10
1.061696621672245
20
73.87353187039652
30
0.0
 70
     32
  0
VERTEX
  8
MY3DLAYER
10
1.203233982209
20
74.06452408532445
30
0.0
 70
     32
  0
VERTEX
  8
MY3DLAYER
10
1.3540325239554647
20
74.25111281683137
30
0.0
 70
     32
  0
VERTEX
  8
MY3DLAYER
10
1.514161633550844
20
74.43359971036611
30
0.0
 70
     32
  0
VERTEX
  8
MY3DLAYER
10
1.6836906976343458
20
74.6122864113778
30
0.0
 70
     32
  0
VERTEX
  8
MY3DLAYER
10
1.8515484291316222
20
74.77593004819664
30
0.0
 70
     32
  0
VERTEX
  8
MY3DLAYER
10
2.0234552464067197
20
74.92997561236533
30
0.0
 70
     32
  0
VERTEX
  8
MY3DLAYER
10
2.1998906741333073
20
75.07460444817019
30
0.0
 70
     32
  0
VERTEX
  8
MY3DLAYER
10
2.381334236985107
20
75.20999789989752
30
0.0
 70
     32
  0
VERTEX
  8
MY3DLAYER
10
2.568265459635808
20
75.33633731183339
30
0.0
 70
     32
  0
VERTEX
  8
MY3DLAYER
10
2.761163866759028
20
75.45380402826427
30
0.0
 70
     32
  0
VERTEX
  8
MY3DLAYER
10
2.9605089830285394
20
75.56257939347638
30
0.0
 70
     32
  0
VERTEX
  8
MY3DLAYER
10
3.1667803331180444
20
75.662844751756
30
0.0
 70
     32
  0
VERTEX
  8
MY3DLAYER
10
3.3804574417011692
20
75.7547814473894
30
0.0
 70
     32
  0
VERTEX
  8
MY3DLAYER
10
3.602019833451608
20
75.83857082466278
30
0.0
 70
     32
  0
VERTEX
  8
MY3DLAYER
10
3.831947033043125
20
75.91439422786245
30
0.0
 70
     32
  0
VERTEX
  8
MY3DLAYER
10
4.070718565149376
20
75.98243300127466
30
0.0
 70
     32
  0
VERTEX
  8
MY3DLAYER
10
4.318813954444023
20
76.04286848918572
30
0.0
 70
     32
  0
VERTEX
  8
MY3DLAYER
10
4.576712725600801
20
76.09588203588189
30
0.0
 70
     32
  0
VERTEX
  8
MY3DLAYER
10
4.844894403293396
20
76.14165498564944
30
0.0
 70
     32
  0
VERTEX
  8
MY3DLAYER
10
5.123838512195482
20
76.18036868277464
30
0.0
 70
     32
  0
VERTEX
  8
MY3DLAYER
10
5.414024576980757
20
76.21220447154366
30
0.0
 70
     32
  0
VERTEX
  8
MY3DLAYER
10
5.715932122322901
20
76.23734369624289
30
0.0
 70
     32
  0
VERTEX
  8
MY3DLAYER
10
6.030040672895595
20
76.2559677011585
30
0.0
 70
     32
  0
VERTEX
  8
MY3DLAYER
10
6.432592251974564
20
76.26945676956458
30
0.0
 70
     32
  0
VERTEX
  8
MY3DLAYER
10
6.842608362435646
20
76.27153454287549
30
0.0
 70
     32
  0
VERTEX
  8
MY3DLAYER
10
7.260019424805106
20
76.26222700908562
30
0.0
 70
     32
  0
VERTEX
  8
MY3DLAYER
10
7.684755859609185
20
76.24156015618932
30
0.0
 70
     32
  0
VERTEX
  8
MY3DLAYER
10
8.116748087374123
20
76.20955997218104
30
0.0
 70
     32
  0
VERTEX
  8
MY3DLAYER
10
8.555926528626198
20
76.16625244505506
30
0.0
 70
     32
  0
VERTEX
  8
MY3DLAYER
10
9.0022216038916
20
76.11166356280577
30
0.0
 70
     32
  0
VERTEX
  8
MY3DLAYER
10
9.455563733696673
20
76.04581931342757
30
0.0
 70
     32
  0
VERTEX
  8
MY3DLAYER
10
9.915883338567617
20
75.96874568491482
30
0.0
 70
     32
  0
VERTEX
  8
MY3DLAYER
10
10.383110839030676
20
75.88046866526184
30
0.0
 70
     32
  0
VERTEX
  8
MY3DLAYER
10
10.85717665561209
20
75.78101424246307
30
0.0
 70
     32
  0
VERTEX
  8
MY3DLAYER
10
11.338011208838124
20
75.67040840451284
30
0.0
 70
     32
  0
VERTEX
  8
MY3DLAYER
10
11.825544919235066
20
75.54867713940548
30
0.0
 70
     32
  0
VERTEX
  8
MY3DLAYER
10
12.319708207329146
20
75.41584643513549
30
0.0
 70
     32
  0
VERTEX
  8
MY3DLAYER
10
12.820431493646563
20
75.27194227969717
30
0.0
 70
     32
  0
VERTEX
  8
MY3DLAYER
10
13.327645198713627
20
75.11699066108481
30
0.0
 70
     32
  0
VERTEX
  8
MY3DLAYER
10
13.841279743056603
20
74.95101756729288
30
0.0
 70
     32
  0
VERTEX
  8
MY3DLAYER
10
14.361265547201691
20
74.77404898631572
30
0.0
 70
     32
  0
VERTEX
  8
MY3DLAYER
10
14.887533031675172
20
74.58611090614767
30
0.0
 70
     32
  0
VERTEX
  8
MY3DLAYER
10
15.420012617003302
20
74.38722931478314
30
0.0
 70
     32
  0
VERTEX
  8
MY3DLAYER
10
15.958634723712288
20
74.17743020021653
30
0.0
 70
     32
  0
VERTEX
  8
MY3DLAYER
10
16.503329772328406
20
73.95673955044212
30
0.0
 70
     32
  0
VERTEX
  8
MY3DLAYER
10
17.054028183377973
20
73.72518335345437
30
0.0
 70
     32
  0
VERTEX
  8
MY3DLAYER
10
17.610660377387106
20
73.48278759724747
30
0.0
 70
     32
  0
VERTEX
  8
MY3DLAYER
10
18.173156774882194
20
73.22957826981609
30
0.0
 70
     32
  0
VERTEX
  8
MY3DLAYER
10
18.741447796389366
20
72.96558135915436
30
0.0
 70
     32
  0
VERTEX
  8
MY3DLAYER
10
19.31546386243499
20
72.6908228532567
30
0.0
 70
     32
  0
VERTEX
  8
MY3DLAYER
10
19.895135393545225
20
72.40532874011753
30
0.0
 70
     32
  0
VERTEX
  8
MY3DLAYER
10
20.480392810246382
20
72.10912500773127
30
0.0
 70
     32
  0
VERTEX
  8
MY3DLAYER
10
21.071166533064655
20
71.80223764409207
30
0.0
 70
     32
  0
VERTEX
  8
MY3DLAYER
10
21.667386982526363
20
71.48469263719453
30
0.0
 70
     32
  0
VERTEX
  8
MY3DLAYER
10
22.268984579157674
20
71.15651597503295
30
0.0
 70
     32
  0
VERTEX
  8
MY3DLAYER
10
22.87588974348492
20
70.81773364560163
30
0.0
 70
     32
  0
VERTEX
  8
MY3DLAYER
10
23.488032896034305
20
70.468371636895
30
0.0
 70
     32
  0
VERTEX
  8
MY3DLAYER
10
24.105344457332123
20
70.10845593690745
30
0.0
 70
     32
  0
VERTEX
  8
MY3DLAYER
10
24.72775484790456
20
69.7380125336333
30
0.0
 70
     32
  0
VERTEX
  8
MY3DLAYER
10
25.35519448827789
20
69.35706741506695
30
0.0
 70
     32
  0
VERTEX
  8
MY3DLAYER
10
25.987593798978402
20
68.96564656920275
30
0.0
 70
     32
  0
VERTEX
  8
MY3DLAYER
10
26.62488320053228
20
68.5637759840351
30
0.0
 70
     32
  0
VERTEX
  8
MY3DLAYER
10
26.742259177094766
20
68.48956760505617
30
0.0
 70
     32
  0
VERTEX
  8
MY3DLAYER
10
26.87117226303226
20
68.4089663278268
30
0.0
 70
     32
  0
VERTEX
  8
MY3DLAYER
10
27.01092519271977
20
68.32238408447905
30
0.0
 70
     32
  0
VERTEX
  8
MY3DLAYER
10
27.160820700532273
20
68.23023280714487
30
0.0
 70
     32
  0
VERTEX
  8
MY3DLAYER
10
27.320161520844795
20
68.13292442795627
30
0.0
 70
     32
  0
VERTEX
  8
MY3DLAYER
10
27.4882503880323
20
68.03087087904522
30
0.0
 70
     32
  0
VERTEX
  8
MY3DLAYER
10
27.664390036469786
20
67.92448409254374
30
0.0
 70
     32
  0
VERTEX
  8
MY3DLAYER
10
27.847883200532298
20
67.81417600058377
30
0.0
 70
     32
  0
VERTEX
  8
MY3DLAYER
10
28.038032614594783
20
67.70035853529734
30
0.0
 70
     32
  0
VERTEX
  8
MY3DLAYER
10
28.234141013032296
20
67.58344362881648
30
0.0
 70
     32
  0
VERTEX
  8
MY3DLAYER
10
28.435511130219783
20
67.46384321327312
30
0.0
 70
     32
  0
VERTEX
  8
MY3DLAYER
10
28.64144570053229
20
67.34196922079926
30
0.0
 70
     32
  0
VERTEX
  8
MY3DLAYER
10
28.85124745834481
20
67.2182335835269
30
0.0
 70
     32
  0
VERTEX
  8
MY3DLAYER
10
29.064219138032282
20
67.09304823358806
30
0.0
 70
     32
  0
VERTEX
  8
MY3DLAYER
10
29.27966347396981
20
66.9668251031147
30
0.0
 70
     32
  0
VERTEX
  8
MY3DLAYER
10
29.496883200532306
20
66.83997612423883
30
0.0
 70
     32
  0
VERTEX
  8
MY3DLAYER
10
29.715181052094817
20
66.71291322909244
30
0.0
 70
     32
  0
VERTEX
  8
MY3DLAYER
10
29.933859763032284
20
66.58604834980747
30
0.0
 70
     32
  0
VERTEX
  8
MY3DLAYER
10
30.152222067719794
20
66.45979341851597
30
0.0
 70
     32
  0
VERTEX
  8
MY3DLAYER
10
30.36957070053232
20
66.33456036734995
30
0.0
 70
     32
  0
VERTEX
  8
MY3DLAYER
10
30.58520839584483
20
66.21076112844135
30
0.0
 70
     32
  0
VERTEX
  8
MY3DLAYER
10
30.798437888032318
20
66.08880763392216
30
0.0
 70
     32
  0
VERTEX
  8
MY3DLAYER
10
31.0085619114698
20
65.96911181592442
30
0.0
 70
     32
  0
VERTEX
  8
MY3DLAYER
10
31.21488320053233
20
65.8520856065801
30
0.0
 70
     32
  0
VERTEX
  8
MY3DLAYER
10
31.69299754492123
20
65.58120676521914
30
0.0
 70
     32
  0
VERTEX
  8
MY3DLAYER
10
32.158946317672154
20
65.31658578931447
30
0.0
 70
     32
  0
VERTEX
  8
MY3DLAYER
10
32.613067070898786
20
65.05800228851446
30
0.0
 70
     32
  0
VERTEX
  8
MY3DLAYER
10
33.055697356714916
20
64.80523587246739
30
0.0
 70
     32
  0
VERTEX
  8
MY3DLAYER
10
33.4871747272343
20
64.55806615082147
30
0.0
 70
     32
  0
VERTEX
  8
MY3DLAYER
10
33.907836734570665
20
64.31627273322516
30
0.0
 70
     32
  0
VERTEX
  8
MY3DLAYER
10
34.31802093083781
20
64.07963522932671
30
0.0
 70
     32
  0
VERTEX
  8
MY3DLAYER
10
34.7180648681494
20
63.84793324877437
30
0.0
 70
     32
  0
VERTEX
  8
MY3DLAYER
10
35.10830609861922
20
63.62094640121651
30
0.0
 70
     32
  0
VERTEX
  8
MY3DLAYER
10
35.48908217436105
20
63.3984542963014
30
0.0
 70
     32
  0
VERTEX
  8
MY3DLAYER
10
35.860730647488595
20
63.18023654367743
30
0.0
 70
     32
  0
VERTEX
  8
MY3DLAYER
10
36.223589070115615
20
62.96607275299279
30
0.0
 70
     32
  0
VERTEX
  8
MY3DLAYER
10
36.57799499435587
20
62.75574253389589
30
0.0
 70
     32
  0
VERTEX
  8
MY3DLAYER
10
36.92428597232316
20
62.54902549603495
30
0.0
 70
     32
  0
VERTEX
  8
MY3DLAYER
10
37.26279955613111
20
62.3457012490583
30
0.0
 70
     32
  0
VERTEX
  8
MY3DLAYER
10
37.59387329789356
20
62.14554940261429
30
0.0
 70
     32
  0
VERTEX
  8
MY3DLAYER
10
37.91784474972421
20
61.94834956635123
30
0.0
 70
     32
  0
VERTEX
  8
MY3DLAYER
10
38.23505146373689
20
61.75388134991738
30
0.0
 70
     32
  0
VERTEX
  8
MY3DLAYER
10
38.545830992045204
20
61.56192436296107
30
0.0
 70
     32
  0
VERTEX
  8
MY3DLAYER
10
38.85052088676304
20
61.3722582151306
30
0.0
 70
     32
  0
VERTEX
  8
MY3DLAYER
10
39.14945870000408
20
61.184662516074276
30
0.0
 70
     32
  0
VERTEX
  8
MY3DLAYER
10
39.442981983882106
20
60.99891687544045
30
0.0
 70
     32
  0
VERTEX
  8
MY3DLAYER
10
39.7314282905108
20
60.814800902877394
30
0.0
 70
     32
  0
VERTEX
  8
MY3DLAYER
10
40.01513517200399
20
60.63209420803337
30
0.0
 70
     32
  0
VERTEX
  8
MY3DLAYER
10
40.29444018047541
20
60.45057640055675
30
0.0
 70
     32
  0
VERTEX
  8
MY3DLAYER
10
40.56968086803877
20
60.27002709009585
30
0.0
 70
     32
  0
VERTEX
  8
MY3DLAYER
10
40.84119478680782
20
60.09022588629892
30
0.0
 70
     32
  0
VERTEX
  8
MY3DLAYER
10
41.10931948889635
20
59.91095239881431
30
0.0
 70
     32
  0
VERTEX
  8
MY3DLAYER
10
41.37439252641807
20
59.73198623729029
30
0.0
 70
     32
  0
VERTEX
  8
MY3DLAYER
10
41.63675145148674
20
59.553107011375204
30
0.0
 70
     32
  0
VERTEX
  8
MY3DLAYER
10
41.89673381621618
20
59.37409433071737
30
0.0
 70
     32
  0
VERTEX
  8
MY3DLAYER
10
42.15467717271997
20
59.19472780496506
30
0.0
 70
     32
  0
VERTEX
  8
MY3DLAYER
10
42.410919073111984
20
59.014787043766596
30
0.0
 70
     32
  0
VERTEX
  8
MY3DLAYER
10
42.66579706950598
20
58.83405165677026
30
0.0
 70
     32
  0
VERTEX
  8
MY3DLAYER
10
42.91964871401566
20
58.65230125362443
30
0.0
 70
     32
  0
VERTEX
  8
MY3DLAYER
10
43.17281155875476
20
58.469315443977365
30
0.0
 70
     32
  0
VERTEX
  8
MY3DLAYER
10
43.425623155837044
20
58.28487383747731
30
0.0
 70
     32
  0
VERTEX
  8
MY3DLAYER
10
43.67842105737631
20
58.09875604377271
30
0.0
 70
     32
  0
VERTEX
  8
MY3DLAYER
10
43.93154281548623
20
57.910741672511776
30
0.0
 70
     32
  0
VERTEX
  8
MY3DLAYER
10
44.1853259822806
20
57.72061033334283
30
0.0
 70
     32
  0
VERTEX
  8
MY3DLAYER
10
44.440108109873144
20
57.52814163591419
30
0.0
 70
     32
  0
VERTEX
  8
MY3DLAYER
10
44.69622675037762
20
57.33311518987418
30
0.0
 70
     32
  0
VERTEX
  8
MY3DLAYER
10
44.95401945590781
20
57.13531060487107
30
0.0
 70
     32
  0
VERTEX
  8
MY3DLAYER
10
45.21382377857739
20
56.93450749055321
30
0.0
 70
     32
  0
VERTEX
  8
MY3DLAYER
10
45.47597727050019
20
56.73048545656888
30
0.0
 70
     32
  0
VERTEX
  8
MY3DLAYER
10
45.740817483789904
20
56.523024112566404
30
0.0
 70
     32
  0
VERTEX
  8
MY3DLAYER
10
46.00868197056029
20
56.31190306819406
30
0.0
 70
     32
  0
VERTEX
  8
MY3DLAYER
10
46.27990828292507
20
56.096901933100185
30
0.0
 70
     32
  0
VERTEX
  8
MY3DLAYER
10
46.55483397299806
20
55.877800316933104
30
0.0
 70
     32
  0
VERTEX
  8
MY3DLAYER
10
46.833796592892966
20
55.6543778293411
30
0.0
 70
     32
  0
VERTEX
  8
MY3DLAYER
10
46.91405699808982
20
55.59110495479451
30
0.0
 70
     32
  0
VERTEX
  8
MY3DLAYER
10
46.99235416695911
20
55.531622975433194
30
0.0
 70
     32
  0
VERTEX
  8
MY3DLAYER
10
47.06788880376747
20
55.47642004576208
30
0.0
 70
     32
  0
VERTEX
  8
MY3DLAYER
10
47.13986161278159
20
55.42598432028619
30
0.0
 70
     32
  0
VERTEX
  8
MY3DLAYER
10
47.207473298268155
20
55.38080395351047
30
0.0
 70
     32
  0
VERTEX
  8
MY3DLAYER
10
47.26992456449388
20
55.34136709993986
30
0.0
 70
     32
  0
VERTEX
  8
MY3DLAYER
10
47.326416115725465
20
55.3081619140794
30
0.0
 70
     32
  0
VERTEX
  8
MY3DLAYER
10
47.37614865622952
20
55.281676550434
30
0.0
 70
     32
  0
VERTEX
  8
MY3DLAYER
10
47.418322890272805
20
55.26239916350874
30
0.0
 70
     32
  0
VERTEX
  8
MY3DLAYER
10
47.4767992560437
20
55.247420937838264
30
0.0
 70
     32
  0
VERTEX
  8
MY3DLAYER
10
47.49597073209781
20
55.26675966834386
30
0.0
 70
     32
  0
VERTEX
  8
MY3DLAYER
10
47.49475358011829
20
55.29339430860017
30
0.0
 70
     32
  0
VERTEX
  8
MY3DLAYER
10
47.48804409830533
20
55.33212951443562
30
0.0
 70
     32
  0
VERTEX
  8
MY3DLAYER
10
47.476035044598035
20
55.382494471413914
30
0.0
 70
     32
  0
VERTEX
  8
MY3DLAYER
10
47.45891917693553
20
55.44401836509891
30
0.0
 70
     32
  0
VERTEX
  8
MY3DLAYER
10
47.43688925325687
20
55.516230381054186
30
0.0
 70
     32
  0
VERTEX
  8
MY3DLAYER
10
47.41013803150123
20
55.59865970484346
30
0.0
 70
     32
  0
VERTEX
  8
MY3DLAYER
10
47.37885826960777
20
55.690835522030504
30
0.0
 70
     32
  0
VERTEX
  8
MY3DLAYER
10
47.343242725515545
20
55.792287018179024
30
0.0
 70
     32
  0
VERTEX
  8
MY3DLAYER
10
47.30348415716368
20
55.90254337885272
30
0.0
 70
     32
  0
VERTEX
  8
MY3DLAYER
10
47.25977532249133
20
56.021133789615355
30
0.0
 70
     32
  0
VERTEX
  8
MY3DLAYER
10
47.212308979437566
20
56.14758743603055
30
0.0
 70
     32
  0
VERTEX
  8
MY3DLAYER
10
47.161277885941566
20
56.28143350366209
30
0.0
 70
     32
  0
VERTEX
  8
MY3DLAYER
10
47.10687479994237
20
56.42220117807366
30
0.0
 70
     32
  0
VERTEX
  8
MY3DLAYER
10
47.049292479379154
20
56.56941964482896
30
0.0
 70
     32
  0
VERTEX
  8
MY3DLAYER
10
46.98872368219104
20
56.722618089491775
30
0.0
 70
     32
  0
VERTEX
  8
MY3DLAYER
10
46.92536116631712
20
56.88132569762577
30
0.0
 70
     32
  0
VERTEX
  8
MY3DLAYER
10
46.859397689696564
20
57.045071654794704
30
0.0
 70
     32
  0
VERTEX
  8
MY3DLAYER
10
46.791026010268375
20
57.21338514656223
30
0.0
 70
     32
  0
VERTEX
  8
MY3DLAYER
10
46.72043888597181
20
57.38579535849204
30
0.0
 70
     32
  0
VERTEX
  8
MY3DLAYER
10
46.64782907474592
20
57.561831476147965
30
0.0
 70
     32
  0
VERTEX
  8
MY3DLAYER
10
46.573389334529786
20
57.7410226850936
30
0.0
 70
     32
  0
VERTEX
  8
MY3DLAYER
10
46.49731242326261
20
57.92289817089276
30
0.0
 70
     32
  0
VERTEX
  8
MY3DLAYER
10
46.41979109888348
20
58.10698711910907
30
0.0
 70
     32
  0
VERTEX
  8
MY3DLAYER
10
46.34101811933146
20
58.29281871530635
30
0.0
 70
     32
  0
VERTEX
  8
MY3DLAYER
10
46.261186242545755
20
58.47992214504822
30
0.0
 70
     32
  0
VERTEX
  8
MY3DLAYER
10
46.18048822646544
20
58.66782659389842
30
0.0
 70
     32
  0
VERTEX
  8
MY3DLAYER
10
46.09911682902964
20
58.85606124742071
30
0.0
 70
     32
  0
VERTEX
  8
MY3DLAYER
10
46.017264808177444
20
59.044155291178754
30
0.0
 70
     32
  0
VERTEX
  8
MY3DLAYER
10
45.935124921848036
20
59.23163791073629
30
0.0
 70
     32
  0
VERTEX
  8
MY3DLAYER
10
45.85288992798048
20
59.41803829165706
30
0.0
 70
     32
  0
VERTEX
  8
MY3DLAYER
10
45.77075258451391
20
59.602885619504704
30
0.0
 70
     32
  0
VERTEX
  8
MY3DLAYER
10
45.68890564938743
20
59.78570907984302
30
0.0
 70
     32
  0
VERTEX
  8
MY3DLAYER
10
45.607541880540246
20
59.96603785823561
30
0.0
 70
     32
  0
VERTEX
  8
MY3DLAYER
10
45.52685403591131
20
60.143401140246304
30
0.0
 70
     32
  0
VERTEX
  8
MY3DLAYER
10
45.447034873439904
20
60.31732811143881
30
0.0
 70
     32
  0
VERTEX
  8
MY3DLAYER
10
45.36827715106507
20
60.48734795737676
30
0.0
 70
     32
  0
VERTEX
  8
MY3DLAYER
10
45.29077362672593
20
60.652989863623965
30
0.0
 70
     32
  0
VERTEX
  8
MY3DLAYER
10
45.21471705836165
20
60.81378301574405
30
0.0
 70
     32
  0
VERTEX
  8
MY3DLAYER
10
45.08711608309979
20
61.07691619681364
30
0.0
 70
     32
  0
VERTEX
  8
MY3DLAYER
10
44.956100193043426
20
61.337220412171774
30
0.0
 70
     32
  0
VERTEX
  8
MY3DLAYER
10
44.822003530958156
20
61.59421848220352
30
0.0
 70
     32
  0
VERTEX
  8
MY3DLAYER
10
44.68516023960964
20
61.84743322729396
30
0.0
 70
     32
  0
VERTEX
  8
MY3DLAYER
10
44.545904461763506
20
62.09638746782811
30
0.0
 70
     32
  0
VERTEX
  8
MY3DLAYER
10
44.404570340185394
20
62.34060402419105
30
0.0
 70
     32
  0
VERTEX
  8
MY3DLAYER
10
44.261492017640855
20
62.579605716767865
30
0.0
 70
     32
  0
VERTEX
  8
MY3DLAYER
10
44.11700363689568
20
62.81291536594359
30
0.0
 70
     32
  0
VERTEX
  8
MY3DLAYER
10
43.97143934071533
20
63.0400557921033
30
0.0
 70
     32
  0
VERTEX
  8
MY3DLAYER
10
43.82513327186554
20
63.260549815632054
30
0.0
 70
     32
  0
VERTEX
  8
MY3DLAYER
10
43.6784195731119
20
63.47392025691494
30
0.0
 70
     32
  0
VERTEX
  8
MY3DLAYER
10
43.53163238722007
20
63.67968993633699
30
0.0
 70
     32
  0
VERTEX
  8
MY3DLAYER
10
43.38510585695563
20
63.87738167428327
30
0.0
 70
     32
  0
VERTEX
  8
MY3DLAYER
10
43.23917412508429
20
64.06651829113882
30
0.0
 70
     32
  0
VERTEX
  8
MY3DLAYER
10
43.094171334371595
20
64.24662260728877
30
0.0
 70
     32
  0
VERTEX
  8
MY3DLAYER
10
42.950431627583214
20
64.41721744311809
30
0.0
 70
     32
  0
VERTEX
  8
MY3DLAYER
10
42.80828914748479
20
64.57782561901195
30
0.0
 70
     32
  0
VERTEX
  8
MY3DLAYER
10
42.668078036841955
20
64.7279699553553
30
0.0
 70
     32
  0
VERTEX
  8
MY3DLAYER
10
42.53013243842029
20
64.86717327253328
30
0.0
 70
     32
  0
VERTEX
  8
MY3DLAYER
10
42.39478649498548
20
64.9949583909309
30
0.0
 70
     32
  0
VERTEX
  8
MY3DLAYER
10
42.26237434930309
20
65.11084813093329
30
0.0
 70
     32
  0
VERTEX
  8
MY3DLAYER
10
42.133230144138885
20
65.21436531292547
30
0.0
 70
     32
  0
VERTEX
  8
MY3DLAYER
10
41.980198484771556
20
65.336173516608
30
0.0
 70
     32
  0
VERTEX
  8
MY3DLAYER
10
41.83054397086911
20
65.46532758608359
30
0.0
 70
     32
  0
VERTEX
  8
MY3DLAYER
10
41.68457037214978
20
65.6012226348929
30
0.0
 70
     32
  0
VERTEX
  8
MY3DLAYER
10
41.542581458331895
20
65.7432537765766
30
0.0
 70
     32
  0
VERTEX
  8
MY3DLAYER
10
41.404880999133745
20
65.89081612467514
30
0.0
 70
     32
  0
VERTEX
  8
MY3DLAYER
10
41.271772764273514
20
66.04330479272923
30
0.0
 70
     32
  0
VERTEX
  8
MY3DLAYER
10
41.14356052346961
20
66.20011489427941
30
0.0
 70
     32
  0
VERTEX
  8
MY3DLAYER
10
41.02054804644019
20
66.3606415428664
30
0.0
 70
     32
  0
VERTEX
  8
MY3DLAYER
10
40.903039102903605
20
66.52427985203072
30
0.0
 70
     32
  0
VERTEX
  8
MY3DLAYER
10
40.791337462578156
20
66.69042493531299
30
0.0
 70
     32
  0
VERTEX
  8
MY3DLAYER
10
40.68574689518205
20
66.85847190625387
30
0.0
 70
     32
  0
VERTEX
  8
MY3DLAYER
10
40.58657117043364
20
67.02781587839391
30
0.0
 70
     32
  0
VERTEX
  8
MY3DLAYER
10
40.49411405805113
20
67.19785196527374
30
0.0
 70
     32
  0
VERTEX
  8
MY3DLAYER
10
40.4086793277529
20
67.36797528043397
30
0.0
 70
     32
  0
VERTEX
  8
MY3DLAYER
10
40.330570749257134
20
67.53758093741517
30
0.0
 70
     32
  0
VERTEX
  8
MY3DLAYER
10
40.26009209228217
20
67.70606404975808
30
0.0
 70
     32
  0
VERTEX
  8
MY3DLAYER
10
40.197547126546255
20
67.87281973100313
30
0.0
 70
     32
  0
VERTEX
  8
MY3DLAYER
10
40.14323962176772
20
68.03724309469105
30
0.0
 70
     32
  0
VERTEX
  8
MY3DLAYER
10
40.09747334766479
20
68.1987292543624
30
0.0
 70
     32
  0
VERTEX
  8
MY3DLAYER
10
40.060552073955776
20
68.35667332355786
30
0.0
 70
     32
  0
VERTEX
  8
MY3DLAYER
10
40.03277957035893
20
68.51047041581792
30
0.0
 70
     32
  0
VERTEX
  8
MY3DLAYER
10
40.014459606592546
20
68.65951564468324
30
0.0
 70
     32
  0
VERTEX
  8
MY3DLAYER
10
40.00589595237498
20
68.80320412369448
30
0.0
 70
     32
  0
VERTEX
  8
MY3DLAYER
10
40.007392377424345
20
68.94093096639222
30
0.0
 70
     32
  0
VERTEX
  8
MY3DLAYER
10
40.01925265145908
20
69.07209128631702
30
0.0
 70
     32
  0
VERTEX
  8
MY3DLAYER
10
40.041780544197394
20
69.19608019700954
30
0.0
 70
     32
  0
VERTEX
  8
MY3DLAYER
10
40.07527982535754
20
69.31229281201041
30
0.0
 70
     32
  0
VERTEX
  8
MY3DLAYER
10
40.131754152901756
20
69.45553773936459
30
0.0
 70
     32
  0
VERTEX
  8
MY3DLAYER
10
40.19737472293798
20
69.58811220525199
30
0.0
 70
     32
  0
VERTEX
  8
MY3DLAYER
10
40.27184658672694
20
69.71008133838474
30
0.0
 70
     32
  0
VERTEX
  8
MY3DLAYER
10
40.3548747955294
20
69.82151026747474
30
0.0
 70
     32
  0
VERTEX
  8
MY3DLAYER
10
40.44616440060618
20
69.92246412123409
30
0.0
 70
     32
  0
VERTEX
  8
MY3DLAYER
10
40.54542045321803
20
70.0130080283748
30
0.0
 70
     32
  0
VERTEX
  8
MY3DLAYER
10
40.652348004625786
20
70.09320711760878
30
0.0
 70
     32
  0
VERTEX
  8
MY3DLAYER
10
40.76665210609017
20
70.1631265176482
30
0.0
 70
     32
  0
VERTEX
  8
MY3DLAYER
10
40.888037808871985
20
70.22283135720501
30
0.0
 70
     32
  0
VERTEX
  8
MY3DLAYER
10
41.016210164231985
20
70.27238676499118
30
0.0
 70
     32
  0
VERTEX
  8
MY3DLAYER
10
41.15087422343101
20
70.31185786971879
30
0.0
 70
     32
  0
VERTEX
  8
MY3DLAYER
10
41.29173503772979
20
70.34130980009985
30
0.0
 70
     32
  0
VERTEX
  8
MY3DLAYER
10
41.43849765838914
20
70.36080768484635
30
0.0
 70
     32
  0
VERTEX
  8
MY3DLAYER
10
41.590867136669786
20
70.37041665267031
30
0.0
 70
     32
  0
VERTEX
  8
MY3DLAYER
10
41.74854852383258
20
70.37020183228377
30
0.0
 70
     32
  0
VERTEX
  8
MY3DLAYER
10
41.911246871138275
20
70.36022835239879
30
0.0
 70
     32
  0
VERTEX
  8
MY3DLAYER
10
42.07866722984761
20
70.34056134172727
30
0.0
 70
     32
  0
VERTEX
  8
MY3DLAYER
10
42.25051465122146
20
70.31126592898129
30
0.0
 70
     32
  0
VERTEX
  8
MY3DLAYER
10
42.4264941865205
20
70.27240724287287
30
0.0
 70
     32
  0
VERTEX
  8
MY3DLAYER
10
42.6063108870056
20
70.22405041211405
30
0.0
 70
     32
  0
VERTEX
  8
MY3DLAYER
10
42.789669803937485
20
70.16626056541679
30
0.0
 70
     32
  0
VERTEX
  8
MY3DLAYER
10
42.97627598857697
20
70.09910283149318
30
0.0
 70
     32
  0
VERTEX
  8
MY3DLAYER
10
43.16583449218479
20
70.02264233905515
30
0.0
 70
     32
  0
VERTEX
  8
MY3DLAYER
10
43.35805036602179
20
69.9369442168148
30
0.0
 70
     32
  0
VERTEX
  8
MY3DLAYER
10
43.55262866134873
20
69.84207359348403
30
0.0
 70
     32
  0
VERTEX
  8
MY3DLAYER
10
43.749274429426336
20
69.73809559777499
30
0.0
 70
     32
  0
VERTEX
  8
MY3DLAYER
10
43.947692721515445
20
69.62507535839968
30
0.0
 70
     32
  0
VERTEX
  8
MY3DLAYER
10
44.14758858887684
20
69.50307800407006
30
0.0
 70
     32
  0
VERTEX
  8
MY3DLAYER
10
44.34866708277127
20
69.37216866349814
30
0.0
 70
     32
  0
VERTEX
  8
MY3DLAYER
10
44.55063325445955
20
69.232412465396
30
0.0
 70
     32
  0
VERTEX
  8
MY3DLAYER
10
44.75319215520242
20
69.08387453847556
30
0.0
 70
     32
  0
VERTEX
  8
MY3DLAYER
10
44.95604883626069
20
68.92662001144893
30
0.0
 70
     32
  0
VERTEX
  8
MY3DLAYER
10
45.15890834889518
20
68.7607140130281
30
0.0
 70
     32
  0
VERTEX
  8
MY3DLAYER
10
45.36147574436659
20
68.58622167192512
30
0.0
 70
     32
  0
VERTEX
  8
MY3DLAYER
10
45.563456073935754
20
68.40320811685191
30
0.0
 70
     32
  0
VERTEX
  8
MY3DLAYER
10
45.76455438886343
20
68.21173847652057
30
0.0
 70
     32
  0
VERTEX
  8
MY3DLAYER
10
45.964475740410386
20
68.01187787964311
30
0.0
 70
     32
  0
VERTEX
  8
MY3DLAYER
10
46.07675814490307
20
67.8948016514392
30
0.0
 70
     32
  0
VERTEX
  8
MY3DLAYER
10
46.19570510065308
20
67.76683830261123
30
0.0
 70
     32
  0
VERTEX
  8
MY3DLAYER
10
46.320543796149686
20
67.62895264123239
30
0.0
 70
     32
  0
VERTEX
  8
MY3DLAYER
10
46.45050141988208
20
67.48210947537574
30
0.0
 70
     32
  0
VERTEX
  8
MY3DLAYER
10
46.58480516033947
20
67.32727361311439
30
0.0
 70
     32
  0
VERTEX
  8
MY3DLAYER
10
46.72268220601111
20
67.1654098625214
30
0.0
 70
     32
  0
VERTEX
  8
MY3DLAYER
10
46.86335974538617
20
66.99748303166993
30
0.0
 70
     32
  0
VERTEX
  8
MY3DLAYER
10
47.00606496695387
20
66.82445792863312
30
0.0
 70
     32
  0
VERTEX
  8
MY3DLAYER
10
47.150025059203436
20
66.64729936148404
30
0.0
 70
     32
  0
VERTEX
  8
MY3DLAYER
10
47.29446721062407
20
66.46697213829579
30
0.0
 70
     32
  0
VERTEX
  8
MY3DLAYER
10
47.438618609704996
20
66.28444106714153
30
0.0
 70
     32
  0
VERTEX
  8
MY3DLAYER
10
47.581706444935456
20
66.10067095609428
30
0.0
 70
     32
  0
VERTEX
  8
MY3DLAYER
10
47.72295790480461
20
65.91662661322725
30
0.0
 70
     32
  0
VERTEX
  8
MY3DLAYER
10
47.8616001778017
20
65.73327284661349
30
0.0
 70
     32
  0
VERTEX
  8
MY3DLAYER
10
47.99686045241593
20
65.55157446432607
30
0.0
 70
     32
  0
VERTEX
  8
MY3DLAYER
10
48.12796591713653
20
65.37249627443818
30
0.0
 70
     32
  0
VERTEX
  8
MY3DLAYER
10
48.25414376045271
20
65.19700308502293
30
0.0
 70
     32
  0
VERTEX
  8
MY3DLAYER
10
48.374621170853686
20
65.02605970415333
30
0.0
 70
     32
  0
VERTEX
  8
MY3DLAYER
10
48.48862533682868
20
64.86063093990258
30
0.0
 70
     32
  0
VERTEX
  8
MY3DLAYER
10
48.59933251003161
20
64.69565114404598
30
0.0
 70
     32
  0
VERTEX
  8
MY3DLAYER
10
48.71532631914194
20
64.51831847790837
30
0.0
 70
     32
  0
VERTEX
  8
MY3DLAYER
10
48.83624868584522
20
64.32930012487246
30
0.0
 70
     32
  0
VERTEX
  8
MY3DLAYER
10
48.961741531827094
20
64.1292632683211
30
0.0
 70
     32
  0
VERTEX
  8
MY3DLAYER
10
49.09144677877317
20
63.918875091637055
30
0.0
 70
     32
  0
VERTEX
  8
MY3DLAYER
10
49.22500634836902
20
63.69880277820318
30
0.0
 70
     32
  0
VERTEX
  8
MY3DLAYER
10
49.36206216230029
20
63.46971351140219
30
0.0
 70
     32
  0
VERTEX
  8
MY3DLAYER
10
49.50225614225262
20
63.23227447461691
30
0.0
 70
     32
  0
VERTEX
  8
MY3DLAYER
10
49.645230209911546
20
62.987152851230114
30
0.0
 70
     32
  0
VERTEX
  8
MY3DLAYER
10
49.7906262869627
20
62.73501582462462
30
0.0
 70
     32
  0
VERTEX
  8
MY3DLAYER
10
49.938086295091686
20
62.4765305781832
30
0.0
 70
     32
  0
VERTEX
  8
MY3DLAYER
10
50.08725215598416
20
62.212364295288715
30
0.0
 70
     32
  0
VERTEX
  8
MY3DLAYER
10
50.23776579132566
20
61.94318415932384
30
0.0
 70
     32
  0
VERTEX
  8
MY3DLAYER
10
50.3892691228018
20
61.66965735367147
30
0.0
 70
     32
  0
VERTEX
  8
MY3DLAYER
10
50.54140407209825
20
61.39245106171436
30
0.0
 70
     32
  0
VERTEX
  8
MY3DLAYER
10
50.693812560900604
20
61.112232466835295
30
0.0
 70
     32
  0
VERTEX
  8
MY3DLAYER
10
50.846136510894354
20
60.82966875241707
30
0.0
 70
     32
  0
VERTEX
  8
MY3DLAYER
10
50.99801784376526
20
60.5454271018425
30
0.0
 70
     32
  0
VERTEX
  8
MY3DLAYER
10
51.14909848119883
20
60.26017469849435
30
0.0
 70
     32
  0
VERTEX
  8
MY3DLAYER
10
51.29902034488072
20
59.97457872575545
30
0.0
 70
     32
  0
VERTEX
  8
MY3DLAYER
10
51.447425356496545
20
59.689306367008555
30
0.0
 70
     32
  0
VERTEX
  8
MY3DLAYER
10
51.5939554377319
20
59.405024805636515
30
0.0
 70
     32
  0
VERTEX
  8
MY3DLAYER
10
51.738252510272346
20
59.12240122502202
30
0.0
 70
     32
  0
VERTEX
  8
MY3DLAYER
10
51.87995849580355
20
58.842102808547956
30
0.0
 70
     32
  0
VERTEX
  8
MY3DLAYER
10
52.01871531601111
20
58.56479673959712
30
0.0
 70
     32
  0
VERTEX
  8
MY3DLAYER
10
52.15416489258058
20
58.29115020155223
30
0.0
 70
     32
  0
VERTEX
  8
MY3DLAYER
10
52.28594914719764
20
58.02183037779616
30
0.0
 70
     32
  0
VERTEX
  8
MY3DLAYER
10
52.41371000154787
20
57.757504451711625
30
0.0
 70
     32
  0
VERTEX
  8
MY3DLAYER
10
52.53708937731691
20
57.49883960668151
30
0.0
 70
     32
  0
VERTEX
  8
MY3DLAYER
10
52.65572919619025
20
57.2465030260885
30
0.0
 70
     32
  0
VERTEX
  8
MY3DLAYER
10
52.76927137985362
20
57.00116189331546
30
0.0
 70
     32
  0
VERTEX
  8
MY3DLAYER
10
52.877357849992606
20
56.763483391745176
30
0.0
 70
     32
  0
VERTEX
  8
MY3DLAYER
10
52.97963052829277
20
56.53413470476043
30
0.0
 70
     32
  0
VERTEX
  8
MY3DLAYER
10
53.075731336439716
20
56.31378301574405
30
0.0
 70
     32
  0
VERTEX
  8
MY3DLAYER
10
53.13041576613542
20
56.18912875685223
30
0.0
 70
     32
  0
VERTEX
  8
MY3DLAYER
10
53.18373545133503
20
56.07208940671824
30
0.0
 70
     32
  0
VERTEX
  8
MY3DLAYER
10
53.23547806583522
20
55.96298760657665
30
0.0
 70
     32
  0
VERTEX
  8
MY3DLAYER
10
53.28543128343239
20
55.862145997661955
30
0.0
 70
     32
  0
VERTEX
  8
MY3DLAYER
10
53.33338277792319
20
55.76988722120867
30
0.0
 70
     32
  0
VERTEX
  8
MY3DLAYER
10
53.37912022310416
20
55.686533918451254
30
0.0
 70
     32
  0
VERTEX
  8
MY3DLAYER
10
53.42243129277181
20
55.6124087306243
30
0.0
 70
     32
  0
VERTEX
  8
MY3DLAYER
10
53.46310366072275
20
55.54783429896223
30
0.0
 70
     32
  0
VERTEX
  8
MY3DLAYER
10
53.50092500075351
20
55.4931332646996
30
0.0
 70
     32
  0
VERTEX
  8
MY3DLAYER
10
53.53568298666064
20
55.44862826907095
30
0.0
 70
     32
  0
VERTEX
  8
MY3DLAYER
10
53.567165292240674
20
55.41464195331073
30
0.0
 70
     32
  0
VERTEX
  8
MY3DLAYER
10
53.59515959129017
20
55.391496958653434
30
0.0
 70
     32
  0
VERTEX
  8
MY3DLAYER
10
53.619453557605695
20
55.37951592633365
30
0.0
 70
     32
  0
VERTEX
  8
MY3DLAYER
10
53.656091187221
20
55.390336313644426
30
0.0
 70
     32
  0
VERTEX
  8
MY3DLAYER
10
53.66801019811388
20
55.41378301574405
30
0.0
 70
     32
  0
VERTEX
  8
MY3DLAYER
10
53.7371639194693
20
55.62023291009956
30
0.0
 70
     32
  0
VERTEX
  8
MY3DLAYER
10
53.81315834951318
20
55.837489400950325
30
0.0
 70
     32
  0
VERTEX
  8
MY3DLAYER
10
53.895682060085676
20
56.064905828898084
30
0.0
 70
     32
  0
VERTEX
  8
MY3DLAYER
10
53.98442362302663
20
56.301835534544786
30
0.0
 70
     32
  0
VERTEX
  8
MY3DLAYER
10
54.07907161017632
20
56.54763185849219
30
0.0
 70
     32
  0
VERTEX
  8
MY3DLAYER
10
54.17931459337463
20
56.80164814134205
30
0.0
 70
     32
  0
VERTEX
  8
MY3DLAYER
10
54.284841144461765
20
57.06323772369623
30
0.0
 70
     32
  0
VERTEX
  8
MY3DLAYER
10
54.395339835277724
20
57.331753946156546
30
0.0
 70
     32
  0
VERTEX
  8
MY3DLAYER
10
54.510499237662586
20
57.60655014932476
30
0.0
 70
     32
  0
VERTEX
  8
MY3DLAYER
10
54.63000792345631
20
57.886979673802735
30
0.0
 70
     32
  0
VERTEX
  8
MY3DLAYER
10
54.753554464499025
20
58.17239586019229
30
0.0
 70
     32
  0
VERTEX
  8
MY3DLAYER
10
54.880827432630795
20
58.4621520490952
30
0.0
 70
     32
  0
VERTEX
  8
MY3DLAYER
10
55.01151539969175
20
58.755601581113325
30
0.0
 70
     32
  0
VERTEX
  8
MY3DLAYER
10
55.14530693752177
20
59.05209779684838
30
0.0
 70
     32
  0
VERTEX
  8
MY3DLAYER
10
55.28189061796102
20
59.35099403690228
30
0.0
 70
     32
  0
VERTEX
  8
MY3DLAYER
10
55.42095501284955
20
59.651643641876774
30
0.0
 70
     32
  0
VERTEX
  8
MY3DLAYER
10
55.562188694027434
20
59.95339995237365
30
0.0
 70
     32
  0
VERTEX
  8
MY3DLAYER
10
55.70528023333465
20
60.25561630899483
30
0.0
 70
     32
  0
VERTEX
  8
MY3DLAYER
10
55.84991820261135
20
60.55764605234204
30
0.0
 70
     32
  0
VERTEX
  8
MY3DLAYER
10
55.99579117369759
20
60.858842523017096
30
0.0
 70
     32
  0
VERTEX
  8
MY3DLAYER
10
56.14258771843339
20
61.15855906162185
30
0.0
 70
     32
  0
VERTEX
  8
MY3DLAYER
10
56.28999640865873
20
61.4561490087581
30
0.0
 70
     32
  0
VERTEX
  8
MY3DLAYER
10
56.437705816213814
20
61.750965705027596
30
0.0
 70
     32
  0
VERTEX
  8
MY3DLAYER
10
56.5854045129386
20
62.04236249103225
30
0.0
 70
     32
  0
VERTEX
  8
MY3DLAYER
10
56.732781070673205
20
62.32969270737382
30
0.0
 70
     32
  0
VERTEX
  8
MY3DLAYER
10
56.87952406125762
20
62.612309694654144
30
0.0
 70
     32
  0
VERTEX
  8
MY3DLAYER
10
57.02532205653202
20
62.88956679347496
30
0.0
 70
     32
  0
VERTEX
  8
MY3DLAYER
10
57.169863628336266
20
63.16081734443814
30
0.0
 70
     32
  0
VERTEX
  8
MY3DLAYER
10
57.312837348510634
20
63.42541468814549
30
0.0
 70
     32
  0
VERTEX
  8
MY3DLAYER
10
57.45393178889499
20
63.68271216519885
30
0.0
 70
     32
  0
VERTEX
  8
MY3DLAYER
10
57.59283552132954
20
63.93206311619996
30
0.0
 70
     32
  0
VERTEX
  8
MY3DLAYER
10
57.72923711765427
20
64.17282088175071
30
0.0
 70
     32
  0
VERTEX
  8
MY3DLAYER
10
57.86282514970922
20
64.40433880245286
30
0.0
 70
     32
  0
VERTEX
  8
MY3DLAYER
10
57.9932881893345
20
64.62597021890822
30
0.0
 70
     32
  0
VERTEX
  8
MY3DLAYER
10
58.12031480837015
20
64.83706847171867
30
0.0
 70
     32
  0
VERTEX
  8
MY3DLAYER
10
58.2435935786562
20
65.0369869014859
30
0.0
 70
     32
  0
VERTEX
  8
MY3DLAYER
10
58.362813072032736
20
65.22507884881182
30
0.0
 70
     32
  0
VERTEX
  8
MY3DLAYER
10
58.47766186033981
20
65.40069765429821
30
0.0
 70
     32
  0
VERTEX
  8
MY3DLAYER
10
58.626371769681974
20
65.61869518593696
30
0.0
 70
     32
  0
VERTEX
  8
MY3DLAYER
10
58.78348537474641
20
65.83854618189793
30
0.0
 70
     32
  0
VERTEX
  8
MY3DLAYER
10
58.94839771869021
20
66.05967570065584
30
0.0
 70
     32
  0
VERTEX
  8
MY3DLAYER
10
59.12050384467049
20
66.28150880068549
30
0.0
 70
     32
  0
VERTEX
  8
MY3DLAYER
10
59.29919879584432
20
66.50347054046144
30
0.0
 70
     32
  0
VERTEX
  8
MY3DLAYER
10
59.483877615368876
20
66.72498597845853
30
0.0
 70
     32
  0
VERTEX
  8
MY3DLAYER
10
59.67393534640121
20
66.9454801731514
30
0.0
 70
     32
  0
VERTEX
  8
MY3DLAYER
10
59.86876703209844
20
67.16437818301482
30
0.0
 70
     32
  0
VERTEX
  8
MY3DLAYER
10
60.06776771561763
20
67.3811050665235
30
0.0
 70
     32
  0
VERTEX
  8
MY3DLAYER
10
60.27033244011594
20
67.59508588215215
30
0.0
 70
     32
  0
VERTEX
  8
MY3DLAYER
10
60.475856248750425
20
67.8057456883755
30
0.0
 70
     32
  0
VERTEX
  8
MY3DLAYER
10
60.68373418467822
20
68.0125095436682
30
0.0
 70
     32
  0
VERTEX
  8
MY3DLAYER
10
60.893361291056415
20
68.21480250650501
30
0.0
 70
     32
  0
VERTEX
  8
MY3DLAYER
10
61.10413261104221
20
68.41204963536065
30
0.0
 70
     32
  0
VERTEX
  8
MY3DLAYER
10
61.31544318779256
20
68.6036759887099
30
0.0
 70
     32
  0
VERTEX
  8
MY3DLAYER
10
61.52668806446469
20
68.78910662502737
30
0.0
 70
     32
  0
VERTEX
  8
MY3DLAYER
10
61.73726228421558
20
68.96776660278785
30
0.0
 70
     32
  0
VERTEX
  8
MY3DLAYER
10
61.94656089020244
20
69.139080980466
30
0.0
 70
     32
  0
VERTEX
  8
MY3DLAYER
10
62.153978925582315
20
69.30247481653655
30
0.0
 70
     32
  0
VERTEX
  8
MY3DLAYER
10
62.35891143351237
20
69.45737316947421
30
0.0
 70
     32
  0
VERTEX
  8
MY3DLAYER
10
62.56075345714971
20
69.60320109775381
30
0.0
 70
     32
  0
VERTEX
  8
MY3DLAYER
10
62.75890003965132
20
69.73938365984989
30
0.0
 70
     32
  0
VERTEX
  8
MY3DLAYER
10
62.95274622417443
20
69.8653459142373
30
0.0
 70
     32
  0
VERTEX
  8
MY3DLAYER
10
63.141687053876076
20
69.98051291939068
30
0.0
 70
     32
  0
VERTEX
  8
MY3DLAYER
10
63.32511757191344
20
70.08430973378479
30
0.0
 70
     32
  0
VERTEX
  8
MY3DLAYER
10
63.50243282144351
20
70.1761614158943
30
0.0
 70
     32
  0
VERTEX
  8
MY3DLAYER
10
63.679111709624834
20
70.26117837261009
30
0.0
 70
     32
  0
VERTEX
  8
MY3DLAYER
10
63.84622412771929
20
70.33735897746976
30
0.0
 70
     32
  0
VERTEX
  8
MY3DLAYER
10
64.00434141313683
20
70.4046796294716
30
0.0
 70
     32
  0
VERTEX
  8
MY3DLAYER
10
64.1540349032874
20
70.46311672761385
30
0.0
 70
     32
  0
VERTEX
  8
MY3DLAYER
10
64.29587593558081
20
70.51264667089474
30
0.0
 70
     32
  0
VERTEX
  8
MY3DLAYER
10
64.43043584742684
20
70.55324585831254
30
0.0
 70
     32
  0
VERTEX
  8
MY3DLAYER
10
64.55828597623547
20
70.58489068886547
30
0.0
 70
     32
  0
VERTEX
  8
MY3DLAYER
10
64.67999765941649
20
70.6075575615518
30
0.0
 70
     32
  0
VERTEX
  8
MY3DLAYER
10
64.79614223437977
20
70.62122287536978
30
0.0
 70
     32
  0
VERTEX
  8
MY3DLAYER
10
64.9072910385352
20
70.62586302931763
30
0.0
 70
     32
  0
VERTEX
  8
MY3DLAYER
10
65.01401540929267
20
70.62145442239365
30
0.0
 70
     32
  0
VERTEX
  8
MY3DLAYER
10
65.11688668406194
20
70.6079734535961
30
0.0
 70
     32
  0
VERTEX
  8
MY3DLAYER
10
65.21647620025294
20
70.58539652192316
30
0.0
 70
     32
  0
VERTEX
  8
MY3DLAYER
10
65.31335529527554
20
70.55370002637312
30
0.0
 70
     32
  0
VERTEX
  8
MY3DLAYER
10
65.40809530653964
20
70.51286036594428
30
0.0
 70
     32
  0
VERTEX
  8
MY3DLAYER
10
65.50126757145503
20
70.46285393963477
30
0.0
 70
     32
  0
VERTEX
  8
MY3DLAYER
10
65.59344342743154
20
70.40365714644297
30
0.0
 70
     32
  0
VERTEX
  8
MY3DLAYER
10
65.68519421187914
20
70.33524638536699
30
0.0
 70
     32
  0
VERTEX
  8
MY3DLAYER
10
65.7770912622076
20
70.25759805540521
30
0.0
 70
     32
  0
VERTEX
  8
MY3DLAYER
10
65.86970591582684
20
70.17068855555576
30
0.0
 70
     32
  0
VERTEX
  8
MY3DLAYER
10
65.96360951014671
20
70.07449428481699
30
0.0
 70
     32
  0
VERTEX
  8
MY3DLAYER
10
66.02160275503195
20
70.01109697748274
30
0.0
 70
     32
  0
VERTEX
  8
MY3DLAYER
10
66.07350215406069
20
69.95035519594842
30
0.0
 70
     32
  0
VERTEX
  8
MY3DLAYER
10
66.11952153964064
20
69.89129369320499
30
0.0
 70
     32
  0
VERTEX
  8
MY3DLAYER
10
66.1598747441792
20
69.83293722224316
30
0.0
 70
     32
  0
VERTEX
  8
MY3DLAYER
10
66.19477560008411
20
69.77431053605386
30
0.0
 70
     32
  0
VERTEX
  8
MY3DLAYER
10
66.22443793976288
20
69.71443838762792
30
0.0
 70
     32
  0
VERTEX
  8
MY3DLAYER
10
66.249075595623
20
69.65234552995618
30
0.0
 70
     32
  0
VERTEX
  8
MY3DLAYER
10
66.26890240007218
20
69.58705671602942
30
0.0
 70
     32
  0
VERTEX
  8
MY3DLAYER
10
66.2841321855179
20
69.51759669883857
30
0.0
 70
     32
  0
VERTEX
  8
MY3DLAYER
10
66.29497878436779
20
69.44299023137447
30
0.0
 70
     32
  0
VERTEX
  8
MY3DLAYER
10
66.30165602902936
20
69.36226206662788
30
0.0
 70
     32
  0
VERTEX
  8
MY3DLAYER
10
66.3043777519103
20
69.27443695758969
30
0.0
 70
     32
  0
VERTEX
  8
MY3DLAYER
10
66.30335778541802
20
69.17853965725078
30
0.0
 70
     32
  0
VERTEX
  8
MY3DLAYER
10
66.29880996196023
20
69.07359491860196
30
0.0
 70
     32
  0
VERTEX
  8
MY3DLAYER
10
66.29094811394448
20
68.95862749463406
30
0.0
 70
     32
  0
VERTEX
  8
MY3DLAYER
10
66.27998607377826
20
68.83266213833792
30
0.0
 70
     32
  0
VERTEX
  8
MY3DLAYER
10
66.26613767386928
20
68.69472360270439
30
0.0
 70
     32
  0
VERTEX
  8
MY3DLAYER
10
66.23186117727069
20
68.42754406413015
30
0.0
 70
     32
  0
VERTEX
  8
MY3DLAYER
10
66.18587075795244
20
68.16333520517674
30
0.0
 70
     32
  0
VERTEX
  8
MY3DLAYER
10
66.12844883567827
20
67.90273101720975
30
0.0
 70
     32
  0
VERTEX
  8
MY3DLAYER
10
66.05987783021156
20
67.64636549159466
30
0.0
 70
     32
  0
VERTEX
  8
MY3DLAYER
10
65.98044016131601
20
67.394872619697
30
0.0
 70
     32
  0
VERTEX
  8
MY3DLAYER
10
65.89041824875507
20
67.14888639288223
30
0.0
 70
     32
  0
VERTEX
  8
MY3DLAYER
10
65.79009451229228
20
66.90904080251588
30
0.0
 70
     32
  0
VERTEX
  8
MY3DLAYER
10
65.67975137169127
20
66.6759698399634
30
0.0
 70
     32
  0
VERTEX
  8
MY3DLAYER
10
65.55967124671552
20
66.45030749659038
30
0.0
 70
     32
  0
VERTEX
  8
MY3DLAYER
10
65.4301365571287
20
66.2326877637623
30
0.0
 70
     32
  0
VERTEX
  8
MY3DLAYER
10
65.29142972269423
20
66.02374463284464
30
0.0
 70
     32
  0
VERTEX
  8
MY3DLAYER
10
65.14383316317573
20
65.82411209520285
30
0.0
 70
     32
  0
VERTEX
  8
MY3DLAYER
10
64.98762929833678
20
65.63442414220255
30
0.0
 70
     32
  0
VERTEX
  8
MY3DLAYER
10
64.82310054794091
20
65.45531476520918
30
0.0
 70
     32
  0
VERTEX
  8
MY3DLAYER
10
64.62657513384336
20
65.24588077069919
30
0.0
 70
     32
  0
VERTEX
  8
MY3DLAYER
10
64.4301214733121
20
65.02241099621581
30
0.0
 70
     32
  0
VERTEX
  8
MY3DLAYER
10
64.23380125987858
20
64.78500450482427
30
0.0
 70
     32
  0
VERTEX
  8
MY3DLAYER
10
64.03767618707421
20
64.53376035958988
30
0.0
 70
     32
  0
VERTEX
  8
MY3DLAYER
10
63.84180794843043
20
64.26877762357802
30
0.0
 70
     32
  0
VERTEX
  8
MY3DLAYER
10
63.646258237478605
20
63.99015535985396
30
0.0
 70
     32
  0
VERTEX
  8
MY3DLAYER
10
63.45108874775025
20
63.69799263148302
30
0.0
 70
     32
  0
VERTEX
  8
MY3DLAYER
10
63.25636117277677
20
63.39238850153048
30
0.0
 70
     32
  0
VERTEX
  8
MY3DLAYER
10
63.06213720608956
20
63.07344203306169
30
0.0
 70
     32
  0
VERTEX
  8
MY3DLAYER
10
62.86847854122009
20
62.74125228914194
30
0.0
 70
     32
  0
VERTEX
  8
MY3DLAYER
10
62.67544687169973
20
62.39591833283653
30
0.0
 70
     32
  0
VERTEX
  8
MY3DLAYER
10
62.48310389105998
20
62.03753922721077
30
0.0
 70
     32
  0
VERTEX
  8
MY3DLAYER
10
62.29151129283229
20
61.66621403532994
30
0.0
 70
     32
  0
VERTEX
  8
MY3DLAYER
10
62.10073077054798
20
61.28204182025944
30
0.0
 70
     32
  0
VERTEX
  8
MY3DLAYER
10
61.91082401773856
20
60.88512164506447
30
0.0
 70
     32
  0
VERTEX
  8
MY3DLAYER
10
61.721852727935456
20
60.47555257281031
30
0.0
 70
     32
  0
VERTEX
  8
MY3DLAYER
10
61.63424851504656
20
60.28094895926808
30
0.0
 70
     32
  0
VERTEX
  8
MY3DLAYER
10
61.54637717362158
20
60.08317719858266
30
0.0
 70
     32
  0
VERTEX
  8
MY3DLAYER
10
61.458416082139664
20
59.882713217053436
30
0.0
 70
     32
  0
VERTEX
  8
MY3DLAYER
10
61.37054261908009
20
59.68003294097991
30
0.0
 70
     32
  0
VERTEX
  8
MY3DLAYER
10
61.28293416292198
20
59.4756122966615
30
0.0
 70
     32
  0
VERTEX
  8
MY3DLAYER
10
61.19576809214462
20
59.26992721039762
30
0.0
 70
     32
  0
VERTEX
  8
MY3DLAYER
10
61.10922178522716
20
59.063453608487734
30
0.0
 70
     32
  0
VERTEX
  8
MY3DLAYER
10
61.02347262064887
20
58.85666741723128
30
0.0
 70
     32
  0
VERTEX
  8
MY3DLAYER
10
60.938697976888875
20
58.65004456292772
30
0.0
 70
     32
  0
VERTEX
  8
MY3DLAYER
10
60.855075232426465
20
58.44406097187648
30
0.0
 70
     32
  0
VERTEX
  8
MY3DLAYER
10
60.772781765740795
20
58.239192570377014
30
0.0
 70
     32
  0
VERTEX
  8
MY3DLAYER
10
60.69199495531109
20
58.03591528472874
30
0.0
 70
     32
  0
VERTEX
  8
MY3DLAYER
10
60.612892179616544
20
57.83470504123108
30
0.0
 70
     32
  0
VERTEX
  8
MY3DLAYER
10
60.5356508171364
20
57.63603776618359
30
0.0
 70
     32
  0
VERTEX
  8
MY3DLAYER
10
60.46044824634981
20
57.440389385885524
30
0.0
 70
     32
  0
VERTEX
  8
MY3DLAYER
10
60.38746184573605
20
57.24823582663652
30
0.0
 70
     32
  0
VERTEX
  8
MY3DLAYER
10
60.31686899377427
20
57.060053014735885
30
0.0
 70
     32
  0
VERTEX
  8
MY3DLAYER
10
60.2488470689437
20
56.87631687648307
30
0.0
 70
     32
  0
VERTEX
  8
MY3DLAYER
10
60.18357344972355
20
56.69750333817762
30
0.0
 70
     32
  0
VERTEX
  8
MY3DLAYER
10
60.121225514593014
20
56.52408832611886
30
0.0
 70
     32
  0
VERTEX
  8
MY3DLAYER
10
60.061980642031315
20
56.35654776660623
30
0.0
 70
     32
  0
VERTEX
  8
MY3DLAYER
10
60.00601621051768
20
56.19535758593931
30
0.0
 70
     32
  0
VERTEX
  8
MY3DLAYER
10
59.95350959853124
20
56.040993710417375
30
0.0
 70
     32
  0
VERTEX
  8
MY3DLAYER
10
59.90463818455134
20
55.89393206634002
30
0.0
 70
     32
  0
VERTEX
  8
MY3DLAYER
10
59.85957934705703
20
55.754648580006496
30
0.0
 70
     32
  0
VERTEX
  8
MY3DLAYER
10
59.81851046452758
20
55.623619177716435
30
0.0
 70
     32
  0
VERTEX
  8
MY3DLAYER
10
59.78160891544222
20
55.50131978576919
30
0.0
 70
     32
  0
VERTEX
  8
MY3DLAYER
10
59.74905207828019
20
55.388226330464235
30
0.0
 70
     32
  0
VERTEX
  8
MY3DLAYER
10
59.72101733152059
20
55.284814738100934
30
0.0
 70
     32
  0
VERTEX
  8
MY3DLAYER
10
59.69768205364271
20
55.191560934978796
30
0.0
 70
     32
  0
VERTEX
  8
MY3DLAYER
10
59.679223623125736
20
55.10894084739724
30
0.0
 70
     32
  0
VERTEX
  8
MY3DLAYER
10
59.6658194184489
20
55.03743040165576
30
0.0
 70
     32
  0
VERTEX
  8
MY3DLAYER
10
59.657646818091365
20
54.977505524053704
30
0.0
 70
     32
  0
VERTEX
  8
MY3DLAYER
10
59.65977578628413
20
54.91349828611471
30
0.0
 70
     32
  0
VERTEX
  8
MY3DLAYER
10
59.69791406958012
20
54.90909147718206
30
0.0
 70
     32
  0
VERTEX
  8
MY3DLAYER
10
59.73049149864573
20
54.92030586758159
30
0.0
 70
     32
  0
VERTEX
  8
MY3DLAYER
10
59.77162894033736
20
54.94011701759583
30
0.0
 70
     32
  0
VERTEX
  8
MY3DLAYER
10
59.82099226041573
20
54.96826359950282
30
0.0
 70
     32
  0
VERTEX
  8
MY3DLAYER
10
59.8782473246414
20
55.00448428558078
30
0.0
 70
     32
  0
VERTEX
  8
MY3DLAYER
10
59.943059998775134
20
55.04851774810786
30
0.0
 70
     32
  0
VERTEX
  8
MY3DLAYER
10
60.01509614857759
20
55.10010265936209
30
0.0
 70
     32
  0
VERTEX
  8
MY3DLAYER
10
60.0940216398095
20
55.1589776916216
30
0.0
 70
     32
  0
VERTEX
  8
MY3DLAYER
10
60.17950233823149
20
55.224881517164484
30
0.0
 70
     32
  0
VERTEX
  8
MY3DLAYER
10
60.27120410960429
20
55.29755280826891
30
0.0
 70
     32
  0
VERTEX
  8
MY3DLAYER
10
60.368792819688544
20
55.37673023721301
30
0.0
 70
     32
  0
VERTEX
  8
MY3DLAYER
10
60.47193433424492
20
55.46215247627483
30
0.0
 70
     32
  0
VERTEX
  8
MY3DLAYER
10
60.58029451903418
20
55.553558197732556
30
0.0
 70
     32
  0
VERTEX
  8
MY3DLAYER
10
60.69353923981692
20
55.650686073864264
30
0.0
 70
     32
  0
VERTEX
  8
MY3DLAYER
10
60.81133436235392
20
55.753274776948096
30
0.0
 70
     32
  0
VERTEX
  8
MY3DLAYER
10
60.933345752405785
20
55.8610629792621
30
0.0
 70
     32
  0
VERTEX
  8
MY3DLAYER
10
61.05923927573323
20
55.97378935308451
30
0.0
 70
     32
  0
VERTEX
  8
MY3DLAYER
10
61.18868079809691
20
56.09119257069336
30
0.0
 70
     32
  0
VERTEX
  8
MY3DLAYER
10
61.32133618525754
20
56.21301130436682
30
0.0
 70
     32
  0
VERTEX
  8
MY3DLAYER
10
61.45687130297586
20
56.33898422638295
30
0.0
 70
     32
  0
VERTEX
  8
MY3DLAYER
10
61.784692717361494
20
56.64259901403525
30
0.0
 70
     32
  0
VERTEX
  8
MY3DLAYER
10
62.1243744736277
20
56.95156329076615
30
0.0
 70
     32
  0
VERTEX
  8
MY3DLAYER
10
62.47557190757104
20
57.26560741563874
30
0.0
 70
     32
  0
VERTEX
  8
MY3DLAYER
10
62.83794035498807
20
57.58446174771621
30
0.0
 70
     32
  0
VERTEX
  8
MY3DLAYER
10
63.21113515167541
20
57.90785664606183
30
0.0
 70
     32
  0
VERTEX
  8
MY3DLAYER
10
63.59481163342961
20
58.23552246973867
30
0.0
 70
     32
  0
VERTEX
  8
MY3DLAYER
10
63.98862513604734
20
58.56718957780993
30
0.0
 70
     32
  0
VERTEX
  8
MY3DLAYER
10
64.39223099532504
20
58.9025883293388
30
0.0
 70
     32
  0
VERTEX
  8
MY3DLAYER
10
64.80528454705946
20
59.24144908338846
30
0.0
 70
     32
  0
VERTEX
  8
MY3DLAYER
10
65.22744112704704
20
59.58350219902207
30
0.0
 70
     32
  0
VERTEX
  8
MY3DLAYER
10
65.65835607108447
20
59.92847803530285
30
0.0
 70
     32
  0
VERTEX
  8
MY3DLAYER
10
66.09768471496834
20
60.276106951293954
30
0.0
 70
     32
  0
VERTEX
  8
MY3DLAYER
10
66.54508239449515
20
60.62611930605852
30
0.0
 70
     32
  0
VERTEX
  8
MY3DLAYER
10
67.0002044454615
20
60.9782454586598
30
0.0
 70
     32
  0
VERTEX
  8
MY3DLAYER
10
67.46270620366408
20
61.33221576816092
30
0.0
 70
     32
  0
VERTEX
  8
MY3DLAYER
10
67.93224300489936
20
61.687760593625015
30
0.0
 70
     32
  0
VERTEX
  8
MY3DLAYER
10
68.40847018496399
20
62.044610294115365
30
0.0
 70
     32
  0
VERTEX
  8
MY3DLAYER
10
68.89104307965454
20
62.402495228695074
30
0.0
 70
     32
  0
VERTEX
  8
MY3DLAYER
10
69.3796170247676
20
62.76114575642738
30
0.0
 70
     32
  0
VERTEX
  8
MY3DLAYER
10
69.87384735609973
20
63.120292236375384
30
0.0
 70
     32
  0
VERTEX
  8
MY3DLAYER
10
70.3733894094475
20
63.4796650276023
30
0.0
 70
     32
  0
VERTEX
  8
MY3DLAYER
10
70.87789852060763
20
63.838994489171284
30
0.0
 70
     32
  0
VERTEX
  8
MY3DLAYER
10
71.38703002537646
20
64.19801098014563
30
0.0
 70
     32
  0
VERTEX
  8
MY3DLAYER
10
71.90043925955084
20
64.55644485958832
30
0.0
 70
     32
  0
VERTEX
  8
MY3DLAYER
10
72.41778155892723
20
64.91402648656265
30
0.0
 70
     32
  0
VERTEX
  8
MY3DLAYER
10
72.6293189883152
20
65.05951540244465
30
0.0
 70
     32
  0
VERTEX
  8
MY3DLAYER
10
72.83987912372241
20
65.20434817792683
30
0.0
 70
     32
  0
VERTEX
  8
MY3DLAYER
10
73.04911196514882
20
65.34828368207853
30
0.0
 70
     32
  0
VERTEX
  8
MY3DLAYER
10
73.2566675125945
20
65.49108078396895
30
0.0
 70
     32
  0
VERTEX
  8
MY3DLAYER
10
73.46219576605932
20
65.63249835266738
30
0.0
 70
     32
  0
VERTEX
  8
MY3DLAYER
10
73.66534672554344
20
65.77229525724307
30
0.0
 70
     32
  0
VERTEX
  8
MY3DLAYER
10
73.86577039104678
20
65.91023036676529
30
0.0
 70
     32
  0
VERTEX
  8
MY3DLAYER
10
74.06311676256931
20
66.0460625503033
30
0.0
 70
     32
  0
VERTEX
  8
MY3DLAYER
10
74.25703584011106
20
66.17955067692637
30
0.0
 70
     32
  0
VERTEX
  8
MY3DLAYER
10
74.44717762367199
20
66.3104536157037
30
0.0
 70
     32
  0
VERTEX
  8
MY3DLAYER
10
74.63319211325219
20
66.43853023570468
30
0.0
 70
     32
  0
VERTEX
  8
MY3DLAYER
10
74.81472930885154
20
66.56353940599845
30
0.0
 70
     32
  0
VERTEX
  8
MY3DLAYER
10
74.99143921047016
20
66.68523999565441
30
0.0
 70
     32
  0
VERTEX
  8
MY3DLAYER
10
75.16297181810803
20
66.80339087374166
30
0.0
 70
     32
  0
VERTEX
  8
MY3DLAYER
10
75.32897713176509
20
66.91775090932958
30
0.0
 70
     32
  0
VERTEX
  8
MY3DLAYER
10
75.48910515144135
20
67.02807897148736
30
0.0
 70
     32
  0
VERTEX
  8
MY3DLAYER
10
75.64300587713686
20
67.13413392928435
30
0.0
 70
     32
  0
VERTEX
  8
MY3DLAYER
10
75.79032930885157
20
67.23567465178971
30
0.0
 70
     32
  0
VERTEX
  8
MY3DLAYER
10
75.93072544658548
20
67.33246000807279
30
0.0
 70
     32
  0
VERTEX
  8
MY3DLAYER
10
76.06384429033866
20
67.42424886720279
30
0.0
 70
     32
  0
VERTEX
  8
MY3DLAYER
10
76.18933584011101
20
67.510800098249
30
0.0
 70
     32
  0
VERTEX
  8
MY3DLAYER
10
76.30685009590263
20
67.59187257028073
30
0.0
 70
     32
  0
VERTEX
  8
MY3DLAYER
10
76.41603705771344
20
67.66722515236717
30
0.0
 70
     32
  0
VERTEX
  8
MY3DLAYER
10
76.51654672554348
20
67.73661671357759
30
0.0
 70
     32
  0
VERTEX
  8
MY3DLAYER
10
76.60802909939271
20
67.79980612298127
30
0.0
 70
     32
  0
VERTEX
  8
MY3DLAYER
10
76.69013417926118
20
67.85655224964754
30
0.0
 70
     32
  0
VERTEX
  8
MY3DLAYER
10
76.76251196514892
20
67.90661396264558
30
0.0
 70
     32
  0
VERTEX
  8
MY3DLAYER
10
76.82481245705577
20
67.94975013104462
30
0.0
 70
     32
  0
VERTEX
  8
MY3DLAYER
10
76.8766856549819
20
67.985719623914
30
0.0
 70
     32
  0
VERTEX
  8
MY3DLAYER
10
76.91778155892727
20
68.01428131032304
30
0.0
 70
     32
  0
VERTEX
  8
MY3DLAYER
10
77.5053919923963
20
68.42243225929572
30
0.0
 70
     32
  0
VERTEX
  8
MY3DLAYER
10
78.08251812920217
20
68.82140332387999
30
0.0
 70
     32
  0
VERTEX
  8
MY3DLAYER
10
78.6493300790971
20
69.21128404267176
30
0.0
 70
     32
  0
VERTEX
  8
MY3DLAYER
10
79.20599795183375
20
69.5921639542667
30
0.0
 70
     32
  0
VERTEX
  8
MY3DLAYER
10
79.75269185716455
20
69.96413259726059
30
0.0
 70
     32
  0
VERTEX
  8
MY3DLAYER
10
80.28958190484191
20
70.32727951024931
30
0.0
 70
     32
  0
VERTEX
  8
MY3DLAYER
10
80.8168382046184
20
70.68169423182862
30
0.0
 70
     32
  0
VERTEX
  8
MY3DLAYER
10
81.33463086624648
20
71.02746630059428
30
0.0
 70
     32
  0
VERTEX
  8
MY3DLAYER
10
81.84312999947862
20
71.36468525514205
30
0.0
 70
     32
  0
VERTEX
  8
MY3DLAYER
10
82.34250571406724
20
71.69344063406773
30
0.0
 70
     32
  0
VERTEX
  8
MY3DLAYER
10
82.8329281197649
20
72.01382197596719
30
0.0
 70
     32
  0
VERTEX
  8
MY3DLAYER
10
83.31456732632404
20
72.32591881943608
30
0.0
 70
     32
  0
VERTEX
  8
MY3DLAYER
10
83.78759344349706
20
72.62982070307027
30
0.0
 70
     32
  0
VERTEX
  8
MY3DLAYER
10
84.25217658103662
20
72.92561716546557
30
0.0
 70
     32
  0
VERTEX
  8
MY3DLAYER
10
84.70848684869509
20
73.21339774521773
30
0.0
 70
     32
  0
VERTEX
  8
MY3DLAYER
10
85.156694356225
20
73.49325198092254
30
0.0
 70
     32
  0
VERTEX
  8
MY3DLAYER
10
85.59696921337871
20
73.76526941117571
30
0.0
 70
     32
  0
VERTEX
  8
MY3DLAYER
10
86.02948152990878
20
74.02953957457319
30
0.0
 70
     32
  0
VERTEX
  8
MY3DLAYER
10
86.45440141556766
20
74.28615200971065
30
0.0
 70
     32
  0
VERTEX
  8
MY3DLAYER
10
86.87189898010791
20
74.5351962551839
30
0.0
 70
     32
  0
VERTEX
  8
MY3DLAYER
10
87.28214433328193
20
74.77676184958867
30
0.0
 70
     32
  0
VERTEX
  8
MY3DLAYER
10
87.68530758484228
20
75.01093833152083
30
0.0
 70
     32
  0
VERTEX
  8
MY3DLAYER
10
88.08155884454125
20
75.23781523957618
30
0.0
 70
     32
  0
VERTEX
  8
MY3DLAYER
10
88.47106822213154
20
75.4574821123504
30
0.0
 70
     32
  0
VERTEX
  8
MY3DLAYER
10
88.85400582736543
20
75.67002848843946
30
0.0
 70
     32
  0
VERTEX
  8
MY3DLAYER
10
89.2305417699956
20
75.87554390643898
30
0.0
 70
     32
  0
VERTEX
  8
MY3DLAYER
10
89.60084615977442
20
76.07411790494479
30
0.0
 70
     32
  0
VERTEX
  8
MY3DLAYER
10
89.96508910645429
20
76.26584002255272
30
0.0
 70
     32
  0
VERTEX
  8
MY3DLAYER
10
90.32344071978792
20
76.45079979785848
30
0.0
 70
     32
  0
VERTEX
  8
MY3DLAYER
10
90.67607110952753
20
76.62908676945791
30
0.0
 70
     32
  0
VERTEX
  8
MY3DLAYER
10
91.02315038542571
20
76.80079047594677
30
0.0
 70
     32
  0
VERTEX
  8
MY3DLAYER
10
91.36484865723497
20
76.96600045592089
30
0.0
 70
     32
  0
VERTEX
  8
MY3DLAYER
10
91.70133603470778
20
77.12480624797597
30
0.0
 70
     32
  0
VERTEX
  8
MY3DLAYER
10
92.0327826275965
20
77.27729739070782
30
0.0
 70
     32
  0
VERTEX
  8
MY3DLAYER
10
92.35935854565378
20
77.42356342271242
30
0.0
 70
     32
  0
VERTEX
  8
MY3DLAYER
10
92.68123389863203
20
77.5636938825853
30
0.0
 70
     32
  0
VERTEX
  8
MY3DLAYER
10
92.99857879628371
20
77.69777830892232
30
0.0
 70
     32
  0
VERTEX
  8
MY3DLAYER
10
93.31156334836133
20
77.82590624031933
30
0.0
 70
     32
  0
VERTEX
  8
MY3DLAYER
10
93.62035766461734
20
77.94816721537207
30
0.0
 70
     32
  0
VERTEX
  8
MY3DLAYER
10
93.9251318548042
20
78.06465077267634
30
0.0
 70
     32
  0
VERTEX
  8
MY3DLAYER
10
94.22605602867439
20
78.17544645082792
30
0.0
 70
     32
  0
VERTEX
  8
MY3DLAYER
10
94.52330029598046
20
78.28064378842255
30
0.0
 70
     32
  0
VERTEX
  8
MY3DLAYER
10
94.81703476647479
20
78.38033232405611
30
0.0
 70
     32
  0
VERTEX
  8
MY3DLAYER
10
95.10742954990994
20
78.47460159632435
30
0.0
 70
     32
  0
VERTEX
  8
MY3DLAYER
10
95.39465475603835
20
78.56354114382297
30
0.0
 70
     32
  0
VERTEX
  8
MY3DLAYER
10
95.6788804946125
20
78.64724050514785
30
0.0
 70
     32
  0
VERTEX
  8
MY3DLAYER
10
95.96027687538485
20
78.7257892188949
30
0.0
 70
     32
  0
VERTEX
  8
MY3DLAYER
10
96.23901400810793
20
78.79927682365961
30
0.0
 70
     32
  0
VERTEX
  8
MY3DLAYER
10
96.51526200253421
20
78.86779285803799
30
0.0
 70
     32
  0
VERTEX
  8
MY3DLAYER
10
96.78919096841614
20
78.93142686062575
30
0.0
 70
     32
  0
VERTEX
  8
MY3DLAYER
10
97.06097101550615
20
78.9902683700187
30
0.0
 70
     32
  0
VERTEX
  8
MY3DLAYER
10
97.3307722535568
20
79.04440692481252
30
0.0
 70
     32
  0
VERTEX
  8
MY3DLAYER
10
97.5987647923205
20
79.09393206360319
30
0.0
 70
     32
  0
VERTEX
  8
MY3DLAYER
10
97.86511874154985
20
79.13893332498628
30
0.0
 70
     32
  0
VERTEX
  8
MY3DLAYER
10
98.13000421099721
20
79.17950024755778
30
0.0
 70
     32
  0
VERTEX
  8
MY3DLAYER
10
98.45706536551752
20
79.22320500797025
30
0.0
 70
     32
  0
VERTEX
  8
MY3DLAYER
10
98.77370888921267
20
79.25769737537951
30
0.0
 70
     32
  0
VERTEX
  8
MY3DLAYER
10
99.080474370404
20
79.28292231733255
30
0.0
 70
     32
  0
VERTEX
  8
MY3DLAYER
10
99.37790139741271
20
79.29882480137645
30
0.0
 70
     32
  0
VERTEX
  8
MY3DLAYER
10
99.66652955856001
20
79.3053497950583
30
0.0
 70
     32
  0
VERTEX
  8
MY3DLAYER
10
99.94689844216725
20
79.30244226592511
30
0.0
 70
     32
  0
VERTEX
  8
MY3DLAYER
10
100.21954763655548
20
79.29004718152385
30
0.0
 70
     32
  0
VERTEX
  8
MY3DLAYER
10
100.48501673004608
20
79.2681095094017
30
0.0
 70
     32
  0
VERTEX
  8
MY3DLAYER
10
100.74384531096027
20
79.2365742171056
30
0.0
 70
     32
  0
VERTEX
  8
MY3DLAYER
10
100.99657296761914
20
79.19538627218262
30
0.0
 70
     32
  0
VERTEX
  8
MY3DLAYER
10
101.2437392883441
20
79.14449064217987
30
0.0
 70
     32
  0
VERTEX
  8
MY3DLAYER
10
101.48588386145634
20
79.08383229464431
30
0.0
 70
     32
  0
VERTEX
  8
MY3DLAYER
10
101.72354627527685
20
79.01335619712302
30
0.0
 70
     32
  0
VERTEX
  8
MY3DLAYER
10
101.95726611812725
20
78.93300731716299
30
0.0
 70
     32
  0
VERTEX
  8
MY3DLAYER
10
102.18758297832862
20
78.84273062231132
30
0.0
 70
     32
  0
VERTEX
  8
MY3DLAYER
10
102.4150364442021
20
78.7424710801151
30
0.0
 70
     32
  0
VERTEX
  8
MY3DLAYER
10
102.65146969104862
20
78.62612978858748
30
0.0
 70
     32
  0
VERTEX
  8
MY3DLAYER
10
102.8789035864124
20
78.50129902275742
30
0.0
 70
     32
  0
VERTEX
  8
MY3DLAYER
10
103.09738928597075
20
78.36786984336828
30
0.0
 70
     32
  0
VERTEX
  8
MY3DLAYER
10
103.30697794540096
20
78.2257333111636
30
0.0
 70
     32
  0
VERTEX
  8
MY3DLAYER
10
103.50772072038039
20
78.07478048688698
30
0.0
 70
     32
  0
VERTEX
  8
MY3DLAYER
10
103.69966876658653
20
77.91490243128179
30
0.0
 70
     32
  0
VERTEX
  8
MY3DLAYER
10
103.88287323969662
20
77.74599020509166
30
0.0
 70
     32
  0
VERTEX
  8
MY3DLAYER
10
104.05738529538809
20
77.56793486905994
30
0.0
 70
     32
  0
VERTEX
  8
MY3DLAYER
10
104.22325608933832
20
77.38062748393027
30
0.0
 70
     32
  0
VERTEX
  8
MY3DLAYER
10
104.3805367772245
20
77.18395911044607
30
0.0
 70
     32
  0
VERTEX
  8
MY3DLAYER
10
104.52927851472418
20
76.97782080935087
30
0.0
 70
     32
  0
VERTEX
  8
MY3DLAYER
10
104.66953245751463
20
76.76210364138811
30
0.0
 70
     32
  0
VERTEX
  8
MY3DLAYER
10
104.80134976127331
20
76.5366986673014
30
0.0
 70
     32
  0
VERTEX
  8
MY3DLAYER
10
104.92478158167731
20
76.30149694783415
30
0.0
 70
     32
  0
VERTEX
  8
MY3DLAYER
10
105.03987907440435
20
76.05638954372986
30
0.0
 70
     32
  0
VERTEX
  8
MY3DLAYER
10
105.1466933951315
20
75.8012675157321
30
0.0
 70
     32
  0
VERTEX
  8
MY3DLAYER
10
105.24527569953632
20
75.53602192458433
30
0.0
 70
     32
  0
VERTEX
  8
MY3DLAYER
10
105.335677143296
20
75.26054383103005
30
0.0
 70
     32
  0
VERTEX
  8
MY3DLAYER
10
105.417948882088
20
74.97472429581272
30
0.0
 70
     32
  0
VERTEX
  8
MY3DLAYER
10
105.49214207158974
20
74.67845437967594
30
0.0
 70
     32
  0
VERTEX
  8
MY3DLAYER
10
105.55830786747846
20
74.37162514336309
30
0.0
 70
     32
  0
VERTEX
  8
MY3DLAYER
10
105.61649742543153
20
74.05412764761778
30
0.0
 70
     32
  0
VERTEX
  8
MY3DLAYER
10
105.66676190112638
20
73.72585295318342
30
0.0
 70
     32
  0
VERTEX
  8
MY3DLAYER
10
105.70915245024027
20
73.38669212080354
30
0.0
 70
     32
  0
VERTEX
  8
MY3DLAYER
10
105.74372022845064
20
73.03653621122164
30
0.0
 70
     32
  0
VERTEX
  8
MY3DLAYER
10
105.7705163914349
20
72.6752762851813
30
0.0
 70
     32
  0
VERTEX
  8
MY3DLAYER
10
105.78959209487023
20
72.30280340342586
30
0.0
 70
     32
  0
VERTEX
  8
MY3DLAYER
10
105.80099849443417
20
71.91900862669897
30
0.0
 70
     32
  0
VERTEX
  8
MY3DLAYER
10
105.80478674580402
20
71.52378301574409
30
0.0
 70
     32
  0
VERTEX
  8
MY3DLAYER
10
105.80407837932032
20
71.28948288093729
30
0.0
 70
     32
  0
VERTEX
  8
MY3DLAYER
10
105.80180987484427
20
71.06492344717935
30
0.0
 70
     32
  0
VERTEX
  8
MY3DLAYER
10
105.79775937147797
20
70.84948755719277
30
0.0
 70
     32
  0
VERTEX
  8
MY3DLAYER
10
105.79170500832367
20
70.64255805369987
30
0.0
 70
     32
  0
VERTEX
  8
MY3DLAYER
10
105.78342492448343
20
70.443517779423
30
0.0
 70
     32
  0
VERTEX
  8
MY3DLAYER
10
105.7726972590595
20
70.25174957708467
30
0.0
 70
     32
  0
VERTEX
  8
MY3DLAYER
10
105.75930015115412
20
70.06663628940723
30
0.0
 70
     32
  0
VERTEX
  8
MY3DLAYER
10
105.74301173986925
20
69.88756075911307
30
0.0
 70
     32
  0
VERTEX
  8
MY3DLAYER
10
105.7236101643073
20
69.71390582892455
30
0.0
 70
     32
  0
VERTEX
  8
MY3DLAYER
10
105.70087356357031
20
69.54505434156417
30
0.0
 70
     32
  0
VERTEX
  8
MY3DLAYER
10
105.6745800767606
20
69.38038913975426
30
0.0
 70
     32
  0
VERTEX
  8
MY3DLAYER
10
105.64450784298018
20
69.21929306621723
30
0.0
 70
     32
  0
VERTEX
  8
MY3DLAYER
10
105.61043500133137
20
69.06114896367546
30
0.0
 70
     32
  0
VERTEX
  8
MY3DLAYER
10
105.57213969091626
20
68.90533967485139
30
0.0
 70
     32
  0
VERTEX
  8
MY3DLAYER
10
105.52940005083703
20
68.75124804246738
30
0.0
 70
     32
  0
VERTEX
  8
MY3DLAYER
10
105.48199422019587
20
68.59825690924585
30
0.0
 70
     32
  0
VERTEX
  8
MY3DLAYER
10
105.42970033809495
20
68.4457491179092
30
0.0
 70
     32
  0
VERTEX
  8
MY3DLAYER
10
105.37229654363658
20
68.29310751117984
30
0.0
 70
     32
  0
VERTEX
  8
MY3DLAYER
10
105.3095609759228
20
68.1397149317801
30
0.0
 70
     32
  0
VERTEX
  8
MY3DLAYER
10
105.24127177405573
20
67.98495422243244
30
0.0
 70
     32
  0
VERTEX
  8
MY3DLAYER
10
105.16720707713775
20
67.82820822585927
30
0.0
 70
     32
  0
VERTEX
  8
MY3DLAYER
10
105.08714502427084
20
67.66885978478298
30
0.0
 70
     32
  0
VERTEX
  8
MY3DLAYER
10
105.00086375455724
20
67.50629174192593
30
0.0
 70
     32
  0
VERTEX
  8
MY3DLAYER
10
104.90814140709921
20
67.33988694001057
30
0.0
 70
     32
  0
VERTEX
  8
MY3DLAYER
10
104.80875612099886
20
67.1690282217592
30
0.0
 70
     32
  0
VERTEX
  8
MY3DLAYER
10
104.70248603535842
20
66.99309842989435
30
0.0
 70
     32
  0
VERTEX
  8
MY3DLAYER
10
104.58910928927997
20
66.81148040713838
30
0.0
 70
     32
  0
VERTEX
  8
MY3DLAYER
10
104.46840402186587
20
66.62355699621362
30
0.0
 70
     32
  0
VERTEX
  8
MY3DLAYER
10
104.34014837221801
20
66.42871103984251
30
0.0
 70
     32
  0
VERTEX
  8
MY3DLAYER
10
104.2041204794388
20
66.22632538074748
30
0.0
 70
     32
  0
VERTEX
  8
MY3DLAYER
10
104.06009848263034
20
66.01578286165092
30
0.0
 70
     32
  0
VERTEX
  8
MY3DLAYER
10
103.90786052089496
20
65.79646632527522
30
0.0
 70
     32
  0
VERTEX
  8
MY3DLAYER
10
103.74718473333452
20
65.56775861434268
30
0.0
 70
     32
  0
VERTEX
  8
MY3DLAYER
10
103.57784925905146
20
65.32904257157587
30
0.0
 70
     32
  0
VERTEX
  8
MY3DLAYER
10
102.153670402432
20
63.32952832032337
30
0.0
 70
     32
  0
VERTEX
  8
MY3DLAYER
10
102.45873983439245
20
61.756655668033716
30
0.0
 70
     32
  0
VERTEX
  8
MY3DLAYER
10
102.48404628523876
20
61.62223854268945
30
0.0
 70
     32
  0
VERTEX
  8
MY3DLAYER
10
102.50800986915979
20
61.48661364763976
30
0.0
 70
     32
  0
VERTEX
  8
MY3DLAYER
10
102.5306570366644
20
61.34927510832001
30
0.0
 70
     32
  0
VERTEX
  8
MY3DLAYER
10
102.55201423826108
20
61.209717050165644
30
0.0
 70
     32
  0
VERTEX
  8
MY3DLAYER
10
102.57210792445834
20
61.06743359861209
30
0.0
 70
     32
  0
VERTEX
  8
MY3DLAYER
10
102.59096454576493
20
60.9219188790948
30
0.0
 70
     32
  0
VERTEX
  8
MY3DLAYER
10
102.60861055268947
20
60.77266701704916
30
0.0
 70
     32
  0
VERTEX
  8
MY3DLAYER
10
102.62507239574042
20
60.61917213791062
30
0.0
 70
     32
  0
VERTEX
  8
MY3DLAYER
10
102.6403765254265
20
60.46092836711458
30
0.0
 70
     32
  0
VERTEX
  8
MY3DLAYER
10
102.65454939225633
20
60.29742983009651
30
0.0
 70
     32
  0
VERTEX
  8
MY3DLAYER
10
102.66761744673838
20
60.12817065229181
30
0.0
 70
     32
  0
VERTEX
  8
MY3DLAYER
10
102.67960713938128
20
59.95264495913591
30
0.0
 70
     32
  0
VERTEX
  8
MY3DLAYER
10
102.69054492069382
20
59.77034687606425
30
0.0
 70
     32
  0
VERTEX
  8
MY3DLAYER
10
102.70045724118441
20
59.580770528512254
30
0.0
 70
     32
  0
VERTEX
  8
MY3DLAYER
10
102.70937055136169
20
59.38341004191532
30
0.0
 70
     32
  0
VERTEX
  8
MY3DLAYER
10
102.71731130173433
20
59.17775954170889
30
0.0
 70
     32
  0
VERTEX
  8
MY3DLAYER
10
102.72430594281089
20
58.9633131533284
30
0.0
 70
     32
  0
VERTEX
  8
MY3DLAYER
10
102.73038092510002
20
58.7395650022093
30
0.0
 70
     32
  0
VERTEX
  8
MY3DLAYER
10
102.73556269911019
20
58.50600921378698
30
0.0
 70
     32
  0
VERTEX
  8
MY3DLAYER
10
102.73987771535015
20
58.26213991349685
30
0.0
 70
     32
  0
VERTEX
  8
MY3DLAYER
10
102.74335242432852
20
58.0074512267744
30
0.0
 70
     32
  0
VERTEX
  8
MY3DLAYER
10
102.74601327655387
20
57.74143727905499
30
0.0
 70
     32
  0
VERTEX
  8
MY3DLAYER
10
102.74788672253457
20
57.46359219577409
30
0.0
 70
     32
  0
VERTEX
  8
MY3DLAYER
10
102.74899921277958
20
57.17341010236712
30
0.0
 70
     32
  0
VERTEX
  8
MY3DLAYER
10
102.74937719779729
20
56.87038512426953
30
0.0
 70
     32
  0
VERTEX
  8
MY3DLAYER
10
102.74904712809644
20
56.55401138691669
30
0.0
 70
     32
  0
VERTEX
  8
MY3DLAYER
10
102.74803545418546
20
56.223783015744054
30
0.0
 70
     32
  0
VERTEX
  8
MY3DLAYER
10
102.74664053136489
20
55.919504108198886
30
0.0
 70
     32
  0
VERTEX
  8
MY3DLAYER
10
102.7449012844236
20
55.62835516428421
30
0.0
 70
     32
  0
VERTEX
  8
MY3DLAYER
10
102.74276879689151
20
55.34966876888864
30
0.0
 70
     32
  0
VERTEX
  8
MY3DLAYER
10
102.74019415229836
20
55.082777506900754
30
0.0
 70
     32
  0
VERTEX
  8
MY3DLAYER
10
102.7371284341742
20
54.827013963209076
30
0.0
 70
     32
  0
VERTEX
  8
MY3DLAYER
10
102.73352272604883
20
54.58171072270222
30
0.0
 70
     32
  0
VERTEX
  8
MY3DLAYER
10
102.72932811145212
20
54.34620037026881
30
0.0
 70
     32
  0
VERTEX
  8
MY3DLAYER
10
102.72449567391395
20
54.11981549079738
30
0.0
 70
     32
  0
VERTEX
  8
MY3DLAYER
10
102.7189764969642
20
53.90188866917644
30
0.0
 70
     32
  0
VERTEX
  8
MY3DLAYER
10
102.71272166413272
20
53.69175249029468
30
0.0
 70
     32
  0
VERTEX
  8
MY3DLAYER
10
102.70568225894937
20
53.48873953904066
30
0.0
 70
     32
  0
VERTEX
  8
MY3DLAYER
10
102.6978093649441
20
53.292182400302885
30
0.0
 70
     32
  0
VERTEX
  8
MY3DLAYER
10
102.68905406564667
20
53.10141365896998
30
0.0
 70
     32
  0
VERTEX
  8
MY3DLAYER
10
102.67936744458703
20
52.91576589993053
30
0.0
 70
     32
  0
VERTEX
  8
MY3DLAYER
10
102.66870058529513
20
52.734571708073105
30
0.0
 70
     32
  0
VERTEX
  8
MY3DLAYER
10
102.6570045713007
20
52.55716366828625
30
0.0
 70
     32
  0
VERTEX
  8
MY3DLAYER
10
102.64423048613368
20
52.38287436545864
30
0.0
 70
     32
  0
VERTEX
  8
MY3DLAYER
10
102.63032941332389
20
52.21103638447875
30
0.0
 70
     32
  0
VERTEX
  8
MY3DLAYER
10
102.61525243640126
20
52.040982310235215
30
0.0
 70
     32
  0
VERTEX
  8
MY3DLAYER
10
102.59895063889566
20
51.872044727616526
30
0.0
 70
     32
  0
VERTEX
  8
MY3DLAYER
10
102.58137510433698
20
51.70355622151136
30
0.0
 70
     32
  0
VERTEX
  8
MY3DLAYER
10
102.56247691625506
20
51.53484937680829
30
0.0
 70
     32
  0
VERTEX
  8
MY3DLAYER
10
102.5422071581798
20
51.36525677839585
30
0.0
 70
     32
  0
VERTEX
  8
MY3DLAYER
10
102.52051691364113
20
51.194111011162654
30
0.0
 70
     32
  0
VERTEX
  8
MY3DLAYER
10
102.4973572661687
20
51.02074465999721
30
0.0
 70
     32
  0
VERTEX
  8
MY3DLAYER
10
102.47267929929257
20
50.84449030978817
30
0.0
 70
     32
  0
VERTEX
  8
MY3DLAYER
10
102.44643409654275
20
50.66468054542412
30
0.0
 70
     32
  0
VERTEX
  8
MY3DLAYER
10
102.41857274144871
20
50.4806479517936
30
0.0
 70
     32
  0
VERTEX
  8
MY3DLAYER
10
102.38904631754065
20
50.2917251137852
30
0.0
 70
     32
  0
VERTEX
  8
MY3DLAYER
10
102.35780590834835
20
50.097244616287426
30
0.0
 70
     32
  0
VERTEX
  8
MY3DLAYER
10
102.32480259740169
20
49.89653904418892
30
0.0
 70
     32
  0
VERTEX
  8
MY3DLAYER
10
102.28998746823055
20
49.68894098237833
30
0.0
 70
     32
  0
VERTEX
  8
MY3DLAYER
10
102.25331160436477
20
49.47378301574409
30
0.0
 70
     32
  0
VERTEX
  8
MY3DLAYER
10
102.17702636125155
20
49.035451179104186
30
0.0
 70
     32
  0
VERTEX
  8
MY3DLAYER
10
102.10087020021633
20
48.61027360006947
30
0.0
 70
     32
  0
VERTEX
  8
MY3DLAYER
10
102.0246459236538
20
48.19756048347611
30
0.0
 70
     32
  0
VERTEX
  8
MY3DLAYER
10
101.94815633395878
20
47.79662203416041
30
0.0
 70
     32
  0
VERTEX
  8
MY3DLAYER
10
101.871204233526
20
47.40676845695856
30
0.0
 70
     32
  0
VERTEX
  8
MY3DLAYER
10
101.79359242475012
20
47.027309956706894
30
0.0
 70
     32
  0
VERTEX
  8
MY3DLAYER
10
101.71512371002606
20
46.657556738241524
30
0.0
 70
     32
  0
VERTEX
  8
MY3DLAYER
10
101.63560089174834
20
46.296819006398756
30
0.0
 70
     32
  0
VERTEX
  8
MY3DLAYER
10
101.5548267723121
20
45.9444069660148
30
0.0
 70
     32
  0
VERTEX
  8
MY3DLAYER
10
101.47260415411166
20
45.59963082192596
30
0.0
 70
     32
  0
VERTEX
  8
MY3DLAYER
10
101.38873583954191
20
45.2618007789684
30
0.0
 70
     32
  0
VERTEX
  8
MY3DLAYER
10
101.30302463099773
20
44.93022704197833
30
0.0
 70
     32
  0
VERTEX
  8
MY3DLAYER
10
101.21527333087379
20
44.60421981579207
30
0.0
 70
     32
  0
VERTEX
  8
MY3DLAYER
10
101.1252847415648
20
44.28308930524583
30
0.0
 70
     32
  0
VERTEX
  8
MY3DLAYER
10
101.03286166546557
20
43.966145715175834
30
0.0
 70
     32
  0
VERTEX
  8
MY3DLAYER
10
100.9378069049708
20
43.652699250418344
30
0.0
 70
     32
  0
VERTEX
  8
MY3DLAYER
10
100.83992326247531
20
43.34206011580955
30
0.0
 70
     32
  0
VERTEX
  8
MY3DLAYER
10
100.73901354037382
20
43.03353851618576
30
0.0
 70
     32
  0
VERTEX
  8
MY3DLAYER
10
100.63488054106107
20
42.7264446563831
30
0.0
 70
     32
  0
VERTEX
  8
MY3DLAYER
10
100.52732706693185
20
42.420088741237905
30
0.0
 70
     32
  0
VERTEX
  8
MY3DLAYER
10
100.41615592038082
20
42.11378097558643
30
0.0
 70
     32
  0
VERTEX
  8
MY3DLAYER
10
100.30116990380282
20
41.80683156426483
30
0.0
 70
     32
  0
VERTEX
  8
MY3DLAYER
10
100.18217181959254
20
41.49855071210942
30
0.0
 70
     32
  0
VERTEX
  8
MY3DLAYER
10
100.05896447014484
20
41.18824862395637
30
0.0
 70
     32
  0
VERTEX
  8
MY3DLAYER
10
99.93135065785435
20
40.87523550464195
30
0.0
 70
     32
  0
VERTEX
  8
MY3DLAYER
10
99.79913318511586
20
40.55882155900242
30
0.0
 70
     32
  0
VERTEX
  8
MY3DLAYER
10
99.66211485432414
20
40.23831699187392
30
0.0
 70
     32
  0
VERTEX
  8
MY3DLAYER
10
99.52009846787399
20
39.91303200809283
30
0.0
 70
     32
  0
VERTEX
  8
MY3DLAYER
10
99.36164807945751
20
39.56183848623167
30
0.0
 70
     32
  0
VERTEX
  8
MY3DLAYER
10
99.19856143267737
20
39.21629579261767
30
0.0
 70
     32
  0
VERTEX
  8
MY3DLAYER
10
99.03111258123185
20
38.87677431782599
30
0.0
 70
     32
  0
VERTEX
  8
MY3DLAYER
10
98.85957557881925
20
38.543644452431764
30
0.0
 70
     32
  0
VERTEX
  8
MY3DLAYER
10
98.68422447913784
20
38.21727658701012
30
0.0
 70
     32
  0
VERTEX
  8
MY3DLAYER
10
98.50533333588585
20
37.898041112136205
30
0.0
 70
     32
  0
VERTEX
  8
MY3DLAYER
10
98.32317620276176
20
37.5863084183852
30
0.0
 70
     32
  0
VERTEX
  8
MY3DLAYER
10
98.13802713346372
20
37.282448896332255
30
0.0
 70
     32
  0
VERTEX
  8
MY3DLAYER
10
97.9501601816901
20
36.986832936552496
30
0.0
 70
     32
  0
VERTEX
  8
MY3DLAYER
10
97.75984940113916
20
36.69983092962107
30
0.0
 70
     32
  0
VERTEX
  8
MY3DLAYER
10
97.56736884550918
20
36.42181326611313
30
0.0
 70
     32
  0
VERTEX
  8
MY3DLAYER
10
97.37299256849856
20
36.153150336603865
30
0.0
 70
     32
  0
VERTEX
  8
MY3DLAYER
10
97.1769946238055
20
35.89421253166832
30
0.0
 70
     32
  0
VERTEX
  8
MY3DLAYER
10
96.97964906512836
20
35.64537024188171
30
0.0
 70
     32
  0
VERTEX
  8
MY3DLAYER
10
96.78122994616535
20
35.40699385781919
30
0.0
 70
     32
  0
VERTEX
  8
MY3DLAYER
10
96.58201132061482
20
35.179453770055865
30
0.0
 70
     32
  0
VERTEX
  8
MY3DLAYER
10
96.38226724217512
20
34.96312036916694
30
0.0
 70
     32
  0
VERTEX
  8
MY3DLAYER
10
96.18227176454445
20
34.758364045727475
30
0.0
 70
     32
  0
VERTEX
  8
MY3DLAYER
10
95.98229894142119
20
34.56555519031271
30
0.0
 70
     32
  0
VERTEX
  8
MY3DLAYER
10
95.78262282650361
20
34.385064193497726
30
0.0
 70
     32
  0
VERTEX
  8
MY3DLAYER
10
95.58351747349
20
34.21726144585773
30
0.0
 70
     32
  0
VERTEX
  8
MY3DLAYER
10
95.38525693607865
20
34.06251733796782
30
0.0
 70
     32
  0
VERTEX
  8
MY3DLAYER
10
95.1881152679679
20
33.92120226040315
30
0.0
 70
     32
  0
VERTEX
  8
MY3DLAYER
10
94.99236652285597
20
33.79368660373889
30
0.0
 70
     32
  0
VERTEX
  8
MY3DLAYER
10
94.38870048083211
20
33.420600471914014
30
0.0
 70
     32
  0
VERTEX
  8
MY3DLAYER
10
95.70906076019733
20
32.017049262951176
30
0.0
 70
     32
  0
VERTEX
  8
MY3DLAYER
10
95.93698699267864
20
31.770695642419255
30
0.0
 70
     32
  0
VERTEX
  8
MY3DLAYER
10
96.15475410063034
20
31.526790896076456
30
0.0
 70
     32
  0
VERTEX
  8
MY3DLAYER
10
96.36261520197017
20
31.284740293296394
30
0.0
 70
     32
  0
VERTEX
  8
MY3DLAYER
10
96.56082341461594
20
31.04394910345269
30
0.0
 70
     32
  0
VERTEX
  8
MY3DLAYER
10
96.74963185648538
20
30.803822595918973
30
0.0
 70
     32
  0
VERTEX
  8
MY3DLAYER
10
96.92929364549617
20
30.563766040068785
30
0.0
 70
     32
  0
VERTEX
  8
MY3DLAYER
10
97.10006189956617
20
30.3231847052758
30
0.0
 70
     32
  0
VERTEX
  8
MY3DLAYER
10
97.26218973661317
20
30.081483860913597
30
0.0
 70
     32
  0
VERTEX
  8
MY3DLAYER
10
97.41593027455482
20
29.838068776355808
30
0.0
 70
     32
  0
VERTEX
  8
MY3DLAYER
10
97.56153663130891
20
29.592344720976023
30
0.0
 70
     32
  0
VERTEX
  8
MY3DLAYER
10
97.6992619247932
20
29.34371696414785
30
0.0
 70
     32
  0
VERTEX
  8
MY3DLAYER
10
97.82935927292554
20
29.0915907752449
30
0.0
 70
     32
  0
VERTEX
  8
MY3DLAYER
10
97.95208179362366
20
28.83537142364078
30
0.0
 70
     32
  0
VERTEX
  8
MY3DLAYER
10
98.06768260480526
20
28.57446417870913
30
0.0
 70
     32
  0
VERTEX
  8
MY3DLAYER
10
98.17641482438806
20
28.3082743098235
30
0.0
 70
     32
  0
VERTEX
  8
MY3DLAYER
10
98.27853157028991
20
28.036207086357525
30
0.0
 70
     32
  0
VERTEX
  8
MY3DLAYER
10
98.37428596042855
20
27.757667777684844
30
0.0
 70
     32
  0
VERTEX
  8
MY3DLAYER
10
98.46393111272175
20
27.47206165317905
30
0.0
 70
     32
  0
VERTEX
  8
MY3DLAYER
10
98.54772014508724
20
27.178793982213744
30
0.0
 70
     32
  0
VERTEX
  8
MY3DLAYER
10
98.62590617544282
20
26.8772700341625
30
0.0
 70
     32
  0
VERTEX
  8
MY3DLAYER
10
98.69874232170622
20
26.566895078399007
30
0.0
 70
     32
  0
VERTEX
  8
MY3DLAYER
10
98.7664817017951
20
26.247074384296813
30
0.0
 70
     32
  0
VERTEX
  8
MY3DLAYER
10
98.82937743362744
20
25.91721322122955
30
0.0
 70
     32
  0
VERTEX
  8
MY3DLAYER
10
98.88768263512083
20
25.576716858570805
30
0.0
 70
     32
  0
VERTEX
  8
MY3DLAYER
10
98.94165042419306
20
25.224990565694238
30
0.0
 70
     32
  0
VERTEX
  8
MY3DLAYER
10
98.99153391876197
20
24.86143961197339
30
0.0
 70
     32
  0
VERTEX
  8
MY3DLAYER
10
99.03758623674523
20
24.485469266781923
30
0.0
 70
     32
  0
VERTEX
  8
MY3DLAYER
10
99.08006049606063
20
24.096484799493425
30
0.0
 70
     32
  0
VERTEX
  8
MY3DLAYER
10
99.1256017583385
20
23.587702182476193
30
0.0
 70
     32
  0
VERTEX
  8
MY3DLAYER
10
99.15744744434637
20
23.078310673600622
30
0.0
 70
     32
  0
VERTEX
  8
MY3DLAYER
10
99.17560078545822
20
22.568326120157725
30
0.0
 70
     32
  0
VERTEX
  8
MY3DLAYER
10
99.18006501304791
20
22.057764369438573
30
0.0
 70
     32
  0
VERTEX
  8
MY3DLAYER
10
99.17084335848926
20
21.54664126873421
30
0.0
 70
     32
  0
VERTEX
  8
MY3DLAYER
10
99.14793905315616
20
21.034972665335676
30
0.0
 70
     32
  0
VERTEX
  8
MY3DLAYER
10
99.11135532842242
20
20.522774406534026
30
0.0
 70
     32
  0
VERTEX
  8
MY3DLAYER
10
99.06109541566197
20
20.010062339620298
30
0.0
 70
     32
  0
VERTEX
  8
MY3DLAYER
10
98.9971625462486
20
19.496852311885537
30
0.0
 70
     32
  0
VERTEX
  8
MY3DLAYER
10
98.91955995155611
20
18.9831601706208
30
0.0
 70
     32
  0
VERTEX
  8
MY3DLAYER
10
98.8282908629585
20
18.469001763117127
30
0.0
 70
     32
  0
VERTEX
  8
MY3DLAYER
10
98.7233585118295
20
17.9543929366656
30
0.0
 70
     32
  0
VERTEX
  8
MY3DLAYER
10
98.6047661295431
20
17.4393495385572
30
0.0
 70
     32
  0
VERTEX
  8
MY3DLAYER
10
98.47251694747308
20
16.92388741608304
30
0.0
 70
     32
  0
VERTEX
  8
MY3DLAYER
10
98.32661419699328
20
16.408022416534124
30
0.0
 70
     32
  0
VERTEX
  8
MY3DLAYER
10
98.1670611094776
20
15.891770387201511
30
0.0
 70
     32
  0
VERTEX
  8
MY3DLAYER
10
97.99386091629987
20
15.375147175376252
30
0.0
 70
     32
  0
VERTEX
  8
MY3DLAYER
10
97.80701684883394
20
14.858168628349386
30
0.0
 70
     32
  0
VERTEX
  8
MY3DLAYER
10
97.60653213845367
20
14.340850593411973
30
0.0
 70
     32
  0
VERTEX
  8
MY3DLAYER
10
97.39241001653293
20
13.823208917855046
30
0.0
 70
     32
  0
VERTEX
  8
MY3DLAYER
10
97.16465371444568
20
13.305259448969654
30
0.0
 70
     32
  0
VERTEX
  8
MY3DLAYER
10
96.9232664635655
20
12.78701803404685
30
0.0
 70
     32
  0
VERTEX
  8
MY3DLAYER
10
96.66825149526653
20
12.268500520377678
30
0.0
 70
     32
  0
VERTEX
  8
MY3DLAYER
10
96.42071414255005
20
11.792247624633378
30
0.0
 70
     32
  0
VERTEX
  8
MY3DLAYER
10
96.16346481964398
20
11.324777540768496
30
0.0
 70
     32
  0
VERTEX
  8
MY3DLAYER
10
95.89669143745328
20
10.866224822160376
30
0.0
 70
     32
  0
VERTEX
  8
MY3DLAYER
10
95.62058190688312
20
10.416724022186349
30
0.0
 70
     32
  0
VERTEX
  8
MY3DLAYER
10
95.33532413883856
20
9.97640969422375
30
0.0
 70
     32
  0
VERTEX
  8
MY3DLAYER
10
95.04110604422466
20
9.545416391649942
30
0.0
 70
     32
  0
VERTEX
  8
MY3DLAYER
10
94.73811553394658
20
9.123878667842229
30
0.0
 70
     32
  0
VERTEX
  8
MY3DLAYER
10
94.42654051890932
20
8.711931076177974
30
0.0
 70
     32
  0
VERTEX
  8
MY3DLAYER
10
94.10656891001798
20
8.30970817003451
30
0.0
 70
     32
  0
VERTEX
  8
MY3DLAYER
10
93.77838861817771
20
7.917344502789178
30
0.0
 70
     32
  0
VERTEX
  8
MY3DLAYER
10
93.44218755429357
20
7.534974627819308
30
0.0
 70
     32
  0
VERTEX
  8
MY3DLAYER
10
93.09815362927058
20
7.162733098502246
30
0.0
 70
     32
  0
VERTEX
  8
MY3DLAYER
10
92.74647475401387
20
6.800754468215326
30
0.0
 70
     32
  0
VERTEX
  8
MY3DLAYER
10
92.3873388394285
20
6.449173290335892
30
0.0
 70
     32
  0
VERTEX
  8
MY3DLAYER
10
92.0209337964195
20
6.108124118241275
30
0.0
 70
     32
  0
VERTEX
  8
MY3DLAYER
10
91.64744753589211
20
5.777741505308827
30
0.0
 70
     32
  0
VERTEX
  8
MY3DLAYER
10
91.26706796875129
20
5.458160004915879
30
0.0
 70
     32
  0
VERTEX
  8
MY3DLAYER
10
90.87998300590216
20
5.149514170439762
30
0.0
 70
     32
  0
VERTEX
  8
MY3DLAYER
10
90.48638055824978
20
4.8519385552578225
30
0.0
 70
     32
  0
VERTEX
  8
MY3DLAYER
10
90.08644853669922
20
4.565567712747399
30
0.0
 70
     32
  0
VERTEX
  8
MY3DLAYER
10
89.68037485215564
20
4.290536196285831
30
0.0
 70
     32
  0
VERTEX
  8
MY3DLAYER
10
89.26834741552406
20
4.026978559250459
30
0.0
 70
     32
  0
VERTEX
  8
MY3DLAYER
10
88.85055413770957
20
3.7750293550186167
30
0.0
 70
     32
  0
VERTEX
  8
MY3DLAYER
10
88.42718292961729
20
3.5348231369676433
30
0.0
 70
     32
  0
VERTEX
  8
MY3DLAYER
10
87.99842170215226
20
3.3064944584748837
30
0.0
 70
     32
  0
VERTEX
  8
MY3DLAYER
10
87.56445836621955
20
3.0901778729176725
30
0.0
 70
     32
  0
VERTEX
  8
MY3DLAYER
10
87.12548083272432
20
2.8860079336733446
30
0.0
 70
     32
  0
VERTEX
  8
MY3DLAYER
10
86.68167701257158
20
2.694119194119241
30
0.0
 70
     32
  0
VERTEX
  8
MY3DLAYER
10
86.2332348166665
20
2.5146462076327016
30
0.0
 70
     32
  0
VERTEX
  8
MY3DLAYER
10
85.780342155914
20
2.347723527591066
30
0.0
 70
     32
  0
VERTEX
  8
MY3DLAYER
10
85.32318694121929
20
2.1934857073716723
30
0.0
 70
     32
  0
VERTEX
  8
MY3DLAYER
10
84.86195708348744
20
2.0520673003518577
30
0.0
 70
     32
  0
VERTEX
  8
MY3DLAYER
10
84.39684049362347
20
1.9236028599089627
30
0.0
 70
     32
  0
VERTEX
  8
MY3DLAYER
10
83.92802508253261
20
1.808226939420327
30
0.0
 70
     32
  0
VERTEX
  8
MY3DLAYER
10
83.45569876111976
20
1.7060740922632847
30
0.0
 70
     32
  0
VERTEX
  8
MY3DLAYER
10
82.98004944029012
20
1.617278871815178
30
0.0
 70
     32
  0
VERTEX
  8
MY3DLAYER
10
82.50126503094876
20
1.5419758314533474
30
0.0
 70
     32
  0
VERTEX
  8
MY3DLAYER
10
82.01953344400071
20
1.480299524555125
30
0.0
 70
     32
  0
VERTEX
  8
MY3DLAYER
10
81.53504259035115
20
1.432384504497863
30
0.0
 70
     32
  0
VERTEX
  8
MY3DLAYER
10
81.00829487579892
20
1.3942647595203734
30
0.0
 70
     32
  0
VERTEX
  8
MY3DLAYER
10
80.4847372520684
20
1.3690921412784782
30
0.0
 70
     32
  0
VERTEX
  8
MY3DLAYER
10
79.96425213499393
20
1.3569015625998868
30
0.0
 70
     32
  0
VERTEX
  8
MY3DLAYER
10
79.44672194040979
20
1.3577279363122972
30
0.0
 70
     32
  0
VERTEX
  8
MY3DLAYER
10
78.93202908415029
20
1.3716061752434159
30
0.0
 70
     32
  0
VERTEX
  8
MY3DLAYER
10
78.42005598204967
20
1.3985711922209392
30
0.0
 70
     32
  0
VERTEX
  8
MY3DLAYER
10
77.9106850499424
20
1.4386579000725752
30
0.0
 70
     32
  0
VERTEX
  8
MY3DLAYER
10
77.40379870366274
20
1.491901211626027
30
0.0
 70
     32
  0
VERTEX
  8
MY3DLAYER
10
76.89927935904493
20
1.558336039708993
30
0.0
 70
     32
  0
VERTEX
  8
MY3DLAYER
10
76.39700943192338
20
1.6379972971491759
30
0.0
 70
     32
  0
VERTEX
  8
MY3DLAYER
10
75.89687133813226
20
1.730919896774284
30
0.0
 70
     32
  0
VERTEX
  8
MY3DLAYER
10
75.39874749350608
20
1.8371387514120137
30
0.0
 70
     32
  0
VERTEX
  8
MY3DLAYER
10
74.90252031387904
20
1.9566887738900725
30
0.0
 70
     32
  0
VERTEX
  8
MY3DLAYER
10
74.40807221508547
20
2.089604877036161
30
0.0
 70
     32
  0
VERTEX
  8
MY3DLAYER
10
73.91528561295975
20
2.2359219736779816
30
0.0
 70
     32
  0
VERTEX
  8
MY3DLAYER
10
73.42404292333599
20
2.395674976643241
30
0.0
 70
     32
  0
VERTEX
  8
MY3DLAYER
10
72.93422656204876
20
2.568898798759635
30
0.0
 70
     32
  0
VERTEX
  8
MY3DLAYER
10
72.44571894493225
20
2.755628352854868
30
0.0
 70
     32
  0
VERTEX
  8
MY3DLAYER
10
71.95840248782076
20
2.9558985517566447
30
0.0
 70
     32
  0
VERTEX
  8
MY3DLAYER
10
71.47215960654859
20
3.1697443082926684
30
0.0
 70
     32
  0
VERTEX
  8
MY3DLAYER
10
70.98687271695016
20
3.3972005352906374
30
0.0
 70
     32
  0
VERTEX
  8
MY3DLAYER
10
70.50242423485966
20
3.6383021455782596
30
0.0
 70
     32
  0
VERTEX
  8
MY3DLAYER
10
70.0186965761115
20
3.893084051983239
30
0.0
 70
     32
  0
VERTEX
  8
MY3DLAYER
10
69.53557215653991
20
4.161581167333273
30
0.0
 70
     32
  0
VERTEX
  8
MY3DLAYER
10
69.05293339197931
20
4.443828404456066
30
0.0
 70
     32
  0
VERTEX
  8
MY3DLAYER
10
68.57066269826393
20
4.739860676179316
30
0.0
 70
     32
  0
VERTEX
  8
MY3DLAYER
10
68.08864249122809
20
5.049712895330741
30
0.0
 70
     32
  0
VERTEX
  8
MY3DLAYER
10
67.60675518670612
20
5.373419974738029
30
0.0
 70
     32
  0
VERTEX
  8
MY3DLAYER
10
67.1248832005324
20
5.711016827228887
30
0.0
 70
     32
  0
VERTEX
  8
MY3DLAYER
10
66.99208536102624
20
5.8057522910461055
30
0.0
 70
     32
  0
VERTEX
  8
MY3DLAYER
10
66.85816715114967
20
5.900875474776468
30
0.0
 70
     32
  0
VERTEX
  8
MY3DLAYER
10
66.7238415338657
20
5.995895287593484
30
0.0
 70
     32
  0
VERTEX
  8
MY3DLAYER
10
66.58982147213736
20
6.090320638670662
30
0.0
 70
     32
  0
VERTEX
  8
MY3DLAYER
10
66.45681992892746
20
6.183660437181502
30
0.0
 70
     32
  0
VERTEX
  8
MY3DLAYER
10
66.32554986719902
20
6.275423592299527
30
0.0
 70
     32
  0
VERTEX
  8
MY3DLAYER
10
66.19672424991509
20
6.3651190131982265
30
0.0
 70
     32
  0
VERTEX
  8
MY3DLAYER
10
66.07105604003854
20
6.452255609051107
30
0.0
 70
     32
  0
VERTEX
  8
MY3DLAYER
10
65.94925820053241
20
6.536342289031693
30
0.0
 70
     32
  0
VERTEX
  8
MY3DLAYER
10
65.8320436943595
20
6.616887962313483
30
0.0
 70
     32
  0
VERTEX
  8
MY3DLAYER
10
65.72012548448298
20
6.693401538069978
30
0.0
 70
     32
  0
VERTEX
  8
MY3DLAYER
10
65.61421653386569
20
6.765391925474694
30
0.0
 70
     32
  0
VERTEX
  8
MY3DLAYER
10
65.51502980547066
20
6.832368033701131
30
0.0
 70
     32
  0
VERTEX
  8
MY3DLAYER
10
65.42327826226075
20
6.893838771922803
30
0.0
 70
     32
  0
VERTEX
  8
MY3DLAYER
10
65.33967486719907
20
6.94931304931321
30
0.0
 70
     32
  0
VERTEX
  8
MY3DLAYER
10
65.26493258324842
20
6.998299775045865
30
0.0
 70
     32
  0
VERTEX
  8
MY3DLAYER
10
65.19976437337188
20
7.040307858294271
30
0.0
 70
     32
  0
VERTEX
  8
MY3DLAYER
10
65.14488320053235
20
7.074846208231938
30
0.0
 70
     32
  0
VERTEX
  8
MY3DLAYER
10
65.09977416597185
20
7.104448559238741
30
0.0
 70
     32
  0
VERTEX
  8
MY3DLAYER
10
65.04575472570137
20
7.142847180286477
30
0.0
 70
     32
  0
VERTEX
  8
MY3DLAYER
10
64.98328637483738
20
7.189636171705553
30
0.0
 70
     32
  0
VERTEX
  8
MY3DLAYER
10
64.91283060849628
20
7.244409633826352
30
0.0
 70
     32
  0
VERTEX
  8
MY3DLAYER
10
64.83484892179457
20
7.306761666979289
30
0.0
 70
     32
  0
VERTEX
  8
MY3DLAYER
10
64.74980280984865
20
7.376286371494768
30
0.0
 70
     32
  0
VERTEX
  8
MY3DLAYER
10
64.658153767775
20
7.452577847703178
30
0.0
 70
     32
  0
VERTEX
  8
MY3DLAYER
10
64.5603632906901
20
7.535230195934929
30
0.0
 70
     32
  0
VERTEX
  8
MY3DLAYER
10
64.45689287371039
20
7.623837516520423
30
0.0
 70
     32
  0
VERTEX
  8
MY3DLAYER
10
64.34820401195233
20
7.717993909790058
30
0.0
 70
     32
  0
VERTEX
  8
MY3DLAYER
10
64.23475820053234
20
7.817293476074234
30
0.0
 70
     32
  0
VERTEX
  8
MY3DLAYER
10
64.11701693456696
20
7.921330315703354
30
0.0
 70
     32
  0
VERTEX
  8
MY3DLAYER
10
63.99544170917246
20
8.02969852900782
30
0.0
 70
     32
  0
VERTEX
  8
MY3DLAYER
10
63.870494019465475
20
8.141992216318034
30
0.0
 70
     32
  0
VERTEX
  8
MY3DLAYER
10
63.742635360562396
20
8.257805477964393
30
0.0
 70
     32
  0
VERTEX
  8
MY3DLAYER
10
63.61232722757967
20
8.376732414277301
30
0.0
 70
     32
  0
VERTEX
  8
MY3DLAYER
10
63.48003111563377
20
8.498367125587162
30
0.0
 70
     32
  0
VERTEX
  8
MY3DLAYER
10
63.34620851984115
20
8.622303712224372
30
0.0
 70
     32
  0
VERTEX
  8
MY3DLAYER
10
63.21132093531817
20
8.748136274519336
30
0.0
 70
     32
  0
VERTEX
  8
MY3DLAYER
10
63.07582985718151
20
8.87545891280245
30
0.0
 70
     32
  0
VERTEX
  8
MY3DLAYER
10
62.940196780547396
20
9.003865727404124
30
0.0
 70
     32
  0
VERTEX
  8
MY3DLAYER
10
62.8048832005324
20
9.132950818654747
30
0.0
 70
     32
  0
VERTEX
  8
MY3DLAYER
10
62.661378013763276
20
9.270386720298445
30
0.0
 70
     32
  0
VERTEX
  8
MY3DLAYER
10
62.514160161773965
20
9.41138132725374
30
0.0
 70
     32
  0
VERTEX
  8
MY3DLAYER
10
62.363890492755786
20
9.555301628710529
30
0.0
 70
     32
  0
VERTEX
  8
MY3DLAYER
10
62.21122985490011
20
9.701514613858711
30
0.0
 70
     32
  0
VERTEX
  8
MY3DLAYER
10
62.0568390963983
20
9.849387271888197
30
0.0
 70
     32
  0
VERTEX
  8
MY3DLAYER
10
61.90137906544179
20
9.998286591988892
30
0.0
 70
     32
  0
VERTEX
  8
MY3DLAYER
10
61.74551061022177
20
10.147579563350693
30
0.0
 70
     32
  0
VERTEX
  8
MY3DLAYER
10
61.58989457892973
20
10.296633175163516
30
0.0
 70
     32
  0
VERTEX
  8
MY3DLAYER
10
61.43519181975699
20
10.444814416617257
30
0.0
 70
     32
  0
VERTEX
  8
MY3DLAYER
10
61.28206318089493
20
10.591490276901819
30
0.0
 70
     32
  0
VERTEX
  8
MY3DLAYER
10
61.13116951053489
20
10.7360277452071
30
0.0
 70
     32
  0
VERTEX
  8
MY3DLAYER
10
60.9831716568682
20
10.87779381072302
30
0.0
 70
     32
  0
VERTEX
  8
MY3DLAYER
10
60.83873046808627
20
11.016155462639462
30
0.0
 70
     32
  0
VERTEX
  8
MY3DLAYER
10
60.69850679238038
20
11.150479690146353
30
0.0
 70
     32
  0
VERTEX
  8
MY3DLAYER
10
60.56316147794197
20
11.280133482433579
30
0.0
 70
     32
  0
VERTEX
  8
MY3DLAYER
10
60.43335537296236
20
11.40448382869106
30
0.0
 70
     32
  0
VERTEX
  8
MY3DLAYER
10
60.30974932563293
20
11.522897718108682
30
0.0
 70
     32
  0
VERTEX
  8
MY3DLAYER
10
60.193004184145046
20
11.634742139876359
30
0.0
 70
     32
  0
VERTEX
  8
MY3DLAYER
10
60.08378079669
20
11.739384083183994
30
0.0
 70
     32
  0
VERTEX
  8
MY3DLAYER
10
59.98274001145918
20
11.836190537221489
30
0.0
 70
     32
  0
VERTEX
  8
MY3DLAYER
10
59.890542676643996
20
11.924528491178757
30
0.0
 70
     32
  0
VERTEX
  8
MY3DLAYER
10
58.77620215275565
20
12.992253767899573
30
0.0
 70
     32
  0
VERTEX
  8
MY3DLAYER
10
58.31153677291646
20
11.928018391821842
30
0.0
 70
     32
  0
VERTEX
  8
MY3DLAYER
10
58.15154912154143
20
11.56177218512552
30
0.0
 70
     32
  0
VERTEX
  8
MY3DLAYER
10
57.99702715991539
20
11.208408078722723
30
0.0
 70
     32
  0
VERTEX
  8
MY3DLAYER
10
57.84788499971873
20
10.867741996780447
30
0.0
 70
     32
  0
VERTEX
  8
MY3DLAYER
10
57.70403675263163
20
10.53958986346571
30
0.0
 70
     32
  0
VERTEX
  8
MY3DLAYER
10
57.56539653033432
20
10.223767602945538
30
0.0
 70
     32
  0
VERTEX
  8
MY3DLAYER
10
57.43187844450709
20
9.920091139386937
30
0.0
 70
     32
  0
VERTEX
  8
MY3DLAYER
10
57.303396606830184
20
9.628376396956922
30
0.0
 70
     32
  0
VERTEX
  8
MY3DLAYER
10
57.17986512898389
20
9.348439299822497
30
0.0
 70
     32
  0
VERTEX
  8
MY3DLAYER
10
57.061198122648406
20
9.080095772150695
30
0.0
 70
     32
  0
VERTEX
  8
MY3DLAYER
10
56.947309699504025
20
8.823161738108517
30
0.0
 70
     32
  0
VERTEX
  8
MY3DLAYER
10
56.838113971230975
20
8.577453121862977
30
0.0
 70
     32
  0
VERTEX
  8
MY3DLAYER
10
56.7335250495095
20
8.342785847581093
30
0.0
 70
     32
  0
VERTEX
  8
MY3DLAYER
10
56.63345704601989
20
8.118975839429876
30
0.0
 70
     32
  0
VERTEX
  8
MY3DLAYER
10
56.53782407244238
20
7.905839021576339
30
0.0
 70
     32
  0
VERTEX
  8
MY3DLAYER
10
56.44654024045722
20
7.703191318187496
30
0.0
 70
     32
  0
VERTEX
  8
MY3DLAYER
10
56.35951966174475
20
7.510848653430371
30
0.0
 70
     32
  0
VERTEX
  8
MY3DLAYER
10
56.27667644798505
20
7.328626951471965
30
0.0
 70
     32
  0
VERTEX
  8
MY3DLAYER
10
56.19792471085847
20
7.1563421364793
30
0.0
 70
     32
  0
VERTEX
  8
MY3DLAYER
10
56.12317856204533
20
6.9938101326193785
30
0.0
 70
     32
  0
VERTEX
  8
MY3DLAYER
10
56.05235211322577
20
6.840846864059224
30
0.0
 70
     32
  0
VERTEX
  8
MY3DLAYER
10
55.9853594760801
20
6.697268254965847
30
0.0
 70
     32
  0
VERTEX
  8
MY3DLAYER
10
55.92211476228856
20
6.562890229506266
30
0.0
 70
     32
  0
VERTEX
  8
MY3DLAYER
10
55.86253208353137
20
6.437528711847489
30
0.0
 70
     32
  0
VERTEX
  8
MY3DLAYER
10
55.80652555148884
20
6.320999626156537
30
0.0
 70
     32
  0
VERTEX
  8
MY3DLAYER
10
55.75400927784122
20
6.213118896600413
30
0.0
 70
     32
  0
VERTEX
  8
MY3DLAYER
10
55.70489737426878
20
6.113702447346138
30
0.0
 70
     32
  0
VERTEX
  8
MY3DLAYER
10
55.65910395245174
20
6.022566202560731
30
0.0
 70
     32
  0
VERTEX
  8
MY3DLAYER
10
55.61654312407028
20
5.939526086411187
30
0.0
 70
     32
  0
VERTEX
  8
MY3DLAYER
10
55.577129000804774
20
5.864398023064543
30
0.0
 70
     32
  0
VERTEX
  8
MY3DLAYER
10
55.54077569433541
20
5.796997936687798
30
0.0
 70
     32
  0
VERTEX
  8
MY3DLAYER
10
55.50739731634248
20
5.7371417514479655
30
0.0
 70
     32
  0
VERTEX
  8
MY3DLAYER
10
55.476907978506226
20
5.684645391512072
30
0.0
 70
     32
  0
VERTEX
  8
MY3DLAYER
10
55.44922179250695
20
5.639324781047114
30
0.0
 70
     32
  0
VERTEX
  8
MY3DLAYER
10
55.42425287002478
20
5.600995844220119
30
0.0
 70
     32
  0
SEQEND
 0
ENDSEC
 0
EOF
