 0
SECTION
 2
ENTITIES
  0
POLYLINE
 8
Layer0
 66
     1
70
    8
 10
0.0
 20
 0.0
 30
0.0
  0
VERTEX
  8
MY3DLAYER
10
123.77133239518321
20
36.39557669184165
30
0.0
 70
     32
  0
VERTEX
  8
MY3DLAYER
10
123.1617117159906
20
35.697562653835995
30
0.0
 70
     32
  0
VERTEX
  8
MY3DLAYER
10
123.68819160479056
20
35.7882370576201
30
0.0
 70
     32
  0
VERTEX
  8
MY3DLAYER
10
124.44052285041727
20
35.940827393325854
30
0.0
 70
     32
  0
VERTEX
  8
MY3DLAYER
10
125.35605102047202
20
36.12532769868313
30
0.0
 70
     32
  0
VERTEX
  8
MY3DLAYER
10
126.37212168255549
20
36.31173201142181
30
0.0
 70
     32
  0
VERTEX
  8
MY3DLAYER
10
127.42608040426926
20
36.47003436927173
30
0.0
 70
     32
  0
VERTEX
  8
MY3DLAYER
10
128.45527275321413
20
36.570228809962764
30
0.0
 70
     32
  0
VERTEX
  8
MY3DLAYER
10
129.3970442969918
20
36.58230937122481
30
0.0
 70
     32
  0
VERTEX
  8
MY3DLAYER
10
130.18874060320297
20
36.47627009078768
30
0.0
 70
     32
  0
VERTEX
  8
MY3DLAYER
10
130.7677072394492
20
36.22210500638127
30
0.0
 70
     32
  0
VERTEX
  8
MY3DLAYER
10
131.07128977333122
20
35.78980815573543
30
0.0
 70
     32
  0
VERTEX
  8
MY3DLAYER
10
131.0368337724505
20
35.14937357658003
30
0.0
 70
     32
  0
VERTEX
  8
MY3DLAYER
10
130.60168480440817
20
34.27079530664496
30
0.0
 70
     32
  0
VERTEX
  8
MY3DLAYER
10
133.50176363196903
20
35.27366770624634
30
0.0
 70
     32
  0
VERTEX
  8
MY3DLAYER
10
134.53084046853715
20
35.572608978781616
30
0.0
 70
     32
  0
VERTEX
  8
MY3DLAYER
10
135.57873673730035
20
35.829324637038745
30
0.0
 70
     32
  0
VERTEX
  8
MY3DLAYER
10
136.59405072842043
20
36.01305723935165
30
0.0
 70
     32
  0
VERTEX
  8
MY3DLAYER
10
137.5253807320594
20
36.093049344054286
30
0.0
 70
     32
  0
VERTEX
  8
MY3DLAYER
10
138.32132503837929
20
36.03854350948058
30
0.0
 70
     32
  0
VERTEX
  8
MY3DLAYER
10
138.9304819375419
20
35.81878229396453
30
0.0
 70
     32
  0
VERTEX
  8
MY3DLAYER
10
139.30144971970907
20
35.40300825583997
30
0.0
 70
     32
  0
VERTEX
  8
MY3DLAYER
10
139.38282667504288
20
34.76046395344093
30
0.0
 70
     32
  0
VERTEX
  8
MY3DLAYER
10
139.371663074391
20
34.673809553425954
30
0.0
 70
     32
  0
VERTEX
  8
MY3DLAYER
10
139.35619047271234
20
34.58895013787477
30
0.0
 70
     32
  0
VERTEX
  8
MY3DLAYER
10
139.3365230844919
20
34.50585845105811
30
0.0
 70
     32
  0
VERTEX
  8
MY3DLAYER
10
139.31277512421485
20
34.42450723724649
30
0.0
 70
     32
  0
VERTEX
  8
MY3DLAYER
10
139.28506080636635
20
34.344869240710565
30
0.0
 70
     32
  0
VERTEX
  8
MY3DLAYER
10
139.25349434543114
20
34.26691720572093
30
0.0
 70
     32
  0
VERTEX
  8
MY3DLAYER
10
138.98959658616556
20
33.83308386740978
30
0.0
 70
     32
  0
VERTEX
  8
MY3DLAYER
10
139.71341184939521
20
34.21958092586758
30
0.0
 70
     32
  0
VERTEX
  8
MY3DLAYER
10
140.55183615680073
20
34.604834603908635
30
0.0
 70
     32
  0
VERTEX
  8
MY3DLAYER
10
141.46046083996947
20
34.967650327205746
30
0.0
 70
     32
  0
VERTEX
  8
MY3DLAYER
10
142.39487723048856
20
35.2868335214316
30
0.0
 70
     32
  0
VERTEX
  8
MY3DLAYER
10
143.31067665994502
20
35.54118961225904
30
0.0
 70
     32
  0
VERTEX
  8
MY3DLAYER
10
144.16345045992628
20
35.70952402536079
30
0.0
 70
     32
  0
VERTEX
  8
MY3DLAYER
10
144.9087899620196
20
35.770642186409624
30
0.0
 70
     32
  0
VERTEX
  8
MY3DLAYER
10
145.50228649781226
20
35.7033495210783
30
0.0
 70
     32
  0
VERTEX
  8
MY3DLAYER
10
145.89953139889118
20
35.48645145503964
30
0.0
 70
     32
  0
VERTEX
  8
MY3DLAYER
10
146.05611599684383
20
35.09875341396633
30
0.0
 70
     32
  0
VERTEX
  8
MY3DLAYER
10
145.9276316232575
20
34.5190608235312
30
0.0
 70
     32
  0
VERTEX
  8
MY3DLAYER
10
145.46966960971918
20
33.726179109407
30
0.0
 70
     32
  0
VERTEX
  8
MY3DLAYER
10
145.96860260872245
20
33.91757230219986
30
0.0
 70
     32
  0
VERTEX
  8
MY3DLAYER
10
146.6769997817323
20
34.213570388592075
30
0.0
 70
     32
  0
VERTEX
  8
MY3DLAYER
10
147.5392438660986
20
34.572562955054494
30
0.0
 70
     32
  0
VERTEX
  8
MY3DLAYER
10
148.49971759917184
20
34.95293958805797
30
0.0
 70
     32
  0
VERTEX
  8
MY3DLAYER
10
149.50280371830215
20
35.31308987407339
30
0.0
 70
     32
  0
VERTEX
  8
MY3DLAYER
10
150.4928849608396
20
35.611403399571536
30
0.0
 70
     32
  0
VERTEX
  8
MY3DLAYER
10
151.41434406413464
20
35.80626975102327
30
0.0
 70
     32
  0
VERTEX
  8
MY3DLAYER
10
152.21156376553745
20
35.85607851489945
30
0.0
 70
     32
  0
VERTEX
  8
MY3DLAYER
10
152.82892680239826
20
35.71921927767093
30
0.0
 70
     32
  0
VERTEX
  8
MY3DLAYER
10
153.2108159120673
20
35.35408162580851
30
0.0
 70
     32
  0
VERTEX
  8
MY3DLAYER
10
153.30161383189494
20
34.7190551457831
30
0.0
 70
     32
  0
VERTEX
  8
MY3DLAYER
10
153.0457032992313
20
33.77252942406552
30
0.0
 70
     32
  0
VERTEX
  8
MY3DLAYER
10
153.4327584511956
20
34.007083362232855
30
0.0
 70
     32
  0
VERTEX
  8
MY3DLAYER
10
154.01482704902426
20
34.3591263666478
30
0.0
 70
     32
  0
VERTEX
  8
MY3DLAYER
10
154.75084119799192
20
34.7915530064812
30
0.0
 70
     32
  0
VERTEX
  8
MY3DLAYER
10
155.5997330033736
20
35.26725785090378
30
0.0
 70
     32
  0
VERTEX
  8
MY3DLAYER
10
156.52043457044402
20
35.74913546908633
30
0.0
 70
     32
  0
VERTEX
  8
MY3DLAYER
10
157.47187800447793
20
36.200080430199634
30
0.0
 70
     32
  0
VERTEX
  8
MY3DLAYER
10
158.4129954107503
20
36.58298730341444
30
0.0
 70
     32
  0
VERTEX
  8
MY3DLAYER
10
159.3027188945358
20
36.860750657901555
30
0.0
 70
     32
  0
VERTEX
  8
MY3DLAYER
10
160.0999805611092
20
36.996265062831725
30
0.0
 70
     32
  0
VERTEX
  8
MY3DLAYER
10
160.76371251574548
20
36.95242508737574
30
0.0
 70
     32
  0
VERTEX
  8
MY3DLAYER
10
161.2528468637195
20
36.69212530070435
30
0.0
 70
     32
  0
VERTEX
  8
MY3DLAYER
10
161.52631571030562
20
36.178260271988385
30
0.0
 70
     32
  0
VERTEX
  8
MY3DLAYER
10
162.1486150625997
20
36.85824421237459
30
0.0
 70
     32
  0
VERTEX
  8
MY3DLAYER
10
162.9989072933151
20
37.556810070742635
30
0.0
 70
     32
  0
VERTEX
  8
MY3DLAYER
10
164.01007581778475
20
38.23914968488294
30
0.0
 70
     32
  0
VERTEX
  8
MY3DLAYER
10
165.11500405134203
20
38.87045489258592
30
0.0
 70
     32
  0
VERTEX
  8
MY3DLAYER
10
166.24657540931995
20
39.415917531642044
30
0.0
 70
     32
  0
VERTEX
  8
MY3DLAYER
10
167.3376733070516
20
39.84072943984177
30
0.0
 70
     32
  0
VERTEX
  8
MY3DLAYER
10
168.32118115987024
20
40.11008245497551
30
0.0
 70
     32
  0
VERTEX
  8
MY3DLAYER
10
169.1299823831089
20
40.18916841483375
30
0.0
 70
     32
  0
VERTEX
  8
MY3DLAYER
10
169.69696039210086
20
40.04317915720685
30
0.0
 70
     32
  0
VERTEX
  8
MY3DLAYER
10
169.95499860217916
20
39.637306519885335
30
0.0
 70
     32
  0
VERTEX
  8
MY3DLAYER
10
169.83698042867684
20
38.936742340659606
30
0.0
 70
     32
  0
VERTEX
  8
MY3DLAYER
10
169.27578928692722
20
37.90667845732014
30
0.0
 70
     32
  0
VERTEX
  8
MY3DLAYER
10
169.745108287007
20
38.34123818245098
30
0.0
 70
     32
  0
VERTEX
  8
MY3DLAYER
10
170.21655323397883
20
38.71063075651196
30
0.0
 70
     32
  0
VERTEX
  8
MY3DLAYER
10
170.692686166405
20
39.02103674061431
30
0.0
 70
     32
  0
VERTEX
  8
MY3DLAYER
10
171.176069122848
20
39.278636695869274
30
0.0
 70
     32
  0
VERTEX
  8
MY3DLAYER
10
171.6692641418696
20
39.48961118338811
30
0.0
 70
     32
  0
VERTEX
  8
MY3DLAYER
10
172.17483326203276
20
39.66014076428199
30
0.0
 70
     32
  0
VERTEX
  8
MY3DLAYER
10
172.69533852189906
20
39.79640599966214
30
0.0
 70
     32
  0
VERTEX
  8
MY3DLAYER
10
173.23334196003123
20
39.90458745063981
30
0.0
 70
     32
  0
VERTEX
  8
MY3DLAYER
10
173.79140561499145
20
39.99086567832622
30
0.0
 70
     32
  0
VERTEX
  8
MY3DLAYER
10
174.37209152534209
20
40.061421243832584
30
0.0
 70
     32
  0
VERTEX
  8
MY3DLAYER
10
174.97796172964533
20
40.1224347082701
30
0.0
 70
     32
  0
VERTEX
  8
MY3DLAYER
10
175.61157826646303
20
40.18008663275009
30
0.0
 70
     32
  0
VERTEX
  8
MY3DLAYER
10
175.8601634973813
20
40.19860992928219
30
0.0
 70
     32
  0
VERTEX
  8
MY3DLAYER
10
176.2128656145538
20
40.216758135062236
30
0.0
 70
     32
  0
VERTEX
  8
MY3DLAYER
10
176.64527905915307
20
40.22942144977638
30
0.0
 70
     32
  0
VERTEX
  8
MY3DLAYER
10
177.13299827235213
20
40.23149007311065
30
0.0
 70
     32
  0
VERTEX
  8
MY3DLAYER
10
177.6516176953234
20
40.21785420475114
30
0.0
 70
     32
  0
VERTEX
  8
MY3DLAYER
10
178.17673176923984
20
40.18340404438393
30
0.0
 70
     32
  0
VERTEX
  8
MY3DLAYER
10
178.68393493527407
20
40.12302979169506
30
0.0
 70
     32
  0
VERTEX
  8
MY3DLAYER
10
179.14882163459893
20
40.031621646370674
30
0.0
 70
     32
  0
VERTEX
  8
MY3DLAYER
10
179.54698630838712
20
39.904069808096764
30
0.0
 70
     32
  0
VERTEX
  8
MY3DLAYER
10
179.85402339781115
20
39.735264476559564
30
0.0
 70
     32
  0
VERTEX
  8
MY3DLAYER
10
180.04552734404402
20
39.52009585144499
30
0.0
 70
     32
  0
VERTEX
  8
MY3DLAYER
10
180.09709258825848
20
39.25345413243922
30
0.0
 70
     32
  0
VERTEX
  8
MY3DLAYER
10
180.1692311492224
20
39.25569169803259
30
0.0
 70
     32
  0
VERTEX
  8
MY3DLAYER
10
180.24134894391634
20
39.257898114220986
30
0.0
 70
     32
  0
VERTEX
  8
MY3DLAYER
10
180.31342520607004
20
39.26004223159933
30
0.0
 70
     32
  0
VERTEX
  8
MY3DLAYER
10
180.385439169414
20
39.2620929007627
30
0.0
 70
     32
  0
VERTEX
  8
MY3DLAYER
10
180.45737006767746
20
39.26401897230591
30
0.0
 70
     32
  0
VERTEX
  8
MY3DLAYER
10
180.52919713459133
20
39.26578929682416
30
0.0
 70
     32
  0
VERTEX
  8
MY3DLAYER
10
180.91781321785137
20
39.49752269963065
30
0.0
 70
     32
  0
VERTEX
  8
MY3DLAYER
10
181.33444040356858
20
39.7128559406981
30
0.0
 70
     32
  0
VERTEX
  8
MY3DLAYER
10
181.77326154035748
20
39.91107258371116
30
0.0
 70
     32
  0
VERTEX
  8
MY3DLAYER
10
182.22845947683163
20
40.0914561923546
30
0.0
 70
     32
  0
VERTEX
  8
MY3DLAYER
10
182.69421706160486
20
40.253290330313135
30
0.0
 70
     32
  0
VERTEX
  8
MY3DLAYER
10
183.16471714329137
20
40.39585856127146
30
0.0
 70
     32
  0
VERTEX
  8
MY3DLAYER
10
183.6341425705047
20
40.5184444489143
30
0.0
 70
     32
  0
VERTEX
  8
MY3DLAYER
10
184.09667619185942
20
40.620331556926295
30
0.0
 70
     32
  0
VERTEX
  8
MY3DLAYER
10
184.5465008559686
20
40.70080344899225
30
0.0
 70
     32
  0
VERTEX
  8
MY3DLAYER
10
184.97779941144714
20
40.75914368879683
30
0.0
 70
     32
  0
VERTEX
  8
MY3DLAYER
10
185.38475470690796
20
40.794635840024775
30
0.0
 70
     32
  0
VERTEX
  8
MY3DLAYER
10
185.7615495909657
20
40.80656346636083
30
0.0
 70
     32
  0
VERTEX
  8
MY3DLAYER
10
186.04756559094312
20
40.80063058628251
30
0.0
 70
     32
  0
VERTEX
  8
MY3DLAYER
10
186.41570440145236
20
40.780219722332795
30
0.0
 70
     32
  0
VERTEX
  8
MY3DLAYER
10
186.84037419049199
20
40.741132194294316
30
0.0
 70
     32
  0
VERTEX
  8
MY3DLAYER
10
187.2959831260598
20
40.67916932194984
30
0.0
 70
     32
  0
VERTEX
  8
MY3DLAYER
10
187.75693937615495
20
40.59013242508201
30
0.0
 70
     32
  0
VERTEX
  8
MY3DLAYER
10
188.19765110877572
20
40.46982282347352
30
0.0
 70
     32
  0
VERTEX
  8
MY3DLAYER
10
188.59252649192058
20
40.31404183690713
30
0.0
 70
     32
  0
VERTEX
  8
MY3DLAYER
10
188.91597369358834
20
40.11859078516548
30
0.0
 70
     32
  0
VERTEX
  8
MY3DLAYER
10
189.14240088177715
20
39.87927098803124
30
0.0
 70
     32
  0
VERTEX
  8
MY3DLAYER
10
189.24621622448555
20
39.591883765287164
30
0.0
 70
     32
  0
VERTEX
  8
MY3DLAYER
10
189.20182788971212
20
39.2522304367159
30
0.0
 70
     32
  0
VERTEX
  8
MY3DLAYER
10
188.98364404545526
20
38.85611232210015
30
0.0
 70
     32
  0
VERTEX
  8
MY3DLAYER
10
189.0546058511186
20
38.847342034066656
30
0.0
 70
     32
  0
VERTEX
  8
MY3DLAYER
10
189.12546382543198
20
38.83828101825302
30
0.0
 70
     32
  0
VERTEX
  8
MY3DLAYER
10
189.19623873466537
20
38.82901233973933
30
0.0
 70
     32
  0
VERTEX
  8
MY3DLAYER
10
189.26695134508861
20
38.81961906360561
30
0.0
 70
     32
  0
VERTEX
  8
MY3DLAYER
10
189.337622422972
20
38.81018425493181
30
0.0
 70
     32
  0
VERTEX
  8
MY3DLAYER
10
189.4082727345853
20
38.80079097879805
30
0.0
 70
     32
  0
VERTEX
  8
MY3DLAYER
10
189.9235358091665
20
38.88045320264898
30
0.0
 70
     32
  0
VERTEX
  8
MY3DLAYER
10
190.43811359683747
20
38.9711280390637
30
0.0
 70
     32
  0
VERTEX
  8
MY3DLAYER
10
190.95269138450848
20
39.06845586923235
30
0.0
 70
     32
  0
VERTEX
  8
MY3DLAYER
10
191.46795445908964
20
39.16807707434505
30
0.0
 70
     32
  0
VERTEX
  8
MY3DLAYER
10
191.98458810749148
20
39.265632035591906
30
0.0
 70
     32
  0
VERTEX
  8
MY3DLAYER
10
192.50327761662402
20
39.35676113416306
30
0.0
 70
     32
  0
VERTEX
  8
MY3DLAYER
10
193.02470827339755
20
39.43710475124864
30
0.0
 70
     32
  0
VERTEX
  8
MY3DLAYER
10
193.54956536472292
20
39.50230326803881
30
0.0
 70
     32
  0
VERTEX
  8
MY3DLAYER
10
194.0785341775094
20
39.54799706572365
30
0.0
 70
     32
  0
VERTEX
  8
MY3DLAYER
10
194.61229999866802
20
39.56982652549336
30
0.0
 70
     32
  0
VERTEX
  8
MY3DLAYER
10
195.15154811510897
20
39.563432028537974
30
0.0
 70
     32
  0
VERTEX
  8
MY3DLAYER
10
195.69696381374226
20
39.52445395604769
30
0.0
 70
     32
  0
VERTEX
  8
MY3DLAYER
10
196.12666552958302
20
39.477615417728614
30
0.0
 70
     32
  0
VERTEX
  8
MY3DLAYER
10
196.6176433166507
20
39.41563697068162
30
0.0
 70
     32
  0
VERTEX
  8
MY3DLAYER
10
197.14062192580147
20
39.33549582472858
30
0.0
 70
     32
  0
VERTEX
  8
MY3DLAYER
10
197.66632610789063
20
39.23416918969149
30
0.0
 70
     32
  0
VERTEX
  8
MY3DLAYER
10
198.16548061377387
20
39.10863427539216
30
0.0
 70
     32
  0
VERTEX
  8
MY3DLAYER
10
198.6088101943077
20
38.95586829165259
30
0.0
 70
     32
  0
VERTEX
  8
MY3DLAYER
10
198.9670396003474
20
38.77284844829466
30
0.0
 70
     32
  0
VERTEX
  8
MY3DLAYER
10
199.21089358274884
20
38.55655195514029
30
0.0
 70
     32
  0
VERTEX
  8
MY3DLAYER
10
199.31109689236735
20
38.30395602201138
30
0.0
 70
     32
  0
VERTEX
  8
MY3DLAYER
10
199.23837428005967
20
38.01203785872986
30
0.0
 70
     32
  0
VERTEX
  8
MY3DLAYER
10
198.96345049668076
20
37.67777467511762
30
0.0
 70
     32
  0
VERTEX
  8
MY3DLAYER
10
198.45929305024796
20
37.298143680996624
30
0.0
 70
     32
  0
VERTEX
  8
MY3DLAYER
10
199.07712635659814
20
37.3552615229698
30
0.0
 70
     32
  0
VERTEX
  8
MY3DLAYER
10
199.6934359378868
20
37.435805015404206
30
0.0
 70
     32
  0
VERTEX
  8
MY3DLAYER
10
200.3088785274027
20
37.531115921598285
30
0.0
 70
     32
  0
VERTEX
  8
MY3DLAYER
10
200.9241108584343
20
37.63253600485046
30
0.0
 70
     32
  0
VERTEX
  8
MY3DLAYER
10
201.53978966427144
20
37.731407028459095
30
0.0
 70
     32
  0
VERTEX
  8
MY3DLAYER
10
202.1565716782024
20
37.81907075572258
30
0.0
 70
     32
  0
VERTEX
  8
MY3DLAYER
10
202.77511363351718
20
37.88686894993945
30
0.0
 70
     32
  0
VERTEX
  8
MY3DLAYER
10
203.39607226350375
20
37.92614337440796
30
0.0
 70
     32
  0
VERTEX
  8
MY3DLAYER
10
204.02010430145154
20
37.928235792426634
30
0.0
 70
     32
  0
VERTEX
  8
MY3DLAYER
10
204.64786648064964
20
37.88448796729379
30
0.0
 70
     32
  0
VERTEX
  8
MY3DLAYER
10
205.2800155343868
20
37.78624166230789
30
0.0
 70
     32
  0
VERTEX
  8
MY3DLAYER
10
205.91720819595272
20
37.62483864076737
30
0.0
 70
     32
  0
VERTEX
  8
MY3DLAYER
10
206.15351580235904
20
37.54129831599235
30
0.0
 70
     32
  0
VERTEX
  8
MY3DLAYER
10
206.4377805135663
20
37.420392982013034
30
0.0
 70
     32
  0
VERTEX
  8
MY3DLAYER
10
206.75089476538204
20
37.26746346389717
30
0.0
 70
     32
  0
VERTEX
  8
MY3DLAYER
10
207.07375099361562
20
37.08785058671243
30
0.0
 70
     32
  0
VERTEX
  8
MY3DLAYER
10
207.38724163407554
20
36.88689517552667
30
0.0
 70
     32
  0
VERTEX
  8
MY3DLAYER
10
207.6722591225702
20
36.66993805540766
30
0.0
 70
     32
  0
VERTEX
  8
MY3DLAYER
10
207.9096958949084
20
36.442320051423124
30
0.0
 70
     32
  0
VERTEX
  8
MY3DLAYER
10
208.08044438689885
20
36.20938198864085
30
0.0
 70
     32
  0
VERTEX
  8
MY3DLAYER
10
208.16539703434944
20
35.97646469212855
30
0.0
 70
     32
  0
VERTEX
  8
MY3DLAYER
10
208.1454462730696
20
35.74890898695407
30
0.0
 70
     32
  0
VERTEX
  8
MY3DLAYER
10
208.0014845388675
20
35.53205569818508
30
0.0
 70
     32
  0
VERTEX
  8
MY3DLAYER
10
207.76483601952862
20
35.318849918216934
30
0.0
 70
     32
  0
VERTEX
  8
MY3DLAYER
10
207.86553339332127
20
35.29372619255189
30
0.0
 70
     32
  0
VERTEX
  8
MY3DLAYER
10
207.96604387068405
20
35.26822867402668
30
0.0
 70
     32
  0
VERTEX
  8
MY3DLAYER
10
208.0664089841566
20
35.24244042772134
30
0.0
 70
     32
  0
VERTEX
  8
MY3DLAYER
10
208.216774949503
20
35.203394648538236
30
0.0
 70
     32
  0
VERTEX
  8
MY3DLAYER
10
208.31695835811325
20
35.17724299250773
30
0.0
 70
     32
  0
VERTEX
  8
MY3DLAYER
10
209.03942987062084
20
35.19944646145289
30
0.0
 70
     32
  0
VERTEX
  8
MY3DLAYER
10
209.81269048800178
20
35.23556852287109
30
0.0
 70
     32
  0
VERTEX
  8
MY3DLAYER
10
210.62005970387133
20
35.271835948179366
30
0.0
 70
     32
  0
VERTEX
  8
MY3DLAYER
10
211.4448570118453
20
35.2944755087947
30
0.0
 70
     32
  0
VERTEX
  8
MY3DLAYER
10
212.27040190553936
20
35.28971397613401
30
0.0
 70
     32
  0
VERTEX
  8
MY3DLAYER
10
213.0800138785695
20
35.24377812161438
30
0.0
 70
     32
  0
VERTEX
  8
MY3DLAYER
10
213.85701242455184
20
35.14289471665275
30
0.0
 70
     32
  0
VERTEX
  8
MY3DLAYER
10
214.58471703710205
20
34.97329053266611
30
0.0
 70
     32
  0
VERTEX
  8
MY3DLAYER
10
215.2464472098356
20
34.7211923410715
30
0.0
 70
     32
  0
VERTEX
  8
MY3DLAYER
10
215.82552243636846
20
34.37282691328582
30
0.0
 70
     32
  0
VERTEX
  8
MY3DLAYER
10
216.3052622103164
20
33.914421020726095
30
0.0
 70
     32
  0
VERTEX
  8
MY3DLAYER
10
216.668986025296
20
33.33220143480928
30
0.0
 70
     32
  0
VERTEX
  8
MY3DLAYER
10
216.73035814052193
20
33.1949422305678
30
0.0
 70
     32
  0
VERTEX
  8
MY3DLAYER
10
216.78374043336206
20
33.06506932898989
30
0.0
 70
     32
  0
VERTEX
  8
MY3DLAYER
10
216.82927307613892
20
32.942399727321096
30
0.0
 70
     32
  0
VERTEX
  8
MY3DLAYER
10
216.86709624117532
20
32.82675042280699
30
0.0
 70
     32
  0
VERTEX
  8
MY3DLAYER
10
216.89735010079377
20
32.71793841269316
30
0.0
 70
     32
  0
VERTEX
  8
MY3DLAYER
10
216.92017482731657
20
32.615780694225066
30
0.0
 70
     32
  0
VERTEX
  8
MY3DLAYER
10
216.9357105930666
20
32.52009426464832
30
0.0
 70
     32
  0
VERTEX
  8
MY3DLAYER
10
216.94409757036615
20
32.43069612120848
30
0.0
 70
     32
  0
VERTEX
  8
MY3DLAYER
10
216.94547593153814
20
32.34740326115109
30
0.0
 70
     32
  0
VERTEX
  8
MY3DLAYER
10
216.93998584890434
20
32.270032681721666
30
0.0
 70
     32
  0
VERTEX
  8
MY3DLAYER
10
216.92776749478838
20
32.198401380165826
30
0.0
 70
     32
  0
VERTEX
  8
MY3DLAYER
10
216.90896104151219
20
32.13232635372904
30
0.0
 70
     32
  0
VERTEX
  8
MY3DLAYER
10
217.20479429563625
20
32.01449723981002
30
0.0
 70
     32
  0
VERTEX
  8
MY3DLAYER
10
217.50060937927398
20
31.896940683184866
30
0.0
 70
     32
  0
VERTEX
  8
MY3DLAYER
10
217.79645042074912
20
31.779757919419822
30
0.0
 70
     32
  0
VERTEX
  8
MY3DLAYER
10
218.09236154838575
20
31.66305018408125
30
0.0
 70
     32
  0
VERTEX
  8
MY3DLAYER
10
218.38838689050735
20
31.54691871273538
30
0.0
 70
     32
  0
VERTEX
  8
MY3DLAYER
10
218.68457057543782
20
31.43146474094855
30
0.0
 70
     32
  0
VERTEX
  8
MY3DLAYER
10
218.98095673150075
20
31.316789504287012
30
0.0
 70
     32
  0
VERTEX
  8
MY3DLAYER
10
219.27758948702012
20
31.202994238317114
30
0.0
 70
     32
  0
VERTEX
  8
MY3DLAYER
10
219.5745129703196
20
31.090180178605042
30
0.0
 70
     32
  0
VERTEX
  8
MY3DLAYER
10
219.8717713097228
20
30.97844856071723
30
0.0
 70
     32
  0
VERTEX
  8
MY3DLAYER
10
220.16940863355407
20
30.867900620219842
30
0.0
 70
     32
  0
VERTEX
  8
MY3DLAYER
10
220.46746907013622
20
30.75863759267925
30
0.0
 70
     32
  0
VERTEX
  8
MY3DLAYER
10
219.33417670753158
20
30.837876920094075
30
0.0
 70
     32
  0
VERTEX
  8
MY3DLAYER
10
218.1771848392796
20
30.940418598241997
30
0.0
 70
     32
  0
VERTEX
  8
MY3DLAYER
10
217.00285313557077
20
31.061421490427318
30
0.0
 70
     32
  0
VERTEX
  8
MY3DLAYER
10
215.81754126659527
20
31.19604445995433
30
0.0
 70
     32
  0
VERTEX
  8
MY3DLAYER
10
214.62760890254285
20
31.339446370127344
30
0.0
 70
     32
  0
VERTEX
  8
MY3DLAYER
10
213.4394157136034
20
31.486786084250685
30
0.0
 70
     32
  0
VERTEX
  8
MY3DLAYER
10
212.25932136996718
20
31.633222465628684
30
0.0
 70
     32
  0
VERTEX
  8
MY3DLAYER
10
211.09368554182478
20
31.773914377565614
30
0.0
 70
     32
  0
VERTEX
  8
MY3DLAYER
10
209.94886789936533
20
31.90402068336585
30
0.0
 70
     32
  0
VERTEX
  8
MY3DLAYER
10
208.831228112779
20
32.01870024633361
30
0.0
 70
     32
  0
VERTEX
  8
MY3DLAYER
10
207.74712585225626
20
32.113111929773254
30
0.0
 70
     32
  0
VERTEX
  8
MY3DLAYER
10
206.70292078798715
20
32.182414596989126
30
0.0
 70
     32
  0
VERTEX
  8
MY3DLAYER
10
203.89243327344047
20
32.26408033326525
30
0.0
 70
     32
  0
VERTEX
  8
MY3DLAYER
10
200.9787711421412
20
32.217954337585844
30
0.0
 70
     32
  0
VERTEX
  8
MY3DLAYER
10
197.99538106772152
20
32.05169806569213
30
0.0
 70
     32
  0
VERTEX
  8
MY3DLAYER
10
194.97570972381348
20
31.77297297332523
30
0.0
 70
     32
  0
VERTEX
  8
MY3DLAYER
10
191.9532037840495
20
31.38944051622641
30
0.0
 70
     32
  0
VERTEX
  8
MY3DLAYER
10
188.96130992206145
20
30.908762150136827
30
0.0
 70
     32
  0
VERTEX
  8
MY3DLAYER
10
186.03347481148134
20
30.33859933079769
30
0.0
 70
     32
  0
VERTEX
  8
MY3DLAYER
10
183.2031451259417
20
29.686613513950206
30
0.0
 70
     32
  0
VERTEX
  8
MY3DLAYER
10
180.5037675390743
20
28.9604661553355
30
0.0
 70
     32
  0
VERTEX
  8
MY3DLAYER
10
177.96878872451174
20
28.167818710694775
30
0.0
 70
     32
  0
VERTEX
  8
MY3DLAYER
10
175.6316553558855
20
27.316332635769296
30
0.0
 70
     32
  0
VERTEX
  8
MY3DLAYER
10
173.52581410682834
20
26.413669386300217
30
0.0
 70
     32
  0
VERTEX
  8
MY3DLAYER
10
165.75161395945557
20
23.011293207679405
30
0.0
 70
     32
  0
VERTEX
  8
MY3DLAYER
10
158.8344325837583
20
20.433912914489397
30
0.0
 70
     32
  0
VERTEX
  8
MY3DLAYER
10
152.68908154859488
20
18.573428390310067
30
0.0
 70
     32
  0
VERTEX
  8
MY3DLAYER
10
147.23037242282382
20
17.321739518721287
30
0.0
 70
     32
  0
VERTEX
  8
MY3DLAYER
10
142.37311677530352
20
16.57074618330288
30
0.0
 70
     32
  0
VERTEX
  8
MY3DLAYER
10
138.03212617489214
20
16.21234826763474
30
0.0
 70
     32
  0
VERTEX
  8
MY3DLAYER
10
134.12221219044872
20
16.138445655296728
30
0.0
 70
     32
  0
VERTEX
  8
MY3DLAYER
10
130.5581863908309
20
16.2409382298687
30
0.0
 70
     32
  0
VERTEX
  8
MY3DLAYER
10
127.25486034489755
20
16.411725874930493
30
0.0
 70
     32
  0
VERTEX
  8
MY3DLAYER
10
124.12704562150688
20
16.542708474061964
30
0.0
 70
     32
  0
VERTEX
  8
MY3DLAYER
10
121.08955378951737
20
16.525785910843016
30
0.0
 70
     32
  0
VERTEX
  8
MY3DLAYER
10
118.05719641778745
20
16.25285806885345
30
0.0
 70
     32
  0
VERTEX
  8
MY3DLAYER
10
117.91950004029917
20
16.23300421683365
30
0.0
 70
     32
  0
VERTEX
  8
MY3DLAYER
10
117.78189451524234
20
16.212706485792395
30
0.0
 70
     32
  0
VERTEX
  8
MY3DLAYER
10
117.64437724683293
20
16.19198823778347
30
0.0
 70
     32
  0
VERTEX
  8
MY3DLAYER
10
117.50694563928722
20
16.170872834860656
30
0.0
 70
     32
  0
VERTEX
  8
MY3DLAYER
10
117.36959709682158
20
16.149383639077676
30
0.0
 70
     32
  0
VERTEX
  8
MY3DLAYER
10
117.23232902365231
20
16.127544012488308
30
0.0
 70
     32
  0
VERTEX
  8
MY3DLAYER
10
117.09513882399558
20
16.105377317146317
30
0.0
 70
     32
  0
VERTEX
  8
MY3DLAYER
10
116.95802390206748
20
16.082906915105443
30
0.0
 70
     32
  0
VERTEX
  8
MY3DLAYER
10
116.82098166208448
20
16.060156168419443
30
0.0
 70
     32
  0
VERTEX
  8
MY3DLAYER
10
116.6840095082629
20
16.03714843914213
30
0.0
 70
     32
  0
VERTEX
  8
MY3DLAYER
10
116.54710484481872
20
16.013907089327205
30
0.0
 70
     32
  0
VERTEX
  8
MY3DLAYER
10
116.4102650759683
20
15.99045548102843
30
0.0
 70
     32
  0
VERTEX
  8
MY3DLAYER
10
116.24130161793754
20
15.832766809720313
30
0.0
 70
     32
  0
VERTEX
  8
MY3DLAYER
10
116.0762084734795
20
15.673022277681383
30
0.0
 70
     32
  0
VERTEX
  8
MY3DLAYER
10
115.91689354365141
20
15.511907171821907
30
0.0
 70
     32
  0
VERTEX
  8
MY3DLAYER
10
115.7652647295103
20
15.350106779052158
30
0.0
 70
     32
  0
VERTEX
  8
MY3DLAYER
10
115.62322993211272
20
15.188306386282386
30
0.0
 70
     32
  0
VERTEX
  8
MY3DLAYER
10
115.49269705251596
20
15.027191280422901
30
0.0
 70
     32
  0
VERTEX
  8
MY3DLAYER
10
115.37557399177724
20
14.867446748383982
30
0.0
 70
     32
  0
VERTEX
  8
MY3DLAYER
10
115.27376865095343
20
14.709758077075849
30
0.0
 70
     32
  0
VERTEX
  8
MY3DLAYER
10
115.18918893110151
20
14.55481055340884
30
0.0
 70
     32
  0
VERTEX
  8
MY3DLAYER
10
115.1237427332784
20
14.403289464293195
30
0.0
 70
     32
  0
VERTEX
  8
MY3DLAYER
10
115.07933795854127
20
14.25588009663919
30
0.0
 70
     32
  0
VERTEX
  8
MY3DLAYER
10
115.05788250794696
20
14.113267737357123
30
0.0
 70
     32
  0
VERTEX
  8
MY3DLAYER
10
115.0618103613929
20
13.975181992306219
30
0.0
 70
     32
  0
VERTEX
  8
MY3DLAYER
10
115.08862004860437
20
13.825817566857063
30
0.0
 70
     32
  0
VERTEX
  8
MY3DLAYER
10
115.13449836325076
20
13.667227725956696
30
0.0
 70
     32
  0
VERTEX
  8
MY3DLAYER
10
115.19563209900217
20
13.50146573455224
30
0.0
 70
     32
  0
VERTEX
  8
MY3DLAYER
10
115.26820804952804
20
13.330584857590726
30
0.0
 70
     32
  0
VERTEX
  8
MY3DLAYER
10
115.3484130084982
20
13.156638360019226
30
0.0
 70
     32
  0
VERTEX
  8
MY3DLAYER
10
115.43243376958252
20
12.981679506784818
30
0.0
 70
     32
  0
VERTEX
  8
MY3DLAYER
10
115.51645712645055
20
12.807761562834576
30
0.0
 70
     32
  0
VERTEX
  8
MY3DLAYER
10
115.59666987277201
20
12.636937793115584
30
0.0
 70
     32
  0
VERTEX
  8
MY3DLAYER
10
115.66925880221673
20
12.471261462574914
30
0.0
 70
     32
  0
VERTEX
  8
MY3DLAYER
10
115.73041070845426
20
12.312785836159604
30
0.0
 70
     32
  0
VERTEX
  8
MY3DLAYER
10
115.7763123851546
20
12.163564178816749
30
0.0
 70
     32
  0
VERTEX
  8
MY3DLAYER
10
115.83133564595595
20
11.949822153188698
30
0.0
 70
     32
  0
VERTEX
  8
MY3DLAYER
10
115.88749845582397
20
11.728884615002773
30
0.0
 70
     32
  0
VERTEX
  8
MY3DLAYER
10
115.94404025011987
20
11.502090988674503
30
0.0
 70
     32
  0
VERTEX
  8
MY3DLAYER
10
116.00020046420418
20
11.270780698619431
30
0.0
 70
     32
  0
VERTEX
  8
MY3DLAYER
10
116.055218533438
20
11.036293169253073
30
0.0
 70
     32
  0
VERTEX
  8
MY3DLAYER
10
116.10833389318239
20
10.79996782499099
30
0.0
 70
     32
  0
VERTEX
  8
MY3DLAYER
10
116.15878597879825
20
10.563144090248699
30
0.0
 70
     32
  0
VERTEX
  8
MY3DLAYER
10
116.20581422564648
20
10.327161389441745
30
0.0
 70
     32
  0
VERTEX
  8
MY3DLAYER
10
116.24865806908797
20
10.093359146985668
30
0.0
 70
     32
  0
VERTEX
  8
MY3DLAYER
10
116.28655694448373
20
9.863076787296007
30
0.0
 70
     32
  0
VERTEX
  8
MY3DLAYER
10
116.31875028719476
20
9.63765373478828
30
0.0
 70
     32
  0
VERTEX
  8
MY3DLAYER
10
116.34447753258188
20
9.418429413878032
30
0.0
 70
     32
  0
VERTEX
  8
MY3DLAYER
10
116.36597365045483
20
9.092527898673836
30
0.0
 70
     32
  0
VERTEX
  8
MY3DLAYER
10
116.36331600052452
20
8.775124979470553
30
0.0
 70
     32
  0
VERTEX
  8
MY3DLAYER
10
116.33783102828743
20
8.465374430765333
30
0.0
 70
     32
  0
VERTEX
  8
MY3DLAYER
10
116.29084517924052
20
8.16243002705533
30
0.0
 70
     32
  0
VERTEX
  8
MY3DLAYER
10
116.22368489888053
20
7.86544554283771
30
0.0
 70
     32
  0
VERTEX
  8
MY3DLAYER
10
116.13767663270426
20
7.573574752609637
30
0.0
 70
     32
  0
VERTEX
  8
MY3DLAYER
10
116.03414682620837
20
7.285971430868287
30
0.0
 70
     32
  0
VERTEX
  8
MY3DLAYER
10
115.91442192488991
20
7.00178935211079
30
0.0
 70
     32
  0
VERTEX
  8
MY3DLAYER
10
115.77982837424533
20
6.720182290834332
30
0.0
 70
     32
  0
VERTEX
  8
MY3DLAYER
10
115.63169261977158
20
6.440304021536061
30
0.0
 70
     32
  0
VERTEX
  8
MY3DLAYER
10
115.47134110696558
20
6.161308318713144
30
0.0
 70
     32
  0
VERTEX
  8
MY3DLAYER
10
115.30010028132403
20
5.882348956862753
30
0.0
 70
     32
  0
VERTEX
  8
MY3DLAYER
10
115.14809853958377
20
5.655253354358101
30
0.0
 70
     32
  0
VERTEX
  8
MY3DLAYER
10
114.9800055343708
20
5.425754056099997
30
0.0
 70
     32
  0
VERTEX
  8
MY3DLAYER
10
114.79988366725564
20
5.193658974090849
30
0.0
 70
     32
  0
VERTEX
  8
MY3DLAYER
10
114.61179533980851
20
4.958776020333092
30
0.0
 70
     32
  0
VERTEX
  8
MY3DLAYER
10
114.41980295359964
20
4.720913106829141
30
0.0
 70
     32
  0
VERTEX
  8
MY3DLAYER
10
114.22796891019985
20
4.479878145581418
30
0.0
 70
     32
  0
VERTEX
  8
MY3DLAYER
10
114.04035561117922
20
4.2354790485923495
30
0.0
 70
     32
  0
VERTEX
  8
MY3DLAYER
10
113.86102545810796
20
3.9875237278643567
30
0.0
 70
     32
  0
VERTEX
  8
MY3DLAYER
10
113.69404085255672
20
3.735820095399867
30
0.0
 70
     32
  0
VERTEX
  8
MY3DLAYER
10
113.54346419609593
20
3.4801760632012937
30
0.0
 70
     32
  0
VERTEX
  8
MY3DLAYER
10
113.41335789029563
20
3.2203995432710704
30
0.0
 70
     32
  0
VERTEX
  8
MY3DLAYER
10
113.30778433672661
20
2.956298447611614
30
0.0
 70
     32
  0
VERTEX
  8
MY3DLAYER
10
113.28468921606284
20
2.7750733724022085
30
0.0
 70
     32
  0
VERTEX
  8
MY3DLAYER
10
113.26444167017414
20
2.5814015141065685
30
0.0
 70
     32
  0
VERTEX
  8
MY3DLAYER
10
113.24770881548436
20
2.3771648159441994
30
0.0
 70
     32
  0
VERTEX
  8
MY3DLAYER
10
113.23515776841741
20
2.1642452211346064
30
0.0
 70
     32
  0
VERTEX
  8
MY3DLAYER
10
113.22745564539754
20
1.9445246728972916
30
0.0
 70
     32
  0
VERTEX
  8
MY3DLAYER
10
113.22526956284842
20
1.7198851144517564
30
0.0
 70
     32
  0
VERTEX
  8
MY3DLAYER
10
113.22926663719447
20
1.4922084890175065
30
0.0
 70
     32
  0
VERTEX
  8
MY3DLAYER
10
113.24011398485949
20
1.2633767398140434
30
0.0
 70
     32
  0
VERTEX
  8
MY3DLAYER
10
113.25847872226743
20
1.0352718100608707
30
0.0
 70
     32
  0
VERTEX
  8
MY3DLAYER
10
113.28502796584247
20
0.8097756429774934
30
0.0
 70
     32
  0
VERTEX
  8
MY3DLAYER
10
113.32042883200845
20
0.588770181783412
30
0.0
 70
     32
  0
VERTEX
  8
MY3DLAYER
10
113.36534843718957
20
0.3741373696981326
30
0.0
 70
     32
  0
VERTEX
  8
MY3DLAYER
10
113.19309395799318
20
0.41962631678196405
30
0.0
 70
     32
  0
VERTEX
  8
MY3DLAYER
10
113.02577146792362
20
0.500067492073535
30
0.0
 70
     32
  0
VERTEX
  8
MY3DLAYER
10
112.86441928048157
20
0.6104795865546012
30
0.0
 70
     32
  0
VERTEX
  8
MY3DLAYER
10
112.7100757091673
20
0.7458812912069197
30
0.0
 70
     32
  0
VERTEX
  8
MY3DLAYER
10
112.56377906748124
20
0.9012912970122461
30
0.0
 70
     32
  0
VERTEX
  8
MY3DLAYER
10
112.42656766892384
20
1.071728294952337
30
0.0
 70
     32
  0
VERTEX
  8
MY3DLAYER
10
112.29947982699541
20
1.2522109760089493
30
0.0
 70
     32
  0
VERTEX
  8
MY3DLAYER
10
112.18355385519669
20
1.4377580311638387
30
0.0
 70
     32
  0
VERTEX
  8
MY3DLAYER
10
112.07982806702758
20
1.6233881513987585
30
0.0
 70
     32
  0
VERTEX
  8
MY3DLAYER
10
111.98934077598884
20
1.8041200276954692
30
0.0
 70
     32
  0
VERTEX
  8
MY3DLAYER
10
111.9131302955808
20
1.974972351035727
30
0.0
 70
     32
  0
VERTEX
  8
MY3DLAYER
10
111.85223493930397
20
2.130963812401286
30
0.0
 70
     32
  0
VERTEX
  8
MY3DLAYER
10
111.64244499443691
20
2.051028382310542
30
0.0
 70
     32
  0
VERTEX
  8
MY3DLAYER
10
111.44773914894701
20
1.9489405336884313
30
0.0
 70
     32
  0
VERTEX
  8
MY3DLAYER
10
111.26831208661606
20
1.8266263380782268
30
0.0
 70
     32
  0
VERTEX
  8
MY3DLAYER
10
111.10435849122463
20
1.6860118670231985
30
0.0
 70
     32
  0
VERTEX
  8
MY3DLAYER
10
110.9560730465547
20
1.5290231920666153
30
0.0
 70
     32
  0
VERTEX
  8
MY3DLAYER
10
110.82365043638717
20
1.3575863847517498
30
0.0
 70
     32
  0
VERTEX
  8
MY3DLAYER
10
110.70728534450386
20
1.1736275166218724
30
0.0
 70
     32
  0
VERTEX
  8
MY3DLAYER
10
110.60717245468557
20
0.9790726592202528
30
0.0
 70
     32
  0
VERTEX
  8
MY3DLAYER
10
110.52350645071408
20
0.7758478840901645
30
0.0
 70
     32
  0
VERTEX
  8
MY3DLAYER
10
110.45648201637037
20
0.5658792627748755
30
0.0
 70
     32
  0
VERTEX
  8
MY3DLAYER
10
110.4062938354359
20
0.3510928668176591
30
0.0
 70
     32
  0
VERTEX
  8
MY3DLAYER
10
110.373136591692
20
0.1334147677617853
30
0.0
 70
     32
  0
VERTEX
  8
MY3DLAYER
10
110.23085411326154
20
0.2204985536722647
30
0.0
 70
     32
  0
VERTEX
  8
MY3DLAYER
10
110.11244895166513
20
0.3438428428010075
30
0.0
 70
     32
  0
VERTEX
  8
MY3DLAYER
10
110.01549275120345
20
0.4973137981443075
30
0.0
 70
     32
  0
VERTEX
  8
MY3DLAYER
10
109.93755715617763
20
0.6747775826984611
30
0.0
 70
     32
  0
VERTEX
  8
MY3DLAYER
10
109.87621381088842
20
0.8701003594597629
30
0.0
 70
     32
  0
VERTEX
  8
MY3DLAYER
10
109.8290343596367
20
1.0771482914245065
30
0.0
 70
     32
  0
VERTEX
  8
MY3DLAYER
10
109.79359044672339
20
1.289787541588989
30
0.0
 70
     32
  0
VERTEX
  8
MY3DLAYER
10
109.76745371644958
20
1.501884272949506
30
0.0
 70
     32
  0
VERTEX
  8
MY3DLAYER
10
109.74819581311588
20
1.7073046485023464
30
0.0
 70
     32
  0
VERTEX
  8
MY3DLAYER
10
109.73338838102336
20
1.899914831243813
30
0.0
 70
     32
  0
VERTEX
  8
MY3DLAYER
10
109.72060306447301
20
2.073580984170196
30
0.0
 70
     32
  0
VERTEX
  8
MY3DLAYER
10
109.70741150776543
20
2.222169270277792
30
0.0
 70
     32
  0
VERTEX
  8
MY3DLAYER
10
109.5573591996222
20
2.1786955166460142
30
0.0
 70
     32
  0
VERTEX
  8
MY3DLAYER
10
109.3805158073847
20
2.0964744989624826
30
0.0
 70
     32
  0
VERTEX
  8
MY3DLAYER
10
109.18399637431416
20
1.9794024886375012
30
0.0
 70
     32
  0
VERTEX
  8
MY3DLAYER
10
108.97491594367234
20
1.8313757570813778
30
0.0
 70
     32
  0
VERTEX
  8
MY3DLAYER
10
108.76038955872086
20
1.6562905757044282
30
0.0
 70
     32
  0
VERTEX
  8
MY3DLAYER
10
108.54753226272132
20
1.4580432159169583
30
0.0
 70
     32
  0
VERTEX
  8
MY3DLAYER
10
108.34345909893534
20
1.2405299491292732
30
0.0
 70
     32
  0
VERTEX
  8
MY3DLAYER
10
108.15528511062422
20
1.007647046751689
30
0.0
 70
     32
  0
VERTEX
  8
MY3DLAYER
10
107.99012534105002
20
0.7632907801945119
30
0.0
 70
     32
  0
VERTEX
  8
MY3DLAYER
10
107.85509483347411
20
0.5113574208680537
30
0.0
 70
     32
  0
VERTEX
  8
MY3DLAYER
10
107.7573086311581
20
0.2557432401826212
30
0.0
 70
     32
  0
VERTEX
  8
MY3DLAYER
10
107.70388177736355
20
0.0003445095485249994
30
0.0
 70
     32
  0
VERTEX
  8
MY3DLAYER
10
107.49569321475558
20
0.03191572942053614
30
0.0
 70
     32
  0
VERTEX
  8
MY3DLAYER
10
107.32565358804469
20
0.13199227826621607
30
0.0
 70
     32
  0
VERTEX
  8
MY3DLAYER
10
107.19067002089166
20
0.2889943647721795
30
0.0
 70
     32
  0
VERTEX
  8
MY3DLAYER
10
107.08764963695698
20
0.49134219762504266
30
0.0
 70
     32
  0
VERTEX
  8
MY3DLAYER
10
107.01349955990126
20
0.7274559855114205
30
0.0
 70
     32
  0
VERTEX
  8
MY3DLAYER
10
106.96512691338535
20
0.9857559371179274
30
0.0
 70
     32
  0
VERTEX
  8
MY3DLAYER
10
106.93943882106986
20
1.2546622611311802
30
0.0
 70
     32
  0
VERTEX
  8
MY3DLAYER
10
106.93334240661524
20
1.522595166237794
30
0.0
 70
     32
  0
VERTEX
  8
MY3DLAYER
10
106.9437447936822
20
1.7779748611243804
30
0.0
 70
     32
  0
VERTEX
  8
MY3DLAYER
10
106.96755310593143
20
2.009221554477561
30
0.0
 70
     32
  0
VERTEX
  8
MY3DLAYER
10
107.00167446702353
20
2.2047554549839465
30
0.0
 70
     32
  0
VERTEX
  8
MY3DLAYER
10
107.04301600061903
20
2.3529967713301514
30
0.0
 70
     32
  0
VERTEX
  8
MY3DLAYER
10
106.82351003717194
20
2.3500129179083333
30
0.0
 70
     32
  0
VERTEX
  8
MY3DLAYER
10
106.59103813388825
20
2.309003428317544
30
0.0
 70
     32
  0
VERTEX
  8
MY3DLAYER
10
106.3491279608858
20
2.2351468911411083
30
0.0
 70
     32
  0
VERTEX
  8
MY3DLAYER
10
106.10130718828223
20
2.133621894962349
30
0.0
 70
     32
  0
VERTEX
  8
MY3DLAYER
10
105.85110348619507
20
2.009607028364589
30
0.0
 70
     32
  0
VERTEX
  8
MY3DLAYER
10
105.60204452474237
20
1.8682808799311499
30
0.0
 70
     32
  0
VERTEX
  8
MY3DLAYER
10
105.35765797404153
20
1.7148220382453534
30
0.0
 70
     32
  0
VERTEX
  8
MY3DLAYER
10
105.12147150421006
20
1.5544090918905256
30
0.0
 70
     32
  0
VERTEX
  8
MY3DLAYER
10
104.89701278536582
20
1.392220629449986
30
0.0
 70
     32
  0
VERTEX
  8
MY3DLAYER
10
104.68780948762647
20
1.2334352395070591
30
0.0
 70
     32
  0
VERTEX
  8
MY3DLAYER
10
104.4973892811095
20
1.0832315106450663
30
0.0
 70
     32
  0
VERTEX
  8
MY3DLAYER
10
104.32927983593294
20
0.9467880314473318
30
0.0
 70
     32
  0
VERTEX
  8
MY3DLAYER
10
104.33483308263769
20
1.2612620413181972
30
0.0
 70
     32
  0
VERTEX
  8
MY3DLAYER
10
104.36520202200239
20
1.5805330595609821
30
0.0
 70
     32
  0
VERTEX
  8
MY3DLAYER
10
104.41908357058394
20
1.903043615925063
30
0.0
 70
     32
  0
VERTEX
  8
MY3DLAYER
10
104.49517464493927
20
2.227236240159819
30
0.0
 70
     32
  0
VERTEX
  8
MY3DLAYER
10
104.59217216162575
20
2.5515534620146205
30
0.0
 70
     32
  0
VERTEX
  8
MY3DLAYER
10
104.70877303719978
20
2.8744378112388547
30
0.0
 70
     32
  0
VERTEX
  8
MY3DLAYER
10
104.84367418821887
20
3.1943318175818853
30
0.0
 70
     32
  0
VERTEX
  8
MY3DLAYER
10
104.99557253123957
20
3.509678010793101
30
0.0
 70
     32
  0
VERTEX
  8
MY3DLAYER
10
105.16316498281925
20
3.8189189206218677
30
0.0
 70
     32
  0
VERTEX
  8
MY3DLAYER
10
105.3451484595145
20
4.120497076817579
30
0.0
 70
     32
  0
VERTEX
  8
MY3DLAYER
10
105.54021987788269
20
4.4128550091295935
30
0.0
 70
     32
  0
VERTEX
  8
MY3DLAYER
10
105.74707615448048
20
4.69443524730729
30
0.0
 70
     32
  0
VERTEX
  8
MY3DLAYER
10
105.69865656754158
20
4.787753240526514
30
0.0
 70
     32
  0
VERTEX
  8
MY3DLAYER
10
105.65140248750704
20
4.879480018306354
30
0.0
 70
     32
  0
VERTEX
  8
MY3DLAYER
10
105.60542034151064
20
4.969301490812926
30
0.0
 70
     32
  0
VERTEX
  8
MY3DLAYER
10
105.56081655668584
20
5.056903568212364
30
0.0
 70
     32
  0
VERTEX
  8
MY3DLAYER
10
105.51769756016672
20
5.1419721606707895
30
0.0
 70
     32
  0
VERTEX
  8
MY3DLAYER
10
105.47616977908694
20
5.224193178354321
30
0.0
 70
     32
  0
VERTEX
  8
MY3DLAYER
10
105.43633964058037
20
5.303252531429087
30
0.0
 70
     32
  0
VERTEX
  8
MY3DLAYER
10
105.39831357178079
20
5.378836130061218
30
0.0
 70
     32
  0
VERTEX
  8
MY3DLAYER
10
105.36219799982204
20
5.450629884416824
30
0.0
 70
     32
  0
VERTEX
  8
MY3DLAYER
10
105.3280993518377
20
5.518319704662045
30
0.0
 70
     32
  0
VERTEX
  8
MY3DLAYER
10
105.29612405496175
20
5.581591500962991
30
0.0
 70
     32
  0
VERTEX
  8
MY3DLAYER
10
105.26637853632799
20
5.640131183485799
30
0.0
 70
     32
  0
VERTEX
  8
MY3DLAYER
10
105.179140733915
20
5.825699870171944
30
0.0
 70
     32
  0
VERTEX
  8
MY3DLAYER
10
105.09642738257993
20
6.027224839575734
30
0.0
 70
     32
  0
VERTEX
  8
MY3DLAYER
10
105.01844874080685
20
6.2417858349772315
30
0.0
 70
     32
  0
VERTEX
  8
MY3DLAYER
10
104.94541506707964
20
6.466462599656532
30
0.0
 70
     32
  0
VERTEX
  8
MY3DLAYER
10
104.87753661988177
20
6.698334876893714
30
0.0
 70
     32
  0
VERTEX
  8
MY3DLAYER
10
104.81502365769728
20
6.93448240996885
30
0.0
 70
     32
  0
VERTEX
  8
MY3DLAYER
10
104.75808643901023
20
7.171984942162033
30
0.0
 70
     32
  0
VERTEX
  8
MY3DLAYER
10
104.70693522230405
20
7.407922216753345
30
0.0
 70
     32
  0
VERTEX
  8
MY3DLAYER
10
104.66178026606289
20
7.639373977022859
30
0.0
 70
     32
  0
VERTEX
  8
MY3DLAYER
10
104.62283182877047
20
7.863419966250658
30
0.0
 70
     32
  0
VERTEX
  8
MY3DLAYER
10
104.59030016891053
20
8.07713992771682
30
0.0
 70
     32
  0
VERTEX
  8
MY3DLAYER
10
104.56439554496708
20
8.27761360470143
30
0.0
 70
     32
  0
VERTEX
  8
MY3DLAYER
10
104.5389164132434
20
8.555981127856592
30
0.0
 70
     32
  0
VERTEX
  8
MY3DLAYER
10
104.52914307110542
20
8.821053046638939
30
0.0
 70
     32
  0
VERTEX
  8
MY3DLAYER
10
104.53498855979745
20
9.074516620486627
30
0.0
 70
     32
  0
VERTEX
  8
MY3DLAYER
10
104.55636592056388
20
9.318059108837852
30
0.0
 70
     32
  0
VERTEX
  8
MY3DLAYER
10
104.59318819464897
20
9.553367771130787
30
0.0
 70
     32
  0
VERTEX
  8
MY3DLAYER
10
104.64536842329689
20
9.782129866803604
30
0.0
 70
     32
  0
VERTEX
  8
MY3DLAYER
10
104.71281964775245
20
10.006032655294465
30
0.0
 70
     32
  0
VERTEX
  8
MY3DLAYER
10
104.7954549092596
20
10.226763396041575
30
0.0
 70
     32
  0
VERTEX
  8
MY3DLAYER
10
104.89318724906263
20
10.446009348483065
30
0.0
 70
     32
  0
VERTEX
  8
MY3DLAYER
10
105.0059297084063
20
10.665457772057145
30
0.0
 70
     32
  0
VERTEX
  8
MY3DLAYER
10
105.13359532853454
20
10.886795926201987
30
0.0
 70
     32
  0
VERTEX
  8
MY3DLAYER
10
105.27609715069188
20
11.11171107035575
30
0.0
 70
     32
  0
VERTEX
  8
MY3DLAYER
10
105.44614824211446
20
11.379207451161564
30
0.0
 70
     32
  0
VERTEX
  8
MY3DLAYER
10
105.59134989568813
20
11.62823742636249
30
0.0
 70
     32
  0
VERTEX
  8
MY3DLAYER
10
105.71346984014751
20
11.86179653040722
30
0.0
 70
     32
  0
VERTEX
  8
MY3DLAYER
10
105.81427580422731
20
12.08288029774446
30
0.0
 70
     32
  0
VERTEX
  8
MY3DLAYER
10
105.89553551666171
20
12.294484262822904
30
0.0
 70
     32
  0
VERTEX
  8
MY3DLAYER
10
105.95901670618532
20
12.499603960091257
30
0.0
 70
     32
  0
VERTEX
  8
MY3DLAYER
10
106.00648710153234
20
12.701234923998186
30
0.0
 70
     32
  0
VERTEX
  8
MY3DLAYER
10
106.03971443143766
20
12.902372688992457
30
0.0
 70
     32
  0
VERTEX
  8
MY3DLAYER
10
106.06046642463521
20
13.106012789522705
30
0.0
 70
     32
  0
VERTEX
  8
MY3DLAYER
10
106.07051080985983
20
13.315150760037664
30
0.0
 70
     32
  0
VERTEX
  8
MY3DLAYER
10
106.07161531584588
20
13.53278213498602
30
0.0
 70
     32
  0
VERTEX
  8
MY3DLAYER
10
106.06554767132786
20
13.761902448816471
30
0.0
 70
     32
  0
VERTEX
  8
MY3DLAYER
10
105.617690827617
20
13.664920939463283
30
0.0
 70
     32
  0
VERTEX
  8
MY3DLAYER
10
105.16951600039668
20
13.569603327494514
30
0.0
 70
     32
  0
VERTEX
  8
MY3DLAYER
10
104.72098555080252
20
13.476149488258978
30
0.0
 70
     32
  0
VERTEX
  8
MY3DLAYER
10
104.27206183997014
20
13.384759297105532
30
0.0
 70
     32
  0
VERTEX
  8
MY3DLAYER
10
103.82270722903495
20
13.295632629382963
30
0.0
 70
     32
  0
VERTEX
  8
MY3DLAYER
10
103.37288407913259
20
13.20896936044017
30
0.0
 70
     32
  0
VERTEX
  8
MY3DLAYER
10
102.92255475139895
20
13.124969365625924
30
0.0
 70
     32
  0
VERTEX
  8
MY3DLAYER
10
102.47168160696943
20
13.043832520289065
30
0.0
 70
     32
  0
VERTEX
  8
MY3DLAYER
10
102.02022700697974
20
12.965758699778439
30
0.0
 70
     32
  0
VERTEX
  8
MY3DLAYER
10
101.56815331256533
20
12.890947779442868
30
0.0
 70
     32
  0
VERTEX
  8
MY3DLAYER
10
101.11542288486193
20
12.819599634631192
30
0.0
 70
     32
  0
VERTEX
  8
MY3DLAYER
10
100.66199808500524
20
12.751914140692238
30
0.0
 70
     32
  0
VERTEX
  8
MY3DLAYER
10
100.5890219511509
20
12.741897876458218
30
0.0
 70
     32
  0
VERTEX
  8
MY3DLAYER
10
100.51590045340677
20
12.732587665404505
30
0.0
 70
     32
  0
VERTEX
  8
MY3DLAYER
10
100.4426751243124
20
12.72369277975093
30
0.0
 70
     32
  0
VERTEX
  8
MY3DLAYER
10
100.36938749640804
20
12.714922491717429
30
0.0
 70
     32
  0
VERTEX
  8
MY3DLAYER
10
100.29607910223365
20
12.70598607352386
30
0.0
 70
     32
  0
VERTEX
  8
MY3DLAYER
10
100.22279147432938
20
12.696592797390084
30
0.0
 70
     32
  0
VERTEX
  8
MY3DLAYER
10
100.06315596520795
20
12.509172884258827
30
0.0
 70
     32
  0
VERTEX
  8
MY3DLAYER
10
99.89704137984407
20
12.320169543039434
30
0.0
 70
     32
  0
VERTEX
  8
MY3DLAYER
10
99.72686179712588
20
12.12933877005931
30
0.0
 70
     32
  0
VERTEX
  8
MY3DLAYER
10
99.55503129594214
20
11.936436561645838
30
0.0
 70
     32
  0
VERTEX
  8
MY3DLAYER
10
99.38396395518119
20
11.741218914126447
30
0.0
 70
     32
  0
VERTEX
  8
MY3DLAYER
10
99.2160738537314
20
11.543441823828552
30
0.0
 70
     32
  0
VERTEX
  8
MY3DLAYER
10
99.05377507048149
20
11.342861287079524
30
0.0
 70
     32
  0
VERTEX
  8
MY3DLAYER
10
98.89948168431978
20
11.13923330020676
30
0.0
 70
     32
  0
VERTEX
  8
MY3DLAYER
10
98.75560777413476
20
10.932313859537704
30
0.0
 70
     32
  0
VERTEX
  8
MY3DLAYER
10
98.62456741881476
20
10.721858961399727
30
0.0
 70
     32
  0
VERTEX
  8
MY3DLAYER
10
98.50877469724844
20
10.507624602120222
30
0.0
 70
     32
  0
VERTEX
  8
MY3DLAYER
10
98.41064368832403
20
10.289366778026622
30
0.0
 70
     32
  0
VERTEX
  8
MY3DLAYER
10
98.37850074708092
20
10.109584093321534
30
0.0
 70
     32
  0
VERTEX
  8
MY3DLAYER
10
98.34855773256672
20
9.917224836342669
30
0.0
 70
     32
  0
VERTEX
  8
MY3DLAYER
10
98.32158169888
20
9.714134609337014
30
0.0
 70
     32
  0
VERTEX
  8
MY3DLAYER
10
98.29833970011919
20
9.502159014551545
30
0.0
 70
     32
  0
VERTEX
  8
MY3DLAYER
10
98.2795987903824
20
9.283143654233253
30
0.0
 70
     32
  0
VERTEX
  8
MY3DLAYER
10
98.26612602376876
20
9.058934130629147
30
0.0
 70
     32
  0
VERTEX
  8
MY3DLAYER
10
98.25868845437607
20
8.831376045986193
30
0.0
 70
     32
  0
VERTEX
  8
MY3DLAYER
10
98.25805313630308
20
8.60231500255139
30
0.0
 70
     32
  0
VERTEX
  8
MY3DLAYER
10
98.26498712364796
20
8.373596602571725
30
0.0
 70
     32
  0
VERTEX
  8
MY3DLAYER
10
98.28025747050938
20
8.147066448294181
30
0.0
 70
     32
  0
VERTEX
  8
MY3DLAYER
10
98.30463123098569
20
7.924570141965744
30
0.0
 70
     32
  0
VERTEX
  8
MY3DLAYER
10
98.33887545917537
20
7.707953285833428
30
0.0
 70
     32
  0
VERTEX
  8
MY3DLAYER
10
98.169157277019
20
7.761750471443084
30
0.0
 70
     32
  0
VERTEX
  8
MY3DLAYER
10
98.00610117385965
20
7.8502610731553855
30
0.0
 70
     32
  0
VERTEX
  8
MY3DLAYER
10
97.85049756584955
20
7.968451866277063
30
0.0
 70
     32
  0
VERTEX
  8
MY3DLAYER
10
97.70313686914092
20
8.11128962611486
30
0.0
 70
     32
  0
VERTEX
  8
MY3DLAYER
10
97.56480949988592
20
8.273741127975503
30
0.0
 70
     32
  0
VERTEX
  8
MY3DLAYER
10
97.43630587423658
20
8.450773147165737
30
0.0
 70
     32
  0
VERTEX
  8
MY3DLAYER
10
97.31841640834536
20
8.637352458992286
30
0.0
 70
     32
  0
VERTEX
  8
MY3DLAYER
10
97.21193151836438
20
8.828445838761903
30
0.0
 70
     32
  0
VERTEX
  8
MY3DLAYER
10
97.11764162044565
20
9.019020061781301
30
0.0
 70
     32
  0
VERTEX
  8
MY3DLAYER
10
97.0363371307416
20
9.204041903357224
30
0.0
 70
     32
  0
VERTEX
  8
MY3DLAYER
10
96.96880846540418
20
9.378478138796412
30
0.0
 70
     32
  0
VERTEX
  8
MY3DLAYER
10
96.91584604058578
20
9.537295543405605
30
0.0
 70
     32
  0
VERTEX
  8
MY3DLAYER
10
96.70227966299164
20
9.468012344567876
30
0.0
 70
     32
  0
VERTEX
  8
MY3DLAYER
10
96.5026630272755
20
9.375823949910975
30
0.0
 70
     32
  0
VERTEX
  8
MY3DLAYER
10
96.31728686121754
20
9.262651239410683
30
0.0
 70
     32
  0
VERTEX
  8
MY3DLAYER
10
96.14644189259796
20
9.130415093042759
30
0.0
 70
     32
  0
VERTEX
  8
MY3DLAYER
10
95.99041884919671
20
8.981036390782966
30
0.0
 70
     32
  0
VERTEX
  8
MY3DLAYER
10
95.84950845879395
20
8.816436012607086
30
0.0
 70
     32
  0
VERTEX
  8
MY3DLAYER
10
95.72400144917003
20
8.638534838490882
30
0.0
 70
     32
  0
VERTEX
  8
MY3DLAYER
10
95.61418854810492
20
8.449253748410129
30
0.0
 70
     32
  0
VERTEX
  8
MY3DLAYER
10
95.52036048337855
20
8.250513622340582
30
0.0
 70
     32
  0
VERTEX
  8
MY3DLAYER
10
95.44280798277121
20
8.044235340258023
30
0.0
 70
     32
  0
VERTEX
  8
MY3DLAYER
10
95.38182177406308
20
7.832339782138217
30
0.0
 70
     32
  0
VERTEX
  8
MY3DLAYER
10
95.3376925850342
20
7.6167478279569245
30
0.0
 70
     32
  0
VERTEX
  8
MY3DLAYER
10
95.20011128729223
20
7.710987757038396
30
0.0
 70
     32
  0
VERTEX
  8
MY3DLAYER
10
95.08813739625421
20
7.840192893246359
30
0.0
 70
     32
  0
VERTEX
  8
MY3DLAYER
10
94.99904793476541
20
7.99836697611592
30
0.0
 70
     32
  0
VERTEX
  8
MY3DLAYER
10
94.930119925671
20
8.179513745182161
30
0.0
 70
     32
  0
VERTEX
  8
MY3DLAYER
10
94.87863039181609
20
8.377636939980217
30
0.0
 70
     32
  0
VERTEX
  8
MY3DLAYER
10
94.84185635604567
20
8.58674030004515
30
0.0
 70
     32
  0
VERTEX
  8
MY3DLAYER
10
94.81707484120513
20
8.800827564912092
30
0.0
 70
     32
  0
VERTEX
  8
MY3DLAYER
10
94.80156287013962
20
9.013902474116128
30
0.0
 70
     32
  0
VERTEX
  8
MY3DLAYER
10
94.79259746569409
20
9.219968767192347
30
0.0
 70
     32
  0
VERTEX
  8
MY3DLAYER
10
94.787455650714
20
9.413030183675877
30
0.0
 70
     32
  0
VERTEX
  8
MY3DLAYER
10
94.78341444804425
20
9.587090463101786
30
0.0
 70
     32
  0
VERTEX
  8
MY3DLAYER
10
94.77775088053008
20
9.7361533450052
30
0.0
 70
     32
  0
VERTEX
  8
MY3DLAYER
10
94.62565850267387
20
9.700376955456507
30
0.0
 70
     32
  0
VERTEX
  8
MY3DLAYER
10
94.44487622490934
20
9.627182343136583
30
0.0
 70
     32
  0
VERTEX
  8
MY3DLAYER
10
94.24270728481999
20
9.520112752865606
30
0.0
 70
     32
  0
VERTEX
  8
MY3DLAYER
10
94.02645491998929
20
9.38271142946373
30
0.0
 70
     32
  0
VERTEX
  8
MY3DLAYER
10
93.80342236800097
20
9.218521617751138
30
0.0
 70
     32
  0
VERTEX
  8
MY3DLAYER
10
93.58091286643854
20
9.031086562548008
30
0.0
 70
     32
  0
VERTEX
  8
MY3DLAYER
10
93.36622965288544
20
8.823949508674465
30
0.0
 70
     32
  0
VERTEX
  8
MY3DLAYER
10
93.16667596492523
20
8.600653700950726
30
0.0
 70
     32
  0
VERTEX
  8
MY3DLAYER
10
92.98955504014157
20
8.364742384196926
30
0.0
 70
     32
  0
VERTEX
  8
MY3DLAYER
10
92.84217011611777
20
8.119758803233255
30
0.0
 70
     32
  0
VERTEX
  8
MY3DLAYER
10
92.73182443043775
20
7.869246202879861
30
0.0
 70
     32
  0
VERTEX
  8
MY3DLAYER
10
92.66582122068475
20
7.6167478279569245
30
0.0
 70
     32
  0
VERTEX
  8
MY3DLAYER
10
92.45942872411716
20
7.658673196581198
30
0.0
 70
     32
  0
VERTEX
  8
MY3DLAYER
10
92.29457915070117
20
7.767123311177112
30
0.0
 70
     32
  0
VERTEX
  8
MY3DLAYER
10
92.16760206221282
20
7.930687106375076
30
0.0
 70
     32
  0
VERTEX
  8
MY3DLAYER
10
92.07482702042824
20
8.137953516805531
30
0.0
 70
     32
  0
VERTEX
  8
MY3DLAYER
10
92.01258358712329
20
8.377511477098919
30
0.0
 70
     32
  0
VERTEX
  8
MY3DLAYER
10
91.97720132407416
20
8.637949921885655
30
0.0
 70
     32
  0
VERTEX
  8
MY3DLAYER
10
91.96500979305681
20
8.907857785796178
30
0.0
 70
     32
  0
VERTEX
  8
MY3DLAYER
10
91.97233855584716
20
9.175824003460924
30
0.0
 70
     32
  0
VERTEX
  8
MY3DLAYER
10
91.99551717422145
20
9.430437509510337
30
0.0
 70
     32
  0
VERTEX
  8
MY3DLAYER
10
92.03087520995561
20
9.660287238574835
30
0.0
 70
     32
  0
VERTEX
  8
MY3DLAYER
10
92.07474222482563
20
9.853962125284841
30
0.0
 70
     32
  0
VERTEX
  8
MY3DLAYER
10
92.12344778060768
20
10.00005110427082
30
0.0
 70
     32
  0
VERTEX
  8
MY3DLAYER
10
91.90403872642044
20
10.008111012817794
30
0.0
 70
     32
  0
VERTEX
  8
MY3DLAYER
10
91.66978438496112
20
9.978807210052326
30
0.0
 70
     32
  0
VERTEX
  8
MY3DLAYER
10
91.42446681315481
20
9.917139175478894
30
0.0
 70
     32
  0
VERTEX
  8
MY3DLAYER
10
91.17186806792685
20
9.828106388601999
30
0.0
 70
     32
  0
VERTEX
  8
MY3DLAYER
10
90.91577020620242
20
9.716708328926169
30
0.0
 70
     32
  0
VERTEX
  8
MY3DLAYER
10
90.65995528490691
20
9.587944475955883
30
0.0
 70
     32
  0
VERTEX
  8
MY3DLAYER
10
90.40820536096554
20
9.44681430919564
30
0.0
 70
     32
  0
VERTEX
  8
MY3DLAYER
10
90.1643024913035
20
9.298317308149954
30
0.0
 70
     32
  0
VERTEX
  8
MY3DLAYER
10
89.93202873284618
20
9.147452952323318
30
0.0
 70
     32
  0
VERTEX
  8
MY3DLAYER
10
89.71516614251883
20
8.999220721220254
30
0.0
 70
     32
  0
VERTEX
  8
MY3DLAYER
10
89.51749677724655
20
8.858620094345223
30
0.0
 70
     32
  0
VERTEX
  8
MY3DLAYER
10
89.34280269395478
20
8.730650551202757
30
0.0
 70
     32
  0
VERTEX
  8
MY3DLAYER
10
89.3630872297619
20
9.0351303610015
30
0.0
 70
     32
  0
VERTEX
  8
MY3DLAYER
10
89.407020653433
20
9.3428782625428
30
0.0
 70
     32
  0
VERTEX
  8
MY3DLAYER
10
89.47333232882166
20
9.652552235627372
30
0.0
 70
     32
  0
VERTEX
  8
MY3DLAYER
10
89.560751619782
20
9.962810260055917
30
0.0
 70
     32
  0
VERTEX
  8
MY3DLAYER
10
89.66800789016776
20
10.272310315629168
30
0.0
 70
     32
  0
VERTEX
  8
MY3DLAYER
10
89.79383050383285
20
10.579710382147821
30
0.0
 70
     32
  0
VERTEX
  8
MY3DLAYER
10
89.93694882463099
20
10.883668439412617
30
0.0
 70
     32
  0
VERTEX
  8
MY3DLAYER
10
90.0960922164163
20
11.182842467224228
30
0.0
 70
     32
  0
VERTEX
  8
MY3DLAYER
10
90.26999004304247
20
11.475890445383392
30
0.0
 70
     32
  0
VERTEX
  8
MY3DLAYER
10
90.45737166836335
20
11.761470353690818
30
0.0
 70
     32
  0
VERTEX
  8
MY3DLAYER
10
90.65696645623287
20
12.038240171947223
30
0.0
 70
     32
  0
VERTEX
  8
MY3DLAYER
10
90.8675037705051
20
12.304857879953293
30
0.0
 70
     32
  0
VERTEX
  8
MY3DLAYER
10
89.76517781015816
20
12.342603171477162
30
0.0
 70
     32
  0
VERTEX
  8
MY3DLAYER
10
88.66260005878753
20
12.39101713421778
30
0.0
 70
     32
  0
VERTEX
  8
MY3DLAYER
10
87.55998596644433
20
12.448184079766904
30
0.0
 70
     32
  0
VERTEX
  8
MY3DLAYER
10
86.45755098318004
20
12.512188319716273
30
0.0
 70
     32
  0
VERTEX
  8
MY3DLAYER
10
85.35551055904578
20
12.581114165657631
30
0.0
 70
     32
  0
VERTEX
  8
MY3DLAYER
10
84.25408014409305
20
12.653045929182664
30
0.0
 70
     32
  0
VERTEX
  8
MY3DLAYER
10
83.1534751883732
20
12.726067921883136
30
0.0
 70
     32
  0
VERTEX
  8
MY3DLAYER
10
82.05391114193746
20
12.798264455350784
30
0.0
 70
     32
  0
VERTEX
  8
MY3DLAYER
10
80.95560345483729
20
12.867719841177337
30
0.0
 70
     32
  0
VERTEX
  8
MY3DLAYER
10
79.85876757712386
20
12.932518390954513
30
0.0
 70
     32
  0
VERTEX
  8
MY3DLAYER
10
78.76361895884858
20
12.990744416274058
30
0.0
 70
     32
  0
VERTEX
  8
MY3DLAYER
10
77.67037305006303
20
13.040482228727738
30
0.0
 70
     32
  0
VERTEX
  8
MY3DLAYER
10
75.63549879823668
20
13.120168896209002
30
0.0
 70
     32
  0
VERTEX
  8
MY3DLAYER
10
73.53777802601391
20
13.200828982596912
30
0.0
 70
     32
  0
VERTEX
  8
MY3DLAYER
10
71.3884686475231
20
13.292126590796574
30
0.0
 70
     32
  0
VERTEX
  8
MY3DLAYER
10
69.19882857689232
20
13.403725823713112
30
0.0
 70
     32
  0
VERTEX
  8
MY3DLAYER
10
66.98011572824993
20
13.545290784251648
30
0.0
 70
     32
  0
VERTEX
  8
MY3DLAYER
10
64.74358801572416
20
13.726485575317293
30
0.0
 70
     32
  0
VERTEX
  8
MY3DLAYER
10
62.50050335344327
20
13.956974299815176
30
0.0
 70
     32
  0
VERTEX
  8
MY3DLAYER
10
60.2621196555355
20
14.246421060650398
30
0.0
 70
     32
  0
VERTEX
  8
MY3DLAYER
10
58.039694836129044
20
14.604489960728095
30
0.0
 70
     32
  0
VERTEX
  8
MY3DLAYER
10
55.8444868093524
20
15.040845102953371
30
0.0
 70
     32
  0
VERTEX
  8
MY3DLAYER
10
53.68775348933352
20
15.565150590231347
30
0.0
 70
     32
  0
VERTEX
  8
MY3DLAYER
10
51.58075279020089
20
16.18707052546714
30
0.0
 70
     32
  0
VERTEX
  8
MY3DLAYER
10
51.41069650721094
20
16.089145448720448
30
0.0
 70
     32
  0
VERTEX
  8
MY3DLAYER
10
51.24194071188023
20
15.989652518588125
30
0.0
 70
     32
  0
VERTEX
  8
MY3DLAYER
10
51.07441531804757
20
15.888456754315126
30
0.0
 70
     32
  0
VERTEX
  8
MY3DLAYER
10
50.90805023955162
20
15.785423175146386
30
0.0
 70
     32
  0
VERTEX
  8
MY3DLAYER
10
50.74277539023108
20
15.680416800326851
30
0.0
 70
     32
  0
VERTEX
  8
MY3DLAYER
10
50.57852068392476
20
15.57330264910148
30
0.0
 70
     32
  0
VERTEX
  8
MY3DLAYER
10
50.41521603447123
20
15.463945740715209
30
0.0
 70
     32
  0
VERTEX
  8
MY3DLAYER
10
50.252791355709384
20
15.352211094412988
30
0.0
 70
     32
  0
VERTEX
  8
MY3DLAYER
10
50.091176561477816
20
15.237963729439766
30
0.0
 70
     32
  0
VERTEX
  8
MY3DLAYER
10
49.930301565615274
20
15.121068665040475
30
0.0
 70
     32
  0
VERTEX
  8
MY3DLAYER
10
49.77009628196061
20
15.001390920460064
30
0.0
 70
     32
  0
VERTEX
  8
MY3DLAYER
10
49.61049062435226
20
14.878795514943512
30
0.0
 70
     32
  0
VERTEX
  8
MY3DLAYER
10
48.99701325945142
20
13.76043323521339
30
0.0
 70
     32
  0
VERTEX
  8
MY3DLAYER
10
48.3177470532724
20
12.796852348990212
30
0.0
 70
     32
  0
VERTEX
  8
MY3DLAYER
10
47.5765843835498
20
11.975686542484043
30
0.0
 70
     32
  0
VERTEX
  8
MY3DLAYER
10
46.777417628018405
20
11.284569501904938
30
0.0
 70
     32
  0
VERTEX
  8
MY3DLAYER
10
45.924139164412786
20
10.711134913462931
30
0.0
 70
     32
  0
VERTEX
  8
MY3DLAYER
10
45.020641370467764
20
10.24301646336807
30
0.0
 70
     32
  0
VERTEX
  8
MY3DLAYER
10
44.0708166239179
20
9.867847837830404
30
0.0
 70
     32
  0
VERTEX
  8
MY3DLAYER
10
43.07855730249795
20
9.57326272306001
30
0.0
 70
     32
  0
VERTEX
  8
MY3DLAYER
10
42.04775578394251
20
9.346894805266892
30
0.0
 70
     32
  0
VERTEX
  8
MY3DLAYER
10
40.982304445986436
20
9.176377770661155
30
0.0
 70
     32
  0
VERTEX
  8
MY3DLAYER
10
39.886095666364234
20
9.049345305452801
30
0.0
 70
     32
  0
VERTEX
  8
MY3DLAYER
10
38.76302182281069
20
8.953431095851919
30
0.0
 70
     32
  0
VERTEX
  8
MY3DLAYER
10
38.2829521680107
20
8.92481301262734
30
0.0
 70
     32
  0
VERTEX
  8
MY3DLAYER
10
37.80608960403518
20
8.909700792259416
30
0.0
 70
     32
  0
VERTEX
  8
MY3DLAYER
10
37.331996741321994
20
8.906555134983789
30
0.0
 70
     32
  0
VERTEX
  8
MY3DLAYER
10
36.86023619030913
20
8.913836741036071
30
0.0
 70
     32
  0
VERTEX
  8
MY3DLAYER
10
36.390370561434494
20
8.930006310651919
30
0.0
 70
     32
  0
VERTEX
  8
MY3DLAYER
10
35.921962465136055
20
8.953524544066951
30
0.0
 70
     32
  0
VERTEX
  8
MY3DLAYER
10
35.45457451185185
20
8.982852141516815
30
0.0
 70
     32
  0
VERTEX
  8
MY3DLAYER
10
34.987769312019665
20
9.016449803237146
30
0.0
 70
     32
  0
VERTEX
  8
MY3DLAYER
10
34.52110947607759
20
9.052778229463557
30
0.0
 70
     32
  0
VERTEX
  8
MY3DLAYER
10
34.0541576144635
20
9.090298120431699
30
0.0
 70
     32
  0
VERTEX
  8
MY3DLAYER
10
33.58647633761537
20
9.127470176377196
30
0.0
 70
     32
  0
VERTEX
  8
MY3DLAYER
10
33.11762825597115
20
9.162755097535703
30
0.0
 70
     32
  0
VERTEX
  8
MY3DLAYER
10
33.00719301575164
20
9.082641423627383
30
0.0
 70
     32
  0
VERTEX
  8
MY3DLAYER
10
32.900992796721944
20
8.99749712080955
30
0.0
 70
     32
  0
VERTEX
  8
MY3DLAYER
10
32.79887055396516
20
8.907431211999757
30
0.0
 70
     32
  0
VERTEX
  8
MY3DLAYER
10
32.70066924256425
20
8.812552720115532
30
0.0
 70
     32
  0
VERTEX
  8
MY3DLAYER
10
32.60623181760242
20
8.712970668074426
30
0.0
 70
     32
  0
VERTEX
  8
MY3DLAYER
10
32.51540123416261
20
8.608794078793984
30
0.0
 70
     32
  0
VERTEX
  8
MY3DLAYER
10
32.428020447327945
20
8.500131975191747
30
0.0
 70
     32
  0
VERTEX
  8
MY3DLAYER
10
32.34393241218151
20
8.387093380185245
30
0.0
 70
     32
  0
VERTEX
  8
MY3DLAYER
10
32.26298008380628
20
8.269787316692044
30
0.0
 70
     32
  0
VERTEX
  8
MY3DLAYER
10
32.18500641728539
20
8.14832280762968
30
0.0
 70
     32
  0
VERTEX
  8
MY3DLAYER
10
32.10985436770186
20
8.0228088759157
30
0.0
 70
     32
  0
VERTEX
  8
MY3DLAYER
10
32.037366890138806
20
7.893354544467637
30
0.0
 70
     32
  0
VERTEX
  8
MY3DLAYER
10
31.980340333227538
20
7.788007256715474
30
0.0
 70
     32
  0
VERTEX
  8
MY3DLAYER
10
31.92432742987104
20
7.684030542783854
30
0.0
 70
     32
  0
VERTEX
  8
MY3DLAYER
10
31.869516374391278
20
7.581050609812631
30
0.0
 70
     32
  0
VERTEX
  8
MY3DLAYER
10
31.816095361110214
20
7.47869366494167
30
0.0
 70
     32
  0
VERTEX
  8
MY3DLAYER
10
31.764252584349816
20
7.376585915310808
30
0.0
 70
     32
  0
VERTEX
  8
MY3DLAYER
10
31.714176238431964
20
7.274353568059882
30
0.0
 70
     32
  0
VERTEX
  8
MY3DLAYER
10
31.66605451767862
20
7.171622830328761
30
0.0
 70
     32
  0
VERTEX
  8
MY3DLAYER
10
31.620075616411786
20
7.068019909257306
30
0.0
 70
     32
  0
VERTEX
  8
MY3DLAYER
10
31.576427728953377
20
6.963171011985328
30
0.0
 70
     32
  0
VERTEX
  8
MY3DLAYER
10
31.535299049625337
20
6.8567023456527245
30
0.0
 70
     32
  0
VERTEX
  8
MY3DLAYER
10
31.49687777274968
20
6.748240117399313
30
0.0
 70
     32
  0
VERTEX
  8
MY3DLAYER
10
31.461352092648244
20
6.637410534364953
30
0.0
 70
     32
  0
VERTEX
  8
MY3DLAYER
10
31.304507051059225
20
6.703462847693891
30
0.0
 70
     32
  0
VERTEX
  8
MY3DLAYER
10
31.167114812900486
20
6.787426068904996
30
0.0
 70
     32
  0
VERTEX
  8
MY3DLAYER
10
31.047633482623905
20
6.887337785482481
30
0.0
 70
     32
  0
VERTEX
  8
MY3DLAYER
10
30.944521164681387
20
7.00123558491057
30
0.0
 70
     32
  0
VERTEX
  8
MY3DLAYER
10
30.8562359635248
20
7.127157054673464
30
0.0
 70
     32
  0
VERTEX
  8
MY3DLAYER
10
30.781235983606035
20
7.263139782255395
30
0.0
 70
     32
  0
VERTEX
  8
MY3DLAYER
10
30.71797932937697
20
7.407221355140555
30
0.0
 70
     32
  0
VERTEX
  8
MY3DLAYER
10
30.664924105289476
20
7.557439360813187
30
0.0
 70
     32
  0
VERTEX
  8
MY3DLAYER
10
30.62052841579548
20
7.71183138675748
30
0.0
 70
     32
  0
VERTEX
  8
MY3DLAYER
10
30.583250365346824
20
7.868435020457661
30
0.0
 70
     32
  0
VERTEX
  8
MY3DLAYER
10
30.55154805839536
20
8.02528784939794
30
0.0
 70
     32
  0
VERTEX
  8
MY3DLAYER
10
30.52387959939306
20
8.180427461062528
30
0.0
 70
     32
  0
VERTEX
  8
MY3DLAYER
10
30.30322738110443
20
8.138794550740869
30
0.0
 70
     32
  0
VERTEX
  8
MY3DLAYER
10
30.09353845548831
20
8.072698974349414
30
0.0
 70
     32
  0
VERTEX
  8
MY3DLAYER
10
29.89534106453804
20
7.983999313053912
30
0.0
 70
     32
  0
VERTEX
  8
MY3DLAYER
10
29.709163450246947
20
7.8745541480201116
30
0.0
 70
     32
  0
VERTEX
  8
MY3DLAYER
10
29.53553385460839
20
7.746222060413747
30
0.0
 70
     32
  0
VERTEX
  8
MY3DLAYER
10
29.374980519615704
20
7.600861631400566
30
0.0
 70
     32
  0
VERTEX
  8
MY3DLAYER
10
29.22803168726218
20
7.44033144214631
30
0.0
 70
     32
  0
VERTEX
  8
MY3DLAYER
10
29.095215599541227
20
7.2664900738167395
30
0.0
 70
     32
  0
VERTEX
  8
MY3DLAYER
10
28.97706049844614
20
7.0811961075775685
30
0.0
 70
     32
  0
VERTEX
  8
MY3DLAYER
10
28.874094625970248
20
6.88630812459457
30
0.0
 70
     32
  0
VERTEX
  8
MY3DLAYER
10
28.786846224106867
20
6.683684706033472
30
0.0
 70
     32
  0
VERTEX
  8
MY3DLAYER
10
28.715843534849363
20
6.4751844330600274
30
0.0
 70
     32
  0
VERTEX
  8
MY3DLAYER
10
28.591275982627952
20
6.586030888688763
30
0.0
 70
     32
  0
VERTEX
  8
MY3DLAYER
10
28.496543070949087
20
6.728314881326333
30
0.0
 70
     32
  0
VERTEX
  8
MY3DLAYER
10
28.428180726397066
20
6.896437305421749
30
0.0
 70
     32
  0
VERTEX
  8
MY3DLAYER
10
28.382724875556033
20
7.084799055424014
30
0.0
 70
     32
  0
VERTEX
  8
MY3DLAYER
10
28.356711445010312
20
7.287801025782142
30
0.0
 70
     32
  0
VERTEX
  8
MY3DLAYER
10
28.346676361344148
20
7.4998441109451335
30
0.0
 70
     32
  0
VERTEX
  8
MY3DLAYER
10
28.349155551141678
20
7.715329205362006
30
0.0
 70
     32
  0
VERTEX
  8
MY3DLAYER
10
28.360684940987227
20
7.928657203481765
30
0.0
 70
     32
  0
VERTEX
  8
MY3DLAYER
10
28.377800457465003
20
8.134228999753415
30
0.0
 70
     32
  0
VERTEX
  8
MY3DLAYER
10
28.39703802715929
20
8.326445488625973
30
0.0
 70
     32
  0
VERTEX
  8
MY3DLAYER
10
28.414933576654242
20
8.499707564548446
30
0.0
 70
     32
  0
VERTEX
  8
MY3DLAYER
10
28.428023032534174
20
8.648416121969841
30
0.0
 70
     32
  0
VERTEX
  8
MY3DLAYER
10
28.272708854412336
20
8.632120656842064
30
0.0
 70
     32
  0
VERTEX
  8
MY3DLAYER
10
28.084201091574066
20
8.582344772893395
30
0.0
 70
     32
  0
VERTEX
  8
MY3DLAYER
10
27.870189753381833
20
8.501679062307362
30
0.0
 70
     32
  0
VERTEX
  8
MY3DLAYER
10
27.638364849198116
20
8.392714117267499
30
0.0
 70
     32
  0
VERTEX
  8
MY3DLAYER
10
27.39641638838536
20
8.258040529957345
30
0.0
 70
     32
  0
VERTEX
  8
MY3DLAYER
10
27.152034380305963
20
8.100248892560437
30
0.0
 70
     32
  0
VERTEX
  8
MY3DLAYER
10
26.912908834322433
20
7.921929797260321
30
0.0
 70
     32
  0
VERTEX
  8
MY3DLAYER
10
26.686729759797238
20
7.725673836240521
30
0.0
 70
     32
  0
VERTEX
  8
MY3DLAYER
10
26.481187166092788
20
7.514071601684578
30
0.0
 70
     32
  0
VERTEX
  8
MY3DLAYER
10
26.303971062571566
20
7.2897136857760305
30
0.0
 70
     32
  0
VERTEX
  8
MY3DLAYER
10
26.162771458595945
20
7.0551906806984075
30
0.0
 70
     32
  0
VERTEX
  8
MY3DLAYER
10
26.065278363528495
20
6.813093178635273
30
0.0
 70
     32
  0
VERTEX
  8
MY3DLAYER
10
25.865908543584027
20
6.880731083205467
30
0.0
 70
     32
  0
VERTEX
  8
MY3DLAYER
10
25.716140257446295
20
7.009123306468726
30
0.0
 70
     32
  0
VERTEX
  8
MY3DLAYER
10
25.610892258422584
20
7.187411684994461
30
0.0
 70
     32
  0
VERTEX
  8
MY3DLAYER
10
25.54508329982028
20
7.404738055352071
30
0.0
 70
     32
  0
VERTEX
  8
MY3DLAYER
10
25.5136321349468
20
7.650244254110956
30
0.0
 70
     32
  0
VERTEX
  8
MY3DLAYER
10
25.51145751710933
20
7.913072117840526
30
0.0
 70
     32
  0
VERTEX
  8
MY3DLAYER
10
25.533478199615324
20
8.182363483110182
30
0.0
 70
     32
  0
VERTEX
  8
MY3DLAYER
10
25.574612935772137
20
8.44726018648933
30
0.0
 70
     32
  0
VERTEX
  8
MY3DLAYER
10
25.629780478887035
20
8.696904064547374
30
0.0
 70
     32
  0
VERTEX
  8
MY3DLAYER
10
25.693899582267385
20
8.920436953853711
30
0.0
 70
     32
  0
VERTEX
  8
MY3DLAYER
10
25.761888999220552
20
9.107000690977765
30
0.0
 70
     32
  0
VERTEX
  8
MY3DLAYER
10
25.828667483053835
20
9.245737112488913
30
0.0
 70
     32
  0
VERTEX
  8
MY3DLAYER
10
25.61207680107429
20
9.281417890669442
30
0.0
 70
     32
  0
VERTEX
  8
MY3DLAYER
10
25.37602682620518
20
9.281925799023396
30
0.0
 70
     32
  0
VERTEX
  8
MY3DLAYER
10
25.124903135093692
20
9.251741160305066
30
0.0
 70
     32
  0
VERTEX
  8
MY3DLAYER
10
24.863091304387343
20
9.195344297268752
30
0.0
 70
     32
  0
VERTEX
  8
MY3DLAYER
10
24.59497691073349
20
9.117215532668716
30
0.0
 70
     32
  0
VERTEX
  8
MY3DLAYER
10
24.324945530779473
20
9.021835189259296
30
0.0
 70
     32
  0
VERTEX
  8
MY3DLAYER
10
24.057382741172688
20
8.913683589794758
30
0.0
 70
     32
  0
VERTEX
  8
MY3DLAYER
10
23.796674118560542
20
8.79724105702941
30
0.0
 70
     32
  0
VERTEX
  8
MY3DLAYER
10
23.547205239590376
20
8.676987913717516
30
0.0
 70
     32
  0
VERTEX
  8
MY3DLAYER
10
23.31336168090959
20
8.557404482613412
30
0.0
 70
     32
  0
VERTEX
  8
MY3DLAYER
10
23.099529019165576
20
8.442971086471365
30
0.0
 70
     32
  0
VERTEX
  8
MY3DLAYER
10
22.91009283100568
20
8.338168048045668
30
0.0
 70
     32
  0
VERTEX
  8
MY3DLAYER
10
23.009349761131975
20
8.7962992201584
30
0.0
 70
     32
  0
VERTEX
  8
MY3DLAYER
10
23.162460118849175
20
9.25390863973718
30
0.0
 70
     32
  0
VERTEX
  8
MY3DLAYER
10
23.364373806869676
20
9.706705476241536
30
0.0
 70
     32
  0
VERTEX
  8
MY3DLAYER
10
23.61004072790583
20
10.150398899130996
30
0.0
 70
     32
  0
VERTEX
  8
MY3DLAYER
10
23.89441078466995
20
10.58069807786511
30
0.0
 70
     32
  0
VERTEX
  8
MY3DLAYER
10
24.212433879874425
20
10.993312181903365
30
0.0
 70
     32
  0
VERTEX
  8
MY3DLAYER
10
24.559059916231597
20
11.383950380705341
30
0.0
 70
     32
  0
VERTEX
  8
MY3DLAYER
10
24.929238796453827
20
11.748321843730547
30
0.0
 70
     32
  0
VERTEX
  8
MY3DLAYER
10
25.31792042325348
20
12.082135740438535
30
0.0
 70
     32
  0
VERTEX
  8
MY3DLAYER
10
25.720054699342864
20
12.381101240288812
30
0.0
 70
     32
  0
VERTEX
  8
MY3DLAYER
10
26.130591527434355
20
12.640927512740939
30
0.0
 70
     32
  0
VERTEX
  8
MY3DLAYER
10
26.544480810240316
20
12.857323727254418
30
0.0
 70
     32
  0
VERTEX
  8
MY3DLAYER
10
26.931822147363164
20
13.017486180477288
30
0.0
 70
     32
  0
VERTEX
  8
MY3DLAYER
10
27.32965174873208
20
13.146327906960094
30
0.0
 70
     32
  0
VERTEX
  8
MY3DLAYER
10
27.736044840695662
20
13.250156661217899
30
0.0
 70
     32
  0
VERTEX
  8
MY3DLAYER
10
28.149076649602538
20
13.33528019776572
30
0.0
 70
     32
  0
VERTEX
  8
MY3DLAYER
10
28.566822401801307
20
13.408006271118575
30
0.0
 70
     32
  0
VERTEX
  8
MY3DLAYER
10
28.98735732364057
20
13.474642635791504
30
0.0
 70
     32
  0
VERTEX
  8
MY3DLAYER
10
29.408756641468887
20
13.541497046299508
30
0.0
 70
     32
  0
VERTEX
  8
MY3DLAYER
10
29.829095581634945
20
13.61487725715764
30
0.0
 70
     32
  0
VERTEX
  8
MY3DLAYER
10
30.246449370487316
20
13.701091022880878
30
0.0
 70
     32
  0
VERTEX
  8
MY3DLAYER
10
30.65889323437459
20
13.806446097984312
30
0.0
 70
     32
  0
VERTEX
  8
MY3DLAYER
10
31.064502399645352
20
13.937250236982901
30
0.0
 70
     32
  0
VERTEX
  8
MY3DLAYER
10
31.461352092648244
20
14.099811194391723
30
0.0
 70
     32
  0
VERTEX
  8
MY3DLAYER
10
31.860007585880634
20
14.293926931708802
30
0.0
 70
     32
  0
VERTEX
  8
MY3DLAYER
10
32.25162461147207
20
14.503822438448433
30
0.0
 70
     32
  0
VERTEX
  8
MY3DLAYER
10
32.63684303011719
20
14.7275846219861
30
0.0
 70
     32
  0
VERTEX
  8
MY3DLAYER
10
33.01630270251062
20
14.963300389697336
30
0.0
 70
     32
  0
VERTEX
  8
MY3DLAYER
10
33.39064348934701
20
15.209056648957562
30
0.0
 70
     32
  0
VERTEX
  8
MY3DLAYER
10
33.76050525132099
20
15.462940307142311
30
0.0
 70
     32
  0
VERTEX
  8
MY3DLAYER
10
34.126527849127164
20
15.723038271627061
30
0.0
 70
     32
  0
VERTEX
  8
MY3DLAYER
10
34.48935114346022
20
15.987437449787235
30
0.0
 70
     32
  0
VERTEX
  8
MY3DLAYER
10
34.849614995014704
20
16.254224748998393
30
0.0
 70
     32
  0
VERTEX
  8
MY3DLAYER
10
35.20795926448534
20
16.521487076635985
30
0.0
 70
     32
  0
VERTEX
  8
MY3DLAYER
10
35.56502381256667
20
16.7873113400755
30
0.0
 70
     32
  0
VERTEX
  8
MY3DLAYER
10
35.9214484999534
20
17.04978444669243
30
0.0
 70
     32
  0
VERTEX
  8
MY3DLAYER
10
36.30656460145563
20
17.311359844762116
30
0.0
 70
     32
  0
VERTEX
  8
MY3DLAYER
10
36.703364325621315
20
17.544921544590597
30
0.0
 70
     32
  0
VERTEX
  8
MY3DLAYER
10
37.110541993223656
20
17.753542954139103
30
0.0
 70
     32
  0
VERTEX
  8
MY3DLAYER
10
37.526791925035916
20
17.940297481368845
30
0.0
 70
     32
  0
VERTEX
  8
MY3DLAYER
10
37.950808441831235
20
18.108258534241063
30
0.0
 70
     32
  0
VERTEX
  8
MY3DLAYER
10
38.38128586438287
20
18.26049952071701
30
0.0
 70
     32
  0
VERTEX
  8
MY3DLAYER
10
38.81691851346413
20
18.400093848757884
30
0.0
 70
     32
  0
VERTEX
  8
MY3DLAYER
10
39.25640070984817
20
18.530114926324913
30
0.0
 70
     32
  0
VERTEX
  8
MY3DLAYER
10
39.69842677430818
20
18.653636161379346
30
0.0
 70
     32
  0
VERTEX
  8
MY3DLAYER
10
40.14169102761746
20
18.773730961882418
30
0.0
 70
     32
  0
VERTEX
  8
MY3DLAYER
10
40.58488779054921
20
18.893472735795342
30
0.0
 70
     32
  0
VERTEX
  8
MY3DLAYER
10
41.02671138387666
20
19.01593489107937
30
0.0
 70
     32
  0
VERTEX
  8
MY3DLAYER
10
41.20362291543781
20
19.06474471084201
30
0.0
 70
     32
  0
VERTEX
  8
MY3DLAYER
10
41.38040076413577
20
19.11105479085242
30
0.0
 70
     32
  0
VERTEX
  8
MY3DLAYER
10
41.5570825688349
20
19.15495079197438
30
0.0
 70
     32
  0
VERTEX
  8
MY3DLAYER
10
41.73370596839963
20
19.196518375071626
30
0.0
 70
     32
  0
VERTEX
  8
MY3DLAYER
10
41.91030860169443
20
19.235843201007988
30
0.0
 70
     32
  0
VERTEX
  8
MY3DLAYER
10
42.08692810758354
20
19.273010930647256
30
0.0
 70
     32
  0
VERTEX
  8
MY3DLAYER
10
42.26360212493143
20
19.308107224853167
30
0.0
 70
     32
  0
VERTEX
  8
MY3DLAYER
10
42.440368292602514
20
19.341217744489544
30
0.0
 70
     32
  0
VERTEX
  8
MY3DLAYER
10
42.61726424946115
20
19.372428150420152
30
0.0
 70
     32
  0
VERTEX
  8
MY3DLAYER
10
42.794327634371705
20
19.401824103508805
30
0.0
 70
     32
  0
VERTEX
  8
MY3DLAYER
10
42.97159608619857
20
19.42949126461925
30
0.0
 70
     32
  0
VERTEX
  8
MY3DLAYER
10
43.14910724380618
20
19.455515294615306
30
0.0
 70
     32
  0
VERTEX
  8
MY3DLAYER
10
43.19450577108935
20
19.495353220473117
30
0.0
 70
     32
  0
VERTEX
  8
MY3DLAYER
10
43.240080811667575
20
19.53524046622222
30
0.0
 70
     32
  0
VERTEX
  8
MY3DLAYER
10
43.2858687065134
20
19.5751640529438
30
0.0
 70
     32
  0
VERTEX
  8
MY3DLAYER
10
43.331905796599365
20
19.61511100171918
30
0.0
 70
     32
  0
VERTEX
  8
MY3DLAYER
10
43.37822842289787
20
19.655068333629547
30
0.0
 70
     32
  0
VERTEX
  8
MY3DLAYER
10
43.42487292638151
20
19.695023069756164
30
0.0
 70
     32
  0
VERTEX
  8
MY3DLAYER
10
43.47187564802286
20
19.734962231180265
30
0.0
 70
     32
  0
VERTEX
  8
MY3DLAYER
10
43.51927292879435
20
19.774872838983107
30
0.0
 70
     32
  0
VERTEX
  8
MY3DLAYER
10
43.56710110966845
20
19.814741914245943
30
0.0
 70
     32
  0
VERTEX
  8
MY3DLAYER
10
43.61539653161783
20
19.854556478050007
30
0.0
 70
     32
  0
VERTEX
  8
MY3DLAYER
10
43.66419553561481
20
19.894303551476543
30
0.0
 70
     32
  0
VERTEX
  8
MY3DLAYER
10
43.72923376275833
20
19.946679112851886
30
0.0
 70
     32
  0
VERTEX
  8
MY3DLAYER
10
43.64130915922788
20
20.007189860502976
30
0.0
 70
     32
  0
VERTEX
  8
MY3DLAYER
10
43.55360130364055
20
20.06799912328545
30
0.0
 70
     32
  0
VERTEX
  8
MY3DLAYER
10
43.46612447280715
20
20.12912507168553
30
0.0
 70
     32
  0
VERTEX
  8
MY3DLAYER
10
43.378892943538155
20
20.1905858761895
30
0.0
 70
     32
  0
VERTEX
  8
MY3DLAYER
10
43.29192099264428
20
20.25239970728362
30
0.0
 70
     32
  0
VERTEX
  8
MY3DLAYER
10
43.205222896936135
20
20.314584735454126
30
0.0
 70
     32
  0
VERTEX
  8
MY3DLAYER
10
43.118812933224355
20
20.377159131187287
30
0.0
 70
     32
  0
VERTEX
  8
MY3DLAYER
10
43.032705378319605
20
20.440141064969392
30
0.0
 70
     32
  0
VERTEX
  8
MY3DLAYER
10
42.94691450903248
20
20.50354870728663
30
0.0
 70
     32
  0
VERTEX
  8
MY3DLAYER
10
42.861454602173524
20
20.56740022862531
30
0.0
 70
     32
  0
VERTEX
  8
MY3DLAYER
10
42.776339934553526
20
20.631713799471672
30
0.0
 70
     32
  0
VERTEX
  8
MY3DLAYER
10
42.69158478298308
20
20.69650759031201
30
0.0
 70
     32
  0
VERTEX
  8
MY3DLAYER
10
42.62820201692676
20
20.745275444904014
30
0.0
 70
     32
  0
VERTEX
  8
MY3DLAYER
10
42.56495033794986
20
20.793659123500884
30
0.0
 70
     32
  0
VERTEX
  8
MY3DLAYER
10
42.501820660809294
20
20.84167939237259
30
0.0
 70
     32
  0
VERTEX
  8
MY3DLAYER
10
42.43880390026186
20
20.889357017789155
30
0.0
 70
     32
  0
VERTEX
  8
MY3DLAYER
10
42.375890971064514
20
20.936712766020637
30
0.0
 70
     32
  0
VERTEX
  8
MY3DLAYER
10
42.31307278797406
20
20.983767403336966
30
0.0
 70
     32
  0
VERTEX
  8
MY3DLAYER
10
42.25034026574741
20
21.03054169600818
30
0.0
 70
     32
  0
VERTEX
  8
MY3DLAYER
10
42.18768431914136
20
21.07705641030431
30
0.0
 70
     32
  0
VERTEX
  8
MY3DLAYER
10
42.12509586291284
20
21.123332312495325
30
0.0
 70
     32
  0
VERTEX
  8
MY3DLAYER
10
42.062565811818814
20
21.16939016885127
30
0.0
 70
     32
  0
VERTEX
  8
MY3DLAYER
10
42.00008508061597
20
21.215250745642123
30
0.0
 70
     32
  0
VERTEX
  8
MY3DLAYER
10
41.937644584061296
20
21.260934809137908
30
0.0
 70
     32
  0
VERTEX
  8
MY3DLAYER
10
41.45809408601152
20
21.048231529640887
30
0.0
 70
     32
  0
VERTEX
  8
MY3DLAYER
10
40.966612067950145
20
20.85904864671205
30
0.0
 70
     32
  0
VERTEX
  8
MY3DLAYER
10
40.463726771870405
20
20.69170668826444
30
0.0
 70
     32
  0
VERTEX
  8
MY3DLAYER
10
39.949966439765745
20
20.54452618221116
30
0.0
 70
     32
  0
VERTEX
  8
MY3DLAYER
10
39.42585931362941
20
20.415827656465265
30
0.0
 70
     32
  0
VERTEX
  8
MY3DLAYER
10
38.89193363545478
20
20.303931638939876
30
0.0
 70
     32
  0
VERTEX
  8
MY3DLAYER
10
38.34871764723515
20
20.207158657548014
30
0.0
 70
     32
  0
VERTEX
  8
MY3DLAYER
10
37.79673959096392
20
20.123829240202777
30
0.0
 70
     32
  0
VERTEX
  8
MY3DLAYER
10
37.23652770863439
20
20.052263914817257
30
0.0
 70
     32
  0
VERTEX
  8
MY3DLAYER
10
36.668610242239936
20
19.990783209304542
30
0.0
 70
     32
  0
VERTEX
  8
MY3DLAYER
10
36.09351543377378
20
19.93770765157766
30
0.0
 70
     32
  0
VERTEX
  8
MY3DLAYER
10
35.51177152522939
20
19.891357769549757
30
0.0
 70
     32
  0
VERTEX
  8
MY3DLAYER
10
35.03162313165567
20
19.862754395766423
30
0.0
 70
     32
  0
VERTEX
  8
MY3DLAYER
10
34.554707786743855
20
19.84768284267725
30
0.0
 70
     32
  0
VERTEX
  8
MY3DLAYER
10
34.0805829093644
20
19.844598618950418
30
0.0
 70
     32
  0
VERTEX
  8
MY3DLAYER
10
33.60880591838772
20
19.85195723325398
30
0.0
 70
     32
  0
VERTEX
  8
MY3DLAYER
10
33.138934232684406
20
19.868214194256105
30
0.0
 70
     32
  0
VERTEX
  8
MY3DLAYER
10
32.67052527112471
20
19.891825010624927
30
0.0
 70
     32
  0
VERTEX
  8
MY3DLAYER
10
32.20313645257922
20
19.921245191028586
30
0.0
 70
     32
  0
VERTEX
  8
MY3DLAYER
10
31.736325195918287
20
19.954930244135188
30
0.0
 70
     32
  0
VERTEX
  8
MY3DLAYER
10
31.26964892001247
20
19.99133567861287
30
0.0
 70
     32
  0
VERTEX
  8
MY3DLAYER
10
30.8026650437321
20
20.02891700312981
30
0.0
 70
     32
  0
VERTEX
  8
MY3DLAYER
10
30.334930985947725
20
20.06612972635406
30
0.0
 70
     32
  0
VERTEX
  8
MY3DLAYER
10
29.86600416552971
20
20.101429356953812
30
0.0
 70
     32
  0
VERTEX
  8
MY3DLAYER
10
29.755568925310207
20
20.021315683045493
30
0.0
 70
     32
  0
VERTEX
  8
MY3DLAYER
10
29.64936870628052
20
19.936171380227677
30
0.0
 70
     32
  0
VERTEX
  8
MY3DLAYER
10
29.547246463523713
20
19.846105471417882
30
0.0
 70
     32
  0
VERTEX
  8
MY3DLAYER
10
29.44904515212283
20
19.75122697953364
30
0.0
 70
     32
  0
VERTEX
  8
MY3DLAYER
10
29.35460772716096
20
19.651644927492555
30
0.0
 70
     32
  0
VERTEX
  8
MY3DLAYER
10
29.263777143721203
20
19.54746833821208
30
0.0
 70
     32
  0
VERTEX
  8
MY3DLAYER
10
29.17639635688652
20
19.438806234609856
30
0.0
 70
     32
  0
VERTEX
  8
MY3DLAYER
10
29.092308321740042
20
19.325767639603374
30
0.0
 70
     32
  0
VERTEX
  8
MY3DLAYER
10
29.01135599336484
20
19.208461576110178
30
0.0
 70
     32
  0
VERTEX
  8
MY3DLAYER
10
28.933382326843937
20
19.086997067047783
30
0.0
 70
     32
  0
VERTEX
  8
MY3DLAYER
10
28.85823027726042
20
18.961483135333815
30
0.0
 70
     32
  0
VERTEX
  8
MY3DLAYER
10
28.785742799697353
20
18.83202880388575
30
0.0
 70
     32
  0
VERTEX
  8
MY3DLAYER
10
28.728716242786085
20
18.72668108350296
30
0.0
 70
     32
  0
VERTEX
  8
MY3DLAYER
10
28.67270333942961
20
18.62270134115698
30
0.0
 70
     32
  0
VERTEX
  8
MY3DLAYER
10
28.617892283949857
20
18.519713188203873
30
0.0
 70
     32
  0
VERTEX
  8
MY3DLAYER
10
28.564471270668786
20
18.417340235999767
30
0.0
 70
     32
  0
VERTEX
  8
MY3DLAYER
10
28.512628493908355
20
18.315206095900766
30
0.0
 70
     32
  0
VERTEX
  8
MY3DLAYER
10
28.46255214799051
20
18.21293437926296
30
0.0
 70
     32
  0
VERTEX
  8
MY3DLAYER
10
28.414430427237193
20
18.110148697442447
30
0.0
 70
     32
  0
VERTEX
  8
MY3DLAYER
10
28.368451525970364
20
18.00647266179533
30
0.0
 70
     32
  0
VERTEX
  8
MY3DLAYER
10
28.32480363851193
20
17.9015298836777
30
0.0
 70
     32
  0
VERTEX
  8
MY3DLAYER
10
28.28367495918392
20
17.794943974445683
30
0.0
 70
     32
  0
VERTEX
  8
MY3DLAYER
10
28.245253682308224
20
17.686338545455314
30
0.0
 70
     32
  0
VERTEX
  8
MY3DLAYER
10
28.209728002206823
20
17.57533720806277
30
0.0
 70
     32
  0
VERTEX
  8
MY3DLAYER
10
28.052961699391567
20
17.64138995402232
30
0.0
 70
     32
  0
VERTEX
  8
MY3DLAYER
10
27.91562224216911
20
17.725356203647816
30
0.0
 70
     32
  0
VERTEX
  8
MY3DLAYER
10
27.796172926558782
20
17.825276140207194
30
0.0
 70
     32
  0
VERTEX
  8
MY3DLAYER
10
27.693077048580033
20
17.939189946968394
30
0.0
 70
     32
  0
VERTEX
  8
MY3DLAYER
10
27.604797904252205
20
18.065137807199438
30
0.0
 70
     32
  0
VERTEX
  8
MY3DLAYER
10
27.529798789594693
20
18.201159904168254
30
0.0
 70
     32
  0
VERTEX
  8
MY3DLAYER
10
27.466543000626874
20
18.345296421142805
30
0.0
 70
     32
  0
VERTEX
  8
MY3DLAYER
10
27.413493833368154
20
18.495587541391078
30
0.0
 70
     32
  0
VERTEX
  8
MY3DLAYER
10
27.369114583837852
20
18.65007344818104
30
0.0
 70
     32
  0
VERTEX
  8
MY3DLAYER
10
27.331868548055443
20
18.80679432478065
30
0.0
 70
     32
  0
VERTEX
  8
MY3DLAYER
10
27.300219022040285
20
18.963790354457853
30
0.0
 70
     32
  0
VERTEX
  8
MY3DLAYER
10
27.27262930181177
20
19.119101720480636
30
0.0
 70
     32
  0
VERTEX
  8
MY3DLAYER
10
27.05197708352313
20
19.077454533348373
30
0.0
 70
     32
  0
VERTEX
  8
MY3DLAYER
10
26.842288157907007
20
19.011321318092516
30
0.0
 70
     32
  0
VERTEX
  8
MY3DLAYER
10
26.64409076695674
20
18.922568443230098
30
0.0
 70
     32
  0
VERTEX
  8
MY3DLAYER
10
26.45791315266568
20
18.813062277278156
30
0.0
 70
     32
  0
VERTEX
  8
MY3DLAYER
10
26.284283557027116
20
18.68466918875365
30
0.0
 70
     32
  0
VERTEX
  8
MY3DLAYER
10
26.1237302220344
20
18.53925554617357
30
0.0
 70
     32
  0
VERTEX
  8
MY3DLAYER
10
25.976781389680898
20
18.378687718054945
30
0.0
 70
     32
  0
VERTEX
  8
MY3DLAYER
10
25.84396530195993
20
18.204832072914726
30
0.0
 70
     32
  0
VERTEX
  8
MY3DLAYER
10
25.72581020086484
20
18.019554979269955
30
0.0
 70
     32
  0
VERTEX
  8
MY3DLAYER
10
25.622844328388922
20
17.824722805637595
30
0.0
 70
     32
  0
VERTEX
  8
MY3DLAYER
10
25.53559592652558
20
17.622201920534657
30
0.0
 70
     32
  0
VERTEX
  8
MY3DLAYER
10
25.4645932372681
20
17.413858692478144
30
0.0
 70
     32
  0
VERTEX
  8
MY3DLAYER
10
25.34001854664134
20
17.524548103189954
30
0.0
 70
     32
  0
VERTEX
  8
MY3DLAYER
10
25.245266815530304
20
17.66672956236935
30
0.0
 70
     32
  0
VERTEX
  8
MY3DLAYER
10
25.17687786419483
20
17.83479617711411
30
0.0
 70
     32
  0
VERTEX
  8
MY3DLAYER
10
25.13139151289474
20
18.023141054522004
30
0.0
 70
     32
  0
VERTEX
  8
MY3DLAYER
10
25.105347581889912
20
18.226157301690755
30
0.0
 70
     32
  0
VERTEX
  8
MY3DLAYER
10
25.095285891440263
20
18.43823802571812
30
0.0
 70
     32
  0
VERTEX
  8
MY3DLAYER
10
25.09774626180561
20
18.6537763337019
30
0.0
 70
     32
  0
VERTEX
  8
MY3DLAYER
10
25.109268513245883
20
18.86716533273981
30
0.0
 70
     32
  0
VERTEX
  8
MY3DLAYER
10
25.126392466020853
20
19.072798129929613
30
0.0
 70
     32
  0
VERTEX
  8
MY3DLAYER
10
25.14565794039045
20
19.265067832369066
30
0.0
 70
     32
  0
VERTEX
  8
MY3DLAYER
10
25.16360475661449
20
19.438367547155927
30
0.0
 70
     32
  0
VERTEX
  8
MY3DLAYER
10
25.176772734952923
20
19.587090381387963
30
0.0
 70
     32
  0
VERTEX
  8
MY3DLAYER
10
25.021372895967257
20
19.570637871343244
30
0.0
 70
     32
  0
VERTEX
  8
MY3DLAYER
10
24.83279504696774
20
19.520759453936414
30
0.0
 70
     32
  0
VERTEX
  8
MY3DLAYER
10
24.618729197316743
20
19.440037933999726
30
0.0
 70
     32
  0
VERTEX
  8
MY3DLAYER
10
24.38686535637676
20
19.331056116365485
30
0.0
 70
     32
  0
VERTEX
  8
MY3DLAYER
10
24.144893533510224
20
19.19639680586596
30
0.0
 70
     32
  0
VERTEX
  8
MY3DLAYER
10
23.90050373807959
20
19.038642807333446
30
0.0
 70
     32
  0
VERTEX
  8
MY3DLAYER
10
23.661385979447328
20
18.860376925600217
30
0.0
 70
     32
  0
VERTEX
  8
MY3DLAYER
10
23.435230266975868
20
18.664181965498578
30
0.0
 70
     32
  0
VERTEX
  8
MY3DLAYER
10
23.229726610027708
20
18.452640731860793
30
0.0
 70
     32
  0
VERTEX
  8
MY3DLAYER
10
23.052565017965225
20
18.228336029519134
30
0.0
 70
     32
  0
VERTEX
  8
MY3DLAYER
10
22.911435500150915
20
17.993850663305903
30
0.0
 70
     32
  0
VERTEX
  8
MY3DLAYER
10
22.814028065947245
20
17.751767438053403
30
0.0
 70
     32
  0
VERTEX
  8
MY3DLAYER
10
22.614572585138987
20
17.819404909992965
30
0.0
 70
     32
  0
VERTEX
  8
MY3DLAYER
10
22.464734212839925
20
17.947794104841858
30
0.0
 70
     32
  0
VERTEX
  8
MY3DLAYER
10
22.359431702357472
20
18.126074263385686
30
0.0
 70
     32
  0
VERTEX
  8
MY3DLAYER
10
22.293583806998925
20
18.343384626410167
30
0.0
 70
     32
  0
VERTEX
  8
MY3DLAYER
10
22.26210928007164
20
18.588864434700923
30
0.0
 70
     32
  0
VERTEX
  8
MY3DLAYER
10
22.259926874882975
20
18.8516529290436
30
0.0
 70
     32
  0
VERTEX
  8
MY3DLAYER
10
22.28195534474019
20
19.12088935022386
30
0.0
 70
     32
  0
VERTEX
  8
MY3DLAYER
10
22.32311344295075
20
19.385712939027364
30
0.0
 70
     32
  0
VERTEX
  8
MY3DLAYER
10
22.378319922821905
20
19.635262936239744
30
0.0
 70
     32
  0
VERTEX
  8
MY3DLAYER
10
22.44249353766104
20
19.858678582646675
30
0.0
 70
     32
  0
VERTEX
  8
MY3DLAYER
10
22.510553040775452
20
20.045099119033768
30
0.0
 70
     32
  0
VERTEX
  8
MY3DLAYER
10
22.577417185472513
20
20.183663786186706
30
0.0
 70
     32
  0
VERTEX
  8
MY3DLAYER
10
22.36074062631393
20
20.219515886094833
30
0.0
 70
     32
  0
VERTEX
  8
MY3DLAYER
10
22.124619051076305
20
20.22016396677134
30
0.0
 70
     32
  0
VERTEX
  8
MY3DLAYER
10
21.87343673851514
20
20.19008835097055
30
0.0
 70
     32
  0
VERTEX
  8
MY3DLAYER
10
21.611577967385973
20
20.133769361446756
30
0.0
 70
     32
  0
VERTEX
  8
MY3DLAYER
10
21.343427016444284
20
20.055687320954263
30
0.0
 70
     32
  0
VERTEX
  8
MY3DLAYER
10
21.07336816444557
20
19.960322552247334
30
0.0
 70
     32
  0
VERTEX
  8
MY3DLAYER
10
20.805785690145324
20
19.852155378080294
30
0.0
 70
     32
  0
VERTEX
  8
MY3DLAYER
10
20.545063872299103
20
19.735666121207423
30
0.0
 70
     32
  0
VERTEX
  8
MY3DLAYER
10
20.29558698966238
20
19.61533510438301
30
0.0
 70
     32
  0
VERTEX
  8
MY3DLAYER
10
20.061739320990682
20
19.495642650361347
30
0.0
 70
     32
  0
VERTEX
  8
MY3DLAYER
10
19.847905145039448
20
19.381069081896744
30
0.0
 70
     32
  0
VERTEX
  8
MY3DLAYER
10
19.658468740564263
20
19.276094721743487
30
0.0
 70
     32
  0
VERTEX
  8
MY3DLAYER
10
19.75772588700586
20
19.734397648214426
30
0.0
 70
     32
  0
VERTEX
  8
MY3DLAYER
10
19.91083775893027
20
20.192150268530117
30
0.0
 70
     32
  0
VERTEX
  8
MY3DLAYER
10
20.112755556941714
20
20.645064347933907
30
0.0
 70
     32
  0
VERTEX
  8
MY3DLAYER
10
20.35843048164441
20
21.088851651669014
30
0.0
 70
     32
  0
VERTEX
  8
MY3DLAYER
10
20.64281373364262
20
21.51922394497878
30
0.0
 70
     32
  0
VERTEX
  8
MY3DLAYER
10
20.960856513540534
20
21.93189299310645
30
0.0
 70
     32
  0
VERTEX
  8
MY3DLAYER
10
21.30751002194241
20
22.322570561295308
30
0.0
 70
     32
  0
VERTEX
  8
MY3DLAYER
10
21.677725459452464
20
22.686968414788655
30
0.0
 70
     32
  0
VERTEX
  8
MY3DLAYER
10
22.066454026674908
20
23.020798318829755
30
0.0
 70
     32
  0
VERTEX
  8
MY3DLAYER
10
22.46864692421401
20
23.31977203866194
30
0.0
 70
     32
  0
VERTEX
  8
MY3DLAYER
10
22.879255352673958
20
23.579601339528434
30
0.0
 70
     32
  0
VERTEX
  8
MY3DLAYER
10
23.29323051265901
20
23.795997986672543
30
0.0
 70
     32
  0
VERTEX
  8
MY3DLAYER
10
23.680486188918074
20
23.956082133752233
30
0.0
 70
     32
  0
VERTEX
  8
MY3DLAYER
10
24.078245704125717
20
24.08487410771316
30
0.0
 70
     32
  0
VERTEX
  8
MY3DLAYER
10
24.484584284630547
20
24.18867906728657
30
0.0
 70
     32
  0
VERTEX
  8
MY3DLAYER
10
24.89757715678115
20
24.27380217120377
30
0.0
 70
     32
  0
VERTEX
  8
MY3DLAYER
10
25.315299546926123
20
24.346548578195996
30
0.0
 70
     32
  0
VERTEX
  8
MY3DLAYER
10
25.735826681414117
20
24.413223446994564
30
0.0
 70
     32
  0
VERTEX
  8
MY3DLAYER
10
26.15723378659375
20
24.480131936330725
30
0.0
 70
     32
  0
VERTEX
  8
MY3DLAYER
10
26.57759608881358
20
24.553579204935726
30
0.0
 70
     32
  0
VERTEX
  8
MY3DLAYER
10
26.994988814422193
20
24.639870411540876
30
0.0
 70
     32
  0
VERTEX
  8
MY3DLAYER
10
27.407487189768233
20
24.745310714877483
30
0.0
 70
     32
  0
VERTEX
  8
MY3DLAYER
10
27.8131664412003
20
24.876205273676725
30
0.0
 70
     32
  0
VERTEX
  8
MY3DLAYER
10
28.21010179506695
20
25.03885924666997
30
0.0
 70
     32
  0
VERTEX
  8
MY3DLAYER
10
28.330108555237786
20
25.095126104203413
30
0.0
 70
     32
  0
VERTEX
  8
MY3DLAYER
10
28.44942094325526
20
25.15304777387817
30
0.0
 70
     32
  0
VERTEX
  8
MY3DLAYER
10
28.56806102328118
20
25.212550275857282
30
0.0
 70
     32
  0
VERTEX
  8
MY3DLAYER
10
28.686050859477447
20
25.273559630303897
30
0.0
 70
     32
  0
VERTEX
  8
MY3DLAYER
10
28.803412516005952
20
25.336001857381067
30
0.0
 70
     32
  0
VERTEX
  8
MY3DLAYER
10
28.920168057028654
20
25.39980297725192
30
0.0
 70
     32
  0
VERTEX
  8
MY3DLAYER
10
29.036339546707346
20
25.464889010079546
30
0.0
 70
     32
  0
VERTEX
  8
MY3DLAYER
10
29.15194904920393
20
25.531185976027018
30
0.0
 70
     32
  0
VERTEX
  8
MY3DLAYER
10
29.26701862868028
20
25.59861989525744
30
0.0
 70
     32
  0
VERTEX
  8
MY3DLAYER
10
29.381570349298347
20
25.667116787933917
30
0.0
 70
     32
  0
VERTEX
  8
MY3DLAYER
10
29.49562627521992
20
25.73660267421953
30
0.0
 70
     32
  0
VERTEX
  8
MY3DLAYER
10
29.60920847060694
20
25.807003574277385
30
0.0
 70
     32
  0
VERTEX
  8
MY3DLAYER
10
29.318731832568503
20
25.886650656056457
30
0.0
 70
     32
  0
VERTEX
  8
MY3DLAYER
10
29.028609519012036
20
25.97027318065025
30
0.0
 70
     32
  0
VERTEX
  8
MY3DLAYER
10
28.738650739831968
20
26.05813981167697
30
0.0
 70
     32
  0
VERTEX
  8
MY3DLAYER
10
28.44866470492245
20
26.150519212754897
30
0.0
 70
     32
  0
VERTEX
  8
MY3DLAYER
10
28.158460624177838
20
26.247680047502218
30
0.0
 70
     32
  0
VERTEX
  8
MY3DLAYER
10
27.867847707492487
20
26.34989097953718
30
0.0
 70
     32
  0
VERTEX
  8
MY3DLAYER
10
27.576635164760603
20
26.457420672478055
30
0.0
 70
     32
  0
VERTEX
  8
MY3DLAYER
10
27.284632205876576
20
26.570537789943
30
0.0
 70
     32
  0
VERTEX
  8
MY3DLAYER
10
26.991648040734603
20
26.689510995550297
30
0.0
 70
     32
  0
VERTEX
  8
MY3DLAYER
10
26.697491879229055
20
26.814608952918213
30
0.0
 70
     32
  0
VERTEX
  8
MY3DLAYER
10
26.40197293125421
20
26.946100325664865
30
0.0
 70
     32
  0
VERTEX
  8
MY3DLAYER
10
26.056523650197505
20
27.107014474598984
30
0.0
 70
     32
  0
VERTEX
  8
MY3DLAYER
10
26.006174098039857
20
27.13043450086209
30
0.0
 70
     32
  0
VERTEX
  8
MY3DLAYER
10
25.953888091203943
20
27.154503473062974
30
0.0
 70
     32
  0
VERTEX
  8
MY3DLAYER
10
25.89970197066223
20
27.179211008066616
30
0.0
 70
     32
  0
VERTEX
  8
MY3DLAYER
10
25.843652077387304
20
27.20454672273799
30
0.0
 70
     32
  0
VERTEX
  8
MY3DLAYER
10
25.785774752351642
20
27.230500233942156
30
0.0
 70
     32
  0
VERTEX
  8
MY3DLAYER
10
25.72610633652775
20
27.25706115854404
30
0.0
 70
     32
  0
VERTEX
  8
MY3DLAYER
10
25.664683170888157
20
27.284219113408636
30
0.0
 70
     32
  0
VERTEX
  8
MY3DLAYER
10
25.601541596405397
20
27.31196371540097
30
0.0
 70
     32
  0
VERTEX
  8
MY3DLAYER
10
25.536717954051987
20
27.340284581386072
30
0.0
 70
     32
  0
VERTEX
  8
MY3DLAYER
10
25.470248584800338
20
27.369171328228887
30
0.0
 70
     32
  0
VERTEX
  8
MY3DLAYER
10
25.402169829623123
20
27.398613572794407
30
0.0
 70
     32
  0
VERTEX
  8
MY3DLAYER
10
24.690124715181867
20
27.540273279439862
30
0.0
 70
     32
  0
VERTEX
  8
MY3DLAYER
10
23.974211882951604
20
27.70627624610252
30
0.0
 70
     32
  0
VERTEX
  8
MY3DLAYER
10
23.25694924317075
20
27.89251075132083
30
0.0
 70
     32
  0
VERTEX
  8
MY3DLAYER
10
22.540854706077912
20
28.094865073633073
30
0.0
 70
     32
  0
VERTEX
  8
MY3DLAYER
10
21.828446181911527
20
28.309227491577634
30
0.0
 70
     32
  0
VERTEX
  8
MY3DLAYER
10
21.12224158091012
20
28.531486283692846
30
0.0
 70
     32
  0
VERTEX
  8
MY3DLAYER
10
20.424758813312206
20
28.757529728517056
30
0.0
 70
     32
  0
VERTEX
  8
MY3DLAYER
10
19.738515789356313
20
28.983246104588662
30
0.0
 70
     32
  0
VERTEX
  8
MY3DLAYER
10
19.066030419280896
20
29.204523690445964
30
0.0
 70
     32
  0
VERTEX
  8
MY3DLAYER
10
18.409820613324506
20
29.417250764627383
30
0.0
 70
     32
  0
VERTEX
  8
MY3DLAYER
10
17.77240428172563
20
29.617315605671198
30
0.0
 70
     32
  0
VERTEX
  8
MY3DLAYER
10
17.156299334722792
20
29.80060649211581
30
0.0
 70
     32
  0
VERTEX
  8
MY3DLAYER
10
15.627946206750158
20
30.303637584716203
30
0.0
 70
     32
  0
VERTEX
  8
MY3DLAYER
10
14.238941239992652
20
30.880862666380672
30
0.0
 70
     32
  0
VERTEX
  8
MY3DLAYER
10
12.963400576776799
20
31.518540955823095
30
0.0
 70
     32
  0
VERTEX
  8
MY3DLAYER
10
11.77544035942916
20
32.20293167175735
30
0.0
 70
     32
  0
VERTEX
  8
MY3DLAYER
10
10.649176730276178
20
32.920294032897246
30
0.0
 70
     32
  0
VERTEX
  8
MY3DLAYER
10
9.558725831644422
20
33.65688725795674
30
0.0
 70
     32
  0
VERTEX
  8
MY3DLAYER
10
8.478203805860387
20
34.398970565649684
30
0.0
 70
     32
  0
VERTEX
  8
MY3DLAYER
10
7.3817267952506
20
35.13280317468997
30
0.0
 70
     32
  0
VERTEX
  8
MY3DLAYER
10
6.243410942141566
20
35.84464430379146
30
0.0
 70
     32
  0
VERTEX
  8
MY3DLAYER
10
5.037372388859794
20
36.520753171667984
30
0.0
 70
     32
  0
VERTEX
  8
MY3DLAYER
10
3.7377272777318105
20
37.14738899703345
30
0.0
 70
     32
  0
VERTEX
  8
MY3DLAYER
10
2.3185917510841247
20
37.71081099860177
30
0.0
 70
     32
  0
VERTEX
  8
MY3DLAYER
10
1.9093266407153195
20
37.85813427276135
30
0.0
 70
     32
  0
VERTEX
  8
MY3DLAYER
10
1.5102266195155851
20
38.01509569198854
30
0.0
 70
     32
  0
VERTEX
  8
MY3DLAYER
10
1.1333413156572383
20
38.190959608490815
30
0.0
 70
     32
  0
VERTEX
  8
MY3DLAYER
10
0.7907203573126085
20
38.39499037447561
30
0.0
 70
     32
  0
VERTEX
  8
MY3DLAYER
10
0.494413372654014
20
38.63645234215034
30
0.0
 70
     32
  0
VERTEX
  8
MY3DLAYER
10
0.25646998985377883
20
38.924609863722566
30
0.0
 70
     32
  0
VERTEX
  8
MY3DLAYER
10
0.08893983708422631
20
39.2687272913997
30
0.0
 70
     32
  0
VERTEX
  8
MY3DLAYER
10
0.0038725425176789905
20
39.67806897738917
30
0.0
 70
     32
  0
VERTEX
  8
MY3DLAYER
10
0.013317734326459373
20
40.161899273898456
30
0.0
 70
     32
  0
VERTEX
  8
MY3DLAYER
10
0.12932504068289025
20
40.72948253313498
30
0.0
 70
     32
  0
VERTEX
  8
MY3DLAYER
10
0.3639440897592941
20
41.390083107306225
30
0.0
 70
     32
  0
VERTEX
  8
MY3DLAYER
10
0.7292245097279946
20
42.15296534861973
30
0.0
 70
     32
  0
VERTEX
  8
MY3DLAYER
10
0.7607135297812229
20
42.2084629889016
30
0.0
 70
     32
  0
VERTEX
  8
MY3DLAYER
10
0.8050490836183429
20
42.25990990863999
30
0.0
 70
     32
  0
VERTEX
  8
MY3DLAYER
10
0.8604842087749048
20
42.307429407563106
30
0.0
 70
     32
  0
VERTEX
  8
MY3DLAYER
10
0.9252719427864606
20
42.35114478539903
30
0.0
 70
     32
  0
VERTEX
  8
MY3DLAYER
10
0.9976653231885602
20
42.391179341876004
30
0.0
 70
     32
  0
VERTEX
  8
MY3DLAYER
10
1.075917387516755
20
42.42765637672214
30
0.0
 70
     32
  0
VERTEX
  8
MY3DLAYER
10
1.1582811733065952
20
42.4606991896657
30
0.0
 70
     32
  0
VERTEX
  8
MY3DLAYER
10
1.2430097180936315
20
42.49043108043479
30
0.0
 70
     32
  0
VERTEX
  8
MY3DLAYER
10
1.3283560594134172
20
42.51697534875756
30
0.0
 70
     32
  0
VERTEX
  8
MY3DLAYER
10
1.4125732348014994
20
42.54045529436231
30
0.0
 70
     32
  0
VERTEX
  8
MY3DLAYER
10
1.4939142817934299
20
42.56099421697706
30
0.0
 70
     32
  0
VERTEX
  8
MY3DLAYER
10
1.5706322379247595
20
42.57871541633014
30
0.0
 70
     32
  0
VERTEX
  8
MY3DLAYER
10
1.5212911477543873
20
42.65183366934471
30
0.0
 70
     32
  0
VERTEX
  8
MY3DLAYER
10
1.4776166535125317
20
42.72943873457295
30
0.0
 70
     32
  0
VERTEX
  8
MY3DLAYER
10
1.4402602969207057
20
42.8116876569318
30
0.0
 70
     32
  0
VERTEX
  8
MY3DLAYER
10
1.4098736197004185
20
42.89873748133821
30
0.0
 70
     32
  0
VERTEX
  8
MY3DLAYER
10
1.3871081635731821
20
42.9907452527091
30
0.0
 70
     32
  0
VERTEX
  8
MY3DLAYER
10
1.3726154702605065
20
43.08786801596141
30
0.0
 70
     32
  0
VERTEX
  8
MY3DLAYER
10
1.3670470814839026
20
43.190262816012066
30
0.0
 70
     32
  0
VERTEX
  8
MY3DLAYER
10
1.3710545389648823
20
43.29808669777806
30
0.0
 70
     32
  0
VERTEX
  8
MY3DLAYER
10
1.3852893844249545
20
43.41149670617625
30
0.0
 70
     32
  0
VERTEX
  8
MY3DLAYER
10
1.4104031595856308
20
43.530649886123605
30
0.0
 70
     32
  0
VERTEX
  8
MY3DLAYER
10
1.4470474061684218
20
43.655703282537125
30
0.0
 70
     32
  0
VERTEX
  8
MY3DLAYER
10
1.4958736658948395
20
43.78681394033365
30
0.0
 70
     32
  0
VERTEX
  8
MY3DLAYER
10
1.7107078675361371
20
44.368781086280634
30
0.0
 70
     32
  0
VERTEX
  8
MY3DLAYER
10
1.8876137748991304
20
44.94188752439347
30
0.0
 70
     32
  0
VERTEX
  8
MY3DLAYER
10
2.0454017349357203
20
45.50105719954694
30
0.0
 70
     32
  0
VERTEX
  8
MY3DLAYER
10
2.2028820945978134
20
46.04121405661598
30
0.0
 70
     32
  0
VERTEX
  8
MY3DLAYER
10
2.3788652008373106
20
46.55728204047534
30
0.0
 70
     32
  0
VERTEX
  8
MY3DLAYER
10
2.592161400606118
20
47.04418509599988
30
0.0
 70
     32
  0
VERTEX
  8
MY3DLAYER
10
2.8615810408561386
20
47.49684716806452
30
0.0
 70
     32
  0
VERTEX
  8
MY3DLAYER
10
3.2059344685392777
20
47.910192201544014
30
0.0
 70
     32
  0
VERTEX
  8
MY3DLAYER
10
3.644032030607438
20
48.279144141313225
30
0.0
 70
     32
  0
VERTEX
  8
MY3DLAYER
10
4.194684074012515
20
48.59862693224703
30
0.0
 70
     32
  0
VERTEX
  8
MY3DLAYER
10
4.876700945706419
20
48.863564519220226
30
0.0
 70
     32
  0
VERTEX
  8
MY3DLAYER
10
5.708892992641068
20
49.068880847107785
30
0.0
 70
     32
  0
VERTEX
  8
MY3DLAYER
10
6.449392655930565
20
49.141829508917255
30
0.0
 70
     32
  0
VERTEX
  8
MY3DLAYER
10
7.168713319595339
20
49.08900855431336
30
0.0
 70
     32
  0
VERTEX
  8
MY3DLAYER
10
7.86867981961237
20
48.93128419097863
30
0.0
 70
     32
  0
VERTEX
  8
MY3DLAYER
10
8.551116991958635
20
48.689522626595945
30
0.0
 70
     32
  0
VERTEX
  8
MY3DLAYER
10
9.217849672611115
20
48.38459006884793
30
0.0
 70
     32
  0
VERTEX
  8
MY3DLAYER
10
9.870702697546784
20
48.03735272541739
30
0.0
 70
     32
  0
VERTEX
  8
MY3DLAYER
10
10.511500902742641
20
47.668676803987026
30
0.0
 70
     32
  0
VERTEX
  8
MY3DLAYER
10
11.142069124175634
20
47.29942851223955
30
0.0
 70
     32
  0
VERTEX
  8
MY3DLAYER
10
11.76423219782279
20
46.950474057857726
30
0.0
 70
     32
  0
VERTEX
  8
MY3DLAYER
10
12.37981495966105
20
46.64267964852421
30
0.0
 70
     32
  0
VERTEX
  8
MY3DLAYER
10
12.990642245667404
20
46.39691149192179
30
0.0
 70
     32
  0
VERTEX
  8
MY3DLAYER
10
13.598538891818837
20
46.234035795733156
30
0.0
 70
     32
  0
VERTEX
  8
MY3DLAYER
10
14.839149390988807
20
46.07438990347675
30
0.0
 70
     32
  0
VERTEX
  8
MY3DLAYER
10
16.145094469280576
20
46.0348249675434
30
0.0
 70
     32
  0
VERTEX
  8
MY3DLAYER
10
17.50198180368647
20
46.09400364549959
30
0.0
 70
     32
  0
VERTEX
  8
MY3DLAYER
10
18.895419071198862
20
46.23058859491179
30
0.0
 70
     32
  0
VERTEX
  8
MY3DLAYER
10
20.311013948810135
20
46.423242473346356
30
0.0
 70
     32
  0
VERTEX
  8
MY3DLAYER
10
21.734374113512622
20
46.65062793836988
30
0.0
 70
     32
  0
VERTEX
  8
MY3DLAYER
10
23.151107242298718
20
46.891407647548775
30
0.0
 70
     32
  0
VERTEX
  8
MY3DLAYER
10
24.546821012160784
20
47.12424425844943
30
0.0
 70
     32
  0
VERTEX
  8
MY3DLAYER
10
25.907123100091138
20
47.32780042863841
30
0.0
 70
     32
  0
VERTEX
  8
MY3DLAYER
10
27.21762118308225
20
47.48073881568214
30
0.0
 70
     32
  0
VERTEX
  8
MY3DLAYER
10
28.463922938126377
20
47.56172207714705
30
0.0
 70
     32
  0
VERTEX
  8
MY3DLAYER
10
29.631636042215895
20
47.549412870599625
30
0.0
 70
     32
  0
VERTEX
  8
MY3DLAYER
10
29.846767244781383
20
47.58190083476637
30
0.0
 70
     32
  0
VERTEX
  8
MY3DLAYER
10
30.038834908718908
20
47.620457741343074
30
0.0
 70
     32
  0
VERTEX
  8
MY3DLAYER
10
30.212732086399146
20
47.665872708589966
30
0.0
 70
     32
  0
VERTEX
  8
MY3DLAYER
10
30.373351830192792
20
47.718934854767475
30
0.0
 70
     32
  0
VERTEX
  8
MY3DLAYER
10
30.525587192470585
20
47.780433298135854
30
0.0
 70
     32
  0
VERTEX
  8
MY3DLAYER
10
30.674331225603222
20
47.851157156955395
30
0.0
 70
     32
  0
VERTEX
  8
MY3DLAYER
10
30.82447698196145
20
47.93189554948649
30
0.0
 70
     32
  0
VERTEX
  8
MY3DLAYER
10
30.980917513915976
20
48.023437593989335
30
0.0
 70
     32
  0
VERTEX
  8
MY3DLAYER
10
31.14854587383743
20
48.126572408724364
30
0.0
 70
     32
  0
VERTEX
  8
MY3DLAYER
10
31.3322551140966
20
48.24208911195187
30
0.0
 70
     32
  0
VERTEX
  8
MY3DLAYER
10
31.536938287064125
20
48.370776821932104
30
0.0
 70
     32
  0
VERTEX
  8
MY3DLAYER
10
31.767488445110786
20
48.51342465692548
30
0.0
 70
     32
  0
VERTEX
  8
MY3DLAYER
10
31.992725466449702
20
48.65214766688724
30
0.0
 70
     32
  0
VERTEX
  8
MY3DLAYER
10
32.20096010421927
20
48.780866526272504
30
0.0
 70
     32
  0
VERTEX
  8
MY3DLAYER
10
32.39688553544146
20
48.900136732804015
30
0.0
 70
     32
  0
VERTEX
  8
MY3DLAYER
10
32.585194937138056
20
49.01051378420438
30
0.0
 70
     32
  0
VERTEX
  8
MY3DLAYER
10
32.77058148633101
20
49.112553178196464
30
0.0
 70
     32
  0
VERTEX
  8
MY3DLAYER
10
32.95773836004215
20
49.20681041250297
30
0.0
 70
     32
  0
VERTEX
  8
MY3DLAYER
10
33.151358735293414
20
49.29384098484657
30
0.0
 70
     32
  0
VERTEX
  8
MY3DLAYER
10
33.35613578910663
20
49.37420039295001
30
0.0
 70
     32
  0
VERTEX
  8
MY3DLAYER
10
33.57676269850367
20
49.448444134535876
30
0.0
 70
     32
  0
VERTEX
  8
MY3DLAYER
10
33.81793264050648
20
49.517127707327205
30
0.0
 70
     32
  0
VERTEX
  8
MY3DLAYER
10
34.08433879213685
20
49.58080660904639
30
0.0
 70
     32
  0
VERTEX
  8
MY3DLAYER
10
34.38067433041668
20
49.64003633741632
30
0.0
 70
     32
  0
VERTEX
  8
MY3DLAYER
10
34.93391826389719
20
49.7284898318861
30
0.0
 70
     32
  0
VERTEX
  8
MY3DLAYER
10
35.453828440338725
20
49.78273868386845
30
0.0
 70
     32
  0
VERTEX
  8
MY3DLAYER
10
35.9404944142807
20
49.79841938087783
30
0.0
 70
     32
  0
VERTEX
  8
MY3DLAYER
10
36.3940057402625
20
49.77116841042881
30
0.0
 70
     32
  0
VERTEX
  8
MY3DLAYER
10
36.81445197282358
20
49.69662226003587
30
0.0
 70
     32
  0
VERTEX
  8
MY3DLAYER
10
37.20192266650338
20
49.570417417213484
30
0.0
 70
     32
  0
VERTEX
  8
MY3DLAYER
10
37.5565073758412
20
49.388190369476185
30
0.0
 70
     32
  0
VERTEX
  8
MY3DLAYER
10
37.878295655376576
20
49.14557760433845
30
0.0
 70
     32
  0
VERTEX
  8
MY3DLAYER
10
38.16737705964886
20
48.83821560931482
30
0.0
 70
     32
  0
VERTEX
  8
MY3DLAYER
10
38.42384114319744
20
48.46174087191971
30
0.0
 70
     32
  0
VERTEX
  8
MY3DLAYER
10
38.64777746056174
20
48.01178987966779
30
0.0
 70
     32
  0
VERTEX
  8
MY3DLAYER
10
38.839275566281216
20
47.483999120073435
30
0.0
 70
     32
  0
VERTEX
  8
MY3DLAYER
10
39.231936962201786
20
47.5211640376136
30
0.0
 70
     32
  0
VERTEX
  8
MY3DLAYER
10
39.62863090817962
20
47.56676135866907
30
0.0
 70
     32
  0
VERTEX
  8
MY3DLAYER
10
40.02814127952734
20
47.61642108129485
30
0.0
 70
     32
  0
VERTEX
  8
MY3DLAYER
10
40.429251951557546
20
47.665773203546195
30
0.0
 70
     32
  0
VERTEX
  8
MY3DLAYER
10
40.830746799582975
20
47.71044772347815
30
0.0
 70
     32
  0
VERTEX
  8
MY3DLAYER
10
41.23140969891613
20
47.746074639145796
30
0.0
 70
     32
  0
VERTEX
  8
MY3DLAYER
10
41.63002452486973
20
47.76828394860439
30
0.0
 70
     32
  0
VERTEX
  8
MY3DLAYER
10
42.025375152756375
20
47.77270564990902
30
0.0
 70
     32
  0
VERTEX
  8
MY3DLAYER
10
42.41624545788878
20
47.75496974111468
30
0.0
 70
     32
  0
VERTEX
  8
MY3DLAYER
10
42.801419315579516
20
47.7107062202767
30
0.0
 70
     32
  0
VERTEX
  8
MY3DLAYER
10
43.17968060114122
20
47.63554508545001
30
0.0
 70
     32
  0
VERTEX
  8
MY3DLAYER
10
43.54981318988655
20
47.52511633468991
30
0.0
 70
     32
  0
VERTEX
  8
MY3DLAYER
10
43.91232239438569
20
47.37957441712946
30
0.0
 70
     32
  0
VERTEX
  8
MY3DLAYER
10
44.22170758652796
20
47.22059802076552
30
0.0
 70
     32
  0
VERTEX
  8
MY3DLAYER
10
44.486240231235996
20
47.04806903743739
30
0.0
 70
     32
  0
VERTEX
  8
MY3DLAYER
10
44.7141917934326
20
46.861869358984436
30
0.0
 70
     32
  0
VERTEX
  8
MY3DLAYER
10
44.91383373804031
20
46.661880877245956
30
0.0
 70
     32
  0
VERTEX
  8
MY3DLAYER
10
45.09343752998192
20
46.447985484061256
30
0.0
 70
     32
  0
VERTEX
  8
MY3DLAYER
10
45.26127463418001
20
46.22006507126972
30
0.0
 70
     32
  0
VERTEX
  8
MY3DLAYER
10
45.42561651555736
20
45.97800153071068
30
0.0
 70
     32
  0
VERTEX
  8
MY3DLAYER
10
45.594734639036595
20
45.721676754223395
30
0.0
 70
     32
  0
VERTEX
  8
MY3DLAYER
10
45.77690046954043
20
45.45097263364726
30
0.0
 70
     32
  0
VERTEX
  8
MY3DLAYER
10
45.98038547199159
20
45.16577106082149
30
0.0
 70
     32
  0
VERTEX
  8
MY3DLAYER
10
46.21346111131266
20
44.86595392758557
30
0.0
 70
     32
  0
VERTEX
  8
MY3DLAYER
10
46.283000427480474
20
44.782681184852244
30
0.0
 70
     32
  0
VERTEX
  8
MY3DLAYER
10
46.35436717540905
20
44.70102821117958
30
0.0
 70
     32
  0
VERTEX
  8
MY3DLAYER
10
46.42745752374831
20
44.62093270775753
30
0.0
 70
     32
  0
VERTEX
  8
MY3DLAYER
10
46.50216764114823
20
44.542332375776056
30
0.0
 70
     32
  0
VERTEX
  8
MY3DLAYER
10
46.57839369625878
20
44.46516491642515
30
0.0
 70
     32
  0
VERTEX
  8
MY3DLAYER
10
46.6560318577298
20
44.38936803089481
30
0.0
 70
     32
  0
VERTEX
  8
MY3DLAYER
10
47.28821184455692
20
44.22712246121173
30
0.0
 70
     32
  0
VERTEX
  8
MY3DLAYER
10
48.20442897888204
20
44.15867553737247
30
0.0
 70
     32
  0
VERTEX
  8
MY3DLAYER
10
49.32358708264714
20
44.15517512298419
30
0.0
 70
     32
  0
VERTEX
  8
MY3DLAYER
10
50.56458997779415
20
44.18776908165415
30
0.0
 70
     32
  0
VERTEX
  8
MY3DLAYER
10
51.84634148626499
20
44.22760527698943
30
0.0
 70
     32
  0
VERTEX
  8
MY3DLAYER
10
53.08774543000155
20
44.24583157259736
30
0.0
 70
     32
  0
VERTEX
  8
MY3DLAYER
10
54.20770563094575
20
44.21359583208509
30
0.0
 70
     32
  0
VERTEX
  8
MY3DLAYER
10
55.125125911039454
20
44.102045919059826
30
0.0
 70
     32
  0
VERTEX
  8
MY3DLAYER
10
55.758910092224696
20
43.88232969712879
30
0.0
 70
     32
  0
VERTEX
  8
MY3DLAYER
10
56.02796199644333
20
43.52559502989913
30
0.0
 70
     32
  0
VERTEX
  8
MY3DLAYER
10
55.851185445637256
20
43.00298978097809
30
0.0
 70
     32
  0
VERTEX
  8
MY3DLAYER
10
55.14748426174841
20
42.28566181397282
30
0.0
 70
     32
  0
VERTEX
  8
MY3DLAYER
10
55.67909969238464
20
42.33938112606995
30
0.0
 70
     32
  0
VERTEX
  8
MY3DLAYER
10
56.440310897908375
20
42.439027640074215
30
0.0
 70
     32
  0
VERTEX
  8
MY3DLAYER
10
57.36652309756687
20
42.55905624809163
30
0.0
 70
     32
  0
VERTEX
  8
MY3DLAYER
10
58.39314151060748
20
42.67392184222824
30
0.0
 70
     32
  0
VERTEX
  8
MY3DLAYER
10
59.45557135627731
20
42.75807931459005
30
0.0
 70
     32
  0
VERTEX
  8
MY3DLAYER
10
60.489217853823924
20
42.785983557283075
30
0.0
 70
     32
  0
VERTEX
  8
MY3DLAYER
10
61.42948622249429
20
42.73208946241337
30
0.0
 70
     32
  0
VERTEX
  8
MY3DLAYER
10
62.21178168153587
20
42.570851922086945
30
0.0
 70
     32
  0
VERTEX
  8
MY3DLAYER
10
62.77150945019579
20
42.276725828409916
30
0.0
 70
     32
  0
VERTEX
  8
MY3DLAYER
10
63.044074747721446
20
41.82416607348811
30
0.0
 70
     32
  0
VERTEX
  8
MY3DLAYER
10
62.96488279336001
20
41.187627549427724
30
0.0
 70
     32
  0
VERTEX
  8
MY3DLAYER
10
62.46933880635891
20
40.3415651483347
30
0.0
 70
     32
  0
VERTEX
  8
MY3DLAYER
10
62.91926513866518
20
40.47068289315639
30
0.0
 70
     32
  0
VERTEX
  8
MY3DLAYER
10
63.598726244940956
20
40.66467446548404
30
0.0
 70
     32
  0
VERTEX
  8
MY3DLAYER
10
64.45429570402209
20
40.89646064922681
30
0.0
 70
     32
  0
VERTEX
  8
MY3DLAYER
10
65.43254709474489
20
41.138962228293884
30
0.0
 70
     32
  0
VERTEX
  8
MY3DLAYER
10
66.48005399594543
20
41.36509998659439
30
0.0
 70
     32
  0
VERTEX
  8
MY3DLAYER
10
67.54338998645969
20
41.547794708037486
30
0.0
 70
     32
  0
VERTEX
  8
MY3DLAYER
10
68.56912864512405
20
41.65996717653241
30
0.0
 70
     32
  0
VERTEX
  8
MY3DLAYER
10
69.50384355077436
20
41.67453817598825
30
0.0
 70
     32
  0
VERTEX
  8
MY3DLAYER
10
70.29410828224695
20
41.56442849031414
30
0.0
 70
     32
  0
VERTEX
  8
MY3DLAYER
10
70.88649641837782
20
41.302558903419346
30
0.0
 70
     32
  0
VERTEX
  8
MY3DLAYER
10
71.22758153800305
20
40.86185019921297
30
0.0
 70
     32
  0
VERTEX
  8
MY3DLAYER
10
71.26393721995886
20
40.21522316160418
30
0.0
 70
     32
  0
VERTEX
  8
MY3DLAYER
10
71.24876356604217
20
40.14115377016014
30
0.0
 70
     32
  0
VERTEX
  8
MY3DLAYER
10
71.23001551790028
20
40.06897670507061
30
0.0
 70
     32
  0
VERTEX
  8
MY3DLAYER
10
71.20832385098468
20
39.998341535529235
30
0.0
 70
     32
  0
VERTEX
  8
MY3DLAYER
10
71.18431934074697
20
39.928897830729554
30
0.0
 70
     32
  0
VERTEX
  8
MY3DLAYER
10
72.04560428301733
20
40.26395467522365
30
0.0
 70
     32
  0
VERTEX
  8
MY3DLAYER
10
72.96547346876486
20
40.581214826320654
30
0.0
 70
     32
  0
VERTEX
  8
MY3DLAYER
10
73.9113368329953
20
40.86702446149001
30
0.0
 70
     32
  0
VERTEX
  8
MY3DLAYER
10
74.85060431071436
20
41.10772975820138
30
0.0
 70
     32
  0
VERTEX
  8
MY3DLAYER
10
75.75068583692774
20
41.289676893924174
30
0.0
 70
     32
  0
VERTEX
  8
MY3DLAYER
10
76.57899134664117
20
41.399212046128035
30
0.0
 70
     32
  0
VERTEX
  8
MY3DLAYER
10
77.3029307748603
20
41.42268139228242
30
0.0
 70
     32
  0
VERTEX
  8
MY3DLAYER
10
77.88991405659085
20
41.34643110985691
30
0.0
 70
     32
  0
VERTEX
  8
MY3DLAYER
10
78.30735112683858
20
41.156807376320984
30
0.0
 70
     32
  0
VERTEX
  8
MY3DLAYER
10
78.52265192060912
20
40.84015636914425
30
0.0
 70
     32
  0
VERTEX
  8
MY3DLAYER
10
78.50322637290814
20
40.38282426579622
30
0.0
 70
     32
  0
VERTEX
  8
MY3DLAYER
10
78.21648441874154
20
39.771157243746394
30
0.0
 70
     32
  0
VERTEX
  8
MY3DLAYER
10
78.32584651869534
20
39.77862963990439
30
0.0
 70
     32
  0
VERTEX
  8
MY3DLAYER
10
78.43525015118912
20
39.786081269792355
30
0.0
 70
     32
  0
VERTEX
  8
MY3DLAYER
10
78.54467454995293
20
39.79349136714034
30
0.0
 70
     32
  0
VERTEX
  8
MY3DLAYER
10
78.6540989487167
20
39.800839165678276
30
0.0
 70
     32
  0
VERTEX
  8
MY3DLAYER
10
78.76350258121047
20
39.80810389913618
30
0.0
 70
     32
  0
VERTEX
  8
MY3DLAYER
10
78.8728646811642
20
39.815264801244055
30
0.0
 70
     32
  0
VERTEX
  8
MY3DLAYER
10
79.57969356815778
20
40.134958283292335
30
0.0
 70
     32
  0
VERTEX
  8
MY3DLAYER
10
80.39228766408739
20
40.50241548425158
30
0.0
 70
     32
  0
VERTEX
  8
MY3DLAYER
10
81.27197238684636
20
40.88721511645154
30
0.0
 70
     32
  0
VERTEX
  8
MY3DLAYER
10
82.1800731543279
20
41.2589358922219
30
0.0
 70
     32
  0
VERTEX
  8
MY3DLAYER
10
83.07791538442544
20
41.5871565238923
30
0.0
 70
     32
  0
VERTEX
  8
MY3DLAYER
10
83.92682449503204
20
41.841455723792514
30
0.0
 70
     32
  0
VERTEX
  8
MY3DLAYER
10
84.68812590404117
20
41.99141220425224
30
0.0
 70
     32
  0
VERTEX
  8
MY3DLAYER
10
85.32314502934592
20
42.006604677601146
30
0.0
 70
     32
  0
VERTEX
  8
MY3DLAYER
10
85.79320728883971
20
41.85661185616891
30
0.0
 70
     32
  0
VERTEX
  8
MY3DLAYER
10
86.05963810041571
20
41.51101245228526
30
0.0
 70
     32
  0
VERTEX
  8
MY3DLAYER
10
86.08376288196727
20
40.93938517827989
30
0.0
 70
     32
  0
VERTEX
  8
MY3DLAYER
10
85.8269070513876
20
40.11130874648254
30
0.0
 70
     32
  0
VERTEX
  8
MY3DLAYER
10
86.24032887680299
20
40.33170117008076
30
0.0
 70
     32
  0
VERTEX
  8
MY3DLAYER
10
86.88233541933495
20
40.6478780140923
30
0.0
 70
     32
  0
VERTEX
  8
MY3DLAYER
10
87.70105772807018
20
41.02144763683933
30
0.0
 70
     32
  0
VERTEX
  8
MY3DLAYER
10
88.64462685209536
20
41.41401839664393
30
0.0
 70
     32
  0
VERTEX
  8
MY3DLAYER
10
89.6611738404972
20
41.7871986518283
30
0.0
 70
     32
  0
VERTEX
  8
MY3DLAYER
10
90.69882974236253
20
42.10259676071454
30
0.0
 70
     32
  0
VERTEX
  8
MY3DLAYER
10
91.70572560677799
20
42.3218210816248
30
0.0
 70
     32
  0
VERTEX
  8
MY3DLAYER
10
92.62999248283052
20
42.4064799728812
30
0.0
 70
     32
  0
VERTEX
  8
MY3DLAYER
10
93.4197614196065
20
42.318181792805866
30
0.0
 70
     32
  0
VERTEX
  8
MY3DLAYER
10
94.02316346619301
20
42.018534899720926
30
0.0
 70
     32
  0
VERTEX
  8
MY3DLAYER
10
94.3883296716767
20
41.46914765194852
30
0.0
 70
     32
  0
VERTEX
  8
MY3DLAYER
10
94.46339108514421
20
40.631628407810766
30
0.0
 70
     32
  0
VERTEX
  8
MY3DLAYER
10
95.16352977215006
20
40.86942534514442
30
0.0
 70
     32
  0
VERTEX
  8
MY3DLAYER
10
96.03071493088646
20
41.11044494800495
30
0.0
 70
     32
  0
VERTEX
  8
MY3DLAYER
10
97.00622214555386
20
41.337460297528644
30
0.0
 70
     32
  0
VERTEX
  8
MY3DLAYER
10
98.03132700035225
20
41.533244474851685
30
0.0
 70
     32
  0
VERTEX
  8
MY3DLAYER
10
99.04730507948196
20
41.68057056111036
30
0.0
 70
     32
  0
VERTEX
  8
MY3DLAYER
10
99.9954319671434
20
41.76221163744084
30
0.0
 70
     32
  0
VERTEX
  8
MY3DLAYER
10
100.81698324753665
20
41.76094078497939
30
0.0
 70
     32
  0
VERTEX
  8
MY3DLAYER
10
101.45323450486188
20
41.65953108486222
30
0.0
 70
     32
  0
VERTEX
  8
MY3DLAYER
10
101.84546132331938
20
41.44075561822559
30
0.0
 70
     32
  0
VERTEX
  8
MY3DLAYER
10
101.93493928710961
20
41.08738746620572
30
0.0
 70
     32
  0
VERTEX
  8
MY3DLAYER
10
101.66294398043267
20
40.58219970993885
30
0.0
 70
     32
  0
VERTEX
  8
MY3DLAYER
10
100.97075098748876
20
39.9079654305612
30
0.0
 70
     32
  0
VERTEX
  8
MY3DLAYER
10
101.50160801663901
20
39.96161335860515
30
0.0
 70
     32
  0
VERTEX
  8
MY3DLAYER
10
102.26162213322286
20
40.06110282769246
30
0.0
 70
     32
  0
VERTEX
  8
MY3DLAYER
10
103.18641400653901
20
40.18097439079295
30
0.0
 70
     32
  0
VERTEX
  8
MY3DLAYER
10
104.2116043058858
20
40.29576860087639
30
0.0
 70
     32
  0
VERTEX
  8
MY3DLAYER
10
105.27281370056211
20
40.38002601091261
30
0.0
 70
     32
  0
VERTEX
  8
MY3DLAYER
10
106.30566285986643
20
40.408287173871415
30
0.0
 70
     32
  0
VERTEX
  8
MY3DLAYER
10
107.2457724530974
20
40.35509264272265
30
0.0
 70
     32
  0
VERTEX
  8
MY3DLAYER
10
108.02876314955371
20
40.19498297043605
30
0.0
 70
     32
  0
VERTEX
  8
MY3DLAYER
10
108.5902556185337
20
39.902498709981465
30
0.0
 70
     32
  0
VERTEX
  8
MY3DLAYER
10
108.86587052933615
20
39.452180414328744
30
0.0
 70
     32
  0
VERTEX
  8
MY3DLAYER
10
108.79122855125986
20
38.818568636447665
30
0.0
 70
     32
  0
VERTEX
  8
MY3DLAYER
10
108.32250896091114
20
37.972092207846366
30
0.0
 70
     32
  0
VERTEX
  8
MY3DLAYER
10
108.78882182709188
20
38.10630893721633
30
0.0
 70
     32
  0
VERTEX
  8
MY3DLAYER
10
109.47761023333113
20
38.30250779099361
30
0.0
 70
     32
  0
VERTEX
  8
MY3DLAYER
10
110.33653409396452
20
38.53415985924257
30
0.0
 70
     32
  0
VERTEX
  8
MY3DLAYER
10
111.31325332332823
20
38.77473623202763
30
0.0
 70
     32
  0
VERTEX
  8
MY3DLAYER
10
112.35542783575815
20
38.99770799941312
30
0.0
 70
     32
  0
VERTEX
  8
MY3DLAYER
10
113.41071754559027
20
39.17654625146341
30
0.0
 70
     32
  0
VERTEX
  8
MY3DLAYER
10
114.42678236716041
20
39.28472207824299
30
0.0
 70
     32
  0
VERTEX
  8
MY3DLAYER
10
115.35128221480446
20
39.29570656981615
30
0.0
 70
     32
  0
VERTEX
  8
MY3DLAYER
10
116.13187700285846
20
39.18297081624723
30
0.0
 70
     32
  0
VERTEX
  8
MY3DLAYER
10
116.71622664565825
20
38.91998590760076
30
0.0
 70
     32
  0
VERTEX
  8
MY3DLAYER
10
117.05199105753977
20
38.480222933940965
30
0.0
 70
     32
  0
VERTEX
  8
MY3DLAYER
10
117.08683015283911
20
37.837152985332345
30
0.0
 70
     32
  0
VERTEX
  8
MY3DLAYER
10
117.07150118452795
20
37.75996151498177
30
0.0
 70
     32
  0
VERTEX
  8
MY3DLAYER
10
117.05284961301552
20
37.68443264412374
30
0.0
 70
     32
  0
VERTEX
  8
MY3DLAYER
10
117.03094812024675
20
37.610546904380094
30
0.0
 70
     32
  0
VERTEX
  8
MY3DLAYER
10
117.00586938816667
20
37.53828482737273
30
0.0
 70
     32
  0
VERTEX
  8
MY3DLAYER
10
116.97768609872043
20
37.46762694472349
30
0.0
 70
     32
  0
VERTEX
  8
MY3DLAYER
10
116.94647093385291
20
37.39855378805428
30
0.0
 70
     32
  0
VERTEX
  8
MY3DLAYER
10
116.91229657550926
20
37.33104588898699
30
0.0
 70
     32
  0
VERTEX
  8
MY3DLAYER
10
118.36785289502177
20
37.484084862651045
30
0.0
 70
     32
  0
VERTEX
  8
MY3DLAYER
10
119.33774067049872
20
37.672100075522515
30
0.0
 70
     32
  0
VERTEX
  8
MY3DLAYER
10
120.3316290625378
20
37.81256572164249
30
0.0
 70
     32
  0
VERTEX
  8
MY3DLAYER
10
121.29964268214648
20
37.89275726906334
30
0.0
 70
     32
  0
VERTEX
  8
MY3DLAYER
10
122.19190614033232
20
37.89995018583748
30
0.0
 70
     32
  0
VERTEX
  8
MY3DLAYER
10
122.95854404810297
20
37.82141994001732
30
0.0
 70
     32
  0
VERTEX
  8
MY3DLAYER
10
123.54968101646583
20
37.64444199965525
30
0.0
 70
     32
  0
VERTEX
  8
MY3DLAYER
10
123.91544165642853
20
37.356291832803656
30
0.0
 70
     32
  0
VERTEX
  8
MY3DLAYER
10
124.00595057899842
20
36.94424490751497
30
0.0
 70
     32
  0
VERTEX
  8
MY3DLAYER
10
123.77133239518321
20
36.39557669184165
30
0.0
 70
     32
  0
SEQEND
  0
POLYLINE
 8
Layer0
 66
     1
70
    8
 10
0.0
 20
 0.0
 30
0.0
  0
VERTEX
  8
MY3DLAYER
10
6.042690016754659
20
40.75983935884213
30
0.0
 70
     32
  0
VERTEX
  8
MY3DLAYER
10
7.882872267271181
20
39.87731441602888
30
0.0
 70
     32
  0
VERTEX
  8
MY3DLAYER
10
7.9976266753371075
20
42.461718251103285
30
0.0
 70
     32
  0
VERTEX
  8
MY3DLAYER
10
6.042690016754659
20
40.75983935884213
30
0.0
 70
     32
  0
SEQEND
  0
POLYLINE
 8
Layer0
 66
     1
70
    8
 10
0.0
 20
 0.0
 30
0.0
  0
VERTEX
  8
MY3DLAYER
10
34.75652370024307
20
43.513422967259885
30
0.0
 70
     32
  0
VERTEX
  8
MY3DLAYER
10
34.94323258494188
20
43.500862402319214
30
0.0
 70
     32
  0
VERTEX
  8
MY3DLAYER
10
35.13002734681976
20
43.513422967259885
30
0.0
 70
     32
  0
VERTEX
  8
MY3DLAYER
10
35.30917233398335
20
43.550012702383896
30
0.0
 70
     32
  0
VERTEX
  8
MY3DLAYER
10
35.47902960688567
20
43.608993668144365
30
0.0
 70
     32
  0
VERTEX
  8
MY3DLAYER
10
35.63796122597992
20
43.68872792499442
30
0.0
 70
     32
  0
VERTEX
  8
MY3DLAYER
10
35.784329251719114
20
43.7875775333871
30
0.0
 70
     32
  0
VERTEX
  8
MY3DLAYER
10
35.916495744556414
20
43.90390455377553
30
0.0
 70
     32
  0
VERTEX
  8
MY3DLAYER
10
36.032822764944825
20
44.0360710466128
30
0.0
 70
     32
  0
VERTEX
  8
MY3DLAYER
10
36.13167237333754
20
44.182439072352025
30
0.0
 70
     32
  0
VERTEX
  8
MY3DLAYER
10
36.21140663018754
20
44.34137069144623
30
0.0
 70
     32
  0
VERTEX
  8
MY3DLAYER
10
36.27038759594805
20
44.51122796434861
30
0.0
 70
     32
  0
VERTEX
  8
MY3DLAYER
10
36.30697733107203
20
44.69037295151215
30
0.0
 70
     32
  0
VERTEX
  8
MY3DLAYER
10
36.31953789601268
20
44.877167713390065
30
0.0
 70
     32
  0
VERTEX
  8
MY3DLAYER
10
36.30697733107203
20
45.06388395280948
30
0.0
 70
     32
  0
VERTEX
  8
MY3DLAYER
10
36.27038759594805
20
45.242977673243956
30
0.0
 70
     32
  0
VERTEX
  8
MY3DLAYER
10
36.21140663018754
20
45.41280704147098
30
0.0
 70
     32
  0
VERTEX
  8
MY3DLAYER
10
36.13167237333753
20
45.571730224268066
30
0.0
 70
     32
  0
VERTEX
  8
MY3DLAYER
10
36.032822764944825
20
45.71810538841256
30
0.0
 70
     32
  0
VERTEX
  8
MY3DLAYER
10
35.916495744556414
20
45.85029070068205
30
0.0
 70
     32
  0
VERTEX
  8
MY3DLAYER
10
35.784329251719114
20
45.966644327853935
30
0.0
 70
     32
  0
VERTEX
  8
MY3DLAYER
10
35.63796122597992
20
46.06552443670568
30
0.0
 70
     32
  0
VERTEX
  8
MY3DLAYER
10
35.47902960688567
20
46.14528919401483
30
0.0
 70
     32
  0
VERTEX
  8
MY3DLAYER
10
35.30917233398335
20
46.204296766558755
30
0.0
 70
     32
  0
VERTEX
  8
MY3DLAYER
10
35.13002734681973
20
46.24090532111494
30
0.0
 70
     32
  0
VERTEX
  8
MY3DLAYER
10
34.94323258494188
20
46.25347302446096
30
0.0
 70
     32
  0
VERTEX
  8
MY3DLAYER
10
34.756523700243065
20
46.24090532111494
30
0.0
 70
     32
  0
VERTEX
  8
MY3DLAYER
10
34.57745031344793
20
46.20429676655874
30
0.0
 70
     32
  0
VERTEX
  8
MY3DLAYER
10
34.40765166199531
20
46.14528919401483
30
0.0
 70
     32
  0
VERTEX
  8
MY3DLAYER
10
34.24876698332389
20
46.06552443670568
30
0.0
 70
     32
  0
VERTEX
  8
MY3DLAYER
10
34.10243551487252
20
45.966644327853935
30
0.0
 70
     32
  0
VERTEX
  8
MY3DLAYER
10
33.97029649407995
20
45.85029070068205
30
0.0
 70
     32
  0
VERTEX
  8
MY3DLAYER
10
33.85398915838495
20
45.71810538841256
30
0.0
 70
     32
  0
VERTEX
  8
MY3DLAYER
10
33.75515274522635
20
45.571730224268066
30
0.0
 70
     32
  0
VERTEX
  8
MY3DLAYER
10
33.67542649204285
20
45.41280704147098
30
0.0
 70
     32
  0
VERTEX
  8
MY3DLAYER
10
33.61644963627333
20
45.242977673243956
30
0.0
 70
     32
  0
VERTEX
  8
MY3DLAYER
10
33.5798614153565
20
45.063883952809455
30
0.0
 70
     32
  0
VERTEX
  8
MY3DLAYER
10
33.56730106673115
20
44.877167713390065
30
0.0
 70
     32
  0
VERTEX
  8
MY3DLAYER
10
33.5798614153565
20
44.69037295151215
30
0.0
 70
     32
  0
VERTEX
  8
MY3DLAYER
10
33.61644963627333
20
44.51122796434861
30
0.0
 70
     32
  0
VERTEX
  8
MY3DLAYER
10
33.67542649204285
20
44.34137069144623
30
0.0
 70
     32
  0
VERTEX
  8
MY3DLAYER
10
33.75515274522635
20
44.18243907235202
30
0.0
 70
     32
  0
VERTEX
  8
MY3DLAYER
10
33.85398915838495
20
44.03607104661279
30
0.0
 70
     32
  0
VERTEX
  8
MY3DLAYER
10
33.97029649407995
20
43.90390455377553
30
0.0
 70
     32
  0
VERTEX
  8
MY3DLAYER
10
34.10243551487252
20
43.7875775333871
30
0.0
 70
     32
  0
VERTEX
  8
MY3DLAYER
10
34.248766983323904
20
43.688727924994424
30
0.0
 70
     32
  0
VERTEX
  8
MY3DLAYER
10
34.40765166199531
20
43.608993668144365
30
0.0
 70
     32
  0
VERTEX
  8
MY3DLAYER
10
34.57745031344793
20
43.550012702383896
30
0.0
 70
     32
  0
VERTEX
  8
MY3DLAYER
10
34.75652370024307
20
43.513422967259885
30
0.0
 70
     32
  0
SEQEND
 0
ENDSEC
 0
EOF
