<?xml version="1.0"?>
<svg 
  xmlns="http://www.w3.org/2000/svg" 
  xmlns:xlink="http://www.w3.org/1999/xlink" version="1.1" preserveAspectRatio="xMinYMin meet" viewBox="0.0038725425176789905 -49.79841938087783 220.46359652761853 49.798074871329305" width="100%" height="100%">
  <path fill="none" stroke="#000000" stroke-width="1%" d="M123.77133239518321,-36.39557669184165L123.1617117159906,-35.697562653835995L123.68819160479056,-35.7882370576201L124.44052285041727,-35.940827393325854L125.35605102047202,-36.12532769868313L126.37212168255549,-36.31173201142181L127.42608040426926,-36.47003436927173L128.45527275321413,-36.570228809962764L129.3970442969918,-36.58230937122481L130.18874060320297,-36.47627009078768L130.7677072394492,-36.22210500638127L131.07128977333122,-35.78980815573543L131.0368337724505,-35.14937357658003L130.60168480440817,-34.27079530664496L133.50176363196903,-35.27366770624634L134.53084046853715,-35.572608978781616L135.57873673730035,-35.829324637038745L136.59405072842043,-36.01305723935165L137.5253807320594,-36.093049344054286L138.32132503837929,-36.03854350948058L138.9304819375419,-35.81878229396453L139.30144971970907,-35.40300825583997L139.38282667504288,-34.76046395344093L139.371663074391,-34.673809553425954L139.35619047271234,-34.58895013787477L139.3365230844919,-34.50585845105811L139.31277512421485,-34.42450723724649L139.28506080636635,-34.344869240710565L139.25349434543114,-34.26691720572093L138.98959658616556,-33.83308386740978L139.71341184939521,-34.21958092586758L140.55183615680073,-34.604834603908635L141.46046083996947,-34.967650327205746L142.39487723048856,-35.2868335214316L143.31067665994502,-35.54118961225904L144.16345045992628,-35.70952402536079L144.9087899620196,-35.770642186409624L145.50228649781226,-35.7033495210783L145.89953139889118,-35.48645145503964L146.05611599684383,-35.09875341396633L145.9276316232575,-34.5190608235312L145.46966960971918,-33.726179109407L145.96860260872245,-33.91757230219986L146.6769997817323,-34.213570388592075L147.5392438660986,-34.572562955054494L148.49971759917184,-34.95293958805797L149.50280371830215,-35.31308987407339L150.4928849608396,-35.611403399571536L151.41434406413464,-35.80626975102327L152.21156376553745,-35.85607851489945L152.82892680239826,-35.71921927767093L153.2108159120673,-35.35408162580851L153.30161383189494,-34.7190551457831L153.0457032992313,-33.77252942406552L153.4327584511956,-34.007083362232855L154.01482704902426,-34.3591263666478L154.75084119799192,-34.7915530064812L155.5997330033736,-35.26725785090378L156.52043457044402,-35.74913546908633L157.47187800447793,-36.200080430199634L158.4129954107503,-36.58298730341444L159.3027188945358,-36.860750657901555L160.0999805611092,-36.996265062831725L160.76371251574548,-36.95242508737574L161.2528468637195,-36.69212530070435L161.52631571030562,-36.178260271988385L162.1486150625997,-36.85824421237459L162.9989072933151,-37.556810070742635L164.01007581778475,-38.23914968488294L165.11500405134203,-38.87045489258592L166.24657540931995,-39.415917531642044L167.3376733070516,-39.84072943984177L168.32118115987024,-40.11008245497551L169.1299823831089,-40.18916841483375L169.69696039210086,-40.04317915720685L169.95499860217916,-39.637306519885335L169.83698042867684,-38.936742340659606L169.27578928692722,-37.90667845732014L169.745108287007,-38.34123818245098L170.21655323397883,-38.71063075651196L170.692686166405,-39.02103674061431L171.176069122848,-39.278636695869274L171.6692641418696,-39.48961118338811L172.17483326203276,-39.66014076428199L172.69533852189906,-39.79640599966214L173.23334196003123,-39.90458745063981L173.79140561499145,-39.99086567832622L174.37209152534209,-40.061421243832584L174.97796172964533,-40.1224347082701L175.61157826646303,-40.18008663275009L175.8601634973813,-40.19860992928219L176.2128656145538,-40.216758135062236L176.64527905915307,-40.22942144977638L177.13299827235213,-40.23149007311065L177.6516176953234,-40.21785420475114L178.17673176923984,-40.18340404438393L178.68393493527407,-40.12302979169506L179.14882163459893,-40.031621646370674L179.54698630838712,-39.904069808096764L179.85402339781115,-39.735264476559564L180.04552734404402,-39.52009585144499L180.09709258825848,-39.25345413243922L180.1692311492224,-39.25569169803259L180.24134894391634,-39.257898114220986L180.31342520607004,-39.26004223159933L180.385439169414,-39.2620929007627L180.45737006767746,-39.26401897230591L180.52919713459133,-39.26578929682416L180.91781321785137,-39.49752269963065L181.33444040356858,-39.7128559406981L181.77326154035748,-39.91107258371116L182.22845947683163,-40.0914561923546L182.69421706160486,-40.253290330313135L183.16471714329137,-40.39585856127146L183.6341425705047,-40.5184444489143L184.09667619185942,-40.620331556926295L184.5465008559686,-40.70080344899225L184.97779941144714,-40.75914368879683L185.38475470690796,-40.794635840024775L185.7615495909657,-40.80656346636083L186.04756559094312,-40.80063058628251L186.41570440145236,-40.780219722332795L186.84037419049199,-40.741132194294316L187.2959831260598,-40.67916932194984L187.75693937615495,-40.59013242508201L188.19765110877572,-40.46982282347352L188.59252649192058,-40.31404183690713L188.91597369358834,-40.11859078516548L189.14240088177715,-39.87927098803124L189.24621622448555,-39.591883765287164L189.20182788971212,-39.2522304367159L188.98364404545526,-38.85611232210015L189.0546058511186,-38.847342034066656L189.12546382543198,-38.83828101825302L189.19623873466537,-38.82901233973933L189.26695134508861,-38.81961906360561L189.337622422972,-38.81018425493181L189.4082727345853,-38.80079097879805L189.9235358091665,-38.88045320264898L190.43811359683747,-38.9711280390637L190.95269138450848,-39.06845586923235L191.46795445908964,-39.16807707434505L191.98458810749148,-39.265632035591906L192.50327761662402,-39.35676113416306L193.02470827339755,-39.43710475124864L193.54956536472292,-39.50230326803881L194.0785341775094,-39.54799706572365L194.61229999866802,-39.56982652549336L195.15154811510897,-39.563432028537974L195.69696381374226,-39.52445395604769L196.12666552958302,-39.477615417728614L196.6176433166507,-39.41563697068162L197.14062192580147,-39.33549582472858L197.66632610789063,-39.23416918969149L198.16548061377387,-39.10863427539216L198.6088101943077,-38.95586829165259L198.9670396003474,-38.77284844829466L199.21089358274884,-38.55655195514029L199.31109689236735,-38.30395602201138L199.23837428005967,-38.01203785872986L198.96345049668076,-37.67777467511762L198.45929305024796,-37.298143680996624L199.07712635659814,-37.3552615229698L199.6934359378868,-37.435805015404206L200.3088785274027,-37.531115921598285L200.9241108584343,-37.63253600485046L201.53978966427144,-37.731407028459095L202.1565716782024,-37.81907075572258L202.77511363351718,-37.88686894993945L203.39607226350375,-37.92614337440796L204.02010430145154,-37.928235792426634L204.64786648064964,-37.88448796729379L205.2800155343868,-37.78624166230789L205.91720819595272,-37.62483864076737L206.15351580235904,-37.54129831599235L206.4377805135663,-37.420392982013034L206.75089476538204,-37.26746346389717L207.07375099361562,-37.08785058671243L207.38724163407554,-36.88689517552667L207.6722591225702,-36.66993805540766L207.9096958949084,-36.442320051423124L208.08044438689885,-36.20938198864085L208.16539703434944,-35.97646469212855L208.1454462730696,-35.74890898695407L208.0014845388675,-35.53205569818508L207.76483601952862,-35.318849918216934L207.86553339332127,-35.29372619255189L207.96604387068405,-35.26822867402668L208.0664089841566,-35.24244042772134L208.216774949503,-35.203394648538236L208.31695835811325,-35.17724299250773L209.03942987062084,-35.19944646145289L209.81269048800178,-35.23556852287109L210.62005970387133,-35.271835948179366L211.4448570118453,-35.2944755087947L212.27040190553936,-35.28971397613401L213.0800138785695,-35.24377812161438L213.85701242455184,-35.14289471665275L214.58471703710205,-34.97329053266611L215.2464472098356,-34.7211923410715L215.82552243636846,-34.37282691328582L216.3052622103164,-33.914421020726095L216.668986025296,-33.33220143480928L216.73035814052193,-33.1949422305678L216.78374043336206,-33.06506932898989L216.82927307613892,-32.942399727321096L216.86709624117532,-32.82675042280699L216.89735010079377,-32.71793841269316L216.92017482731657,-32.615780694225066L216.9357105930666,-32.52009426464832L216.94409757036615,-32.43069612120848L216.94547593153814,-32.34740326115109L216.93998584890434,-32.270032681721666L216.92776749478838,-32.198401380165826L216.90896104151219,-32.13232635372904L217.20479429563625,-32.01449723981002L217.50060937927398,-31.896940683184866L217.79645042074912,-31.779757919419822L218.09236154838575,-31.66305018408125L218.38838689050735,-31.54691871273538L218.68457057543782,-31.43146474094855L218.98095673150075,-31.316789504287012L219.27758948702012,-31.202994238317114L219.5745129703196,-31.090180178605042L219.8717713097228,-30.97844856071723L220.16940863355407,-30.867900620219842L220.46746907013622,-30.75863759267925L219.33417670753158,-30.837876920094075L218.1771848392796,-30.940418598241997L217.00285313557077,-31.061421490427318L215.81754126659527,-31.19604445995433L214.62760890254285,-31.339446370127344L213.4394157136034,-31.486786084250685L212.25932136996718,-31.633222465628684L211.09368554182478,-31.773914377565614L209.94886789936533,-31.90402068336585L208.831228112779,-32.01870024633361L207.74712585225626,-32.113111929773254L206.70292078798715,-32.182414596989126L203.89243327344047,-32.26408033326525L200.9787711421412,-32.217954337585844L197.99538106772152,-32.05169806569213L194.97570972381348,-31.77297297332523L191.9532037840495,-31.38944051622641L188.96130992206145,-30.908762150136827L186.03347481148134,-30.33859933079769L183.2031451259417,-29.686613513950206L180.5037675390743,-28.9604661553355L177.96878872451174,-28.167818710694775L175.6316553558855,-27.316332635769296L173.52581410682834,-26.413669386300217L165.75161395945557,-23.011293207679405L158.8344325837583,-20.433912914489397L152.68908154859488,-18.573428390310067L147.23037242282382,-17.321739518721287L142.37311677530352,-16.57074618330288L138.03212617489214,-16.21234826763474L134.12221219044872,-16.138445655296728L130.5581863908309,-16.2409382298687L127.25486034489755,-16.411725874930493L124.12704562150688,-16.542708474061964L121.08955378951737,-16.525785910843016L118.05719641778745,-16.25285806885345L117.91950004029917,-16.23300421683365L117.78189451524234,-16.212706485792395L117.64437724683293,-16.19198823778347L117.50694563928722,-16.170872834860656L117.36959709682158,-16.149383639077676L117.23232902365231,-16.127544012488308L117.09513882399558,-16.105377317146317L116.95802390206748,-16.082906915105443L116.82098166208448,-16.060156168419443L116.6840095082629,-16.03714843914213L116.54710484481872,-16.013907089327205L116.4102650759683,-15.99045548102843L116.24130161793754,-15.832766809720313L116.0762084734795,-15.673022277681383L115.91689354365141,-15.511907171821907L115.7652647295103,-15.350106779052158L115.62322993211272,-15.188306386282386L115.49269705251596,-15.027191280422901L115.37557399177724,-14.867446748383982L115.27376865095343,-14.709758077075849L115.18918893110151,-14.55481055340884L115.1237427332784,-14.403289464293195L115.07933795854127,-14.25588009663919L115.05788250794696,-14.113267737357123L115.0618103613929,-13.975181992306219L115.08862004860437,-13.825817566857063L115.13449836325076,-13.667227725956696L115.19563209900217,-13.50146573455224L115.26820804952804,-13.330584857590726L115.3484130084982,-13.156638360019226L115.43243376958252,-12.981679506784818L115.51645712645055,-12.807761562834576L115.59666987277201,-12.636937793115584L115.66925880221673,-12.471261462574914L115.73041070845426,-12.312785836159604L115.7763123851546,-12.163564178816749L115.83133564595595,-11.949822153188698L115.88749845582397,-11.728884615002773L115.94404025011987,-11.502090988674503L116.00020046420418,-11.270780698619431L116.055218533438,-11.036293169253073L116.10833389318239,-10.79996782499099L116.15878597879825,-10.563144090248699L116.20581422564648,-10.327161389441745L116.24865806908797,-10.093359146985668L116.28655694448373,-9.863076787296007L116.31875028719476,-9.63765373478828L116.34447753258188,-9.418429413878032L116.36597365045483,-9.092527898673836L116.36331600052452,-8.775124979470553L116.33783102828743,-8.465374430765333L116.29084517924052,-8.16243002705533L116.22368489888053,-7.86544554283771L116.13767663270426,-7.573574752609637L116.03414682620837,-7.285971430868287L115.91442192488991,-7.00178935211079L115.77982837424533,-6.720182290834332L115.63169261977158,-6.440304021536061L115.47134110696558,-6.161308318713144L115.30010028132403,-5.882348956862753L115.14809853958377,-5.655253354358101L114.9800055343708,-5.425754056099997L114.79988366725564,-5.193658974090849L114.61179533980851,-4.958776020333092L114.41980295359964,-4.720913106829141L114.22796891019985,-4.479878145581418L114.04035561117922,-4.2354790485923495L113.86102545810796,-3.9875237278643567L113.69404085255672,-3.735820095399867L113.54346419609593,-3.4801760632012937L113.41335789029563,-3.2203995432710704L113.30778433672661,-2.956298447611614L113.28468921606284,-2.7750733724022085L113.26444167017414,-2.5814015141065685L113.24770881548436,-2.3771648159441994L113.23515776841741,-2.1642452211346064L113.22745564539754,-1.9445246728972916L113.22526956284842,-1.7198851144517564L113.22926663719447,-1.4922084890175065L113.24011398485949,-1.2633767398140434L113.25847872226743,-1.0352718100608707L113.28502796584247,-0.8097756429774934L113.32042883200845,-0.588770181783412L113.36534843718957,-0.3741373696981326L113.19309395799318,-0.41962631678196405L113.02577146792362,-0.500067492073535L112.86441928048157,-0.6104795865546012L112.7100757091673,-0.7458812912069197L112.56377906748124,-0.9012912970122461L112.42656766892384,-1.071728294952337L112.29947982699541,-1.2522109760089493L112.18355385519669,-1.4377580311638387L112.07982806702758,-1.6233881513987585L111.98934077598884,-1.8041200276954692L111.9131302955808,-1.974972351035727L111.85223493930397,-2.130963812401286L111.64244499443691,-2.051028382310542L111.44773914894701,-1.9489405336884313L111.26831208661606,-1.8266263380782268L111.10435849122463,-1.6860118670231985L110.9560730465547,-1.5290231920666153L110.82365043638717,-1.3575863847517498L110.70728534450386,-1.1736275166218724L110.60717245468557,-0.9790726592202528L110.52350645071408,-0.7758478840901645L110.45648201637037,-0.5658792627748755L110.4062938354359,-0.3510928668176591L110.373136591692,-0.1334147677617853L110.23085411326154,-0.2204985536722647L110.11244895166513,-0.3438428428010075L110.01549275120345,-0.4973137981443075L109.93755715617763,-0.6747775826984611L109.87621381088842,-0.8701003594597629L109.8290343596367,-1.0771482914245065L109.79359044672339,-1.289787541588989L109.76745371644958,-1.501884272949506L109.74819581311588,-1.7073046485023464L109.73338838102336,-1.899914831243813L109.72060306447301,-2.073580984170196L109.70741150776543,-2.222169270277792L109.5573591996222,-2.1786955166460142L109.3805158073847,-2.0964744989624826L109.18399637431416,-1.9794024886375012L108.97491594367234,-1.8313757570813778L108.76038955872086,-1.6562905757044282L108.54753226272132,-1.4580432159169583L108.34345909893534,-1.2405299491292732L108.15528511062422,-1.007647046751689L107.99012534105002,-0.7632907801945119L107.85509483347411,-0.5113574208680537L107.7573086311581,-0.2557432401826212L107.70388177736355,-0.0003445095485249994L107.49569321475558,-0.03191572942053614L107.32565358804469,-0.13199227826621607L107.19067002089166,-0.2889943647721795L107.08764963695698,-0.49134219762504266L107.01349955990126,-0.7274559855114205L106.96512691338535,-0.9857559371179274L106.93943882106986,-1.2546622611311802L106.93334240661524,-1.522595166237794L106.9437447936822,-1.7779748611243804L106.96755310593143,-2.009221554477561L107.00167446702353,-2.2047554549839465L107.04301600061903,-2.3529967713301514L106.82351003717194,-2.3500129179083333L106.59103813388825,-2.309003428317544L106.3491279608858,-2.2351468911411083L106.10130718828223,-2.133621894962349L105.85110348619507,-2.009607028364589L105.60204452474237,-1.8682808799311499L105.35765797404153,-1.7148220382453534L105.12147150421006,-1.5544090918905256L104.89701278536582,-1.392220629449986L104.68780948762647,-1.2334352395070591L104.4973892811095,-1.0832315106450663L104.32927983593294,-0.9467880314473318L104.33483308263769,-1.2612620413181972L104.36520202200239,-1.5805330595609821L104.41908357058394,-1.903043615925063L104.49517464493927,-2.227236240159819L104.59217216162575,-2.5515534620146205L104.70877303719978,-2.8744378112388547L104.84367418821887,-3.1943318175818853L104.99557253123957,-3.509678010793101L105.16316498281925,-3.8189189206218677L105.3451484595145,-4.120497076817579L105.54021987788269,-4.4128550091295935L105.74707615448048,-4.69443524730729L105.69865656754158,-4.787753240526514L105.65140248750704,-4.879480018306354L105.60542034151064,-4.969301490812926L105.56081655668584,-5.056903568212364L105.51769756016672,-5.1419721606707895L105.47616977908694,-5.224193178354321L105.43633964058037,-5.303252531429087L105.39831357178079,-5.378836130061218L105.36219799982204,-5.450629884416824L105.3280993518377,-5.518319704662045L105.29612405496175,-5.581591500962991L105.26637853632799,-5.640131183485799L105.179140733915,-5.825699870171944L105.09642738257993,-6.027224839575734L105.01844874080685,-6.2417858349772315L104.94541506707964,-6.466462599656532L104.87753661988177,-6.698334876893714L104.81502365769728,-6.93448240996885L104.75808643901023,-7.171984942162033L104.70693522230405,-7.407922216753345L104.66178026606289,-7.639373977022859L104.62283182877047,-7.863419966250658L104.59030016891053,-8.07713992771682L104.56439554496708,-8.27761360470143L104.5389164132434,-8.555981127856592L104.52914307110542,-8.821053046638939L104.53498855979745,-9.074516620486627L104.55636592056388,-9.318059108837852L104.59318819464897,-9.553367771130787L104.64536842329689,-9.782129866803604L104.71281964775245,-10.006032655294465L104.7954549092596,-10.226763396041575L104.89318724906263,-10.446009348483065L105.0059297084063,-10.665457772057145L105.13359532853454,-10.886795926201987L105.27609715069188,-11.11171107035575L105.44614824211446,-11.379207451161564L105.59134989568813,-11.62823742636249L105.71346984014751,-11.86179653040722L105.81427580422731,-12.08288029774446L105.89553551666171,-12.294484262822904L105.95901670618532,-12.499603960091257L106.00648710153234,-12.701234923998186L106.03971443143766,-12.902372688992457L106.06046642463521,-13.106012789522705L106.07051080985983,-13.315150760037664L106.07161531584588,-13.53278213498602L106.06554767132786,-13.761902448816471L105.617690827617,-13.664920939463283L105.16951600039668,-13.569603327494514L104.72098555080252,-13.476149488258978L104.27206183997014,-13.384759297105532L103.82270722903495,-13.295632629382963L103.37288407913259,-13.20896936044017L102.92255475139895,-13.124969365625924L102.47168160696943,-13.043832520289065L102.02022700697974,-12.965758699778439L101.56815331256533,-12.890947779442868L101.11542288486193,-12.819599634631192L100.66199808500524,-12.751914140692238L100.5890219511509,-12.741897876458218L100.51590045340677,-12.732587665404505L100.4426751243124,-12.72369277975093L100.36938749640804,-12.714922491717429L100.29607910223365,-12.70598607352386L100.22279147432938,-12.696592797390084L100.06315596520795,-12.509172884258827L99.89704137984407,-12.320169543039434L99.72686179712588,-12.12933877005931L99.55503129594214,-11.936436561645838L99.38396395518119,-11.741218914126447L99.2160738537314,-11.543441823828552L99.05377507048149,-11.342861287079524L98.89948168431978,-11.13923330020676L98.75560777413476,-10.932313859537704L98.62456741881476,-10.721858961399727L98.50877469724844,-10.507624602120222L98.41064368832403,-10.289366778026622L98.37850074708092,-10.109584093321534L98.34855773256672,-9.917224836342669L98.32158169888,-9.714134609337014L98.29833970011919,-9.502159014551545L98.2795987903824,-9.283143654233253L98.26612602376876,-9.058934130629147L98.25868845437607,-8.831376045986193L98.25805313630308,-8.60231500255139L98.26498712364796,-8.373596602571725L98.28025747050938,-8.147066448294181L98.30463123098569,-7.924570141965744L98.33887545917537,-7.707953285833428L98.169157277019,-7.761750471443084L98.00610117385965,-7.8502610731553855L97.85049756584955,-7.968451866277063L97.70313686914092,-8.11128962611486L97.56480949988592,-8.273741127975503L97.43630587423658,-8.450773147165737L97.31841640834536,-8.637352458992286L97.21193151836438,-8.828445838761903L97.11764162044565,-9.019020061781301L97.0363371307416,-9.204041903357224L96.96880846540418,-9.378478138796412L96.91584604058578,-9.537295543405605L96.70227966299164,-9.468012344567876L96.5026630272755,-9.375823949910975L96.31728686121754,-9.262651239410683L96.14644189259796,-9.130415093042759L95.99041884919671,-8.981036390782966L95.84950845879395,-8.816436012607086L95.72400144917003,-8.638534838490882L95.61418854810492,-8.449253748410129L95.52036048337855,-8.250513622340582L95.44280798277121,-8.044235340258023L95.38182177406308,-7.832339782138217L95.3376925850342,-7.6167478279569245L95.20011128729223,-7.710987757038396L95.08813739625421,-7.840192893246359L94.99904793476541,-7.99836697611592L94.930119925671,-8.179513745182161L94.87863039181609,-8.377636939980217L94.84185635604567,-8.58674030004515L94.81707484120513,-8.800827564912092L94.80156287013962,-9.013902474116128L94.79259746569409,-9.219968767192347L94.787455650714,-9.413030183675877L94.78341444804425,-9.587090463101786L94.77775088053008,-9.7361533450052L94.62565850267387,-9.700376955456507L94.44487622490934,-9.627182343136583L94.24270728481999,-9.520112752865606L94.02645491998929,-9.38271142946373L93.80342236800097,-9.218521617751138L93.58091286643854,-9.031086562548008L93.36622965288544,-8.823949508674465L93.16667596492523,-8.600653700950726L92.98955504014157,-8.364742384196926L92.84217011611777,-8.119758803233255L92.73182443043775,-7.869246202879861L92.66582122068475,-7.6167478279569245L92.45942872411716,-7.658673196581198L92.29457915070117,-7.767123311177112L92.16760206221282,-7.930687106375076L92.07482702042824,-8.137953516805531L92.01258358712329,-8.377511477098919L91.97720132407416,-8.637949921885655L91.96500979305681,-8.907857785796178L91.97233855584716,-9.175824003460924L91.99551717422145,-9.430437509510337L92.03087520995561,-9.660287238574835L92.07474222482563,-9.853962125284841L92.12344778060768,-10.00005110427082L91.90403872642044,-10.008111012817794L91.66978438496112,-9.978807210052326L91.42446681315481,-9.917139175478894L91.17186806792685,-9.828106388601999L90.91577020620242,-9.716708328926169L90.65995528490691,-9.587944475955883L90.40820536096554,-9.44681430919564L90.1643024913035,-9.298317308149954L89.93202873284618,-9.147452952323318L89.71516614251883,-8.999220721220254L89.51749677724655,-8.858620094345223L89.34280269395478,-8.730650551202757L89.3630872297619,-9.0351303610015L89.407020653433,-9.3428782625428L89.47333232882166,-9.652552235627372L89.560751619782,-9.962810260055917L89.66800789016776,-10.272310315629168L89.79383050383285,-10.579710382147821L89.93694882463099,-10.883668439412617L90.0960922164163,-11.182842467224228L90.26999004304247,-11.475890445383392L90.45737166836335,-11.761470353690818L90.65696645623287,-12.038240171947223L90.8675037705051,-12.304857879953293L89.76517781015816,-12.342603171477162L88.66260005878753,-12.39101713421778L87.55998596644433,-12.448184079766904L86.45755098318004,-12.512188319716273L85.35551055904578,-12.581114165657631L84.25408014409305,-12.653045929182664L83.1534751883732,-12.726067921883136L82.05391114193746,-12.798264455350784L80.95560345483729,-12.867719841177337L79.85876757712386,-12.932518390954513L78.76361895884858,-12.990744416274058L77.67037305006303,-13.040482228727738L75.63549879823668,-13.120168896209002L73.53777802601391,-13.200828982596912L71.3884686475231,-13.292126590796574L69.19882857689232,-13.403725823713112L66.98011572824993,-13.545290784251648L64.74358801572416,-13.726485575317293L62.50050335344327,-13.956974299815176L60.2621196555355,-14.246421060650398L58.039694836129044,-14.604489960728095L55.8444868093524,-15.040845102953371L53.68775348933352,-15.565150590231347L51.58075279020089,-16.18707052546714L51.41069650721094,-16.089145448720448L51.24194071188023,-15.989652518588125L51.07441531804757,-15.888456754315126L50.90805023955162,-15.785423175146386L50.74277539023108,-15.680416800326851L50.57852068392476,-15.57330264910148L50.41521603447123,-15.463945740715209L50.252791355709384,-15.352211094412988L50.091176561477816,-15.237963729439766L49.930301565615274,-15.121068665040475L49.77009628196061,-15.001390920460064L49.61049062435226,-14.878795514943512L48.99701325945142,-13.76043323521339L48.3177470532724,-12.796852348990212L47.5765843835498,-11.975686542484043L46.777417628018405,-11.284569501904938L45.924139164412786,-10.711134913462931L45.020641370467764,-10.24301646336807L44.0708166239179,-9.867847837830404L43.07855730249795,-9.57326272306001L42.04775578394251,-9.346894805266892L40.982304445986436,-9.176377770661155L39.886095666364234,-9.049345305452801L38.76302182281069,-8.953431095851919L38.2829521680107,-8.92481301262734L37.80608960403518,-8.909700792259416L37.331996741321994,-8.906555134983789L36.86023619030913,-8.913836741036071L36.390370561434494,-8.930006310651919L35.921962465136055,-8.953524544066951L35.45457451185185,-8.982852141516815L34.987769312019665,-9.016449803237146L34.52110947607759,-9.052778229463557L34.0541576144635,-9.090298120431699L33.58647633761537,-9.127470176377196L33.11762825597115,-9.162755097535703L33.00719301575164,-9.082641423627383L32.900992796721944,-8.99749712080955L32.79887055396516,-8.907431211999757L32.70066924256425,-8.812552720115532L32.60623181760242,-8.712970668074426L32.51540123416261,-8.608794078793984L32.428020447327945,-8.500131975191747L32.34393241218151,-8.387093380185245L32.26298008380628,-8.269787316692044L32.18500641728539,-8.14832280762968L32.10985436770186,-8.0228088759157L32.037366890138806,-7.893354544467637L31.980340333227538,-7.788007256715474L31.92432742987104,-7.684030542783854L31.869516374391278,-7.581050609812631L31.816095361110214,-7.47869366494167L31.764252584349816,-7.376585915310808L31.714176238431964,-7.274353568059882L31.66605451767862,-7.171622830328761L31.620075616411786,-7.068019909257306L31.576427728953377,-6.963171011985328L31.535299049625337,-6.8567023456527245L31.49687777274968,-6.748240117399313L31.461352092648244,-6.637410534364953L31.304507051059225,-6.703462847693891L31.167114812900486,-6.787426068904996L31.047633482623905,-6.887337785482481L30.944521164681387,-7.00123558491057L30.8562359635248,-7.127157054673464L30.781235983606035,-7.263139782255395L30.71797932937697,-7.407221355140555L30.664924105289476,-7.557439360813187L30.62052841579548,-7.71183138675748L30.583250365346824,-7.868435020457661L30.55154805839536,-8.02528784939794L30.52387959939306,-8.180427461062528L30.30322738110443,-8.138794550740869L30.09353845548831,-8.072698974349414L29.89534106453804,-7.983999313053912L29.709163450246947,-7.8745541480201116L29.53553385460839,-7.746222060413747L29.374980519615704,-7.600861631400566L29.22803168726218,-7.44033144214631L29.095215599541227,-7.2664900738167395L28.97706049844614,-7.0811961075775685L28.874094625970248,-6.88630812459457L28.786846224106867,-6.683684706033472L28.715843534849363,-6.4751844330600274L28.591275982627952,-6.586030888688763L28.496543070949087,-6.728314881326333L28.428180726397066,-6.896437305421749L28.382724875556033,-7.084799055424014L28.356711445010312,-7.287801025782142L28.346676361344148,-7.4998441109451335L28.349155551141678,-7.715329205362006L28.360684940987227,-7.928657203481765L28.377800457465003,-8.134228999753415L28.39703802715929,-8.326445488625973L28.414933576654242,-8.499707564548446L28.428023032534174,-8.648416121969841L28.272708854412336,-8.632120656842064L28.084201091574066,-8.582344772893395L27.870189753381833,-8.501679062307362L27.638364849198116,-8.392714117267499L27.39641638838536,-8.258040529957345L27.152034380305963,-8.100248892560437L26.912908834322433,-7.921929797260321L26.686729759797238,-7.725673836240521L26.481187166092788,-7.514071601684578L26.303971062571566,-7.2897136857760305L26.162771458595945,-7.0551906806984075L26.065278363528495,-6.813093178635273L25.865908543584027,-6.880731083205467L25.716140257446295,-7.009123306468726L25.610892258422584,-7.187411684994461L25.54508329982028,-7.404738055352071L25.5136321349468,-7.650244254110956L25.51145751710933,-7.913072117840526L25.533478199615324,-8.182363483110182L25.574612935772137,-8.44726018648933L25.629780478887035,-8.696904064547374L25.693899582267385,-8.920436953853711L25.761888999220552,-9.107000690977765L25.828667483053835,-9.245737112488913L25.61207680107429,-9.281417890669442L25.37602682620518,-9.281925799023396L25.124903135093692,-9.251741160305066L24.863091304387343,-9.195344297268752L24.59497691073349,-9.117215532668716L24.324945530779473,-9.021835189259296L24.057382741172688,-8.913683589794758L23.796674118560542,-8.79724105702941L23.547205239590376,-8.676987913717516L23.31336168090959,-8.557404482613412L23.099529019165576,-8.442971086471365L22.91009283100568,-8.338168048045668L23.009349761131975,-8.7962992201584L23.162460118849175,-9.25390863973718L23.364373806869676,-9.706705476241536L23.61004072790583,-10.150398899130996L23.89441078466995,-10.58069807786511L24.212433879874425,-10.993312181903365L24.559059916231597,-11.383950380705341L24.929238796453827,-11.748321843730547L25.31792042325348,-12.082135740438535L25.720054699342864,-12.381101240288812L26.130591527434355,-12.640927512740939L26.544480810240316,-12.857323727254418L26.931822147363164,-13.017486180477288L27.32965174873208,-13.146327906960094L27.736044840695662,-13.250156661217899L28.149076649602538,-13.33528019776572L28.566822401801307,-13.408006271118575L28.98735732364057,-13.474642635791504L29.408756641468887,-13.541497046299508L29.829095581634945,-13.61487725715764L30.246449370487316,-13.701091022880878L30.65889323437459,-13.806446097984312L31.064502399645352,-13.937250236982901L31.461352092648244,-14.099811194391723L31.860007585880634,-14.293926931708802L32.25162461147207,-14.503822438448433L32.63684303011719,-14.7275846219861L33.01630270251062,-14.963300389697336L33.39064348934701,-15.209056648957562L33.76050525132099,-15.462940307142311L34.126527849127164,-15.723038271627061L34.48935114346022,-15.987437449787235L34.849614995014704,-16.254224748998393L35.20795926448534,-16.521487076635985L35.56502381256667,-16.7873113400755L35.9214484999534,-17.04978444669243L36.30656460145563,-17.311359844762116L36.703364325621315,-17.544921544590597L37.110541993223656,-17.753542954139103L37.526791925035916,-17.940297481368845L37.950808441831235,-18.108258534241063L38.38128586438287,-18.26049952071701L38.81691851346413,-18.400093848757884L39.25640070984817,-18.530114926324913L39.69842677430818,-18.653636161379346L40.14169102761746,-18.773730961882418L40.58488779054921,-18.893472735795342L41.02671138387666,-19.01593489107937L41.20362291543781,-19.06474471084201L41.38040076413577,-19.11105479085242L41.5570825688349,-19.15495079197438L41.73370596839963,-19.196518375071626L41.91030860169443,-19.235843201007988L42.08692810758354,-19.273010930647256L42.26360212493143,-19.308107224853167L42.440368292602514,-19.341217744489544L42.61726424946115,-19.372428150420152L42.794327634371705,-19.401824103508805L42.97159608619857,-19.42949126461925L43.14910724380618,-19.455515294615306L43.19450577108935,-19.495353220473117L43.240080811667575,-19.53524046622222L43.2858687065134,-19.5751640529438L43.331905796599365,-19.61511100171918L43.37822842289787,-19.655068333629547L43.42487292638151,-19.695023069756164L43.47187564802286,-19.734962231180265L43.51927292879435,-19.774872838983107L43.56710110966845,-19.814741914245943L43.61539653161783,-19.854556478050007L43.66419553561481,-19.894303551476543L43.72923376275833,-19.946679112851886L43.64130915922788,-20.007189860502976L43.55360130364055,-20.06799912328545L43.46612447280715,-20.12912507168553L43.378892943538155,-20.1905858761895L43.29192099264428,-20.25239970728362L43.205222896936135,-20.314584735454126L43.118812933224355,-20.377159131187287L43.032705378319605,-20.440141064969392L42.94691450903248,-20.50354870728663L42.861454602173524,-20.56740022862531L42.776339934553526,-20.631713799471672L42.69158478298308,-20.69650759031201L42.62820201692676,-20.745275444904014L42.56495033794986,-20.793659123500884L42.501820660809294,-20.84167939237259L42.43880390026186,-20.889357017789155L42.375890971064514,-20.936712766020637L42.31307278797406,-20.983767403336966L42.25034026574741,-21.03054169600818L42.18768431914136,-21.07705641030431L42.12509586291284,-21.123332312495325L42.062565811818814,-21.16939016885127L42.00008508061597,-21.215250745642123L41.937644584061296,-21.260934809137908L41.45809408601152,-21.048231529640887L40.966612067950145,-20.85904864671205L40.463726771870405,-20.69170668826444L39.949966439765745,-20.54452618221116L39.42585931362941,-20.415827656465265L38.89193363545478,-20.303931638939876L38.34871764723515,-20.207158657548014L37.79673959096392,-20.123829240202777L37.23652770863439,-20.052263914817257L36.668610242239936,-19.990783209304542L36.09351543377378,-19.93770765157766L35.51177152522939,-19.891357769549757L35.03162313165567,-19.862754395766423L34.554707786743855,-19.84768284267725L34.0805829093644,-19.844598618950418L33.60880591838772,-19.85195723325398L33.138934232684406,-19.868214194256105L32.67052527112471,-19.891825010624927L32.20313645257922,-19.921245191028586L31.736325195918287,-19.954930244135188L31.26964892001247,-19.99133567861287L30.8026650437321,-20.02891700312981L30.334930985947725,-20.06612972635406L29.86600416552971,-20.101429356953812L29.755568925310207,-20.021315683045493L29.64936870628052,-19.936171380227677L29.547246463523713,-19.846105471417882L29.44904515212283,-19.75122697953364L29.35460772716096,-19.651644927492555L29.263777143721203,-19.54746833821208L29.17639635688652,-19.438806234609856L29.092308321740042,-19.325767639603374L29.01135599336484,-19.208461576110178L28.933382326843937,-19.086997067047783L28.85823027726042,-18.961483135333815L28.785742799697353,-18.83202880388575L28.728716242786085,-18.72668108350296L28.67270333942961,-18.62270134115698L28.617892283949857,-18.519713188203873L28.564471270668786,-18.417340235999767L28.512628493908355,-18.315206095900766L28.46255214799051,-18.21293437926296L28.414430427237193,-18.110148697442447L28.368451525970364,-18.00647266179533L28.32480363851193,-17.9015298836777L28.28367495918392,-17.794943974445683L28.245253682308224,-17.686338545455314L28.209728002206823,-17.57533720806277L28.052961699391567,-17.64138995402232L27.91562224216911,-17.725356203647816L27.796172926558782,-17.825276140207194L27.693077048580033,-17.939189946968394L27.604797904252205,-18.065137807199438L27.529798789594693,-18.201159904168254L27.466543000626874,-18.345296421142805L27.413493833368154,-18.495587541391078L27.369114583837852,-18.65007344818104L27.331868548055443,-18.80679432478065L27.300219022040285,-18.963790354457853L27.27262930181177,-19.119101720480636L27.05197708352313,-19.077454533348373L26.842288157907007,-19.011321318092516L26.64409076695674,-18.922568443230098L26.45791315266568,-18.813062277278156L26.284283557027116,-18.68466918875365L26.1237302220344,-18.53925554617357L25.976781389680898,-18.378687718054945L25.84396530195993,-18.204832072914726L25.72581020086484,-18.019554979269955L25.622844328388922,-17.824722805637595L25.53559592652558,-17.622201920534657L25.4645932372681,-17.413858692478144L25.34001854664134,-17.524548103189954L25.245266815530304,-17.66672956236935L25.17687786419483,-17.83479617711411L25.13139151289474,-18.023141054522004L25.105347581889912,-18.226157301690755L25.095285891440263,-18.43823802571812L25.09774626180561,-18.6537763337019L25.109268513245883,-18.86716533273981L25.126392466020853,-19.072798129929613L25.14565794039045,-19.265067832369066L25.16360475661449,-19.438367547155927L25.176772734952923,-19.587090381387963L25.021372895967257,-19.570637871343244L24.83279504696774,-19.520759453936414L24.618729197316743,-19.440037933999726L24.38686535637676,-19.331056116365485L24.144893533510224,-19.19639680586596L23.90050373807959,-19.038642807333446L23.661385979447328,-18.860376925600217L23.435230266975868,-18.664181965498578L23.229726610027708,-18.452640731860793L23.052565017965225,-18.228336029519134L22.911435500150915,-17.993850663305903L22.814028065947245,-17.751767438053403L22.614572585138987,-17.819404909992965L22.464734212839925,-17.947794104841858L22.359431702357472,-18.126074263385686L22.293583806998925,-18.343384626410167L22.26210928007164,-18.588864434700923L22.259926874882975,-18.8516529290436L22.28195534474019,-19.12088935022386L22.32311344295075,-19.385712939027364L22.378319922821905,-19.635262936239744L22.44249353766104,-19.858678582646675L22.510553040775452,-20.045099119033768L22.577417185472513,-20.183663786186706L22.36074062631393,-20.219515886094833L22.124619051076305,-20.22016396677134L21.87343673851514,-20.19008835097055L21.611577967385973,-20.133769361446756L21.343427016444284,-20.055687320954263L21.07336816444557,-19.960322552247334L20.805785690145324,-19.852155378080294L20.545063872299103,-19.735666121207423L20.29558698966238,-19.61533510438301L20.061739320990682,-19.495642650361347L19.847905145039448,-19.381069081896744L19.658468740564263,-19.276094721743487L19.75772588700586,-19.734397648214426L19.91083775893027,-20.192150268530117L20.112755556941714,-20.645064347933907L20.35843048164441,-21.088851651669014L20.64281373364262,-21.51922394497878L20.960856513540534,-21.93189299310645L21.30751002194241,-22.322570561295308L21.677725459452464,-22.686968414788655L22.066454026674908,-23.020798318829755L22.46864692421401,-23.31977203866194L22.879255352673958,-23.579601339528434L23.29323051265901,-23.795997986672543L23.680486188918074,-23.956082133752233L24.078245704125717,-24.08487410771316L24.484584284630547,-24.18867906728657L24.89757715678115,-24.27380217120377L25.315299546926123,-24.346548578195996L25.735826681414117,-24.413223446994564L26.15723378659375,-24.480131936330725L26.57759608881358,-24.553579204935726L26.994988814422193,-24.639870411540876L27.407487189768233,-24.745310714877483L27.8131664412003,-24.876205273676725L28.21010179506695,-25.03885924666997L28.330108555237786,-25.095126104203413L28.44942094325526,-25.15304777387817L28.56806102328118,-25.212550275857282L28.686050859477447,-25.273559630303897L28.803412516005952,-25.336001857381067L28.920168057028654,-25.39980297725192L29.036339546707346,-25.464889010079546L29.15194904920393,-25.531185976027018L29.26701862868028,-25.59861989525744L29.381570349298347,-25.667116787933917L29.49562627521992,-25.73660267421953L29.60920847060694,-25.807003574277385L29.318731832568503,-25.886650656056457L29.028609519012036,-25.97027318065025L28.738650739831968,-26.05813981167697L28.44866470492245,-26.150519212754897L28.158460624177838,-26.247680047502218L27.867847707492487,-26.34989097953718L27.576635164760603,-26.457420672478055L27.284632205876576,-26.570537789943L26.991648040734603,-26.689510995550297L26.697491879229055,-26.814608952918213L26.40197293125421,-26.946100325664865L26.056523650197505,-27.107014474598984L26.006174098039857,-27.13043450086209L25.953888091203943,-27.154503473062974L25.89970197066223,-27.179211008066616L25.843652077387304,-27.20454672273799L25.785774752351642,-27.230500233942156L25.72610633652775,-27.25706115854404L25.664683170888157,-27.284219113408636L25.601541596405397,-27.31196371540097L25.536717954051987,-27.340284581386072L25.470248584800338,-27.369171328228887L25.402169829623123,-27.398613572794407L24.690124715181867,-27.540273279439862L23.974211882951604,-27.70627624610252L23.25694924317075,-27.89251075132083L22.540854706077912,-28.094865073633073L21.828446181911527,-28.309227491577634L21.12224158091012,-28.531486283692846L20.424758813312206,-28.757529728517056L19.738515789356313,-28.983246104588662L19.066030419280896,-29.204523690445964L18.409820613324506,-29.417250764627383L17.77240428172563,-29.617315605671198L17.156299334722792,-29.80060649211581L15.627946206750158,-30.303637584716203L14.238941239992652,-30.880862666380672L12.963400576776799,-31.518540955823095L11.77544035942916,-32.20293167175735L10.649176730276178,-32.920294032897246L9.558725831644422,-33.65688725795674L8.478203805860387,-34.398970565649684L7.3817267952506,-35.13280317468997L6.243410942141566,-35.84464430379146L5.037372388859794,-36.520753171667984L3.7377272777318105,-37.14738899703345L2.3185917510841247,-37.71081099860177L1.9093266407153195,-37.85813427276135L1.5102266195155851,-38.01509569198854L1.1333413156572383,-38.190959608490815L0.7907203573126085,-38.39499037447561L0.494413372654014,-38.63645234215034L0.25646998985377883,-38.924609863722566L0.08893983708422631,-39.2687272913997L0.0038725425176789905,-39.67806897738917L0.013317734326459373,-40.161899273898456L0.12932504068289025,-40.72948253313498L0.3639440897592941,-41.390083107306225L0.7292245097279946,-42.15296534861973L0.7607135297812229,-42.2084629889016L0.8050490836183429,-42.25990990863999L0.8604842087749048,-42.307429407563106L0.9252719427864606,-42.35114478539903L0.9976653231885602,-42.391179341876004L1.075917387516755,-42.42765637672214L1.1582811733065952,-42.4606991896657L1.2430097180936315,-42.49043108043479L1.3283560594134172,-42.51697534875756L1.4125732348014994,-42.54045529436231L1.4939142817934299,-42.56099421697706L1.5706322379247595,-42.57871541633014L1.5212911477543873,-42.65183366934471L1.4776166535125317,-42.72943873457295L1.4402602969207057,-42.8116876569318L1.4098736197004185,-42.89873748133821L1.3871081635731821,-42.9907452527091L1.3726154702605065,-43.08786801596141L1.3670470814839026,-43.190262816012066L1.3710545389648823,-43.29808669777806L1.3852893844249545,-43.41149670617625L1.4104031595856308,-43.530649886123605L1.4470474061684218,-43.655703282537125L1.4958736658948395,-43.78681394033365L1.7107078675361371,-44.368781086280634L1.8876137748991304,-44.94188752439347L2.0454017349357203,-45.50105719954694L2.2028820945978134,-46.04121405661598L2.3788652008373106,-46.55728204047534L2.592161400606118,-47.04418509599988L2.8615810408561386,-47.49684716806452L3.2059344685392777,-47.910192201544014L3.644032030607438,-48.279144141313225L4.194684074012515,-48.59862693224703L4.876700945706419,-48.863564519220226L5.708892992641068,-49.068880847107785L6.449392655930565,-49.141829508917255L7.168713319595339,-49.08900855431336L7.86867981961237,-48.93128419097863L8.551116991958635,-48.689522626595945L9.217849672611115,-48.38459006884793L9.870702697546784,-48.03735272541739L10.511500902742641,-47.668676803987026L11.142069124175634,-47.29942851223955L11.76423219782279,-46.950474057857726L12.37981495966105,-46.64267964852421L12.990642245667404,-46.39691149192179L13.598538891818837,-46.234035795733156L14.839149390988807,-46.07438990347675L16.145094469280576,-46.0348249675434L17.50198180368647,-46.09400364549959L18.895419071198862,-46.23058859491179L20.311013948810135,-46.423242473346356L21.734374113512622,-46.65062793836988L23.151107242298718,-46.891407647548775L24.546821012160784,-47.12424425844943L25.907123100091138,-47.32780042863841L27.21762118308225,-47.48073881568214L28.463922938126377,-47.56172207714705L29.631636042215895,-47.549412870599625L29.846767244781383,-47.58190083476637L30.038834908718908,-47.620457741343074L30.212732086399146,-47.665872708589966L30.373351830192792,-47.718934854767475L30.525587192470585,-47.780433298135854L30.674331225603222,-47.851157156955395L30.82447698196145,-47.93189554948649L30.980917513915976,-48.023437593989335L31.14854587383743,-48.126572408724364L31.3322551140966,-48.24208911195187L31.536938287064125,-48.370776821932104L31.767488445110786,-48.51342465692548L31.992725466449702,-48.65214766688724L32.20096010421927,-48.780866526272504L32.39688553544146,-48.900136732804015L32.585194937138056,-49.01051378420438L32.77058148633101,-49.112553178196464L32.95773836004215,-49.20681041250297L33.151358735293414,-49.29384098484657L33.35613578910663,-49.37420039295001L33.57676269850367,-49.448444134535876L33.81793264050648,-49.517127707327205L34.08433879213685,-49.58080660904639L34.38067433041668,-49.64003633741632L34.93391826389719,-49.7284898318861L35.453828440338725,-49.78273868386845L35.9404944142807,-49.79841938087783L36.3940057402625,-49.77116841042881L36.81445197282358,-49.69662226003587L37.20192266650338,-49.570417417213484L37.5565073758412,-49.388190369476185L37.878295655376576,-49.14557760433845L38.16737705964886,-48.83821560931482L38.42384114319744,-48.46174087191971L38.64777746056174,-48.01178987966779L38.839275566281216,-47.483999120073435L39.231936962201786,-47.5211640376136L39.62863090817962,-47.56676135866907L40.02814127952734,-47.61642108129485L40.429251951557546,-47.665773203546195L40.830746799582975,-47.71044772347815L41.23140969891613,-47.746074639145796L41.63002452486973,-47.76828394860439L42.025375152756375,-47.77270564990902L42.41624545788878,-47.75496974111468L42.801419315579516,-47.7107062202767L43.17968060114122,-47.63554508545001L43.54981318988655,-47.52511633468991L43.91232239438569,-47.37957441712946L44.22170758652796,-47.22059802076552L44.486240231235996,-47.04806903743739L44.7141917934326,-46.861869358984436L44.91383373804031,-46.661880877245956L45.09343752998192,-46.447985484061256L45.26127463418001,-46.22006507126972L45.42561651555736,-45.97800153071068L45.594734639036595,-45.721676754223395L45.77690046954043,-45.45097263364726L45.98038547199159,-45.16577106082149L46.21346111131266,-44.86595392758557L46.283000427480474,-44.782681184852244L46.35436717540905,-44.70102821117958L46.42745752374831,-44.62093270775753L46.50216764114823,-44.542332375776056L46.57839369625878,-44.46516491642515L46.6560318577298,-44.38936803089481L47.28821184455692,-44.22712246121173L48.20442897888204,-44.15867553737247L49.32358708264714,-44.15517512298419L50.56458997779415,-44.18776908165415L51.84634148626499,-44.22760527698943L53.08774543000155,-44.24583157259736L54.20770563094575,-44.21359583208509L55.125125911039454,-44.102045919059826L55.758910092224696,-43.88232969712879L56.02796199644333,-43.52559502989913L55.851185445637256,-43.00298978097809L55.14748426174841,-42.28566181397282L55.67909969238464,-42.33938112606995L56.440310897908375,-42.439027640074215L57.36652309756687,-42.55905624809163L58.39314151060748,-42.67392184222824L59.45557135627731,-42.75807931459005L60.489217853823924,-42.785983557283075L61.42948622249429,-42.73208946241337L62.21178168153587,-42.570851922086945L62.77150945019579,-42.276725828409916L63.044074747721446,-41.82416607348811L62.96488279336001,-41.187627549427724L62.46933880635891,-40.3415651483347L62.91926513866518,-40.47068289315639L63.598726244940956,-40.66467446548404L64.45429570402209,-40.89646064922681L65.43254709474489,-41.138962228293884L66.48005399594543,-41.36509998659439L67.54338998645969,-41.547794708037486L68.56912864512405,-41.65996717653241L69.50384355077436,-41.67453817598825L70.29410828224695,-41.56442849031414L70.88649641837782,-41.302558903419346L71.22758153800305,-40.86185019921297L71.26393721995886,-40.21522316160418L71.24876356604217,-40.14115377016014L71.23001551790028,-40.06897670507061L71.20832385098468,-39.998341535529235L71.18431934074697,-39.928897830729554L72.04560428301733,-40.26395467522365L72.96547346876486,-40.581214826320654L73.9113368329953,-40.86702446149001L74.85060431071436,-41.10772975820138L75.75068583692774,-41.289676893924174L76.57899134664117,-41.399212046128035L77.3029307748603,-41.42268139228242L77.88991405659085,-41.34643110985691L78.30735112683858,-41.156807376320984L78.52265192060912,-40.84015636914425L78.50322637290814,-40.38282426579622L78.21648441874154,-39.771157243746394L78.32584651869534,-39.77862963990439L78.43525015118912,-39.786081269792355L78.54467454995293,-39.79349136714034L78.6540989487167,-39.800839165678276L78.76350258121047,-39.80810389913618L78.8728646811642,-39.815264801244055L79.57969356815778,-40.134958283292335L80.39228766408739,-40.50241548425158L81.27197238684636,-40.88721511645154L82.1800731543279,-41.2589358922219L83.07791538442544,-41.5871565238923L83.92682449503204,-41.841455723792514L84.68812590404117,-41.99141220425224L85.32314502934592,-42.006604677601146L85.79320728883971,-41.85661185616891L86.05963810041571,-41.51101245228526L86.08376288196727,-40.93938517827989L85.8269070513876,-40.11130874648254L86.24032887680299,-40.33170117008076L86.88233541933495,-40.6478780140923L87.70105772807018,-41.02144763683933L88.64462685209536,-41.41401839664393L89.6611738404972,-41.7871986518283L90.69882974236253,-42.10259676071454L91.70572560677799,-42.3218210816248L92.62999248283052,-42.4064799728812L93.4197614196065,-42.318181792805866L94.02316346619301,-42.018534899720926L94.3883296716767,-41.46914765194852L94.46339108514421,-40.631628407810766L95.16352977215006,-40.86942534514442L96.03071493088646,-41.11044494800495L97.00622214555386,-41.337460297528644L98.03132700035225,-41.533244474851685L99.04730507948196,-41.68057056111036L99.9954319671434,-41.76221163744084L100.81698324753665,-41.76094078497939L101.45323450486188,-41.65953108486222L101.84546132331938,-41.44075561822559L101.93493928710961,-41.08738746620572L101.66294398043267,-40.58219970993885L100.97075098748876,-39.9079654305612L101.50160801663901,-39.96161335860515L102.26162213322286,-40.06110282769246L103.18641400653901,-40.18097439079295L104.2116043058858,-40.29576860087639L105.27281370056211,-40.38002601091261L106.30566285986643,-40.408287173871415L107.2457724530974,-40.35509264272265L108.02876314955371,-40.19498297043605L108.5902556185337,-39.902498709981465L108.86587052933615,-39.452180414328744L108.79122855125986,-38.818568636447665L108.32250896091114,-37.972092207846366L108.78882182709188,-38.10630893721633L109.47761023333113,-38.30250779099361L110.33653409396452,-38.53415985924257L111.31325332332823,-38.77473623202763L112.35542783575815,-38.99770799941312L113.41071754559027,-39.17654625146341L114.42678236716041,-39.28472207824299L115.35128221480446,-39.29570656981615L116.13187700285846,-39.18297081624723L116.71622664565825,-38.91998590760076L117.05199105753977,-38.480222933940965L117.08683015283911,-37.837152985332345L117.07150118452795,-37.75996151498177L117.05284961301552,-37.68443264412374L117.03094812024675,-37.610546904380094L117.00586938816667,-37.53828482737273L116.97768609872043,-37.46762694472349L116.94647093385291,-37.39855378805428L116.91229657550926,-37.33104588898699L118.36785289502177,-37.484084862651045L119.33774067049872,-37.672100075522515L120.3316290625378,-37.81256572164249L121.29964268214648,-37.89275726906334L122.19190614033232,-37.89995018583748L122.95854404810297,-37.82141994001732L123.54968101646583,-37.64444199965525L123.91544165642853,-37.356291832803656L124.00595057899842,-36.94424490751497L123.77133239518321,-36.39557669184165"/>
  <path fill="none" stroke="#000000" stroke-width="1%" d="M6.042690016754659,-40.75983935884213L7.882872267271181,-39.87731441602888L7.9976266753371075,-42.461718251103285L6.042690016754659,-40.75983935884213"/>
  <path fill="none" stroke="#000000" stroke-width="1%" d="M34.75652370024307,-43.513422967259885L34.94323258494188,-43.500862402319214L35.13002734681976,-43.513422967259885L35.30917233398335,-43.550012702383896L35.47902960688567,-43.608993668144365L35.63796122597992,-43.68872792499442L35.784329251719114,-43.7875775333871L35.916495744556414,-43.90390455377553L36.032822764944825,-44.0360710466128L36.13167237333754,-44.182439072352025L36.21140663018754,-44.34137069144623L36.27038759594805,-44.51122796434861L36.30697733107203,-44.69037295151215L36.31953789601268,-44.877167713390065L36.30697733107203,-45.06388395280948L36.27038759594805,-45.242977673243956L36.21140663018754,-45.41280704147098L36.13167237333753,-45.571730224268066L36.032822764944825,-45.71810538841256L35.916495744556414,-45.85029070068205L35.784329251719114,-45.966644327853935L35.63796122597992,-46.06552443670568L35.47902960688567,-46.14528919401483L35.30917233398335,-46.204296766558755L35.13002734681973,-46.24090532111494L34.94323258494188,-46.25347302446096L34.756523700243065,-46.24090532111494L34.57745031344793,-46.20429676655874L34.40765166199531,-46.14528919401483L34.24876698332389,-46.06552443670568L34.10243551487252,-45.966644327853935L33.97029649407995,-45.85029070068205L33.85398915838495,-45.71810538841256L33.75515274522635,-45.571730224268066L33.67542649204285,-45.41280704147098L33.61644963627333,-45.242977673243956L33.5798614153565,-45.063883952809455L33.56730106673115,-44.877167713390065L33.5798614153565,-44.69037295151215L33.61644963627333,-44.51122796434861L33.67542649204285,-44.34137069144623L33.75515274522635,-44.18243907235202L33.85398915838495,-44.03607104661279L33.97029649407995,-43.90390455377553L34.10243551487252,-43.7875775333871L34.248766983323904,-43.688727924994424L34.40765166199531,-43.608993668144365L34.57745031344793,-43.550012702383896L34.75652370024307,-43.513422967259885"/>
</svg>