<?xml version="1.0"?>
<svg 
  xmlns="http://www.w3.org/2000/svg" 
  xmlns:xlink="http://www.w3.org/1999/xlink" version="1.1" preserveAspectRatio="xMinYMin meet" viewBox="-0.02749702031140088 -100.00399438493973 104.74948088763205 100.0173770320396" width="100%" height="100%">
  <path fill="none" stroke="#000000" stroke-width="1%" d="M30.822235817972718,-82.63319719467893L31.050260945421204,-82.79095880238444L31.82649952094795,-83.31097041610627L31.949054823503506,-83.42650422399059L32.027326113143495,-83.57563996138052L32.051717848414405,-83.75060710563372L32.013247979002905,-83.92302673173562L31.764293721229738,-84.56590307320958L31.553119998017316,-85.22216054670223L31.304332946882173,-86.12880694724782L31.0818233199145,-87.0422576346642L30.934806650895187,-87.74704746614638L30.814465817704566,-88.45687891895562L30.632099968234293,-90.17025633285516L30.59773316793679,-91.89296884182217L30.661197419208104,-92.60440333439183L30.817567754015478,-93.30133594720276L30.916452735038238,-93.56917713784391L31.05027684369552,-93.82138389988258L31.24403454903939,-94.0976706047452L31.467797562232228,-94.35027010116364L31.912864381869333,-94.7508258388764L32.40017380763528,-95.09876102898544L33.61010193814776,-95.80014980974407L34.870183586771624,-96.40683468806301L36.43143951782455,-97.02021434519611L38.03281280878238,-97.51957220188744L42.85854917183631,-98.67217591979549L47.74776025598348,-99.51588306738215L48.79344819190405,-99.64252394400644L49.8431184347777,-99.7302368403645L51.01591036559561,-99.80587255595545L52.18876089997312,-99.88059402860561L52.96033902607883,-99.93034944390813L53.731799379531374,-99.98189873185292L54.3417757752932,-100.00399438493973L54.951927391263176,-99.98742855260046L56.22530498203324,-99.89560645333334L57.495823807400825,-99.77029204484117L58.31614306843579,-99.66154648640308L59.13136764892076,-99.51956701648542L60.085465484681045,-99.2965909070246L61.02056326772612,-99.00399363817733L61.95193639055364,-98.63616476993242L62.85440114970615,-98.20221623758364L64.28889644999188,-97.37517621951783L65.65507321756084,-96.43958389495597L67.7728139275865,-94.78560358101194L69.80929412474313,-93.03254197330857L70.66503793581849,-92.25252198900478L71.51365635065137,-91.46475588659007L71.97969133124764,-91.02096794553927L72.43840580144206,-90.56961733393484L72.63519476550397,-90.36350441900441L72.82227563138466,-90.1485412135505L73.00760568724068,-89.93212383492708L73.19937153808586,-89.72138805290737L73.41484373944779,-89.51157379975938L73.6484277811833,-89.32213044191779L73.82552486833592,-89.2467096872122L74.01761436881696,-89.25909081491706L74.14633086674242,-89.32425123845485L74.24578853264953,-89.4287595650424L74.47246958550257,-89.7667720413048L74.69973655933143,-90.10439084474785L75.24008827292639,-90.8655434086087L75.81634645932574,-91.59988645001691L76.3278515471847,-92.1852095367904L76.8722432110642,-92.74007734727688L78.12528342574836,-93.76623059745471L79.52566551628507,-94.57988302507367L80.19517257247708,-94.85239281115976L80.8924422104349,-95.04296126024254L81.50134033892932,-95.12091850517564L82.11489807339888,-95.10139494519792L82.74629437727914,-94.93059964498029L83.29705044716347,-94.57775395829044L84.11664458338774,-93.76956858213502L84.84111288537002,-92.87511688987455L85.72561990314344,-91.53951181939212L86.500474439274,-90.13744405475771L86.98454192004017,-89.12048507465228L87.42634334699198,-88.08446461525207L87.99483994966589,-86.67663041790952L88.56693963938855,-85.27025654888378L88.99140394185632,-84.26853486298195L89.44210639763863,-83.27834115646422L89.63821077892908,-82.89577915162458L89.85939178311837,-82.52714711382262L90.06586339898807,-82.25868770109041L90.31331127030072,-82.02745073296637L91.0300934719795,-81.49499929710913L91.77831993824276,-81.00772277256361L92.7116471466749,-80.45956600654976L93.66139341389488,-79.94037669037675L94.16686390824202,-79.6494340058596L94.64919077484382,-79.32154856842197L95.9190855471396,-78.15847747778498L96.91273419163686,-76.75205312295161L97.72266828980854,-74.91992602718165L98.18473620967829,-72.97077847610629L98.27826986224441,-71.94655818745804L98.26917396770442,-70.9181161577142L98.21182243214086,-70.08758146952005L98.13763474583968,-69.25838109920747L98.06565846298128,-67.95245617674506L98.1095584569363,-66.6452862264581L98.19678036487026,-65.67157077186266L98.30627774923371,-64.7001080754305L98.44161107861379,-63.586205309112955L98.57072860716245,-62.471564942594455L98.66885035792426,-61.30854627212784L98.70086963096152,-60.141835051653544L98.719811180684,-58.57580955443055L98.77953163382915,-57.01080856154442L98.81459393346675,-56.16826248086028L98.83351738165904,-55.32519951403003L98.79368037495466,-53.6180700093937L98.6304610942005,-51.91829425974521L98.3771070313805,-50.23393849220227L98.06541399362766,-48.559396739059345L97.65465433492949,-46.70519451858644L97.18253126515044,-44.865659474450844L96.83231883003886,-43.65705374278323L96.44793009047407,-42.45887935596705L96.34676355674,-42.17880992634276L96.23337788800465,-41.903460615315346L96.12162907746132,-41.6273947629667L96.02550392663267,-41.34550807142381L95.95495463057641,-40.79352182740883L96.07635605832274,-40.25044935517608L96.31447823922242,-39.681345999781406L96.55581351664424,-39.11359774040083L97.99527608597937,-35.93156816036544L99.56124101720818,-32.809850913256305L100.3022183372155,-31.454107270116857L101.08397537309777,-30.12146172402183L102.20536256941463,-28.352689691251392L103.3943382793524,-26.628624579617775L103.75885569544062,-26.149558300634514L104.14902102701676,-25.691138776261322L104.3396245569939,-25.48410500228261L104.53498466207087,-25.28155348154798L104.65467311125859,-25.117016069180245L104.7203745109112,-24.924451246272906L104.72198386732065,-24.83489508926923L104.69520461705507,-24.749421309426943L104.64278240773386,-24.676793441117333L104.54663903291,-24.603023960456408L104.43473174635913,-24.556524024797007L104.21684708012013,-24.52100760181262L103.99628342869302,-24.53032531359305L103.41120691311012,-24.675519729778962L102.86618808372333,-24.933105488686646L101.95729924577648,-25.53467689847185L101.10486293298526,-26.213881884798024L100.33064049117088,-26.952254701567945L99.62571993674109,-27.75705394230821L99.0239721776861,-28.552727314847182L98.46597066899248,-29.379667940037972L97.92442813432571,-30.217080474644465L97.37055467700361,-31.046388778740955L96.75783010700407,-31.915259557807595L96.1142827074683,-32.761554171962565L95.76628003577683,-33.21608710201557L95.43177412948941,-33.680642634396555L95.18382389966273,-34.04247146201349L94.94213701503264,-34.40851362729444L94.86843814726471,-34.49241029352664L94.77372872091816,-34.55157361219847L94.69957273958424,-34.56179561890787L94.63104412835051,-34.53167206614368L94.57750939814612,-34.47567679125056L94.53856996982623,-34.408705461037364L94.49906102372033,-34.29552262871355L94.47636032913688,-34.177811164443206L94.43182957512461,-33.728014004377485L94.4045663211949,-33.276840879910544L94.36766883665662,-32.42251309905311L94.32740371655784,-31.568337413603395L94.34457887776874,-30.875820122746724L94.46350950684717,-30.193375480475233L94.62859088578874,-29.636104671849928L94.83939770810098,-29.094474632537306L95.2593412927413,-28.101242582328876L95.65383439488072,-27.09763025069567L95.82978991356462,-26.60456416492884L95.98688328309454,-26.10516834722663L96.13662681252684,-25.603613110255715L96.29074826206795,-25.103385802793248L96.54804782585688,-24.356794946211448L96.84766850429014,-23.626159317657233L97.08711672933076,-23.142583157317528L97.36625673638328,-22.6807799397164L97.77468315589725,-22.133637615176735L98.24129293020384,-21.635187836381256L98.72807869381585,-21.157847596100375L99.20247511754341,-20.66819249523727L99.72442421191589,-20.06094889156422L100.18739257426469,-19.4076220615762L100.70417699891165,-18.53158461944994L101.15519399201976,-17.61994246734609L101.91858076530272,-15.78957099389903L102.5801245298583,-13.919977737597062L102.87545792956679,-12.828386994741916L103.06402126716483,-11.713382046508796L103.1164750183366,-10.048233753170006L102.8775863557312,-8.399475905061434L102.57168929623742,-7.23127293387621L102.20888458156861,-6.079472633517212L101.878413733107,-5.2244932467661L101.48206074959795,-4.3979915553487805L101.15711448891496,-3.8602600167918686L100.77286075473096,-3.3631741613742454L100.33627564723243,-2.9390284609867328L99.8345480350706,-2.594390194914723L99.07401854383862,-2.22053776101751L98.27394086266071,-1.9411698075127926L97.99112851798822,-1.8740392328896003L97.7036451754439,-1.8311129692742012L97.34474858714289,-1.798141311636797L96.98506074249705,-1.7753697127583759L96.21703019455116,-1.7537540818753563L95.44876712897347,-1.7642431307222777L95.05587843124796,-1.793903572071002L94.6667151160641,-1.8554924078818966L94.16344757896961,-1.9966924701971032L93.68726429433418,-2.2122502372220505L93.2756521757445,-2.4600552410466885L92.88575597145297,-2.7407914267610347L92.22892070482315,-3.276809719463613L91.59331987809203,-3.8378442697893282L91.24368984865653,-4.13197068750783L90.87002182044826,-4.39488457412834L90.62404922103586,-4.546714158147181L90.3730581730514,-4.690095593754136L90.24495342669329,-4.780740500123867L90.14059989800107,-4.8979482905635185L90.08893245209919,-4.999694271463809L90.06824658540116,-5.111916660113933L90.06141328338869,-5.260208417510966L90.0523386174019,-5.4083799052051935L90.03353089736244,-5.555365513102485L89.99768315531198,-5.699148122106136L89.95607869469112,-5.841131824215053L89.91956295180512,-5.984508612188534L89.90204362224875,-6.089510672520275L89.89854500506543,-6.195906721600194L89.89994299829726,-6.302139380576803L89.89704992950736,-6.408341839923521L89.86091757446698,-6.635701171188769L89.77596560357289,-6.849666063718727L89.68061767280197,-7.058110924359282L89.61052055480874,-7.276346764401181L89.59611538537173,-7.535745367238418L89.68200265806085,-7.780936151017967L90.1658458934347,-8.45595711719639L90.76129415594208,-9.034920801613989L91.02275445468544,-9.239503977508475L91.29165818205279,-9.434200020318723L91.42497300879315,-9.519439037588226L91.56454855833383,-9.593985661014797L91.73279117262427,-9.653915865418496L91.91002172321113,-9.675973485458682L92.14924393640848,-9.66011446809132L92.38279458693734,-9.605958495600389L92.65933736663628,-9.50788066988194L92.92901010906618,-9.392244253076381L93.14891444625313,-9.279052203765216L93.35955275890116,-9.149430219573897L93.56978657049409,-8.98238593465359L93.75007587308825,-8.783393934735214L93.92400529962252,-8.579521799991808L94.11808811245587,-8.394732313001652L94.6628434283946,-8.001351653730707L95.26549711071137,-7.704172858184945L95.43274910997776,-7.7093857209312215L95.54413457713899,-7.834260389707195L95.57150246270558,-7.945982448542649L95.58014909732087,-8.060682297281202L95.5666386988753,-8.625086316164042L95.5343107128637,-9.188725676675414L95.5190548032522,-9.43555691432388L95.50984755170522,-9.682687707986018L95.50431559853534,-10.02511640813479L95.50483912003756,-10.367589389721187L95.43868997131486,-11.058623422491646L95.22887699368239,-11.720350147613697L94.92901947487988,-12.316064170191805L94.56727407325572,-12.876358729046698L94.20492639590638,-13.352879414890193L93.82073670845827,-13.81197209330679L93.44799857452519,-14.215639728996077L93.05521763020339,-14.59983291785893L92.38362307127151,-15.174343244004898L91.66695212973355,-15.69153192136586L90.93501973581266,-16.185620910445532L90.21305089703199,-16.694157983066784L89.47183686478353,-17.312619299910533L88.82671185575617,-18.030746283640763L87.91626375313321,-19.316043893694093L87.12180827171214,-20.676097636021378L85.8049920588842,-23.29982569566298L84.59252752293192,-25.97337831687228L83.9775879070543,-27.550083677425285L83.47183976147475,-29.165128363622934L83.24560303139236,-30.100590758049783L83.0796381015862,-31.04860372816129L83.042195240999,-31.286211050033366L82.99765283358344,-31.522590366298125L82.90850456587737,-31.84247647527005L82.77524875581392,-32.146643247670575L82.65882226452891,-32.35820781255979L82.53419157000843,-32.56504563060344L82.39727961490365,-32.794033098604736L82.27105405367215,-33.02908043776018L82.14318805598236,-33.29449422501549L82.02649733421417,-33.56500756532174L81.12350575727514,-35.94519131961531L80.33478302575983,-38.36564271243791L79.92847654984655,-39.932386700427884L79.64060304727059,-41.5251517561679L79.52021255762496,-42.683761634674255L79.48768032942792,-43.848155199882406L79.48649771347934,-44.13925131440235L79.47720455475267,-44.43020145389358L79.35641392796128,-45.25068647737377L79.07454985963085,-46.030647179114624L78.76616508745494,-46.797892168139676L78.55969656419988,-47.598602346543146L78.46829731970931,-48.21907746422218L78.4282748111313,-48.84496994089802L78.40517466448895,-49.181955266561175L78.35135836964368,-49.51541670795481L78.27198626827831,-49.785140945433085L78.15045148744136,-50.038676725561466L77.97757996171055,-50.29066274241379L77.76948948154902,-50.514448061779774L77.39390730619851,-50.83976847606624L76.99707498523456,-51.138799329710025L76.54973625388935,-51.43197211366439L76.08477350726078,-51.69630498347195L75.23444923529192,-52.11207943814705L74.36031652492008,-52.47513834427349L73.48367828183211,-52.831602750818035L72.62444523115698,-53.22818823593434L72.26437027451956,-53.403347682397L71.90332660771512,-53.57650159295915L71.8083175408873,-53.61077176443132L71.70844663641745,-53.62583728375827L71.56061308952671,-53.5804558954628L71.47660697576481,-53.4506206119666L71.4443855467015,-53.299382175304025L71.4167239168024,-53.147243687582005L71.19607504932382,-51.97155560080074L70.92697132134842,-50.80600354974996L70.56685101698969,-49.42458473360986L70.18628491631085,-48.04865812865908L69.23261074517754,-44.75263982038627L68.25002178438157,-41.46512555467146L67.83631562637382,-40.15466400565786L67.3939666194432,-38.85359152009673L66.19416772478579,-35.784988261704946L64.78850882800793,-32.80506101243473L64.42146702897762,-32.06794439025044L64.07338537095467,-31.321687225270587L63.495775107278966,-29.984862350120586L62.96071196303427,-28.630446684531083L62.4405664139737,-27.27040876289448L61.90722329823322,-25.915491916224777L61.554158392106224,-25.062372076999033L61.179841923803025,-24.218360542968817L60.80451578602194,-23.374812008579745L60.44837945333894,-22.522984119793087L60.115626966905864,-21.643451122680354L59.823661396223144,-20.749550336366035L59.62014888980075,-19.90935581794738L59.51020041504009,-19.05188540915834L59.41858625322562,-17.671616649401923L59.34407673854264,-16.290318949401577L59.31926705766398,-15.293774429213281L59.33992010093353,-14.297135099873753L59.3547279412177,-13.809297767522363L59.3566726103716,-13.321239622183596L59.360065435804216,-12.833168159738431L59.37921555803504,-12.345460730497987L59.41985789063466,-11.907203203640417L59.49285925669855,-11.47316143191875L59.69789767509258,-10.808225502399976L60.02531371500058,-10.194239118028547L60.36517653033798,-9.71126998062071L60.731447325799785,-9.248008040322047L61.07949705772782,-8.857858213021414L61.45143692862319,-8.490412657767022L61.784923302382715,-8.22128828935564L62.152172263445635,-8.000450593854422L62.3505217832016,-7.88270849319589L62.53247132659329,-7.74093367909107L62.89419667332111,-7.376197441124588L63.20599209440679,-6.967955643728302L63.43790272457297,-6.56012356860465L63.610026439299304,-6.12368002275643L63.74644057348172,-5.64059297127467L63.85389674231242,-5.15025116488418L63.880235952652754,-4.9292637707515885L63.87665225564833,-4.706741098911947L63.82172264388006,-4.4627146265247L63.70240020068737,-4.242877559528906L63.55224835913321,-4.067909251989447L63.3779376457933,-3.916994509898869L62.972520424752446,-3.645802335116485L62.542043478094826,-3.416459977109809L62.269629146360266,-3.3040854913022737L61.98765618698789,-3.218476827151434L61.37117145908752,-3.0882664393019033L60.74651949934875,-3.0056946884859164L60.120719776583115,-2.935420601338492L59.49799733363545,-2.8417162824026283L58.807276284589584,-2.716186515557495L58.1196690845039,-2.5745898053220624L57.42722819597949,-2.455155086782099L56.72697686752115,-2.3969561771226884L56.14922423975048,-2.4170932244950896L55.58071918770656,-2.522000828477743L55.43732140360862,-2.5436210455385284L55.29259674714092,-2.534394340803458L55.21161324446567,-2.5038833642184946L55.147722227203765,-2.4455122642549005L55.1000032847094,-2.3544524574758148L55.08291224826826,-2.2530774982561463L55.09009827231728,-2.0567352564994503L55.11520180264321,-1.8618719002601263L55.117621497798666,-1.6630238211838841L55.05671527686713,-1.4737175990758968L55.004557747618385,-1.4012252288318476L54.933232496729346,-1.3474826927310342L54.84916915445044,-1.317334623376041L54.75994562905021,-1.3134987250343213L54.5902667499731,-1.3128776602893306L54.424918005656764,-1.274784347499448L54.26479928846814,-1.1992410199846828L54.12352118086263,-1.0925391257299137L53.86488981968489,-0.8903867731300179L53.57533962217443,-0.7357373703895858L53.15424077451331,-0.5848863677279467L52.718086313242196,-0.4856414665047026L51.36444782448538,-0.3036767410061287L50.002337107183536,-0.2031644861265533L48.1664100167155,-0.16190976457328074L46.33038482270931,-0.19853926824585238L45.87141909961671,-0.2087034902815929L45.41239875005536,-0.2014120520045281L44.83731024569378,-0.15403729136542663L44.26926732127121,-0.0525562990174535L43.96259236998939,-0.0014106566430598373L43.65203390425072,0.01338264709987413L43.17363903264385,-0.05680334148087239L42.731079586903554,-0.2515566807561526L42.41041622242912,-0.46063120429779747L42.10231291906434,-0.6878084570454062L41.81624895283932,-0.8973946360828362L41.51743292377186,-1.088360444510016L41.21864093354074,-1.279366645499621L40.932659078776595,-1.489067387006187L40.75420205116797,-1.6537482875272072L40.60449393969345,-1.8449397911513468L40.42795752085767,-2.147590134547541L40.286126011153186,-2.4679745292801125L40.141043463212704,-3.1201777025161155L40.18482281985121,-3.7868870041073834L40.297504873167874,-4.2152737952638395L40.45190372080026,-4.63045265289844L40.74831398895265,-5.277039581656906L41.07589537587243,-5.908406462678697L41.247918752299405,-6.250790565083532L41.39386904012185,-6.605074955229993L41.53823579606225,-7.062141654720759L41.638664890217605,-7.5308267569496055L41.72220987406672,-8.002300056486915L41.81678128058116,-8.471685916492104L41.95399981615672,-9.01862398187849L42.12943160094301,-9.554528696133543L42.31746107780521,-10.085811513491192L42.493246434668755,-10.621270218249007L42.67661494791565,-11.357656312879438L42.767981845470764,-12.11100920631422L42.79027304421979,-12.65324518181843L42.793114135504204,-13.195931720137747L42.77460808557175,-14.153374807543852L42.74339748563455,-15.110487986826934L42.73118991175167,-16.068347098768054L42.769721698273,-17.025508738521847L42.902104686875624,-18.172306559713572L43.14426344380058,-19.301035772060825L43.287888124987326,-19.905361822726544L43.39965141195197,-20.516383092606794L43.522668633890675,-21.493788051670613L43.58783878798784,-22.476746108716306L43.633350936033686,-24.507496948888114L43.62079069006751,-26.53871888917417L43.568744211877664,-28.81125439887556L43.505702754953944,-31.08351148236211L43.48489098981532,-31.591029155664337L43.45309425692924,-32.09797716686479L43.411824973401394,-32.69499467496431L43.37587282156457,-33.292355957203576L43.36280342106528,-33.44151350480667L43.340298898621576,-33.589541643030294L43.28352124155151,-33.77037639715068L43.18486201455789,-33.932213560896095L43.04105303362653,-34.02429706058195L42.87105588159267,-34.00813035988913L42.68009244053082,-33.87220837524365L42.55379498430023,-33.67474755816381L42.472458083195995,-33.460213183294236L42.39761725586308,-33.243327176262774L42.2345310817199,-32.771818620267915L42.05664636156058,-32.30569155078275L41.75803080072882,-31.6571317440652L41.39474845505541,-31.042455395583804L40.86195829197902,-30.290369790281723L40.28298991967213,-29.57322702943012L40.00348226476448,-29.276187247028L39.69874079302088,-29.00509723083221L39.23100754589504,-28.65109395390497L38.7398081720011,-28.330444791067556L37.81624030865052,-27.75389306211111L36.90978665800791,-27.150791682894216L35.75707983412645,-26.300930742559878L34.66425555115407,-25.375332705464594L33.674114806548374,-24.341080623250303L32.839688056373866,-23.177556638845097L32.61824014932211,-22.78317839307753L32.428833049949624,-22.37244937416163L32.21780099376685,-21.81540041149473L32.04075397970994,-21.246636461900078L31.701300234874516,-19.78393110650618L31.490411522236464,-18.29723619750076L31.460752865082362,-17.74480824069742L31.47944101595179,-17.19190043968612L31.528076719682026,-16.67859359033741L31.59410191713781,-16.16723263507529L31.64610434771613,-15.872473902901358L31.71525213303088,-15.581259983651432L31.812306229816024,-15.291096069182894L31.943620637860054,-15.014742814809932L32.0779328039306,-14.775956860957134L32.216230836605526,-14.539457085333149L32.38441324532588,-14.235809323047203L32.533006963583496,-13.922110115144772L32.68188715964201,-13.608535641820719L32.850893401562956,-13.305334135738343L33.0775700935881,-12.968056697403297L33.33716678166122,-12.655410007577883L33.59736921383951,-12.343320390187369L33.826065428773866,-12.007458400273133L34.17747510137102,-11.275683356573763L34.37409501221038,-10.488076802996671L34.38774252519571,-10.18011141935251L34.34064788190171,-9.875462397186352L34.291002455520335,-9.742801330832815L34.214580432780174,-9.623539847834534L34.09845881157796,-9.502549168961194L33.96272970731318,-9.404057618357397L33.68355653103669,-9.262294978305176L33.387583113062426,-9.160147808400522L32.46440210303965,-8.944988162270873L31.528560337328834,-8.794133794947594L30.421407924107402,-8.67698009378938L29.310482274824558,-8.603797735515398L28.399127710536085,-8.583977710580085L27.487882162560886,-8.60829902907163L26.046389072207408,-8.737631333256614L24.6191559850486,-8.9777040084231L24.114867928509007,-9.119644811179084L23.634957477160395,-9.32973906179495L23.451429015989994,-9.446724612299873L23.29054395190102,-9.593299887294036L23.095910663798456,-9.831162722349841L22.93137436439593,-10.090755964398522L22.645421831005986,-10.81542647078946L22.55329201261574,-11.589007940803082L22.574582034377876,-12.244500036338405L22.625146095186814,-12.898385674726665L22.684224378590937,-13.65690680222148L22.71018655749375,-14.41728204490931L22.72316024487366,-14.826727767068174L22.751960926470794,-15.23536530413244L22.836142077603675,-15.791992776012247L22.98677544389356,-16.334422677121633L23.268656366039984,-17.34105776412599L23.431649536023777,-18.37362944647887L23.44908072913942,-18.615431386912938L23.45374553383349,-18.857815925380844L23.455014999405996,-19.100176297204282L23.462272362944713,-19.3424313116987L23.487513628463695,-19.601055986695822L23.540986594384755,-19.855348113821275L23.627223779002726,-20.179857101737603L23.711834331711238,-20.504794002719443L23.768496364581733,-20.753298513764886L23.811135554177618,-21.00458913732565L23.851284479101544,-21.256230770061798L23.900556776441572,-21.506246146016007L24.094112153082033,-22.23831096498126L24.353696852764735,-22.949646586670276L25.046400525800074,-24.51860868743507L25.801733541399194,-26.05839844185571L26.45036021537852,-27.299616879002354L27.112219044560796,-28.533830256479582L27.36466010427234,-28.98290527901492L27.6300467817753,-29.424453437087557L27.86796563090267,-29.79502428465719L28.116920821611735,-30.158272746261083L28.231796435356934,-30.368018793310714L28.29592058219101,-30.598405217995637L28.3205526817707,-30.858443064202913L28.312720489421803,-31.11952749221962L28.273287311556125,-31.601838476092528L28.24411504792631,-32.08487868116428L28.24231892235108,-32.336171835377066L28.26188531363895,-32.58670852281677L28.28733369252684,-32.83653308003719L28.303288480397562,-33.08714308407213L28.301083668037712,-33.4437878219402L28.26272337977691,-33.79837041955472L28.219699023061118,-33.951524145291025L28.14280644758629,-34.09078896789374L28.002335608197154,-34.22475840507835L27.82229507339455,-34.297320603544485L27.62452143202004,-34.318918917341456L27.42594576826233,-34.30672850534797L27.01287372409278,-34.23590655364999L26.60357519988589,-34.145801167580096L24.97369742422658,-33.75639598787382L23.33955080844209,-33.38531271461793L23.063735094573666,-33.32688214477836L22.7869208311707,-33.27338164865734L22.173183475943045,-33.16299042286773L21.558575674468553,-33.057553169964116L20.902183122370324,-32.92631212734708L20.255347002882313,-32.75403784533467L19.460518364689612,-32.39420346580125L18.788620099891784,-31.837619180587303L18.5041473296487,-31.49743203610391L18.25447311283453,-31.13094215119606L17.86682691659767,-30.484699160812998L17.490258287808764,-29.831939140676813L17.174583560463017,-29.307796457192982L16.8307120857563,-28.801705067207486L16.41014347871811,-28.27482348692084L15.939574743004238,-27.7920738438966L15.505371080432763,-27.411445129358647L15.049869575363157,-27.056579777710148L14.19609541103058,-26.40829133045543L13.364235292148575,-25.732113116417658L11.840883738789355,-24.148795448536283L10.6833951996751,-22.281252925762978L10.118524987265074,-20.981438759639L9.65736383890467,-19.64131726568122L9.520687743494786,-19.205490789621045L9.37382818489577,-18.7729895268025L9.296135198613838,-18.53961380956218L9.22675112150041,-18.303634413516768L9.186168036902385,-18.12957256486322L9.159343844925514,-17.95286666049959L9.132301707997867,-17.64829977166023L9.119225857048788,-17.342814438020692L9.123714238937906,-16.47221641240996L9.17178405174023,-15.602934892494584L9.236036743253731,-15.076473044098133L9.34336154168332,-14.557077362728132L9.525263787588115,-13.993952684802178L9.781319506203756,-13.460442329777404L10.03436947209485,-13.025039320375466L10.297347663677908,-12.595559941842065L10.618565823892181,-12.072784207406297L10.929336923741827,-11.543731375956993L11.096840995717667,-11.258951932183162L11.270293971638948,-10.977756251439882L11.431823811024412,-10.752161152603533L11.618449801924978,-10.546842431705398L11.936674936830624,-10.137439003589348L12.134000955496145,-9.657917527744399L12.265200068774288,-8.97496700260882L12.306181870930768,-8.280737127855572L12.28410204246715,-8.149308077563772L12.221801742457341,-8.031495570993867L12.172032240868685,-7.982195857114503L12.110328282056695,-7.949028304538315L12.041752932189649,-7.934714448748037L11.88929626098307,-7.921819216158155L11.737567099216673,-7.902132035338935L11.621947893990917,-7.875106020671507L11.511955933489215,-7.830384943863917L11.086339684161342,-7.624596138229122L10.655100054373092,-7.430867962899354L10.32880164797177,-7.319749875482698L9.98897707809341,-7.261981881938082L9.449301602446225,-7.208868072980734L8.910750153975668,-7.145361907396078L8.38276663272262,-7.092573105895324L7.852685949653375,-7.068746110374945L7.168928036994016,-7.071258982351706L6.48589298866902,-7.102791828869412L5.556106176917708,-7.17178434314634L4.62732808906027,-7.25323829239906L4.125583879768043,-7.28092834828139L3.623208705630943,-7.26938819387277L3.1368115453315535,-7.235192238497843L2.6510382683165963,-7.193050996828019L2.3877243893235227,-7.186581731379674L2.126092722830634,-7.216994251070743L1.8330361730181006,-7.30488703060986L1.5648917255380037,-7.452216041224643L1.3308146546256123,-7.634101221986382L1.1171511621731012,-7.839581649523038L0.9871544486473594,-7.974804313654031L0.8535737014621672,-8.106487639871203L0.7195788788257146,-8.237739486576613L0.5882998020150721,-8.371707631106188L0.3613462927401797,-8.657978387230768L0.19234107424846053,-8.981855026256964L0.049567830165159414,-9.424283719596882L-0.02630570671348664,-9.882945418802363L-0.02749702031140088,-10.20043522007404L0.025718549383114457,-10.513435693367141L0.09368665568351273,-10.756215102044406L0.17058090647228136,-10.996316703345597L0.26426678480549975,-11.311685957243666L0.332672307043623,-11.633486352878306L0.42093873122395553,-12.1347201116244L0.5137254156537522,-12.635136811722289L0.6300835175149471,-13.219335736410084L0.7566504056739942,-13.801408252765935L0.8802881778485696,-14.384144584393281L0.9878036158805655,-14.970069802737353L1.1676722434440445,-16.585143256367783L1.1633957098458152,-18.210196084759456L1.15089373652637,-18.61590838183511L1.1616047875936883,-19.02167190991558L1.2357539415106655,-19.732630147637604L1.3790112699858805,-20.432942257092797L1.8516770295048555,-22.137957938475278L2.3912091433664946,-23.823008825568515L2.959020401909142,-25.451891401768002L3.545762823993484,-27.07405088914914L3.774540721935053,-27.66614757758956L4.02194503009997,-28.250706320018548L4.484914744059082,-29.26778299928677L4.970077010294502,-30.27446244328869L5.432676668762296,-31.29232229209663L5.8261175310831685,-32.33886010970574L6.072350462027584,-33.085827614651016L6.307074003412949,-33.83649130022872L6.358161587636316,-34.02517468563841L6.397478210190611,-34.21665722892207L6.440318829914502,-34.59467621406581L6.43857771166307,-34.97511101838143L6.349617552859625,-36.48987340286295L6.2746799067483305,-38.00539421779414L6.1820051593770255,-41.037862788830815L6.17564705821222,-44.07174047550101L6.202515878555628,-44.71925659276085L6.267312008541834,-45.36408255157198L6.4082779363694,-46.429291175509775L6.553679386941338,-47.4939034164178L6.6428261689411965,-48.120351052586166L6.736401527691256,-48.74615249221114L6.842049520098866,-49.311722229259836L6.9844394594662855,-49.86917691883741L7.267073986280918,-50.77447446315199L7.585372715135362,-51.66785670984115L7.92790174405644,-52.5415345983704L8.290518578244471,-53.407068087105436L9.699018019088767,-56.8871154861458L10.941015437554508,-60.430001737064714L11.460138429406,-61.79251552159993L12.114135006919325,-63.0956735973214L12.893459314049235,-64.40081885327126L13.730992891762794,-65.66939601726813L14.471769998907401,-66.66964503518705L15.273704287624337,-67.62156426332427L15.714367308152996,-68.12624802545989L16.141114260656447,-68.64275227128344L17.579540640003085,-70.42942695239591L19.02130331556769,-72.21341048715104L19.703375122927135,-73.03678721663744L20.403673619956432,-73.84471865191696L22.309373637014694,-75.84707696035818L24.35173315400133,-77.70984343895222L26.313618377286083,-79.31204986612907L28.33580444782988,-80.83744245845702L28.438371823735768,-80.90914724161699L28.543299210784575,-80.97735197734228L28.837138888082173,-81.15888903703024L29.133174764848327,-81.33682222578888L29.30493983649763,-81.44530529998957L29.470309050699775,-81.5633088601939L29.797338160424637,-81.81808170352355L30.117198503099026,-82.08179860000533L30.355518963062345,-82.27847622904115L30.599007082204995,-82.4687188826093L30.822235817972718,-82.63319719467893"/>
</svg>