 0
SECTION
 2
ENTITIES
  0
POLYLINE
 8
Layer0
 66
     1
70
    8
 10
0.0
 20
 0.0
 30
0.0
  0
VERTEX
  8
MY3DLAYER
10
30.822235817972718
20
82.63319719467893
30
0.0
 70
     32
  0
VERTEX
  8
MY3DLAYER
10
31.050260945421204
20
82.79095880238444
30
0.0
 70
     32
  0
VERTEX
  8
MY3DLAYER
10
31.82649952094795
20
83.31097041610627
30
0.0
 70
     32
  0
VERTEX
  8
MY3DLAYER
10
31.949054823503506
20
83.42650422399059
30
0.0
 70
     32
  0
VERTEX
  8
MY3DLAYER
10
32.027326113143495
20
83.57563996138052
30
0.0
 70
     32
  0
VERTEX
  8
MY3DLAYER
10
32.051717848414405
20
83.75060710563372
30
0.0
 70
     32
  0
VERTEX
  8
MY3DLAYER
10
32.013247979002905
20
83.92302673173562
30
0.0
 70
     32
  0
VERTEX
  8
MY3DLAYER
10
31.764293721229738
20
84.56590307320958
30
0.0
 70
     32
  0
VERTEX
  8
MY3DLAYER
10
31.553119998017316
20
85.22216054670223
30
0.0
 70
     32
  0
VERTEX
  8
MY3DLAYER
10
31.304332946882173
20
86.12880694724782
30
0.0
 70
     32
  0
VERTEX
  8
MY3DLAYER
10
31.0818233199145
20
87.0422576346642
30
0.0
 70
     32
  0
VERTEX
  8
MY3DLAYER
10
30.934806650895187
20
87.74704746614638
30
0.0
 70
     32
  0
VERTEX
  8
MY3DLAYER
10
30.814465817704566
20
88.45687891895562
30
0.0
 70
     32
  0
VERTEX
  8
MY3DLAYER
10
30.632099968234293
20
90.17025633285516
30
0.0
 70
     32
  0
VERTEX
  8
MY3DLAYER
10
30.59773316793679
20
91.89296884182217
30
0.0
 70
     32
  0
VERTEX
  8
MY3DLAYER
10
30.661197419208104
20
92.60440333439183
30
0.0
 70
     32
  0
VERTEX
  8
MY3DLAYER
10
30.817567754015478
20
93.30133594720276
30
0.0
 70
     32
  0
VERTEX
  8
MY3DLAYER
10
30.916452735038238
20
93.56917713784391
30
0.0
 70
     32
  0
VERTEX
  8
MY3DLAYER
10
31.05027684369552
20
93.82138389988258
30
0.0
 70
     32
  0
VERTEX
  8
MY3DLAYER
10
31.24403454903939
20
94.0976706047452
30
0.0
 70
     32
  0
VERTEX
  8
MY3DLAYER
10
31.467797562232228
20
94.35027010116364
30
0.0
 70
     32
  0
VERTEX
  8
MY3DLAYER
10
31.912864381869333
20
94.7508258388764
30
0.0
 70
     32
  0
VERTEX
  8
MY3DLAYER
10
32.40017380763528
20
95.09876102898544
30
0.0
 70
     32
  0
VERTEX
  8
MY3DLAYER
10
33.61010193814776
20
95.80014980974407
30
0.0
 70
     32
  0
VERTEX
  8
MY3DLAYER
10
34.870183586771624
20
96.40683468806301
30
0.0
 70
     32
  0
VERTEX
  8
MY3DLAYER
10
36.43143951782455
20
97.02021434519611
30
0.0
 70
     32
  0
VERTEX
  8
MY3DLAYER
10
38.03281280878238
20
97.51957220188744
30
0.0
 70
     32
  0
VERTEX
  8
MY3DLAYER
10
42.85854917183631
20
98.67217591979549
30
0.0
 70
     32
  0
VERTEX
  8
MY3DLAYER
10
47.74776025598348
20
99.51588306738215
30
0.0
 70
     32
  0
VERTEX
  8
MY3DLAYER
10
48.79344819190405
20
99.64252394400644
30
0.0
 70
     32
  0
VERTEX
  8
MY3DLAYER
10
49.8431184347777
20
99.7302368403645
30
0.0
 70
     32
  0
VERTEX
  8
MY3DLAYER
10
51.01591036559561
20
99.80587255595545
30
0.0
 70
     32
  0
VERTEX
  8
MY3DLAYER
10
52.18876089997312
20
99.88059402860561
30
0.0
 70
     32
  0
VERTEX
  8
MY3DLAYER
10
52.96033902607883
20
99.93034944390813
30
0.0
 70
     32
  0
VERTEX
  8
MY3DLAYER
10
53.731799379531374
20
99.98189873185292
30
0.0
 70
     32
  0
VERTEX
  8
MY3DLAYER
10
54.3417757752932
20
100.00399438493973
30
0.0
 70
     32
  0
VERTEX
  8
MY3DLAYER
10
54.951927391263176
20
99.98742855260046
30
0.0
 70
     32
  0
VERTEX
  8
MY3DLAYER
10
56.22530498203324
20
99.89560645333334
30
0.0
 70
     32
  0
VERTEX
  8
MY3DLAYER
10
57.495823807400825
20
99.77029204484117
30
0.0
 70
     32
  0
VERTEX
  8
MY3DLAYER
10
58.31614306843579
20
99.66154648640308
30
0.0
 70
     32
  0
VERTEX
  8
MY3DLAYER
10
59.13136764892076
20
99.51956701648542
30
0.0
 70
     32
  0
VERTEX
  8
MY3DLAYER
10
60.085465484681045
20
99.2965909070246
30
0.0
 70
     32
  0
VERTEX
  8
MY3DLAYER
10
61.02056326772612
20
99.00399363817733
30
0.0
 70
     32
  0
VERTEX
  8
MY3DLAYER
10
61.95193639055364
20
98.63616476993242
30
0.0
 70
     32
  0
VERTEX
  8
MY3DLAYER
10
62.85440114970615
20
98.20221623758364
30
0.0
 70
     32
  0
VERTEX
  8
MY3DLAYER
10
64.28889644999188
20
97.37517621951783
30
0.0
 70
     32
  0
VERTEX
  8
MY3DLAYER
10
65.65507321756084
20
96.43958389495597
30
0.0
 70
     32
  0
VERTEX
  8
MY3DLAYER
10
67.7728139275865
20
94.78560358101194
30
0.0
 70
     32
  0
VERTEX
  8
MY3DLAYER
10
69.80929412474313
20
93.03254197330857
30
0.0
 70
     32
  0
VERTEX
  8
MY3DLAYER
10
70.66503793581849
20
92.25252198900478
30
0.0
 70
     32
  0
VERTEX
  8
MY3DLAYER
10
71.51365635065137
20
91.46475588659007
30
0.0
 70
     32
  0
VERTEX
  8
MY3DLAYER
10
71.97969133124764
20
91.02096794553927
30
0.0
 70
     32
  0
VERTEX
  8
MY3DLAYER
10
72.43840580144206
20
90.56961733393484
30
0.0
 70
     32
  0
VERTEX
  8
MY3DLAYER
10
72.63519476550397
20
90.36350441900441
30
0.0
 70
     32
  0
VERTEX
  8
MY3DLAYER
10
72.82227563138466
20
90.1485412135505
30
0.0
 70
     32
  0
VERTEX
  8
MY3DLAYER
10
73.00760568724068
20
89.93212383492708
30
0.0
 70
     32
  0
VERTEX
  8
MY3DLAYER
10
73.19937153808586
20
89.72138805290737
30
0.0
 70
     32
  0
VERTEX
  8
MY3DLAYER
10
73.41484373944779
20
89.51157379975938
30
0.0
 70
     32
  0
VERTEX
  8
MY3DLAYER
10
73.6484277811833
20
89.32213044191779
30
0.0
 70
     32
  0
VERTEX
  8
MY3DLAYER
10
73.82552486833592
20
89.2467096872122
30
0.0
 70
     32
  0
VERTEX
  8
MY3DLAYER
10
74.01761436881696
20
89.25909081491706
30
0.0
 70
     32
  0
VERTEX
  8
MY3DLAYER
10
74.14633086674242
20
89.32425123845485
30
0.0
 70
     32
  0
VERTEX
  8
MY3DLAYER
10
74.24578853264953
20
89.4287595650424
30
0.0
 70
     32
  0
VERTEX
  8
MY3DLAYER
10
74.47246958550257
20
89.7667720413048
30
0.0
 70
     32
  0
VERTEX
  8
MY3DLAYER
10
74.69973655933143
20
90.10439084474785
30
0.0
 70
     32
  0
VERTEX
  8
MY3DLAYER
10
75.24008827292639
20
90.8655434086087
30
0.0
 70
     32
  0
VERTEX
  8
MY3DLAYER
10
75.81634645932574
20
91.59988645001691
30
0.0
 70
     32
  0
VERTEX
  8
MY3DLAYER
10
76.3278515471847
20
92.1852095367904
30
0.0
 70
     32
  0
VERTEX
  8
MY3DLAYER
10
76.8722432110642
20
92.74007734727688
30
0.0
 70
     32
  0
VERTEX
  8
MY3DLAYER
10
78.12528342574836
20
93.76623059745471
30
0.0
 70
     32
  0
VERTEX
  8
MY3DLAYER
10
79.52566551628507
20
94.57988302507367
30
0.0
 70
     32
  0
VERTEX
  8
MY3DLAYER
10
80.19517257247708
20
94.85239281115976
30
0.0
 70
     32
  0
VERTEX
  8
MY3DLAYER
10
80.8924422104349
20
95.04296126024254
30
0.0
 70
     32
  0
VERTEX
  8
MY3DLAYER
10
81.50134033892932
20
95.12091850517564
30
0.0
 70
     32
  0
VERTEX
  8
MY3DLAYER
10
82.11489807339888
20
95.10139494519792
30
0.0
 70
     32
  0
VERTEX
  8
MY3DLAYER
10
82.74629437727914
20
94.93059964498029
30
0.0
 70
     32
  0
VERTEX
  8
MY3DLAYER
10
83.29705044716347
20
94.57775395829044
30
0.0
 70
     32
  0
VERTEX
  8
MY3DLAYER
10
84.11664458338774
20
93.76956858213502
30
0.0
 70
     32
  0
VERTEX
  8
MY3DLAYER
10
84.84111288537002
20
92.87511688987455
30
0.0
 70
     32
  0
VERTEX
  8
MY3DLAYER
10
85.72561990314344
20
91.53951181939212
30
0.0
 70
     32
  0
VERTEX
  8
MY3DLAYER
10
86.500474439274
20
90.13744405475771
30
0.0
 70
     32
  0
VERTEX
  8
MY3DLAYER
10
86.98454192004017
20
89.12048507465228
30
0.0
 70
     32
  0
VERTEX
  8
MY3DLAYER
10
87.42634334699198
20
88.08446461525207
30
0.0
 70
     32
  0
VERTEX
  8
MY3DLAYER
10
87.99483994966589
20
86.67663041790952
30
0.0
 70
     32
  0
VERTEX
  8
MY3DLAYER
10
88.56693963938855
20
85.27025654888378
30
0.0
 70
     32
  0
VERTEX
  8
MY3DLAYER
10
88.99140394185632
20
84.26853486298195
30
0.0
 70
     32
  0
VERTEX
  8
MY3DLAYER
10
89.44210639763863
20
83.27834115646422
30
0.0
 70
     32
  0
VERTEX
  8
MY3DLAYER
10
89.63821077892908
20
82.89577915162458
30
0.0
 70
     32
  0
VERTEX
  8
MY3DLAYER
10
89.85939178311837
20
82.52714711382262
30
0.0
 70
     32
  0
VERTEX
  8
MY3DLAYER
10
90.06586339898807
20
82.25868770109041
30
0.0
 70
     32
  0
VERTEX
  8
MY3DLAYER
10
90.31331127030072
20
82.02745073296637
30
0.0
 70
     32
  0
VERTEX
  8
MY3DLAYER
10
91.0300934719795
20
81.49499929710913
30
0.0
 70
     32
  0
VERTEX
  8
MY3DLAYER
10
91.77831993824276
20
81.00772277256361
30
0.0
 70
     32
  0
VERTEX
  8
MY3DLAYER
10
92.7116471466749
20
80.45956600654976
30
0.0
 70
     32
  0
VERTEX
  8
MY3DLAYER
10
93.66139341389488
20
79.94037669037675
30
0.0
 70
     32
  0
VERTEX
  8
MY3DLAYER
10
94.16686390824202
20
79.6494340058596
30
0.0
 70
     32
  0
VERTEX
  8
MY3DLAYER
10
94.64919077484382
20
79.32154856842197
30
0.0
 70
     32
  0
VERTEX
  8
MY3DLAYER
10
95.9190855471396
20
78.15847747778498
30
0.0
 70
     32
  0
VERTEX
  8
MY3DLAYER
10
96.91273419163686
20
76.75205312295161
30
0.0
 70
     32
  0
VERTEX
  8
MY3DLAYER
10
97.72266828980854
20
74.91992602718165
30
0.0
 70
     32
  0
VERTEX
  8
MY3DLAYER
10
98.18473620967829
20
72.97077847610629
30
0.0
 70
     32
  0
VERTEX
  8
MY3DLAYER
10
98.27826986224441
20
71.94655818745804
30
0.0
 70
     32
  0
VERTEX
  8
MY3DLAYER
10
98.26917396770442
20
70.9181161577142
30
0.0
 70
     32
  0
VERTEX
  8
MY3DLAYER
10
98.21182243214086
20
70.08758146952005
30
0.0
 70
     32
  0
VERTEX
  8
MY3DLAYER
10
98.13763474583968
20
69.25838109920747
30
0.0
 70
     32
  0
VERTEX
  8
MY3DLAYER
10
98.06565846298128
20
67.95245617674506
30
0.0
 70
     32
  0
VERTEX
  8
MY3DLAYER
10
98.1095584569363
20
66.6452862264581
30
0.0
 70
     32
  0
VERTEX
  8
MY3DLAYER
10
98.19678036487026
20
65.67157077186266
30
0.0
 70
     32
  0
VERTEX
  8
MY3DLAYER
10
98.30627774923371
20
64.7001080754305
30
0.0
 70
     32
  0
VERTEX
  8
MY3DLAYER
10
98.44161107861379
20
63.586205309112955
30
0.0
 70
     32
  0
VERTEX
  8
MY3DLAYER
10
98.57072860716245
20
62.471564942594455
30
0.0
 70
     32
  0
VERTEX
  8
MY3DLAYER
10
98.66885035792426
20
61.30854627212784
30
0.0
 70
     32
  0
VERTEX
  8
MY3DLAYER
10
98.70086963096152
20
60.141835051653544
30
0.0
 70
     32
  0
VERTEX
  8
MY3DLAYER
10
98.719811180684
20
58.57580955443055
30
0.0
 70
     32
  0
VERTEX
  8
MY3DLAYER
10
98.77953163382915
20
57.01080856154442
30
0.0
 70
     32
  0
VERTEX
  8
MY3DLAYER
10
98.81459393346675
20
56.16826248086028
30
0.0
 70
     32
  0
VERTEX
  8
MY3DLAYER
10
98.83351738165904
20
55.32519951403003
30
0.0
 70
     32
  0
VERTEX
  8
MY3DLAYER
10
98.79368037495466
20
53.6180700093937
30
0.0
 70
     32
  0
VERTEX
  8
MY3DLAYER
10
98.6304610942005
20
51.91829425974521
30
0.0
 70
     32
  0
VERTEX
  8
MY3DLAYER
10
98.3771070313805
20
50.23393849220227
30
0.0
 70
     32
  0
VERTEX
  8
MY3DLAYER
10
98.06541399362766
20
48.559396739059345
30
0.0
 70
     32
  0
VERTEX
  8
MY3DLAYER
10
97.65465433492949
20
46.70519451858644
30
0.0
 70
     32
  0
VERTEX
  8
MY3DLAYER
10
97.18253126515044
20
44.865659474450844
30
0.0
 70
     32
  0
VERTEX
  8
MY3DLAYER
10
96.83231883003886
20
43.65705374278323
30
0.0
 70
     32
  0
VERTEX
  8
MY3DLAYER
10
96.44793009047407
20
42.45887935596705
30
0.0
 70
     32
  0
VERTEX
  8
MY3DLAYER
10
96.34676355674
20
42.17880992634276
30
0.0
 70
     32
  0
VERTEX
  8
MY3DLAYER
10
96.23337788800465
20
41.903460615315346
30
0.0
 70
     32
  0
VERTEX
  8
MY3DLAYER
10
96.12162907746132
20
41.6273947629667
30
0.0
 70
     32
  0
VERTEX
  8
MY3DLAYER
10
96.02550392663267
20
41.34550807142381
30
0.0
 70
     32
  0
VERTEX
  8
MY3DLAYER
10
95.95495463057641
20
40.79352182740883
30
0.0
 70
     32
  0
VERTEX
  8
MY3DLAYER
10
96.07635605832274
20
40.25044935517608
30
0.0
 70
     32
  0
VERTEX
  8
MY3DLAYER
10
96.31447823922242
20
39.681345999781406
30
0.0
 70
     32
  0
VERTEX
  8
MY3DLAYER
10
96.55581351664424
20
39.11359774040083
30
0.0
 70
     32
  0
VERTEX
  8
MY3DLAYER
10
97.99527608597937
20
35.93156816036544
30
0.0
 70
     32
  0
VERTEX
  8
MY3DLAYER
10
99.56124101720818
20
32.809850913256305
30
0.0
 70
     32
  0
VERTEX
  8
MY3DLAYER
10
100.3022183372155
20
31.454107270116857
30
0.0
 70
     32
  0
VERTEX
  8
MY3DLAYER
10
101.08397537309777
20
30.12146172402183
30
0.0
 70
     32
  0
VERTEX
  8
MY3DLAYER
10
102.20536256941463
20
28.352689691251392
30
0.0
 70
     32
  0
VERTEX
  8
MY3DLAYER
10
103.3943382793524
20
26.628624579617775
30
0.0
 70
     32
  0
VERTEX
  8
MY3DLAYER
10
103.75885569544062
20
26.149558300634514
30
0.0
 70
     32
  0
VERTEX
  8
MY3DLAYER
10
104.14902102701676
20
25.691138776261322
30
0.0
 70
     32
  0
VERTEX
  8
MY3DLAYER
10
104.3396245569939
20
25.48410500228261
30
0.0
 70
     32
  0
VERTEX
  8
MY3DLAYER
10
104.53498466207087
20
25.28155348154798
30
0.0
 70
     32
  0
VERTEX
  8
MY3DLAYER
10
104.65467311125859
20
25.117016069180245
30
0.0
 70
     32
  0
VERTEX
  8
MY3DLAYER
10
104.7203745109112
20
24.924451246272906
30
0.0
 70
     32
  0
VERTEX
  8
MY3DLAYER
10
104.72198386732065
20
24.83489508926923
30
0.0
 70
     32
  0
VERTEX
  8
MY3DLAYER
10
104.69520461705507
20
24.749421309426943
30
0.0
 70
     32
  0
VERTEX
  8
MY3DLAYER
10
104.64278240773386
20
24.676793441117333
30
0.0
 70
     32
  0
VERTEX
  8
MY3DLAYER
10
104.54663903291
20
24.603023960456408
30
0.0
 70
     32
  0
VERTEX
  8
MY3DLAYER
10
104.43473174635913
20
24.556524024797007
30
0.0
 70
     32
  0
VERTEX
  8
MY3DLAYER
10
104.21684708012013
20
24.52100760181262
30
0.0
 70
     32
  0
VERTEX
  8
MY3DLAYER
10
103.99628342869302
20
24.53032531359305
30
0.0
 70
     32
  0
VERTEX
  8
MY3DLAYER
10
103.41120691311012
20
24.675519729778962
30
0.0
 70
     32
  0
VERTEX
  8
MY3DLAYER
10
102.86618808372333
20
24.933105488686646
30
0.0
 70
     32
  0
VERTEX
  8
MY3DLAYER
10
101.95729924577648
20
25.53467689847185
30
0.0
 70
     32
  0
VERTEX
  8
MY3DLAYER
10
101.10486293298526
20
26.213881884798024
30
0.0
 70
     32
  0
VERTEX
  8
MY3DLAYER
10
100.33064049117088
20
26.952254701567945
30
0.0
 70
     32
  0
VERTEX
  8
MY3DLAYER
10
99.62571993674109
20
27.75705394230821
30
0.0
 70
     32
  0
VERTEX
  8
MY3DLAYER
10
99.0239721776861
20
28.552727314847182
30
0.0
 70
     32
  0
VERTEX
  8
MY3DLAYER
10
98.46597066899248
20
29.379667940037972
30
0.0
 70
     32
  0
VERTEX
  8
MY3DLAYER
10
97.92442813432571
20
30.217080474644465
30
0.0
 70
     32
  0
VERTEX
  8
MY3DLAYER
10
97.37055467700361
20
31.046388778740955
30
0.0
 70
     32
  0
VERTEX
  8
MY3DLAYER
10
96.75783010700407
20
31.915259557807595
30
0.0
 70
     32
  0
VERTEX
  8
MY3DLAYER
10
96.1142827074683
20
32.761554171962565
30
0.0
 70
     32
  0
VERTEX
  8
MY3DLAYER
10
95.76628003577683
20
33.21608710201557
30
0.0
 70
     32
  0
VERTEX
  8
MY3DLAYER
10
95.43177412948941
20
33.680642634396555
30
0.0
 70
     32
  0
VERTEX
  8
MY3DLAYER
10
95.18382389966273
20
34.04247146201349
30
0.0
 70
     32
  0
VERTEX
  8
MY3DLAYER
10
94.94213701503264
20
34.40851362729444
30
0.0
 70
     32
  0
VERTEX
  8
MY3DLAYER
10
94.86843814726471
20
34.49241029352664
30
0.0
 70
     32
  0
VERTEX
  8
MY3DLAYER
10
94.77372872091816
20
34.55157361219847
30
0.0
 70
     32
  0
VERTEX
  8
MY3DLAYER
10
94.69957273958424
20
34.56179561890787
30
0.0
 70
     32
  0
VERTEX
  8
MY3DLAYER
10
94.63104412835051
20
34.53167206614368
30
0.0
 70
     32
  0
VERTEX
  8
MY3DLAYER
10
94.57750939814612
20
34.47567679125056
30
0.0
 70
     32
  0
VERTEX
  8
MY3DLAYER
10
94.53856996982623
20
34.408705461037364
30
0.0
 70
     32
  0
VERTEX
  8
MY3DLAYER
10
94.49906102372033
20
34.29552262871355
30
0.0
 70
     32
  0
VERTEX
  8
MY3DLAYER
10
94.47636032913688
20
34.177811164443206
30
0.0
 70
     32
  0
VERTEX
  8
MY3DLAYER
10
94.43182957512461
20
33.728014004377485
30
0.0
 70
     32
  0
VERTEX
  8
MY3DLAYER
10
94.4045663211949
20
33.276840879910544
30
0.0
 70
     32
  0
VERTEX
  8
MY3DLAYER
10
94.36766883665662
20
32.42251309905311
30
0.0
 70
     32
  0
VERTEX
  8
MY3DLAYER
10
94.32740371655784
20
31.568337413603395
30
0.0
 70
     32
  0
VERTEX
  8
MY3DLAYER
10
94.34457887776874
20
30.875820122746724
30
0.0
 70
     32
  0
VERTEX
  8
MY3DLAYER
10
94.46350950684717
20
30.193375480475233
30
0.0
 70
     32
  0
VERTEX
  8
MY3DLAYER
10
94.62859088578874
20
29.636104671849928
30
0.0
 70
     32
  0
VERTEX
  8
MY3DLAYER
10
94.83939770810098
20
29.094474632537306
30
0.0
 70
     32
  0
VERTEX
  8
MY3DLAYER
10
95.2593412927413
20
28.101242582328876
30
0.0
 70
     32
  0
VERTEX
  8
MY3DLAYER
10
95.65383439488072
20
27.09763025069567
30
0.0
 70
     32
  0
VERTEX
  8
MY3DLAYER
10
95.82978991356462
20
26.60456416492884
30
0.0
 70
     32
  0
VERTEX
  8
MY3DLAYER
10
95.98688328309454
20
26.10516834722663
30
0.0
 70
     32
  0
VERTEX
  8
MY3DLAYER
10
96.13662681252684
20
25.603613110255715
30
0.0
 70
     32
  0
VERTEX
  8
MY3DLAYER
10
96.29074826206795
20
25.103385802793248
30
0.0
 70
     32
  0
VERTEX
  8
MY3DLAYER
10
96.54804782585688
20
24.356794946211448
30
0.0
 70
     32
  0
VERTEX
  8
MY3DLAYER
10
96.84766850429014
20
23.626159317657233
30
0.0
 70
     32
  0
VERTEX
  8
MY3DLAYER
10
97.08711672933076
20
23.142583157317528
30
0.0
 70
     32
  0
VERTEX
  8
MY3DLAYER
10
97.36625673638328
20
22.6807799397164
30
0.0
 70
     32
  0
VERTEX
  8
MY3DLAYER
10
97.77468315589725
20
22.133637615176735
30
0.0
 70
     32
  0
VERTEX
  8
MY3DLAYER
10
98.24129293020384
20
21.635187836381256
30
0.0
 70
     32
  0
VERTEX
  8
MY3DLAYER
10
98.72807869381585
20
21.157847596100375
30
0.0
 70
     32
  0
VERTEX
  8
MY3DLAYER
10
99.20247511754341
20
20.66819249523727
30
0.0
 70
     32
  0
VERTEX
  8
MY3DLAYER
10
99.72442421191589
20
20.06094889156422
30
0.0
 70
     32
  0
VERTEX
  8
MY3DLAYER
10
100.18739257426469
20
19.4076220615762
30
0.0
 70
     32
  0
VERTEX
  8
MY3DLAYER
10
100.70417699891165
20
18.53158461944994
30
0.0
 70
     32
  0
VERTEX
  8
MY3DLAYER
10
101.15519399201976
20
17.61994246734609
30
0.0
 70
     32
  0
VERTEX
  8
MY3DLAYER
10
101.91858076530272
20
15.78957099389903
30
0.0
 70
     32
  0
VERTEX
  8
MY3DLAYER
10
102.5801245298583
20
13.919977737597062
30
0.0
 70
     32
  0
VERTEX
  8
MY3DLAYER
10
102.87545792956679
20
12.828386994741916
30
0.0
 70
     32
  0
VERTEX
  8
MY3DLAYER
10
103.06402126716483
20
11.713382046508796
30
0.0
 70
     32
  0
VERTEX
  8
MY3DLAYER
10
103.1164750183366
20
10.048233753170006
30
0.0
 70
     32
  0
VERTEX
  8
MY3DLAYER
10
102.8775863557312
20
8.399475905061434
30
0.0
 70
     32
  0
VERTEX
  8
MY3DLAYER
10
102.57168929623742
20
7.23127293387621
30
0.0
 70
     32
  0
VERTEX
  8
MY3DLAYER
10
102.20888458156861
20
6.079472633517212
30
0.0
 70
     32
  0
VERTEX
  8
MY3DLAYER
10
101.878413733107
20
5.2244932467661
30
0.0
 70
     32
  0
VERTEX
  8
MY3DLAYER
10
101.48206074959795
20
4.3979915553487805
30
0.0
 70
     32
  0
VERTEX
  8
MY3DLAYER
10
101.15711448891496
20
3.8602600167918686
30
0.0
 70
     32
  0
VERTEX
  8
MY3DLAYER
10
100.77286075473096
20
3.3631741613742454
30
0.0
 70
     32
  0
VERTEX
  8
MY3DLAYER
10
100.33627564723243
20
2.9390284609867328
30
0.0
 70
     32
  0
VERTEX
  8
MY3DLAYER
10
99.8345480350706
20
2.594390194914723
30
0.0
 70
     32
  0
VERTEX
  8
MY3DLAYER
10
99.07401854383862
20
2.22053776101751
30
0.0
 70
     32
  0
VERTEX
  8
MY3DLAYER
10
98.27394086266071
20
1.9411698075127926
30
0.0
 70
     32
  0
VERTEX
  8
MY3DLAYER
10
97.99112851798822
20
1.8740392328896003
30
0.0
 70
     32
  0
VERTEX
  8
MY3DLAYER
10
97.7036451754439
20
1.8311129692742012
30
0.0
 70
     32
  0
VERTEX
  8
MY3DLAYER
10
97.34474858714289
20
1.798141311636797
30
0.0
 70
     32
  0
VERTEX
  8
MY3DLAYER
10
96.98506074249705
20
1.7753697127583759
30
0.0
 70
     32
  0
VERTEX
  8
MY3DLAYER
10
96.21703019455116
20
1.7537540818753563
30
0.0
 70
     32
  0
VERTEX
  8
MY3DLAYER
10
95.44876712897347
20
1.7642431307222777
30
0.0
 70
     32
  0
VERTEX
  8
MY3DLAYER
10
95.05587843124796
20
1.793903572071002
30
0.0
 70
     32
  0
VERTEX
  8
MY3DLAYER
10
94.6667151160641
20
1.8554924078818966
30
0.0
 70
     32
  0
VERTEX
  8
MY3DLAYER
10
94.16344757896961
20
1.9966924701971032
30
0.0
 70
     32
  0
VERTEX
  8
MY3DLAYER
10
93.68726429433418
20
2.2122502372220505
30
0.0
 70
     32
  0
VERTEX
  8
MY3DLAYER
10
93.2756521757445
20
2.4600552410466885
30
0.0
 70
     32
  0
VERTEX
  8
MY3DLAYER
10
92.88575597145297
20
2.7407914267610347
30
0.0
 70
     32
  0
VERTEX
  8
MY3DLAYER
10
92.22892070482315
20
3.276809719463613
30
0.0
 70
     32
  0
VERTEX
  8
MY3DLAYER
10
91.59331987809203
20
3.8378442697893282
30
0.0
 70
     32
  0
VERTEX
  8
MY3DLAYER
10
91.24368984865653
20
4.13197068750783
30
0.0
 70
     32
  0
VERTEX
  8
MY3DLAYER
10
90.87002182044826
20
4.39488457412834
30
0.0
 70
     32
  0
VERTEX
  8
MY3DLAYER
10
90.62404922103586
20
4.546714158147181
30
0.0
 70
     32
  0
VERTEX
  8
MY3DLAYER
10
90.3730581730514
20
4.690095593754136
30
0.0
 70
     32
  0
VERTEX
  8
MY3DLAYER
10
90.24495342669329
20
4.780740500123867
30
0.0
 70
     32
  0
VERTEX
  8
MY3DLAYER
10
90.14059989800107
20
4.8979482905635185
30
0.0
 70
     32
  0
VERTEX
  8
MY3DLAYER
10
90.08893245209919
20
4.999694271463809
30
0.0
 70
     32
  0
VERTEX
  8
MY3DLAYER
10
90.06824658540116
20
5.111916660113933
30
0.0
 70
     32
  0
VERTEX
  8
MY3DLAYER
10
90.06141328338869
20
5.260208417510966
30
0.0
 70
     32
  0
VERTEX
  8
MY3DLAYER
10
90.0523386174019
20
5.4083799052051935
30
0.0
 70
     32
  0
VERTEX
  8
MY3DLAYER
10
90.03353089736244
20
5.555365513102485
30
0.0
 70
     32
  0
VERTEX
  8
MY3DLAYER
10
89.99768315531198
20
5.699148122106136
30
0.0
 70
     32
  0
VERTEX
  8
MY3DLAYER
10
89.95607869469112
20
5.841131824215053
30
0.0
 70
     32
  0
VERTEX
  8
MY3DLAYER
10
89.91956295180512
20
5.984508612188534
30
0.0
 70
     32
  0
VERTEX
  8
MY3DLAYER
10
89.90204362224875
20
6.089510672520275
30
0.0
 70
     32
  0
VERTEX
  8
MY3DLAYER
10
89.89854500506543
20
6.195906721600194
30
0.0
 70
     32
  0
VERTEX
  8
MY3DLAYER
10
89.89994299829726
20
6.302139380576803
30
0.0
 70
     32
  0
VERTEX
  8
MY3DLAYER
10
89.89704992950736
20
6.408341839923521
30
0.0
 70
     32
  0
VERTEX
  8
MY3DLAYER
10
89.86091757446698
20
6.635701171188769
30
0.0
 70
     32
  0
VERTEX
  8
MY3DLAYER
10
89.77596560357289
20
6.849666063718727
30
0.0
 70
     32
  0
VERTEX
  8
MY3DLAYER
10
89.68061767280197
20
7.058110924359282
30
0.0
 70
     32
  0
VERTEX
  8
MY3DLAYER
10
89.61052055480874
20
7.276346764401181
30
0.0
 70
     32
  0
VERTEX
  8
MY3DLAYER
10
89.59611538537173
20
7.535745367238418
30
0.0
 70
     32
  0
VERTEX
  8
MY3DLAYER
10
89.68200265806085
20
7.780936151017967
30
0.0
 70
     32
  0
VERTEX
  8
MY3DLAYER
10
90.1658458934347
20
8.45595711719639
30
0.0
 70
     32
  0
VERTEX
  8
MY3DLAYER
10
90.76129415594208
20
9.034920801613989
30
0.0
 70
     32
  0
VERTEX
  8
MY3DLAYER
10
91.02275445468544
20
9.239503977508475
30
0.0
 70
     32
  0
VERTEX
  8
MY3DLAYER
10
91.29165818205279
20
9.434200020318723
30
0.0
 70
     32
  0
VERTEX
  8
MY3DLAYER
10
91.42497300879315
20
9.519439037588226
30
0.0
 70
     32
  0
VERTEX
  8
MY3DLAYER
10
91.56454855833383
20
9.593985661014797
30
0.0
 70
     32
  0
VERTEX
  8
MY3DLAYER
10
91.73279117262427
20
9.653915865418496
30
0.0
 70
     32
  0
VERTEX
  8
MY3DLAYER
10
91.91002172321113
20
9.675973485458682
30
0.0
 70
     32
  0
VERTEX
  8
MY3DLAYER
10
92.14924393640848
20
9.66011446809132
30
0.0
 70
     32
  0
VERTEX
  8
MY3DLAYER
10
92.38279458693734
20
9.605958495600389
30
0.0
 70
     32
  0
VERTEX
  8
MY3DLAYER
10
92.65933736663628
20
9.50788066988194
30
0.0
 70
     32
  0
VERTEX
  8
MY3DLAYER
10
92.92901010906618
20
9.392244253076381
30
0.0
 70
     32
  0
VERTEX
  8
MY3DLAYER
10
93.14891444625313
20
9.279052203765216
30
0.0
 70
     32
  0
VERTEX
  8
MY3DLAYER
10
93.35955275890116
20
9.149430219573897
30
0.0
 70
     32
  0
VERTEX
  8
MY3DLAYER
10
93.56978657049409
20
8.98238593465359
30
0.0
 70
     32
  0
VERTEX
  8
MY3DLAYER
10
93.75007587308825
20
8.783393934735214
30
0.0
 70
     32
  0
VERTEX
  8
MY3DLAYER
10
93.92400529962252
20
8.579521799991808
30
0.0
 70
     32
  0
VERTEX
  8
MY3DLAYER
10
94.11808811245587
20
8.394732313001652
30
0.0
 70
     32
  0
VERTEX
  8
MY3DLAYER
10
94.6628434283946
20
8.001351653730707
30
0.0
 70
     32
  0
VERTEX
  8
MY3DLAYER
10
95.26549711071137
20
7.704172858184945
30
0.0
 70
     32
  0
VERTEX
  8
MY3DLAYER
10
95.43274910997776
20
7.7093857209312215
30
0.0
 70
     32
  0
VERTEX
  8
MY3DLAYER
10
95.54413457713899
20
7.834260389707195
30
0.0
 70
     32
  0
VERTEX
  8
MY3DLAYER
10
95.57150246270558
20
7.945982448542649
30
0.0
 70
     32
  0
VERTEX
  8
MY3DLAYER
10
95.58014909732087
20
8.060682297281202
30
0.0
 70
     32
  0
VERTEX
  8
MY3DLAYER
10
95.5666386988753
20
8.625086316164042
30
0.0
 70
     32
  0
VERTEX
  8
MY3DLAYER
10
95.5343107128637
20
9.188725676675414
30
0.0
 70
     32
  0
VERTEX
  8
MY3DLAYER
10
95.5190548032522
20
9.43555691432388
30
0.0
 70
     32
  0
VERTEX
  8
MY3DLAYER
10
95.50984755170522
20
9.682687707986018
30
0.0
 70
     32
  0
VERTEX
  8
MY3DLAYER
10
95.50431559853534
20
10.02511640813479
30
0.0
 70
     32
  0
VERTEX
  8
MY3DLAYER
10
95.50483912003756
20
10.367589389721187
30
0.0
 70
     32
  0
VERTEX
  8
MY3DLAYER
10
95.43868997131486
20
11.058623422491646
30
0.0
 70
     32
  0
VERTEX
  8
MY3DLAYER
10
95.22887699368239
20
11.720350147613697
30
0.0
 70
     32
  0
VERTEX
  8
MY3DLAYER
10
94.92901947487988
20
12.316064170191805
30
0.0
 70
     32
  0
VERTEX
  8
MY3DLAYER
10
94.56727407325572
20
12.876358729046698
30
0.0
 70
     32
  0
VERTEX
  8
MY3DLAYER
10
94.20492639590638
20
13.352879414890193
30
0.0
 70
     32
  0
VERTEX
  8
MY3DLAYER
10
93.82073670845827
20
13.81197209330679
30
0.0
 70
     32
  0
VERTEX
  8
MY3DLAYER
10
93.44799857452519
20
14.215639728996077
30
0.0
 70
     32
  0
VERTEX
  8
MY3DLAYER
10
93.05521763020339
20
14.59983291785893
30
0.0
 70
     32
  0
VERTEX
  8
MY3DLAYER
10
92.38362307127151
20
15.174343244004898
30
0.0
 70
     32
  0
VERTEX
  8
MY3DLAYER
10
91.66695212973355
20
15.69153192136586
30
0.0
 70
     32
  0
VERTEX
  8
MY3DLAYER
10
90.93501973581266
20
16.185620910445532
30
0.0
 70
     32
  0
VERTEX
  8
MY3DLAYER
10
90.21305089703199
20
16.694157983066784
30
0.0
 70
     32
  0
VERTEX
  8
MY3DLAYER
10
89.47183686478353
20
17.312619299910533
30
0.0
 70
     32
  0
VERTEX
  8
MY3DLAYER
10
88.82671185575617
20
18.030746283640763
30
0.0
 70
     32
  0
VERTEX
  8
MY3DLAYER
10
87.91626375313321
20
19.316043893694093
30
0.0
 70
     32
  0
VERTEX
  8
MY3DLAYER
10
87.12180827171214
20
20.676097636021378
30
0.0
 70
     32
  0
VERTEX
  8
MY3DLAYER
10
85.8049920588842
20
23.29982569566298
30
0.0
 70
     32
  0
VERTEX
  8
MY3DLAYER
10
84.59252752293192
20
25.97337831687228
30
0.0
 70
     32
  0
VERTEX
  8
MY3DLAYER
10
83.9775879070543
20
27.550083677425285
30
0.0
 70
     32
  0
VERTEX
  8
MY3DLAYER
10
83.47183976147475
20
29.165128363622934
30
0.0
 70
     32
  0
VERTEX
  8
MY3DLAYER
10
83.24560303139236
20
30.100590758049783
30
0.0
 70
     32
  0
VERTEX
  8
MY3DLAYER
10
83.0796381015862
20
31.04860372816129
30
0.0
 70
     32
  0
VERTEX
  8
MY3DLAYER
10
83.042195240999
20
31.286211050033366
30
0.0
 70
     32
  0
VERTEX
  8
MY3DLAYER
10
82.99765283358344
20
31.522590366298125
30
0.0
 70
     32
  0
VERTEX
  8
MY3DLAYER
10
82.90850456587737
20
31.84247647527005
30
0.0
 70
     32
  0
VERTEX
  8
MY3DLAYER
10
82.77524875581392
20
32.146643247670575
30
0.0
 70
     32
  0
VERTEX
  8
MY3DLAYER
10
82.65882226452891
20
32.35820781255979
30
0.0
 70
     32
  0
VERTEX
  8
MY3DLAYER
10
82.53419157000843
20
32.56504563060344
30
0.0
 70
     32
  0
VERTEX
  8
MY3DLAYER
10
82.39727961490365
20
32.794033098604736
30
0.0
 70
     32
  0
VERTEX
  8
MY3DLAYER
10
82.27105405367215
20
33.02908043776018
30
0.0
 70
     32
  0
VERTEX
  8
MY3DLAYER
10
82.14318805598236
20
33.29449422501549
30
0.0
 70
     32
  0
VERTEX
  8
MY3DLAYER
10
82.02649733421417
20
33.56500756532174
30
0.0
 70
     32
  0
VERTEX
  8
MY3DLAYER
10
81.12350575727514
20
35.94519131961531
30
0.0
 70
     32
  0
VERTEX
  8
MY3DLAYER
10
80.33478302575983
20
38.36564271243791
30
0.0
 70
     32
  0
VERTEX
  8
MY3DLAYER
10
79.92847654984655
20
39.932386700427884
30
0.0
 70
     32
  0
VERTEX
  8
MY3DLAYER
10
79.64060304727059
20
41.5251517561679
30
0.0
 70
     32
  0
VERTEX
  8
MY3DLAYER
10
79.52021255762496
20
42.683761634674255
30
0.0
 70
     32
  0
VERTEX
  8
MY3DLAYER
10
79.48768032942792
20
43.848155199882406
30
0.0
 70
     32
  0
VERTEX
  8
MY3DLAYER
10
79.48649771347934
20
44.13925131440235
30
0.0
 70
     32
  0
VERTEX
  8
MY3DLAYER
10
79.47720455475267
20
44.43020145389358
30
0.0
 70
     32
  0
VERTEX
  8
MY3DLAYER
10
79.35641392796128
20
45.25068647737377
30
0.0
 70
     32
  0
VERTEX
  8
MY3DLAYER
10
79.07454985963085
20
46.030647179114624
30
0.0
 70
     32
  0
VERTEX
  8
MY3DLAYER
10
78.76616508745494
20
46.797892168139676
30
0.0
 70
     32
  0
VERTEX
  8
MY3DLAYER
10
78.55969656419988
20
47.598602346543146
30
0.0
 70
     32
  0
VERTEX
  8
MY3DLAYER
10
78.46829731970931
20
48.21907746422218
30
0.0
 70
     32
  0
VERTEX
  8
MY3DLAYER
10
78.4282748111313
20
48.84496994089802
30
0.0
 70
     32
  0
VERTEX
  8
MY3DLAYER
10
78.40517466448895
20
49.181955266561175
30
0.0
 70
     32
  0
VERTEX
  8
MY3DLAYER
10
78.35135836964368
20
49.51541670795481
30
0.0
 70
     32
  0
VERTEX
  8
MY3DLAYER
10
78.27198626827831
20
49.785140945433085
30
0.0
 70
     32
  0
VERTEX
  8
MY3DLAYER
10
78.15045148744136
20
50.038676725561466
30
0.0
 70
     32
  0
VERTEX
  8
MY3DLAYER
10
77.97757996171055
20
50.29066274241379
30
0.0
 70
     32
  0
VERTEX
  8
MY3DLAYER
10
77.76948948154902
20
50.514448061779774
30
0.0
 70
     32
  0
VERTEX
  8
MY3DLAYER
10
77.39390730619851
20
50.83976847606624
30
0.0
 70
     32
  0
VERTEX
  8
MY3DLAYER
10
76.99707498523456
20
51.138799329710025
30
0.0
 70
     32
  0
VERTEX
  8
MY3DLAYER
10
76.54973625388935
20
51.43197211366439
30
0.0
 70
     32
  0
VERTEX
  8
MY3DLAYER
10
76.08477350726078
20
51.69630498347195
30
0.0
 70
     32
  0
VERTEX
  8
MY3DLAYER
10
75.23444923529192
20
52.11207943814705
30
0.0
 70
     32
  0
VERTEX
  8
MY3DLAYER
10
74.36031652492008
20
52.47513834427349
30
0.0
 70
     32
  0
VERTEX
  8
MY3DLAYER
10
73.48367828183211
20
52.831602750818035
30
0.0
 70
     32
  0
VERTEX
  8
MY3DLAYER
10
72.62444523115698
20
53.22818823593434
30
0.0
 70
     32
  0
VERTEX
  8
MY3DLAYER
10
72.26437027451956
20
53.403347682397
30
0.0
 70
     32
  0
VERTEX
  8
MY3DLAYER
10
71.90332660771512
20
53.57650159295915
30
0.0
 70
     32
  0
VERTEX
  8
MY3DLAYER
10
71.8083175408873
20
53.61077176443132
30
0.0
 70
     32
  0
VERTEX
  8
MY3DLAYER
10
71.70844663641745
20
53.62583728375827
30
0.0
 70
     32
  0
VERTEX
  8
MY3DLAYER
10
71.56061308952671
20
53.5804558954628
30
0.0
 70
     32
  0
VERTEX
  8
MY3DLAYER
10
71.47660697576481
20
53.4506206119666
30
0.0
 70
     32
  0
VERTEX
  8
MY3DLAYER
10
71.4443855467015
20
53.299382175304025
30
0.0
 70
     32
  0
VERTEX
  8
MY3DLAYER
10
71.4167239168024
20
53.147243687582005
30
0.0
 70
     32
  0
VERTEX
  8
MY3DLAYER
10
71.19607504932382
20
51.97155560080074
30
0.0
 70
     32
  0
VERTEX
  8
MY3DLAYER
10
70.92697132134842
20
50.80600354974996
30
0.0
 70
     32
  0
VERTEX
  8
MY3DLAYER
10
70.56685101698969
20
49.42458473360986
30
0.0
 70
     32
  0
VERTEX
  8
MY3DLAYER
10
70.18628491631085
20
48.04865812865908
30
0.0
 70
     32
  0
VERTEX
  8
MY3DLAYER
10
69.23261074517754
20
44.75263982038627
30
0.0
 70
     32
  0
VERTEX
  8
MY3DLAYER
10
68.25002178438157
20
41.46512555467146
30
0.0
 70
     32
  0
VERTEX
  8
MY3DLAYER
10
67.83631562637382
20
40.15466400565786
30
0.0
 70
     32
  0
VERTEX
  8
MY3DLAYER
10
67.3939666194432
20
38.85359152009673
30
0.0
 70
     32
  0
VERTEX
  8
MY3DLAYER
10
66.19416772478579
20
35.784988261704946
30
0.0
 70
     32
  0
VERTEX
  8
MY3DLAYER
10
64.78850882800793
20
32.80506101243473
30
0.0
 70
     32
  0
VERTEX
  8
MY3DLAYER
10
64.42146702897762
20
32.06794439025044
30
0.0
 70
     32
  0
VERTEX
  8
MY3DLAYER
10
64.07338537095467
20
31.321687225270587
30
0.0
 70
     32
  0
VERTEX
  8
MY3DLAYER
10
63.495775107278966
20
29.984862350120586
30
0.0
 70
     32
  0
VERTEX
  8
MY3DLAYER
10
62.96071196303427
20
28.630446684531083
30
0.0
 70
     32
  0
VERTEX
  8
MY3DLAYER
10
62.4405664139737
20
27.27040876289448
30
0.0
 70
     32
  0
VERTEX
  8
MY3DLAYER
10
61.90722329823322
20
25.915491916224777
30
0.0
 70
     32
  0
VERTEX
  8
MY3DLAYER
10
61.554158392106224
20
25.062372076999033
30
0.0
 70
     32
  0
VERTEX
  8
MY3DLAYER
10
61.179841923803025
20
24.218360542968817
30
0.0
 70
     32
  0
VERTEX
  8
MY3DLAYER
10
60.80451578602194
20
23.374812008579745
30
0.0
 70
     32
  0
VERTEX
  8
MY3DLAYER
10
60.44837945333894
20
22.522984119793087
30
0.0
 70
     32
  0
VERTEX
  8
MY3DLAYER
10
60.115626966905864
20
21.643451122680354
30
0.0
 70
     32
  0
VERTEX
  8
MY3DLAYER
10
59.823661396223144
20
20.749550336366035
30
0.0
 70
     32
  0
VERTEX
  8
MY3DLAYER
10
59.62014888980075
20
19.90935581794738
30
0.0
 70
     32
  0
VERTEX
  8
MY3DLAYER
10
59.51020041504009
20
19.05188540915834
30
0.0
 70
     32
  0
VERTEX
  8
MY3DLAYER
10
59.41858625322562
20
17.671616649401923
30
0.0
 70
     32
  0
VERTEX
  8
MY3DLAYER
10
59.34407673854264
20
16.290318949401577
30
0.0
 70
     32
  0
VERTEX
  8
MY3DLAYER
10
59.31926705766398
20
15.293774429213281
30
0.0
 70
     32
  0
VERTEX
  8
MY3DLAYER
10
59.33992010093353
20
14.297135099873753
30
0.0
 70
     32
  0
VERTEX
  8
MY3DLAYER
10
59.3547279412177
20
13.809297767522363
30
0.0
 70
     32
  0
VERTEX
  8
MY3DLAYER
10
59.3566726103716
20
13.321239622183596
30
0.0
 70
     32
  0
VERTEX
  8
MY3DLAYER
10
59.360065435804216
20
12.833168159738431
30
0.0
 70
     32
  0
VERTEX
  8
MY3DLAYER
10
59.37921555803504
20
12.345460730497987
30
0.0
 70
     32
  0
VERTEX
  8
MY3DLAYER
10
59.41985789063466
20
11.907203203640417
30
0.0
 70
     32
  0
VERTEX
  8
MY3DLAYER
10
59.49285925669855
20
11.47316143191875
30
0.0
 70
     32
  0
VERTEX
  8
MY3DLAYER
10
59.69789767509258
20
10.808225502399976
30
0.0
 70
     32
  0
VERTEX
  8
MY3DLAYER
10
60.02531371500058
20
10.194239118028547
30
0.0
 70
     32
  0
VERTEX
  8
MY3DLAYER
10
60.36517653033798
20
9.71126998062071
30
0.0
 70
     32
  0
VERTEX
  8
MY3DLAYER
10
60.731447325799785
20
9.248008040322047
30
0.0
 70
     32
  0
VERTEX
  8
MY3DLAYER
10
61.07949705772782
20
8.857858213021414
30
0.0
 70
     32
  0
VERTEX
  8
MY3DLAYER
10
61.45143692862319
20
8.490412657767022
30
0.0
 70
     32
  0
VERTEX
  8
MY3DLAYER
10
61.784923302382715
20
8.22128828935564
30
0.0
 70
     32
  0
VERTEX
  8
MY3DLAYER
10
62.152172263445635
20
8.000450593854422
30
0.0
 70
     32
  0
VERTEX
  8
MY3DLAYER
10
62.3505217832016
20
7.88270849319589
30
0.0
 70
     32
  0
VERTEX
  8
MY3DLAYER
10
62.53247132659329
20
7.74093367909107
30
0.0
 70
     32
  0
VERTEX
  8
MY3DLAYER
10
62.89419667332111
20
7.376197441124588
30
0.0
 70
     32
  0
VERTEX
  8
MY3DLAYER
10
63.20599209440679
20
6.967955643728302
30
0.0
 70
     32
  0
VERTEX
  8
MY3DLAYER
10
63.43790272457297
20
6.56012356860465
30
0.0
 70
     32
  0
VERTEX
  8
MY3DLAYER
10
63.610026439299304
20
6.12368002275643
30
0.0
 70
     32
  0
VERTEX
  8
MY3DLAYER
10
63.74644057348172
20
5.64059297127467
30
0.0
 70
     32
  0
VERTEX
  8
MY3DLAYER
10
63.85389674231242
20
5.15025116488418
30
0.0
 70
     32
  0
VERTEX
  8
MY3DLAYER
10
63.880235952652754
20
4.9292637707515885
30
0.0
 70
     32
  0
VERTEX
  8
MY3DLAYER
10
63.87665225564833
20
4.706741098911947
30
0.0
 70
     32
  0
VERTEX
  8
MY3DLAYER
10
63.82172264388006
20
4.4627146265247
30
0.0
 70
     32
  0
VERTEX
  8
MY3DLAYER
10
63.70240020068737
20
4.242877559528906
30
0.0
 70
     32
  0
VERTEX
  8
MY3DLAYER
10
63.55224835913321
20
4.067909251989447
30
0.0
 70
     32
  0
VERTEX
  8
MY3DLAYER
10
63.3779376457933
20
3.916994509898869
30
0.0
 70
     32
  0
VERTEX
  8
MY3DLAYER
10
62.972520424752446
20
3.645802335116485
30
0.0
 70
     32
  0
VERTEX
  8
MY3DLAYER
10
62.542043478094826
20
3.416459977109809
30
0.0
 70
     32
  0
VERTEX
  8
MY3DLAYER
10
62.269629146360266
20
3.3040854913022737
30
0.0
 70
     32
  0
VERTEX
  8
MY3DLAYER
10
61.98765618698789
20
3.218476827151434
30
0.0
 70
     32
  0
VERTEX
  8
MY3DLAYER
10
61.37117145908752
20
3.0882664393019033
30
0.0
 70
     32
  0
VERTEX
  8
MY3DLAYER
10
60.74651949934875
20
3.0056946884859164
30
0.0
 70
     32
  0
VERTEX
  8
MY3DLAYER
10
60.120719776583115
20
2.935420601338492
30
0.0
 70
     32
  0
VERTEX
  8
MY3DLAYER
10
59.49799733363545
20
2.8417162824026283
30
0.0
 70
     32
  0
VERTEX
  8
MY3DLAYER
10
58.807276284589584
20
2.716186515557495
30
0.0
 70
     32
  0
VERTEX
  8
MY3DLAYER
10
58.1196690845039
20
2.5745898053220624
30
0.0
 70
     32
  0
VERTEX
  8
MY3DLAYER
10
57.42722819597949
20
2.455155086782099
30
0.0
 70
     32
  0
VERTEX
  8
MY3DLAYER
10
56.72697686752115
20
2.3969561771226884
30
0.0
 70
     32
  0
VERTEX
  8
MY3DLAYER
10
56.14922423975048
20
2.4170932244950896
30
0.0
 70
     32
  0
VERTEX
  8
MY3DLAYER
10
55.58071918770656
20
2.522000828477743
30
0.0
 70
     32
  0
VERTEX
  8
MY3DLAYER
10
55.43732140360862
20
2.5436210455385284
30
0.0
 70
     32
  0
VERTEX
  8
MY3DLAYER
10
55.29259674714092
20
2.534394340803458
30
0.0
 70
     32
  0
VERTEX
  8
MY3DLAYER
10
55.21161324446567
20
2.5038833642184946
30
0.0
 70
     32
  0
VERTEX
  8
MY3DLAYER
10
55.147722227203765
20
2.4455122642549005
30
0.0
 70
     32
  0
VERTEX
  8
MY3DLAYER
10
55.1000032847094
20
2.3544524574758148
30
0.0
 70
     32
  0
VERTEX
  8
MY3DLAYER
10
55.08291224826826
20
2.2530774982561463
30
0.0
 70
     32
  0
VERTEX
  8
MY3DLAYER
10
55.09009827231728
20
2.0567352564994503
30
0.0
 70
     32
  0
VERTEX
  8
MY3DLAYER
10
55.11520180264321
20
1.8618719002601263
30
0.0
 70
     32
  0
VERTEX
  8
MY3DLAYER
10
55.117621497798666
20
1.6630238211838841
30
0.0
 70
     32
  0
VERTEX
  8
MY3DLAYER
10
55.05671527686713
20
1.4737175990758968
30
0.0
 70
     32
  0
VERTEX
  8
MY3DLAYER
10
55.004557747618385
20
1.4012252288318476
30
0.0
 70
     32
  0
VERTEX
  8
MY3DLAYER
10
54.933232496729346
20
1.3474826927310342
30
0.0
 70
     32
  0
VERTEX
  8
MY3DLAYER
10
54.84916915445044
20
1.317334623376041
30
0.0
 70
     32
  0
VERTEX
  8
MY3DLAYER
10
54.75994562905021
20
1.3134987250343213
30
0.0
 70
     32
  0
VERTEX
  8
MY3DLAYER
10
54.5902667499731
20
1.3128776602893306
30
0.0
 70
     32
  0
VERTEX
  8
MY3DLAYER
10
54.424918005656764
20
1.274784347499448
30
0.0
 70
     32
  0
VERTEX
  8
MY3DLAYER
10
54.26479928846814
20
1.1992410199846828
30
0.0
 70
     32
  0
VERTEX
  8
MY3DLAYER
10
54.12352118086263
20
1.0925391257299137
30
0.0
 70
     32
  0
VERTEX
  8
MY3DLAYER
10
53.86488981968489
20
0.8903867731300179
30
0.0
 70
     32
  0
VERTEX
  8
MY3DLAYER
10
53.57533962217443
20
0.7357373703895858
30
0.0
 70
     32
  0
VERTEX
  8
MY3DLAYER
10
53.15424077451331
20
0.5848863677279467
30
0.0
 70
     32
  0
VERTEX
  8
MY3DLAYER
10
52.718086313242196
20
0.4856414665047026
30
0.0
 70
     32
  0
VERTEX
  8
MY3DLAYER
10
51.36444782448538
20
0.3036767410061287
30
0.0
 70
     32
  0
VERTEX
  8
MY3DLAYER
10
50.002337107183536
20
0.2031644861265533
30
0.0
 70
     32
  0
VERTEX
  8
MY3DLAYER
10
48.1664100167155
20
0.16190976457328074
30
0.0
 70
     32
  0
VERTEX
  8
MY3DLAYER
10
46.33038482270931
20
0.19853926824585238
30
0.0
 70
     32
  0
VERTEX
  8
MY3DLAYER
10
45.87141909961671
20
0.2087034902815929
30
0.0
 70
     32
  0
VERTEX
  8
MY3DLAYER
10
45.41239875005536
20
0.2014120520045281
30
0.0
 70
     32
  0
VERTEX
  8
MY3DLAYER
10
44.83731024569378
20
0.15403729136542663
30
0.0
 70
     32
  0
VERTEX
  8
MY3DLAYER
10
44.26926732127121
20
0.0525562990174535
30
0.0
 70
     32
  0
VERTEX
  8
MY3DLAYER
10
43.96259236998939
20
0.0014106566430598373
30
0.0
 70
     32
  0
VERTEX
  8
MY3DLAYER
10
43.65203390425072
20
-0.01338264709987413
30
0.0
 70
     32
  0
VERTEX
  8
MY3DLAYER
10
43.17363903264385
20
0.05680334148087239
30
0.0
 70
     32
  0
VERTEX
  8
MY3DLAYER
10
42.731079586903554
20
0.2515566807561526
30
0.0
 70
     32
  0
VERTEX
  8
MY3DLAYER
10
42.41041622242912
20
0.46063120429779747
30
0.0
 70
     32
  0
VERTEX
  8
MY3DLAYER
10
42.10231291906434
20
0.6878084570454062
30
0.0
 70
     32
  0
VERTEX
  8
MY3DLAYER
10
41.81624895283932
20
0.8973946360828362
30
0.0
 70
     32
  0
VERTEX
  8
MY3DLAYER
10
41.51743292377186
20
1.088360444510016
30
0.0
 70
     32
  0
VERTEX
  8
MY3DLAYER
10
41.21864093354074
20
1.279366645499621
30
0.0
 70
     32
  0
VERTEX
  8
MY3DLAYER
10
40.932659078776595
20
1.489067387006187
30
0.0
 70
     32
  0
VERTEX
  8
MY3DLAYER
10
40.75420205116797
20
1.6537482875272072
30
0.0
 70
     32
  0
VERTEX
  8
MY3DLAYER
10
40.60449393969345
20
1.8449397911513468
30
0.0
 70
     32
  0
VERTEX
  8
MY3DLAYER
10
40.42795752085767
20
2.147590134547541
30
0.0
 70
     32
  0
VERTEX
  8
MY3DLAYER
10
40.286126011153186
20
2.4679745292801125
30
0.0
 70
     32
  0
VERTEX
  8
MY3DLAYER
10
40.141043463212704
20
3.1201777025161155
30
0.0
 70
     32
  0
VERTEX
  8
MY3DLAYER
10
40.18482281985121
20
3.7868870041073834
30
0.0
 70
     32
  0
VERTEX
  8
MY3DLAYER
10
40.297504873167874
20
4.2152737952638395
30
0.0
 70
     32
  0
VERTEX
  8
MY3DLAYER
10
40.45190372080026
20
4.63045265289844
30
0.0
 70
     32
  0
VERTEX
  8
MY3DLAYER
10
40.74831398895265
20
5.277039581656906
30
0.0
 70
     32
  0
VERTEX
  8
MY3DLAYER
10
41.07589537587243
20
5.908406462678697
30
0.0
 70
     32
  0
VERTEX
  8
MY3DLAYER
10
41.247918752299405
20
6.250790565083532
30
0.0
 70
     32
  0
VERTEX
  8
MY3DLAYER
10
41.39386904012185
20
6.605074955229993
30
0.0
 70
     32
  0
VERTEX
  8
MY3DLAYER
10
41.53823579606225
20
7.062141654720759
30
0.0
 70
     32
  0
VERTEX
  8
MY3DLAYER
10
41.638664890217605
20
7.5308267569496055
30
0.0
 70
     32
  0
VERTEX
  8
MY3DLAYER
10
41.72220987406672
20
8.002300056486915
30
0.0
 70
     32
  0
VERTEX
  8
MY3DLAYER
10
41.81678128058116
20
8.471685916492104
30
0.0
 70
     32
  0
VERTEX
  8
MY3DLAYER
10
41.95399981615672
20
9.01862398187849
30
0.0
 70
     32
  0
VERTEX
  8
MY3DLAYER
10
42.12943160094301
20
9.554528696133543
30
0.0
 70
     32
  0
VERTEX
  8
MY3DLAYER
10
42.31746107780521
20
10.085811513491192
30
0.0
 70
     32
  0
VERTEX
  8
MY3DLAYER
10
42.493246434668755
20
10.621270218249007
30
0.0
 70
     32
  0
VERTEX
  8
MY3DLAYER
10
42.67661494791565
20
11.357656312879438
30
0.0
 70
     32
  0
VERTEX
  8
MY3DLAYER
10
42.767981845470764
20
12.11100920631422
30
0.0
 70
     32
  0
VERTEX
  8
MY3DLAYER
10
42.79027304421979
20
12.65324518181843
30
0.0
 70
     32
  0
VERTEX
  8
MY3DLAYER
10
42.793114135504204
20
13.195931720137747
30
0.0
 70
     32
  0
VERTEX
  8
MY3DLAYER
10
42.77460808557175
20
14.153374807543852
30
0.0
 70
     32
  0
VERTEX
  8
MY3DLAYER
10
42.74339748563455
20
15.110487986826934
30
0.0
 70
     32
  0
VERTEX
  8
MY3DLAYER
10
42.73118991175167
20
16.068347098768054
30
0.0
 70
     32
  0
VERTEX
  8
MY3DLAYER
10
42.769721698273
20
17.025508738521847
30
0.0
 70
     32
  0
VERTEX
  8
MY3DLAYER
10
42.902104686875624
20
18.172306559713572
30
0.0
 70
     32
  0
VERTEX
  8
MY3DLAYER
10
43.14426344380058
20
19.301035772060825
30
0.0
 70
     32
  0
VERTEX
  8
MY3DLAYER
10
43.287888124987326
20
19.905361822726544
30
0.0
 70
     32
  0
VERTEX
  8
MY3DLAYER
10
43.39965141195197
20
20.516383092606794
30
0.0
 70
     32
  0
VERTEX
  8
MY3DLAYER
10
43.522668633890675
20
21.493788051670613
30
0.0
 70
     32
  0
VERTEX
  8
MY3DLAYER
10
43.58783878798784
20
22.476746108716306
30
0.0
 70
     32
  0
VERTEX
  8
MY3DLAYER
10
43.633350936033686
20
24.507496948888114
30
0.0
 70
     32
  0
VERTEX
  8
MY3DLAYER
10
43.62079069006751
20
26.53871888917417
30
0.0
 70
     32
  0
VERTEX
  8
MY3DLAYER
10
43.568744211877664
20
28.81125439887556
30
0.0
 70
     32
  0
VERTEX
  8
MY3DLAYER
10
43.505702754953944
20
31.08351148236211
30
0.0
 70
     32
  0
VERTEX
  8
MY3DLAYER
10
43.48489098981532
20
31.591029155664337
30
0.0
 70
     32
  0
VERTEX
  8
MY3DLAYER
10
43.45309425692924
20
32.09797716686479
30
0.0
 70
     32
  0
VERTEX
  8
MY3DLAYER
10
43.411824973401394
20
32.69499467496431
30
0.0
 70
     32
  0
VERTEX
  8
MY3DLAYER
10
43.37587282156457
20
33.292355957203576
30
0.0
 70
     32
  0
VERTEX
  8
MY3DLAYER
10
43.36280342106528
20
33.44151350480667
30
0.0
 70
     32
  0
VERTEX
  8
MY3DLAYER
10
43.340298898621576
20
33.589541643030294
30
0.0
 70
     32
  0
VERTEX
  8
MY3DLAYER
10
43.28352124155151
20
33.77037639715068
30
0.0
 70
     32
  0
VERTEX
  8
MY3DLAYER
10
43.18486201455789
20
33.932213560896095
30
0.0
 70
     32
  0
VERTEX
  8
MY3DLAYER
10
43.04105303362653
20
34.02429706058195
30
0.0
 70
     32
  0
VERTEX
  8
MY3DLAYER
10
42.87105588159267
20
34.00813035988913
30
0.0
 70
     32
  0
VERTEX
  8
MY3DLAYER
10
42.68009244053082
20
33.87220837524365
30
0.0
 70
     32
  0
VERTEX
  8
MY3DLAYER
10
42.55379498430023
20
33.67474755816381
30
0.0
 70
     32
  0
VERTEX
  8
MY3DLAYER
10
42.472458083195995
20
33.460213183294236
30
0.0
 70
     32
  0
VERTEX
  8
MY3DLAYER
10
42.39761725586308
20
33.243327176262774
30
0.0
 70
     32
  0
VERTEX
  8
MY3DLAYER
10
42.2345310817199
20
32.771818620267915
30
0.0
 70
     32
  0
VERTEX
  8
MY3DLAYER
10
42.05664636156058
20
32.30569155078275
30
0.0
 70
     32
  0
VERTEX
  8
MY3DLAYER
10
41.75803080072882
20
31.6571317440652
30
0.0
 70
     32
  0
VERTEX
  8
MY3DLAYER
10
41.39474845505541
20
31.042455395583804
30
0.0
 70
     32
  0
VERTEX
  8
MY3DLAYER
10
40.86195829197902
20
30.290369790281723
30
0.0
 70
     32
  0
VERTEX
  8
MY3DLAYER
10
40.28298991967213
20
29.57322702943012
30
0.0
 70
     32
  0
VERTEX
  8
MY3DLAYER
10
40.00348226476448
20
29.276187247028
30
0.0
 70
     32
  0
VERTEX
  8
MY3DLAYER
10
39.69874079302088
20
29.00509723083221
30
0.0
 70
     32
  0
VERTEX
  8
MY3DLAYER
10
39.23100754589504
20
28.65109395390497
30
0.0
 70
     32
  0
VERTEX
  8
MY3DLAYER
10
38.7398081720011
20
28.330444791067556
30
0.0
 70
     32
  0
VERTEX
  8
MY3DLAYER
10
37.81624030865052
20
27.75389306211111
30
0.0
 70
     32
  0
VERTEX
  8
MY3DLAYER
10
36.90978665800791
20
27.150791682894216
30
0.0
 70
     32
  0
VERTEX
  8
MY3DLAYER
10
35.75707983412645
20
26.300930742559878
30
0.0
 70
     32
  0
VERTEX
  8
MY3DLAYER
10
34.66425555115407
20
25.375332705464594
30
0.0
 70
     32
  0
VERTEX
  8
MY3DLAYER
10
33.674114806548374
20
24.341080623250303
30
0.0
 70
     32
  0
VERTEX
  8
MY3DLAYER
10
32.839688056373866
20
23.177556638845097
30
0.0
 70
     32
  0
VERTEX
  8
MY3DLAYER
10
32.61824014932211
20
22.78317839307753
30
0.0
 70
     32
  0
VERTEX
  8
MY3DLAYER
10
32.428833049949624
20
22.37244937416163
30
0.0
 70
     32
  0
VERTEX
  8
MY3DLAYER
10
32.21780099376685
20
21.81540041149473
30
0.0
 70
     32
  0
VERTEX
  8
MY3DLAYER
10
32.04075397970994
20
21.246636461900078
30
0.0
 70
     32
  0
VERTEX
  8
MY3DLAYER
10
31.701300234874516
20
19.78393110650618
30
0.0
 70
     32
  0
VERTEX
  8
MY3DLAYER
10
31.490411522236464
20
18.29723619750076
30
0.0
 70
     32
  0
VERTEX
  8
MY3DLAYER
10
31.460752865082362
20
17.74480824069742
30
0.0
 70
     32
  0
VERTEX
  8
MY3DLAYER
10
31.47944101595179
20
17.19190043968612
30
0.0
 70
     32
  0
VERTEX
  8
MY3DLAYER
10
31.528076719682026
20
16.67859359033741
30
0.0
 70
     32
  0
VERTEX
  8
MY3DLAYER
10
31.59410191713781
20
16.16723263507529
30
0.0
 70
     32
  0
VERTEX
  8
MY3DLAYER
10
31.64610434771613
20
15.872473902901358
30
0.0
 70
     32
  0
VERTEX
  8
MY3DLAYER
10
31.71525213303088
20
15.581259983651432
30
0.0
 70
     32
  0
VERTEX
  8
MY3DLAYER
10
31.812306229816024
20
15.291096069182894
30
0.0
 70
     32
  0
VERTEX
  8
MY3DLAYER
10
31.943620637860054
20
15.014742814809932
30
0.0
 70
     32
  0
VERTEX
  8
MY3DLAYER
10
32.0779328039306
20
14.775956860957134
30
0.0
 70
     32
  0
VERTEX
  8
MY3DLAYER
10
32.216230836605526
20
14.539457085333149
30
0.0
 70
     32
  0
VERTEX
  8
MY3DLAYER
10
32.38441324532588
20
14.235809323047203
30
0.0
 70
     32
  0
VERTEX
  8
MY3DLAYER
10
32.533006963583496
20
13.922110115144772
30
0.0
 70
     32
  0
VERTEX
  8
MY3DLAYER
10
32.68188715964201
20
13.608535641820719
30
0.0
 70
     32
  0
VERTEX
  8
MY3DLAYER
10
32.850893401562956
20
13.305334135738343
30
0.0
 70
     32
  0
VERTEX
  8
MY3DLAYER
10
33.0775700935881
20
12.968056697403297
30
0.0
 70
     32
  0
VERTEX
  8
MY3DLAYER
10
33.33716678166122
20
12.655410007577883
30
0.0
 70
     32
  0
VERTEX
  8
MY3DLAYER
10
33.59736921383951
20
12.343320390187369
30
0.0
 70
     32
  0
VERTEX
  8
MY3DLAYER
10
33.826065428773866
20
12.007458400273133
30
0.0
 70
     32
  0
VERTEX
  8
MY3DLAYER
10
34.17747510137102
20
11.275683356573763
30
0.0
 70
     32
  0
VERTEX
  8
MY3DLAYER
10
34.37409501221038
20
10.488076802996671
30
0.0
 70
     32
  0
VERTEX
  8
MY3DLAYER
10
34.38774252519571
20
10.18011141935251
30
0.0
 70
     32
  0
VERTEX
  8
MY3DLAYER
10
34.34064788190171
20
9.875462397186352
30
0.0
 70
     32
  0
VERTEX
  8
MY3DLAYER
10
34.291002455520335
20
9.742801330832815
30
0.0
 70
     32
  0
VERTEX
  8
MY3DLAYER
10
34.214580432780174
20
9.623539847834534
30
0.0
 70
     32
  0
VERTEX
  8
MY3DLAYER
10
34.09845881157796
20
9.502549168961194
30
0.0
 70
     32
  0
VERTEX
  8
MY3DLAYER
10
33.96272970731318
20
9.404057618357397
30
0.0
 70
     32
  0
VERTEX
  8
MY3DLAYER
10
33.68355653103669
20
9.262294978305176
30
0.0
 70
     32
  0
VERTEX
  8
MY3DLAYER
10
33.387583113062426
20
9.160147808400522
30
0.0
 70
     32
  0
VERTEX
  8
MY3DLAYER
10
32.46440210303965
20
8.944988162270873
30
0.0
 70
     32
  0
VERTEX
  8
MY3DLAYER
10
31.528560337328834
20
8.794133794947594
30
0.0
 70
     32
  0
VERTEX
  8
MY3DLAYER
10
30.421407924107402
20
8.67698009378938
30
0.0
 70
     32
  0
VERTEX
  8
MY3DLAYER
10
29.310482274824558
20
8.603797735515398
30
0.0
 70
     32
  0
VERTEX
  8
MY3DLAYER
10
28.399127710536085
20
8.583977710580085
30
0.0
 70
     32
  0
VERTEX
  8
MY3DLAYER
10
27.487882162560886
20
8.60829902907163
30
0.0
 70
     32
  0
VERTEX
  8
MY3DLAYER
10
26.046389072207408
20
8.737631333256614
30
0.0
 70
     32
  0
VERTEX
  8
MY3DLAYER
10
24.6191559850486
20
8.9777040084231
30
0.0
 70
     32
  0
VERTEX
  8
MY3DLAYER
10
24.114867928509007
20
9.119644811179084
30
0.0
 70
     32
  0
VERTEX
  8
MY3DLAYER
10
23.634957477160395
20
9.32973906179495
30
0.0
 70
     32
  0
VERTEX
  8
MY3DLAYER
10
23.451429015989994
20
9.446724612299873
30
0.0
 70
     32
  0
VERTEX
  8
MY3DLAYER
10
23.29054395190102
20
9.593299887294036
30
0.0
 70
     32
  0
VERTEX
  8
MY3DLAYER
10
23.095910663798456
20
9.831162722349841
30
0.0
 70
     32
  0
VERTEX
  8
MY3DLAYER
10
22.93137436439593
20
10.090755964398522
30
0.0
 70
     32
  0
VERTEX
  8
MY3DLAYER
10
22.645421831005986
20
10.81542647078946
30
0.0
 70
     32
  0
VERTEX
  8
MY3DLAYER
10
22.55329201261574
20
11.589007940803082
30
0.0
 70
     32
  0
VERTEX
  8
MY3DLAYER
10
22.574582034377876
20
12.244500036338405
30
0.0
 70
     32
  0
VERTEX
  8
MY3DLAYER
10
22.625146095186814
20
12.898385674726665
30
0.0
 70
     32
  0
VERTEX
  8
MY3DLAYER
10
22.684224378590937
20
13.65690680222148
30
0.0
 70
     32
  0
VERTEX
  8
MY3DLAYER
10
22.71018655749375
20
14.41728204490931
30
0.0
 70
     32
  0
VERTEX
  8
MY3DLAYER
10
22.72316024487366
20
14.826727767068174
30
0.0
 70
     32
  0
VERTEX
  8
MY3DLAYER
10
22.751960926470794
20
15.23536530413244
30
0.0
 70
     32
  0
VERTEX
  8
MY3DLAYER
10
22.836142077603675
20
15.791992776012247
30
0.0
 70
     32
  0
VERTEX
  8
MY3DLAYER
10
22.98677544389356
20
16.334422677121633
30
0.0
 70
     32
  0
VERTEX
  8
MY3DLAYER
10
23.268656366039984
20
17.34105776412599
30
0.0
 70
     32
  0
VERTEX
  8
MY3DLAYER
10
23.431649536023777
20
18.37362944647887
30
0.0
 70
     32
  0
VERTEX
  8
MY3DLAYER
10
23.44908072913942
20
18.615431386912938
30
0.0
 70
     32
  0
VERTEX
  8
MY3DLAYER
10
23.45374553383349
20
18.857815925380844
30
0.0
 70
     32
  0
VERTEX
  8
MY3DLAYER
10
23.455014999405996
20
19.100176297204282
30
0.0
 70
     32
  0
VERTEX
  8
MY3DLAYER
10
23.462272362944713
20
19.3424313116987
30
0.0
 70
     32
  0
VERTEX
  8
MY3DLAYER
10
23.487513628463695
20
19.601055986695822
30
0.0
 70
     32
  0
VERTEX
  8
MY3DLAYER
10
23.540986594384755
20
19.855348113821275
30
0.0
 70
     32
  0
VERTEX
  8
MY3DLAYER
10
23.627223779002726
20
20.179857101737603
30
0.0
 70
     32
  0
VERTEX
  8
MY3DLAYER
10
23.711834331711238
20
20.504794002719443
30
0.0
 70
     32
  0
VERTEX
  8
MY3DLAYER
10
23.768496364581733
20
20.753298513764886
30
0.0
 70
     32
  0
VERTEX
  8
MY3DLAYER
10
23.811135554177618
20
21.00458913732565
30
0.0
 70
     32
  0
VERTEX
  8
MY3DLAYER
10
23.851284479101544
20
21.256230770061798
30
0.0
 70
     32
  0
VERTEX
  8
MY3DLAYER
10
23.900556776441572
20
21.506246146016007
30
0.0
 70
     32
  0
VERTEX
  8
MY3DLAYER
10
24.094112153082033
20
22.23831096498126
30
0.0
 70
     32
  0
VERTEX
  8
MY3DLAYER
10
24.353696852764735
20
22.949646586670276
30
0.0
 70
     32
  0
VERTEX
  8
MY3DLAYER
10
25.046400525800074
20
24.51860868743507
30
0.0
 70
     32
  0
VERTEX
  8
MY3DLAYER
10
25.801733541399194
20
26.05839844185571
30
0.0
 70
     32
  0
VERTEX
  8
MY3DLAYER
10
26.45036021537852
20
27.299616879002354
30
0.0
 70
     32
  0
VERTEX
  8
MY3DLAYER
10
27.112219044560796
20
28.533830256479582
30
0.0
 70
     32
  0
VERTEX
  8
MY3DLAYER
10
27.36466010427234
20
28.98290527901492
30
0.0
 70
     32
  0
VERTEX
  8
MY3DLAYER
10
27.6300467817753
20
29.424453437087557
30
0.0
 70
     32
  0
VERTEX
  8
MY3DLAYER
10
27.86796563090267
20
29.79502428465719
30
0.0
 70
     32
  0
VERTEX
  8
MY3DLAYER
10
28.116920821611735
20
30.158272746261083
30
0.0
 70
     32
  0
VERTEX
  8
MY3DLAYER
10
28.231796435356934
20
30.368018793310714
30
0.0
 70
     32
  0
VERTEX
  8
MY3DLAYER
10
28.29592058219101
20
30.598405217995637
30
0.0
 70
     32
  0
VERTEX
  8
MY3DLAYER
10
28.3205526817707
20
30.858443064202913
30
0.0
 70
     32
  0
VERTEX
  8
MY3DLAYER
10
28.312720489421803
20
31.11952749221962
30
0.0
 70
     32
  0
VERTEX
  8
MY3DLAYER
10
28.273287311556125
20
31.601838476092528
30
0.0
 70
     32
  0
VERTEX
  8
MY3DLAYER
10
28.24411504792631
20
32.08487868116428
30
0.0
 70
     32
  0
VERTEX
  8
MY3DLAYER
10
28.24231892235108
20
32.336171835377066
30
0.0
 70
     32
  0
VERTEX
  8
MY3DLAYER
10
28.26188531363895
20
32.58670852281677
30
0.0
 70
     32
  0
VERTEX
  8
MY3DLAYER
10
28.28733369252684
20
32.83653308003719
30
0.0
 70
     32
  0
VERTEX
  8
MY3DLAYER
10
28.303288480397562
20
33.08714308407213
30
0.0
 70
     32
  0
VERTEX
  8
MY3DLAYER
10
28.301083668037712
20
33.4437878219402
30
0.0
 70
     32
  0
VERTEX
  8
MY3DLAYER
10
28.26272337977691
20
33.79837041955472
30
0.0
 70
     32
  0
VERTEX
  8
MY3DLAYER
10
28.219699023061118
20
33.951524145291025
30
0.0
 70
     32
  0
VERTEX
  8
MY3DLAYER
10
28.14280644758629
20
34.09078896789374
30
0.0
 70
     32
  0
VERTEX
  8
MY3DLAYER
10
28.002335608197154
20
34.22475840507835
30
0.0
 70
     32
  0
VERTEX
  8
MY3DLAYER
10
27.82229507339455
20
34.297320603544485
30
0.0
 70
     32
  0
VERTEX
  8
MY3DLAYER
10
27.62452143202004
20
34.318918917341456
30
0.0
 70
     32
  0
VERTEX
  8
MY3DLAYER
10
27.42594576826233
20
34.30672850534797
30
0.0
 70
     32
  0
VERTEX
  8
MY3DLAYER
10
27.01287372409278
20
34.23590655364999
30
0.0
 70
     32
  0
VERTEX
  8
MY3DLAYER
10
26.60357519988589
20
34.145801167580096
30
0.0
 70
     32
  0
VERTEX
  8
MY3DLAYER
10
24.97369742422658
20
33.75639598787382
30
0.0
 70
     32
  0
VERTEX
  8
MY3DLAYER
10
23.33955080844209
20
33.38531271461793
30
0.0
 70
     32
  0
VERTEX
  8
MY3DLAYER
10
23.063735094573666
20
33.32688214477836
30
0.0
 70
     32
  0
VERTEX
  8
MY3DLAYER
10
22.7869208311707
20
33.27338164865734
30
0.0
 70
     32
  0
VERTEX
  8
MY3DLAYER
10
22.173183475943045
20
33.16299042286773
30
0.0
 70
     32
  0
VERTEX
  8
MY3DLAYER
10
21.558575674468553
20
33.057553169964116
30
0.0
 70
     32
  0
VERTEX
  8
MY3DLAYER
10
20.902183122370324
20
32.92631212734708
30
0.0
 70
     32
  0
VERTEX
  8
MY3DLAYER
10
20.255347002882313
20
32.75403784533467
30
0.0
 70
     32
  0
VERTEX
  8
MY3DLAYER
10
19.460518364689612
20
32.39420346580125
30
0.0
 70
     32
  0
VERTEX
  8
MY3DLAYER
10
18.788620099891784
20
31.837619180587303
30
0.0
 70
     32
  0
VERTEX
  8
MY3DLAYER
10
18.5041473296487
20
31.49743203610391
30
0.0
 70
     32
  0
VERTEX
  8
MY3DLAYER
10
18.25447311283453
20
31.13094215119606
30
0.0
 70
     32
  0
VERTEX
  8
MY3DLAYER
10
17.86682691659767
20
30.484699160812998
30
0.0
 70
     32
  0
VERTEX
  8
MY3DLAYER
10
17.490258287808764
20
29.831939140676813
30
0.0
 70
     32
  0
VERTEX
  8
MY3DLAYER
10
17.174583560463017
20
29.307796457192982
30
0.0
 70
     32
  0
VERTEX
  8
MY3DLAYER
10
16.8307120857563
20
28.801705067207486
30
0.0
 70
     32
  0
VERTEX
  8
MY3DLAYER
10
16.41014347871811
20
28.27482348692084
30
0.0
 70
     32
  0
VERTEX
  8
MY3DLAYER
10
15.939574743004238
20
27.7920738438966
30
0.0
 70
     32
  0
VERTEX
  8
MY3DLAYER
10
15.505371080432763
20
27.411445129358647
30
0.0
 70
     32
  0
VERTEX
  8
MY3DLAYER
10
15.049869575363157
20
27.056579777710148
30
0.0
 70
     32
  0
VERTEX
  8
MY3DLAYER
10
14.19609541103058
20
26.40829133045543
30
0.0
 70
     32
  0
VERTEX
  8
MY3DLAYER
10
13.364235292148575
20
25.732113116417658
30
0.0
 70
     32
  0
VERTEX
  8
MY3DLAYER
10
11.840883738789355
20
24.148795448536283
30
0.0
 70
     32
  0
VERTEX
  8
MY3DLAYER
10
10.6833951996751
20
22.281252925762978
30
0.0
 70
     32
  0
VERTEX
  8
MY3DLAYER
10
10.118524987265074
20
20.981438759639
30
0.0
 70
     32
  0
VERTEX
  8
MY3DLAYER
10
9.65736383890467
20
19.64131726568122
30
0.0
 70
     32
  0
VERTEX
  8
MY3DLAYER
10
9.520687743494786
20
19.205490789621045
30
0.0
 70
     32
  0
VERTEX
  8
MY3DLAYER
10
9.37382818489577
20
18.7729895268025
30
0.0
 70
     32
  0
VERTEX
  8
MY3DLAYER
10
9.296135198613838
20
18.53961380956218
30
0.0
 70
     32
  0
VERTEX
  8
MY3DLAYER
10
9.22675112150041
20
18.303634413516768
30
0.0
 70
     32
  0
VERTEX
  8
MY3DLAYER
10
9.186168036902385
20
18.12957256486322
30
0.0
 70
     32
  0
VERTEX
  8
MY3DLAYER
10
9.159343844925514
20
17.95286666049959
30
0.0
 70
     32
  0
VERTEX
  8
MY3DLAYER
10
9.132301707997867
20
17.64829977166023
30
0.0
 70
     32
  0
VERTEX
  8
MY3DLAYER
10
9.119225857048788
20
17.342814438020692
30
0.0
 70
     32
  0
VERTEX
  8
MY3DLAYER
10
9.123714238937906
20
16.47221641240996
30
0.0
 70
     32
  0
VERTEX
  8
MY3DLAYER
10
9.17178405174023
20
15.602934892494584
30
0.0
 70
     32
  0
VERTEX
  8
MY3DLAYER
10
9.236036743253731
20
15.076473044098133
30
0.0
 70
     32
  0
VERTEX
  8
MY3DLAYER
10
9.34336154168332
20
14.557077362728132
30
0.0
 70
     32
  0
VERTEX
  8
MY3DLAYER
10
9.525263787588115
20
13.993952684802178
30
0.0
 70
     32
  0
VERTEX
  8
MY3DLAYER
10
9.781319506203756
20
13.460442329777404
30
0.0
 70
     32
  0
VERTEX
  8
MY3DLAYER
10
10.03436947209485
20
13.025039320375466
30
0.0
 70
     32
  0
VERTEX
  8
MY3DLAYER
10
10.297347663677908
20
12.595559941842065
30
0.0
 70
     32
  0
VERTEX
  8
MY3DLAYER
10
10.618565823892181
20
12.072784207406297
30
0.0
 70
     32
  0
VERTEX
  8
MY3DLAYER
10
10.929336923741827
20
11.543731375956993
30
0.0
 70
     32
  0
VERTEX
  8
MY3DLAYER
10
11.096840995717667
20
11.258951932183162
30
0.0
 70
     32
  0
VERTEX
  8
MY3DLAYER
10
11.270293971638948
20
10.977756251439882
30
0.0
 70
     32
  0
VERTEX
  8
MY3DLAYER
10
11.431823811024412
20
10.752161152603533
30
0.0
 70
     32
  0
VERTEX
  8
MY3DLAYER
10
11.618449801924978
20
10.546842431705398
30
0.0
 70
     32
  0
VERTEX
  8
MY3DLAYER
10
11.936674936830624
20
10.137439003589348
30
0.0
 70
     32
  0
VERTEX
  8
MY3DLAYER
10
12.134000955496145
20
9.657917527744399
30
0.0
 70
     32
  0
VERTEX
  8
MY3DLAYER
10
12.265200068774288
20
8.97496700260882
30
0.0
 70
     32
  0
VERTEX
  8
MY3DLAYER
10
12.306181870930768
20
8.280737127855572
30
0.0
 70
     32
  0
VERTEX
  8
MY3DLAYER
10
12.28410204246715
20
8.149308077563772
30
0.0
 70
     32
  0
VERTEX
  8
MY3DLAYER
10
12.221801742457341
20
8.031495570993867
30
0.0
 70
     32
  0
VERTEX
  8
MY3DLAYER
10
12.172032240868685
20
7.982195857114503
30
0.0
 70
     32
  0
VERTEX
  8
MY3DLAYER
10
12.110328282056695
20
7.949028304538315
30
0.0
 70
     32
  0
VERTEX
  8
MY3DLAYER
10
12.041752932189649
20
7.934714448748037
30
0.0
 70
     32
  0
VERTEX
  8
MY3DLAYER
10
11.88929626098307
20
7.921819216158155
30
0.0
 70
     32
  0
VERTEX
  8
MY3DLAYER
10
11.737567099216673
20
7.902132035338935
30
0.0
 70
     32
  0
VERTEX
  8
MY3DLAYER
10
11.621947893990917
20
7.875106020671507
30
0.0
 70
     32
  0
VERTEX
  8
MY3DLAYER
10
11.511955933489215
20
7.830384943863917
30
0.0
 70
     32
  0
VERTEX
  8
MY3DLAYER
10
11.086339684161342
20
7.624596138229122
30
0.0
 70
     32
  0
VERTEX
  8
MY3DLAYER
10
10.655100054373092
20
7.430867962899354
30
0.0
 70
     32
  0
VERTEX
  8
MY3DLAYER
10
10.32880164797177
20
7.319749875482698
30
0.0
 70
     32
  0
VERTEX
  8
MY3DLAYER
10
9.98897707809341
20
7.261981881938082
30
0.0
 70
     32
  0
VERTEX
  8
MY3DLAYER
10
9.449301602446225
20
7.208868072980734
30
0.0
 70
     32
  0
VERTEX
  8
MY3DLAYER
10
8.910750153975668
20
7.145361907396078
30
0.0
 70
     32
  0
VERTEX
  8
MY3DLAYER
10
8.38276663272262
20
7.092573105895324
30
0.0
 70
     32
  0
VERTEX
  8
MY3DLAYER
10
7.852685949653375
20
7.068746110374945
30
0.0
 70
     32
  0
VERTEX
  8
MY3DLAYER
10
7.168928036994016
20
7.071258982351706
30
0.0
 70
     32
  0
VERTEX
  8
MY3DLAYER
10
6.48589298866902
20
7.102791828869412
30
0.0
 70
     32
  0
VERTEX
  8
MY3DLAYER
10
5.556106176917708
20
7.17178434314634
30
0.0
 70
     32
  0
VERTEX
  8
MY3DLAYER
10
4.62732808906027
20
7.25323829239906
30
0.0
 70
     32
  0
VERTEX
  8
MY3DLAYER
10
4.125583879768043
20
7.28092834828139
30
0.0
 70
     32
  0
VERTEX
  8
MY3DLAYER
10
3.623208705630943
20
7.26938819387277
30
0.0
 70
     32
  0
VERTEX
  8
MY3DLAYER
10
3.1368115453315535
20
7.235192238497843
30
0.0
 70
     32
  0
VERTEX
  8
MY3DLAYER
10
2.6510382683165963
20
7.193050996828019
30
0.0
 70
     32
  0
VERTEX
  8
MY3DLAYER
10
2.3877243893235227
20
7.186581731379674
30
0.0
 70
     32
  0
VERTEX
  8
MY3DLAYER
10
2.126092722830634
20
7.216994251070743
30
0.0
 70
     32
  0
VERTEX
  8
MY3DLAYER
10
1.8330361730181006
20
7.30488703060986
30
0.0
 70
     32
  0
VERTEX
  8
MY3DLAYER
10
1.5648917255380037
20
7.452216041224643
30
0.0
 70
     32
  0
VERTEX
  8
MY3DLAYER
10
1.3308146546256123
20
7.634101221986382
30
0.0
 70
     32
  0
VERTEX
  8
MY3DLAYER
10
1.1171511621731012
20
7.839581649523038
30
0.0
 70
     32
  0
VERTEX
  8
MY3DLAYER
10
0.9871544486473594
20
7.974804313654031
30
0.0
 70
     32
  0
VERTEX
  8
MY3DLAYER
10
0.8535737014621672
20
8.106487639871203
30
0.0
 70
     32
  0
VERTEX
  8
MY3DLAYER
10
0.7195788788257146
20
8.237739486576613
30
0.0
 70
     32
  0
VERTEX
  8
MY3DLAYER
10
0.5882998020150721
20
8.371707631106188
30
0.0
 70
     32
  0
VERTEX
  8
MY3DLAYER
10
0.3613462927401797
20
8.657978387230768
30
0.0
 70
     32
  0
VERTEX
  8
MY3DLAYER
10
0.19234107424846053
20
8.981855026256964
30
0.0
 70
     32
  0
VERTEX
  8
MY3DLAYER
10
0.049567830165159414
20
9.424283719596882
30
0.0
 70
     32
  0
VERTEX
  8
MY3DLAYER
10
-0.02630570671348664
20
9.882945418802363
30
0.0
 70
     32
  0
VERTEX
  8
MY3DLAYER
10
-0.02749702031140088
20
10.20043522007404
30
0.0
 70
     32
  0
VERTEX
  8
MY3DLAYER
10
0.025718549383114457
20
10.513435693367141
30
0.0
 70
     32
  0
VERTEX
  8
MY3DLAYER
10
0.09368665568351273
20
10.756215102044406
30
0.0
 70
     32
  0
VERTEX
  8
MY3DLAYER
10
0.17058090647228136
20
10.996316703345597
30
0.0
 70
     32
  0
VERTEX
  8
MY3DLAYER
10
0.26426678480549975
20
11.311685957243666
30
0.0
 70
     32
  0
VERTEX
  8
MY3DLAYER
10
0.332672307043623
20
11.633486352878306
30
0.0
 70
     32
  0
VERTEX
  8
MY3DLAYER
10
0.42093873122395553
20
12.1347201116244
30
0.0
 70
     32
  0
VERTEX
  8
MY3DLAYER
10
0.5137254156537522
20
12.635136811722289
30
0.0
 70
     32
  0
VERTEX
  8
MY3DLAYER
10
0.6300835175149471
20
13.219335736410084
30
0.0
 70
     32
  0
VERTEX
  8
MY3DLAYER
10
0.7566504056739942
20
13.801408252765935
30
0.0
 70
     32
  0
VERTEX
  8
MY3DLAYER
10
0.8802881778485696
20
14.384144584393281
30
0.0
 70
     32
  0
VERTEX
  8
MY3DLAYER
10
0.9878036158805655
20
14.970069802737353
30
0.0
 70
     32
  0
VERTEX
  8
MY3DLAYER
10
1.1676722434440445
20
16.585143256367783
30
0.0
 70
     32
  0
VERTEX
  8
MY3DLAYER
10
1.1633957098458152
20
18.210196084759456
30
0.0
 70
     32
  0
VERTEX
  8
MY3DLAYER
10
1.15089373652637
20
18.61590838183511
30
0.0
 70
     32
  0
VERTEX
  8
MY3DLAYER
10
1.1616047875936883
20
19.02167190991558
30
0.0
 70
     32
  0
VERTEX
  8
MY3DLAYER
10
1.2357539415106655
20
19.732630147637604
30
0.0
 70
     32
  0
VERTEX
  8
MY3DLAYER
10
1.3790112699858805
20
20.432942257092797
30
0.0
 70
     32
  0
VERTEX
  8
MY3DLAYER
10
1.8516770295048555
20
22.137957938475278
30
0.0
 70
     32
  0
VERTEX
  8
MY3DLAYER
10
2.3912091433664946
20
23.823008825568515
30
0.0
 70
     32
  0
VERTEX
  8
MY3DLAYER
10
2.959020401909142
20
25.451891401768002
30
0.0
 70
     32
  0
VERTEX
  8
MY3DLAYER
10
3.545762823993484
20
27.07405088914914
30
0.0
 70
     32
  0
VERTEX
  8
MY3DLAYER
10
3.774540721935053
20
27.66614757758956
30
0.0
 70
     32
  0
VERTEX
  8
MY3DLAYER
10
4.02194503009997
20
28.250706320018548
30
0.0
 70
     32
  0
VERTEX
  8
MY3DLAYER
10
4.484914744059082
20
29.26778299928677
30
0.0
 70
     32
  0
VERTEX
  8
MY3DLAYER
10
4.970077010294502
20
30.27446244328869
30
0.0
 70
     32
  0
VERTEX
  8
MY3DLAYER
10
5.432676668762296
20
31.29232229209663
30
0.0
 70
     32
  0
VERTEX
  8
MY3DLAYER
10
5.8261175310831685
20
32.33886010970574
30
0.0
 70
     32
  0
VERTEX
  8
MY3DLAYER
10
6.072350462027584
20
33.085827614651016
30
0.0
 70
     32
  0
VERTEX
  8
MY3DLAYER
10
6.307074003412949
20
33.83649130022872
30
0.0
 70
     32
  0
VERTEX
  8
MY3DLAYER
10
6.358161587636316
20
34.02517468563841
30
0.0
 70
     32
  0
VERTEX
  8
MY3DLAYER
10
6.397478210190611
20
34.21665722892207
30
0.0
 70
     32
  0
VERTEX
  8
MY3DLAYER
10
6.440318829914502
20
34.59467621406581
30
0.0
 70
     32
  0
VERTEX
  8
MY3DLAYER
10
6.43857771166307
20
34.97511101838143
30
0.0
 70
     32
  0
VERTEX
  8
MY3DLAYER
10
6.349617552859625
20
36.48987340286295
30
0.0
 70
     32
  0
VERTEX
  8
MY3DLAYER
10
6.2746799067483305
20
38.00539421779414
30
0.0
 70
     32
  0
VERTEX
  8
MY3DLAYER
10
6.1820051593770255
20
41.037862788830815
30
0.0
 70
     32
  0
VERTEX
  8
MY3DLAYER
10
6.17564705821222
20
44.07174047550101
30
0.0
 70
     32
  0
VERTEX
  8
MY3DLAYER
10
6.202515878555628
20
44.71925659276085
30
0.0
 70
     32
  0
VERTEX
  8
MY3DLAYER
10
6.267312008541834
20
45.36408255157198
30
0.0
 70
     32
  0
VERTEX
  8
MY3DLAYER
10
6.4082779363694
20
46.429291175509775
30
0.0
 70
     32
  0
VERTEX
  8
MY3DLAYER
10
6.553679386941338
20
47.4939034164178
30
0.0
 70
     32
  0
VERTEX
  8
MY3DLAYER
10
6.6428261689411965
20
48.120351052586166
30
0.0
 70
     32
  0
VERTEX
  8
MY3DLAYER
10
6.736401527691256
20
48.74615249221114
30
0.0
 70
     32
  0
VERTEX
  8
MY3DLAYER
10
6.842049520098866
20
49.311722229259836
30
0.0
 70
     32
  0
VERTEX
  8
MY3DLAYER
10
6.9844394594662855
20
49.86917691883741
30
0.0
 70
     32
  0
VERTEX
  8
MY3DLAYER
10
7.267073986280918
20
50.77447446315199
30
0.0
 70
     32
  0
VERTEX
  8
MY3DLAYER
10
7.585372715135362
20
51.66785670984115
30
0.0
 70
     32
  0
VERTEX
  8
MY3DLAYER
10
7.92790174405644
20
52.5415345983704
30
0.0
 70
     32
  0
VERTEX
  8
MY3DLAYER
10
8.290518578244471
20
53.407068087105436
30
0.0
 70
     32
  0
VERTEX
  8
MY3DLAYER
10
9.699018019088767
20
56.8871154861458
30
0.0
 70
     32
  0
VERTEX
  8
MY3DLAYER
10
10.941015437554508
20
60.430001737064714
30
0.0
 70
     32
  0
VERTEX
  8
MY3DLAYER
10
11.460138429406
20
61.79251552159993
30
0.0
 70
     32
  0
VERTEX
  8
MY3DLAYER
10
12.114135006919325
20
63.0956735973214
30
0.0
 70
     32
  0
VERTEX
  8
MY3DLAYER
10
12.893459314049235
20
64.40081885327126
30
0.0
 70
     32
  0
VERTEX
  8
MY3DLAYER
10
13.730992891762794
20
65.66939601726813
30
0.0
 70
     32
  0
VERTEX
  8
MY3DLAYER
10
14.471769998907401
20
66.66964503518705
30
0.0
 70
     32
  0
VERTEX
  8
MY3DLAYER
10
15.273704287624337
20
67.62156426332427
30
0.0
 70
     32
  0
VERTEX
  8
MY3DLAYER
10
15.714367308152996
20
68.12624802545989
30
0.0
 70
     32
  0
VERTEX
  8
MY3DLAYER
10
16.141114260656447
20
68.64275227128344
30
0.0
 70
     32
  0
VERTEX
  8
MY3DLAYER
10
17.579540640003085
20
70.42942695239591
30
0.0
 70
     32
  0
VERTEX
  8
MY3DLAYER
10
19.02130331556769
20
72.21341048715104
30
0.0
 70
     32
  0
VERTEX
  8
MY3DLAYER
10
19.703375122927135
20
73.03678721663744
30
0.0
 70
     32
  0
VERTEX
  8
MY3DLAYER
10
20.403673619956432
20
73.84471865191696
30
0.0
 70
     32
  0
VERTEX
  8
MY3DLAYER
10
22.309373637014694
20
75.84707696035818
30
0.0
 70
     32
  0
VERTEX
  8
MY3DLAYER
10
24.35173315400133
20
77.70984343895222
30
0.0
 70
     32
  0
VERTEX
  8
MY3DLAYER
10
26.313618377286083
20
79.31204986612907
30
0.0
 70
     32
  0
VERTEX
  8
MY3DLAYER
10
28.33580444782988
20
80.83744245845702
30
0.0
 70
     32
  0
VERTEX
  8
MY3DLAYER
10
28.438371823735768
20
80.90914724161699
30
0.0
 70
     32
  0
VERTEX
  8
MY3DLAYER
10
28.543299210784575
20
80.97735197734228
30
0.0
 70
     32
  0
VERTEX
  8
MY3DLAYER
10
28.837138888082173
20
81.15888903703024
30
0.0
 70
     32
  0
VERTEX
  8
MY3DLAYER
10
29.133174764848327
20
81.33682222578888
30
0.0
 70
     32
  0
VERTEX
  8
MY3DLAYER
10
29.30493983649763
20
81.44530529998957
30
0.0
 70
     32
  0
VERTEX
  8
MY3DLAYER
10
29.470309050699775
20
81.5633088601939
30
0.0
 70
     32
  0
VERTEX
  8
MY3DLAYER
10
29.797338160424637
20
81.81808170352355
30
0.0
 70
     32
  0
VERTEX
  8
MY3DLAYER
10
30.117198503099026
20
82.08179860000533
30
0.0
 70
     32
  0
VERTEX
  8
MY3DLAYER
10
30.355518963062345
20
82.27847622904115
30
0.0
 70
     32
  0
VERTEX
  8
MY3DLAYER
10
30.599007082204995
20
82.4687188826093
30
0.0
 70
     32
  0
VERTEX
  8
MY3DLAYER
10
30.822235817972718
20
82.63319719467893
30
0.0
 70
     32
  0
SEQEND
 0
ENDSEC
 0
EOF
