 0
SECTION
 2
ENTITIES
  0
POLYLINE
 8
Layer0
 66
     1
70
    8
 10
0.0
 20
 0.0
 30
0.0
  0
VERTEX
  8
MY3DLAYER
10
3.5145233175450463
20
3.2660574100149473
30
0.0
 70
     32
  0
VERTEX
  8
MY3DLAYER
10
3.8492834056390417
20
3.327889095132999
30
0.0
 70
     32
  0
VERTEX
  8
MY3DLAYER
10
3.9822947014277905
20
3.3628784669778815
30
0.0
 70
     32
  0
VERTEX
  8
MY3DLAYER
10
4.005398999412961
20
3.3838892521733914
30
0.0
 70
     32
  0
VERTEX
  8
MY3DLAYER
10
3.9274814796736575
20
3.3870098701114264
30
0.0
 70
     32
  0
VERTEX
  8
MY3DLAYER
10
3.75742751880145
20
3.368328805688049
30
0.0
 70
     32
  0
VERTEX
  8
MY3DLAYER
10
3.590343778327693
20
3.3500305475457304
30
0.0
 70
     32
  0
VERTEX
  8
MY3DLAYER
10
3.550894818115065
20
3.354635555137285
30
0.0
 70
     32
  0
VERTEX
  8
MY3DLAYER
10
3.5222994378354118
20
3.368328805688049
30
0.0
 70
     32
  0
VERTEX
  8
MY3DLAYER
10
3.475045919586576
20
3.385665200820241
30
0.0
 70
     32
  0
VERTEX
  8
MY3DLAYER
10
3.4206224475539164
20
3.387393265929883
30
0.0
 70
     32
  0
VERTEX
  8
MY3DLAYER
10
3.3878984058969217
20
3.3860366093783587
30
0.0
 70
     32
  0
VERTEX
  8
MY3DLAYER
10
3.358136855148105
20
3.3943825592545704
30
0.0
 70
     32
  0
VERTEX
  8
MY3DLAYER
10
3.28370507350608
20
3.450941401231851
30
0.0
 70
     32
  0
VERTEX
  8
MY3DLAYER
10
3.223720953766466
20
3.5181133573895744
30
0.0
 70
     32
  0
VERTEX
  8
MY3DLAYER
10
3.205136507971522
20
3.5745713884725023
30
0.0
 70
     32
  0
VERTEX
  8
MY3DLAYER
10
3.1990233982223772
20
3.614961184861538
30
0.0
 70
     32
  0
VERTEX
  8
MY3DLAYER
10
3.1843389388001184
20
3.6392749515622356
30
0.0
 70
     32
  0
VERTEX
  8
MY3DLAYER
10
3.1725587370923507
20
3.6669936242331076
30
0.0
 70
     32
  0
VERTEX
  8
MY3DLAYER
10
3.1762510097899392
20
3.7207321193182827
30
0.0
 70
     32
  0
VERTEX
  8
MY3DLAYER
10
3.187805156659248
20
3.8599602834374855
30
0.0
 70
     32
  0
VERTEX
  8
MY3DLAYER
10
3.198616551916477
20
3.924718804513154
30
0.0
 70
     32
  0
VERTEX
  8
MY3DLAYER
10
3.241532254021476
20
3.9755023416679607
30
0.0
 70
     32
  0
VERTEX
  8
MY3DLAYER
10
3.279149390543145
20
4.016718603978997
30
0.0
 70
     32
  0
VERTEX
  8
MY3DLAYER
10
3.279083427859191
20
4.047716087121912
30
0.0
 70
     32
  0
VERTEX
  8
MY3DLAYER
10
3.2654278421974805
20
4.076907751723359
30
0.0
 70
     32
  0
VERTEX
  8
MY3DLAYER
10
3.2651144048164253
20
4.104700902618317
30
0.0
 70
     32
  0
VERTEX
  8
MY3DLAYER
10
3.3091243538285333
20
4.17539003886765
30
0.0
 70
     32
  0
VERTEX
  8
MY3DLAYER
10
3.3431771472670753
20
4.231816365939631
30
0.0
 70
     32
  0
VERTEX
  8
MY3DLAYER
10
3.3564965656059904
20
4.288621241522613
30
0.0
 70
     32
  0
VERTEX
  8
MY3DLAYER
10
3.3694437238327786
20
4.342747259187998
30
0.0
 70
     32
  0
VERTEX
  8
MY3DLAYER
10
3.4090682351804578
20
4.390298297308254
30
0.0
 70
     32
  0
VERTEX
  8
MY3DLAYER
10
3.4513995092156984
20
4.438262077108347
30
0.0
 70
     32
  0
VERTEX
  8
MY3DLAYER
10
3.480126552846645
20
4.491397540943784
30
0.0
 70
     32
  0
VERTEX
  8
MY3DLAYER
10
3.5093560133454544
20
4.539238172932722
30
0.0
 70
     32
  0
VERTEX
  8
MY3DLAYER
10
3.561006039460885
20
4.566499888619211
30
0.0
 70
     32
  0
VERTEX
  8
MY3DLAYER
10
3.607535081756851
20
4.589466955399935
30
0.0
 70
     32
  0
VERTEX
  8
MY3DLAYER
10
3.63321978491484
20
4.61907155819368
30
0.0
 70
     32
  0
VERTEX
  8
MY3DLAYER
10
3.654460162173166
20
4.650136510616115
30
0.0
 70
     32
  0
VERTEX
  8
MY3DLAYER
10
3.695522882745181
20
4.678529876082153
30
0.0
 70
     32
  0
VERTEX
  8
MY3DLAYER
10
3.7526618950221518
20
4.702324391347192
30
0.0
 70
     32
  0
VERTEX
  8
MY3DLAYER
10
3.8221310163870243
20
4.719593120687408
30
0.0
 70
     32
  0
VERTEX
  8
MY3DLAYER
10
3.8845389863693196
20
4.737473920850731
30
0.0
 70
     32
  0
VERTEX
  8
MY3DLAYER
10
3.9290074644655233
20
4.761188259030213
30
0.0
 70
     32
  0
VERTEX
  8
MY3DLAYER
10
3.97552484702192
20
4.78381745538011
30
0.0
 70
     32
  0
VERTEX
  8
MY3DLAYER
10
4.042816348262276
20
4.799317114009733
30
0.0
 70
     32
  0
VERTEX
  8
MY3DLAYER
10
4.109046289168802
20
4.813781806992405
30
0.0
 70
     32
  0
VERTEX
  8
MY3DLAYER
10
4.153159014199906
20
4.833979751130124
30
0.0
 70
     32
  0
VERTEX
  8
MY3DLAYER
10
4.201120435850425
20
4.8551742099758854
30
0.0
 70
     32
  0
VERTEX
  8
MY3DLAYER
10
4.276211320298751
20
4.872108606109644
30
0.0
 70
     32
  0
VERTEX
  8
MY3DLAYER
10
4.3498352391987565
20
4.8890270847337645
30
0.0
 70
     32
  0
VERTEX
  8
MY3DLAYER
10
4.394641915246555
20
4.910237526593316
30
0.0
 70
     32
  0
VERTEX
  8
MY3DLAYER
10
4.421226842004929
20
4.922559513166017
30
0.0
 70
     32
  0
VERTEX
  8
MY3DLAYER
10
4.460893669036654
20
4.921653263183386
30
0.0
 70
     32
  0
VERTEX
  8
MY3DLAYER
10
4.5679549698401924
20
4.881929709553539
30
0.0
 70
     32
  0
VERTEX
  8
MY3DLAYER
10
4.59970489921011
20
4.8697209141604585
30
0.0
 70
     32
  0
VERTEX
  8
MY3DLAYER
10
4.641551770020082
20
4.897558083847483
30
0.0
 70
     32
  0
VERTEX
  8
MY3DLAYER
10
4.722762445641346
20
4.893856509559907
30
0.0
 70
     32
  0
VERTEX
  8
MY3DLAYER
10
4.824635686370832
20
4.874803774561792
30
0.0
 70
     32
  0
VERTEX
  8
MY3DLAYER
10
4.919780536824472
20
4.84380085457402
30
0.0
 70
     32
  0
VERTEX
  8
MY3DLAYER
10
4.995126035922786
20
4.817878895367094
30
0.0
 70
     32
  0
VERTEX
  8
MY3DLAYER
10
5.032434058337621
20
4.82300328540262
30
0.0
 70
     32
  0
VERTEX
  8
MY3DLAYER
10
5.05692979558055
20
4.838072647238898
30
0.0
 70
     32
  0
VERTEX
  8
MY3DLAYER
10
5.091696125778096
20
4.839267639536203
30
0.0
 70
     32
  0
VERTEX
  8
MY3DLAYER
10
5.220189862022044
20
4.796428577292407
30
0.0
 70
     32
  0
VERTEX
  8
MY3DLAYER
10
5.297274365423863
20
4.769839589276434
30
0.0
 70
     32
  0
VERTEX
  8
MY3DLAYER
10
5.3420532677099954
20
4.783932873700991
30
0.0
 70
     32
  0
VERTEX
  8
MY3DLAYER
10
5.379789294272759
20
4.7812511991047435
30
0.0
 70
     32
  0
VERTEX
  8
MY3DLAYER
10
5.528687116229801
20
4.7224816574047335
30
0.0
 70
     32
  0
VERTEX
  8
MY3DLAYER
10
5.643309561630048
20
4.674284355292526
30
0.0
 70
     32
  0
VERTEX
  8
MY3DLAYER
10
5.733196590084691
20
4.647379309729305
30
0.0
 70
     32
  0
VERTEX
  8
MY3DLAYER
10
5.838907457231424
20
4.605400841072193
30
0.0
 70
     32
  0
VERTEX
  8
MY3DLAYER
10
5.9914330302935035
20
4.520860785771321
30
0.0
 70
     32
  0
VERTEX
  8
MY3DLAYER
10
6.13488385425229
20
4.438467432633864
30
0.0
 70
     32
  0
VERTEX
  8
MY3DLAYER
10
6.2161124125078375
20
4.409424462463974
30
0.0
 70
     32
  0
VERTEX
  8
MY3DLAYER
10
6.24147247707428
20
4.4333555538919205
30
0.0
 70
     32
  0
VERTEX
  8
MY3DLAYER
10
6.217317754461607
20
4.509884320043818
30
0.0
 70
     32
  0
VERTEX
  8
MY3DLAYER
10
6.207496716521858
20
4.569966171982501
30
0.0
 70
     32
  0
VERTEX
  8
MY3DLAYER
10
6.249990244348719
20
4.566135947534757
30
0.0
 70
     32
  0
VERTEX
  8
MY3DLAYER
10
6.335170668267607
20
4.539925246013159
30
0.0
 70
     32
  0
VERTEX
  8
MY3DLAYER
10
6.421140810277621
20
4.513301213274333
30
0.0
 70
     32
  0
VERTEX
  8
MY3DLAYER
10
6.4743242886585675
20
4.509373387635825
30
0.0
 70
     32
  0
VERTEX
  8
MY3DLAYER
10
6.498226230737598
20
4.528809452948248
30
0.0
 70
     32
  0
VERTEX
  8
MY3DLAYER
10
6.496351829345978
20
4.572277027558029
30
0.0
 70
     32
  0
VERTEX
  8
MY3DLAYER
10
6.473243404599052
20
4.667021516617097
30
0.0
 70
     32
  0
VERTEX
  8
MY3DLAYER
10
6.491370762401314
20
4.705148471976128
30
0.0
 70
     32
  0
VERTEX
  8
MY3DLAYER
10
6.610160713142728
20
4.623115522698768
30
0.0
 70
     32
  0
VERTEX
  8
MY3DLAYER
10
6.696023952371989
20
4.560548508628452
30
0.0
 70
     32
  0
VERTEX
  8
MY3DLAYER
10
6.725019432029598
20
4.547713886539731
30
0.0
 70
     32
  0
VERTEX
  8
MY3DLAYER
10
6.759504159865363
20
4.560621611265285
30
0.0
 70
     32
  0
VERTEX
  8
MY3DLAYER
10
6.76674001082898
20
4.5870357686919085
30
0.0
 70
     32
  0
VERTEX
  8
MY3DLAYER
10
6.76556480078644
20
4.681464265707888
30
0.0
 70
     32
  0
VERTEX
  8
MY3DLAYER
10
6.762757947750247
20
4.768334565814126
30
0.0
 70
     32
  0
VERTEX
  8
MY3DLAYER
10
6.769608765291534
20
4.804516506302583
30
0.0
 70
     32
  0
VERTEX
  8
MY3DLAYER
10
6.898438144825041
20
4.6999509793037655
30
0.0
 70
     32
  0
VERTEX
  8
MY3DLAYER
10
6.985417312836677
20
4.626443985320209
30
0.0
 70
     32
  0
VERTEX
  8
MY3DLAYER
10
7.033044663297354
20
4.595963133446752
30
0.0
 70
     32
  0
VERTEX
  8
MY3DLAYER
10
7.051078939695544
20
4.6150469174142845
30
0.0
 70
     32
  0
VERTEX
  8
MY3DLAYER
10
7.064910666029701
20
4.6634140718000685
30
0.0
 70
     32
  0
VERTEX
  8
MY3DLAYER
10
7.072052715043549
20
4.727738889866337
30
0.0
 70
     32
  0
VERTEX
  8
MY3DLAYER
10
7.0700180904891115
20
4.794695468362841
30
0.0
 70
     32
  0
VERTEX
  8
MY3DLAYER
10
7.09378109825566
20
4.858015387189245
30
0.0
 70
     32
  0
VERTEX
  8
MY3DLAYER
10
7.140842558322414
20
4.8279360102809905
30
0.0
 70
     32
  0
VERTEX
  8
MY3DLAYER
10
7.215601074688934
20
4.755411185595562
30
0.0
 70
     32
  0
VERTEX
  8
MY3DLAYER
10
7.316700383828616
20
4.6491124841630205
30
0.0
 70
     32
  0
VERTEX
  8
MY3DLAYER
10
7.358873203313226
20
4.691285303647633
30
0.0
 70
     32
  0
VERTEX
  8
MY3DLAYER
10
7.380511387304083
20
4.7167745424074825
30
0.0
 70
     32
  0
VERTEX
  8
MY3DLAYER
10
7.3918531697033005
20
4.743874397327293
30
0.0
 70
     32
  0
VERTEX
  8
MY3DLAYER
10
7.390647303716295
20
4.835135178917882
30
0.0
 70
     32
  0
VERTEX
  8
MY3DLAYER
10
7.414911090746821
20
4.918325455603492
30
0.0
 70
     32
  0
VERTEX
  8
MY3DLAYER
10
7.465810832272372
20
4.865623301752531
30
0.0
 70
     32
  0
VERTEX
  8
MY3DLAYER
10
7.5391188246334355
20
4.765232223535304
30
0.0
 70
     32
  0
VERTEX
  8
MY3DLAYER
10
7.6060190040525955
20
4.67469997915518
30
0.0
 70
     32
  0
VERTEX
  8
MY3DLAYER
10
7.629038736173826
20
4.655653860076703
30
0.0
 70
     32
  0
VERTEX
  8
MY3DLAYER
10
7.65895939651482
20
4.672721033132384
30
0.0
 70
     32
  0
VERTEX
  8
MY3DLAYER
10
7.667757063043028
20
4.709922087262317
30
0.0
 70
     32
  0
VERTEX
  8
MY3DLAYER
10
7.677769307610837
20
4.844378535715821
30
0.0
 70
     32
  0
VERTEX
  8
MY3DLAYER
10
7.684302888530093
20
4.964455774108763
30
0.0
 70
     32
  0
VERTEX
  8
MY3DLAYER
10
7.6968337023485125
20
4.9986271955717765
30
0.0
 70
     32
  0
VERTEX
  8
MY3DLAYER
10
7.721675236025011
20
4.98187359090546
30
0.0
 70
     32
  0
VERTEX
  8
MY3DLAYER
10
7.845305288769823
20
4.809715898595435
30
0.0
 70
     32
  0
VERTEX
  8
MY3DLAYER
10
7.918295454971457
20
4.704870734359474
30
0.0
 70
     32
  0
VERTEX
  8
MY3DLAYER
10
7.955647889203291
20
4.690707622505824
30
0.0
 70
     32
  0
VERTEX
  8
MY3DLAYER
10
7.978067079232662
20
4.727529080058286
30
0.0
 70
     32
  0
VERTEX
  8
MY3DLAYER
10
7.9995671149609
20
4.791596728812538
30
0.0
 70
     32
  0
VERTEX
  8
MY3DLAYER
10
8.022084626726743
20
4.936234488057571
30
0.0
 70
     32
  0
VERTEX
  8
MY3DLAYER
10
8.054835066558155
20
4.978458007758043
30
0.0
 70
     32
  0
VERTEX
  8
MY3DLAYER
10
8.099549054226806
20
4.909318437796326
30
0.0
 70
     32
  0
VERTEX
  8
MY3DLAYER
10
8.166512183138801
20
4.77620875476696
30
0.0
 70
     32
  0
VERTEX
  8
MY3DLAYER
10
8.244677177575198
20
4.622039551450865
30
0.0
 70
     32
  0
VERTEX
  8
MY3DLAYER
10
8.28725363366212
20
4.557834278467233
30
0.0
 70
     32
  0
VERTEX
  8
MY3DLAYER
10
8.304060362198038
20
4.577369713582591
30
0.0
 70
     32
  0
VERTEX
  8
MY3DLAYER
10
8.322685813593928
20
4.624949115001904
30
0.0
 70
     32
  0
VERTEX
  8
MY3DLAYER
10
8.344446948883483
20
4.738079834283288
30
0.0
 70
     32
  0
VERTEX
  8
MY3DLAYER
10
8.380391043785599
20
4.817118916162286
30
0.0
 70
     32
  0
VERTEX
  8
MY3DLAYER
10
8.398173980741555
20
4.78487436491894
30
0.0
 70
     32
  0
VERTEX
  8
MY3DLAYER
10
8.479552150486823
20
4.581853997016722
30
0.0
 70
     32
  0
VERTEX
  8
MY3DLAYER
10
8.517182256831155
20
4.5104620011856165
30
0.0
 70
     32
  0
VERTEX
  8
MY3DLAYER
10
8.554207694321887
20
4.5225107044242066
30
0.0
 70
     32
  0
VERTEX
  8
MY3DLAYER
10
8.566606386259936
20
4.560770109184379
30
0.0
 70
     32
  0
VERTEX
  8
MY3DLAYER
10
8.57148703533519
20
4.6138721659008315
30
0.0
 70
     32
  0
VERTEX
  8
MY3DLAYER
10
8.59283097466237
20
4.652129278015589
30
0.0
 70
     32
  0
VERTEX
  8
MY3DLAYER
10
8.65756584873812
20
4.472333146206102
30
0.0
 70
     32
  0
VERTEX
  8
MY3DLAYER
10
8.714181482817677
20
4.296131489390982
30
0.0
 70
     32
  0
VERTEX
  8
MY3DLAYER
10
8.953931209430616
20
4.236049637452298
30
0.0
 70
     32
  0
VERTEX
  8
MY3DLAYER
10
9.520459941346592
20
4.090426106180614
30
0.0
 70
     32
  0
VERTEX
  8
MY3DLAYER
10
10.005299620798278
20
3.9349340464569127
30
0.0
 70
     32
  0
VERTEX
  8
MY3DLAYER
10
10.212700382545005
20
3.8550567079080325
30
0.0
 70
     32
  0
VERTEX
  8
MY3DLAYER
10
10.39441598260467
20
3.774595661835106
30
0.0
 70
     32
  0
VERTEX
  8
MY3DLAYER
10
10.548692154205666
20
3.6941786345542478
30
0.0
 70
     32
  0
VERTEX
  8
MY3DLAYER
10
10.673774696080573
20
3.614433417885743
30
0.0
 70
     32
  0
VERTEX
  8
MY3DLAYER
10
10.998675107726076
20
3.398985143192394
30
0.0
 70
     32
  0
VERTEX
  8
MY3DLAYER
10
11.56864785159269
20
3.0604092981262525
30
0.0
 70
     32
  0
VERTEX
  8
MY3DLAYER
10
12.1604671481668
20
2.710018206629485
30
0.0
 70
     32
  0
VERTEX
  8
MY3DLAYER
10
12.280429819792872
20
2.6295848688140664
30
0.0
 70
     32
  0
VERTEX
  8
MY3DLAYER
10
12.350867551095817
20
2.5699332481645727
30
0.0
 70
     32
  0
VERTEX
  8
MY3DLAYER
10
12.408706999300806
20
2.50376291603898
30
0.0
 70
     32
  0
VERTEX
  8
MY3DLAYER
10
12.419621498097808
20
2.451498526455013
30
0.0
 70
     32
  0
VERTEX
  8
MY3DLAYER
10
12.406528724134736
20
2.4271838426961447
30
0.0
 70
     32
  0
VERTEX
  8
MY3DLAYER
10
12.380560912019412
20
2.402269140878664
30
0.0
 70
     32
  0
VERTEX
  8
MY3DLAYER
10
12.288474843581602
20
2.345203951784233
30
0.0
 70
     32
  0
VERTEX
  8
MY3DLAYER
10
12.199515812489008
20
2.2923417057787634
30
0.0
 70
     32
  0
VERTEX
  8
MY3DLAYER
10
12.312160949470336
20
2.2926323477139214
30
0.0
 70
     32
  0
VERTEX
  8
MY3DLAYER
10
12.486111228482546
20
2.3334266322592807
30
0.0
 70
     32
  0
VERTEX
  8
MY3DLAYER
10
12.51895946601719
20
2.3293855499370064
30
0.0
 70
     32
  0
VERTEX
  8
MY3DLAYER
10
12.542089638143532
20
2.3111190613098005
30
0.0
 70
     32
  0
VERTEX
  8
MY3DLAYER
10
12.566420501428652
20
2.27215149113132
30
0.0
 70
     32
  0
VERTEX
  8
MY3DLAYER
10
12.574332879303773
20
2.2226576652817545
30
0.0
 70
     32
  0
VERTEX
  8
MY3DLAYER
10
12.566887742565347
20
2.1650701460563875
30
0.0
 70
     32
  0
VERTEX
  8
MY3DLAYER
10
12.545145668984858
20
2.101821299238021
30
0.0
 70
     32
  0
VERTEX
  8
MY3DLAYER
10
12.510167563854619
20
2.035343687121933
30
0.0
 70
     32
  0
VERTEX
  8
MY3DLAYER
10
12.463014201458572
20
1.9680697409950794
30
0.0
 70
     32
  0
VERTEX
  8
MY3DLAYER
10
12.404746356080723
20
1.902432023152738
30
0.0
 70
     32
  0
VERTEX
  8
MY3DLAYER
10
12.336424802005018
20
1.8408628993777187
30
0.0
 70
     32
  0
VERTEX
  8
MY3DLAYER
10
12.240302236535777
20
1.771134185047093
30
0.0
 70
     32
  0
VERTEX
  8
MY3DLAYER
10
12.126102882471836
20
1.7016796711087554
30
0.0
 70
     32
  0
VERTEX
  8
MY3DLAYER
10
11.847984097143483
20
1.5649104674592345
30
0.0
 70
     32
  0
VERTEX
  8
MY3DLAYER
10
11.511089088691305
20
1.4331898000338983
30
0.0
 70
     32
  0
VERTEX
  8
MY3DLAYER
10
11.12443856529087
20
1.3091523114457941
30
0.0
 70
     32
  0
VERTEX
  8
MY3DLAYER
10
10.6970532351177
20
1.1954323822913544
30
0.0
 70
     32
  0
VERTEX
  8
MY3DLAYER
10
10.237953806347319
20
1.0946645896794687
30
0.0
 70
     32
  0
VERTEX
  8
MY3DLAYER
10
9.75616092165113
20
1.0094834452148767
30
0.0
 70
     32
  0
VERTEX
  8
MY3DLAYER
10
9.260695354708794
20
0.9425234605023204
30
0.0
 70
     32
  0
VERTEX
  8
MY3DLAYER
10
9.188647203758366
20
0.9255826449613852
30
0.0
 70
     32
  0
VERTEX
  8
MY3DLAYER
10
9.127957276750012
20
0.8867515199374983
30
0.0
 70
     32
  0
VERTEX
  8
MY3DLAYER
10
9.067632993934156
20
0.8161577577376515
30
0.0
 70
     32
  0
VERTEX
  8
MY3DLAYER
10
8.996681775561184
20
0.7039291616771488
30
0.0
 70
     32
  0
VERTEX
  8
MY3DLAYER
10
8.912108837174564
20
0.5714711794845889
30
0.0
 70
     32
  0
VERTEX
  8
MY3DLAYER
10
8.817283188467602
20
0.4441222593553146
30
0.0
 70
     32
  0
VERTEX
  8
MY3DLAYER
10
8.71418633012514
20
0.3237560166310864
30
0.0
 70
     32
  0
VERTEX
  8
MY3DLAYER
10
8.604799566319539
20
0.21224626316613263
30
0.0
 70
     32
  0
VERTEX
  8
MY3DLAYER
10
8.491104332231489
20
0.11146667980636897
30
0.0
 70
     32
  0
VERTEX
  8
MY3DLAYER
10
8.3750819975375
20
0.023291012901870654
30
0.0
 70
     32
  0
VERTEX
  8
MY3DLAYER
10
8.258713866409956
20
-0.05040705670144692
30
0.0
 70
     32
  0
VERTEX
  8
MY3DLAYER
10
8.143981439533675
20
-0.10775378265351043
30
0.0
 70
     32
  0
VERTEX
  8
MY3DLAYER
10
8.076774962686336
20
-0.13400490023866082
30
0.0
 70
     32
  0
VERTEX
  8
MY3DLAYER
10
8.031588100523669
20
-0.14268799999999243
30
0.0
 70
     32
  0
VERTEX
  8
MY3DLAYER
10
7.997969730640226
20
-0.13375958717867098
30
0.0
 70
     32
  0
VERTEX
  8
MY3DLAYER
10
7.965468992647185
20
-0.10717603600755195
30
0.0
 70
     32
  0
VERTEX
  8
MY3DLAYER
10
7.938581764214094
20
-0.07001271227082356
30
0.0
 70
     32
  0
VERTEX
  8
MY3DLAYER
10
7.927340137667661
20
-0.03380686276584052
30
0.0
 70
     32
  0
VERTEX
  8
MY3DLAYER
10
7.919053338043297
20
-0.0018691329839101679
30
0.0
 70
     32
  0
VERTEX
  8
MY3DLAYER
10
7.899032320627892
20
0.025119561385083436
30
0.0
 70
     32
  0
VERTEX
  8
MY3DLAYER
10
7.878722298881186
20
0.05254824716234178
30
0.0
 70
     32
  0
VERTEX
  8
MY3DLAYER
10
7.870146822446306
20
0.08520147882792133
30
0.0
 70
     32
  0
VERTEX
  8
MY3DLAYER
10
7.861244545782786
20
0.12478917684056368
30
0.0
 70
     32
  0
VERTEX
  8
MY3DLAYER
10
7.839528149831011
20
0.16896943665533495
30
0.0
 70
     32
  0
VERTEX
  8
MY3DLAYER
10
7.817836186929004
20
0.22033628830926622
30
0.0
 70
     32
  0
VERTEX
  8
MY3DLAYER
10
7.836061866467723
20
0.28797777824909704
30
0.0
 70
     32
  0
VERTEX
  8
MY3DLAYER
10
7.853318412035138
20
0.35280383410843635
30
0.0
 70
     32
  0
VERTEX
  8
MY3DLAYER
10
7.8481938254871455
20
0.4040975176213761
30
0.0
 70
     32
  0
VERTEX
  8
MY3DLAYER
10
7.841633256856087
20
0.45357562247376965
30
0.0
 70
     32
  0
VERTEX
  8
MY3DLAYER
10
7.852237789992234
20
0.511551646841675
30
0.0
 70
     32
  0
VERTEX
  8
MY3DLAYER
10
7.863564768452453
20
0.5616622598134974
30
0.0
 70
     32
  0
VERTEX
  8
MY3DLAYER
10
7.861481146790178
20
0.5935864957395229
30
0.0
 70
     32
  0
VERTEX
  8
MY3DLAYER
10
7.8597055256641015
20
0.6190277854580108
30
0.0
 70
     32
  0
VERTEX
  8
MY3DLAYER
10
7.872243151914633
20
0.654314087636921
30
0.0
 70
     32
  0
VERTEX
  8
MY3DLAYER
10
7.894131299760478
20
0.6892775853406305
30
0.0
 70
     32
  0
VERTEX
  8
MY3DLAYER
10
7.920407570941099
20
0.7137501996168932
30
0.0
 70
     32
  0
VERTEX
  8
MY3DLAYER
10
7.93870209534658
20
0.7344085069550406
30
0.0
 70
     32
  0
VERTEX
  8
MY3DLAYER
10
7.946404532405348
20
0.7628555858280717
30
0.0
 70
     32
  0
VERTEX
  8
MY3DLAYER
10
7.958312794735891
20
0.8013056731830757
30
0.0
 70
     32
  0
VERTEX
  8
MY3DLAYER
10
7.995780254263682
20
0.8374345553060882
30
0.0
 70
     32
  0
VERTEX
  8
MY3DLAYER
10
8.061420395759756
20
0.8729585720630256
30
0.0
 70
     32
  0
VERTEX
  8
MY3DLAYER
10
8.157846507482663
20
0.9095939978156492
30
0.0
 70
     32
  0
VERTEX
  8
MY3DLAYER
10
8.297074671601864
20
0.9558107818053475
30
0.0
 70
     32
  0
VERTEX
  8
MY3DLAYER
10
7.946404532405348
20
0.9459897438656039
30
0.0
 70
     32
  0
VERTEX
  8
MY3DLAYER
10
7.074243763519818
20
0.9249851160606586
30
0.0
 70
     32
  0
VERTEX
  8
MY3DLAYER
10
6.484562260544067
20
0.9221633280771429
30
0.0
 70
     32
  0
VERTEX
  8
MY3DLAYER
10
6.08983121010295
20
0.9387649631041575
30
0.0
 70
     32
  0
VERTEX
  8
MY3DLAYER
10
5.802521798821321
20
0.9760306698349467
30
0.0
 70
     32
  0
VERTEX
  8
MY3DLAYER
10
5.698846473287194
20
0.9878871838831383
30
0.0
 70
     32
  0
VERTEX
  8
MY3DLAYER
10
5.623431605288871
20
0.9846963454910832
30
0.0
 70
     32
  0
VERTEX
  8
MY3DLAYER
10
5.523772667010634
20
0.9167319855718941
30
0.0
 70
     32
  0
VERTEX
  8
MY3DLAYER
10
5.349019241555549
20
0.7570785123934175
30
0.0
 70
     32
  0
VERTEX
  8
MY3DLAYER
10
5.17594756977261
20
0.5964520404984911
30
0.0
 70
     32
  0
VERTEX
  8
MY3DLAYER
10
5.067674376599813
20
0.5109739001957161
30
0.0
 70
     32
  0
VERTEX
  8
MY3DLAYER
10
5.007030630020646
20
0.48856650091421494
30
0.0
 70
     32
  0
VERTEX
  8
MY3DLAYER
10
4.952709999511141
20
0.5103962190539132
30
0.0
 70
     32
  0
VERTEX
  8
MY3DLAYER
10
4.897961430357865
20
0.5321640357672579
30
0.0
 70
     32
  0
VERTEX
  8
MY3DLAYER
10
4.8354348323510985
20
0.5086630446201925
30
0.0
 70
     32
  0
VERTEX
  8
MY3DLAYER
10
4.647101282020715
20
0.3798336650866889
30
0.0
 70
     32
  0
VERTEX
  8
MY3DLAYER
10
4.538477707123509
20
0.3031756592372352
30
0.0
 70
     32
  0
VERTEX
  8
MY3DLAYER
10
4.4442155906609075
20
0.2511350973504611
30
0.0
 70
     32
  0
VERTEX
  8
MY3DLAYER
10
4.364162111439582
20
0.22358175716648318
30
0.0
 70
     32
  0
VERTEX
  8
MY3DLAYER
10
4.298164317257918
20
0.2203856784420378
30
0.0
 70
     32
  0
VERTEX
  8
MY3DLAYER
10
4.2399726532121775
20
0.21849955180669617
30
0.0
 70
     32
  0
VERTEX
  8
MY3DLAYER
10
4.1837776868151995
20
0.20132121820020227
30
0.0
 70
     32
  0
VERTEX
  8
MY3DLAYER
10
4.127912664846312
20
0.18395436363598827
30
0.0
 70
     32
  0
VERTEX
  8
MY3DLAYER
10
4.06996873751429
20
0.1851453601798461
30
0.0
 70
     32
  0
VERTEX
  8
MY3DLAYER
10
3.9255411811022345
20
0.20132121820020227
30
0.0
 70
     32
  0
VERTEX
  8
MY3DLAYER
10
3.8539421921417474
20
0.21323721002101445
30
0.0
 70
     32
  0
VERTEX
  8
MY3DLAYER
10
3.8221310163870243
20
0.24753806769405465
30
0.0
 70
     32
  0
VERTEX
  8
MY3DLAYER
10
3.793926302887018
20
0.28010968118266505
30
0.0
 70
     32
  0
VERTEX
  8
MY3DLAYER
10
3.7464509875697933
20
0.2949102794715128
30
0.0
 70
     32
  0
VERTEX
  8
MY3DLAYER
10
3.6951804925276743
20
0.31227320378643303
30
0.0
 70
     32
  0
VERTEX
  8
MY3DLAYER
10
3.660372174166852
20
0.3607692703490056
30
0.0
 70
     32
  0
VERTEX
  8
MY3DLAYER
10
3.629109792221642
20
0.4053068553285976
30
0.0
 70
     32
  0
VERTEX
  8
MY3DLAYER
10
3.5939355021475583
20
0.4272059423683028
30
0.0
 70
     32
  0
VERTEX
  8
MY3DLAYER
10
3.560946103159176
20
0.44873840265319737
30
0.0
 70
     32
  0
VERTEX
  8
MY3DLAYER
10
3.538475295855765
20
0.5040413989733007
30
0.0
 70
     32
  0
VERTEX
  8
MY3DLAYER
10
3.5158694844891607
20
0.559991314326904
30
0.0
 70
     32
  0
VERTEX
  8
MY3DLAYER
10
3.480126552846645
20
0.5750997821436445
30
0.0
 70
     32
  0
VERTEX
  8
MY3DLAYER
10
3.4314948926834914
20
0.5850101677506299
30
0.0
 70
     32
  0
VERTEX
  8
MY3DLAYER
10
3.3932645717680763
20
0.6197731572362808
30
0.0
 70
     32
  0
VERTEX
  8
MY3DLAYER
10
3.3600475458415247
20
0.6869375804161898
30
0.0
 70
     32
  0
VERTEX
  8
MY3DLAYER
10
3.32645563963665
20
0.7940519395851741
30
0.0
 70
     32
  0
VERTEX
  8
MY3DLAYER
10
3.2863237331053416
20
0.9889607314773114
30
0.0
 70
     32
  0
VERTEX
  8
MY3DLAYER
10
3.2804819415656787
20
1.155353599629647
30
0.0
 70
     32
  0
VERTEX
  8
MY3DLAYER
10
3.2904079826656787
20
1.227433913120128
30
0.0
 70
     32
  0
VERTEX
  8
MY3DLAYER
10
3.30889233811198
20
1.2918780142524147
30
0.0
 70
     32
  0
VERTEX
  8
MY3DLAYER
10
3.3359302916054374
20
1.348516902306949
30
0.0
 70
     32
  0
VERTEX
  8
MY3DLAYER
10
3.371517061342741
20
1.3971814455558467
30
0.0
 70
     32
  0
VERTEX
  8
MY3DLAYER
10
3.449560807588481
20
1.4605100109306912
30
0.0
 70
     32
  0
VERTEX
  8
MY3DLAYER
10
3.55753890454359
20
1.5192823038052028
30
0.0
 70
     32
  0
VERTEX
  8
MY3DLAYER
10
3.6727387690690216
20
1.5630764821311685
30
0.0
 70
     32
  0
VERTEX
  8
MY3DLAYER
10
3.7724479490340443
20
1.581471031381145
30
0.0
 70
     32
  0
VERTEX
  8
MY3DLAYER
10
3.7972307254836184
20
1.5956602793925871
30
0.0
 70
     32
  0
VERTEX
  8
MY3DLAYER
10
3.6334977845481107
20
1.6269865278887965
30
0.0
 70
     32
  0
VERTEX
  8
MY3DLAYER
10
2.9041494361279847
20
1.7154998032074993
30
0.0
 70
     32
  0
VERTEX
  8
MY3DLAYER
10
2.70190044515352
20
1.7275324579281384
30
0.0
 70
     32
  0
VERTEX
  8
MY3DLAYER
10
2.493542864216597
20
1.7260075212027506
30
0.0
 70
     32
  0
VERTEX
  8
MY3DLAYER
10
2.3089431162179905
20
1.7121517548437568
30
0.0
 70
     32
  0
VERTEX
  8
MY3DLAYER
10
2.1779676895626174
20
1.6871919861677218
30
0.0
 70
     32
  0
VERTEX
  8
MY3DLAYER
10
2.0921082495743417
20
1.6560659183687967
30
0.0
 70
     32
  0
VERTEX
  8
MY3DLAYER
10
2.0044387987786814
20
1.6126724289581735
30
0.0
 70
     32
  0
VERTEX
  8
MY3DLAYER
10
1.7163771377825159
20
1.4289554804547564
30
0.0
 70
     32
  0
VERTEX
  8
MY3DLAYER
10
1.2714832675581464
20
1.1489488653830222
30
0.0
 70
     32
  0
VERTEX
  8
MY3DLAYER
10
0.8630991206132066
20
0.9332801037043811
30
0.0
 70
     32
  0
VERTEX
  8
MY3DLAYER
10
0.6556772665286125
20
0.8422278873428949
30
0.0
 70
     32
  0
VERTEX
  8
MY3DLAYER
10
0.43424132254269954
20
0.7579061573902065
30
0.0
 70
     32
  0
VERTEX
  8
MY3DLAYER
10
0.23341252714998115
20
0.6925239057518608
30
0.0
 70
     32
  0
VERTEX
  8
MY3DLAYER
10
0.08781198783665749
20
0.6582900588292548
30
0.0
 70
     32
  0
VERTEX
  8
MY3DLAYER
10
0.0
20
0.646158099809833
30
0.0
 70
     32
  0
VERTEX
  8
MY3DLAYER
10
0.0
20
0.7992513318780243
30
0.0
 70
     32
  0
VERTEX
  8
MY3DLAYER
10
0.006274839507515934
20
0.9213238268283201
30
0.0
 70
     32
  0
VERTEX
  8
MY3DLAYER
10
0.02412904498396477
20
1.061926464629177
30
0.0
 70
     32
  0
VERTEX
  8
MY3DLAYER
10
0.08875256199644393
20
1.3754678007785837
30
0.0
 70
     32
  0
VERTEX
  8
MY3DLAYER
10
0.18222456734300227
20
1.6933667353265955
30
0.0
 70
     32
  0
VERTEX
  8
MY3DLAYER
10
0.29289907732920145
20
1.9691145977694189
30
0.0
 70
     32
  0
VERTEX
  8
MY3DLAYER
10
0.35718734407705355
20
2.1153205919862126
30
0.0
 70
     32
  0
VERTEX
  8
MY3DLAYER
10
0.39755087329998223
20
2.243859002063783
30
0.0
 70
     32
  0
VERTEX
  8
MY3DLAYER
10
0.418229093901211
20
2.372520232431734
30
0.0
 70
     32
  0
VERTEX
  8
MY3DLAYER
10
0.42346163129642594
20
2.5190947530238277
30
0.0
 70
     32
  0
VERTEX
  8
MY3DLAYER
10
0.4158937397717657
20
2.658361106065321
30
0.0
 70
     32
  0
VERTEX
  8
MY3DLAYER
10
0.3935201406341772
20
2.7907772311029206
30
0.0
 70
     32
  0
VERTEX
  8
MY3DLAYER
10
0.3539099091922603
20
2.9264358118066043
30
0.0
 70
     32
  0
VERTEX
  8
MY3DLAYER
10
0.2946322517629221
20
3.0754297283588463
30
0.0
 70
     32
  0
VERTEX
  8
MY3DLAYER
10
0.20145069183905956
20
3.3309170246918955
30
0.0
 70
     32
  0
VERTEX
  8
MY3DLAYER
10
0.13229566289679037
20
3.609811706734699
30
0.0
 70
     32
  0
VERTEX
  8
MY3DLAYER
10
0.11103871308728051
20
3.775132140863495
30
0.0
 70
     32
  0
VERTEX
  8
MY3DLAYER
10
0.09444664166687716
20
3.9940263926321182
30
0.0
 70
     32
  0
VERTEX
  8
MY3DLAYER
10
0.0859470190433384
20
4.206980465620459
30
0.0
 70
     32
  0
VERTEX
  8
MY3DLAYER
10
0.08896735012026476
20
4.354480232400098
30
0.0
 70
     32
  0
VERTEX
  8
MY3DLAYER
10
0.10052156249372751
20
4.466556007267294
30
0.0
 70
     32
  0
VERTEX
  8
MY3DLAYER
10
0.20624258278446092
20
4.453268685964264
30
0.0
 70
     32
  0
VERTEX
  8
MY3DLAYER
10
0.34138983805523054
20
4.4259763798374445
30
0.0
 70
     32
  0
VERTEX
  8
MY3DLAYER
10
0.4919283425793164
20
4.375755261356358
30
0.0
 70
     32
  0
VERTEX
  8
MY3DLAYER
10
0.6585032467780378
20
4.302236345616612
30
0.0
 70
     32
  0
VERTEX
  8
MY3DLAYER
10
0.8417597665768695
20
4.205050647713817
30
0.0
 70
     32
  0
VERTEX
  8
MY3DLAYER
10
1.0423430523971342
20
4.083829182743602
30
0.0
 70
     32
  0
VERTEX
  8
MY3DLAYER
10
1.260898451172614
20
3.938203031305721
30
0.0
 70
     32
  0
VERTEX
  8
MY3DLAYER
10
1.754506058266192
20
3.572260532896979
30
0.0
 70
     32
  0
VERTEX
  8
MY3DLAYER
10
2.0797535764283617
20
3.330606010964568
30
0.0
 70
     32
  0
VERTEX
  8
MY3DLAYER
10
2.2063364254664233
20
3.251775952843762
30
0.0
 70
     32
  0
VERTEX
  8
MY3DLAYER
10
2.319063573649647
20
3.196804800572232
30
0.0
 70
     32
  0
VERTEX
  8
MY3DLAYER
10
2.42556343834179
20
3.1625881157382016
30
0.0
 70
     32
  0
VERTEX
  8
MY3DLAYER
10
2.5334646989232352
20
3.146021459929895
30
0.0
 70
     32
  0
VERTEX
  8
MY3DLAYER
10
2.650395903766049
20
3.144000460239666
30
0.0
 70
     32
  0
VERTEX
  8
MY3DLAYER
10
2.783985732250617
20
3.153420612751604
30
0.0
 70
     32
  0
VERTEX
  8
MY3DLAYER
10
3.286496467561737
20
3.2239398312232073
30
0.0
 70
     32
  0
VERTEX
  8
MY3DLAYER
10
3.424342886076188
20
3.2494006810896456
30
0.0
 70
     32
  0
VERTEX
  8
MY3DLAYER
10
3.5145233175450463
20
3.2660574100149473
30
0.0
 70
     32
  0
SEQEND
 0
ENDSEC
 0
EOF
