<?xml version="1.0"?>
<svg 
  xmlns="http://www.w3.org/2000/svg" 
  xmlns:xlink="http://www.w3.org/1999/xlink" version="1.1" preserveAspectRatio="xMinYMin meet" viewBox="0 -4.9986271955717765 12.574332879303773 5.141315195571769" width="100%" height="100%">
  <path fill="none" stroke="#000000" stroke-width="1%" d="M3.5145233175450463,-3.2660574100149473L3.8492834056390417,-3.327889095132999L3.9822947014277905,-3.3628784669778815L4.005398999412961,-3.3838892521733914L3.9274814796736575,-3.3870098701114264L3.75742751880145,-3.368328805688049L3.590343778327693,-3.3500305475457304L3.550894818115065,-3.354635555137285L3.5222994378354118,-3.368328805688049L3.475045919586576,-3.385665200820241L3.4206224475539164,-3.387393265929883L3.3878984058969217,-3.3860366093783587L3.358136855148105,-3.3943825592545704L3.28370507350608,-3.450941401231851L3.223720953766466,-3.5181133573895744L3.205136507971522,-3.5745713884725023L3.1990233982223772,-3.614961184861538L3.1843389388001184,-3.6392749515622356L3.1725587370923507,-3.6669936242331076L3.1762510097899392,-3.7207321193182827L3.187805156659248,-3.8599602834374855L3.198616551916477,-3.924718804513154L3.241532254021476,-3.9755023416679607L3.279149390543145,-4.016718603978997L3.279083427859191,-4.047716087121912L3.2654278421974805,-4.076907751723359L3.2651144048164253,-4.104700902618317L3.3091243538285333,-4.17539003886765L3.3431771472670753,-4.231816365939631L3.3564965656059904,-4.288621241522613L3.3694437238327786,-4.342747259187998L3.4090682351804578,-4.390298297308254L3.4513995092156984,-4.438262077108347L3.480126552846645,-4.491397540943784L3.5093560133454544,-4.539238172932722L3.561006039460885,-4.566499888619211L3.607535081756851,-4.589466955399935L3.63321978491484,-4.61907155819368L3.654460162173166,-4.650136510616115L3.695522882745181,-4.678529876082153L3.7526618950221518,-4.702324391347192L3.8221310163870243,-4.719593120687408L3.8845389863693196,-4.737473920850731L3.9290074644655233,-4.761188259030213L3.97552484702192,-4.78381745538011L4.042816348262276,-4.799317114009733L4.109046289168802,-4.813781806992405L4.153159014199906,-4.833979751130124L4.201120435850425,-4.8551742099758854L4.276211320298751,-4.872108606109644L4.3498352391987565,-4.8890270847337645L4.394641915246555,-4.910237526593316L4.421226842004929,-4.922559513166017L4.460893669036654,-4.921653263183386L4.5679549698401924,-4.881929709553539L4.59970489921011,-4.8697209141604585L4.641551770020082,-4.897558083847483L4.722762445641346,-4.893856509559907L4.824635686370832,-4.874803774561792L4.919780536824472,-4.84380085457402L4.995126035922786,-4.817878895367094L5.032434058337621,-4.82300328540262L5.05692979558055,-4.838072647238898L5.091696125778096,-4.839267639536203L5.220189862022044,-4.796428577292407L5.297274365423863,-4.769839589276434L5.3420532677099954,-4.783932873700991L5.379789294272759,-4.7812511991047435L5.528687116229801,-4.7224816574047335L5.643309561630048,-4.674284355292526L5.733196590084691,-4.647379309729305L5.838907457231424,-4.605400841072193L5.9914330302935035,-4.520860785771321L6.13488385425229,-4.438467432633864L6.2161124125078375,-4.409424462463974L6.24147247707428,-4.4333555538919205L6.217317754461607,-4.509884320043818L6.207496716521858,-4.569966171982501L6.249990244348719,-4.566135947534757L6.335170668267607,-4.539925246013159L6.421140810277621,-4.513301213274333L6.4743242886585675,-4.509373387635825L6.498226230737598,-4.528809452948248L6.496351829345978,-4.572277027558029L6.473243404599052,-4.667021516617097L6.491370762401314,-4.705148471976128L6.610160713142728,-4.623115522698768L6.696023952371989,-4.560548508628452L6.725019432029598,-4.547713886539731L6.759504159865363,-4.560621611265285L6.76674001082898,-4.5870357686919085L6.76556480078644,-4.681464265707888L6.762757947750247,-4.768334565814126L6.769608765291534,-4.804516506302583L6.898438144825041,-4.6999509793037655L6.985417312836677,-4.626443985320209L7.033044663297354,-4.595963133446752L7.051078939695544,-4.6150469174142845L7.064910666029701,-4.6634140718000685L7.072052715043549,-4.727738889866337L7.0700180904891115,-4.794695468362841L7.09378109825566,-4.858015387189245L7.140842558322414,-4.8279360102809905L7.215601074688934,-4.755411185595562L7.316700383828616,-4.6491124841630205L7.358873203313226,-4.691285303647633L7.380511387304083,-4.7167745424074825L7.3918531697033005,-4.743874397327293L7.390647303716295,-4.835135178917882L7.414911090746821,-4.918325455603492L7.465810832272372,-4.865623301752531L7.5391188246334355,-4.765232223535304L7.6060190040525955,-4.67469997915518L7.629038736173826,-4.655653860076703L7.65895939651482,-4.672721033132384L7.667757063043028,-4.709922087262317L7.677769307610837,-4.844378535715821L7.684302888530093,-4.964455774108763L7.6968337023485125,-4.9986271955717765L7.721675236025011,-4.98187359090546L7.845305288769823,-4.809715898595435L7.918295454971457,-4.704870734359474L7.955647889203291,-4.690707622505824L7.978067079232662,-4.727529080058286L7.9995671149609,-4.791596728812538L8.022084626726743,-4.936234488057571L8.054835066558155,-4.978458007758043L8.099549054226806,-4.909318437796326L8.166512183138801,-4.77620875476696L8.244677177575198,-4.622039551450865L8.28725363366212,-4.557834278467233L8.304060362198038,-4.577369713582591L8.322685813593928,-4.624949115001904L8.344446948883483,-4.738079834283288L8.380391043785599,-4.817118916162286L8.398173980741555,-4.78487436491894L8.479552150486823,-4.581853997016722L8.517182256831155,-4.5104620011856165L8.554207694321887,-4.5225107044242066L8.566606386259936,-4.560770109184379L8.57148703533519,-4.6138721659008315L8.59283097466237,-4.652129278015589L8.65756584873812,-4.472333146206102L8.714181482817677,-4.296131489390982L8.953931209430616,-4.236049637452298L9.520459941346592,-4.090426106180614L10.005299620798278,-3.9349340464569127L10.212700382545005,-3.8550567079080325L10.39441598260467,-3.774595661835106L10.548692154205666,-3.6941786345542478L10.673774696080573,-3.614433417885743L10.998675107726076,-3.398985143192394L11.56864785159269,-3.0604092981262525L12.1604671481668,-2.710018206629485L12.280429819792872,-2.6295848688140664L12.350867551095817,-2.5699332481645727L12.408706999300806,-2.50376291603898L12.419621498097808,-2.451498526455013L12.406528724134736,-2.4271838426961447L12.380560912019412,-2.402269140878664L12.288474843581602,-2.345203951784233L12.199515812489008,-2.2923417057787634L12.312160949470336,-2.2926323477139214L12.486111228482546,-2.3334266322592807L12.51895946601719,-2.3293855499370064L12.542089638143532,-2.3111190613098005L12.566420501428652,-2.27215149113132L12.574332879303773,-2.2226576652817545L12.566887742565347,-2.1650701460563875L12.545145668984858,-2.101821299238021L12.510167563854619,-2.035343687121933L12.463014201458572,-1.9680697409950794L12.404746356080723,-1.902432023152738L12.336424802005018,-1.8408628993777187L12.240302236535777,-1.771134185047093L12.126102882471836,-1.7016796711087554L11.847984097143483,-1.5649104674592345L11.511089088691305,-1.4331898000338983L11.12443856529087,-1.3091523114457941L10.6970532351177,-1.1954323822913544L10.237953806347319,-1.0946645896794687L9.75616092165113,-1.0094834452148767L9.260695354708794,-0.9425234605023204L9.188647203758366,-0.9255826449613852L9.127957276750012,-0.8867515199374983L9.067632993934156,-0.8161577577376515L8.996681775561184,-0.7039291616771488L8.912108837174564,-0.5714711794845889L8.817283188467602,-0.4441222593553146L8.71418633012514,-0.3237560166310864L8.604799566319539,-0.21224626316613263L8.491104332231489,-0.11146667980636897L8.3750819975375,-0.023291012901870654L8.258713866409956,0.05040705670144692L8.143981439533675,0.10775378265351043L8.076774962686336,0.13400490023866082L8.031588100523669,0.14268799999999243L7.997969730640226,0.13375958717867098L7.965468992647185,0.10717603600755195L7.938581764214094,0.07001271227082356L7.927340137667661,0.03380686276584052L7.919053338043297,0.0018691329839101679L7.899032320627892,-0.025119561385083436L7.878722298881186,-0.05254824716234178L7.870146822446306,-0.08520147882792133L7.861244545782786,-0.12478917684056368L7.839528149831011,-0.16896943665533495L7.817836186929004,-0.22033628830926622L7.836061866467723,-0.28797777824909704L7.853318412035138,-0.35280383410843635L7.8481938254871455,-0.4040975176213761L7.841633256856087,-0.45357562247376965L7.852237789992234,-0.511551646841675L7.863564768452453,-0.5616622598134974L7.861481146790178,-0.5935864957395229L7.8597055256641015,-0.6190277854580108L7.872243151914633,-0.654314087636921L7.894131299760478,-0.6892775853406305L7.920407570941099,-0.7137501996168932L7.93870209534658,-0.7344085069550406L7.946404532405348,-0.7628555858280717L7.958312794735891,-0.8013056731830757L7.995780254263682,-0.8374345553060882L8.061420395759756,-0.8729585720630256L8.157846507482663,-0.9095939978156492L8.297074671601864,-0.9558107818053475L7.946404532405348,-0.9459897438656039L7.074243763519818,-0.9249851160606586L6.484562260544067,-0.9221633280771429L6.08983121010295,-0.9387649631041575L5.802521798821321,-0.9760306698349467L5.698846473287194,-0.9878871838831383L5.623431605288871,-0.9846963454910832L5.523772667010634,-0.9167319855718941L5.349019241555549,-0.7570785123934175L5.17594756977261,-0.5964520404984911L5.067674376599813,-0.5109739001957161L5.007030630020646,-0.48856650091421494L4.952709999511141,-0.5103962190539132L4.897961430357865,-0.5321640357672579L4.8354348323510985,-0.5086630446201925L4.647101282020715,-0.3798336650866889L4.538477707123509,-0.3031756592372352L4.4442155906609075,-0.2511350973504611L4.364162111439582,-0.22358175716648318L4.298164317257918,-0.2203856784420378L4.2399726532121775,-0.21849955180669617L4.1837776868151995,-0.20132121820020227L4.127912664846312,-0.18395436363598827L4.06996873751429,-0.1851453601798461L3.9255411811022345,-0.20132121820020227L3.8539421921417474,-0.21323721002101445L3.8221310163870243,-0.24753806769405465L3.793926302887018,-0.28010968118266505L3.7464509875697933,-0.2949102794715128L3.6951804925276743,-0.31227320378643303L3.660372174166852,-0.3607692703490056L3.629109792221642,-0.4053068553285976L3.5939355021475583,-0.4272059423683028L3.560946103159176,-0.44873840265319737L3.538475295855765,-0.5040413989733007L3.5158694844891607,-0.559991314326904L3.480126552846645,-0.5750997821436445L3.4314948926834914,-0.5850101677506299L3.3932645717680763,-0.6197731572362808L3.3600475458415247,-0.6869375804161898L3.32645563963665,-0.7940519395851741L3.2863237331053416,-0.9889607314773114L3.2804819415656787,-1.155353599629647L3.2904079826656787,-1.227433913120128L3.30889233811198,-1.2918780142524147L3.3359302916054374,-1.348516902306949L3.371517061342741,-1.3971814455558467L3.449560807588481,-1.4605100109306912L3.55753890454359,-1.5192823038052028L3.6727387690690216,-1.5630764821311685L3.7724479490340443,-1.581471031381145L3.7972307254836184,-1.5956602793925871L3.6334977845481107,-1.6269865278887965L2.9041494361279847,-1.7154998032074993L2.70190044515352,-1.7275324579281384L2.493542864216597,-1.7260075212027506L2.3089431162179905,-1.7121517548437568L2.1779676895626174,-1.6871919861677218L2.0921082495743417,-1.6560659183687967L2.0044387987786814,-1.6126724289581735L1.7163771377825159,-1.4289554804547564L1.2714832675581464,-1.1489488653830222L0.8630991206132066,-0.9332801037043811L0.6556772665286125,-0.8422278873428949L0.43424132254269954,-0.7579061573902065L0.23341252714998115,-0.6925239057518608L0.08781198783665749,-0.6582900588292548L0,-0.646158099809833L0,-0.7992513318780243L0.006274839507515934,-0.9213238268283201L0.02412904498396477,-1.061926464629177L0.08875256199644393,-1.3754678007785837L0.18222456734300227,-1.6933667353265955L0.29289907732920145,-1.9691145977694189L0.35718734407705355,-2.1153205919862126L0.39755087329998223,-2.243859002063783L0.418229093901211,-2.372520232431734L0.42346163129642594,-2.5190947530238277L0.4158937397717657,-2.658361106065321L0.3935201406341772,-2.7907772311029206L0.3539099091922603,-2.9264358118066043L0.2946322517629221,-3.0754297283588463L0.20145069183905956,-3.3309170246918955L0.13229566289679037,-3.609811706734699L0.11103871308728051,-3.775132140863495L0.09444664166687716,-3.9940263926321182L0.0859470190433384,-4.206980465620459L0.08896735012026476,-4.354480232400098L0.10052156249372751,-4.466556007267294L0.20624258278446092,-4.453268685964264L0.34138983805523054,-4.4259763798374445L0.4919283425793164,-4.375755261356358L0.6585032467780378,-4.302236345616612L0.8417597665768695,-4.205050647713817L1.0423430523971342,-4.083829182743602L1.260898451172614,-3.938203031305721L1.754506058266192,-3.572260532896979L2.0797535764283617,-3.330606010964568L2.2063364254664233,-3.251775952843762L2.319063573649647,-3.196804800572232L2.42556343834179,-3.1625881157382016L2.5334646989232352,-3.146021459929895L2.650395903766049,-3.144000460239666L2.783985732250617,-3.153420612751604L3.286496467561737,-3.2239398312232073L3.424342886076188,-3.2494006810896456L3.5145233175450463,-3.2660574100149473"/>
</svg>