<?xml version="1.0"?>
<svg 
  xmlns="http://www.w3.org/2000/svg" 
  xmlns:xlink="http://www.w3.org/1999/xlink" version="1.1" preserveAspectRatio="xMinYMin meet" viewBox="-1.2957727685185532 -98.74295322209973 93.84565051058794 99.5592450165442" width="100%" height="100%">
  <path fill="none" stroke="#000000" stroke-width="1%" d="M32.9304439444583,-54.49547976847681L33.459084462325194,-55.25298823760239L33.9363009736296,-56.000627876717566L34.359452372260385,-56.732922120825776L34.72589755210644,-57.44439440493051L35.032995407056674,-58.12956816403527L35.278104830999965,-58.78296683314349L35.45858471782519,-59.39911384725864L35.57179396142126,-59.97253264138423L35.615091455677046,-60.49774665052368L35.585836094481444,-60.969279309680516L35.53282724801037,-61.31571330733474L35.47857279171293,-61.60140318624767L35.41032037601269,-61.82897810284458L35.31531765133331,-62.00106721355092L35.18081226809834,-62.120299674791944L34.99405187673144,-62.18930464299302L34.742284127656205,-62.210711274579545L34.412756671296265,-62.18714872597682L33.99271715807519,-62.121246153610194L33.46941323841663,-62.01563271390505L32.83009256274418,-61.872937563286705L32.062002781481446,-61.69578985818052L31.433513398080112,-61.551920955519044L30.880430875645793,-61.42948882868055L30.388372781458006,-61.32674631088365L29.942956682796268,-61.241946235347186L29.52980014694007,-61.1733414352899L29.13452074116895,-61.11918474393052L28.742736032762405,-61.07772899448781L28.340063588999968,-61.04722702018053L27.91212097716113,-61.02593165422739L27.444525764525423,-61.012095729847196L26.922895518372357,-61.00397208025865L26.332847805981444,-60.99981353868052L25.80683217997103,-60.99898422515275L25.337482104523108,-61.00168000829165L24.919517792762697,-61.00835793993052L24.54765945781478,-61.019475071902775L24.21662731280436,-61.03548845604164L23.92114157085644,-61.056855144180524L23.655922445096024,-61.08403218815274L23.41569014864811,-61.117476639791626L23.195164894637696,-61.15764555093052L22.989066896189783,-61.20499597340274L22.792116366429365,-61.259984959041624L22.59903351848144,-61.32306955968052L22.302973860556968,-61.43928344144903L22.022928908585612,-61.57491983362034L21.760753201895508,-61.727989922367996L21.518301279814782,-61.89650489386573L21.297427681671547,-62.078475934287L21.099986946793948,-62.27191422980552L20.92783361451009,-62.474830966594865L20.782822224148113,-62.68523733082867L20.66680731503613,-62.90114450868051L20.58164342650227,-63.12056368632402L20.529185097874674,-63.341506049932825L20.51128686848144,-63.56198278568051L20.544604694358753,-64.01183289604943L20.640383476791637,-64.53836705038192L20.792361172981444,-65.12710194576646L20.99427574012959,-65.76355427929164L21.239865135437466,-66.43324074804598L21.522867316106442,-67.12167804911802L21.837020239337928,-67.81438287959632L22.1760618623333,-68.49687193656942L22.533730142293948,-69.15466191712584L22.903763036421264,-69.77326951835411L23.27989850191663,-70.33821143734284L23.655874495981447,-70.83500437118052L23.783507812276007,-70.99342954898374L23.904994857296263,-71.14830723931476L24.01925595862207,-71.29803897343051L24.125211443833294,-71.44102628258796L24.221781640509803,-71.57567069804394L24.30788687623144,-71.7003737510555L24.382447478578086,-71.81353697287959L24.4443837751296,-71.91356189477311L24.492616093465813,-71.99885004799302L24.526064761166626,-72.06780296379625L24.543650105811885,-72.11882217343977L24.544292454981445,-72.1503092081805L24.484733753799155,-72.19847094082807L24.36540468410645,-72.20977988623606L24.19654180705956,-72.1883098564774L23.988381683814787,-72.13813466362498L23.751160875528324,-72.0633281197517L23.495115943356446,-71.96796403693052L23.230483448455406,-71.85611622723434L22.96749995198145,-71.73185850273607L22.716402015090818,-71.59926467550864L22.487426198939776,-71.46240855762495L22.29080906468457,-71.32536396115795L22.136787173481444,-71.19220469818052L22.039689527651586,-71.09848466203582L21.945922533550892,-71.01643882131481L21.853692850637692,-70.94539535483676L21.761207138370338,-70.88468244142128L21.666672056207144,-70.8336282598877L21.568294263606454,-70.79156098905551L21.46428042002658,-70.75780880774418L21.352837184925892,-70.7316998947731L21.232171217762694,-70.71256242896177L21.100489177995335,-70.69972458912959L20.95599772508214,-70.69251455409602L20.796903518481447,-70.69026050268052L20.546018493122062,-70.69988875239434L20.316594778398112,-70.72873436451619L20.108699997840827,-70.77673863351646L19.922401774981452,-70.84384285386572L19.757767733351233,-70.92998832003441L19.614865496481446,-71.03511632649302L19.49376268790331,-71.15916816771205L19.394526931148114,-71.30208513816203L19.31722584974707,-71.46380853231334L19.261927067231447,-71.64427964463654L19.22869820713249,-71.84343976960211L19.21760689298144,-72.06123020168052L19.220948750219,-72.27106303516372L19.231659261006907,-72.45864945371295L19.25076583395801,-72.6260381529774L19.27929587768515,-72.77527782860646L19.31827680080118,-72.90841717624937L19.36873601191894,-73.02750489155552L19.43170091965129,-73.13458967017415L19.508198932611077,-73.23172020775459L19.599257459411135,-73.32094519994615L19.705903908664315,-73.40431334239811L19.829165688983466,-73.4838733307598L19.970070208981443,-73.56167386068051L20.13489088067617,-73.64122310879627L20.293707549539313,-73.7060589976898L20.44721168448926,-73.75617432893053L20.596094754444415,-73.79156190408794L20.741048228323173,-73.81221452473144L20.882763575043946,-73.81812499243054L21.021932263525137,-73.80928610875458L21.159245762685153,-73.78569067527312L21.295395541442385,-73.7473314935555L21.43107306871524,-73.69420136517125L21.566969813422123,-73.62629309168979L21.703777244481447,-73.54359947468052L21.790525945032364,-73.48959521760675L21.873391257222185,-73.4444869910486L21.95413937710644,-73.40813767800083L22.034536500740707,-73.3804101614583L22.11634882418052,-73.36116732441579L22.201342543481438,-73.35027204986802L22.291283854699028,-73.34758722080986L22.38793895388885,-73.35297572023609L22.49307403710645,-73.36630043114145L22.608455300407368,-73.38742423652079L22.735848939847184,-73.4162100193689L22.877021151481443,-73.45252066268053L23.100276491529186,-73.51809098309316L23.296614981280065,-73.58748780777314L23.466320117145507,-73.66103760300865L23.609675395537007,-73.73906683508795L23.726964312866,-73.82190197029915L23.818470365543945,-73.90986947493052L23.884477049982312,-74.0032958152702L23.925267862592555,-74.10250745760645L23.94112629978613,-74.20783086822739L23.932335857974497,-74.31959251342126L23.899180033569117,-74.43811885947622L23.84194232298145,-74.56373637268051L23.795466547818826,-74.64523434524996L23.748035336222188,-74.7136171071944L23.695901667403326,-74.76956293111803L23.635318520574042,-74.81375008962499L23.562538874946146,-74.8468568553194L23.473815709731447,-74.8695615008055L23.365402004141743,-74.88254229868745L23.233550737388853,-74.8864775215694L23.074514888684572,-74.88204544205551L22.884547437240702,-74.86992433274996L22.659901362269057,-74.8507924662569L22.396829642981444,-74.82532811518053L22.208373268148403,-74.80409739807025L22.02585147785876,-74.77886134371526L21.850129463801753,-74.74986015607895L21.682072417666635,-74.71733403912499L21.52254553114262,-74.68152319681681L21.37241399591894,-74.64266783311801L21.232543003684864,-74.60100815199215L21.103797746129594,-74.55678435740275L20.987043414942384,-74.51023665331331L20.88314520181246,-74.46160524368747L20.79296829842907,-74.41113033248867L20.717377896481445,-74.35905212368051L20.638633841815356,-74.30293001258562L20.55361477844441,-74.25206991542126L20.46201749430957,-74.20639905236801L20.36353877735182,-74.16584464360646L20.25787541551212,-74.13033390931709L20.144724196731445,-74.09979406968051L20.023781908950777,-74.07415234487728L19.89474534011108,-74.05333595508792L19.75731127815332,-74.03727212049301L19.61117651101849,-74.02588806127311L19.45603782664754,-74.01911099760878L19.291592012981447,-74.01686814968052L19.044577042232593,-74.02026537153179L18.831307120657375,-74.03260903474072L18.648013365387694,-74.0571271357899L18.490926893555528,-74.09704767116202L18.356278822292794,-74.15559863733965L18.24030026873145,-74.23600803080552L18.139222350003436,-74.34150384804221L18.049276183240707,-74.47531408553236L17.966692885575196,-74.64066673975866L17.887703574138854,-74.84078980720368L17.80853936606362,-75.07891128435008L17.725431378481442,-75.35825916768052L17.665076471782076,-75.7082619433133L17.682970996053207,-76.03945717715972L17.770056480723635,-76.34580875964146L17.917274455222188,-76.62128058118054L18.115566448977688,-76.85983653219876L18.355873991418946,-77.05544050311802L18.62913861197478,-77.2020563843602L18.92630184007404,-77.29364806634719L19.238305205145505,-77.32417943950082L19.556090236618015,-77.28761439424304L19.870598463920388,-77.1779168209956L20.17277141648145,-76.9890506101805L20.239951880450192,-76.93995374408472L20.31666596718978,-76.89052090191433L20.4015372824502,-76.84133830221957L20.493189431981445,-76.79299216355092L20.59024602153353,-76.7460687044586L20.691330656856447,-76.70115414349301L20.795066943700196,-76.65883469920452L20.90007848781478,-76.61969659014349L21.0049888949502,-76.58432603486021L21.108421770856445,-76.55330925190505L21.20900072128353,-76.52723245982838L21.305349351981445,-76.50668187718051L21.716292780325478,-76.44868406075227L22.0696305474421,-76.43732530275462L22.363821949083004,-76.46935569611803L22.597326280999972,-76.54152533377312L22.768602838944695,-76.65058430865042L22.876110918668946,-76.79328271368053L22.918309815924438,-76.96637064179393L22.893658826462932,-77.16659818592126L22.800617246036133,-77.39071543899303L22.637644370395797,-77.63547249393977L22.403199495293656,-77.8976194436921L22.095741916481444,-78.17390638118052L21.979086309052907,-78.26621667293401L21.855291941886545,-78.35810591470832L21.726152938911135,-78.44853855114927L21.59346342405552,-78.53647902690275L21.459017521248512,-78.62089178661455L21.32460935441895,-78.70074127493054L21.192033047495624,-78.77499193649649L21.06308272440737,-78.8426082159583L20.939552509083008,-78.90255455796176L20.823236525451353,-78.95379540715273L20.71592889744123,-78.99529520817704L20.619423748981447,-79.0260184056805L20.428699438428488,-79.08756035290041L20.258809862182837,-79.16124248235647L20.10961475998926,-79.24730119749302L19.98097387159256,-79.3459729017546L19.87274693673752,-79.4574939985856L19.784793695168943,-79.58210089143051L19.716973886631617,-79.72002998373377L19.66914725087034,-79.8715176789398L19.641173527629885,-80.036800380493L19.632912456655056,-80.21611449183791L19.64422377769064,-80.40969641641892L19.674967230481442,-80.61778255768051L19.73092556353758,-80.8554832257656L19.805842724263854,-81.07428342973608L19.899314712872066,-81.27384595416488L20.010937529574043,-81.45383358362497L20.140307174581558,-81.61390910268919L20.287019648106444,-81.7537352959305L20.450670950360493,-81.87297494792183L20.63085708155552,-81.97129084323609L20.827174041903323,-82.04834576644615L21.0392178316157,-82.10380250212496L21.266584450904478,-82.13732383484545L21.50886989998144,-82.1485725491805L21.736640719149552,-82.14038334083966L21.941777928826355,-82.11495285812033L22.125579228020513,-82.07098681447741L22.289342315740704,-82.00719092336571L22.43436489099562,-81.92227089824013L22.561944652793944,-81.81493245255552L22.673379300144347,-81.68388129976674L22.76996653205552,-81.52782315332865L22.853004047536132,-81.34546372669614L22.92378954559487,-81.13550873332403L22.983620725240417,-80.8966638866672L23.033795285481443,-80.6276349001805L23.058151527749967,-80.50260084022649L23.090819008087927,-80.38095381404858L23.132539523793945,-80.26156732304769L23.184054872166627,-80.14331486862498L23.246106850504596,-80.02506995218141L23.319437256106443,-79.90570607511803L23.404787886270803,-79.7840967388359L23.502900538296267,-79.65911544473609L23.614517009481446,-79.52963569421958L23.740379097124958,-79.39453098868746L23.881228598525425,-79.25267482954075L24.037807310981442,-79.1029407181805L24.161185115061016,-78.98998168229686L24.28475595495135,-78.88151875994441L24.40708792262988,-78.77856720632113L24.52674911007404,-78.68214227662499L24.64230760926125,-78.59325922605379L24.75233151216895,-78.5129333098055L24.855388910774565,-78.44217978307807L24.95004789705552,-78.38201390106943L25.034876562989258,-78.33345091897738L25.108443000553205,-78.29750609199995L25.16931530172479,-78.27519467533502L25.216061558481446,-78.2675319241805L25.35591525273491,-78.30088792785266L25.447953042175882,-78.39592380743287L25.494669415825193,-78.54509136576647L25.498558862703675,-78.74084240569904L25.462115871832133,-78.97562873007605L25.387834932231442,-79.241902141743L25.27821053292241,-79.53211444354538L25.13573716292589,-79.83871743832869L24.962909311262692,-80.15416292893832L24.76222146695366,-80.47090271821986L24.53616811901964,-80.78138860901876L24.287243756481445,-81.07807240418052L24.156383059338204,-81.22532716796259L24.04476277025228,-81.35705853322911L23.951329834989263,-81.4758687981102L23.875031199314787,-81.58436026073608L23.814813808994465,-81.68513521923694L23.769624609793944,-81.78079597174302L23.73841054747884,-81.87394481638451L23.720118567814783,-81.96718405129164L23.71369561656738,-82.06311597459457L23.718088639502277,-82.16434288442358L23.73224458238509,-82.27346707890882L23.755110390981443,-82.39309085618052L23.796805144245038,-82.57205467341343L23.842377549923576,-82.73195274154395L23.893926995848634,-82.87525354259458L23.95355286985182,-83.00442555858795L24.023354559764726,-83.12193727154654L24.105431453418948,-83.23025716349302L24.201882938646087,-83.3318537164499L24.31480840327775,-83.42919541243977L24.446307235145508,-83.52475073348518L24.59847882208098,-83.62098816160876L24.773422551915758,-83.72037617883299L24.973237812481443,-83.82538326718051L25.238033006950186,-83.95009729852627L25.492337342606444,-84.04831343890507L25.737125226950187,-84.11993276082896L25.97337106748145,-84.16485633681016L26.202049271700186,-84.18298523936078L26.42413424710644,-84.17422054099303L26.640600401200192,-84.138463314219L26.852422141481444,-84.07561463155092L27.060573875450192,-83.98557556550084L27.266030010606443,-83.86824718858098L27.469764954450195,-83.72353057330348L27.672753114481445,-83.5513267921805L27.80791190889464,-83.42484034618889L27.924498839787002,-83.30923513562264L28.023730374012693,-83.20205567346956L28.106822978425903,-83.10084647271758L28.174993119880753,-83.00315204635442L28.229457265231442,-82.90651690736803L28.271431881332138,-82.80848556874619L28.302133435037,-82.70660254347682L28.322778393200192,-82.5984123445477L28.334583222675878,-82.48145948494671L28.33876439031824,-82.35328847766169L28.33653836298144,-82.21144383568051L28.33060002076674,-82.11039499969526L28.319604562805516,-82.00344404971526L28.303940350247064,-81.89212725645395L28.28399574424071,-81.77798089062497L28.260159105935728,-81.66254122294183L28.232818796481446,-81.54734452411802L28.202363177027156,-81.43392706486715L28.16918060872218,-81.32382511590274L28.13365945271582,-81.21857494793834L28.096188070157368,-81.11971283168748L28.057154822196143,-81.02877503786367L28.016948069981442,-80.94729783718053L27.91593368201124,-80.73138537368861L27.83622910051154,-80.50397122487036L27.777707312473634,-80.26724544046179L27.74024130488886,-80.02339807019906L27.72370406474851,-79.77461916381824L27.727968579043942,-79.52309877105553L27.752907834766457,-79.27102694164695L27.79839481890737,-79.02059372532868L27.864302518458004,-78.77398917183675L27.950503920409684,-78.53340333090736L28.05687201175372,-78.30102625227657L28.183279779481442,-78.07904798568052L28.27815197722826,-77.93217416956969L28.365304219580977,-77.80571688029394L28.446944942833,-77.69821894256334L28.525282583277736,-77.60822318108795L28.602525577208585,-77.53427242057778L28.680882360918943,-77.47490948574301L28.762561370702223,-77.42867720129365L28.849771042851813,-77.39411839193978L28.944719813661134,-77.36977588239147L29.049616119423572,-77.35419249735875L29.166668396432545,-77.34591106155175L29.298085080981444,-77.34347439968052L29.571403779100073,-77.35228292164724L29.82793312263886,-77.37841488633096L30.066907376122074,-77.42142989190708L30.287560804074047,-77.48088753655091L30.489127671019062,-77.55634741843777L30.67084224148144,-77.64736913574302L30.831938779985496,-77.75351228664202L30.97165155105552,-77.87433646931017L31.089214819215822,-78.00940128192269L31.183862848990703,-78.15826632265505L31.25482990490448,-78.32049118968256L31.301350251481445,-78.49563548118051L31.437612453166913,-78.92482739139463L31.663234373465247,-79.29043782493517L31.962539841239256,-79.59048162539929L32.319852685351826,-79.82297363638425L32.71949673466577,-79.98592870148725L33.145795818043936,-80.07736166430553L33.5830737643492,-80.09528736843635L34.015654402444405,-80.03772065747681L34.42786156119239,-79.90267637502428L34.80401906945597,-79.6881693646759L35.12845075609806,-79.3922144700289L35.38548044998144,-79.01282653468054L35.55243151029597,-78.62690540837322L35.64698854387265,-78.25967816480552L35.671453455036136,-77.91396329513364L35.62812814811108,-77.59257929051388L35.51931452742213,-77.2983446421024L35.34731449729394,-77.03407784105552L35.114429962051176,-76.80259737852948L34.82296282601848,-76.60672174568053L34.4752149935205,-76.44926943366491L34.073488368881904,-76.33305893363884L33.62008485642733,-76.26090873675864L33.11730636048144,-76.23563733418052L32.844189241459155,-76.21889162170277L32.56866409946987,-76.17032527848379L32.29240360675488,-76.09105832259456L32.01708043555553,-75.98221077210644L31.744367258113098,-75.84490264509054L31.47593674666894,-75.68025395961803L31.21346157346437,-75.48938473376009L30.958614410740704,-75.27341498558792L30.713067930739257,-75.0334647331727L30.478494805701352,-74.7706539945856L30.256567707868307,-74.48610278789782L30.04895930948144,-74.18093113118051L29.945603158626113,-73.98193098575574L29.85472606922218,-73.73646779419906L29.77711013813769,-73.45478017921177L29.713537462240705,-73.14710676349536L29.664790138399265,-72.8236861697511L29.63165026348144,-72.49475702068052L29.614899934355286,-72.17055793898491L29.615321247888854,-71.86132754736572L29.633696300950195,-71.57730446852426L29.67080719040737,-71.32872732516202L29.727436013128436,-71.1258347399803L29.80436486598144,-70.97886533568052L29.866825788986354,-70.89902572499534L29.926834310020794,-70.83344771865738L29.990598379364247,-70.78195373274302L30.06432594729626,-70.7443661833287L30.15422496409631,-70.72050748649072L30.26650338004394,-70.71020005830552L30.40736914541865,-70.71326631484948L30.583030210499963,-70.72952867219902L30.79969452556738,-70.75880954643051L31.063570040900412,-70.80093135362033L31.38086470677861,-70.85571650984487L31.757786473481442,-70.92298743118052L32.05016776451731,-70.97891087399994L32.33804092685181,-71.04092919498608L32.622666859700196,-71.10946388068051L32.90530646227774,-71.184936417625L33.187220633799726,-71.26776829236108L33.46967027348144,-71.35838099143054L33.75391628053815,-71.45719600137495L34.04121955418515,-71.56463480873609L34.33284099363769,-71.68111890005551L34.63004149811106,-71.80706976187497L34.93408196682056,-71.94290888073608L35.24622329898144,-72.08905774318052L35.608991171815646,-72.26536413535354L35.935063965613395,-72.43070411148145L36.23073703531738,-72.5896146958524L36.502305735870344,-72.74663291275462L36.75606542221495,-72.90629578647624L36.998311449293944,-73.07314034130552L37.23533917205001,-73.25170360153065L37.473443945425885,-73.44652259143977L37.71892112436426,-73.66213433532116L37.97806606380784,-73.90307585746292L38.257174118699325,-74.17388418215332L38.56254064398144,-74.47909633368053L38.92899046958009,-74.84990959904133L39.23556918502079,-75.16666349252544L39.49053282989552,-75.44568546861021L39.70213744379627,-75.70330298177315L39.87863906631507,-75.95584348649159L40.028293737043946,-76.21963443724303L40.1593574955749,-76.51100328850487L40.28008638149997,-76.8462774947546L40.398736434411134,-77.24178451046959L40.52356369390042,-77.71385179012728L40.66282419955986,-78.2788067882051L40.824773990981434,-78.95297695918052L40.877981164966684,-79.16623173890879L40.93691914582172,-79.38684774092357L41.0006129948955,-79.6119051988446L41.068087773537016,-79.83848434629166L41.13836854309517,-80.06366541688449L41.210480364918936,-80.28452864424303L41.28344830035731,-80.49815426198693L41.356297410759225,-80.70162250373608L41.42805275747364,-80.8920136031102L41.49773940184949,-81.06640779372913L41.56438240523578,-81.22188530921262L41.62700682898144,-81.35552638318052L42.168434872852394,-82.43036863014203L42.68376573919904,-83.40999888295597L43.185989437372065,-84.31241133351644L43.688095976722195,-85.15560017371757L44.203075366600075,-85.95755959545338L44.743917616356434,-86.73628379061799L45.32361273534195,-87.50976695110558L45.95515073290737,-88.29600326881014L46.65152161840331,-89.11298693562584L47.425715401180504,-89.97871214344674L48.29072209058965,-90.9111730841669L49.259531695981444,-91.92836394968052L49.87933908252571,-92.56217074355983L50.47769494471061,-93.15221011679857L51.05737479411425,-93.70065615792272L51.62115414231477,-94.20968295545833L52.171808500890286,-94.68146459793138L52.71211338141894,-95.11817517386801L53.244844295478835,-95.52198877179426L53.772776754648106,-95.89507948023608L54.29868627050488,-96.23962138771958L54.825348354627266,-96.5577885827708L55.35553851859341,-96.85175515391575L55.89203227398143,-97.12369518968052L56.49120571384313,-97.40450999819673L57.06006579137495,-97.64967066972683L57.61203502324706,-97.86180668811804L58.16053592612959,-98.04354753721758L58.71899101669267,-98.19752270087264L59.300822811606416,-98.32636166293051L59.919453827541055,-98.43269390723837L60.588306581166634,-98.51914891764348L61.3208035891533,-98.58835617799299L62.13036736817124,-98.6429451721342L63.03042043489057,-98.68554538391429L64.03438530598143,-98.7187862971805L65.35048136036771,-98.74295322209973L66.55649393844672,-98.73681135161803L67.66894574484861,-98.69704676162581L68.70435948420366,-98.62034552801387L69.67925786114203,-98.50339372667268L70.61016358029394,-98.34287743349299L71.51359934628958,-98.1354827243654L72.40608786375923,-97.87789567518051L73.304151837333,-97.56680236182898L74.22431397164115,-97.19888886020135L75.18309697131389,-96.77084124618833L76.19702354098143,-96.27934559568052L77.99531401542906,-95.32214404932317L79.6748407637708,-94.30959241465507L81.23944779400486,-93.23745537815708L82.6929791141296,-92.10149762631016L84.03927873214317,-90.89748384559518L85.28219065604392,-89.621178722493L86.42555889383007,-88.26834694348462L87.47322745349994,-86.8347531950509L88.42904034305174,-85.31616216367269L89.29684157048375,-83.70833853583098L90.08047514379422,-82.00704699800662L90.78378507098142,-80.20805223668053L91.10545642952742,-79.2917056145619L91.3825884667245,-78.44736785706479L91.61886149903611,-77.65007553947737L91.8179558429259,-76.87486523708795L91.9835518148573,-76.09677352518456L92.11932973129392,-75.29083697905551L92.22896990869933,-74.43209217398898L92.31615266353698,-73.49557568527312L92.38455831227047,-72.45632408819614L92.43786717136337,-71.28937395804627L92.47975955727917,-69.96976187011168L92.51391578648143,-68.47252439968052L92.53758142163825,-67.08884890119755L92.5498777420694,-65.84444785856714L92.5493844595908,-64.71672865551645L92.53468128601848,-63.68309867577314L92.50434793316836,-62.72096530306449L92.45696411285643,-61.807735921118024L92.39110953689867,-60.92081791366114L92.30536391711107,-60.03761866442126L92.19830696530957,-59.13554555712583L92.06851839331013,-58.19200597550229L91.91457791292876,-57.18440730327804L91.73506523598144,-56.09015692418052L91.62275144149386,-55.477038717227096L91.48768406528932,-54.82890194280322L91.33448551600486,-54.161431100688326L91.16777820227777,-53.490310690662035L90.99218453274504,-52.83122521250374L90.81232691604394,-52.199859165993026L90.63282776081158,-51.61189705090939L90.45830947568514,-51.083023367032375L90.29339446930175,-50.62892261414146L90.14270515029855,-50.26527929201615L90.01086392731274,-50.00777790043602L89.90249320898144,-49.872102939180515L89.81701291126588,-49.817470704736365L89.72955148079858,-49.7763513723773L89.64136582709864,-49.74848813906333L89.55371285968515,-49.7336242017546L89.46784948807723,-49.73150275741112L89.38503262179393,-49.741867002993025L89.30651917035439,-49.764460135460325L89.23356604327773,-49.799025351773125L89.16743015008296,-49.84530584889145L89.1093684002893,-49.90304482377542L89.06063770341574,-49.9719854733851L89.02249496898142,-50.05187099468052L89.00572378712407,-50.13624730829538L88.99749681491433,-50.28704164159951L88.99852839714548,-50.51488264465708L89.00953287861108,-50.83039896753238L89.03122460410441,-51.244219260289604L89.06431791841892,-51.76697217299302L89.10952716634803,-52.40928635570685L89.16756669268514,-53.18179045849535L89.23915084222364,-54.09511313142272L89.32499395975688,-55.1598830245532L89.42581039007837,-56.38672878795107L89.54231447798144,-57.78627907168052L89.57926600231909,-58.24895352644123L89.6147459108495,-58.73405126943284L89.64842224872363,-59.234829255719575L89.67996306109254,-59.74454444036575L89.7090363931073,-60.256453778435436L89.73531028991891,-60.76381422499302L89.75845279667848,-61.259882735102686L89.77813195853699,-61.737916263828666L89.7940158206455,-62.19117176623521L89.80577242815504,-62.61290619738653L89.81306982621666,-62.99637651234689L89.81557605998142,-63.334839666180514L89.80718334358474,-64.00522251558561L89.78318190980784,-64.79064433742127L89.74533683177049,-65.66669940586803L89.69541318259255,-66.60898199510646L89.63517603539377,-67.59308637931711L89.56639046329393,-68.5946068326805L89.49082153941286,-69.58913762937728L89.41023433687033,-70.55227304358792L89.3263939287861,-71.45960734949303L89.24106538828003,-72.2867348212731L89.15601378847188,-73.00924973310876L89.07300420248143,-73.60274635918053L88.99687305198897,-74.04757771915797L88.90274833291664,-74.5271714887083L88.79289411174706,-75.03330354338365L88.66957445496293,-75.55774975873611L88.53505342904684,-76.0922860103177L88.39159510048144,-76.62868817368052L88.24146353574935,-77.1587321243767L88.0869228013333,-77.67419373795828L87.9302369637158,-78.16684888997742L87.77367008937956,-78.62847345598605L87.61948624480723,-79.05084331153641L87.46994949648143,-79.42573433218051L87.27375110691283,-79.85264058870483L87.01974396239117,-80.34237625083328L86.71641886156736,-80.88218449664924L86.37226660309256,-81.45930850423608L85.99577798561774,-82.06099145167704L85.59544380779391,-82.6744765170555L85.17975486827223,-83.28700687845483L84.75720196570366,-83.8858257139583L84.33627589873923,-84.45817620164925L83.92546746603003,-84.99130151961106L83.5332674662271,-85.47244484592703L83.16816669798143,-85.88884935868052L82.43919975134716,-86.60995159711396L81.58823188278238,-87.32506018652315L80.63216701541893,-88.02586621232113L79.58790907238885,-88.70406075992128L78.47236197682402,-89.35133491473664L77.30242965185643,-89.9593797621805L76.095016020618,-90.51988638766606L74.86702500624068,-91.02454587660645L73.63536053185643,-91.46504931441488L72.41692652059716,-91.83308778650458L71.22862689559484,-92.12035237828873L70.08736557998142,-92.31853417518052L69.5191314344438,-92.38391800619874L68.92302573705551,-92.43057872661802L68.3062707110283,-92.45889263148518L67.67608857957406,-92.46923601584722L67.03970156590447,-92.46198517475084L66.40433189323143,-92.43751640324301L65.77720178476675,-92.39620599637061L65.16553346372217,-92.33843024918052L64.57654915330954,-92.26456545671958L64.01747107674069,-92.17498791403469L63.495521457227376,-92.07007391617272L63.017922517981425,-91.95019975818052L62.27308249758731,-91.71916784907114L61.521839400453665,-91.44433057476387L60.771981137778305,-91.1303998852899L60.03129562075923,-90.78208773068056L59.30757076059428,-90.40410606096698L58.60859446848143,-90.00116682618052L57.94215465561859,-89.57798197635239L57.31603923320366,-89.13926346151386L56.73803611243456,-88.68972323169615L56.215933204509206,-88.23407323693053L55.75751842062554,-87.77702542724822L55.37057967198143,-87.32329175268052L55.29618297500428,-87.22735394063452L55.21163750716431,-87.11869428260415L55.11844163584861,-86.99922185912583L55.01809372844441,-86.87084575073607L54.91209215233878,-86.73547503797133L54.80193527491893,-86.59501880136801L54.689121463572,-86.45138612146263L54.57514908568513,-86.30648607879165L54.4615165086455,-86.16222775389143L54.34972209984023,-86.02052022729859L54.24126422665649,-85.88327257954944L54.13764125648143,-85.75239389118052L54.02914997899039,-85.60805074905839L53.90651718821985,-85.43159902199535L53.77188625809863,-85.22673171344616L53.62740056255552,-84.99714182686571L53.475203475519336,-84.74652236570888L53.31743837091892,-84.4785663334305L53.15624862268311,-84.1969667334855L52.993777604740686,-83.90541656932868L52.8321686910205,-83.6076088444149L52.67356525545133,-83.30723656219904L52.520110671962044,-83.00799272613595L52.373948314481424,-82.71357033968052L51.8707563125989,-81.6650700702398L51.43246890646292,-80.71210927503009L51.05489958296581,-79.83971224259457L50.73386182899996,-79.03290326147682L50.46516913145771,-78.27670662022015L50.244634977231435,-77.556146607368L50.068072853213515,-76.85624751146378L49.931296246296256,-76.16203362105088L49.83011864337207,-75.4585292246727L49.76035353133329,-74.73075861087266L49.7178143970723,-73.96374606819411L49.69831472748144,-73.14251588518053L49.69648926159891,-72.50212248247392L49.70957872554625,-71.94934031948608L49.74276645984081,-71.4739243075399L49.801235804999976,-71.0656293579583L49.89017010154104,-70.71421038206418L50.01475268998143,-70.4094222911805L50.18016691083848,-70.14101999663016L50.3915961046296,-69.89875840973608L50.65422361187206,-69.67239244182113L50.97323277308328,-69.4516770042083L51.353806928780614,-69.22636700822045L51.801129419481434,-68.98621736518052L52.14177803631534,-68.79846290240678L52.48700528669439,-68.58653713332406L52.83988380905955,-68.3477465206649L53.2034862418518,-68.07939752716202L53.58088522351209,-67.77879661554799L53.975153392481445,-67.44325024855553L54.38936338720075,-67.0700648889172L54.82658784611106,-66.65654699936572L55.289899407653316,-66.20000304263364L55.78237071026847,-65.69773948145367L56.307074392397524,-65.1470627785584L56.86708309248144,-64.54527939668051L57.12446186133558,-64.318572752368L57.413110321481454,-64.15834398288885L57.72771149091894,-64.06287277005553L58.06294838764811,-64.03043879568055L58.41350402966894,-64.05932174157635L58.77406143498143,-64.1478012895555L59.13930362158559,-64.29415712143052L59.50391360748144,-64.49666891901386L59.862574410668934,-64.75361636411802L60.2099690491481,-65.06327913855553L60.54078054091893,-65.42393692413884L60.84969190398143,-65.83386940268052L60.98315143909283,-66.04452506592993L61.10892445949765,-66.27236019600925L61.22560737067673,-66.51267770541489L61.33179657811108,-66.76078050664351L61.426088487281476,-67.01197151219152L61.507079503668926,-67.26155363455551L61.573366032754286,-67.50482978623202L61.62354448001848,-67.73710287971758L61.65621125094236,-67.95367582750866L61.66996275100689,-68.1498515421018L61.66339538569295,-68.32093293599361L61.635105560481435,-68.46222292168052L61.58049899510382,-68.57082944520394L61.49176518221061,-68.66721290995136L61.37249779516113,-68.75075961818833L61.22629050731478,-68.82085587218054L61.05673699203092,-68.87688797419356L60.86743092266894,-68.91824222649304L60.6619659725882,-68.94430493134459L60.4439358151481,-68.95446239101386L60.21693412370799,-68.94810090776647L59.98455457162727,-68.92460678386801L59.75039083226528,-68.88336632158416L59.51803657898144,-68.82376582318052L59.18207631274183,-68.74828218946406L58.86267465839811,-68.72526674219904L58.56347018976268,-68.75155336521176L58.2881014806481,-68.8239759423287L58.04020710486686,-68.93936835737613L57.82342563623143,-69.09456449418052L57.64139564855435,-69.28639823656825L57.4977557156481,-69.5117034683657L57.39614441132519,-69.76731407339928L57.34020030939811,-70.05006393549533L57.333561983679346,-70.35678693848028L57.37986800798143,-70.68431696618052L57.47512064488507,-70.97397281288941L57.619244685585606,-71.22179260843517L57.804138817942366,-71.42645097332115L58.02170172981477,-71.58662252805092L58.26383210906216,-71.70098189312786L58.52242864354394,-71.76820368905553L58.78939002111946,-71.78696253633736L59.05661492964811,-71.75593305547682L59.31600205698925,-71.6737898669774L59.55945009100226,-71.53920759134255L59.77885771954653,-71.35086084907579L59.96612363048143,-71.10742426068052L60.02015163938478,-71.02536983503872L60.079296708916615,-70.94458882825461L60.142613298059565,-70.86594484341488L60.20915586579626,-70.79030148360648L60.27797887110932,-70.71852235191604L60.34813677298143,-70.65147105143052L60.4186840303952,-70.59001118523666L60.488675102333296,-70.53500635642126L60.55716444777831,-70.48732016807114L60.62320652571292,-70.44781622327311L60.68585579511975,-70.41735812511396L60.74416671498143,-70.39680947668052L60.90295782149328,-70.367125909923L61.07530079086801,-70.359609740287L61.25711539598925,-70.37264799060239L61.444321409740716,-70.40462768369906L61.63283860500603,-70.45393584240679L61.81858675466893,-70.51895948955553L61.997485631613074,-70.59808564797507L62.165455008722176,-70.68970134049533L62.31841465887987,-70.79219358994614L62.45228435496986,-70.90394941915736L62.56298386987582,-71.02335585095885L62.64643297648144,-71.14879990818051L62.70941574406648,-71.2935360996481L62.74428244599533,-71.43988173212959L62.75101551790332,-71.58786626874301L62.72959739542589,-71.73751917260645L62.68001051419846,-71.88886990683793L62.60223730985643,-72.04194793455551L62.49626021803524,-72.19678271887727L62.36206167437033,-72.35340372292126L62.19962411449706,-72.51184040980552L62.008929974050886,-72.6721222426481L61.7899616886672,-72.8342786845671L61.54270169398143,-72.99833919868051L61.246375967786406,-73.20322967172102L60.99501219667124,-73.41489647758793L60.78878364259082,-73.63248390527428L60.62786356749997,-73.85513624377312L60.51242523335353,-74.0819977820775L60.44264190210643,-74.31221280918051L60.418686835713494,-74.54492561407518L60.44073329612958,-74.77928048575458L60.508954545309564,-75.01442171321176L60.62352384520828,-75.24949358543977L60.78461445778061,-75.48364039143166L60.992399644981425,-75.7160064201805L61.10434012274848,-75.82532465780405L61.20663182953468,-75.91891855204396L61.301313878442365,-75.99757900620395L61.39042538257405,-76.06209692358794L61.476005455032066,-76.11326320749967L61.56009320891892,-76.15186876124302L61.644727757337044,-76.17870448812178L61.73194821338884,-76.19456129143977L61.82379369017674,-76.20023007450084L61.92230330080319,-76.19650174060877L62.02951615837061,-76.18416719306738L62.147471375981425,-76.16401733518052L62.36144390932865,-76.11031118319293L62.560351660342555,-76.03470880003006L62.74351958698143,-75.93810670801648L62.91027264720367,-75.82140142947685L63.05993579896756,-75.68548948673579L63.19183400023143,-75.531267402118L63.30529220895366,-75.35963169794816L63.399635383092544,-75.1714788965509L63.47418848060643,-74.96770552025083L63.52827645945366,-74.74920809137265L63.561224277592544,-74.51688313224099L63.57235689298143,-74.27162716518052L63.57734406616052,-74.07246333226327L63.59199219041432,-73.87835236588423L63.61583117281737,-73.69068032772739L63.648390920444406,-73.51083327947684L63.68920134037003,-73.34019728281652L63.737792339668935,-73.18015839943051L63.793693825415744,-73.03210269100286L63.85643570468513,-72.89741621921756L63.925547884551754,-72.77748504575865L64.00056027209023,-72.67369523231015L64.08100277437524,-72.58743284055612L64.16640529848144,-72.52008393218053L64.1933973757731,-72.5059054905642L64.22737142623144,-72.49383146937494L64.26757499073143,-72.48389183135241L64.3132556101481,-72.47611653923609L64.36366082535643,-72.47053555576561L64.41803817723144,-72.46717884368053L64.47563520664809,-72.46607636572045L64.53569945448143,-72.46725808462499L64.59747846160643,-72.47075396313365L64.6602197688981,-72.47659396398609L64.72317091723144,-72.48480804992185L64.78557944748142,-72.49542618368052L64.87403709983009,-72.5147615509534L64.95049213806244,-72.53747430882173L65.015766204333,-72.5649523743602L65.07068094079625,-72.5985836646435L65.11605798960672,-72.63975609674623L65.15271899291893,-72.68985758774302L65.18148559288738,-72.75027605470858L65.20317943166663,-72.82239941471758L65.21862215141111,-72.90761558484458L65.2286353942754,-73.00731248216432L65.23404080241401,-73.1228780237514L65.23566001798143,-73.25570012668052L65.23226966875572,-73.35319159958387L65.22239808355087,-73.45914699586574L65.20649445607518,-73.57190882838364L65.18500798003699,-73.68981960999535L65.15838784914462,-73.81122185355844L65.12708325710643,-73.93445807193052L65.09154339763073,-74.05787077796928L65.05221746442588,-74.17980248453236L65.00955465120018,-74.29859570447739L64.96400415166198,-74.41259295066199L64.91601515951962,-74.52013673594382L64.86603686848143,-74.6195695731805L64.751224561322,-74.85094289316345L64.65857910558098,-75.07516309050227L64.58809477986424,-75.29207516853208L64.53976586277774,-75.50152413058794L64.51358663292731,-75.70335498000487L64.50955136891892,-75.89741272011801L64.52765434935844,-76.0835423542624L64.5678898528518,-76.26158888577312L64.63025215800488,-76.4313973179852L64.71473554342356,-76.59281265423377L64.8213342877138,-76.74567989785385L64.95004266948143,-76.88984405218054L65.10498406559948,-77.02737774174302L65.2685813319259,-77.13990530593053L65.43910329441894,-77.22742674474301L65.61481877903701,-77.28994205818054L65.79399661173838,-77.32745124624299L65.97490561848143,-77.3399543089305L66.15581462522448,-77.32745124624302L66.33499245792588,-77.28994205818054L66.51070794254393,-77.22742674474301L66.68122990503699,-77.13990530593053L66.84482717136338,-77.02737774174302L66.99976856748144,-76.88984405218054L67.13571364572044,-76.72884548638595L67.24873529760181,-76.54366368157405L67.33867720949705,-76.3389564637274L67.40538306777775,-76.11938165882867L67.44869655881534,-75.88959709286051L67.46846136898142,-75.65426059180552L67.46452118464752,-75.41802998164638L67.43671969218514,-75.18556308836573L67.38490057796581,-74.96151773794614L67.30890752836106,-74.75055175637034L67.20858422974243,-74.55732296962091L67.08377436848143,-74.38648920368051L66.96576999150776,-74.24164989291661L66.87220857185875,-74.10512797090276L66.80357195569238,-73.97401779405551L66.76034198916663,-73.84541371879166L66.74300051843947,-73.71641010152774L66.75202938966893,-73.58410129868051L66.78791044901297,-73.44558166666661L66.85112554262959,-73.29794556190272L66.94215651667675,-73.13828734080552L67.06148521731245,-72.96370135979163L67.20959349069469,-72.77128197527774L67.38696318298143,-72.55812354368051L67.58623162718773,-72.33511522807693L67.7691295912569,-72.15557907376846L67.94108739123925,-72.02031488750866L68.10753534318515,-71.9301224760509L68.27390376314492,-71.88580164614869L68.44562296716893,-71.88815220455552L68.62812327130753,-71.93797395802483L68.82683499161107,-72.03606671331015L69.04718844412987,-72.18323027716488L69.2946139449143,-72.38026445634256L69.5745418100147,-72.62796905759662L69.89240235548144,-72.92714388768051L70.10964396462985,-73.13449493409053L70.29660594075229,-73.30848295504396L70.45872429461426,-73.45166540400082L70.60143503698146,-73.56659973442129L70.73017417861946,-73.6558433997653L70.85037773029393,-73.72195385349303L70.9674817027705,-73.76748854906448L71.08692210681477,-73.79500493993979L71.21413495319236,-73.80706047957898L71.35455625266893,-73.80621262144209L71.51362201601007,-73.79501881898926L71.69676825398143,-73.77603652568052L72.01397309793367,-73.71940896454419L72.29652609176615,-73.62605257809025L72.54308586081738,-73.49870728350082L72.7523110304259,-73.34011299795834L72.92286022593021,-73.15300963864493L73.05339207266893,-72.94013712274302L73.14256519598057,-72.70423536743488L73.18903822120366,-72.44804428990275L73.19146977367674,-72.17430380732897L73.14851847873838,-71.88575383689579L73.05884296172708,-71.58513429578555L72.92110184798143,-71.27518510118051L72.81589931585758,-71.09272466489952L72.6996781693657,-70.93042594847452L72.57292714507518,-70.78849991103206L72.43613497955553,-70.66715751169906L72.28979040937611,-70.56660970960212L72.13438217110644,-70.48706746386802L71.97039900131591,-70.42874173362351L71.79832963657402,-70.39184347799532L71.61866281345019,-70.3765836561102L71.43188726851383,-70.38317322709487L71.23849173833443,-70.41182315007606L71.03896495948142,-70.46274438418052L70.81538946187783,-70.52254617225574L70.60675437965273,-70.55913116882405L70.41115405443456,-70.57158443589927L70.22668282785182,-70.55899103549534L70.05143504153295,-70.52043602962613L69.88350503710643,-70.45500448030552L69.72098715620075,-70.36178144954742L69.56197574044441,-70.23985199936568L69.4045651314658,-70.08830119177426L69.24684967089347,-69.906214088787L69.08692370035585,-69.69267575241778L68.92288156148142,-69.44677124468052L68.72299369370018,-69.11721655369237L68.56748988381476,-68.82267682610876L68.4579287472627,-68.55832470175083L68.39586889948144,-68.31933282043981L68.38286895590852,-68.1008738219968L68.42048753198142,-67.89812034624302L68.51028324313766,-67.70624503299966L68.65381470481476,-67.52042052208793L68.85264053245018,-67.33581945332895L69.10831934148143,-67.14761446654394L69.42240974734601,-66.95097820155408L69.79647036548143,-66.74108329818051L70.018278694061,-66.61890625036425L70.221498033743,-66.50149979990044L70.40662110594235,-66.38846861276647L70.57414063207405,-66.27941735493981L70.7245493335529,-66.17395069239782L70.85833993179394,-66.07167329111802L70.97600514821205,-65.9721898170778L71.07803770422218,-65.8751049362546L71.16493032123925,-65.78002331462582L71.23717572067818,-65.68654961816894L71.29526662395394,-65.59428851286138L71.33969575248143,-65.50284466468054L71.42706107169323,-65.21872044441346L71.45751881009255,-64.93618698271062L71.43545027982518,-64.66059162934458L71.365236793037,-64.39728173408794L71.2512596618738,-64.15160464671322L71.09790019848144,-63.928907716993024L70.90953971500574,-63.734538294699895L70.69055952359255,-63.57384372960646L70.44534093638768,-63.4521713714852L70.178265265537,-63.374868570108774L69.89371382318629,-63.34728267524967L69.59606792148143,-63.37476103668052L69.34594736556649,-63.43208888651036L69.115418585037,-63.50659433565274L68.9044078735908,-63.59835599446176L68.71284152492589,-63.70745247329166L68.54064583274013,-63.83396238249649L68.38774709073142,-63.97796433243052L68.25407159259775,-64.13953693344789L68.13954563203698,-64.31875879590275L68.04409550274706,-64.51570853014927L67.96764749842588,-64.73046474654164L67.91012791277137,-64.963106055434L67.87146303948143,-65.21371106718053L67.83189140647622,-65.48663304276529L67.77846620468978,-65.71943550910879L67.7099917330908,-65.91265829271958L67.62527229064811,-66.06684122010647L67.52311217633037,-66.18252411777804L67.40231568910643,-66.26024681224301L67.26168712794497,-66.30054913001008L67.10003079181477,-66.30397089758793L66.91615097968455,-66.27105194148521L66.70885199052309,-66.20233208821061L66.47693812329915,-66.09835116427284L66.21921367698144,-65.95964899618052L66.11027787983039,-65.8995991912899L65.99683910056478,-65.84193952243054L65.88043582909081,-65.78720971182116L65.76260655531478,-65.73594948168052L65.64488976914289,-65.68869855422741L65.52882396048143,-65.64599665168052L65.41594761923663,-65.60838349625864L65.30779923531477,-65.57639881018052L65.20591729862205,-65.55058231566488L65.11184029906477,-65.53147373493053L65.02710672654914,-65.51961279019615L64.95325507098143,-65.51553920368052L64.7791312330089,-65.49474201172708L64.59521033832635,-65.43498455859489L64.40532472416112,-65.34021802837584L64.21330672774072,-65.21439360516202L64.02298868629248,-65.06146247304541L63.83820293704394,-64.88537581611801L63.66278181722245,-64.69008481847189L63.50055766405551,-64.47954066419905L63.355362814770494,-64.25769453739147L63.23102960659486,-64.02849762214117L63.13139037675603,-63.79590110254018L63.06027746248143,-63.56385616268052L63.03475979903927,-63.45397717143978L63.00678816927773,-63.32616242704629L62.97681151466894,-63.18281140311802L62.945278776685136,-63.026323573273125L62.91263889679856,-62.85909841112959L62.879340816481424,-62.68353539030551L62.84583347720597,-62.502033984418944L62.81256582044439,-62.316993667087935L62.779986787668925,-62.13081391193052L62.74854532035179,-61.94589419256478L62.71869035996522,-61.76463398260877L62.69087084798143,-61.58943275568053L62.61300922639376,-61.17614098569701L62.508098592488366,-60.75476994997914L62.37915235530175,-60.33140584637583L62.22918392387034,-59.912134872736104L62.06120670723059,-59.503043226908815L61.87823411441894,-59.11021710674303L61.68327955447187,-58.73974271008765L61.479356436425896,-58.39770623479164L61.26947816931737,-58.090193878703964L61.05665816218283,-57.82329183967357L60.84390982405869,-57.60308631554944L60.63424656398144,-57.435663504180525L60.44496592842733,-57.31696485297015L60.25787788679857,-57.21940843128935L60.06613190277049,-57.14290081718834L59.86287744001847,-57.08734858871759L59.641263962217835,-57.05265832392733L59.394440933043924,-57.03873660086802L59.11555781617211,-57.045489997589954L58.79776407527773,-57.07282509214349L58.434209174036106,-57.12064846257896L58.01804257612264,-57.188866686946724L57.54241374521262,-57.27738634329713L57.00047214498142,-57.386114009680526L56.42146884780232,-57.50872786495686L55.87591741654857,-57.631786196641194L55.35882969052048,-57.75686819439146L54.86521750901847,-57.88555304786573L54.390092711342824,-58.019419946721904L53.92846713679393,-58.16004808061802L53.47535262467211,-58.30901663921206L53.025761014277734,-58.46790481216201L52.574704144911124,-58.63829178912584L52.117193855872635,-58.821756759761534L51.648241986462615,-59.019878913727105L51.16286037598143,-59.234237440680516L50.93961406630985,-59.33388458483156L50.72145973190042,-59.42956545680554L50.510643979161124,-59.52038444863364L50.309413414499964,-59.605445952347196L50.1200146443249,-59.68385435997741L49.94469427504394,-59.75471406355551L49.785698913065055,-59.817129455112806L49.64527516479626,-59.87020492668053L49.5256696366455,-59.913044870289895L49.42912893502079,-59.94475367797219L49.35789966633009,-59.96443574175864L49.31422843698144,-59.97119545368052L49.24559795936888,-59.92113682503668L49.19989550899765,-59.77609660053007L49.17634766931737,-59.543778272297715L49.174181023777756,-59.23188533247683L49.19262215582839,-58.84812127320454L49.23089764891893,-58.40018958661802L49.2882340864991,-57.89579376485441L49.363858052018486,-57.34263730005089L49.456996128926754,-56.74842368434459L49.566874900673575,-56.12085640987264L49.69272095070857,-55.46763896877225L49.83376086248144,-54.79647485318052L49.931745994196426,-54.33918846128353L50.016601700326355,-53.91930000192127L50.08915956209862,-53.528691634211775L50.15025116074072,-53.159245517273135L50.200708077479995,-52.80284381022336L50.24136189354393,-52.45136867218052L50.27304419015997,-52.0967022622627L50.29658654855552,-51.73072673958794L50.31282054995801,-51.34532426327427L50.32257777559486,-50.93237699243978L50.326689806693544,-50.48376708620252L50.32598822448143,-49.99137670368053L50.321216747940625,-49.47469535306824L50.31189260119672,-49.00931691628238L50.29651937169236,-48.58347080489928L50.27360064687032,-48.18538643049535L50.24164001417328,-47.80329320464696L50.19914106104393,-47.42542053893054L50.14460737492501,-47.039997844922425L50.0765425432592,-46.635254534199056L49.99345015348924,-46.19942001833677L49.89383379305783,-45.72072370891199L49.776197049407656,-45.18739501750113L49.639043509981434,-44.58766335568052L49.46381122163132,-43.84654205995279L49.291393301347185,-43.1501269785671L49.12094997265331,-42.49581477534458L48.95164145907404,-41.88100211410648L48.78262798413363,-41.303085658673865L48.613069771356436,-40.75946207286802L48.44212704426674,-40.2475280205101L48.268960026388854,-39.76468016542127L48.09272894124706,-39.30831517142271L47.91259401236569,-38.875829702335615L47.72771546326905,-38.46462042198116L47.53725351748144,-38.07208399418053L47.18930681540418,-37.418570273876135L46.7635008431134,-36.681673455620356L46.26757785464551,-35.872486844774265L45.709280104037006,-35.002103746699056L45.09634984532431,-34.081617466755766L44.43652933254394,-33.12212131030552L43.737560819732316,-32.134708582709465L43.007186560925895,-31.13047258932868L42.253148810161136,-30.120506635524276L41.48318982147449,-29.11590402665738L40.70505184890245,-28.12775806808909L39.926477146481446,-27.16716206518052L39.70024364901066,-26.89016266537235L39.48301364434024,-26.620053626090243L39.27682055570801,-26.359586258797716L39.08369780635183,-26.111511874958307L38.9056788195095,-25.878581786035575L38.744797018418936,-25.66354730349303L38.60308582631796,-25.469159738794232L38.4825786664444,-25.298170403402754L38.38530896203613,-25.153330608782092L38.313310136330976,-25.037391666395813L38.2686156125668,-24.95310488770744L38.25325881398143,-24.90322158418053L38.27885153302715,-24.815608540407656L38.35414904155552,-24.749635698456007L38.47683764077831,-24.70505998275085L38.64460363190737,-24.681638317717578L38.85513331615447,-24.679127627781508L39.10611299473145,-24.697284837368024L39.39522896885007,-24.735866870902456L39.72016753972219,-24.79463065281016L40.078615008559574,-24.87333310751647L40.468257676574034,-24.97173115944673L40.88678184497739,-25.089581733026304L41.33187381498144,-25.226641752680532L41.569994201125816,-25.301609035632485L41.80661350834487,-25.37359240904628L42.03908671844238,-25.441918077508646L42.26476881322218,-25.505912245606467L42.481014774488095,-25.564901117926482L42.68517958404395,-25.61821089905552L42.87461822369353,-25.6651677935804L43.0466856752407,-25.705098006087933L43.19873692048925,-25.737327741164894L43.328126941243006,-25.761183203398108L43.4322107193058,-25.77599059737439L43.508343236481444,-25.78107612768052L43.84758758818774,-25.730763186424156L44.18368092150691,-25.58072629754627L44.51589592573926,-25.33231836338363L44.84350529018515,-24.986892286273132L45.16578170414493,-24.545800968551468L45.48199785691893,-24.010397312555526L45.791426437807544,-23.382034220622074L46.09334013611108,-22.66206459508793L46.387011641129874,-21.851841338289898L46.6717136421643,-20.952717352564783L46.94671882851472,-19.96604554024939L47.21129988948144,-18.893178803680527L47.334009754148674,-18.37694199576906L47.44652899373608,-17.9344574599722L47.55217341199707,-17.560223853946155L47.65425881268516,-17.24873983534721L47.75610099955379,-16.994504061831563L47.86101577635644,-16.792015191055526L47.972318946846606,-16.635771880675318L48.09332631477774,-16.5202727883472L48.22735368390332,-16.4400165717274L48.37771685797681,-16.389501888472196L48.5477316407517,-16.36322739623782L48.740713835981445,-16.35569175268053L48.85310446991546,-16.370902761623242L48.97592309766199,-16.41571350843054L49.10799356163769,-16.48889057307116L49.24813970425923,-16.58920053551388L49.39518536794325,-16.715409975727407L49.54795439510644,-16.866285473680527L49.70527062816548,-17.04059360934199L49.865957909536995,-17.237100962680532L50.02884008163769,-17.4545741136649L50.19274098688421,-17.69177964226386L50.35648446769324,-17.947484128446156L50.51889436648143,-18.220454152180526L50.720224586234615,-18.532533018715256L50.940464091090234,-18.803409582166644L51.17611108469237,-19.032103643305522L51.42366377068514,-19.217635002902764L51.67962035271263,-19.359023461729144L51.94047903441893,-19.455288820555523L52.20273801944816,-19.50545088015274L52.4628955114444,-19.50852944129164L52.71744971405174,-19.463544304743028L52.962898830914305,-19.369515271277752L53.19574106567616,-19.225462141666632L53.41247462198143,-19.03040471668053L53.63157614138941,-18.75268683847885L53.78158458741199,-18.464983599608775L53.865114081747045,-18.172698962297716L53.88477874609255,-17.881236888773127L53.84319270214636,-17.59600134126241L53.74297007160642,-17.322396281993026L53.58672497617066,-17.06582567319239L53.37707153753699,-16.83169347708794L53.1166238774033,-16.625403655907093L52.807996117467546,-16.452360171877288L52.453802379427614,-16.317966987225958L52.056656784981435,-16.22762806418053L51.86074699556331,-16.194175707526597L51.687698643053196,-16.15851534386572L51.53346019219237,-16.118014336399277L51.39398010772219,-16.070040048328686L51.26520685438392,-16.011959842855298L51.143088896918925,-15.941141083180524L51.02357470006852,-15.85495113250576L50.90261272857402,-15.750757354032379L50.77615144717674,-15.62592711096178L50.640139320618005,-15.477827766495343L50.49052481363914,-15.303826683834458L50.323256390981435,-15.101291226180527L50.2155487860257,-14.967565116709455L50.112128275752276,-14.836044744120334L50.013962915676736,-14.708129281524279L49.92202076131479,-14.585217902032387L49.83726986818194,-14.468709778755764L49.76067829179393,-14.360004084805524L49.69321408766635,-14.260499993292802L49.63584531131478,-14.17159667732868L49.58954001825487,-14.094693310024283L49.55526626400227,-14.031189064490714L49.53399210407259,-13.982483113839095L49.52668559398143,-13.949974631180526L49.592797696541034,-13.815706073400436L49.778923503083284,-13.659061378564784L50.06674726190331,-13.48653105718052L50.43795322129626,-13.304605619754607L50.87422562955724,-13.119775576793957L51.35724873498143,-12.938531438805528L51.868706785863964,-12.767363716296263L52.390284030499956,-12.612762919773122L52.903664717184554,-12.481219559743032L53.39053309421291,-12.379224146712929L53.832573409880155,-12.313267191189794L54.21146991248143,-12.289839203680529L54.48883517591806,-12.282355687706856L54.73640111239116,-12.259322802599508L54.95523342189549,-12.219867042578962L55.14639780442588,-12.163114901865715L55.3109599599771,-12.088192874680235L55.44998558854392,-11.994227455243028L55.56454039012118,-11.880345137774567L55.655690064703656,-11.745672416495342L55.724500312286125,-11.589335785625844L55.77203683286337,-11.410461739386543L55.79936532643022,-11.208176771997946L55.80755149298144,-10.981607377680527L55.7992789824522,-10.769182334703096L55.77656952224765,-10.567624802111082L55.73977148681737,-10.377541325289906L55.689233250611075,-10.199538449624987L55.62530318807838,-10.034222720501717L55.54832967366893,-9.882200683305525L55.458661081832425,-9.744078883421844L55.35664578701848,-9.620463866236088L55.24263216367675,-9.511962177133658L55.116968586256895,-9.41918036149997L54.98000342920857,-9.342724964720462L54.832085066981435,-9.28320253218053L54.639850664508614,-9.227703979473352L54.45840113599071,-9.19312525923146L54.2862284247783,-9.180142131399279L54.12182447422218,-9.189430355921269L53.963681227672986,-9.221665692741874L53.81029062848142,-9.27752390180553L53.66014461999821,-9.35768074305668L53.51173514557403,-9.46281197643979L53.363554148559565,-9.593593361899272L53.214093572305494,-9.750700659379605L53.06184536016257,-9.934809628825205L52.905301455481435,-10.146596030180529L52.782344605175574,-10.316941359486073L52.667371772368014,-10.465637263374981L52.55623065347362,-10.59537721605553L52.444768944907366,-10.708854691736091L52.32883434308415,-10.808763164624978L52.204274544418936,-10.89779610893053L52.06693724532663,-10.978646998861082L51.91267014222217,-11.054009308624977L51.73732093152049,-11.126576512430532L51.53673730963652,-11.199042084486086L51.30676697298519,-11.274099498999982L51.04325761798143,-11.354442230180533L50.650203091145194,-11.469816168124396L50.31536283004163,-11.56333477352312L50.03398464327832,-11.6346830277274L49.801316339462936,-11.68354591208794L49.612605727203075,-11.709608407955415L49.46310061510644,-11.712555496680526L49.348048811780636,-11.692072159613978L49.262698125833296,-11.647843378106451L49.202296365872066,-11.579554133508655L49.16209134050459,-11.486889407171269L49.1373308583385,-11.369534180444996L49.123262727981434,-11.227173434680529L49.107393507694105,-10.877344311887697L49.10924896501617,-10.552173238337943L49.13048018659864,-10.24732684614928L49.17273825909257,-9.958471767439798L49.237674269148975,-9.681274634327519L49.32693930341894,-9.411402078930532L49.44218444855348,-9.144520733366877L49.585060791203674,-8.876297229754604L49.757219418020505,-8.602398200211779L49.96031141565505,-8.318490276856453L50.195987870758344,-8.020240091806684L50.465899869981435,-7.703314277180529L50.664088354363955,-7.467387531903038L50.83506801787496,-7.241776479585624L50.97914686505956,-7.0253441198758395L51.09663290046292,-6.816953452421277L51.18783412863017,-6.615467476869481L51.253058554106445,-6.419749192868029L51.29261418143688,-6.228661600064497L51.30680901516663,-6.041067698106454L51.29595105984081,-5.85583048664147L51.26034832000458,-5.671812965317107L51.20030880020307,-5.487878133780936L51.11614050498144,-5.302888991680528L51.03840266179769,-5.1618758035960335L50.958969192886535,-5.037601188171268L50.876322502707986,-4.929211879149278L50.78894499572218,-4.8358546102731275L50.695319076389154,-4.756676115285853L50.59392714916894,-4.69082312793052L50.48325161852167,-4.6374423819502L50.36177488890736,-4.59568061108794L50.22797936478612,-4.564684549086784L50.080347450618014,-4.543600929689789L49.91736155086309,-4.531576486640017L49.73750406998143,-4.527757953680532L49.48038243846088,-4.5504374082977135L49.234636357233754,-4.616597636618034L49.002359242926744,-4.723421435344591L48.78564451216664,-4.868091601180536L48.586585581580096,-5.047790930828963L48.40727586779394,-5.259702220993032L48.249808787434866,-5.501008268375843L48.116277757129595,-5.76889186968053L48.00877619350488,-6.060535821610218L47.929397513187446,-6.373122920868031L47.88023513280406,-6.703835964157091L47.86338246898144,-7.049857748180528L47.861688240658225,-7.147801508322595L47.85675520122914,-7.252005882733773L47.848807819004875,-7.360947634516466L47.83807056229627,-7.473103526773127L47.82476789941401,-7.586950322606168L47.80912429866895,-7.700964785118028L47.791364228371776,-7.813623677411142L47.77171215683329,-7.923403762587939L47.75039255236426,-8.02878180375084L47.72762988327542,-8.128234564002282L47.70364861787757,-8.220238806444705L47.67867322448144,-8.30327129418053L47.651936199129004,-8.38721744578672L47.62282597637033,-8.481881640905065L47.591800408403316,-8.585619608110216L47.55931734742588,-8.69678707597683L47.525834645635946,-8.813739773079543L47.491810155231434,-8.934833427993022L47.45770172841025,-9.058423769291927L47.423967217370325,-9.182866525550898L47.391064474309566,-9.306517425344595L47.35945135142589,-9.427732197247652L47.329585700917214,-9.544866569834756L47.301925374981444,-9.656276271680529L47.27461373191864,-9.76247994469412L47.24576299018745,-9.864456399997657L47.215784816098626,-9.961251096110216L47.185090875962935,-10.051909491550909L47.15409283609111,-10.135477044838806L47.12320236279394,-10.210999214493027L47.092831122382194,-10.27752145903267L47.06339078116664,-10.334089236976832L47.035293005458,-10.379748006844594L47.00894946156709,-10.413543227155062L46.98477181580464,-10.434520356427347L46.93722992712553,-10.427671630624388L46.90040960800922,-10.386753258898123L46.85369777218456,-10.32083168191491L46.798081414703674,-10.23176884358794L46.7345475306186,-10.121426687830413L46.66408311498144,-9.99166715855553L46.58767516284429,-9.84435219967648L46.50631066925922,-9.681343755106463L46.42097662927832,-9.504503768758656L46.33266003795366,-9.315694184546272L46.24234789033734,-9.116776946382501L46.151027181481446,-8.90961399818053L46.025619057800014,-8.61656802982433L45.917225833863384,-8.353119982747664L45.825027725333015,-8.115914701938335L45.748204947870335,-7.901597032384237L45.685937717136824,-7.706811819073184L45.637406248793944,-7.528203906993027L45.60179075850314,-7.3624181411316325L45.578271461925894,-7.206099366476826L45.56602857472363,-7.055892428016471L45.56424231255783,-6.9084421707384L45.572092891089945,-6.760393439630472L45.58876052598144,-6.608391079680528L45.60836851562149,-6.4488799603388L45.62090936360184,-6.30823078332174L45.62534188776269,-6.183428907516466L45.62062490594441,-6.0714596918101655L45.605717235987235,-5.969308495089957L45.579577695731444,-5.87396067624303L45.54116510301732,-5.782401594156519L45.48943827568515,-5.691616607717572L45.42335603157518,-5.598591075813343L45.34187718852774,-5.50031035733099L45.243960564383066,-5.393759811157674L45.12856497698145,-5.275924796180535L44.9775542465179,-5.129810887436024L44.83877874764811,-5.007688472182847L44.70869520815332,-4.908958205891475L44.58376035581478,-4.833020744032392L44.460430918413735,-4.779276742076076L44.33516362373144,-4.747126855493033L44.204415199549146,-4.735971739753736L44.06464237364811,-4.74521205032868L43.91230187380956,-4.7742484426883385L43.74385042781477,-4.822481572303217L43.55574476344499,-4.889312094643782L43.344441608481446,-4.9741406651805296L43.04999789837322,-5.124866924647246L42.80766863782404,-5.30761452203934L42.61751189449707,-5.519955037219594L42.479585736055526,-5.759460050050912L42.39394823016258,-6.023701140396097L42.36065744448144,-6.310249888118032L42.37977144667529,-6.616677873079549L42.45134830440738,-6.940556675143501L42.57544608534082,-7.279457874172721L42.75212285713884,-7.630953050030066L42.981436687464665,-7.9926137825783945L43.26344564398144,-8.362011651680534L43.36456390350978,-8.489570684440366L43.467075694791646,-8.629189440967572L43.56972927187206,-8.77863688800865L43.67127288879627,-8.935681992310162L43.77045479960933,-9.098093720618616L43.866023258356435,-9.263641039680525L43.95672651908271,-9.430092916242447L44.041312835833295,-9.5952183170509L44.11853046265331,-9.756786208852402L44.18712765358793,-9.912565558393492L44.24585266268226,-10.060325332420687L44.293453743981445,-10.197834497680526L44.358050553059854,-10.404892843890599L44.410852052150425,-10.582838888819424L44.451834897286126,-10.735622635414911L44.48097574449997,-10.867194086624984L44.498251249824904,-10.981503245397546L44.50363806929394,-11.082500114680533L44.49711285894006,-11.174134697421852L44.478652274796254,-11.260356996569422L44.448232972895504,-11.345117015071155L44.4058316092708,-11.43236475587497L44.35142483995512,-11.526050221928791L44.284989320981445,-11.630123416180526L44.12914995986137,-11.817443814966111L43.938197209895804,-11.960549665798592L43.71500953380175,-12.059901724016465L43.46246539429627,-12.115960744958318L43.18344325409631,-12.129187483962646L42.880821575918944,-12.10004269636803L42.55747882248116,-12.028987137512988L42.21629345649997,-11.916481562736086L41.860143940692375,-11.762986727375843L41.49190873777542,-11.568963386770802L41.114466310466106,-11.334872296259524L40.73069512148144,-11.061174211180528L40.46714064531795,-10.886641454411432L40.199706600715245,-10.75829766498609L39.931870166754884,-10.675172437227406L39.6671085225185,-10.636295365458318L39.408898847087634,-10.640696044001718L39.160718319543946,-10.687404067180534L38.926044118969,-10.775449029317679L38.70835342444441,-10.903860524736091L38.511123415051756,-11.071668147758652L38.33783126987265,-11.27790149270831L38.191954167988676,-11.521590153907958L38.07696928848144,-11.801763725680532L38.027027967010945,-11.976595562929662L37.993802172550886,-12.147694114131925L37.977269393028315,-12.314976657969599L37.97740711637034,-12.478360473124981L37.99419283050402,-12.637762838280361L38.02760402335644,-12.79310103211803L38.0776181828547,-12.944292333320284L38.14421279692588,-13.09125402056942L38.22736535349707,-13.233903372547717L38.32705334049533,-13.372157667937474L38.44325424584776,-13.505934185420978L38.57594555748144,-13.635150203680526L38.67441657072796,-13.717968263638857L38.77532159453699,-13.78714263951387L38.88610457251268,-13.84319091980553L39.01420944825923,-13.886630693013869L39.16708016538075,-13.917979547638863L39.35216066748143,-13.93775507218053L39.57689489816546,-13.946474855138863L39.84872680103699,-13.944656485013862L40.175100319700185,-13.932817550305526L40.56345939775922,-13.911475639513862L41.02124797881824,-13.88114834113886L41.55591000648144,-13.84235324368053L43.102926152981446,-13.72716640268053L43.015473254481435,-15.549660471680525L42.99694234254423,-15.895344123495631L42.975674486900424,-16.2088456029097L42.95089052292674,-16.49407845262584L42.92181128599996,-16.75495621534721L42.887657611496785,-16.995392433776885L42.84765033479394,-17.219300650618024L42.80101029126819,-17.43059440857376L42.74695831629625,-17.6331872503472L42.68471524525488,-17.83099271864146L42.61350191352079,-18.027924356159694L42.53253915647074,-18.227895705605007L42.44104780948145,-18.43482030968053L42.30970411333185,-18.710798886501998L42.18667700799301,-18.942395091043952L42.06785714762987,-19.13113910154772L41.94913518640738,-19.27856109625461L41.826401778490414,-19.386191253405936L41.695547578043936,-19.455559751243026L41.55246323923289,-19.488196768007207L41.39303941622219,-19.485632481939785L41.21316676317675,-19.44939707128209L41.00873593426153,-19.381020714275433L40.77563758364145,-19.282033589161134L40.50976236548144,-19.15396587418053L40.16579144051703,-18.992290429952217L39.769667224057834,-18.824215015854143L39.33388449137989,-18.65363921914146L38.87093801775924,-18.484462627069423L38.3933225784719,-18.320584826893203L37.913532948793936,-18.16590540586803L37.44406390400141,-18.024323951249112L36.99741021937034,-17.899740050291648L36.586066670176756,-17.796053290250843L36.222528031696726,-17.717163258381916L35.91928907920627,-17.666969541940084L35.68884458798144,-17.649371728180533L35.55127513222768,-17.652239528262704L35.422244855951355,-17.66120017892127L35.30041911725488,-17.676789555774285L35.184463274240706,-17.69954353443979L35.07304268501125,-17.72999799053585L34.964822707668944,-17.76868879968053L34.858468700316216,-17.816151837491866L34.75264602105552,-17.87292297958794L34.64602002798925,-17.93953810158678L34.53725607921987,-18.01653307910645L34.42501953284978,-18.104443787765014L34.30797574698144,-18.20380610318053L34.12934871427223,-18.35830319226068L33.97405992718283,-18.48521172628006L33.837702949395506,-18.584773689407086L33.715871344592564,-18.657231065810166L33.604158676456265,-18.70282583965767L33.49815850866894,-18.72179999511803L33.39346440491286,-18.714395516359637L33.285669928870334,-18.6808543875509L33.17036864422363,-18.621418592860213L33.043154114655046,-18.53633011645599L32.89961990384689,-18.425830942506625L32.73535957548144,-18.290163055180525L32.57802098193368,-18.149951727310153L32.4388155429745,-18.0055379518009L32.31486858912987,-17.848771475430535L32.203305450925896,-17.671502044976833L32.10125145888856,-17.46557940721757L32.00583194354394,-17.222853308930528L31.91417223541807,-16.935173496893487L31.823397665036996,-16.594389717884237L31.730633562926755,-16.19235171868053L31.63300525961339,-15.720909246060161L31.527638085622936,-15.171912046800893L31.411657371481443,-14.537209867680525L31.35638206147623,-14.243398545436602L31.294810661648114,-13.940902910937474L31.227977694153317,-13.633653416407089L31.156917681148116,-13.325580514069424L31.082665144788738,-13.02061465614842L31.006254607231437,-12.722686294868033L30.92872059063248,-12.435725882452227L30.851097617148106,-12.163663871124978L30.77442020893456,-11.910430713110214L30.699722888148106,-11.679956860631917L30.628040176944985,-11.476172765914031L30.56040659748144,-11.303008881180524L30.493995009004582,-11.140991575772535L30.425871668666634,-10.96966333812498L30.356909099981436,-10.791477751352405L30.287979826462937,-10.60888839856942L30.21995637162497,-10.424348862890596L30.153711258981442,-10.240312727430526L30.09011701204626,-10.05923357530379L30.0300461543333,-9.88356498962498L29.97437120935644,-9.715760553508655L29.92396470062959,-9.558273850069419L29.879699151666628,-9.413558462421848L29.84244708598144,-9.284067973680527L29.63834469394903,-8.674680575686024L29.372885751472182,-8.088131855141178L29.05350303585644,-7.531061459578965L28.68762932440737,-7.010109036532393L28.282697394430517,-6.531914233534402L27.84614002323144,-6.103116698118034L27.38538998811571,-5.730356077816229L26.907880066388856,-5.420272020162011L26.42104303535644,-5.17950417268834L25.93231167232404,-5.014692182928215L25.449118754597183,-4.932475698414619L24.97889705948144,-4.93949436668053L24.83851367626645,-4.948704421857322L24.688891536719872,-4.942554304386553L24.523912986239257,-4.918635574141471L24.33746037022219,-4.874539790995356L24.12341603406622,-4.807858514821449L23.875662323168946,-4.716183305493027L23.588081582927913,-4.597105722883375L23.2545561587407,-4.448217326865723L22.86896839600488,-4.267109677313342L22.425200640118014,-4.051374334099516L21.91713523647768,-3.798602857097483L21.338654530481445,-3.5063868061805303L20.917842128627274,-3.2917285184371856L20.477453856814783,-3.0653705181921116L20.023570856043943,-2.83052330304772L19.562274267314784,-2.5903973706064622L19.09964523162728,-2.3482032184707564L18.64176488998144,-2.1071513442430305L18.19471438337727,-1.8704522455257309L17.76457485281478,-1.641316419921275L17.357427439293946,-1.422954365032092L16.979353283814778,-1.2185765784606273L16.636433527377275,-1.0313935578092932L16.334749310981444,-0.8646158006805296L16.052998298226235,-0.7091023047667611L15.76811848568978,-0.5547181135786837L15.48354994221582,-0.40318122182115446L15.202732736648112,-0.25620962419904997L14.929106937830406,-0.11552131541722432L14.666112614606444,0.017165709819471162L14.417189835819983,0.1401334568061598L14.18577867031478,0.25166393083798466L13.975319186934572,0.3500391372100944L13.789251454523114,0.43354108121761525L13.63101554192415,0.5004517681556958L13.504051517981447,0.5490532033194679L13.233046582922702,0.62804661440107L12.913144418969873,0.6933497019722484L12.55432840770801,0.7448941148975907L12.166581930722192,0.7826115020416903L11.759888369597475,0.8064335122691204L11.344231105918944,0.8162917944444689L10.929593521271665,0.8121179974323118L10.525958997240707,0.7938437700972456L10.143310915411131,0.7614007613038406L9.79163265736802,0.7147206199166903L9.480907604696434,0.6537349948003738L9.221119138981447,0.5783755348194701L8.777669109239834,0.39477884923527207L8.366277612548583,0.17291387343752446L7.987535233083007,-0.08634813751646717L7.6420325550184875,-0.3821359285694227L7.3303601625303445,-0.7135782446640366L7.053108639793944,-1.0798038307430287L6.810868570984629,-1.4799414317491104L6.60423054027774,-1.9131197926249708L6.433785131848636,-2.3784676583133435L6.300122929872648,-2.8751137737569175L6.203834518525135,-3.4021868838984095L6.145510481981444,-3.958815733680526L6.125156853292787,-4.403176769111947L6.125729537597185,-4.8499803790069205L6.148227603325194,-5.30405407876646L6.1936501189073745,-5.770225383791648L6.262996152774271,-6.2533218094834755L6.357264773356446,-6.75817087124303L6.4774550490844565,-7.28960008447132L6.624566048388854,-7.85243696456942L6.799596839700198,-8.45150902693834L7.003546491449036,-9.091643786979139L7.237414072065936,-9.777668760092851L7.502198649981446,-10.514411461680528L7.7876636409985185,-11.314760106844583L8.038511163618022,-12.068372066076366L8.255157191567386,-12.777624574985213L8.438017698574038,-13.444894869180539L8.587508658365415,-14.072560184271675L8.704046044668946,-14.662997755868027L8.788045831212058,-15.218584819578961L8.839923991722188,-15.741698611013861L8.860096499926755,-16.23471636578209L8.848979329553202,-16.700015319493023L8.806988454328955,-17.13997270775605L8.734539847981443,-17.55696576618053L8.664411471073743,-18.076375800979424L8.666779679136539,-18.623312277696748L8.73629887834863,-19.186862746688348L8.867623474888857,-19.756114758310165L9.055407874936016,-20.320155862918085L9.294306484668947,-20.868073610868024L9.578973710266457,-21.388955552515885L9.904063957907372,-21.87188923821756L10.264231633770507,-22.305962218328965L10.654131144034686,-22.680262043205985L11.068416894878725,-22.98387626320455L11.501743292481445,-23.20589242868053L11.592279080556677,-23.247028305141466L11.697405844833302,-23.302992980076368L11.815158365262695,-23.37237463218834L11.943571421796264,-23.453761440180543L12.080679794385384,-23.545741582756044L12.224518262981446,-23.64690323861803L12.373121607535843,-23.755834586469593L12.524524607999965,-23.871123805013863L12.676762044325196,-23.991359072953966L12.827868696462927,-24.115128568993022L12.975879344364545,-24.24102047183418L13.118828767981446,-24.367622960180533L13.576781272195854,-24.771420244817083L14.017730387363395,-25.136613840398134L14.449212833895503,-25.46716359193053L14.87876533220367,-25.76702934442128L15.313924602699325,-26.04017094287728L15.762227365793944,-26.290548232305518L16.23121034189898,-26.52212105771293L16.728410251425892,-26.738849264106463L17.26136381478613,-26.94469269649302L17.83760775239117,-27.143611199879594L18.46467878465245,-27.33956461927311L19.150113631981444,-27.536512799680523L19.34711972402137,-27.593256039369457L19.525556528259223,-27.649291759192106L19.686283388872067,-27.70509866690708L19.830159650037004,-27.761155470273135L19.958044655931104,-27.81794087704888L20.070797750731447,-27.875933594993022L20.16927827861512,-27.935612331864267L20.254345583759225,-27.997455795421278L20.32685901034082,-28.061942693422715L20.387677902537,-28.129551733627284L20.43766160452485,-28.20076162379366L20.477669460481444,-28.27605107168052L20.51391288448636,-28.368068047195848L20.5351192066458,-28.458900485553208L20.538732734301757,-28.55325168071959L20.52219777479627,-28.655824926662014L20.48295863547132,-28.77132351734749L20.418459623668944,-28.904450746743024L20.32614504673116,-29.05990990881565L20.20345921199997,-29.242404297532378L20.047846426817387,-29.456637206860208L19.856750998525424,-29.707311930766167L19.627617234466108,-29.99913176321727L19.357889441981445,-30.33679999818052L18.839463994673284,-30.985149684135667L18.403007704266173,-31.54106574215505L18.04148930241113,-32.01910739821959L17.74787752075923,-32.43383387831015L17.515141090961478,-32.799804408407674L17.336248744668946,-33.13157821449304L17.204169213532655,-33.443714522547126L17.111871229203675,-33.7507725585509L17.05232352333301,-34.067311548485215L17.01849482757172,-34.40789071833099L17.00335387357086,-34.78706929406911L16.999869392981445,-35.219406501680524L16.997539680029764,-35.458031954257216L16.990690659951355,-35.69586159462729L16.979532510911135,-35.93108445725084L16.96427541107404,-36.16188957658794L16.945129538605,-36.38646598709865L16.922305071668944,-36.60300272324302L16.89601218843081,-36.80968881948115L16.86646106705552,-37.004713310273125L16.833861885708007,-37.18626523007897L16.7984248225532,-37.352533613358766L16.760360055756042,-37.5017074945726L16.71987776348145,-37.63197590818052L16.60219447741808,-37.94228000829105L16.434576495932834,-38.343581811939785L16.22790527758301,-38.81339329110241L15.993062280925892,-39.329226417754604L15.740928964518767,-39.86859316387207L15.482386786918942,-40.40900550143052L15.2283172066837,-40.927975402405636L14.989601682370333,-41.40301483877313L14.777121672536127,-41.81163578250864L14.601758635738388,-42.13135020558792L14.474394030534395,-42.339670079986654L14.405909315481443,-42.414107377680516L14.354769572548571,-42.36660195611803L14.314227992661134,-42.30963376951646L14.264909432851818,-42.23266734601386L14.207717012389724,-42.13731174584458L14.143553850543945,-42.02517602924301L14.073323066583583,-41.89786925644355L13.99792777977774,-41.757000487680536L13.918271109395512,-41.60417878318834L13.83525617470598,-41.44101320320135L13.749786094978262,-41.26911280795397L13.662763989481446,-41.09008665768053L13.57047846173578,-40.90210167252513L13.469682359057835,-40.70411708506248L13.361976214161134,-40.49892885254772L13.248960559759224,-40.28933293223609L13.132235928565647,-40.078125281382775L13.013402853293945,-39.86810185724303L12.894061866657657,-39.66205861707201L12.775813501370333,-39.46279151812498L12.660258290145505,-39.27309651765709L12.548996765696725,-39.09576957292357L12.443629460737522,-38.93360664117965L12.345756907981444,-38.78940367968052L12.19821429954452,-38.57564004755291L12.07423904715274,-38.38931920711802L11.972200352184563,-38.224724088672716L11.890467416018488,-38.07613762251386L11.827409440032948,-37.93784273893834L11.781395625606445,-37.80412236824302L11.75079517411744,-37.66925944072479L11.73397728694441,-37.52753688668054L11.729311165465818,-37.37323763640709L11.735166011060143,-37.20064462020135L11.749911025105865,-37.00404076836021L11.771915408981444,-36.77770901118052L11.795072687722474,-36.56829156044846L11.819174311784685,-36.38620716657405L11.845516059301753,-36.2287553072899L11.875393708407376,-36.093235460328685L11.910103037235206,-35.976947103423L11.950939823918945,-35.87718971430552L11.99919984659227,-35.791262770708876L12.056178883388851,-35.716465750365714L12.123172712442381,-35.65009813100865L12.201477111886538,-35.58945939037034L12.292387859855,-35.53184900618342L12.397200734481446,-35.474566456180526L12.480255999865705,-35.437041839675885L12.579863018263856,-35.40140198960182L12.694337832293945,-35.36790960986804L12.821996484574038,-35.33682740438424L12.961155017722184,-35.30841807706017L13.110129474356443,-35.28294433180553L13.26723589709487,-35.26066887253006L13.430790328555515,-35.24185440314349L13.599108811356444,-35.22676362755553L13.770507388115702,-35.215659249675895L13.943302101451353,-35.20880397341431L14.115808993981442,-35.20646050268053L14.348002990022236,-35.2047608015613L14.554627833307832,-35.19921365572683L14.738375331833007,-35.18914700146178L14.901937293592566,-35.173888775050905L15.048005526581274,-35.1527669127789L15.179271838793946,-35.12510935093052L15.29842803822537,-35.090244025790476L15.408165932870334,-35.047498873643484L15.511177330723633,-34.996201830774275L15.610154039780056,-34.93568083346756L15.707787868034396,-34.86526381800807L15.806770623481448,-34.784278720680526L16.03153122496581,-34.54334906535847L16.189474000398118,-34.27304283564581L16.284000775747067,-33.98295274304771L16.318513376981453,-33.68267149906942L16.29641363006999,-33.38179181521612L16.22110336098145,-33.089906402993016L16.095984395684567,-32.81660797390535L15.92445856014811,-32.5714892394583L15.709927680340819,-32.36414291115709L15.455793582231442,-32.204161700506916L15.165458091788736,-32.10113831901299L14.842323034981447,-32.06466547818052L14.693079704354126,-32.075051117346035L14.539383921296263,-32.10472328254628L14.384558004043951,-32.15145484533677L14.231924270833304,-32.21301867727312L14.084805039900429,-32.287187649910855L13.946522629481445,-32.37173463480553L13.82039935781246,-32.4644325035127L13.709757543129593,-32.56305412758793L13.617919503668945,-32.665372378586774L13.548207557666633,-32.76916012806478L13.50394402335876,-32.87219024757751L13.488451218981444,-32.97223560868052L13.480883889071135,-32.9986589210289L13.458850308865705,-33.03117931375924L13.423353092653315,-33.06910686289928L13.37539485472219,-33.11175164447683L13.315978209360498,-33.158423734519644L13.246105770856442,-33.20843320905552L13.166780153498227,-33.26109014411223L13.07900397157404,-33.31570461571758L12.983779839372069,-33.37158669989927L12.882110371180513,-33.428046472685146L12.774998181287579,-33.484394010102974L12.663445883981444,-33.53993938818053L12.492795827179071,-33.62115390678207L12.3429185952708,-33.68877864949303L12.210800148629884,-33.74315943929772L12.093426447629598,-33.784642099180516L11.98778345264319,-33.813572452125825L11.890857124043944,-33.830296321118034L11.79963342220511,-33.835159529141464L11.711098307499965,-33.82850789918052L11.622237740301758,-33.81068725421959L11.530037680983757,-33.782043417243024L11.431484089919234,-33.7429222112352L11.323562927481444,-33.693669459180526L11.137691166359334,-33.589912260588804L10.987145756546257,-33.47254886165507L10.871947861622067,-33.341130386391455L10.792118645166639,-33.195207958810165L10.747679270759802,-33.034332702923294L10.738650901981446,-32.85805574274303L10.765054702411422,-32.665928202281506L10.826911835629598,-32.4575012055509L10.924243465215818,-32.23232587656334L11.057070754749963,-31.989953339330988L11.225414867811883,-31.729934717866012L11.429296967981443,-31.451821136180527L11.728371223766743,-31.052204165868307L11.977017936597187,-30.69159429989119L12.17574220443457,-30.365688179188336L12.32504912524071,-30.07018244469906L12.425443796977392,-29.800773737362533L12.477431317606447,-29.553158698118022L12.481516785089665,-29.32303396790478L12.438205297388853,-29.106096187662022L12.348001952465818,-28.89804199832897L12.211411848282369,-28.694568040844874L12.028940082800313,-28.491370956148987L11.801091753981446,-28.284147385180535L11.634690209033531,-28.15518840845339L11.467601660231447,-28.047960259071743L11.299460879387697,-27.962442678110218L11.129902638314785,-27.898615406643504L10.958561708825195,-27.85645818574621L10.785072862731443,-27.83595075649303L10.609070871846027,-27.83707285995859L10.430190507981447,-27.85980423721757L10.248066542950196,-27.904124629344594L10.062333748564779,-27.970013777414312L9.872626896637692,-28.057451422501423L9.678580758981445,-28.166417305680525L9.509082786574325,-28.282032236634226L9.363626536599503,-28.40825253189349L9.241935366676753,-28.54636934930554L9.143732634425893,-28.697673846717585L9.068741697466686,-28.863457181976823L9.016685913418947,-29.045010512930528L8.98728863990245,-29.2436249974259L8.980273234537002,-29.460591793310165L8.995363054942382,-29.697202058430523L9.032281458738387,-29.954746950634238L9.090751803544814,-30.23451762776849L9.170497446981445,-30.53780524768052L9.20742320281333,-30.673387026691515L9.241828710011537,-30.812708220601834L9.273448565254881,-30.953972049727412L9.302017365222191,-31.095381734384244L9.32726970659227,-31.235140494888277L9.348940186043945,-31.371451551555523L9.366763400256039,-31.50251812470194L9.380473945907374,-31.626543434643494L9.389806419676754,-31.74173070169614L9.394495418243018,-31.8462831461759L9.394275538284973,-31.938403988398697L9.388881376481443,-32.016296448680514L9.374564625801755,-32.12742076921582L9.357399661335613,-32.221180986087944L9.334569323442382,-32.299044992196144L9.303256452481452,-32.362480680439795L9.260643888812172,-32.41295594371813L9.203914472793945,-32.451938674930524L9.130251044786133,-32.48089676697624L9.036836445148118,-32.501298112754604L8.920853514239257,-32.5146106051649L8.779485092418946,-32.52230213710644L8.609914020046553,-32.525840601478556L8.409323137481447,-32.52669389118053L7.4884521699814455,-32.52669389118053L7.296976555981446,-31.034766344180532L7.241244097533237,-30.647006574675032L7.177642529687466,-30.29313616492822L7.1055948793173815,-29.97198166646959L7.024524173296264,-29.68236963082868L6.933853438497362,-29.42312660953499L6.833005701793946,-29.19307915411802L6.721403990059284,-28.991053816107318L6.598471330166631,-28.81587714703239L6.463630748989258,-28.666375698422712L6.316305273400428,-28.541376021807846L6.1559179302734,-28.439704668717283L5.981891746481447,-28.360188190680528L5.711801451899559,-28.276629476166327L5.430256400034689,-28.224518500108775L5.142937639333005,-28.20233045398521L4.855526218240707,-28.208540529273122L4.573703185203956,-28.24162391744991L4.303149588668946,-28.300055809993026L4.04954647708185,-28.382311398379898L3.818574898888856,-28.48686587408794L3.6159159025361327,-28.612194428594595L3.4472505364698716,-28.756772253377292L3.3182598491362505,-28.919074539913456L3.2346248889814455,-29.09757647968053L3.191074567234049,-29.27678722515217L3.1698604055439463,-29.46627142616201L3.170163085239258,-29.663593709102408L3.191163287648114,-29.866318700365717L3.2320416940986343,-30.072011026344292L3.2919789859189446,-30.278235313430528L3.370155844437174,-30.482556188016755L3.4657529509814458,-30.68253827649535L3.577950986879884,-30.875746205258654L3.705930633460612,-31.05974460069904L3.84887257205176,-31.232098089208886L4.0059574839814465,-31.390371297180533L4.096661495352684,-31.473582014386537L4.193478737493025,-31.56232347399535L4.294978612067384,-31.655288161618017L4.399730520740711,-31.751168562865725L4.506303865177919,-31.848657163349515L4.613268047043947,-31.946446448680522L4.719192468003726,-32.04322890446987L4.8226465297221885,-32.13769701632867L4.922199633864258,-32.22854326986802L5.01642118209487,-32.31446015069904L5.103880576078956,-32.394140144432846L5.183147217481447,-32.46627573668053L5.328040879872356,-32.608110134803496L5.449566193233765,-32.74878511266432L5.547714831348633,-32.888231783125846L5.622478467999968,-33.02638125905092L5.673848776970744,-33.16316465330233L5.7018174320439465,-33.29851307874303L5.706376107002569,-33.432357648235794L5.687516475629595,-33.56462947464348L5.645230211708007,-33.69525967082897L5.579508989020797,-33.82417934965507L5.490344481350947,-33.951319623984624L5.377728362481444,-34.07661160668052L5.30651597056941,-34.14429530271061L5.237632979143483,-34.201445832171274L5.169014554293944,-34.24840794361801L5.098595862111078,-34.28552638560646L5.0243120686851475,-34.31314590669209L4.9440983401064456,-34.33161125543053L4.855889842465238,-34.34126718037728L4.757621741851818,-34.342458430087945L4.647229204356444,-34.33552975311803L4.52264739606941,-34.32082589802312L4.381811483080983,-34.29869161335877L4.222656631481447,-34.26947164768052L4.112424120012696,-34.248333865429345L4.00425337681478,-34.22789331229627L3.8992823457001933,-34.20834909958677L3.798648970481451,-34.18990033860646L3.703491194971033,-34.17274614066085L3.6149469629814486,-34.15708561705553L3.534154218325195,-34.143117879096025L3.4622509048147827,-34.13104203808795L3.4003749662626963,-34.12105720533678L3.3496643464814464,-34.11336249214813L3.3112569892835295,-34.108157009827515L3.266003350628436,-34.09882239285963L3.241219724990709,-34.08110004803007L3.2124579478251993,-34.05324135739147L3.1802360053888554,-34.01601484314351L3.1450718839386234,-33.970189027485794L3.1074835697314467,-33.91653243261803L3.0679890490242707,-33.85581358073985L3.027106308074039,-33.78880099405089L2.985353333137696,-33.71626319475084L2.943248110472187,-33.638968705039325L2.9013086263344543,-33.557686047116L2.860052866981447,-33.47318374318053L2.7342029715584135,-33.22509366613189L2.603658540097188,-33.002136201166635L2.467562944809571,-32.803690876555535L2.3250595579073736,-32.629137220569426L2.175291751602395,-32.47785476147914L2.017402898106446,-32.349223027555524L1.8505363696313328,-32.242621547069405L1.6738355383888546,-32.15742984829164L1.4864437765908223,-32.09302745949303L1.2875044564490388,-32.04879390894441L1.0761609501753122,-32.02410872491664L0.8515566299814459,-32.01835143568053L0.73778702365332,-32.021920144536715L0.621612932939781,-32.02905681807173L0.5044956634970705,-32.03949462686021L0.38789652098144844,-32.052966741476844L0.27327681104915647,-32.06920633249621L0.16209783935644606,-32.08794657049303L0.055820911559571536,-32.10892062604193L-0.044092666685219814,-32.131861669717566L-0.1361815897216779,-32.156502872094585L-0.21898455189355268,-32.18257740374766L-0.2910402475445954,-32.209818435251414L-0.3508873710185532,-32.23795913718053L-0.4724847475092944,-32.31574330126241L-0.5911705625694778,-32.4160413985023L-0.7054806340810533,-32.53605762201646L-0.8139507799259574,-32.67299616492128L-0.915116817986146,-32.824061220333014L-1.0075145661435536,-32.98645698136802L-1.0896798422801268,-33.15738764114261L-1.1601484642778126,-33.33405739277312L-1.2174562500185528,-33.51367042937583L-1.2601390173842937,-33.69343094406709L-1.2867325842569783,-33.8705431299632L-1.2957727685185532,-34.04221118018052L-1.2837571735396767,-34.18189644053699L-1.2501794195625342,-34.34360043878238L-1.1981887932763642,-34.52103415255552L-1.1309345813704044,-34.707908559495344L-1.0515660705338887,-34.89793463724071L-0.9632325474560522,-35.08482336343052L-0.8690832988261347,-35.26228571570368L-0.7722676113333664,-35.424032671699045L-0.6759347716669905,-35.56377520905552L-0.583234066516237,-35.675224305412L-0.49731478257034617,-35.752090938407385L-0.42132620651855246,-35.78808608568053L-0.3787638879592361,-35.79216540935499L-0.2921278662106826,-35.796869985118036L-0.16469720829198992,-35.80211326445397L0.0002490187777451691,-35.807808698847204L0.19943174797942326,-35.813869739782106L0.42957191229394626,-35.82020983874301L0.6873904447022218,-35.82674244721438L0.9696082781851504,-35.833381016680526L1.2729463457236339,-35.84003899862583L1.5941255802985745,-35.8466298445347L1.929866914890878,-35.853067005891454L2.2768912824814467,-35.859263934180525L2.6527079259788398,-35.86734692848202L3.0080933353356163,-35.87822584850923L3.3412167202236347,-35.89173765757114L3.650247290314785,-35.90771931897684L3.9333542552809266,-35.926007796035265L4.188706824793945,-35.94644005205553L4.414474208525718,-35.96885305034661L4.608825616148113,-35.99308375421756L4.769930257333009,-36.0189691269774L4.89595734175228,-36.04634613193516L4.985076079077801,-36.07505173239986L5.035455678981446,-36.10492289168052L5.106703771196145,-36.25057775536049L5.073028233282374,-36.424831745953675L4.948773902653323,-36.619093522039904L4.74828561672219,-36.82477174219906L4.485908212902164,-37.03327506501097L4.1759865286064475,-37.236012149055526L3.832865401248228,-37.42439165291258L3.470889668240709,-37.58982223516201L3.1044041669970706,-37.72371255438364L2.747753734930519,-37.817471269157366L2.415283209454249,-37.86250703806305L2.1213374279814468,-37.85022851968051L1.9962348616698151,-37.83232714420771L1.882924583363393,-37.821919136064786L1.7792768156298857,-37.8198284681649L1.6831617810370054,-37.82687911342128L1.5924497021524544,-37.84389504474707L1.5050108015439467,-37.87170023505551L1.41871530177919,-37.91111865725981L1.3314334254258913,-37.962974284273116L1.2410353950517583,-38.02809108900865L1.1453914332245008,-38.107293044379595L1.042371762511828,-38.201404123299156L0.9298466054814467,-38.31124829868052L0.7578415512464913,-38.499378373361644L0.6167551823518186,-38.688648016837924L0.5065903995126982,-38.87876717213364L0.427350103444411,-39.069445782273114L0.37903719486223364,-39.26039379028065L0.36165457448144567,-39.451321139180514L0.3752051430173266,-39.64193777199708L0.41969180118515026,-39.83195363175461L0.4951174497001961,-40.021078661477404L0.6014849892777423,-40.20902280418978L0.7387973206330669,-40.395496002916055L0.9070573444814465,-40.58020820068053L1.0132127862317346,-40.682856283136836L1.1140389179420958,-40.77232154841434L1.211604272176759,-40.84941539400084L1.3079773814999667,-40.91494921738425L1.4052267784759493,-40.96973441605235L1.5054209956689466,-41.014582387493036L1.6106285656431947,-41.05030452919413L1.7229180209629287,-41.0777122386435L1.8443578941923837,-41.097616913328956L1.977016717895799,-41.11082995073839L2.122963024637408,-41.11816274835963L2.284265346981447,-41.12042670368053L2.4668953999203924,-41.118955462589376L2.624389874576357,-41.11293945307636L2.760779176583009,-41.09997524578209L2.8800937115740437,-41.0776594113472L2.986363885183125,-41.04358852041231L3.0836201030439474,-40.995359143618025L3.175892770790183,-40.930567851605L3.2672122940555224,-40.84681121501386L3.361609078473634,-40.74168580448521L3.463113529678205,-40.612788190659685L3.5757560533029182,-40.457714944177916L3.7035670549814466,-40.274062635680515L3.87382002019296,-40.04800817006564L4.063170283423575,-39.835756488886545L4.269571896942384,-39.638423433766455L4.490978913018487,-39.45712484632868L4.725345383920973,-39.29297656819644L4.970625361918945,-39.14709444099304L5.224772899281503,-39.02059430634169L5.485742048277742,-38.914592005865714L5.751486861176759,-38.83020338118833L6.019961390247648,-38.76854427393284L6.289119687759512,-38.73073052572248L6.556915805981446,-38.71787797818053L6.7465600176573695,-38.726779926139145L6.9224885803471885,-38.759342467766174L7.091917823668946,-38.824350649688355L7.262064077240709,-38.93058951853239L7.440143670680519,-39.086844120925015L7.633372933606447,-39.301899503493026L7.848968195636535,-39.58454071286311L8.094145786388854,-39.943552795662015L8.376122035481442,-40.38772079851646L8.702113272532372,-40.92582976805321L9.079335827159685,-41.56666475089899L9.515006028981444,-42.319010793680526L10.078271368494462,-43.26540747394585L10.624232963960615,-44.11792843421988L11.155582768895508,-44.87904700721957L11.675012736814782,-45.55123652566201L12.185214821234052,-46.136970322264155L12.688880975668942,-46.63872172974302L13.188703153635089,-47.05896408081564L13.68737330864811,-47.40017070819905L14.18758339422363,-47.66481494461021L14.692025363877276,-47.85537012276616L15.203391171124673,-47.974309575383934L15.724372769481443,-48.02410663518052L15.98444231353671,-48.023397927298284L16.22637279000691,-48.00340629987265L16.453312035223636,-47.962035251235214L16.668407885518484,-47.897188279717575L16.874808177223052,-47.8067688836513L17.075660746668948,-47.68868056136802L17.274113430187757,-47.540826811199324L17.473314064111072,-47.36111113147682L17.676410484770503,-47.14743702053209L17.886550528497647,-46.89770797669672L18.10688203162409,-46.60982749830232L18.340552830481446,-46.281699083680515L18.569509001724207,-45.93542303272188L18.807366961256907,-45.54749134005321L19.04978260903613,-45.12689779223522L19.29241184501849,-44.68263617582868L19.53091056916056,-44.22370027739435L19.760934681418945,-43.75908388349302L19.978140081750247,-43.297780780685436L20.17818267011108,-42.84878475553239L20.356718346458006,-42.421089594594584L20.509403010747647,-42.02368908443284L20.631892562936596,-41.665577011607894L20.719842902981444,-41.35574716268053L20.84731154749678,-40.911513084474784L21.016997767270798,-40.435114412784706L21.22108965714551,-39.940042260375854L21.45177531196293,-39.439787740013855L21.701242826565068,-38.947841964464374L21.961680295793943,-38.47769604649302L22.225275814491567,-38.04284109886541L22.484217477499964,-37.656768234347204L22.73069337966113,-37.332968565703965L22.956891615817092,-37.08493320570135L23.155000280809855,-36.926153267105L23.317207469481442,-36.870119862680525L23.407452427299436,-36.87583071055956L23.486300365650425,-36.89687333754627L23.555461355629884,-36.9388357387899L23.6166454683333,-37.00730590943979L23.671562774856152,-37.10787184464523L23.721923346293945,-37.246121539555524L23.769437253742154,-37.427642989319985L23.81581456829626,-37.65802418908794L23.862765361051757,-37.94285313400865L23.911999703104126,-38.28771781923144L23.965227665548863,-38.69820623990564L24.02415931948145,-39.179906391180516L24.08893274962062,-39.69877094275256L24.153089707428208,-40.162181746673596L24.219546675364253,-40.58030045725083L24.29122013588886,-40.963288728791646L24.371026571462053,-41.32130821560325L24.461882464543944,-41.66452057199302L24.566704297594576,-42.0030874522682L24.68840855307404,-42.34717051073609L24.829911713442378,-42.70693140170397L24.994130261159683,-43.09253177947914L25.183980678686016,-43.5141332983689L25.402379448481444,-43.98189761268052L25.657301151826637,-44.476937710892024L25.997596117868017,-45.06915029387266L26.41250698336426,-45.743248997141464L26.89127638507404,-46.48394745621758L27.423146959756036,-47.27595930662005L27.997361344168944,-48.103998183868015L28.60316217507143,-48.95277772348057L29.22979208922219,-49.807011560976825L29.86649372337988,-50.65141333187583L30.5025097143032,-51.470696671696714L31.127082698750826,-52.249575215958586L31.72945531348144,-52.972762600180516L32.35302052614001,-53.733579034337346L32.9304439444583,-54.49547976847681"/>
</svg>