 0
SECTION
 2
ENTITIES
  0
POLYLINE
 8
Layer0
 66
     1
70
    8
 10
0.0
 20
 0.0
 30
0.0
  0
VERTEX
  8
MY3DLAYER
10
9.045300853881896
20
36.023518928592075
30
-2.2204460492503126e-16
 70
     32
  0
VERTEX
  8
MY3DLAYER
10
7.365332952573168
20
37.84109959451377
30
-2.2204460492503126e-16
 70
     32
  0
VERTEX
  8
MY3DLAYER
10
5.7317566933361075
20
39.70048665261039
30
-2.2204460492503126e-16
 70
     32
  0
VERTEX
  8
MY3DLAYER
10
5.143622795888232
20
40.43524867225279
30
-2.2204460492503126e-16
 70
     32
  0
VERTEX
  8
MY3DLAYER
10
4.60555971191411
20
41.207430531985636
30
-2.2204460492503126e-16
 70
     32
  0
VERTEX
  8
MY3DLAYER
10
4.084382108862214
20
42.11442669598228
30
-2.2204460492503126e-16
 70
     32
  0
VERTEX
  8
MY3DLAYER
10
3.663658186781077
20
43.07216335958885
30
-2.2204460492503126e-16
 70
     32
  0
VERTEX
  8
MY3DLAYER
10
3.4136928314094765
20
43.82263004532954
30
-2.2204460492503126e-16
 70
     32
  0
VERTEX
  8
MY3DLAYER
10
3.2223059619140733
20
44.59012857397789
30
-2.2204460492503126e-16
 70
     32
  0
VERTEX
  8
MY3DLAYER
10
3.0315043003722897
20
45.85220015395902
30
-2.2204460492503126e-16
 70
     32
  0
VERTEX
  8
MY3DLAYER
10
2.982353655217124
20
47.12766640640319
30
-2.2204460492503126e-16
 70
     32
  0
VERTEX
  8
MY3DLAYER
10
2.9803882440674268
20
47.44648836145416
30
-2.2204460492503126e-16
 70
     32
  0
VERTEX
  8
MY3DLAYER
10
2.9635016015624975
20
47.76486886206379
30
-2.2204460492503126e-16
 70
     32
  0
VERTEX
  8
MY3DLAYER
10
2.8793632487653573
20
48.2635039093349
30
-2.2204460492503126e-16
 70
     32
  0
VERTEX
  8
MY3DLAYER
10
2.7065906170893324
20
48.73875730545345
30
-2.2204460492503126e-16
 70
     32
  0
VERTEX
  8
MY3DLAYER
10
2.5616475515289205
20
49.02022768611067
30
-2.2204460492503126e-16
 70
     32
  0
VERTEX
  8
MY3DLAYER
10
2.396782499999986
20
49.290511948001296
30
-2.2204460492503126e-16
 70
     32
  0
VERTEX
  8
MY3DLAYER
10
1.3851035476366034
20
51.0727368975796
30
-2.2204460492503126e-16
 70
     32
  0
VERTEX
  8
MY3DLAYER
10
0.6225600466995755
20
52.974932335155195
30
-2.2204460492503126e-16
 70
     32
  0
VERTEX
  8
MY3DLAYER
10
0.37846242886669745
20
53.87499315279734
30
-2.2204460492503126e-16
 70
     32
  0
VERTEX
  8
MY3DLAYER
10
0.22344250000003282
20
54.79459194800128
30
-2.2204460492503126e-16
 70
     32
  0
VERTEX
  8
MY3DLAYER
10
0.12305321040255987
20
55.675957459274656
30
-2.2204460492503126e-16
 70
     32
  0
VERTEX
  8
MY3DLAYER
10
0.0309111189710336
20
56.5582232972819
30
-2.2204460492503126e-16
 70
     32
  0
VERTEX
  8
MY3DLAYER
10
0.01131498006063225
20
56.79656692565885
30
-2.2204460492503126e-16
 70
     32
  0
VERTEX
  8
MY3DLAYER
10
2.8421709430404e-14
20
57.035446948001265
30
-2.2204460492503126e-16
 70
     32
  0
VERTEX
  8
MY3DLAYER
10
0.025869701875336652
20
57.70001907329833
30
-2.2204460492503126e-16
 70
     32
  0
VERTEX
  8
MY3DLAYER
10
0.14276640008118585
20
58.35474077993831
30
-2.2204460492503126e-16
 70
     32
  0
VERTEX
  8
MY3DLAYER
10
0.5765746096219572
20
59.34155563831228
30
-2.2204460492503126e-16
 70
     32
  0
VERTEX
  8
MY3DLAYER
10
1.3124452587890825
20
60.12926593725914
30
-2.2204460492503126e-16
 70
     32
  0
VERTEX
  8
MY3DLAYER
10
1.9164352451003732
20
60.47953284807184
30
-2.2204460492503126e-16
 70
     32
  0
VERTEX
  8
MY3DLAYER
10
2.5884120343730213
20
60.66910607153284
30
-2.2204460492503126e-16
 70
     32
  0
VERTEX
  8
MY3DLAYER
10
3.15993196623259
20
60.741652668827754
30
-2.2204460492503126e-16
 70
     32
  0
VERTEX
  8
MY3DLAYER
10
3.7342225000000147
20
60.78735194800129
30
-2.2204460492503126e-16
 70
     32
  0
VERTEX
  8
MY3DLAYER
10
4.724525619784017
20
60.85440712904787
30
-2.2204460492503126e-16
 70
     32
  0
VERTEX
  8
MY3DLAYER
10
5.713001788497237
20
60.94447116318568
30
-2.2204460492503126e-16
 70
     32
  0
VERTEX
  8
MY3DLAYER
10
6.700607819691056
20
61.042995390662334
30
-2.2204460492503126e-16
 70
     32
  0
VERTEX
  8
MY3DLAYER
10
7.6887980859375045
20
61.13547616675125
30
-2.2204460492503126e-16
 70
     32
  0
VERTEX
  8
MY3DLAYER
10
8.79983669735135
20
61.213094782295066
30
-2.2204460492503126e-16
 70
     32
  0
VERTEX
  8
MY3DLAYER
10
9.913123562635844
20
61.24509167458794
30
-2.2204460492503126e-16
 70
     32
  0
VERTEX
  8
MY3DLAYER
10
11.026250705144433
20
61.296506070559644
30
-2.2204460492503126e-16
 70
     32
  0
VERTEX
  8
MY3DLAYER
10
12.1322797265625
20
61.432135268313765
30
-2.2204460492503126e-16
 70
     32
  0
VERTEX
  8
MY3DLAYER
10
13.608893668102322
20
61.71095440392196
30
-2.2204460492503126e-16
 70
     32
  0
VERTEX
  8
MY3DLAYER
10
15.06853719598011
20
62.06812329150259
30
-2.2204460492503126e-16
 70
     32
  0
VERTEX
  8
MY3DLAYER
10
16.520856363108106
20
62.45210532110647
30
-2.2204460492503126e-16
 70
     32
  0
VERTEX
  8
MY3DLAYER
10
17.979262709960928
20
62.81227762671227
30
-2.2204460492503126e-16
 70
     32
  0
VERTEX
  8
MY3DLAYER
10
19.282974648086874
20
63.09533083746103
30
-2.2204460492503126e-16
 70
     32
  0
VERTEX
  8
MY3DLAYER
10
20.59702887163213
20
63.32564678417364
30
-2.2204460492503126e-16
 70
     32
  0
VERTEX
  8
MY3DLAYER
10
21.91377012909502
20
63.53857987491082
30
-2.2204460492503126e-16
 70
     32
  0
VERTEX
  8
MY3DLAYER
10
23.227420546875003
20
63.769817026126304
30
-2.2204460492503126e-16
 70
     32
  0
VERTEX
  8
MY3DLAYER
10
24.801173803493207
20
64.09902193917631
30
-2.2204460492503126e-16
 70
     32
  0
VERTEX
  8
MY3DLAYER
10
26.356497823713145
20
64.50650491994907
30
-2.2204460492503126e-16
 70
     32
  0
VERTEX
  8
MY3DLAYER
10
27.24326170062188
20
64.8045978662571
30
-2.2204460492503126e-16
 70
     32
  0
VERTEX
  8
MY3DLAYER
10
28.101109375
20
65.17783632300129
30
-2.2204460492503126e-16
 70
     32
  0
VERTEX
  8
MY3DLAYER
10
29.136877771035167
20
65.77652921666149
30
-2.2204460492503126e-16
 70
     32
  0
VERTEX
  8
MY3DLAYER
10
30.07798009568149
20
66.51516022446563
30
-2.2204460492503126e-16
 70
     32
  0
VERTEX
  8
MY3DLAYER
10
30.642520966013425
20
67.05365842711626
30
-2.2204460492503126e-16
 70
     32
  0
VERTEX
  8
MY3DLAYER
10
31.17866812500001
20
67.62043257300127
30
-2.2204460492503126e-16
 70
     32
  0
VERTEX
  8
MY3DLAYER
10
31.876596483675094
20
68.4047767523046
30
-2.2204460492503126e-16
 70
     32
  0
VERTEX
  8
MY3DLAYER
10
32.566981898203615
20
69.1957683861771
30
-2.2204460492503126e-16
 70
     32
  0
VERTEX
  8
MY3DLAYER
10
32.7570990083718
20
69.42339630637704
30
-2.2204460492503126e-16
 70
     32
  0
VERTEX
  8
MY3DLAYER
10
32.93938924804687
20
69.6573391501498
30
-2.2204460492503126e-16
 70
     32
  0
VERTEX
  8
MY3DLAYER
10
33.354984496004995
20
70.29701980697395
30
-2.2204460492503126e-16
 70
     32
  0
VERTEX
  8
MY3DLAYER
10
33.67888128233265
20
70.98767284913555
30
-2.2204460492503126e-16
 70
     32
  0
VERTEX
  8
MY3DLAYER
10
33.83496239175202
20
71.3668670651859
30
-2.2204460492503126e-16
 70
     32
  0
VERTEX
  8
MY3DLAYER
10
34.00666249999998
20
71.73924944800129
30
-2.2204460492503126e-16
 70
     32
  0
VERTEX
  8
MY3DLAYER
10
34.212093732977884
20
72.10480328064922
30
-2.2204460492503126e-16
 70
     32
  0
VERTEX
  8
MY3DLAYER
10
34.45925084415473
20
72.44354353282068
30
-2.2204460492503126e-16
 70
     32
  0
VERTEX
  8
MY3DLAYER
10
34.72636534459716
20
72.72850243276304
30
-2.2204460492503126e-16
 70
     32
  0
VERTEX
  8
MY3DLAYER
10
35.02745639648436
20
72.97729131811852
30
-2.2204460492503126e-16
 70
     32
  0
VERTEX
  8
MY3DLAYER
10
35.56080441457562
20
73.31042857740383
30
-2.2204460492503126e-16
 70
     32
  0
VERTEX
  8
MY3DLAYER
10
36.13474194964622
20
73.56740376640683
30
-2.2204460492503126e-16
 70
     32
  0
VERTEX
  8
MY3DLAYER
10
37.70812829925223
20
74.07437664656672
30
-2.2204460492503126e-16
 70
     32
  0
VERTEX
  8
MY3DLAYER
10
39.31744062499997
20
74.45210663550128
30
-2.2204460492503126e-16
 70
     32
  0
VERTEX
  8
MY3DLAYER
10
40.94250040333259
20
74.71897060576583
30
-2.2204460492503126e-16
 70
     32
  0
VERTEX
  8
MY3DLAYER
10
42.57966329557133
20
74.89710910821938
30
-2.2204460492503126e-16
 70
     32
  0
VERTEX
  8
MY3DLAYER
10
45.196149555835184
20
75.06511274547114
30
-2.2204460492503126e-16
 70
     32
  0
VERTEX
  8
MY3DLAYER
10
47.81684570312498
20
75.14370839331374
30
-2.2204460492503126e-16
 70
     32
  0
VERTEX
  8
MY3DLAYER
10
49.501302162960116
20
75.15785453194142
30
-2.2204460492503126e-16
 70
     32
  0
VERTEX
  8
MY3DLAYER
10
51.185817688460304
20
75.15679497207341
30
-2.2204460492503126e-16
 70
     32
  0
VERTEX
  8
MY3DLAYER
10
52.09300050643322
20
75.17200161574021
30
-2.2204460492503126e-16
 70
     32
  0
VERTEX
  8
MY3DLAYER
10
52.99864707031251
20
75.22692163550127
30
-2.2204460492503126e-16
 70
     32
  0
VERTEX
  8
MY3DLAYER
10
53.74285862512522
20
75.3237011890557
30
-2.2204460492503126e-16
 70
     32
  0
VERTEX
  8
MY3DLAYER
10
54.474751809415864
20
75.48968157070333
30
-2.2204460492503126e-16
 70
     32
  0
VERTEX
  8
MY3DLAYER
10
55.4808169942058
20
75.93262617571068
30
-2.2204460492503126e-16
 70
     32
  0
VERTEX
  8
MY3DLAYER
10
56.31838260253912
20
76.64456081518878
30
-2.2204460492503126e-16
 70
     32
  0
VERTEX
  8
MY3DLAYER
10
56.76098256932471
20
77.22402451677127
30
-2.2204460492503126e-16
 70
     32
  0
VERTEX
  8
MY3DLAYER
10
57.11948629769972
20
77.85896387512884
30
-2.2204460492503126e-16
 70
     32
  0
VERTEX
  8
MY3DLAYER
10
57.668166229197396
20
79.126520366847
30
-2.2204460492503126e-16
 70
     32
  0
VERTEX
  8
MY3DLAYER
10
58.12332135681146
20
80.43058437475915
30
-2.2204460492503126e-16
 70
     32
  0
VERTEX
  8
MY3DLAYER
10
58.525234191640926
20
81.76287875722697
30
-2.2204460492503126e-16
 70
     32
  0
VERTEX
  8
MY3DLAYER
10
58.90987695751787
20
83.1002613468454
30
-2.2204460492503126e-16
 70
     32
  0
VERTEX
  8
MY3DLAYER
10
59.64256641645945
20
85.57879250150225
30
-2.2204460492503126e-16
 70
     32
  0
VERTEX
  8
MY3DLAYER
10
60.44360749999998
20
88.03608444800126
30
-2.2204460492503126e-16
 70
     32
  0
VERTEX
  8
MY3DLAYER
10
61.19580271441361
20
90.09622010904907
30
-2.2204460492503126e-16
 70
     32
  0
VERTEX
  8
MY3DLAYER
10
62.03428106179687
20
92.12277152548963
30
-2.2204460492503126e-16
 70
     32
  0
VERTEX
  8
MY3DLAYER
10
62.376224175988085
20
92.82767100185457
30
-2.2204460492503126e-16
 70
     32
  0
VERTEX
  8
MY3DLAYER
10
62.77102888671874
20
93.50438187475912
30
-2.2204460492503126e-16
 70
     32
  0
VERTEX
  8
MY3DLAYER
10
63.29718441767406
20
94.2029616782939
30
-2.2204460492503126e-16
 70
     32
  0
VERTEX
  8
MY3DLAYER
10
63.92688917882946
20
94.80985977389132
30
-2.2204460492503126e-16
 70
     32
  0
VERTEX
  8
MY3DLAYER
10
64.11855650926447
20
94.92872316093221
30
-2.2204460492503126e-16
 70
     32
  0
VERTEX
  8
MY3DLAYER
10
64.33468997558583
20
94.99315292944662
30
-2.2204460492503126e-16
 70
     32
  0
VERTEX
  8
MY3DLAYER
10
64.48999119370961
20
94.98812455201248
30
-2.2204460492503126e-16
 70
     32
  0
VERTEX
  8
MY3DLAYER
10
64.63242533109002
20
94.92602568375347
30
-2.2204460492503126e-16
 70
     32
  0
VERTEX
  8
MY3DLAYER
10
64.7679754919944
20
94.79814557447698
30
-2.2204460492503126e-16
 70
     32
  0
VERTEX
  8
MY3DLAYER
10
64.85780249999996
20
94.63487194800125
30
-2.2204460492503126e-16
 70
     32
  0
VERTEX
  8
MY3DLAYER
10
64.89922865264586
20
94.47003113388281
30
-2.2204460492503126e-16
 70
     32
  0
VERTEX
  8
MY3DLAYER
10
64.90674486998299
20
94.30023087887947
30
-2.2204460492503126e-16
 70
     32
  0
VERTEX
  8
MY3DLAYER
10
64.8187563965717
20
93.17833568493946
30
-2.2204460492503126e-16
 70
     32
  0
VERTEX
  8
MY3DLAYER
10
64.68258499999999
20
92.06126444800127
30
-2.2204460492503126e-16
 70
     32
  0
VERTEX
  8
MY3DLAYER
10
64.51496834297623
20
90.97120173985492
30
-2.2204460492503126e-16
 70
     32
  0
VERTEX
  8
MY3DLAYER
10
64.32611966166127
20
89.88461615787406
30
-2.2204460492503126e-16
 70
     32
  0
VERTEX
  8
MY3DLAYER
10
64.16443300572192
20
88.79303639560621
30
-2.2204460492503126e-16
 70
     32
  0
VERTEX
  8
MY3DLAYER
10
64.0790127050781
20
87.69285808081378
30
-2.2204460492503126e-16
 70
     32
  0
VERTEX
  8
MY3DLAYER
10
64.07609178384806
20
87.01867363184239
30
-2.2204460492503126e-16
 70
     32
  0
VERTEX
  8
MY3DLAYER
10
64.12486752818856
20
86.34624956194327
30
-2.2204460492503126e-16
 70
     32
  0
VERTEX
  8
MY3DLAYER
10
64.23804402194142
20
85.56266090692428
30
-2.2204460492503126e-16
 70
     32
  0
VERTEX
  8
MY3DLAYER
10
64.40212648437492
20
84.78813069800124
30
-2.2204460492503126e-16
 70
     32
  0
VERTEX
  8
MY3DLAYER
10
64.66980692786308
20
83.69020478487438
30
-2.2204460492503126e-16
 70
     32
  0
VERTEX
  8
MY3DLAYER
10
64.93247615562964
20
82.59106921210551
30
-2.2204460492503126e-16
 70
     32
  0
VERTEX
  8
MY3DLAYER
10
65.03981045615771
20
82.07496997362097
30
-2.2204460492503126e-16
 70
     32
  0
VERTEX
  8
MY3DLAYER
10
65.1188736865235
20
81.55379046362629
30
-2.2204460492503126e-16
 70
     32
  0
VERTEX
  8
MY3DLAYER
10
65.1718348380912
20
80.73834699509615
30
-2.2204460492503126e-16
 70
     32
  0
VERTEX
  8
MY3DLAYER
10
65.1293297177921
20
79.92229169752606
30
-2.2204460492503126e-16
 70
     32
  0
VERTEX
  8
MY3DLAYER
10
65.08868154498836
20
79.48470202369373
30
-2.2204460492503126e-16
 70
     32
  0
VERTEX
  8
MY3DLAYER
10
65.06368808593746
20
79.0459397605014
30
-2.2204460492503126e-16
 70
     32
  0
VERTEX
  8
MY3DLAYER
10
65.06966338618352
20
78.8345156473926
30
-2.2204460492503126e-16
 70
     32
  0
VERTEX
  8
MY3DLAYER
10
65.10395442650852
20
78.62580535926496
30
-2.2204460492503126e-16
 70
     32
  0
VERTEX
  8
MY3DLAYER
10
65.13795865149973
20
78.54447560937535
30
-2.2204460492503126e-16
 70
     32
  0
VERTEX
  8
MY3DLAYER
10
65.19659764587398
20
78.47865552222
30
-2.2204460492503126e-16
 70
     32
  0
VERTEX
  8
MY3DLAYER
10
65.3527927911653
20
78.41331519398666
30
-2.2204460492503126e-16
 70
     32
  0
VERTEX
  8
MY3DLAYER
10
65.51978477860058
20
78.44124292283504
30
-2.2204460492503126e-16
 70
     32
  0
VERTEX
  8
MY3DLAYER
10
65.75862421493017
20
78.57036079018863
30
-2.2204460492503126e-16
 70
     32
  0
VERTEX
  8
MY3DLAYER
10
65.98370240722647
20
78.72220119116541
30
-2.2204460492503126e-16
 70
     32
  0
VERTEX
  8
MY3DLAYER
10
66.38660940636183
20
79.04983217725186
30
-2.2204460492503126e-16
 70
     32
  0
VERTEX
  8
MY3DLAYER
10
66.76183338735413
20
79.40883507011561
30
-2.2204460492503126e-16
 70
     32
  0
VERTEX
  8
MY3DLAYER
10
68.20002572359638
20
80.9710073119154
30
-2.2204460492503126e-16
 70
     32
  0
VERTEX
  8
MY3DLAYER
10
69.56456250000002
20
82.59791194800125
30
-2.2204460492503126e-16
 70
     32
  0
VERTEX
  8
MY3DLAYER
10
70.21484042554115
20
83.45123985049995
30
-2.2204460492503126e-16
 70
     32
  0
VERTEX
  8
MY3DLAYER
10
70.82403381105948
20
84.33436685646774
30
-2.2204460492503126e-16
 70
     32
  0
VERTEX
  8
MY3DLAYER
10
71.52323160130231
20
85.44738437760775
30
-2.2204460492503126e-16
 70
     32
  0
VERTEX
  8
MY3DLAYER
10
72.17894736145013
20
86.58656056860673
30
-2.2204460492503126e-16
 70
     32
  0
VERTEX
  8
MY3DLAYER
10
72.90190823599451
20
87.94710250628889
30
-2.2204460492503126e-16
 70
     32
  0
VERTEX
  8
MY3DLAYER
10
73.58497193501611
20
89.32810604480463
30
-2.2204460492503126e-16
 70
     32
  0
VERTEX
  8
MY3DLAYER
10
74.25194342771229
20
90.71677961822616
30
-2.2204460492503126e-16
 70
     32
  0
VERTEX
  8
MY3DLAYER
10
74.92718249999999
20
92.10145194800126
30
-2.2204460492503126e-16
 70
     32
  0
VERTEX
  8
MY3DLAYER
10
75.67616977085586
20
93.54996768027424
30
-2.2204460492503126e-16
 70
     32
  0
VERTEX
  8
MY3DLAYER
10
76.48392805905104
20
94.96655029572543
30
-2.2204460492503126e-16
 70
     32
  0
VERTEX
  8
MY3DLAYER
10
77.1114222900732
20
95.9511527097862
30
-2.2204460492503126e-16
 70
     32
  0
VERTEX
  8
MY3DLAYER
10
77.79429061523433
20
96.89819113257165
30
-2.2204460492503126e-16
 70
     32
  0
VERTEX
  8
MY3DLAYER
10
78.51491933348206
20
97.75666170199369
30
-2.2204460492503126e-16
 70
     32
  0
VERTEX
  8
MY3DLAYER
10
79.3097102642832
20
98.54696850599032
30
-2.2204460492503126e-16
 70
     32
  0
VERTEX
  8
MY3DLAYER
10
79.77986102129839
20
98.90579271530358
30
-2.2204460492503126e-16
 70
     32
  0
VERTEX
  8
MY3DLAYER
10
80.30433357788088
20
99.17915160925618
30
-2.2204460492503126e-16
 70
     32
  0
VERTEX
  8
MY3DLAYER
10
80.76933922294985
20
99.3145783965176
30
-2.2204460492503126e-16
 70
     32
  0
VERTEX
  8
MY3DLAYER
10
81.25277252638048
20
99.34395365461228
30
-2.2204460492503126e-16
 70
     32
  0
VERTEX
  8
MY3DLAYER
10
81.56265715172661
20
99.27338598808997
30
-2.2204460492503126e-16
 70
     32
  0
VERTEX
  8
MY3DLAYER
10
81.8301628842163
20
99.10177899618854
30
-2.2204460492503126e-16
 70
     32
  0
VERTEX
  8
MY3DLAYER
10
82.00226743243952
20
98.88286689003924
30
-2.2204460492503126e-16
 70
     32
  0
VERTEX
  8
MY3DLAYER
10
82.09629190821063
20
98.62075644825217
30
-2.2204460492503126e-16
 70
     32
  0
VERTEX
  8
MY3DLAYER
10
82.14818790019892
20
98.10121841903417
30
-2.2204460492503126e-16
 70
     32
  0
VERTEX
  8
MY3DLAYER
10
82.11253638916016
20
97.58031350683923
30
-2.2204460492503126e-16
 70
     32
  0
VERTEX
  8
MY3DLAYER
10
81.9745736610164
20
96.88986934097723
30
-2.2204460492503126e-16
 70
     32
  0
VERTEX
  8
MY3DLAYER
10
81.77519650987233
20
96.21459486927593
30
-2.2204460492503126e-16
 70
     32
  0
VERTEX
  8
MY3DLAYER
10
81.50024843127758
20
95.41562668191544
30
-2.2204460492503126e-16
 70
     32
  0
VERTEX
  8
MY3DLAYER
10
81.22625916015622
20
94.61632918432939
30
-2.2204460492503126e-16
 70
     32
  0
VERTEX
  8
MY3DLAYER
10
81.12844156643527
20
94.29411981386234
30
-2.2204460492503126e-16
 70
     32
  0
VERTEX
  8
MY3DLAYER
10
81.05332994922621
20
93.96587386184109
30
-2.2204460492503126e-16
 70
     32
  0
VERTEX
  8
MY3DLAYER
10
80.9640742899107
20
93.47980480256997
30
-2.2204460492503126e-16
 70
     32
  0
VERTEX
  8
MY3DLAYER
10
80.8830516308593
20
92.99229579565751
30
-2.2204460492503126e-16
 70
     32
  0
VERTEX
  8
MY3DLAYER
10
80.76621299655802
20
92.20209434040164
30
-2.2204460492503126e-16
 70
     32
  0
VERTEX
  8
MY3DLAYER
10
80.66431327912517
20
91.40982793701136
30
-2.2204460492503126e-16
 70
     32
  0
VERTEX
  8
MY3DLAYER
10
80.56620736428614
20
90.52184468788829
30
-2.2204460492503126e-16
 70
     32
  0
VERTEX
  8
MY3DLAYER
10
80.48310437500001
20
89.63233194800128
30
-2.2204460492503126e-16
 70
     32
  0
VERTEX
  8
MY3DLAYER
10
80.3043186104336
20
86.81791181150959
30
-2.2204460492503126e-16
 70
     32
  0
VERTEX
  8
MY3DLAYER
10
80.24541184377237
20
83.99843401462184
30
-2.2204460492503126e-16
 70
     32
  0
VERTEX
  8
MY3DLAYER
10
80.2510630969119
20
81.17379499552956
30
-2.2204460492503126e-16
 70
     32
  0
VERTEX
  8
MY3DLAYER
10
80.26584070312497
20
78.34918897925127
30
-2.2204460492503126e-16
 70
     32
  0
VERTEX
  8
MY3DLAYER
10
80.26574065777997
20
74.80456114957539
30
-2.2204460492503126e-16
 70
     32
  0
VERTEX
  8
MY3DLAYER
10
80.21690057867836
20
71.26026980889876
30
-2.2204460492503126e-16
 70
     32
  0
VERTEX
  8
MY3DLAYER
10
80.09967693259416
20
68.54838658715295
30
-2.2204460492503126e-16
 70
     32
  0
VERTEX
  8
MY3DLAYER
10
79.86033744689934
20
65.84454328507809
30
-2.2204460492503126e-16
 70
     32
  0
VERTEX
  8
MY3DLAYER
10
79.57024123750556
20
63.73203380767285
30
-2.2204460492503126e-16
 70
     32
  0
VERTEX
  8
MY3DLAYER
10
79.17225784621772
20
61.6371683410878
30
-2.2204460492503126e-16
 70
     32
  0
VERTEX
  8
MY3DLAYER
10
78.96680708514663
20
60.85457419677954
30
-2.2204460492503126e-16
 70
     32
  0
VERTEX
  8
MY3DLAYER
10
78.69435874999996
20
60.09271101050128
30
-2.2204460492503126e-16
 70
     32
  0
VERTEX
  8
MY3DLAYER
10
78.53779643288124
20
59.69992385661246
30
-2.2204460492503126e-16
 70
     32
  0
VERTEX
  8
MY3DLAYER
10
78.38713972242306
20
59.304833913693614
30
-2.2204460492503126e-16
 70
     32
  0
VERTEX
  8
MY3DLAYER
10
78.29737957099056
20
58.90516062057358
30
-2.2204460492503126e-16
 70
     32
  0
VERTEX
  8
MY3DLAYER
10
78.31820374999997
20
58.49606163550129
30
-2.2204460492503126e-16
 70
     32
  0
VERTEX
  8
MY3DLAYER
10
78.42421222711947
20
58.104188430802054
30
-2.2204460492503126e-16
 70
     32
  0
VERTEX
  8
MY3DLAYER
10
78.58940779745194
20
57.733361207792484
30
-2.2204460492503126e-16
 70
     32
  0
VERTEX
  8
MY3DLAYER
10
79.19722910294502
20
56.67710890884886
30
-2.2204460492503126e-16
 70
     32
  0
VERTEX
  8
MY3DLAYER
10
79.85838968749995
20
55.65339882300128
30
-2.2204460492503126e-16
 70
     32
  0
VERTEX
  8
MY3DLAYER
10
80.67522582982684
20
54.48303817455079
30
-2.2204460492503126e-16
 70
     32
  0
VERTEX
  8
MY3DLAYER
10
81.51588047615834
20
53.32966698692119
30
-2.2204460492503126e-16
 70
     32
  0
VERTEX
  8
MY3DLAYER
10
82.33705290981986
20
52.161787765926114
30
-2.2204460492503126e-16
 70
     32
  0
VERTEX
  8
MY3DLAYER
10
83.09335471191412
20
50.95088990698565
30
-2.2204460492503126e-16
 70
     32
  0
VERTEX
  8
MY3DLAYER
10
84.65878362332059
20
48.11299178504143
30
-2.2204460492503126e-16
 70
     32
  0
VERTEX
  8
MY3DLAYER
10
86.0690493749855
20
45.194878706889234
30
-2.2204460492503126e-16
 70
     32
  0
VERTEX
  8
MY3DLAYER
10
87.61255078173674
20
41.55574472827596
30
-2.2204460492503126e-16
 70
     32
  0
VERTEX
  8
MY3DLAYER
10
88.99381846679684
20
37.85199091772791
30
-2.2204460492503126e-16
 70
     32
  0
VERTEX
  8
MY3DLAYER
10
89.90774817417108
20
35.124648743773385
30
-2.2204460492503126e-16
 70
     32
  0
VERTEX
  8
MY3DLAYER
10
90.75853832663982
20
32.37695535470795
30
-2.2204460492503126e-16
 70
     32
  0
VERTEX
  8
MY3DLAYER
10
91.84439986373405
20
28.72981735748147
30
-2.2204460492503126e-16
 70
     32
  0
VERTEX
  8
MY3DLAYER
10
92.93484960937501
20
25.084048549563825
30
-2.2204460492503126e-16
 70
     32
  0
VERTEX
  8
MY3DLAYER
10
93.77909302556975
20
22.326121744786413
30
-2.2204460492503126e-16
 70
     32
  0
VERTEX
  8
MY3DLAYER
10
94.65525718257128
20
19.578169129422772
30
-2.2204460492503126e-16
 70
     32
  0
VERTEX
  8
MY3DLAYER
10
95.20488062924782
20
17.94234119979833
30
-2.2204460492503126e-16
 70
     32
  0
VERTEX
  8
MY3DLAYER
10
95.78610249999996
20
16.31747194800132
30
-2.2204460492503126e-16
 70
     32
  0
VERTEX
  8
MY3DLAYER
10
96.81065133738464
20
13.857554934496928
30
-2.2204460492503126e-16
 70
     32
  0
VERTEX
  8
MY3DLAYER
10
98.03530472928735
20
11.490887213160473
30
-2.2204460492503126e-16
 70
     32
  0
VERTEX
  8
MY3DLAYER
10
99.77764885499515
20
8.66283356132389
30
-2.2204460492503126e-16
 70
     32
  0
VERTEX
  8
MY3DLAYER
10
101.70388769531245
20
5.956682338626306
30
-2.2204460492503126e-16
 70
     32
  0
VERTEX
  8
MY3DLAYER
10
103.04211771341876
20
4.272167127496387
30
-2.2204460492503126e-16
 70
     32
  0
VERTEX
  8
MY3DLAYER
10
104.44506616529894
20
2.6411592430102497
30
-2.2204460492503126e-16
 70
     32
  0
VERTEX
  8
MY3DLAYER
10
104.79987494046198
20
2.237020680558643
30
-2.2204460492503126e-16
 70
     32
  0
VERTEX
  8
MY3DLAYER
10
105.14702710937497
20
1.8262864401888232
30
-2.2204460492503126e-16
 70
     32
  0
VERTEX
  8
MY3DLAYER
10
105.39691610119198
20
1.4975910440030442
30
-2.2204460492503126e-16
 70
     32
  0
VERTEX
  8
MY3DLAYER
10
105.61815170850838
20
1.148965201931105
30
-2.2204460492503126e-16
 70
     32
  0
VERTEX
  8
MY3DLAYER
10
105.68988424238657
20
0.9893812463829474
30
-2.2204460492503126e-16
 70
     32
  0
VERTEX
  8
MY3DLAYER
10
105.72822519027707
20
0.818669304797609
30
-2.2204460492503126e-16
 70
     32
  0
VERTEX
  8
MY3DLAYER
10
105.72099626605025
20
0.667791847896211
30
-2.2204460492503126e-16
 70
     32
  0
VERTEX
  8
MY3DLAYER
10
105.66441106774049
20
0.5277405013166286
30
-2.2204460492503126e-16
 70
     32
  0
VERTEX
  8
MY3DLAYER
10
105.54887338321826
20
0.3878870731417265
30
-2.2204460492503126e-16
 70
     32
  0
VERTEX
  8
MY3DLAYER
10
105.39950507812497
20
0.2849451120638235
30
-2.2204460492503126e-16
 70
     32
  0
VERTEX
  8
MY3DLAYER
10
105.17810539445044
20
0.19553153340444845
30
-2.2204460492503126e-16
 70
     32
  0
VERTEX
  8
MY3DLAYER
10
104.94516646189244
20
0.14307143734484382
30
-2.2204460492503126e-16
 70
     32
  0
VERTEX
  8
MY3DLAYER
10
104.34085552467575
20
0.0771300495726592
30
-2.2204460492503126e-16
 70
     32
  0
VERTEX
  8
MY3DLAYER
10
103.73358249999998
20
0.049571948001343444
30
-2.2204460492503126e-16
 70
     32
  0
VERTEX
  8
MY3DLAYER
10
55.98440249999999
20
0.049571948001343444
30
-2.2204460492503126e-16
 70
     32
  0
VERTEX
  8
MY3DLAYER
10
55.84841898031565
20
0.04847262272396334
30
-2.2204460492503126e-16
 70
     32
  0
VERTEX
  8
MY3DLAYER
10
55.71243972638382
20
0.04693358342859709
30
-2.2204460492503126e-16
 70
     32
  0
VERTEX
  8
MY3DLAYER
10
55.62506885250496
20
0.045583533153276776
30
-2.2204460492503126e-16
 70
     32
  0
VERTEX
  8
MY3DLAYER
10
55.53770587890623
20
0.043793817508174
30
-2.2204460492503126e-16
 70
     32
  0
VERTEX
  8
MY3DLAYER
10
54.903131625533945
20
0.024499455452854584
30
-2.2204460492503126e-16
 70
     32
  0
VERTEX
  8
MY3DLAYER
10
54.268912217065434
20
-0.004179759528014413
30
-2.2204460492503126e-16
 70
     32
  0
VERTEX
  8
MY3DLAYER
10
53.926195255064194
20
-0.0005871344602610404
30
-2.2204460492503126e-16
 70
     32
  0
VERTEX
  8
MY3DLAYER
10
53.58665298828123
20
0.04609125525233536
30
-2.2204460492503126e-16
 70
     32
  0
VERTEX
  8
MY3DLAYER
10
53.353669174480416
20
0.11773253389795
30
-2.2204460492503126e-16
 70
     32
  0
VERTEX
  8
MY3DLAYER
10
53.139244605421545
20
0.23364644368903947
30
-2.2204460492503126e-16
 70
     32
  0
VERTEX
  8
MY3DLAYER
10
52.897152392750314
20
0.45038700459848247
30
-2.2204460492503126e-16
 70
     32
  0
VERTEX
  8
MY3DLAYER
10
52.72218218749995
20
0.7241944870638547
30
-2.2204460492503126e-16
 70
     32
  0
VERTEX
  8
MY3DLAYER
10
52.55983410308866
20
1.158424888402592
30
-2.2204460492503126e-16
 70
     32
  0
VERTEX
  8
MY3DLAYER
10
52.46406497689882
20
1.6120119433630005
30
-2.2204460492503126e-16
 70
     32
  0
VERTEX
  8
MY3DLAYER
10
52.22002573379951
20
3.4407522997533126
30
-2.2204460492503126e-16
 70
     32
  0
VERTEX
  8
MY3DLAYER
10
51.9780593440755
20
5.269768075931039
30
-2.2204460492503126e-16
 70
     32
  0
VERTEX
  8
MY3DLAYER
10
51.607620707158226
20
7.976867458332831
30
-2.2204460492503126e-16
 70
     32
  0
VERTEX
  8
MY3DLAYER
10
51.20995543596254
20
10.680101481129622
30
-2.2204460492503126e-16
 70
     32
  0
VERTEX
  8
MY3DLAYER
10
50.82620019574955
20
12.9904924183365
30
-2.2204460492503126e-16
 70
     32
  0
VERTEX
  8
MY3DLAYER
10
50.380188645833385
20
15.289676635501346
30
-2.2204460492503126e-16
 70
     32
  0
VERTEX
  8
MY3DLAYER
10
49.71884331074313
20
18.101773580588922
30
-2.2204460492503126e-16
 70
     32
  0
VERTEX
  8
MY3DLAYER
10
48.91295449972105
20
20.87590589630241
30
-2.2204460492503126e-16
 70
     32
  0
VERTEX
  8
MY3DLAYER
10
48.21022350801534
20
22.83421406694007
30
-2.2204460492503126e-16
 70
     32
  0
VERTEX
  8
MY3DLAYER
10
47.36864728352862
20
24.73698867163416
30
-2.2204460492503126e-16
 70
     32
  0
VERTEX
  8
MY3DLAYER
10
46.35343722290338
20
26.582239220916428
30
-2.2204460492503126e-16
 70
     32
  0
VERTEX
  8
MY3DLAYER
10
45.15696717488643
20
28.315461792030597
30
-2.2204460492503126e-16
 70
     32
  0
VERTEX
  8
MY3DLAYER
10
44.55210328031473
20
28.992933139984054
30
-2.2204460492503126e-16
 70
     32
  0
VERTEX
  8
MY3DLAYER
10
43.85391551269538
20
29.57376151343104
30
-2.2204460492503126e-16
 70
     32
  0
VERTEX
  8
MY3DLAYER
10
43.05087755517624
20
30.03120715759338
30
-2.2204460492503126e-16
 70
     32
  0
VERTEX
  8
MY3DLAYER
10
42.17178067421981
20
30.316365275963257
30
-2.2204460492503126e-16
 70
     32
  0
VERTEX
  8
MY3DLAYER
10
41.41772056970593
20
30.42792954011478
30
-2.2204460492503126e-16
 70
     32
  0
VERTEX
  8
MY3DLAYER
10
40.65556820800785
20
30.441233818118555
30
-2.2204460492503126e-16
 70
     32
  0
VERTEX
  8
MY3DLAYER
10
39.19866761790241
20
30.228653360070982
30
-2.2204460492503126e-16
 70
     32
  0
VERTEX
  8
MY3DLAYER
10
37.810696376389764
20
29.737445040386554
30
-2.2204460492503126e-16
 70
     32
  0
VERTEX
  8
MY3DLAYER
10
36.94160242130229
20
29.293900461518525
30
-2.2204460492503126e-16
 70
     32
  0
VERTEX
  8
MY3DLAYER
10
36.104773383788974
20
28.792130336673136
30
-2.2204460492503126e-16
 70
     32
  0
VERTEX
  8
MY3DLAYER
10
35.38292242902765
20
28.321272997965117
30
-2.2204460492503126e-16
 70
     32
  0
VERTEX
  8
MY3DLAYER
10
34.66460841005864
20
27.845037337333117
30
-2.2204460492503126e-16
 70
     32
  0
VERTEX
  8
MY3DLAYER
10
34.10994459089688
20
27.521416632846417
30
-2.2204460492503126e-16
 70
     32
  0
VERTEX
  8
MY3DLAYER
10
33.52000757324223
20
27.26773055151694
30
-2.2204460492503126e-16
 70
     32
  0
VERTEX
  8
MY3DLAYER
10
32.89012712739348
20
27.111342669765328
30
-2.2204460492503126e-16
 70
     32
  0
VERTEX
  8
MY3DLAYER
10
32.241639304562064
20
27.085456587389622
30
-2.2204460492503126e-16
 70
     32
  0
VERTEX
  8
MY3DLAYER
10
31.761070937703245
20
27.128018167696588
30
-2.2204460492503126e-16
 70
     32
  0
VERTEX
  8
MY3DLAYER
10
31.283431914062483
20
27.195977026126293
30
-2.2204460492503126e-16
 70
     32
  0
VERTEX
  8
MY3DLAYER
10
30.39542450570773
20
27.38172341886091
30
-2.2204460492503126e-16
 70
     32
  0
VERTEX
  8
MY3DLAYER
10
29.52426983363231
20
27.634998796716822
30
-2.2204460492503126e-16
 70
     32
  0
VERTEX
  8
MY3DLAYER
10
28.648569071273194
20
27.874615561426033
30
-2.2204460492503126e-16
 70
     32
  0
VERTEX
  8
MY3DLAYER
10
27.75208093749999
20
28.01806257300129
30
-2.2204460492503126e-16
 70
     32
  0
VERTEX
  8
MY3DLAYER
10
26.93945746447879
20
28.0617864183505
30
-2.2204460492503126e-16
 70
     32
  0
VERTEX
  8
MY3DLAYER
10
26.126581941854095
20
28.02302989277363
30
-2.2204460492503126e-16
 70
     32
  0
VERTEX
  8
MY3DLAYER
10
25.316409281095083
20
27.95687724460002
30
-2.2204460492503126e-16
 70
     32
  0
VERTEX
  8
MY3DLAYER
10
24.504466269531257
20
27.91808988745442
30
-2.2204460492503126e-16
 70
     32
  0
VERTEX
  8
MY3DLAYER
10
22.200648867684787
20
28.02863160607365
30
-2.2204460492503126e-16
 70
     32
  0
VERTEX
  8
MY3DLAYER
10
19.942743235194225
20
28.499435437168113
30
-2.2204460492503126e-16
 70
     32
  0
VERTEX
  8
MY3DLAYER
10
17.55022923548405
20
29.387740201977103
30
-2.2204460492503126e-16
 70
     32
  0
VERTEX
  8
MY3DLAYER
10
15.307829308090216
20
30.60628489119282
30
-2.2204460492503126e-16
 70
     32
  0
VERTEX
  8
MY3DLAYER
10
13.91847524256168
20
31.566951208917576
30
-2.2204460492503126e-16
 70
     32
  0
VERTEX
  8
MY3DLAYER
10
12.601961803325718
20
32.62524079958863
30
-2.2204460492503126e-16
 70
     32
  0
VERTEX
  8
MY3DLAYER
10
10.78158789328799
20
34.280376919395515
30
-2.2204460492503126e-16
 70
     32
  0
VERTEX
  8
MY3DLAYER
10
9.045300853881896
20
36.023518928592075
30
-2.2204460492503126e-16
 70
     32
  0
SEQEND
 0
ENDSEC
 0
EOF
