<?xml version="1.0"?>
<svg 
  xmlns="http://www.w3.org/2000/svg" 
  xmlns:xlink="http://www.w3.org/1999/xlink" version="1.1" preserveAspectRatio="xMinYMin meet" viewBox="2.8421709430404e-14 -99.34395365461228 105.72822519027704 99.34813341414029" width="100%" height="100%">
  <path fill="none" stroke="#000000" stroke-width="1%" d="M9.045300853881896,-36.023518928592075L7.365332952573168,-37.84109959451377L5.7317566933361075,-39.70048665261039L5.143622795888232,-40.43524867225279L4.60555971191411,-41.207430531985636L4.084382108862214,-42.11442669598228L3.663658186781077,-43.07216335958885L3.4136928314094765,-43.82263004532954L3.2223059619140733,-44.59012857397789L3.0315043003722897,-45.85220015395902L2.982353655217124,-47.12766640640319L2.9803882440674268,-47.44648836145416L2.9635016015624975,-47.76486886206379L2.8793632487653573,-48.2635039093349L2.7065906170893324,-48.73875730545345L2.5616475515289205,-49.02022768611067L2.396782499999986,-49.290511948001296L1.3851035476366034,-51.0727368975796L0.6225600466995755,-52.974932335155195L0.37846242886669745,-53.87499315279734L0.22344250000003282,-54.79459194800128L0.12305321040255987,-55.675957459274656L0.0309111189710336,-56.5582232972819L0.01131498006063225,-56.79656692565885L2.8421709430404e-14,-57.035446948001265L0.025869701875336652,-57.70001907329833L0.14276640008118585,-58.35474077993831L0.5765746096219572,-59.34155563831228L1.3124452587890825,-60.12926593725914L1.9164352451003732,-60.47953284807184L2.5884120343730213,-60.66910607153284L3.15993196623259,-60.741652668827754L3.7342225000000147,-60.78735194800129L4.724525619784017,-60.85440712904787L5.713001788497237,-60.94447116318568L6.700607819691056,-61.042995390662334L7.6887980859375045,-61.13547616675125L8.79983669735135,-61.213094782295066L9.913123562635844,-61.24509167458794L11.026250705144433,-61.296506070559644L12.1322797265625,-61.432135268313765L13.608893668102322,-61.71095440392196L15.06853719598011,-62.06812329150259L16.520856363108106,-62.45210532110647L17.979262709960928,-62.81227762671227L19.282974648086874,-63.09533083746103L20.59702887163213,-63.32564678417364L21.91377012909502,-63.53857987491082L23.227420546875003,-63.769817026126304L24.801173803493207,-64.09902193917631L26.356497823713145,-64.50650491994907L27.24326170062188,-64.8045978662571L28.101109375,-65.17783632300129L29.136877771035167,-65.77652921666149L30.07798009568149,-66.51516022446563L30.642520966013425,-67.05365842711626L31.17866812500001,-67.62043257300127L31.876596483675094,-68.4047767523046L32.566981898203615,-69.1957683861771L32.7570990083718,-69.42339630637704L32.93938924804687,-69.6573391501498L33.354984496004995,-70.29701980697395L33.67888128233265,-70.98767284913555L33.83496239175202,-71.3668670651859L34.00666249999998,-71.73924944800129L34.212093732977884,-72.10480328064922L34.45925084415473,-72.44354353282068L34.72636534459716,-72.72850243276304L35.02745639648436,-72.97729131811852L35.56080441457562,-73.31042857740383L36.13474194964622,-73.56740376640683L37.70812829925223,-74.07437664656672L39.31744062499997,-74.45210663550128L40.94250040333259,-74.71897060576583L42.57966329557133,-74.89710910821938L45.196149555835184,-75.06511274547114L47.81684570312498,-75.14370839331374L49.501302162960116,-75.15785453194142L51.185817688460304,-75.15679497207341L52.09300050643322,-75.17200161574021L52.99864707031251,-75.22692163550127L53.74285862512522,-75.3237011890557L54.474751809415864,-75.48968157070333L55.4808169942058,-75.93262617571068L56.31838260253912,-76.64456081518878L56.76098256932471,-77.22402451677127L57.11948629769972,-77.85896387512884L57.668166229197396,-79.126520366847L58.12332135681146,-80.43058437475915L58.525234191640926,-81.76287875722697L58.90987695751787,-83.1002613468454L59.64256641645945,-85.57879250150225L60.44360749999998,-88.03608444800126L61.19580271441361,-90.09622010904907L62.03428106179687,-92.12277152548963L62.376224175988085,-92.82767100185457L62.77102888671874,-93.50438187475912L63.29718441767406,-94.2029616782939L63.92688917882946,-94.80985977389132L64.11855650926447,-94.92872316093221L64.33468997558583,-94.99315292944662L64.48999119370961,-94.98812455201248L64.63242533109002,-94.92602568375347L64.7679754919944,-94.79814557447698L64.85780249999996,-94.63487194800125L64.89922865264586,-94.47003113388281L64.90674486998299,-94.30023087887947L64.8187563965717,-93.17833568493946L64.68258499999999,-92.06126444800127L64.51496834297623,-90.97120173985492L64.32611966166127,-89.88461615787406L64.16443300572192,-88.79303639560621L64.0790127050781,-87.69285808081378L64.07609178384806,-87.01867363184239L64.12486752818856,-86.34624956194327L64.23804402194142,-85.56266090692428L64.40212648437492,-84.78813069800124L64.66980692786308,-83.69020478487438L64.93247615562964,-82.59106921210551L65.03981045615771,-82.07496997362097L65.1188736865235,-81.55379046362629L65.1718348380912,-80.73834699509615L65.1293297177921,-79.92229169752606L65.08868154498836,-79.48470202369373L65.06368808593746,-79.0459397605014L65.06966338618352,-78.8345156473926L65.10395442650852,-78.62580535926496L65.13795865149973,-78.54447560937535L65.19659764587398,-78.47865552222L65.3527927911653,-78.41331519398666L65.51978477860058,-78.44124292283504L65.75862421493017,-78.57036079018863L65.98370240722647,-78.72220119116541L66.38660940636183,-79.04983217725186L66.76183338735413,-79.40883507011561L68.20002572359638,-80.9710073119154L69.56456250000002,-82.59791194800125L70.21484042554115,-83.45123985049995L70.82403381105948,-84.33436685646774L71.52323160130231,-85.44738437760775L72.17894736145013,-86.58656056860673L72.90190823599451,-87.94710250628889L73.58497193501611,-89.32810604480463L74.25194342771229,-90.71677961822616L74.92718249999999,-92.10145194800126L75.67616977085586,-93.54996768027424L76.48392805905104,-94.96655029572543L77.1114222900732,-95.9511527097862L77.79429061523433,-96.89819113257165L78.51491933348206,-97.75666170199369L79.3097102642832,-98.54696850599032L79.77986102129839,-98.90579271530358L80.30433357788088,-99.17915160925618L80.76933922294985,-99.3145783965176L81.25277252638048,-99.34395365461228L81.56265715172661,-99.27338598808997L81.8301628842163,-99.10177899618854L82.00226743243952,-98.88286689003924L82.09629190821063,-98.62075644825217L82.14818790019892,-98.10121841903417L82.11253638916016,-97.58031350683923L81.9745736610164,-96.88986934097723L81.77519650987233,-96.21459486927593L81.50024843127758,-95.41562668191544L81.22625916015622,-94.61632918432939L81.12844156643527,-94.29411981386234L81.05332994922621,-93.96587386184109L80.9640742899107,-93.47980480256997L80.8830516308593,-92.99229579565751L80.76621299655802,-92.20209434040164L80.66431327912517,-91.40982793701136L80.56620736428614,-90.52184468788829L80.48310437500001,-89.63233194800128L80.3043186104336,-86.81791181150959L80.24541184377237,-83.99843401462184L80.2510630969119,-81.17379499552956L80.26584070312497,-78.34918897925127L80.26574065777997,-74.80456114957539L80.21690057867836,-71.26026980889876L80.09967693259416,-68.54838658715295L79.86033744689934,-65.84454328507809L79.57024123750556,-63.73203380767285L79.17225784621772,-61.6371683410878L78.96680708514663,-60.85457419677954L78.69435874999996,-60.09271101050128L78.53779643288124,-59.69992385661246L78.38713972242306,-59.304833913693614L78.29737957099056,-58.90516062057358L78.31820374999997,-58.49606163550129L78.42421222711947,-58.104188430802054L78.58940779745194,-57.733361207792484L79.19722910294502,-56.67710890884886L79.85838968749995,-55.65339882300128L80.67522582982684,-54.48303817455079L81.51588047615834,-53.32966698692119L82.33705290981986,-52.161787765926114L83.09335471191412,-50.95088990698565L84.65878362332059,-48.11299178504143L86.0690493749855,-45.194878706889234L87.61255078173674,-41.55574472827596L88.99381846679684,-37.85199091772791L89.90774817417108,-35.124648743773385L90.75853832663982,-32.37695535470795L91.84439986373405,-28.72981735748147L92.93484960937501,-25.084048549563825L93.77909302556975,-22.326121744786413L94.65525718257128,-19.578169129422772L95.20488062924782,-17.94234119979833L95.78610249999996,-16.31747194800132L96.81065133738464,-13.857554934496928L98.03530472928735,-11.490887213160473L99.77764885499515,-8.66283356132389L101.70388769531245,-5.956682338626306L103.04211771341876,-4.272167127496387L104.44506616529894,-2.6411592430102497L104.79987494046198,-2.237020680558643L105.14702710937497,-1.8262864401888232L105.39691610119198,-1.4975910440030442L105.61815170850838,-1.148965201931105L105.68988424238657,-0.9893812463829474L105.72822519027707,-0.818669304797609L105.72099626605025,-0.667791847896211L105.66441106774049,-0.5277405013166286L105.54887338321826,-0.3878870731417265L105.39950507812497,-0.2849451120638235L105.17810539445044,-0.19553153340444845L104.94516646189244,-0.14307143734484382L104.34085552467575,-0.0771300495726592L103.73358249999998,-0.049571948001343444L55.98440249999999,-0.049571948001343444L55.84841898031565,-0.04847262272396334L55.71243972638382,-0.04693358342859709L55.62506885250496,-0.045583533153276776L55.53770587890623,-0.043793817508174L54.903131625533945,-0.024499455452854584L54.268912217065434,0.004179759528014413L53.926195255064194,0.0005871344602610404L53.58665298828123,-0.04609125525233536L53.353669174480416,-0.11773253389795L53.139244605421545,-0.23364644368903947L52.897152392750314,-0.45038700459848247L52.72218218749995,-0.7241944870638547L52.55983410308866,-1.158424888402592L52.46406497689882,-1.6120119433630005L52.22002573379951,-3.4407522997533126L51.9780593440755,-5.269768075931039L51.607620707158226,-7.976867458332831L51.20995543596254,-10.680101481129622L50.82620019574955,-12.9904924183365L50.380188645833385,-15.289676635501346L49.71884331074313,-18.101773580588922L48.91295449972105,-20.87590589630241L48.21022350801534,-22.83421406694007L47.36864728352862,-24.73698867163416L46.35343722290338,-26.582239220916428L45.15696717488643,-28.315461792030597L44.55210328031473,-28.992933139984054L43.85391551269538,-29.57376151343104L43.05087755517624,-30.03120715759338L42.17178067421981,-30.316365275963257L41.41772056970593,-30.42792954011478L40.65556820800785,-30.441233818118555L39.19866761790241,-30.228653360070982L37.810696376389764,-29.737445040386554L36.94160242130229,-29.293900461518525L36.104773383788974,-28.792130336673136L35.38292242902765,-28.321272997965117L34.66460841005864,-27.845037337333117L34.10994459089688,-27.521416632846417L33.52000757324223,-27.26773055151694L32.89012712739348,-27.111342669765328L32.241639304562064,-27.085456587389622L31.761070937703245,-27.128018167696588L31.283431914062483,-27.195977026126293L30.39542450570773,-27.38172341886091L29.52426983363231,-27.634998796716822L28.648569071273194,-27.874615561426033L27.75208093749999,-28.01806257300129L26.93945746447879,-28.0617864183505L26.126581941854095,-28.02302989277363L25.316409281095083,-27.95687724460002L24.504466269531257,-27.91808988745442L22.200648867684787,-28.02863160607365L19.942743235194225,-28.499435437168113L17.55022923548405,-29.387740201977103L15.307829308090216,-30.60628489119282L13.91847524256168,-31.566951208917576L12.601961803325718,-32.62524079958863L10.78158789328799,-34.280376919395515L9.045300853881896,-36.023518928592075"/>
</svg>