<?xml version="1.0"?>
<svg 
  xmlns="http://www.w3.org/2000/svg" 
  xmlns:xlink="http://www.w3.org/1999/xlink" version="1.1" preserveAspectRatio="xMinYMin meet" viewBox="-0.2580459999999989 -99.68209286759307 110.01290028182422 99.68209286759307" width="100%" height="100%">
  <path fill="none" stroke="#000000" stroke-width="1%" d="M46.80613866651638,-83.17407744863164L48.51289805544119,-83.07048629276984L49.64664072932198,-83.001674183225L50.21965744436597,-82.96689513690801L52.17140687027924,-82.85829237213747L53.65574419826917,-82.69782812768993L54.76245245281032,-82.56614389749757L55.72928099753567,-82.63975271676303L56.75368613494447,-82.75205639108225L57.68670814875017,-82.7793390040826L58.40576931790827,-82.7237051522812L58.78829239463616,-82.58725801240875L58.90104424815515,-82.39725700762317L58.90698510717877,-82.20980546571981L58.81638002645272,-82.08175068250043L58.6193728496775,-81.99114181567758L57.66334177954972,-81.85250441884972L56.71337556311339,-81.68197530952085L55.676354678154716,-81.39780981982562L54.87389999600755,-81.10149995162271L54.66114076380803,-80.98050718531974L54.62763049495702,-80.8945381800334L54.986025250518544,-80.69974965593904L55.58608797982344,-80.52552200337189L57.30060437104462,-80.26023067911292L59.34995416464558,-80.14162646658124L61.31291280317534,-80.21267257162602L62.218068671822955,-80.30433539312459L62.177358193525215,-79.94213608361655L62.13278589656799,-79.73817479368171L62.011398429681336,-79.60204000678904L61.27220469118811,-79.36310606814327L59.022589311317994,-78.91066230362215L57.01172471766467,-78.75408685377327L56.17845546753475,-78.72191118401793L56.030785390445196,-78.68821918252414L56.06486168075648,-78.64176093613581L58.05515783068919,-78.3128172804739L59.59988434796707,-78.1722645919653L60.999224751004746,-78.18054525876497L62.096823183563444,-78.20821878625223L62.31497050466478,-78.16256697846629L62.40232853418712,-78.07020704190812L62.410324297208284,-77.88673090156603L62.33029283811087,-77.70837924314121L62.05411695902959,-77.5168827301493L61.52922859998597,-77.27492937936529L59.99339278434254,-76.7231398565663L58.24293734322136,-76.21998795208307L56.7980151751871,-75.93244857694366L56.10102127079073,-75.78830430242932L56.11258968933401,-75.71187531436581L56.34837690833926,-75.63598205898893L57.44513056806616,-75.49612222618097L59.29632978368096,-75.38936471030182L61.00596542296154,-75.28709608535223L61.24885488616083,-75.19661168645926L61.3105701558267,-75.04063160032045L61.27506366747755,-74.80516241344009L61.10996192780398,-74.63691395412593L60.51416565624609,-74.40471169545722L59.612842737270455,-74.14424007232911L57.860212656842776,-73.79029823977825L57.01172471766467,-73.62328594104486L57.90180387589117,-73.31813790329961L59.02072655172927,-72.97546586091286L59.1902130646725,-72.79549895897274L59.20213832283207,-72.56186082312105L59.068766440024504,-72.32233388707563L58.80236200332836,-72.12469916476827L58.40586775642309,-72.00478827560438L57.825835845103974,-71.92816288377327L56.28660863331914,-71.8995570299675L54.52757247723273,-72.02845469297033L52.89162137915216,-72.30442943566308L52.14426150328516,-72.43148137651248L52.11126141096788,-72.37787687255565L52.30844653428918,-72.24649032421831L52.4788322452046,-72.09412927328646L52.55646947138545,-71.89644154562491L52.535893928733394,-71.69193695081006L52.41164322619846,-71.5191243518939L52.177361453903515,-71.39836537706356L51.849912833185876,-71.33412809371673L50.95399929990616,-71.36992847782417L49.8008697134197,-71.61594052429739L48.46749305383551,-72.06157877995533L47.29021195634025,-72.44293147953307L48.04729689490754,-71.9129318899107L49.66947038700584,-71.01265913951414L50.677087498273885,-70.64728802747472L52.09016338696781,-70.36373493892471L53.87567382440381,-70.16695918731189L56.00059552842207,-70.06192008608376L57.484367308213606,-70.03355228310961L58.37383737812954,-70.08710567476064L59.066359902293684,-70.28598365657999L59.959290937878336,-70.69359057063527L61.72676772335099,-71.37550397851386L63.61855578890624,-71.97231066463522L65.55485036798804,-72.47613034192834L67.02613702056686,-72.81464477684898L68.42664638096838,-73.04436761542499L69.65151066884137,-73.15183029181915L70.59586210383462,-73.12356424019443L71.60321134875936,-72.88797957736398L72.90237305223971,-72.4439764422292L74.26790029868847,-71.87708134002159L75.47434664578061,-71.27282124923501L78.55207555856535,-69.38264322131204L79.8583049581071,-68.47443197260742L80.84571046527081,-67.6997241735715L82.07027896433713,-66.53750085601364L83.30032499884045,-65.17641375449918L84.5070713940981,-63.65945636365078L85.66174239521372,-62.0296231246157L86.73556177402892,-60.32990753201669L87.69975424890946,-58.60330355373884L88.52554264517285,-56.89280468440493L89.18415168118484,-55.24140536516212L89.64868823864568,-54.05270634646844L89.95998016485139,-53.485016637210734L90.90670832206371,-52.661183286643684L91.7944755949775,-51.86499317479009L92.63997488405336,-51.21168278114471L93.63855458243883,-50.56336766886596L94.98556261001931,-49.782162454587805L97.265652282429,-48.42832667482587L101.14513213663217,-46.25072853381045L103.03112274157722,-45.289680412259976L104.42173382535329,-44.65604683655656L105.19830769681249,-44.3146824173262L105.6414442890594,-44.03403468475055L105.77419383221785,-43.79323325389516L105.61960560988749,-43.57140632003918L105.30416175536074,-43.45537381370795L104.81690625123937,-43.464818705250586L102.84632288716769,-43.78261940498868L101.19104423856797,-44.19262954394013L100.23924365826834,-44.41108164582783L101.5525052592147,-43.28049684555253L104.06667793384108,-41.378420062147114L105.70991584833108,-40.131294945317336L106.74436455382721,-39.17799885681127L107.04269856399164,-38.80114829950163L107.20012162624478,-38.485288447597156L107.22039617420718,-38.226264059942245L107.10728416823726,-38.01991942211898L106.98512433761866,-37.9329504140352L106.81568609740862,-37.91641369006453L106.09665332397611,-38.11769726309061L103.80368287724588,-39.073006608530164L102.20968504371294,-39.74754611977472L101.45251539123149,-40.06962226923954L100.77728539059669,-40.34131115043963L101.0499425660342,-39.91834877459196L101.86003569832408,-38.92830719758348L104.30894742370167,-36.172039666807855L105.55029306388073,-34.77609349948411L106.24525383433574,-33.88630066482241L106.44734621227488,-33.44260609657069L106.47658481749569,-33.11676420065076L106.33451153788992,-32.915977079557734L106.02267015439693,-32.847447309048874L105.31426874056814,-33.05442659133562L103.94475236795739,-33.61555972758982L100.04874099566666,-35.44146024488815L99.54934584565885,-35.67950729037612L99.44544446649653,-35.710849545589916L99.44655663240955,-35.67322710243353L100.618376285379,-34.67542828649759L101.84187899821724,-33.625677124563225L103.09081386928156,-32.45928531451118L104.28512908920469,-31.25395965204964L105.34477426840573,-30.08740787941098L107.31236282996801,-27.843219395934085L108.67334013467756,-26.162236463406256L109.64312656746932,-24.706984403719936L109.74974257798335,-24.38865175739197L109.75485428182422,-24.101768796772333L109.66655209443113,-23.894395287164105L109.49292501145699,-23.814590520608153L109.17394399606489,-23.988510552816347L108.61410191879389,-24.4062182996718L107.55889025885794,-25.34869230395151L106.48412719543401,-26.428844876063483L105.0413190891586,-27.668026288702137L103.31936254461067,-28.99417576290036L101.40715558615548,-30.335235359263816L98.58183580352296,-32.236385968757844L97.8004109956348,-32.675204517689885L97.88073114460742,-32.49667112662224L98.23566351471392,-32.055164922277584L99.82905746581916,-30.313747367301033L100.51413794360823,-29.551290430743073L100.87313705485947,-29.03970925516366L100.94708378325765,-28.69815458457284L100.77700758574953,-28.44577810950494L100.6472613638182,-28.37440072099674L100.47762671984064,-28.381423930421654L99.81994291121583,-28.679135127674815L98.31985068822907,-29.590006109328787L96.9408633946607,-30.53028843686679L96.07605927164614,-31.238233626040255L94.89281270549854,-32.33699628334189L93.48279787600676,-33.71406449913265L93.5646816829268,-33.18666406491198L93.82899761401707,-32.36104888257377L94.38020123834781,-31.254074654737664L95.15785414737365,-29.97429445365472L96.10151793254924,-28.63026087831378L96.91981269686974,-27.36774243872433L97.47622835660461,-26.06387319722853L97.8075766569489,-24.60404989900886L97.95067170940843,-22.873667396199448L98.04493652588133,-21.375248627965068L98.19223745854015,-20.23908406764128L98.32357431435804,-19.263449535195633L98.37945426244666,-18.150982627535747L98.51918820753848,-15.632690679672404L98.87624268485938,-13.353314213233311L99.30043080952171,-10.848523013029265L99.54140971366114,-9.468850909215869L99.87313520389168,-8.27666868153518L100.25306575088719,-7.150164347005243L100.47493906442794,-6.313480510891455L100.57874105855117,-5.572975363145056L100.60445622750738,-4.735008986765672L100.57205244542442,-3.677544599278296L100.46604788953144,-2.8561840431347845L100.27325179883863,-2.2059621578928614L99.98047341235605,-1.6619142563723484L99.52774095795962,-1.1044044146839869L98.99622692964728,-0.713317187164132L98.28864567902156,-0.4361886314943877L97.30771345073336,-0.2205557518805382L95.67583004032167,0L95.22624288577963,-0.032672121688432386L94.85159820307429,-0.15620961825280485L94.42512611556255,-0.41330215005382204L94.1420467623653,-0.7597068105493484L93.98549166278633,-1.226631448519418L93.93859138960529,-1.8452843860061567L93.98149165159634,-2.496618437161048L94.15765257980364,-3.1245667153697703L94.54541656092319,-3.927980226512573L95.22312692817484,-5.10571092299392L95.81436757884839,-6.174826549890411L96.1412061647312,-7.031411530177096L96.26509434850479,-7.912358149840832L96.24748284632629,-9.054561061178914L96.05926083373933,-10.735951945628871L95.70582491836342,-12.605924521854602L95.28767419819107,-14.211756747225728L95.08573657695575,-14.774144974544257L94.90530777121519,-15.100727525636014L94.56533379600712,-15.626998283246358L94.1776005769235,-16.433607733287158L93.80334396913258,-17.379703612346415L93.50379840801618,-18.32443271048795L93.04398169338523,-19.720596105111284L92.82869524162172,-20.12221814676847L92.61712815662843,-20.339904510593545L92.43553323309663,-20.539561955076227L92.20782885733709,-20.937542718208142L91.64522860860198,-22.266747572463466L91.37650329461341,-23.24462347417036L91.25739032533428,-24.56732902013513L91.20943089159447,-25.413111793203296L91.12695976641999,-25.953785336017656L90.95255274752054,-26.412830160178792L90.62878610586793,-27.01372819707363L89.68606789834953,-28.60495318801759L88.69200974597788,-30.173156817825156L87.1523589646219,-32.30488781680337L84.98011720394828,-34.91747770948598L83.68481779238955,-36.510188743394494L82.76571914929004,-38.051129637209506L82.43894161421693,-38.6079045028711L82.0452717954685,-39.1008367857694L80.67097784205296,-40.31210046768203L79.40996863527053,-41.65041467065774L78.61851918977872,-42.612361043656236L77.84886015072564,-42.29565026651281L76.9097690238697,-41.89471445488705L76.71668424330159,-41.63358073809417L76.49038166985461,-41.124022757952204L76.19470124023233,-40.444996722088526L75.7821023576452,-39.774465740751594L75.18100034478933,-39.01117917574873L74.31981147088503,-38.05388638888739L72.7977504216514,-36.308558269256L72.20020450014451,-35.642797769792566L71.95427527453711,-35.35797681210177L71.33551348676951,-33.93528139815378L70.71675169900193,-32.62241449779102L70.84417183775783,-31.762643990372354L71.21556000401748,-29.052906168560767L71.3344051069533,-27.60231195437036L71.38728410012519,-26.621032351707765L71.55004555876056,-25.678110641490317L71.84000282992088,-24.70007903655561L72.27447068045379,-23.61347116952752L72.77501159798308,-22.350696695147036L72.94221320155278,-21.597576273112907L72.88940235812198,-21.042928247286557L72.74542609164975,-20.450914286356973L72.53197069091482,-19.891397340142248L72.2707200783856,-19.4342413049848L71.97630467833159,-18.90098851175144L71.7021605134053,-18.21611674254436L71.36784154691807,-17.46362102646989L70.88382599506923,-16.79207016532764L70.41852275302168,-16.154101508874106L70.1557037499241,-15.501460307824914L68.9197353136187,-12.27140489224096L67.79933511353369,-9.411916533189418L67.57350059629427,-8.630890685243664L67.50855862569446,-8.098976277202606L67.4562584320594,-7.725372297834649L67.3028065120087,-7.362283728858285L67.0533751469307,-7.018783951075023L66.71313851126227,-6.703946345286319L66.4257898607455,-6.4240042464878L66.29161153933552,-6.141112305078423L66.30805550393634,-5.8426926344756085L66.4725746579764,-5.516165455048445L66.76395408171904,-4.852201931743118L66.90506711254298,-4.00572961580892L66.88624879203347,-3.114115668622483L66.6978322687273,-2.314728198084629L66.43826552271645,-2.0559158318462742L65.90303875330315,-1.7718625052664985L65.18472391846201,-1.5033728757990303L64.37589250290573,-1.2912511276355325L62.38363326182113,-0.86202512801843L61.42886674799952,-0.6773407495589531L60.732699632475466,-0.6250344035167363L60.17370422108468,-0.7080791223450879L59.630453766186825,-0.9294498315456831L59.06453736998273,-1.303382728066631L58.73654781069548,-1.8355621628784342L58.48320824727314,-2.41738773752105L59.09702397293159,-3.6753997754835828L59.85689879152311,-5.4352357445031005L60.125833287355796,-6.116555681720036L60.523922900768554,-6.819447378289771L61.00111732610516,-7.466707589368567L61.507369097282044,-7.981134489898913L62.1503245163845,-8.519731831921693L62.426846823316154,-9.925706896207878L62.70283481734749,-11.072297420388137L63.08305358095612,-12.109998856233082L63.63448531761462,-13.19115095788045L64.42411223079537,-14.468092532943821L65.32538545725149,-15.848112484393832L65.43327122995466,-17.03994828422418L65.49965664993094,-18.32379853928652L65.44088932982747,-19.465417918466848L65.24644723358348,-20.557627788861698L64.90580927166225,-21.693248571043334L64.49192453597485,-23.035017114018537L64.16942765651147,-24.34550255954126L63.90267205934406,-25.40321824919877L63.622803316169595,-26.13726857529112L62.443658985823525,-28.467571828778215L61.54005920292991,-30.526505652976425L61.08483975624733,-32.34562195820563L60.68214530269276,-33.69760870297949L60.093377919704885,-35.181165148519845L59.50971230205389,-36.36186319830942L59.27953465860878,-36.70288213621364L59.122322671248085,-36.80527570235516L57.999662644680335,-36.61111756336552L56.42485322261181,-36.32995728794569L54.35664298817524,-35.840715502830115L53.17080767839196,-35.62097518153173L51.848515290232314,-35.51324321900795L50.78178111817582,-35.52652200674673L49.8724922516908,-35.66445045696286L49.002817315239504,-35.95543849295658L48.05492398676006,-36.42789556476608L46.496676371553015,-37.15450195143497L45.683003011547505,-37.4656377011508L44.52442239230127,-36.77160405113133L42.87678456015472,-35.81116454462934L42.50121039070348,-35.542319495331846L42.10241987613448,-35.1447637215573L41.307729531846114,-34.07774180614973L40.637793914219195,-32.838542882813734L40.23769246365916,-31.65561292900482L40.04125509444108,-30.05201260765307L40.02163554121211,-28.303545813836642L40.16794735610159,-26.698403604593665L40.29992548205227,-26.03963886535385L40.46930361797673,-25.52477656370013L40.669818613367624,-24.804856897109694L40.83088579371861,-23.811253076345086L41.097035615410014,-21.76724925131983L41.16684508661195,-20.998794664287363L41.147671346272325,-20.35257988916678L41.065134910929295,-19.793415049947498L41.73676953946161,-19.49166077465412L42.27987990878057,-19.19500684491144L42.649600299432855,-18.845282724112263L42.88970082913206,-18.38430036495211L43.0439506690676,-17.7538721933885L43.09915101279399,-16.953778615811427L43.077093686536166,-15.904226697217233L42.99302482854374,-14.900225781583643L42.862190103804025,-14.236784739626357L42.58537342785199,-13.923457313168843L41.969789121760854,-13.39366785191471L40.24115721542463,-12.106412002848234L39.22745773976786,-11.48769943433807L38.372255631310004,-11.124006509671995L37.668932792975696,-11.0133185521302L37.11087112768966,-11.153621831517075L36.85834178896645,-11.40602528252417L36.627376164140536,-11.829446722599762L36.45825216995874,-12.330790292634752L36.39124630338168,-12.816959660258027L36.12847178692059,-14.824261063631043L35.93521899831035,-16.299744604429524L36.00497877699275,-17.577633176936235L36.13490957113938,-19.414080813186228L36.10207038793294,-19.978526310812715L36.00401994799712,-20.328463399552664L35.69477393380917,-21.9177555881185L35.586204297385,-23.210723710618833L35.653830137300766,-23.683492662146037L35.81666163872562,-24.31438747013099L36.1791231354319,-25.964389719682284L36.3258121402076,-27.509093993641915L36.25749817721208,-28.978109934709895L35.97495219039088,-30.401048132110393L35.48460533829369,-32.22016585712584L34.99082449646687,-33.91635659367384L34.72292502482643,-35.09433007360769L34.63172978627331,-35.767945303989244L33.68739254914282,-35.69396497398264L32.003331993239634,-35.41505837263841L31.00798940755408,-35.21135501054295L29.972725271475834,-35.130358570042844L28.957397300965237,-35.17318311009936L28.021863685244558,-35.340943162935964L27.270255808852088,-35.519832920357835L26.719648968017598,-35.58399069567349L26.2266352840397,-35.53558024316131L25.647808298003294,-35.376766736885884L24.97169282399694,-35.1613742744141L25.00635832561109,-34.09850334080339L25.123665800014486,-32.56806365951731L25.368112295491883,-31.221712519718594L25.73686249885841,-30.070998936204813L26.227080150404873,-29.127472870297638L27.079899857498553,-27.7860550145316L27.480601877651573,-27.178465524937394L27.818256395353504,-26.883629868146905L28.235816011174578,-26.83689192386299L28.87623285242296,-26.973596045050698L29.64594678987858,-27.117913533490228L30.337457479692944,-27.079680108974856L31.123354614337543,-26.824635855502063L32.17622930607,-26.31852038380728L33.12596125777155,-25.772507971348585L33.784267879307606,-25.227338438673296L34.26048501842714,-24.566817423815166L34.663949469403114,-23.674750564808008L34.94460477417222,-22.834912910122295L35.098167437552135,-22.09548017427323L35.12320962781551,-21.452202463687076L35.0183020934486,-20.900830358052037L34.78201652946192,-20.437113017270146L34.41292463086601,-20.056801967553838L33.909598092671295,-19.755646368805102L33.270608136626194,-19.529396800712252L32.66008489533222,-19.435064781022483L31.973941944149683,-19.53878395427981L30.71374485511475,-19.68346017538408L30.065705654634797,-19.692592240684785L29.54182865667884,-19.789983426528362L29.089602119457336,-19.99172606378235L28.656514301180717,-20.313912956576377L28.10925436985115,-20.70802527537951L27.592323912861378,-20.803638415548605L26.804328807369064,-20.851239116623745L26.09103575657155,-20.98655752641005L25.494795565172662,-21.198366921593735L25.057958564614108,-21.475441525385143L24.708835959932117,-21.85099345151813L24.455766629163502,-22.30214331748346L24.265600455908302,-22.907941510064642L24.10518685050446,-23.7474384160451L23.921600440095254,-24.585601196192098L23.65493476272504,-25.313090689922102L23.303685791469892,-25.933188023309445L22.86634902614363,-26.449173849166314L22.464647949717317,-26.90469003117977L22.15807113372049,-27.418155736404028L21.925574506031364,-28.033643497028688L21.74611352126613,-28.795225845243177L21.49436790456501,-29.723032510810214L21.072181205283847,-30.740853152752166L20.48085442090984,-31.845961308164874L19.721689022192173,-33.03563146066854L19.077612445197005,-34.05065228408233L18.734990095329778,-34.72929261134215L18.644769776683354,-35.40793293860195L18.607527836247847,-36.42295376201577L18.615976037827608,-37.156414403543174L18.66995252578763,-37.61560877852498L18.813482979370495,-37.985299826927644L19.09059118477035,-38.45024859566933L19.60010373175162,-39.12395185279973L20.169974705985044,-39.57572027231753L22.692292694453336,-41.20443140693577L24.596742887243234,-42.57515838397425L25.019823105351477,-43.00478902267882L25.15074869641262,-43.31598724299064L25.584108640391335,-44.19438061367545L25.875908794132563,-44.771969546082765L25.905503765707746,-45.06519421871679L24.908195722559785,-46.87513633831921L23.694273727484138,-49.40768483340054L23.23748399718481,-50.595942298563706L22.954483678756667,-51.68229507732497L22.826065430251678,-52.76815187741523L22.833023329508055,-53.9549237728759L22.98926607610721,-55.18969958871286L23.476160481253313,-56.684152420627846L24.248066095450632,-59.10024909916564L24.45843346104418,-60.05767014005358L24.532422783030505,-60.77320881947111L24.402351903305032,-61.53671308503563L24.02729642910512,-62.673417164142776L23.432795475889275,-64.11539564197331L22.64438815911603,-65.79472405023229L21.034431927887198,-69.45638029460407L19.795244362841387,-72.61710801979439L19.474931587926235,-73.82935277402089L19.34290613576649,-74.35158707926031L18.63468172195958,-73.99972192076312L17.925461091451904,-73.69533346867334L17.239281225826335,-73.4955510829987L16.591146899666157,-73.40365494328942L15.996063360816766,-73.42292475583338L15.407405301371776,-73.43375299246689L14.925149337975888,-73.14752455331862L13.908409626648933,-72.47257425057944L12.948839975869571,-72.09723813195981L12.394444198737524,-71.87758157805136L11.875342888538066,-71.55098482909699L10.00255061677638,-70.24299962719896L9.206588143988379,-69.70915809592485L8.745216290127631,-69.33486883304971L8.455046524288605,-68.95649910442911L8.172689369041626,-68.41041570265682L7.681146110379297,-67.58572006856069L7.092399077661284,-66.89212702554757L6.463761729848613,-66.38611377846428L5.852547525902333,-66.12415705889592L5.105069807774747,-66.09940687134244L4.293012637808756,-66.31542025367716L3.432853108951574,-66.76563353396512L2.5410678408883323,-67.4434820937473L1.6676612328524452,-68.06541331773582L1.2341342273557343,-68.38952402092819L0.8446191765009387,-68.97478453182464L0.48418560785299664,-69.85027443958344L0.13790446876312568,-71.04507380662523L-0.13592261056241622,-72.27076582989483L-0.2580459999999989,-73.21184371100722L-0.2325116171623844,-73.93814673667596L-0.06336537966232668,-74.51951419361491L0.4317694650057563,-75.21152606798324L1.331585990746915,-76.22982186506418L2.3391463105640886,-77.37833194028401L2.5803410222168104,-77.77612245205549L2.7366315682871134,-78.18149746209131L3.1026676135638795,-78.96159429655316L3.8070131712760205,-79.92123872274284L5.234433160674724,-81.85110261653728L6.320733407343924,-83.66235377908241L6.502640210593512,-84.05786222105284L6.593007713750117,-84.39315468766047L6.575590249028823,-85.40634114721101L6.545259354902716,-86.33250180722683L6.6752322693754165,-86.98569199230111L7.0462465585834755,-87.56445224838279L7.73904168171181,-88.26732264815841L8.662297459015385,-89.25603151911973L9.41656222878462,-90.35338669496386L10.488423249068834,-92.03691483101508L10.879975693223765,-92.57554151528754L10.298386749626472,-93.08057510984305L9.805809886558217,-93.60572991544376L9.343102013815624,-94.29676686990538L8.915515394080453,-95.14460738654348L8.528303709820728,-96.14017240541172L7.932227740367282,-97.54404003360827L7.282528336473411,-98.59979215885186L7.1860850945973525,-98.76783001653548L7.169805351941919,-98.9272052849126L7.326678010383691,-99.18177816934313L7.651027237669793,-99.28713246312358L8.040735852719653,-99.16688839744788L9.053498742699084,-98.13980506986822L9.831287477944958,-97.37355209808135L10.788052577575277,-96.82604323089214L11.668569948522814,-96.33190602271105L12.364346149560006,-95.81778721580172L12.90314226166085,-95.38925975103041L13.09531080682147,-95.35729326311909L13.328142504070751,-95.40764361694079L13.652183164473767,-95.5705754499288L13.702224478150264,-95.89573821474858L13.552355152125562,-97.89197900980159L13.487905374099984,-98.93754748137901L13.52682550190886,-99.48826506554272L13.59792839840445,-99.62116794561844L13.710328618190122,-99.68209286759307L14.079628752105927,-99.6569915195684L14.404087776197064,-99.54573990687665L14.796819116219744,-99.26008837421692L16.31054365372705,-97.70837698174341L17.534221473538853,-96.39108555409545L18.533038749493823,-96.29725803179433L20.125736532063808,-96.2124082913523L20.621527791251587,-96.28346054880421L21.134699127455516,-96.44230481711551L21.62584863205842,-96.59665072925537L21.91170556046559,-96.61840990039607L22.035350960786634,-96.4971109335204L22.039864461344905,-96.22228243161106L22.03272246313528,-96.03115600957399L22.115057762089805,-95.92788454225443L22.83225001925196,-95.85223359706792L23.69318096531687,-95.86148255810497L24.350973624222526,-96.03140683848203L24.976584934227745,-96.43892572578838L25.740972780115484,-97.16095803435138L26.54514918974837,-97.91207229838336L26.95730746532916,-98.15862670321242L27.126623603919743,-97.98048186032112L26.998496884862593,-97.53290748945052L26.69541368961876,-96.82497933771236L26.339321827390215,-96.11838389202144L26.052168634116832,-95.67480858581658L25.81920584326845,-95.37624220396563L25.838456725328818,-95.30453447851816L25.939052368788012,-95.25023049319147L26.46217877306826,-95.1976075348106L27.298544577057147,-95.24881212670587L28.215152915035794,-95.37964732470769L28.979005501499014,-95.56591807769497L29.659955821023182,-95.75694558795507L30.142560578579875,-95.79986194085717L30.438625297019716,-95.69370783414358L30.559954079407145,-95.4375249120807L30.490348584166288,-95.0945078616299L30.145636782168925,-94.70841638873875L29.846915170352297,-94.40336347667373L29.76289647814145,-94.23561478212729L31.473882334166557,-94.1378875801994L34.26526354575616,-94.05760339914565L34.52787573332013,-93.94850370918002L34.513483359882144,-93.72909514460709L34.44934072895337,-93.51055454270846L34.29512307084001,-93.32877457369912L33.609962138495554,-92.9881616946687L33.54183795359837,-92.93950609239359L33.60683576912489,-92.89030008630705L34.165676897074185,-92.77914833191646L35.6620010072954,-92.48427339437242L36.09463544048924,-92.32650958341407L36.30806102571241,-92.16440359277412L36.35221448571942,-91.89579612104606L36.205853451572544,-91.6106547649199L35.90701021139859,-91.35516422529568L35.49371610680032,-91.17550683676288L34.72364343667999,-90.93791364961976L34.70202340459395,-90.87457935034185L34.8448822992702,-90.80362979076352L35.70932863614426,-90.69091248537717L37.05864192336823,-90.55961585683697L37.72522258603471,-90.3730668257404L37.90604135973796,-90.25012374636185L37.98492231869299,-90.10896717542566L37.961646342551816,-89.95077080291641L37.83599573075282,-89.77670973860513L37.276697431624,-89.3856882945159L36.79417360188479,-89.07305467028326L36.724109042416046,-88.96496018899803L36.75157859394223,-88.87280375513889L36.97784567273244,-88.71690033745875L37.37613642253368,-88.57092737822613L38.54964751421503,-88.3492845433235L39.21128400782077,-88.25165152055156L39.566833984955515,-88.10728765242713L39.69450589914361,-87.85141471703365L39.67251057021966,-87.41925496571673L39.59356524762031,-86.81466737756337L40.28628748838672,-86.48174311445727L40.99912478779094,-86.22155781489401L41.740204948977436,-86.06351619908838L42.39855605715005,-85.93848035474512L42.502478259844246,-85.81945730526324L42.5422374813398,-85.61462663286787L42.5009411045739,-85.270173231972L42.24358875188512,-84.9760413159103L42.03699470494016,-84.7568613369272L41.971495704859635,-84.55454983864028L42.040261159889624,-84.37291516109276L42.23645953175197,-84.2157651710659L42.98383597179214,-83.9901530870091L44.158978871161935,-83.90817888702976L45.251743404726994,-83.8660533550811L45.44085609656847,-83.77661107931164L45.54299220813264,-83.60888368155929L45.649376793484386,-83.44543220679574L45.842256651567205,-83.3367612922842L46.80613866651638,-83.17407744863164"/>
</svg>