 0
SECTION
 2
ENTITIES
  0
POLYLINE
 8
Layer0
 66
     1
70
    8
 10
0.0
 20
 0.0
 30
0.0
  0
VERTEX
  8
MY3DLAYER
10
46.80613866651638
20
83.17407744863164
30
0.0
 70
     32
  0
VERTEX
  8
MY3DLAYER
10
48.51289805544119
20
83.07048629276984
30
0.0
 70
     32
  0
VERTEX
  8
MY3DLAYER
10
49.64664072932198
20
83.001674183225
30
0.0
 70
     32
  0
VERTEX
  8
MY3DLAYER
10
50.21965744436597
20
82.96689513690801
30
0.0
 70
     32
  0
VERTEX
  8
MY3DLAYER
10
52.17140687027924
20
82.85829237213747
30
0.0
 70
     32
  0
VERTEX
  8
MY3DLAYER
10
53.65574419826917
20
82.69782812768993
30
0.0
 70
     32
  0
VERTEX
  8
MY3DLAYER
10
54.76245245281032
20
82.56614389749757
30
0.0
 70
     32
  0
VERTEX
  8
MY3DLAYER
10
55.72928099753567
20
82.63975271676303
30
0.0
 70
     32
  0
VERTEX
  8
MY3DLAYER
10
56.75368613494447
20
82.75205639108225
30
0.0
 70
     32
  0
VERTEX
  8
MY3DLAYER
10
57.68670814875017
20
82.7793390040826
30
0.0
 70
     32
  0
VERTEX
  8
MY3DLAYER
10
58.40576931790827
20
82.7237051522812
30
0.0
 70
     32
  0
VERTEX
  8
MY3DLAYER
10
58.78829239463616
20
82.58725801240875
30
0.0
 70
     32
  0
VERTEX
  8
MY3DLAYER
10
58.90104424815515
20
82.39725700762317
30
0.0
 70
     32
  0
VERTEX
  8
MY3DLAYER
10
58.90698510717877
20
82.20980546571981
30
0.0
 70
     32
  0
VERTEX
  8
MY3DLAYER
10
58.81638002645272
20
82.08175068250043
30
0.0
 70
     32
  0
VERTEX
  8
MY3DLAYER
10
58.6193728496775
20
81.99114181567758
30
0.0
 70
     32
  0
VERTEX
  8
MY3DLAYER
10
57.66334177954972
20
81.85250441884972
30
0.0
 70
     32
  0
VERTEX
  8
MY3DLAYER
10
56.71337556311339
20
81.68197530952085
30
0.0
 70
     32
  0
VERTEX
  8
MY3DLAYER
10
55.676354678154716
20
81.39780981982562
30
0.0
 70
     32
  0
VERTEX
  8
MY3DLAYER
10
54.87389999600755
20
81.10149995162271
30
0.0
 70
     32
  0
VERTEX
  8
MY3DLAYER
10
54.66114076380803
20
80.98050718531974
30
0.0
 70
     32
  0
VERTEX
  8
MY3DLAYER
10
54.62763049495702
20
80.8945381800334
30
0.0
 70
     32
  0
VERTEX
  8
MY3DLAYER
10
54.986025250518544
20
80.69974965593904
30
0.0
 70
     32
  0
VERTEX
  8
MY3DLAYER
10
55.58608797982344
20
80.52552200337189
30
0.0
 70
     32
  0
VERTEX
  8
MY3DLAYER
10
57.30060437104462
20
80.26023067911292
30
0.0
 70
     32
  0
VERTEX
  8
MY3DLAYER
10
59.34995416464558
20
80.14162646658124
30
0.0
 70
     32
  0
VERTEX
  8
MY3DLAYER
10
61.31291280317534
20
80.21267257162602
30
0.0
 70
     32
  0
VERTEX
  8
MY3DLAYER
10
62.218068671822955
20
80.30433539312459
30
0.0
 70
     32
  0
VERTEX
  8
MY3DLAYER
10
62.177358193525215
20
79.94213608361655
30
0.0
 70
     32
  0
VERTEX
  8
MY3DLAYER
10
62.13278589656799
20
79.73817479368171
30
0.0
 70
     32
  0
VERTEX
  8
MY3DLAYER
10
62.011398429681336
20
79.60204000678904
30
0.0
 70
     32
  0
VERTEX
  8
MY3DLAYER
10
61.27220469118811
20
79.36310606814327
30
0.0
 70
     32
  0
VERTEX
  8
MY3DLAYER
10
59.022589311317994
20
78.91066230362215
30
0.0
 70
     32
  0
VERTEX
  8
MY3DLAYER
10
57.01172471766467
20
78.75408685377327
30
0.0
 70
     32
  0
VERTEX
  8
MY3DLAYER
10
56.17845546753475
20
78.72191118401793
30
0.0
 70
     32
  0
VERTEX
  8
MY3DLAYER
10
56.030785390445196
20
78.68821918252414
30
0.0
 70
     32
  0
VERTEX
  8
MY3DLAYER
10
56.06486168075648
20
78.64176093613581
30
0.0
 70
     32
  0
VERTEX
  8
MY3DLAYER
10
58.05515783068919
20
78.3128172804739
30
0.0
 70
     32
  0
VERTEX
  8
MY3DLAYER
10
59.59988434796707
20
78.1722645919653
30
0.0
 70
     32
  0
VERTEX
  8
MY3DLAYER
10
60.999224751004746
20
78.18054525876497
30
0.0
 70
     32
  0
VERTEX
  8
MY3DLAYER
10
62.096823183563444
20
78.20821878625223
30
0.0
 70
     32
  0
VERTEX
  8
MY3DLAYER
10
62.31497050466478
20
78.16256697846629
30
0.0
 70
     32
  0
VERTEX
  8
MY3DLAYER
10
62.40232853418712
20
78.07020704190812
30
0.0
 70
     32
  0
VERTEX
  8
MY3DLAYER
10
62.410324297208284
20
77.88673090156603
30
0.0
 70
     32
  0
VERTEX
  8
MY3DLAYER
10
62.33029283811087
20
77.70837924314121
30
0.0
 70
     32
  0
VERTEX
  8
MY3DLAYER
10
62.05411695902959
20
77.5168827301493
30
0.0
 70
     32
  0
VERTEX
  8
MY3DLAYER
10
61.52922859998597
20
77.27492937936529
30
0.0
 70
     32
  0
VERTEX
  8
MY3DLAYER
10
59.99339278434254
20
76.7231398565663
30
0.0
 70
     32
  0
VERTEX
  8
MY3DLAYER
10
58.24293734322136
20
76.21998795208307
30
0.0
 70
     32
  0
VERTEX
  8
MY3DLAYER
10
56.7980151751871
20
75.93244857694366
30
0.0
 70
     32
  0
VERTEX
  8
MY3DLAYER
10
56.10102127079073
20
75.78830430242932
30
0.0
 70
     32
  0
VERTEX
  8
MY3DLAYER
10
56.11258968933401
20
75.71187531436581
30
0.0
 70
     32
  0
VERTEX
  8
MY3DLAYER
10
56.34837690833926
20
75.63598205898893
30
0.0
 70
     32
  0
VERTEX
  8
MY3DLAYER
10
57.44513056806616
20
75.49612222618097
30
0.0
 70
     32
  0
VERTEX
  8
MY3DLAYER
10
59.29632978368096
20
75.38936471030182
30
0.0
 70
     32
  0
VERTEX
  8
MY3DLAYER
10
61.00596542296154
20
75.28709608535223
30
0.0
 70
     32
  0
VERTEX
  8
MY3DLAYER
10
61.24885488616083
20
75.19661168645926
30
0.0
 70
     32
  0
VERTEX
  8
MY3DLAYER
10
61.3105701558267
20
75.04063160032045
30
0.0
 70
     32
  0
VERTEX
  8
MY3DLAYER
10
61.27506366747755
20
74.80516241344009
30
0.0
 70
     32
  0
VERTEX
  8
MY3DLAYER
10
61.10996192780398
20
74.63691395412593
30
0.0
 70
     32
  0
VERTEX
  8
MY3DLAYER
10
60.51416565624609
20
74.40471169545722
30
0.0
 70
     32
  0
VERTEX
  8
MY3DLAYER
10
59.612842737270455
20
74.14424007232911
30
0.0
 70
     32
  0
VERTEX
  8
MY3DLAYER
10
57.860212656842776
20
73.79029823977825
30
0.0
 70
     32
  0
VERTEX
  8
MY3DLAYER
10
57.01172471766467
20
73.62328594104486
30
0.0
 70
     32
  0
VERTEX
  8
MY3DLAYER
10
57.90180387589117
20
73.31813790329961
30
0.0
 70
     32
  0
VERTEX
  8
MY3DLAYER
10
59.02072655172927
20
72.97546586091286
30
0.0
 70
     32
  0
VERTEX
  8
MY3DLAYER
10
59.1902130646725
20
72.79549895897274
30
0.0
 70
     32
  0
VERTEX
  8
MY3DLAYER
10
59.20213832283207
20
72.56186082312105
30
0.0
 70
     32
  0
VERTEX
  8
MY3DLAYER
10
59.068766440024504
20
72.32233388707563
30
0.0
 70
     32
  0
VERTEX
  8
MY3DLAYER
10
58.80236200332836
20
72.12469916476827
30
0.0
 70
     32
  0
VERTEX
  8
MY3DLAYER
10
58.40586775642309
20
72.00478827560438
30
0.0
 70
     32
  0
VERTEX
  8
MY3DLAYER
10
57.825835845103974
20
71.92816288377327
30
0.0
 70
     32
  0
VERTEX
  8
MY3DLAYER
10
56.28660863331914
20
71.8995570299675
30
0.0
 70
     32
  0
VERTEX
  8
MY3DLAYER
10
54.52757247723273
20
72.02845469297033
30
0.0
 70
     32
  0
VERTEX
  8
MY3DLAYER
10
52.89162137915216
20
72.30442943566308
30
0.0
 70
     32
  0
VERTEX
  8
MY3DLAYER
10
52.14426150328516
20
72.43148137651248
30
0.0
 70
     32
  0
VERTEX
  8
MY3DLAYER
10
52.11126141096788
20
72.37787687255565
30
0.0
 70
     32
  0
VERTEX
  8
MY3DLAYER
10
52.30844653428918
20
72.24649032421831
30
0.0
 70
     32
  0
VERTEX
  8
MY3DLAYER
10
52.4788322452046
20
72.09412927328646
30
0.0
 70
     32
  0
VERTEX
  8
MY3DLAYER
10
52.55646947138545
20
71.89644154562491
30
0.0
 70
     32
  0
VERTEX
  8
MY3DLAYER
10
52.535893928733394
20
71.69193695081006
30
0.0
 70
     32
  0
VERTEX
  8
MY3DLAYER
10
52.41164322619846
20
71.5191243518939
30
0.0
 70
     32
  0
VERTEX
  8
MY3DLAYER
10
52.177361453903515
20
71.39836537706356
30
0.0
 70
     32
  0
VERTEX
  8
MY3DLAYER
10
51.849912833185876
20
71.33412809371673
30
0.0
 70
     32
  0
VERTEX
  8
MY3DLAYER
10
50.95399929990616
20
71.36992847782417
30
0.0
 70
     32
  0
VERTEX
  8
MY3DLAYER
10
49.8008697134197
20
71.61594052429739
30
0.0
 70
     32
  0
VERTEX
  8
MY3DLAYER
10
48.46749305383551
20
72.06157877995533
30
0.0
 70
     32
  0
VERTEX
  8
MY3DLAYER
10
47.29021195634025
20
72.44293147953307
30
0.0
 70
     32
  0
VERTEX
  8
MY3DLAYER
10
48.04729689490754
20
71.9129318899107
30
0.0
 70
     32
  0
VERTEX
  8
MY3DLAYER
10
49.66947038700584
20
71.01265913951414
30
0.0
 70
     32
  0
VERTEX
  8
MY3DLAYER
10
50.677087498273885
20
70.64728802747472
30
0.0
 70
     32
  0
VERTEX
  8
MY3DLAYER
10
52.09016338696781
20
70.36373493892471
30
0.0
 70
     32
  0
VERTEX
  8
MY3DLAYER
10
53.87567382440381
20
70.16695918731189
30
0.0
 70
     32
  0
VERTEX
  8
MY3DLAYER
10
56.00059552842207
20
70.06192008608376
30
0.0
 70
     32
  0
VERTEX
  8
MY3DLAYER
10
57.484367308213606
20
70.03355228310961
30
0.0
 70
     32
  0
VERTEX
  8
MY3DLAYER
10
58.37383737812954
20
70.08710567476064
30
0.0
 70
     32
  0
VERTEX
  8
MY3DLAYER
10
59.066359902293684
20
70.28598365657999
30
0.0
 70
     32
  0
VERTEX
  8
MY3DLAYER
10
59.959290937878336
20
70.69359057063527
30
0.0
 70
     32
  0
VERTEX
  8
MY3DLAYER
10
61.72676772335099
20
71.37550397851386
30
0.0
 70
     32
  0
VERTEX
  8
MY3DLAYER
10
63.61855578890624
20
71.97231066463522
30
0.0
 70
     32
  0
VERTEX
  8
MY3DLAYER
10
65.55485036798804
20
72.47613034192834
30
0.0
 70
     32
  0
VERTEX
  8
MY3DLAYER
10
67.02613702056686
20
72.81464477684898
30
0.0
 70
     32
  0
VERTEX
  8
MY3DLAYER
10
68.42664638096838
20
73.04436761542499
30
0.0
 70
     32
  0
VERTEX
  8
MY3DLAYER
10
69.65151066884137
20
73.15183029181915
30
0.0
 70
     32
  0
VERTEX
  8
MY3DLAYER
10
70.59586210383462
20
73.12356424019443
30
0.0
 70
     32
  0
VERTEX
  8
MY3DLAYER
10
71.60321134875936
20
72.88797957736398
30
0.0
 70
     32
  0
VERTEX
  8
MY3DLAYER
10
72.90237305223971
20
72.4439764422292
30
0.0
 70
     32
  0
VERTEX
  8
MY3DLAYER
10
74.26790029868847
20
71.87708134002159
30
0.0
 70
     32
  0
VERTEX
  8
MY3DLAYER
10
75.47434664578061
20
71.27282124923501
30
0.0
 70
     32
  0
VERTEX
  8
MY3DLAYER
10
78.55207555856535
20
69.38264322131204
30
0.0
 70
     32
  0
VERTEX
  8
MY3DLAYER
10
79.8583049581071
20
68.47443197260742
30
0.0
 70
     32
  0
VERTEX
  8
MY3DLAYER
10
80.84571046527081
20
67.6997241735715
30
0.0
 70
     32
  0
VERTEX
  8
MY3DLAYER
10
82.07027896433713
20
66.53750085601364
30
0.0
 70
     32
  0
VERTEX
  8
MY3DLAYER
10
83.30032499884045
20
65.17641375449918
30
0.0
 70
     32
  0
VERTEX
  8
MY3DLAYER
10
84.5070713940981
20
63.65945636365078
30
0.0
 70
     32
  0
VERTEX
  8
MY3DLAYER
10
85.66174239521372
20
62.0296231246157
30
0.0
 70
     32
  0
VERTEX
  8
MY3DLAYER
10
86.73556177402892
20
60.32990753201669
30
0.0
 70
     32
  0
VERTEX
  8
MY3DLAYER
10
87.69975424890946
20
58.60330355373884
30
0.0
 70
     32
  0
VERTEX
  8
MY3DLAYER
10
88.52554264517285
20
56.89280468440493
30
0.0
 70
     32
  0
VERTEX
  8
MY3DLAYER
10
89.18415168118484
20
55.24140536516212
30
0.0
 70
     32
  0
VERTEX
  8
MY3DLAYER
10
89.64868823864568
20
54.05270634646844
30
0.0
 70
     32
  0
VERTEX
  8
MY3DLAYER
10
89.95998016485139
20
53.485016637210734
30
0.0
 70
     32
  0
VERTEX
  8
MY3DLAYER
10
90.90670832206371
20
52.661183286643684
30
0.0
 70
     32
  0
VERTEX
  8
MY3DLAYER
10
91.7944755949775
20
51.86499317479009
30
0.0
 70
     32
  0
VERTEX
  8
MY3DLAYER
10
92.63997488405336
20
51.21168278114471
30
0.0
 70
     32
  0
VERTEX
  8
MY3DLAYER
10
93.63855458243883
20
50.56336766886596
30
0.0
 70
     32
  0
VERTEX
  8
MY3DLAYER
10
94.98556261001931
20
49.782162454587805
30
0.0
 70
     32
  0
VERTEX
  8
MY3DLAYER
10
97.265652282429
20
48.42832667482587
30
0.0
 70
     32
  0
VERTEX
  8
MY3DLAYER
10
101.14513213663217
20
46.25072853381045
30
0.0
 70
     32
  0
VERTEX
  8
MY3DLAYER
10
103.03112274157722
20
45.289680412259976
30
0.0
 70
     32
  0
VERTEX
  8
MY3DLAYER
10
104.42173382535329
20
44.65604683655656
30
0.0
 70
     32
  0
VERTEX
  8
MY3DLAYER
10
105.19830769681249
20
44.3146824173262
30
0.0
 70
     32
  0
VERTEX
  8
MY3DLAYER
10
105.6414442890594
20
44.03403468475055
30
0.0
 70
     32
  0
VERTEX
  8
MY3DLAYER
10
105.77419383221785
20
43.79323325389516
30
0.0
 70
     32
  0
VERTEX
  8
MY3DLAYER
10
105.61960560988749
20
43.57140632003918
30
0.0
 70
     32
  0
VERTEX
  8
MY3DLAYER
10
105.30416175536074
20
43.45537381370795
30
0.0
 70
     32
  0
VERTEX
  8
MY3DLAYER
10
104.81690625123937
20
43.464818705250586
30
0.0
 70
     32
  0
VERTEX
  8
MY3DLAYER
10
102.84632288716769
20
43.78261940498868
30
0.0
 70
     32
  0
VERTEX
  8
MY3DLAYER
10
101.19104423856797
20
44.19262954394013
30
0.0
 70
     32
  0
VERTEX
  8
MY3DLAYER
10
100.23924365826834
20
44.41108164582783
30
0.0
 70
     32
  0
VERTEX
  8
MY3DLAYER
10
101.5525052592147
20
43.28049684555253
30
0.0
 70
     32
  0
VERTEX
  8
MY3DLAYER
10
104.06667793384108
20
41.378420062147114
30
0.0
 70
     32
  0
VERTEX
  8
MY3DLAYER
10
105.70991584833108
20
40.131294945317336
30
0.0
 70
     32
  0
VERTEX
  8
MY3DLAYER
10
106.74436455382721
20
39.17799885681127
30
0.0
 70
     32
  0
VERTEX
  8
MY3DLAYER
10
107.04269856399164
20
38.80114829950163
30
0.0
 70
     32
  0
VERTEX
  8
MY3DLAYER
10
107.20012162624478
20
38.485288447597156
30
0.0
 70
     32
  0
VERTEX
  8
MY3DLAYER
10
107.22039617420718
20
38.226264059942245
30
0.0
 70
     32
  0
VERTEX
  8
MY3DLAYER
10
107.10728416823726
20
38.01991942211898
30
0.0
 70
     32
  0
VERTEX
  8
MY3DLAYER
10
106.98512433761866
20
37.9329504140352
30
0.0
 70
     32
  0
VERTEX
  8
MY3DLAYER
10
106.81568609740862
20
37.91641369006453
30
0.0
 70
     32
  0
VERTEX
  8
MY3DLAYER
10
106.09665332397611
20
38.11769726309061
30
0.0
 70
     32
  0
VERTEX
  8
MY3DLAYER
10
103.80368287724588
20
39.073006608530164
30
0.0
 70
     32
  0
VERTEX
  8
MY3DLAYER
10
102.20968504371294
20
39.74754611977472
30
0.0
 70
     32
  0
VERTEX
  8
MY3DLAYER
10
101.45251539123149
20
40.06962226923954
30
0.0
 70
     32
  0
VERTEX
  8
MY3DLAYER
10
100.77728539059669
20
40.34131115043963
30
0.0
 70
     32
  0
VERTEX
  8
MY3DLAYER
10
101.0499425660342
20
39.91834877459196
30
0.0
 70
     32
  0
VERTEX
  8
MY3DLAYER
10
101.86003569832408
20
38.92830719758348
30
0.0
 70
     32
  0
VERTEX
  8
MY3DLAYER
10
104.30894742370167
20
36.172039666807855
30
0.0
 70
     32
  0
VERTEX
  8
MY3DLAYER
10
105.55029306388073
20
34.77609349948411
30
0.0
 70
     32
  0
VERTEX
  8
MY3DLAYER
10
106.24525383433574
20
33.88630066482241
30
0.0
 70
     32
  0
VERTEX
  8
MY3DLAYER
10
106.44734621227488
20
33.44260609657069
30
0.0
 70
     32
  0
VERTEX
  8
MY3DLAYER
10
106.47658481749569
20
33.11676420065076
30
0.0
 70
     32
  0
VERTEX
  8
MY3DLAYER
10
106.33451153788992
20
32.915977079557734
30
0.0
 70
     32
  0
VERTEX
  8
MY3DLAYER
10
106.02267015439693
20
32.847447309048874
30
0.0
 70
     32
  0
VERTEX
  8
MY3DLAYER
10
105.31426874056814
20
33.05442659133562
30
0.0
 70
     32
  0
VERTEX
  8
MY3DLAYER
10
103.94475236795739
20
33.61555972758982
30
0.0
 70
     32
  0
VERTEX
  8
MY3DLAYER
10
100.04874099566666
20
35.44146024488815
30
0.0
 70
     32
  0
VERTEX
  8
MY3DLAYER
10
99.54934584565885
20
35.67950729037612
30
0.0
 70
     32
  0
VERTEX
  8
MY3DLAYER
10
99.44544446649653
20
35.710849545589916
30
0.0
 70
     32
  0
VERTEX
  8
MY3DLAYER
10
99.44655663240955
20
35.67322710243353
30
0.0
 70
     32
  0
VERTEX
  8
MY3DLAYER
10
100.618376285379
20
34.67542828649759
30
0.0
 70
     32
  0
VERTEX
  8
MY3DLAYER
10
101.84187899821724
20
33.625677124563225
30
0.0
 70
     32
  0
VERTEX
  8
MY3DLAYER
10
103.09081386928156
20
32.45928531451118
30
0.0
 70
     32
  0
VERTEX
  8
MY3DLAYER
10
104.28512908920469
20
31.25395965204964
30
0.0
 70
     32
  0
VERTEX
  8
MY3DLAYER
10
105.34477426840573
20
30.08740787941098
30
0.0
 70
     32
  0
VERTEX
  8
MY3DLAYER
10
107.31236282996801
20
27.843219395934085
30
0.0
 70
     32
  0
VERTEX
  8
MY3DLAYER
10
108.67334013467756
20
26.162236463406256
30
0.0
 70
     32
  0
VERTEX
  8
MY3DLAYER
10
109.64312656746932
20
24.706984403719936
30
0.0
 70
     32
  0
VERTEX
  8
MY3DLAYER
10
109.74974257798335
20
24.38865175739197
30
0.0
 70
     32
  0
VERTEX
  8
MY3DLAYER
10
109.75485428182422
20
24.101768796772333
30
0.0
 70
     32
  0
VERTEX
  8
MY3DLAYER
10
109.66655209443113
20
23.894395287164105
30
0.0
 70
     32
  0
VERTEX
  8
MY3DLAYER
10
109.49292501145699
20
23.814590520608153
30
0.0
 70
     32
  0
VERTEX
  8
MY3DLAYER
10
109.17394399606489
20
23.988510552816347
30
0.0
 70
     32
  0
VERTEX
  8
MY3DLAYER
10
108.61410191879389
20
24.4062182996718
30
0.0
 70
     32
  0
VERTEX
  8
MY3DLAYER
10
107.55889025885794
20
25.34869230395151
30
0.0
 70
     32
  0
VERTEX
  8
MY3DLAYER
10
106.48412719543401
20
26.428844876063483
30
0.0
 70
     32
  0
VERTEX
  8
MY3DLAYER
10
105.0413190891586
20
27.668026288702137
30
0.0
 70
     32
  0
VERTEX
  8
MY3DLAYER
10
103.31936254461067
20
28.99417576290036
30
0.0
 70
     32
  0
VERTEX
  8
MY3DLAYER
10
101.40715558615548
20
30.335235359263816
30
0.0
 70
     32
  0
VERTEX
  8
MY3DLAYER
10
98.58183580352296
20
32.236385968757844
30
0.0
 70
     32
  0
VERTEX
  8
MY3DLAYER
10
97.8004109956348
20
32.675204517689885
30
0.0
 70
     32
  0
VERTEX
  8
MY3DLAYER
10
97.88073114460742
20
32.49667112662224
30
0.0
 70
     32
  0
VERTEX
  8
MY3DLAYER
10
98.23566351471392
20
32.055164922277584
30
0.0
 70
     32
  0
VERTEX
  8
MY3DLAYER
10
99.82905746581916
20
30.313747367301033
30
0.0
 70
     32
  0
VERTEX
  8
MY3DLAYER
10
100.51413794360823
20
29.551290430743073
30
0.0
 70
     32
  0
VERTEX
  8
MY3DLAYER
10
100.87313705485947
20
29.03970925516366
30
0.0
 70
     32
  0
VERTEX
  8
MY3DLAYER
10
100.94708378325765
20
28.69815458457284
30
0.0
 70
     32
  0
VERTEX
  8
MY3DLAYER
10
100.77700758574953
20
28.44577810950494
30
0.0
 70
     32
  0
VERTEX
  8
MY3DLAYER
10
100.6472613638182
20
28.37440072099674
30
0.0
 70
     32
  0
VERTEX
  8
MY3DLAYER
10
100.47762671984064
20
28.381423930421654
30
0.0
 70
     32
  0
VERTEX
  8
MY3DLAYER
10
99.81994291121583
20
28.679135127674815
30
0.0
 70
     32
  0
VERTEX
  8
MY3DLAYER
10
98.31985068822907
20
29.590006109328787
30
0.0
 70
     32
  0
VERTEX
  8
MY3DLAYER
10
96.9408633946607
20
30.53028843686679
30
0.0
 70
     32
  0
VERTEX
  8
MY3DLAYER
10
96.07605927164614
20
31.238233626040255
30
0.0
 70
     32
  0
VERTEX
  8
MY3DLAYER
10
94.89281270549854
20
32.33699628334189
30
0.0
 70
     32
  0
VERTEX
  8
MY3DLAYER
10
93.48279787600676
20
33.71406449913265
30
0.0
 70
     32
  0
VERTEX
  8
MY3DLAYER
10
93.5646816829268
20
33.18666406491198
30
0.0
 70
     32
  0
VERTEX
  8
MY3DLAYER
10
93.82899761401707
20
32.36104888257377
30
0.0
 70
     32
  0
VERTEX
  8
MY3DLAYER
10
94.38020123834781
20
31.254074654737664
30
0.0
 70
     32
  0
VERTEX
  8
MY3DLAYER
10
95.15785414737365
20
29.97429445365472
30
0.0
 70
     32
  0
VERTEX
  8
MY3DLAYER
10
96.10151793254924
20
28.63026087831378
30
0.0
 70
     32
  0
VERTEX
  8
MY3DLAYER
10
96.91981269686974
20
27.36774243872433
30
0.0
 70
     32
  0
VERTEX
  8
MY3DLAYER
10
97.47622835660461
20
26.06387319722853
30
0.0
 70
     32
  0
VERTEX
  8
MY3DLAYER
10
97.8075766569489
20
24.60404989900886
30
0.0
 70
     32
  0
VERTEX
  8
MY3DLAYER
10
97.95067170940843
20
22.873667396199448
30
0.0
 70
     32
  0
VERTEX
  8
MY3DLAYER
10
98.04493652588133
20
21.375248627965068
30
0.0
 70
     32
  0
VERTEX
  8
MY3DLAYER
10
98.19223745854015
20
20.23908406764128
30
0.0
 70
     32
  0
VERTEX
  8
MY3DLAYER
10
98.32357431435804
20
19.263449535195633
30
0.0
 70
     32
  0
VERTEX
  8
MY3DLAYER
10
98.37945426244666
20
18.150982627535747
30
0.0
 70
     32
  0
VERTEX
  8
MY3DLAYER
10
98.51918820753848
20
15.632690679672404
30
0.0
 70
     32
  0
VERTEX
  8
MY3DLAYER
10
98.87624268485938
20
13.353314213233311
30
0.0
 70
     32
  0
VERTEX
  8
MY3DLAYER
10
99.30043080952171
20
10.848523013029265
30
0.0
 70
     32
  0
VERTEX
  8
MY3DLAYER
10
99.54140971366114
20
9.468850909215869
30
0.0
 70
     32
  0
VERTEX
  8
MY3DLAYER
10
99.87313520389168
20
8.27666868153518
30
0.0
 70
     32
  0
VERTEX
  8
MY3DLAYER
10
100.25306575088719
20
7.150164347005243
30
0.0
 70
     32
  0
VERTEX
  8
MY3DLAYER
10
100.47493906442794
20
6.313480510891455
30
0.0
 70
     32
  0
VERTEX
  8
MY3DLAYER
10
100.57874105855117
20
5.572975363145056
30
0.0
 70
     32
  0
VERTEX
  8
MY3DLAYER
10
100.60445622750738
20
4.735008986765672
30
0.0
 70
     32
  0
VERTEX
  8
MY3DLAYER
10
100.57205244542442
20
3.677544599278296
30
0.0
 70
     32
  0
VERTEX
  8
MY3DLAYER
10
100.46604788953144
20
2.8561840431347845
30
0.0
 70
     32
  0
VERTEX
  8
MY3DLAYER
10
100.27325179883863
20
2.2059621578928614
30
0.0
 70
     32
  0
VERTEX
  8
MY3DLAYER
10
99.98047341235605
20
1.6619142563723484
30
0.0
 70
     32
  0
VERTEX
  8
MY3DLAYER
10
99.52774095795962
20
1.1044044146839869
30
0.0
 70
     32
  0
VERTEX
  8
MY3DLAYER
10
98.99622692964728
20
0.713317187164132
30
0.0
 70
     32
  0
VERTEX
  8
MY3DLAYER
10
98.28864567902156
20
0.4361886314943877
30
0.0
 70
     32
  0
VERTEX
  8
MY3DLAYER
10
97.30771345073336
20
0.2205557518805382
30
0.0
 70
     32
  0
VERTEX
  8
MY3DLAYER
10
95.67583004032167
20
0.0
30
0.0
 70
     32
  0
VERTEX
  8
MY3DLAYER
10
95.22624288577963
20
0.032672121688432386
30
0.0
 70
     32
  0
VERTEX
  8
MY3DLAYER
10
94.85159820307429
20
0.15620961825280485
30
0.0
 70
     32
  0
VERTEX
  8
MY3DLAYER
10
94.42512611556255
20
0.41330215005382204
30
0.0
 70
     32
  0
VERTEX
  8
MY3DLAYER
10
94.1420467623653
20
0.7597068105493484
30
0.0
 70
     32
  0
VERTEX
  8
MY3DLAYER
10
93.98549166278633
20
1.226631448519418
30
0.0
 70
     32
  0
VERTEX
  8
MY3DLAYER
10
93.93859138960529
20
1.8452843860061567
30
0.0
 70
     32
  0
VERTEX
  8
MY3DLAYER
10
93.98149165159634
20
2.496618437161048
30
0.0
 70
     32
  0
VERTEX
  8
MY3DLAYER
10
94.15765257980364
20
3.1245667153697703
30
0.0
 70
     32
  0
VERTEX
  8
MY3DLAYER
10
94.54541656092319
20
3.927980226512573
30
0.0
 70
     32
  0
VERTEX
  8
MY3DLAYER
10
95.22312692817484
20
5.10571092299392
30
0.0
 70
     32
  0
VERTEX
  8
MY3DLAYER
10
95.81436757884839
20
6.174826549890411
30
0.0
 70
     32
  0
VERTEX
  8
MY3DLAYER
10
96.1412061647312
20
7.031411530177096
30
0.0
 70
     32
  0
VERTEX
  8
MY3DLAYER
10
96.26509434850479
20
7.912358149840832
30
0.0
 70
     32
  0
VERTEX
  8
MY3DLAYER
10
96.24748284632629
20
9.054561061178914
30
0.0
 70
     32
  0
VERTEX
  8
MY3DLAYER
10
96.05926083373933
20
10.735951945628871
30
0.0
 70
     32
  0
VERTEX
  8
MY3DLAYER
10
95.70582491836342
20
12.605924521854602
30
0.0
 70
     32
  0
VERTEX
  8
MY3DLAYER
10
95.28767419819107
20
14.211756747225728
30
0.0
 70
     32
  0
VERTEX
  8
MY3DLAYER
10
95.08573657695575
20
14.774144974544257
30
0.0
 70
     32
  0
VERTEX
  8
MY3DLAYER
10
94.90530777121519
20
15.100727525636014
30
0.0
 70
     32
  0
VERTEX
  8
MY3DLAYER
10
94.56533379600712
20
15.626998283246358
30
0.0
 70
     32
  0
VERTEX
  8
MY3DLAYER
10
94.1776005769235
20
16.433607733287158
30
0.0
 70
     32
  0
VERTEX
  8
MY3DLAYER
10
93.80334396913258
20
17.379703612346415
30
0.0
 70
     32
  0
VERTEX
  8
MY3DLAYER
10
93.50379840801618
20
18.32443271048795
30
0.0
 70
     32
  0
VERTEX
  8
MY3DLAYER
10
93.04398169338523
20
19.720596105111284
30
0.0
 70
     32
  0
VERTEX
  8
MY3DLAYER
10
92.82869524162172
20
20.12221814676847
30
0.0
 70
     32
  0
VERTEX
  8
MY3DLAYER
10
92.61712815662843
20
20.339904510593545
30
0.0
 70
     32
  0
VERTEX
  8
MY3DLAYER
10
92.43553323309663
20
20.539561955076227
30
0.0
 70
     32
  0
VERTEX
  8
MY3DLAYER
10
92.20782885733709
20
20.937542718208142
30
0.0
 70
     32
  0
VERTEX
  8
MY3DLAYER
10
91.64522860860198
20
22.266747572463466
30
0.0
 70
     32
  0
VERTEX
  8
MY3DLAYER
10
91.37650329461341
20
23.24462347417036
30
0.0
 70
     32
  0
VERTEX
  8
MY3DLAYER
10
91.25739032533428
20
24.56732902013513
30
0.0
 70
     32
  0
VERTEX
  8
MY3DLAYER
10
91.20943089159447
20
25.413111793203296
30
0.0
 70
     32
  0
VERTEX
  8
MY3DLAYER
10
91.12695976641999
20
25.953785336017656
30
0.0
 70
     32
  0
VERTEX
  8
MY3DLAYER
10
90.95255274752054
20
26.412830160178792
30
0.0
 70
     32
  0
VERTEX
  8
MY3DLAYER
10
90.62878610586793
20
27.01372819707363
30
0.0
 70
     32
  0
VERTEX
  8
MY3DLAYER
10
89.68606789834953
20
28.60495318801759
30
0.0
 70
     32
  0
VERTEX
  8
MY3DLAYER
10
88.69200974597788
20
30.173156817825156
30
0.0
 70
     32
  0
VERTEX
  8
MY3DLAYER
10
87.1523589646219
20
32.30488781680337
30
0.0
 70
     32
  0
VERTEX
  8
MY3DLAYER
10
84.98011720394828
20
34.91747770948598
30
0.0
 70
     32
  0
VERTEX
  8
MY3DLAYER
10
83.68481779238955
20
36.510188743394494
30
0.0
 70
     32
  0
VERTEX
  8
MY3DLAYER
10
82.76571914929004
20
38.051129637209506
30
0.0
 70
     32
  0
VERTEX
  8
MY3DLAYER
10
82.43894161421693
20
38.6079045028711
30
0.0
 70
     32
  0
VERTEX
  8
MY3DLAYER
10
82.0452717954685
20
39.1008367857694
30
0.0
 70
     32
  0
VERTEX
  8
MY3DLAYER
10
80.67097784205296
20
40.31210046768203
30
0.0
 70
     32
  0
VERTEX
  8
MY3DLAYER
10
79.40996863527053
20
41.65041467065774
30
0.0
 70
     32
  0
VERTEX
  8
MY3DLAYER
10
78.61851918977872
20
42.612361043656236
30
0.0
 70
     32
  0
VERTEX
  8
MY3DLAYER
10
77.84886015072564
20
42.29565026651281
30
0.0
 70
     32
  0
VERTEX
  8
MY3DLAYER
10
76.9097690238697
20
41.89471445488705
30
0.0
 70
     32
  0
VERTEX
  8
MY3DLAYER
10
76.71668424330159
20
41.63358073809417
30
0.0
 70
     32
  0
VERTEX
  8
MY3DLAYER
10
76.49038166985461
20
41.124022757952204
30
0.0
 70
     32
  0
VERTEX
  8
MY3DLAYER
10
76.19470124023233
20
40.444996722088526
30
0.0
 70
     32
  0
VERTEX
  8
MY3DLAYER
10
75.7821023576452
20
39.774465740751594
30
0.0
 70
     32
  0
VERTEX
  8
MY3DLAYER
10
75.18100034478933
20
39.01117917574873
30
0.0
 70
     32
  0
VERTEX
  8
MY3DLAYER
10
74.31981147088503
20
38.05388638888739
30
0.0
 70
     32
  0
VERTEX
  8
MY3DLAYER
10
72.7977504216514
20
36.308558269256
30
0.0
 70
     32
  0
VERTEX
  8
MY3DLAYER
10
72.20020450014451
20
35.642797769792566
30
0.0
 70
     32
  0
VERTEX
  8
MY3DLAYER
10
71.95427527453711
20
35.35797681210177
30
0.0
 70
     32
  0
VERTEX
  8
MY3DLAYER
10
71.33551348676951
20
33.93528139815378
30
0.0
 70
     32
  0
VERTEX
  8
MY3DLAYER
10
70.71675169900193
20
32.62241449779102
30
0.0
 70
     32
  0
VERTEX
  8
MY3DLAYER
10
70.84417183775783
20
31.762643990372354
30
0.0
 70
     32
  0
VERTEX
  8
MY3DLAYER
10
71.21556000401748
20
29.052906168560767
30
0.0
 70
     32
  0
VERTEX
  8
MY3DLAYER
10
71.3344051069533
20
27.60231195437036
30
0.0
 70
     32
  0
VERTEX
  8
MY3DLAYER
10
71.38728410012519
20
26.621032351707765
30
0.0
 70
     32
  0
VERTEX
  8
MY3DLAYER
10
71.55004555876056
20
25.678110641490317
30
0.0
 70
     32
  0
VERTEX
  8
MY3DLAYER
10
71.84000282992088
20
24.70007903655561
30
0.0
 70
     32
  0
VERTEX
  8
MY3DLAYER
10
72.27447068045379
20
23.61347116952752
30
0.0
 70
     32
  0
VERTEX
  8
MY3DLAYER
10
72.77501159798308
20
22.350696695147036
30
0.0
 70
     32
  0
VERTEX
  8
MY3DLAYER
10
72.94221320155278
20
21.597576273112907
30
0.0
 70
     32
  0
VERTEX
  8
MY3DLAYER
10
72.88940235812198
20
21.042928247286557
30
0.0
 70
     32
  0
VERTEX
  8
MY3DLAYER
10
72.74542609164975
20
20.450914286356973
30
0.0
 70
     32
  0
VERTEX
  8
MY3DLAYER
10
72.53197069091482
20
19.891397340142248
30
0.0
 70
     32
  0
VERTEX
  8
MY3DLAYER
10
72.2707200783856
20
19.4342413049848
30
0.0
 70
     32
  0
VERTEX
  8
MY3DLAYER
10
71.97630467833159
20
18.90098851175144
30
0.0
 70
     32
  0
VERTEX
  8
MY3DLAYER
10
71.7021605134053
20
18.21611674254436
30
0.0
 70
     32
  0
VERTEX
  8
MY3DLAYER
10
71.36784154691807
20
17.46362102646989
30
0.0
 70
     32
  0
VERTEX
  8
MY3DLAYER
10
70.88382599506923
20
16.79207016532764
30
0.0
 70
     32
  0
VERTEX
  8
MY3DLAYER
10
70.41852275302168
20
16.154101508874106
30
0.0
 70
     32
  0
VERTEX
  8
MY3DLAYER
10
70.1557037499241
20
15.501460307824914
30
0.0
 70
     32
  0
VERTEX
  8
MY3DLAYER
10
68.9197353136187
20
12.27140489224096
30
0.0
 70
     32
  0
VERTEX
  8
MY3DLAYER
10
67.79933511353369
20
9.411916533189418
30
0.0
 70
     32
  0
VERTEX
  8
MY3DLAYER
10
67.57350059629427
20
8.630890685243664
30
0.0
 70
     32
  0
VERTEX
  8
MY3DLAYER
10
67.50855862569446
20
8.098976277202606
30
0.0
 70
     32
  0
VERTEX
  8
MY3DLAYER
10
67.4562584320594
20
7.725372297834649
30
0.0
 70
     32
  0
VERTEX
  8
MY3DLAYER
10
67.3028065120087
20
7.362283728858285
30
0.0
 70
     32
  0
VERTEX
  8
MY3DLAYER
10
67.0533751469307
20
7.018783951075023
30
0.0
 70
     32
  0
VERTEX
  8
MY3DLAYER
10
66.71313851126227
20
6.703946345286319
30
0.0
 70
     32
  0
VERTEX
  8
MY3DLAYER
10
66.4257898607455
20
6.4240042464878
30
0.0
 70
     32
  0
VERTEX
  8
MY3DLAYER
10
66.29161153933552
20
6.141112305078423
30
0.0
 70
     32
  0
VERTEX
  8
MY3DLAYER
10
66.30805550393634
20
5.8426926344756085
30
0.0
 70
     32
  0
VERTEX
  8
MY3DLAYER
10
66.4725746579764
20
5.516165455048445
30
0.0
 70
     32
  0
VERTEX
  8
MY3DLAYER
10
66.76395408171904
20
4.852201931743118
30
0.0
 70
     32
  0
VERTEX
  8
MY3DLAYER
10
66.90506711254298
20
4.00572961580892
30
0.0
 70
     32
  0
VERTEX
  8
MY3DLAYER
10
66.88624879203347
20
3.114115668622483
30
0.0
 70
     32
  0
VERTEX
  8
MY3DLAYER
10
66.6978322687273
20
2.314728198084629
30
0.0
 70
     32
  0
VERTEX
  8
MY3DLAYER
10
66.43826552271645
20
2.0559158318462742
30
0.0
 70
     32
  0
VERTEX
  8
MY3DLAYER
10
65.90303875330315
20
1.7718625052664985
30
0.0
 70
     32
  0
VERTEX
  8
MY3DLAYER
10
65.18472391846201
20
1.5033728757990303
30
0.0
 70
     32
  0
VERTEX
  8
MY3DLAYER
10
64.37589250290573
20
1.2912511276355325
30
0.0
 70
     32
  0
VERTEX
  8
MY3DLAYER
10
62.38363326182113
20
0.86202512801843
30
0.0
 70
     32
  0
VERTEX
  8
MY3DLAYER
10
61.42886674799952
20
0.6773407495589531
30
0.0
 70
     32
  0
VERTEX
  8
MY3DLAYER
10
60.732699632475466
20
0.6250344035167363
30
0.0
 70
     32
  0
VERTEX
  8
MY3DLAYER
10
60.17370422108468
20
0.7080791223450879
30
0.0
 70
     32
  0
VERTEX
  8
MY3DLAYER
10
59.630453766186825
20
0.9294498315456831
30
0.0
 70
     32
  0
VERTEX
  8
MY3DLAYER
10
59.06453736998273
20
1.303382728066631
30
0.0
 70
     32
  0
VERTEX
  8
MY3DLAYER
10
58.73654781069548
20
1.8355621628784342
30
0.0
 70
     32
  0
VERTEX
  8
MY3DLAYER
10
58.48320824727314
20
2.41738773752105
30
0.0
 70
     32
  0
VERTEX
  8
MY3DLAYER
10
59.09702397293159
20
3.6753997754835828
30
0.0
 70
     32
  0
VERTEX
  8
MY3DLAYER
10
59.85689879152311
20
5.4352357445031005
30
0.0
 70
     32
  0
VERTEX
  8
MY3DLAYER
10
60.125833287355796
20
6.116555681720036
30
0.0
 70
     32
  0
VERTEX
  8
MY3DLAYER
10
60.523922900768554
20
6.819447378289771
30
0.0
 70
     32
  0
VERTEX
  8
MY3DLAYER
10
61.00111732610516
20
7.466707589368567
30
0.0
 70
     32
  0
VERTEX
  8
MY3DLAYER
10
61.507369097282044
20
7.981134489898913
30
0.0
 70
     32
  0
VERTEX
  8
MY3DLAYER
10
62.1503245163845
20
8.519731831921693
30
0.0
 70
     32
  0
VERTEX
  8
MY3DLAYER
10
62.426846823316154
20
9.925706896207878
30
0.0
 70
     32
  0
VERTEX
  8
MY3DLAYER
10
62.70283481734749
20
11.072297420388137
30
0.0
 70
     32
  0
VERTEX
  8
MY3DLAYER
10
63.08305358095612
20
12.109998856233082
30
0.0
 70
     32
  0
VERTEX
  8
MY3DLAYER
10
63.63448531761462
20
13.19115095788045
30
0.0
 70
     32
  0
VERTEX
  8
MY3DLAYER
10
64.42411223079537
20
14.468092532943821
30
0.0
 70
     32
  0
VERTEX
  8
MY3DLAYER
10
65.32538545725149
20
15.848112484393832
30
0.0
 70
     32
  0
VERTEX
  8
MY3DLAYER
10
65.43327122995466
20
17.03994828422418
30
0.0
 70
     32
  0
VERTEX
  8
MY3DLAYER
10
65.49965664993094
20
18.32379853928652
30
0.0
 70
     32
  0
VERTEX
  8
MY3DLAYER
10
65.44088932982747
20
19.465417918466848
30
0.0
 70
     32
  0
VERTEX
  8
MY3DLAYER
10
65.24644723358348
20
20.557627788861698
30
0.0
 70
     32
  0
VERTEX
  8
MY3DLAYER
10
64.90580927166225
20
21.693248571043334
30
0.0
 70
     32
  0
VERTEX
  8
MY3DLAYER
10
64.49192453597485
20
23.035017114018537
30
0.0
 70
     32
  0
VERTEX
  8
MY3DLAYER
10
64.16942765651147
20
24.34550255954126
30
0.0
 70
     32
  0
VERTEX
  8
MY3DLAYER
10
63.90267205934406
20
25.40321824919877
30
0.0
 70
     32
  0
VERTEX
  8
MY3DLAYER
10
63.622803316169595
20
26.13726857529112
30
0.0
 70
     32
  0
VERTEX
  8
MY3DLAYER
10
62.443658985823525
20
28.467571828778215
30
0.0
 70
     32
  0
VERTEX
  8
MY3DLAYER
10
61.54005920292991
20
30.526505652976425
30
0.0
 70
     32
  0
VERTEX
  8
MY3DLAYER
10
61.08483975624733
20
32.34562195820563
30
0.0
 70
     32
  0
VERTEX
  8
MY3DLAYER
10
60.68214530269276
20
33.69760870297949
30
0.0
 70
     32
  0
VERTEX
  8
MY3DLAYER
10
60.093377919704885
20
35.181165148519845
30
0.0
 70
     32
  0
VERTEX
  8
MY3DLAYER
10
59.50971230205389
20
36.36186319830942
30
0.0
 70
     32
  0
VERTEX
  8
MY3DLAYER
10
59.27953465860878
20
36.70288213621364
30
0.0
 70
     32
  0
VERTEX
  8
MY3DLAYER
10
59.122322671248085
20
36.80527570235516
30
0.0
 70
     32
  0
VERTEX
  8
MY3DLAYER
10
57.999662644680335
20
36.61111756336552
30
0.0
 70
     32
  0
VERTEX
  8
MY3DLAYER
10
56.42485322261181
20
36.32995728794569
30
0.0
 70
     32
  0
VERTEX
  8
MY3DLAYER
10
54.35664298817524
20
35.840715502830115
30
0.0
 70
     32
  0
VERTEX
  8
MY3DLAYER
10
53.17080767839196
20
35.62097518153173
30
0.0
 70
     32
  0
VERTEX
  8
MY3DLAYER
10
51.848515290232314
20
35.51324321900795
30
0.0
 70
     32
  0
VERTEX
  8
MY3DLAYER
10
50.78178111817582
20
35.52652200674673
30
0.0
 70
     32
  0
VERTEX
  8
MY3DLAYER
10
49.8724922516908
20
35.66445045696286
30
0.0
 70
     32
  0
VERTEX
  8
MY3DLAYER
10
49.002817315239504
20
35.95543849295658
30
0.0
 70
     32
  0
VERTEX
  8
MY3DLAYER
10
48.05492398676006
20
36.42789556476608
30
0.0
 70
     32
  0
VERTEX
  8
MY3DLAYER
10
46.496676371553015
20
37.15450195143497
30
0.0
 70
     32
  0
VERTEX
  8
MY3DLAYER
10
45.683003011547505
20
37.4656377011508
30
0.0
 70
     32
  0
VERTEX
  8
MY3DLAYER
10
44.52442239230127
20
36.77160405113133
30
0.0
 70
     32
  0
VERTEX
  8
MY3DLAYER
10
42.87678456015472
20
35.81116454462934
30
0.0
 70
     32
  0
VERTEX
  8
MY3DLAYER
10
42.50121039070348
20
35.542319495331846
30
0.0
 70
     32
  0
VERTEX
  8
MY3DLAYER
10
42.10241987613448
20
35.1447637215573
30
0.0
 70
     32
  0
VERTEX
  8
MY3DLAYER
10
41.307729531846114
20
34.07774180614973
30
0.0
 70
     32
  0
VERTEX
  8
MY3DLAYER
10
40.637793914219195
20
32.838542882813734
30
0.0
 70
     32
  0
VERTEX
  8
MY3DLAYER
10
40.23769246365916
20
31.65561292900482
30
0.0
 70
     32
  0
VERTEX
  8
MY3DLAYER
10
40.04125509444108
20
30.05201260765307
30
0.0
 70
     32
  0
VERTEX
  8
MY3DLAYER
10
40.02163554121211
20
28.303545813836642
30
0.0
 70
     32
  0
VERTEX
  8
MY3DLAYER
10
40.16794735610159
20
26.698403604593665
30
0.0
 70
     32
  0
VERTEX
  8
MY3DLAYER
10
40.29992548205227
20
26.03963886535385
30
0.0
 70
     32
  0
VERTEX
  8
MY3DLAYER
10
40.46930361797673
20
25.52477656370013
30
0.0
 70
     32
  0
VERTEX
  8
MY3DLAYER
10
40.669818613367624
20
24.804856897109694
30
0.0
 70
     32
  0
VERTEX
  8
MY3DLAYER
10
40.83088579371861
20
23.811253076345086
30
0.0
 70
     32
  0
VERTEX
  8
MY3DLAYER
10
41.097035615410014
20
21.76724925131983
30
0.0
 70
     32
  0
VERTEX
  8
MY3DLAYER
10
41.16684508661195
20
20.998794664287363
30
0.0
 70
     32
  0
VERTEX
  8
MY3DLAYER
10
41.147671346272325
20
20.35257988916678
30
0.0
 70
     32
  0
VERTEX
  8
MY3DLAYER
10
41.065134910929295
20
19.793415049947498
30
0.0
 70
     32
  0
VERTEX
  8
MY3DLAYER
10
41.73676953946161
20
19.49166077465412
30
0.0
 70
     32
  0
VERTEX
  8
MY3DLAYER
10
42.27987990878057
20
19.19500684491144
30
0.0
 70
     32
  0
VERTEX
  8
MY3DLAYER
10
42.649600299432855
20
18.845282724112263
30
0.0
 70
     32
  0
VERTEX
  8
MY3DLAYER
10
42.88970082913206
20
18.38430036495211
30
0.0
 70
     32
  0
VERTEX
  8
MY3DLAYER
10
43.0439506690676
20
17.7538721933885
30
0.0
 70
     32
  0
VERTEX
  8
MY3DLAYER
10
43.09915101279399
20
16.953778615811427
30
0.0
 70
     32
  0
VERTEX
  8
MY3DLAYER
10
43.077093686536166
20
15.904226697217233
30
0.0
 70
     32
  0
VERTEX
  8
MY3DLAYER
10
42.99302482854374
20
14.900225781583643
30
0.0
 70
     32
  0
VERTEX
  8
MY3DLAYER
10
42.862190103804025
20
14.236784739626357
30
0.0
 70
     32
  0
VERTEX
  8
MY3DLAYER
10
42.58537342785199
20
13.923457313168843
30
0.0
 70
     32
  0
VERTEX
  8
MY3DLAYER
10
41.969789121760854
20
13.39366785191471
30
0.0
 70
     32
  0
VERTEX
  8
MY3DLAYER
10
40.24115721542463
20
12.106412002848234
30
0.0
 70
     32
  0
VERTEX
  8
MY3DLAYER
10
39.22745773976786
20
11.48769943433807
30
0.0
 70
     32
  0
VERTEX
  8
MY3DLAYER
10
38.372255631310004
20
11.124006509671995
30
0.0
 70
     32
  0
VERTEX
  8
MY3DLAYER
10
37.668932792975696
20
11.0133185521302
30
0.0
 70
     32
  0
VERTEX
  8
MY3DLAYER
10
37.11087112768966
20
11.153621831517075
30
0.0
 70
     32
  0
VERTEX
  8
MY3DLAYER
10
36.85834178896645
20
11.40602528252417
30
0.0
 70
     32
  0
VERTEX
  8
MY3DLAYER
10
36.627376164140536
20
11.829446722599762
30
0.0
 70
     32
  0
VERTEX
  8
MY3DLAYER
10
36.45825216995874
20
12.330790292634752
30
0.0
 70
     32
  0
VERTEX
  8
MY3DLAYER
10
36.39124630338168
20
12.816959660258027
30
0.0
 70
     32
  0
VERTEX
  8
MY3DLAYER
10
36.12847178692059
20
14.824261063631043
30
0.0
 70
     32
  0
VERTEX
  8
MY3DLAYER
10
35.93521899831035
20
16.299744604429524
30
0.0
 70
     32
  0
VERTEX
  8
MY3DLAYER
10
36.00497877699275
20
17.577633176936235
30
0.0
 70
     32
  0
VERTEX
  8
MY3DLAYER
10
36.13490957113938
20
19.414080813186228
30
0.0
 70
     32
  0
VERTEX
  8
MY3DLAYER
10
36.10207038793294
20
19.978526310812715
30
0.0
 70
     32
  0
VERTEX
  8
MY3DLAYER
10
36.00401994799712
20
20.328463399552664
30
0.0
 70
     32
  0
VERTEX
  8
MY3DLAYER
10
35.69477393380917
20
21.9177555881185
30
0.0
 70
     32
  0
VERTEX
  8
MY3DLAYER
10
35.586204297385
20
23.210723710618833
30
0.0
 70
     32
  0
VERTEX
  8
MY3DLAYER
10
35.653830137300766
20
23.683492662146037
30
0.0
 70
     32
  0
VERTEX
  8
MY3DLAYER
10
35.81666163872562
20
24.31438747013099
30
0.0
 70
     32
  0
VERTEX
  8
MY3DLAYER
10
36.1791231354319
20
25.964389719682284
30
0.0
 70
     32
  0
VERTEX
  8
MY3DLAYER
10
36.3258121402076
20
27.509093993641915
30
0.0
 70
     32
  0
VERTEX
  8
MY3DLAYER
10
36.25749817721208
20
28.978109934709895
30
0.0
 70
     32
  0
VERTEX
  8
MY3DLAYER
10
35.97495219039088
20
30.401048132110393
30
0.0
 70
     32
  0
VERTEX
  8
MY3DLAYER
10
35.48460533829369
20
32.22016585712584
30
0.0
 70
     32
  0
VERTEX
  8
MY3DLAYER
10
34.99082449646687
20
33.91635659367384
30
0.0
 70
     32
  0
VERTEX
  8
MY3DLAYER
10
34.72292502482643
20
35.09433007360769
30
0.0
 70
     32
  0
VERTEX
  8
MY3DLAYER
10
34.63172978627331
20
35.767945303989244
30
0.0
 70
     32
  0
VERTEX
  8
MY3DLAYER
10
33.68739254914282
20
35.69396497398264
30
0.0
 70
     32
  0
VERTEX
  8
MY3DLAYER
10
32.003331993239634
20
35.41505837263841
30
0.0
 70
     32
  0
VERTEX
  8
MY3DLAYER
10
31.00798940755408
20
35.21135501054295
30
0.0
 70
     32
  0
VERTEX
  8
MY3DLAYER
10
29.972725271475834
20
35.130358570042844
30
0.0
 70
     32
  0
VERTEX
  8
MY3DLAYER
10
28.957397300965237
20
35.17318311009936
30
0.0
 70
     32
  0
VERTEX
  8
MY3DLAYER
10
28.021863685244558
20
35.340943162935964
30
0.0
 70
     32
  0
VERTEX
  8
MY3DLAYER
10
27.270255808852088
20
35.519832920357835
30
0.0
 70
     32
  0
VERTEX
  8
MY3DLAYER
10
26.719648968017598
20
35.58399069567349
30
0.0
 70
     32
  0
VERTEX
  8
MY3DLAYER
10
26.2266352840397
20
35.53558024316131
30
0.0
 70
     32
  0
VERTEX
  8
MY3DLAYER
10
25.647808298003294
20
35.376766736885884
30
0.0
 70
     32
  0
VERTEX
  8
MY3DLAYER
10
24.97169282399694
20
35.1613742744141
30
0.0
 70
     32
  0
VERTEX
  8
MY3DLAYER
10
25.00635832561109
20
34.09850334080339
30
0.0
 70
     32
  0
VERTEX
  8
MY3DLAYER
10
25.123665800014486
20
32.56806365951731
30
0.0
 70
     32
  0
VERTEX
  8
MY3DLAYER
10
25.368112295491883
20
31.221712519718594
30
0.0
 70
     32
  0
VERTEX
  8
MY3DLAYER
10
25.73686249885841
20
30.070998936204813
30
0.0
 70
     32
  0
VERTEX
  8
MY3DLAYER
10
26.227080150404873
20
29.127472870297638
30
0.0
 70
     32
  0
VERTEX
  8
MY3DLAYER
10
27.079899857498553
20
27.7860550145316
30
0.0
 70
     32
  0
VERTEX
  8
MY3DLAYER
10
27.480601877651573
20
27.178465524937394
30
0.0
 70
     32
  0
VERTEX
  8
MY3DLAYER
10
27.818256395353504
20
26.883629868146905
30
0.0
 70
     32
  0
VERTEX
  8
MY3DLAYER
10
28.235816011174578
20
26.83689192386299
30
0.0
 70
     32
  0
VERTEX
  8
MY3DLAYER
10
28.87623285242296
20
26.973596045050698
30
0.0
 70
     32
  0
VERTEX
  8
MY3DLAYER
10
29.64594678987858
20
27.117913533490228
30
0.0
 70
     32
  0
VERTEX
  8
MY3DLAYER
10
30.337457479692944
20
27.079680108974856
30
0.0
 70
     32
  0
VERTEX
  8
MY3DLAYER
10
31.123354614337543
20
26.824635855502063
30
0.0
 70
     32
  0
VERTEX
  8
MY3DLAYER
10
32.17622930607
20
26.31852038380728
30
0.0
 70
     32
  0
VERTEX
  8
MY3DLAYER
10
33.12596125777155
20
25.772507971348585
30
0.0
 70
     32
  0
VERTEX
  8
MY3DLAYER
10
33.784267879307606
20
25.227338438673296
30
0.0
 70
     32
  0
VERTEX
  8
MY3DLAYER
10
34.26048501842714
20
24.566817423815166
30
0.0
 70
     32
  0
VERTEX
  8
MY3DLAYER
10
34.663949469403114
20
23.674750564808008
30
0.0
 70
     32
  0
VERTEX
  8
MY3DLAYER
10
34.94460477417222
20
22.834912910122295
30
0.0
 70
     32
  0
VERTEX
  8
MY3DLAYER
10
35.098167437552135
20
22.09548017427323
30
0.0
 70
     32
  0
VERTEX
  8
MY3DLAYER
10
35.12320962781551
20
21.452202463687076
30
0.0
 70
     32
  0
VERTEX
  8
MY3DLAYER
10
35.0183020934486
20
20.900830358052037
30
0.0
 70
     32
  0
VERTEX
  8
MY3DLAYER
10
34.78201652946192
20
20.437113017270146
30
0.0
 70
     32
  0
VERTEX
  8
MY3DLAYER
10
34.41292463086601
20
20.056801967553838
30
0.0
 70
     32
  0
VERTEX
  8
MY3DLAYER
10
33.909598092671295
20
19.755646368805102
30
0.0
 70
     32
  0
VERTEX
  8
MY3DLAYER
10
33.270608136626194
20
19.529396800712252
30
0.0
 70
     32
  0
VERTEX
  8
MY3DLAYER
10
32.66008489533222
20
19.435064781022483
30
0.0
 70
     32
  0
VERTEX
  8
MY3DLAYER
10
31.973941944149683
20
19.53878395427981
30
0.0
 70
     32
  0
VERTEX
  8
MY3DLAYER
10
30.71374485511475
20
19.68346017538408
30
0.0
 70
     32
  0
VERTEX
  8
MY3DLAYER
10
30.065705654634797
20
19.692592240684785
30
0.0
 70
     32
  0
VERTEX
  8
MY3DLAYER
10
29.54182865667884
20
19.789983426528362
30
0.0
 70
     32
  0
VERTEX
  8
MY3DLAYER
10
29.089602119457336
20
19.99172606378235
30
0.0
 70
     32
  0
VERTEX
  8
MY3DLAYER
10
28.656514301180717
20
20.313912956576377
30
0.0
 70
     32
  0
VERTEX
  8
MY3DLAYER
10
28.10925436985115
20
20.70802527537951
30
0.0
 70
     32
  0
VERTEX
  8
MY3DLAYER
10
27.592323912861378
20
20.803638415548605
30
0.0
 70
     32
  0
VERTEX
  8
MY3DLAYER
10
26.804328807369064
20
20.851239116623745
30
0.0
 70
     32
  0
VERTEX
  8
MY3DLAYER
10
26.09103575657155
20
20.98655752641005
30
0.0
 70
     32
  0
VERTEX
  8
MY3DLAYER
10
25.494795565172662
20
21.198366921593735
30
0.0
 70
     32
  0
VERTEX
  8
MY3DLAYER
10
25.057958564614108
20
21.475441525385143
30
0.0
 70
     32
  0
VERTEX
  8
MY3DLAYER
10
24.708835959932117
20
21.85099345151813
30
0.0
 70
     32
  0
VERTEX
  8
MY3DLAYER
10
24.455766629163502
20
22.30214331748346
30
0.0
 70
     32
  0
VERTEX
  8
MY3DLAYER
10
24.265600455908302
20
22.907941510064642
30
0.0
 70
     32
  0
VERTEX
  8
MY3DLAYER
10
24.10518685050446
20
23.7474384160451
30
0.0
 70
     32
  0
VERTEX
  8
MY3DLAYER
10
23.921600440095254
20
24.585601196192098
30
0.0
 70
     32
  0
VERTEX
  8
MY3DLAYER
10
23.65493476272504
20
25.313090689922102
30
0.0
 70
     32
  0
VERTEX
  8
MY3DLAYER
10
23.303685791469892
20
25.933188023309445
30
0.0
 70
     32
  0
VERTEX
  8
MY3DLAYER
10
22.86634902614363
20
26.449173849166314
30
0.0
 70
     32
  0
VERTEX
  8
MY3DLAYER
10
22.464647949717317
20
26.90469003117977
30
0.0
 70
     32
  0
VERTEX
  8
MY3DLAYER
10
22.15807113372049
20
27.418155736404028
30
0.0
 70
     32
  0
VERTEX
  8
MY3DLAYER
10
21.925574506031364
20
28.033643497028688
30
0.0
 70
     32
  0
VERTEX
  8
MY3DLAYER
10
21.74611352126613
20
28.795225845243177
30
0.0
 70
     32
  0
VERTEX
  8
MY3DLAYER
10
21.49436790456501
20
29.723032510810214
30
0.0
 70
     32
  0
VERTEX
  8
MY3DLAYER
10
21.072181205283847
20
30.740853152752166
30
0.0
 70
     32
  0
VERTEX
  8
MY3DLAYER
10
20.48085442090984
20
31.845961308164874
30
0.0
 70
     32
  0
VERTEX
  8
MY3DLAYER
10
19.721689022192173
20
33.03563146066854
30
0.0
 70
     32
  0
VERTEX
  8
MY3DLAYER
10
19.077612445197005
20
34.05065228408233
30
0.0
 70
     32
  0
VERTEX
  8
MY3DLAYER
10
18.734990095329778
20
34.72929261134215
30
0.0
 70
     32
  0
VERTEX
  8
MY3DLAYER
10
18.644769776683354
20
35.40793293860195
30
0.0
 70
     32
  0
VERTEX
  8
MY3DLAYER
10
18.607527836247847
20
36.42295376201577
30
0.0
 70
     32
  0
VERTEX
  8
MY3DLAYER
10
18.615976037827608
20
37.156414403543174
30
0.0
 70
     32
  0
VERTEX
  8
MY3DLAYER
10
18.66995252578763
20
37.61560877852498
30
0.0
 70
     32
  0
VERTEX
  8
MY3DLAYER
10
18.813482979370495
20
37.985299826927644
30
0.0
 70
     32
  0
VERTEX
  8
MY3DLAYER
10
19.09059118477035
20
38.45024859566933
30
0.0
 70
     32
  0
VERTEX
  8
MY3DLAYER
10
19.60010373175162
20
39.12395185279973
30
0.0
 70
     32
  0
VERTEX
  8
MY3DLAYER
10
20.169974705985044
20
39.57572027231753
30
0.0
 70
     32
  0
VERTEX
  8
MY3DLAYER
10
22.692292694453336
20
41.20443140693577
30
0.0
 70
     32
  0
VERTEX
  8
MY3DLAYER
10
24.596742887243234
20
42.57515838397425
30
0.0
 70
     32
  0
VERTEX
  8
MY3DLAYER
10
25.019823105351477
20
43.00478902267882
30
0.0
 70
     32
  0
VERTEX
  8
MY3DLAYER
10
25.15074869641262
20
43.31598724299064
30
0.0
 70
     32
  0
VERTEX
  8
MY3DLAYER
10
25.584108640391335
20
44.19438061367545
30
0.0
 70
     32
  0
VERTEX
  8
MY3DLAYER
10
25.875908794132563
20
44.771969546082765
30
0.0
 70
     32
  0
VERTEX
  8
MY3DLAYER
10
25.905503765707746
20
45.06519421871679
30
0.0
 70
     32
  0
VERTEX
  8
MY3DLAYER
10
24.908195722559785
20
46.87513633831921
30
0.0
 70
     32
  0
VERTEX
  8
MY3DLAYER
10
23.694273727484138
20
49.40768483340054
30
0.0
 70
     32
  0
VERTEX
  8
MY3DLAYER
10
23.23748399718481
20
50.595942298563706
30
0.0
 70
     32
  0
VERTEX
  8
MY3DLAYER
10
22.954483678756667
20
51.68229507732497
30
0.0
 70
     32
  0
VERTEX
  8
MY3DLAYER
10
22.826065430251678
20
52.76815187741523
30
0.0
 70
     32
  0
VERTEX
  8
MY3DLAYER
10
22.833023329508055
20
53.9549237728759
30
0.0
 70
     32
  0
VERTEX
  8
MY3DLAYER
10
22.98926607610721
20
55.18969958871286
30
0.0
 70
     32
  0
VERTEX
  8
MY3DLAYER
10
23.476160481253313
20
56.684152420627846
30
0.0
 70
     32
  0
VERTEX
  8
MY3DLAYER
10
24.248066095450632
20
59.10024909916564
30
0.0
 70
     32
  0
VERTEX
  8
MY3DLAYER
10
24.45843346104418
20
60.05767014005358
30
0.0
 70
     32
  0
VERTEX
  8
MY3DLAYER
10
24.532422783030505
20
60.77320881947111
30
0.0
 70
     32
  0
VERTEX
  8
MY3DLAYER
10
24.402351903305032
20
61.53671308503563
30
0.0
 70
     32
  0
VERTEX
  8
MY3DLAYER
10
24.02729642910512
20
62.673417164142776
30
0.0
 70
     32
  0
VERTEX
  8
MY3DLAYER
10
23.432795475889275
20
64.11539564197331
30
0.0
 70
     32
  0
VERTEX
  8
MY3DLAYER
10
22.64438815911603
20
65.79472405023229
30
0.0
 70
     32
  0
VERTEX
  8
MY3DLAYER
10
21.034431927887198
20
69.45638029460407
30
0.0
 70
     32
  0
VERTEX
  8
MY3DLAYER
10
19.795244362841387
20
72.61710801979439
30
0.0
 70
     32
  0
VERTEX
  8
MY3DLAYER
10
19.474931587926235
20
73.82935277402089
30
0.0
 70
     32
  0
VERTEX
  8
MY3DLAYER
10
19.34290613576649
20
74.35158707926031
30
0.0
 70
     32
  0
VERTEX
  8
MY3DLAYER
10
18.63468172195958
20
73.99972192076312
30
0.0
 70
     32
  0
VERTEX
  8
MY3DLAYER
10
17.925461091451904
20
73.69533346867334
30
0.0
 70
     32
  0
VERTEX
  8
MY3DLAYER
10
17.239281225826335
20
73.4955510829987
30
0.0
 70
     32
  0
VERTEX
  8
MY3DLAYER
10
16.591146899666157
20
73.40365494328942
30
0.0
 70
     32
  0
VERTEX
  8
MY3DLAYER
10
15.996063360816766
20
73.42292475583338
30
0.0
 70
     32
  0
VERTEX
  8
MY3DLAYER
10
15.407405301371776
20
73.43375299246689
30
0.0
 70
     32
  0
VERTEX
  8
MY3DLAYER
10
14.925149337975888
20
73.14752455331862
30
0.0
 70
     32
  0
VERTEX
  8
MY3DLAYER
10
13.908409626648933
20
72.47257425057944
30
0.0
 70
     32
  0
VERTEX
  8
MY3DLAYER
10
12.948839975869571
20
72.09723813195981
30
0.0
 70
     32
  0
VERTEX
  8
MY3DLAYER
10
12.394444198737524
20
71.87758157805136
30
0.0
 70
     32
  0
VERTEX
  8
MY3DLAYER
10
11.875342888538066
20
71.55098482909699
30
0.0
 70
     32
  0
VERTEX
  8
MY3DLAYER
10
10.00255061677638
20
70.24299962719896
30
0.0
 70
     32
  0
VERTEX
  8
MY3DLAYER
10
9.206588143988379
20
69.70915809592485
30
0.0
 70
     32
  0
VERTEX
  8
MY3DLAYER
10
8.745216290127631
20
69.33486883304971
30
0.0
 70
     32
  0
VERTEX
  8
MY3DLAYER
10
8.455046524288605
20
68.95649910442911
30
0.0
 70
     32
  0
VERTEX
  8
MY3DLAYER
10
8.172689369041626
20
68.41041570265682
30
0.0
 70
     32
  0
VERTEX
  8
MY3DLAYER
10
7.681146110379297
20
67.58572006856069
30
0.0
 70
     32
  0
VERTEX
  8
MY3DLAYER
10
7.092399077661284
20
66.89212702554757
30
0.0
 70
     32
  0
VERTEX
  8
MY3DLAYER
10
6.463761729848613
20
66.38611377846428
30
0.0
 70
     32
  0
VERTEX
  8
MY3DLAYER
10
5.852547525902333
20
66.12415705889592
30
0.0
 70
     32
  0
VERTEX
  8
MY3DLAYER
10
5.105069807774747
20
66.09940687134244
30
0.0
 70
     32
  0
VERTEX
  8
MY3DLAYER
10
4.293012637808756
20
66.31542025367716
30
0.0
 70
     32
  0
VERTEX
  8
MY3DLAYER
10
3.432853108951574
20
66.76563353396512
30
0.0
 70
     32
  0
VERTEX
  8
MY3DLAYER
10
2.5410678408883323
20
67.4434820937473
30
0.0
 70
     32
  0
VERTEX
  8
MY3DLAYER
10
1.6676612328524452
20
68.06541331773582
30
0.0
 70
     32
  0
VERTEX
  8
MY3DLAYER
10
1.2341342273557343
20
68.38952402092819
30
0.0
 70
     32
  0
VERTEX
  8
MY3DLAYER
10
0.8446191765009387
20
68.97478453182464
30
0.0
 70
     32
  0
VERTEX
  8
MY3DLAYER
10
0.48418560785299664
20
69.85027443958344
30
0.0
 70
     32
  0
VERTEX
  8
MY3DLAYER
10
0.13790446876312568
20
71.04507380662523
30
0.0
 70
     32
  0
VERTEX
  8
MY3DLAYER
10
-0.13592261056241622
20
72.27076582989483
30
0.0
 70
     32
  0
VERTEX
  8
MY3DLAYER
10
-0.2580459999999989
20
73.21184371100722
30
0.0
 70
     32
  0
VERTEX
  8
MY3DLAYER
10
-0.2325116171623844
20
73.93814673667596
30
0.0
 70
     32
  0
VERTEX
  8
MY3DLAYER
10
-0.06336537966232668
20
74.51951419361491
30
0.0
 70
     32
  0
VERTEX
  8
MY3DLAYER
10
0.4317694650057563
20
75.21152606798324
30
0.0
 70
     32
  0
VERTEX
  8
MY3DLAYER
10
1.331585990746915
20
76.22982186506418
30
0.0
 70
     32
  0
VERTEX
  8
MY3DLAYER
10
2.3391463105640886
20
77.37833194028401
30
0.0
 70
     32
  0
VERTEX
  8
MY3DLAYER
10
2.5803410222168104
20
77.77612245205549
30
0.0
 70
     32
  0
VERTEX
  8
MY3DLAYER
10
2.7366315682871134
20
78.18149746209131
30
0.0
 70
     32
  0
VERTEX
  8
MY3DLAYER
10
3.1026676135638795
20
78.96159429655316
30
0.0
 70
     32
  0
VERTEX
  8
MY3DLAYER
10
3.8070131712760205
20
79.92123872274284
30
0.0
 70
     32
  0
VERTEX
  8
MY3DLAYER
10
5.234433160674724
20
81.85110261653728
30
0.0
 70
     32
  0
VERTEX
  8
MY3DLAYER
10
6.320733407343924
20
83.66235377908241
30
0.0
 70
     32
  0
VERTEX
  8
MY3DLAYER
10
6.502640210593512
20
84.05786222105284
30
0.0
 70
     32
  0
VERTEX
  8
MY3DLAYER
10
6.593007713750117
20
84.39315468766047
30
0.0
 70
     32
  0
VERTEX
  8
MY3DLAYER
10
6.575590249028823
20
85.40634114721101
30
0.0
 70
     32
  0
VERTEX
  8
MY3DLAYER
10
6.545259354902716
20
86.33250180722683
30
0.0
 70
     32
  0
VERTEX
  8
MY3DLAYER
10
6.6752322693754165
20
86.98569199230111
30
0.0
 70
     32
  0
VERTEX
  8
MY3DLAYER
10
7.0462465585834755
20
87.56445224838279
30
0.0
 70
     32
  0
VERTEX
  8
MY3DLAYER
10
7.73904168171181
20
88.26732264815841
30
0.0
 70
     32
  0
VERTEX
  8
MY3DLAYER
10
8.662297459015385
20
89.25603151911973
30
0.0
 70
     32
  0
VERTEX
  8
MY3DLAYER
10
9.41656222878462
20
90.35338669496386
30
0.0
 70
     32
  0
VERTEX
  8
MY3DLAYER
10
10.488423249068834
20
92.03691483101508
30
0.0
 70
     32
  0
VERTEX
  8
MY3DLAYER
10
10.879975693223765
20
92.57554151528754
30
0.0
 70
     32
  0
VERTEX
  8
MY3DLAYER
10
10.298386749626472
20
93.08057510984305
30
0.0
 70
     32
  0
VERTEX
  8
MY3DLAYER
10
9.805809886558217
20
93.60572991544376
30
0.0
 70
     32
  0
VERTEX
  8
MY3DLAYER
10
9.343102013815624
20
94.29676686990538
30
0.0
 70
     32
  0
VERTEX
  8
MY3DLAYER
10
8.915515394080453
20
95.14460738654348
30
0.0
 70
     32
  0
VERTEX
  8
MY3DLAYER
10
8.528303709820728
20
96.14017240541172
30
0.0
 70
     32
  0
VERTEX
  8
MY3DLAYER
10
7.932227740367282
20
97.54404003360827
30
0.0
 70
     32
  0
VERTEX
  8
MY3DLAYER
10
7.282528336473411
20
98.59979215885186
30
0.0
 70
     32
  0
VERTEX
  8
MY3DLAYER
10
7.1860850945973525
20
98.76783001653548
30
0.0
 70
     32
  0
VERTEX
  8
MY3DLAYER
10
7.169805351941919
20
98.9272052849126
30
0.0
 70
     32
  0
VERTEX
  8
MY3DLAYER
10
7.326678010383691
20
99.18177816934313
30
0.0
 70
     32
  0
VERTEX
  8
MY3DLAYER
10
7.651027237669793
20
99.28713246312358
30
0.0
 70
     32
  0
VERTEX
  8
MY3DLAYER
10
8.040735852719653
20
99.16688839744788
30
0.0
 70
     32
  0
VERTEX
  8
MY3DLAYER
10
9.053498742699084
20
98.13980506986822
30
0.0
 70
     32
  0
VERTEX
  8
MY3DLAYER
10
9.831287477944958
20
97.37355209808135
30
0.0
 70
     32
  0
VERTEX
  8
MY3DLAYER
10
10.788052577575277
20
96.82604323089214
30
0.0
 70
     32
  0
VERTEX
  8
MY3DLAYER
10
11.668569948522814
20
96.33190602271105
30
0.0
 70
     32
  0
VERTEX
  8
MY3DLAYER
10
12.364346149560006
20
95.81778721580172
30
0.0
 70
     32
  0
VERTEX
  8
MY3DLAYER
10
12.90314226166085
20
95.38925975103041
30
0.0
 70
     32
  0
VERTEX
  8
MY3DLAYER
10
13.09531080682147
20
95.35729326311909
30
0.0
 70
     32
  0
VERTEX
  8
MY3DLAYER
10
13.328142504070751
20
95.40764361694079
30
0.0
 70
     32
  0
VERTEX
  8
MY3DLAYER
10
13.652183164473767
20
95.5705754499288
30
0.0
 70
     32
  0
VERTEX
  8
MY3DLAYER
10
13.702224478150264
20
95.89573821474858
30
0.0
 70
     32
  0
VERTEX
  8
MY3DLAYER
10
13.552355152125562
20
97.89197900980159
30
0.0
 70
     32
  0
VERTEX
  8
MY3DLAYER
10
13.487905374099984
20
98.93754748137901
30
0.0
 70
     32
  0
VERTEX
  8
MY3DLAYER
10
13.52682550190886
20
99.48826506554272
30
0.0
 70
     32
  0
VERTEX
  8
MY3DLAYER
10
13.59792839840445
20
99.62116794561844
30
0.0
 70
     32
  0
VERTEX
  8
MY3DLAYER
10
13.710328618190122
20
99.68209286759307
30
0.0
 70
     32
  0
VERTEX
  8
MY3DLAYER
10
14.079628752105927
20
99.6569915195684
30
0.0
 70
     32
  0
VERTEX
  8
MY3DLAYER
10
14.404087776197064
20
99.54573990687665
30
0.0
 70
     32
  0
VERTEX
  8
MY3DLAYER
10
14.796819116219744
20
99.26008837421692
30
0.0
 70
     32
  0
VERTEX
  8
MY3DLAYER
10
16.31054365372705
20
97.70837698174341
30
0.0
 70
     32
  0
VERTEX
  8
MY3DLAYER
10
17.534221473538853
20
96.39108555409545
30
0.0
 70
     32
  0
VERTEX
  8
MY3DLAYER
10
18.533038749493823
20
96.29725803179433
30
0.0
 70
     32
  0
VERTEX
  8
MY3DLAYER
10
20.125736532063808
20
96.2124082913523
30
0.0
 70
     32
  0
VERTEX
  8
MY3DLAYER
10
20.621527791251587
20
96.28346054880421
30
0.0
 70
     32
  0
VERTEX
  8
MY3DLAYER
10
21.134699127455516
20
96.44230481711551
30
0.0
 70
     32
  0
VERTEX
  8
MY3DLAYER
10
21.62584863205842
20
96.59665072925537
30
0.0
 70
     32
  0
VERTEX
  8
MY3DLAYER
10
21.91170556046559
20
96.61840990039607
30
0.0
 70
     32
  0
VERTEX
  8
MY3DLAYER
10
22.035350960786634
20
96.4971109335204
30
0.0
 70
     32
  0
VERTEX
  8
MY3DLAYER
10
22.039864461344905
20
96.22228243161106
30
0.0
 70
     32
  0
VERTEX
  8
MY3DLAYER
10
22.03272246313528
20
96.03115600957399
30
0.0
 70
     32
  0
VERTEX
  8
MY3DLAYER
10
22.115057762089805
20
95.92788454225443
30
0.0
 70
     32
  0
VERTEX
  8
MY3DLAYER
10
22.83225001925196
20
95.85223359706792
30
0.0
 70
     32
  0
VERTEX
  8
MY3DLAYER
10
23.69318096531687
20
95.86148255810497
30
0.0
 70
     32
  0
VERTEX
  8
MY3DLAYER
10
24.350973624222526
20
96.03140683848203
30
0.0
 70
     32
  0
VERTEX
  8
MY3DLAYER
10
24.976584934227745
20
96.43892572578838
30
0.0
 70
     32
  0
VERTEX
  8
MY3DLAYER
10
25.740972780115484
20
97.16095803435138
30
0.0
 70
     32
  0
VERTEX
  8
MY3DLAYER
10
26.54514918974837
20
97.91207229838336
30
0.0
 70
     32
  0
VERTEX
  8
MY3DLAYER
10
26.95730746532916
20
98.15862670321242
30
0.0
 70
     32
  0
VERTEX
  8
MY3DLAYER
10
27.126623603919743
20
97.98048186032112
30
0.0
 70
     32
  0
VERTEX
  8
MY3DLAYER
10
26.998496884862593
20
97.53290748945052
30
0.0
 70
     32
  0
VERTEX
  8
MY3DLAYER
10
26.69541368961876
20
96.82497933771236
30
0.0
 70
     32
  0
VERTEX
  8
MY3DLAYER
10
26.339321827390215
20
96.11838389202144
30
0.0
 70
     32
  0
VERTEX
  8
MY3DLAYER
10
26.052168634116832
20
95.67480858581658
30
0.0
 70
     32
  0
VERTEX
  8
MY3DLAYER
10
25.81920584326845
20
95.37624220396563
30
0.0
 70
     32
  0
VERTEX
  8
MY3DLAYER
10
25.838456725328818
20
95.30453447851816
30
0.0
 70
     32
  0
VERTEX
  8
MY3DLAYER
10
25.939052368788012
20
95.25023049319147
30
0.0
 70
     32
  0
VERTEX
  8
MY3DLAYER
10
26.46217877306826
20
95.1976075348106
30
0.0
 70
     32
  0
VERTEX
  8
MY3DLAYER
10
27.298544577057147
20
95.24881212670587
30
0.0
 70
     32
  0
VERTEX
  8
MY3DLAYER
10
28.215152915035794
20
95.37964732470769
30
0.0
 70
     32
  0
VERTEX
  8
MY3DLAYER
10
28.979005501499014
20
95.56591807769497
30
0.0
 70
     32
  0
VERTEX
  8
MY3DLAYER
10
29.659955821023182
20
95.75694558795507
30
0.0
 70
     32
  0
VERTEX
  8
MY3DLAYER
10
30.142560578579875
20
95.79986194085717
30
0.0
 70
     32
  0
VERTEX
  8
MY3DLAYER
10
30.438625297019716
20
95.69370783414358
30
0.0
 70
     32
  0
VERTEX
  8
MY3DLAYER
10
30.559954079407145
20
95.4375249120807
30
0.0
 70
     32
  0
VERTEX
  8
MY3DLAYER
10
30.490348584166288
20
95.0945078616299
30
0.0
 70
     32
  0
VERTEX
  8
MY3DLAYER
10
30.145636782168925
20
94.70841638873875
30
0.0
 70
     32
  0
VERTEX
  8
MY3DLAYER
10
29.846915170352297
20
94.40336347667373
30
0.0
 70
     32
  0
VERTEX
  8
MY3DLAYER
10
29.76289647814145
20
94.23561478212729
30
0.0
 70
     32
  0
VERTEX
  8
MY3DLAYER
10
31.473882334166557
20
94.1378875801994
30
0.0
 70
     32
  0
VERTEX
  8
MY3DLAYER
10
34.26526354575616
20
94.05760339914565
30
0.0
 70
     32
  0
VERTEX
  8
MY3DLAYER
10
34.52787573332013
20
93.94850370918002
30
0.0
 70
     32
  0
VERTEX
  8
MY3DLAYER
10
34.513483359882144
20
93.72909514460709
30
0.0
 70
     32
  0
VERTEX
  8
MY3DLAYER
10
34.44934072895337
20
93.51055454270846
30
0.0
 70
     32
  0
VERTEX
  8
MY3DLAYER
10
34.29512307084001
20
93.32877457369912
30
0.0
 70
     32
  0
VERTEX
  8
MY3DLAYER
10
33.609962138495554
20
92.9881616946687
30
0.0
 70
     32
  0
VERTEX
  8
MY3DLAYER
10
33.54183795359837
20
92.93950609239359
30
0.0
 70
     32
  0
VERTEX
  8
MY3DLAYER
10
33.60683576912489
20
92.89030008630705
30
0.0
 70
     32
  0
VERTEX
  8
MY3DLAYER
10
34.165676897074185
20
92.77914833191646
30
0.0
 70
     32
  0
VERTEX
  8
MY3DLAYER
10
35.6620010072954
20
92.48427339437242
30
0.0
 70
     32
  0
VERTEX
  8
MY3DLAYER
10
36.09463544048924
20
92.32650958341407
30
0.0
 70
     32
  0
VERTEX
  8
MY3DLAYER
10
36.30806102571241
20
92.16440359277412
30
0.0
 70
     32
  0
VERTEX
  8
MY3DLAYER
10
36.35221448571942
20
91.89579612104606
30
0.0
 70
     32
  0
VERTEX
  8
MY3DLAYER
10
36.205853451572544
20
91.6106547649199
30
0.0
 70
     32
  0
VERTEX
  8
MY3DLAYER
10
35.90701021139859
20
91.35516422529568
30
0.0
 70
     32
  0
VERTEX
  8
MY3DLAYER
10
35.49371610680032
20
91.17550683676288
30
0.0
 70
     32
  0
VERTEX
  8
MY3DLAYER
10
34.72364343667999
20
90.93791364961976
30
0.0
 70
     32
  0
VERTEX
  8
MY3DLAYER
10
34.70202340459395
20
90.87457935034185
30
0.0
 70
     32
  0
VERTEX
  8
MY3DLAYER
10
34.8448822992702
20
90.80362979076352
30
0.0
 70
     32
  0
VERTEX
  8
MY3DLAYER
10
35.70932863614426
20
90.69091248537717
30
0.0
 70
     32
  0
VERTEX
  8
MY3DLAYER
10
37.05864192336823
20
90.55961585683697
30
0.0
 70
     32
  0
VERTEX
  8
MY3DLAYER
10
37.72522258603471
20
90.3730668257404
30
0.0
 70
     32
  0
VERTEX
  8
MY3DLAYER
10
37.90604135973796
20
90.25012374636185
30
0.0
 70
     32
  0
VERTEX
  8
MY3DLAYER
10
37.98492231869299
20
90.10896717542566
30
0.0
 70
     32
  0
VERTEX
  8
MY3DLAYER
10
37.961646342551816
20
89.95077080291641
30
0.0
 70
     32
  0
VERTEX
  8
MY3DLAYER
10
37.83599573075282
20
89.77670973860513
30
0.0
 70
     32
  0
VERTEX
  8
MY3DLAYER
10
37.276697431624
20
89.3856882945159
30
0.0
 70
     32
  0
VERTEX
  8
MY3DLAYER
10
36.79417360188479
20
89.07305467028326
30
0.0
 70
     32
  0
VERTEX
  8
MY3DLAYER
10
36.724109042416046
20
88.96496018899803
30
0.0
 70
     32
  0
VERTEX
  8
MY3DLAYER
10
36.75157859394223
20
88.87280375513889
30
0.0
 70
     32
  0
VERTEX
  8
MY3DLAYER
10
36.97784567273244
20
88.71690033745875
30
0.0
 70
     32
  0
VERTEX
  8
MY3DLAYER
10
37.37613642253368
20
88.57092737822613
30
0.0
 70
     32
  0
VERTEX
  8
MY3DLAYER
10
38.54964751421503
20
88.3492845433235
30
0.0
 70
     32
  0
VERTEX
  8
MY3DLAYER
10
39.21128400782077
20
88.25165152055156
30
0.0
 70
     32
  0
VERTEX
  8
MY3DLAYER
10
39.566833984955515
20
88.10728765242713
30
0.0
 70
     32
  0
VERTEX
  8
MY3DLAYER
10
39.69450589914361
20
87.85141471703365
30
0.0
 70
     32
  0
VERTEX
  8
MY3DLAYER
10
39.67251057021966
20
87.41925496571673
30
0.0
 70
     32
  0
VERTEX
  8
MY3DLAYER
10
39.59356524762031
20
86.81466737756337
30
0.0
 70
     32
  0
VERTEX
  8
MY3DLAYER
10
40.28628748838672
20
86.48174311445727
30
0.0
 70
     32
  0
VERTEX
  8
MY3DLAYER
10
40.99912478779094
20
86.22155781489401
30
0.0
 70
     32
  0
VERTEX
  8
MY3DLAYER
10
41.740204948977436
20
86.06351619908838
30
0.0
 70
     32
  0
VERTEX
  8
MY3DLAYER
10
42.39855605715005
20
85.93848035474512
30
0.0
 70
     32
  0
VERTEX
  8
MY3DLAYER
10
42.502478259844246
20
85.81945730526324
30
0.0
 70
     32
  0
VERTEX
  8
MY3DLAYER
10
42.5422374813398
20
85.61462663286787
30
0.0
 70
     32
  0
VERTEX
  8
MY3DLAYER
10
42.5009411045739
20
85.270173231972
30
0.0
 70
     32
  0
VERTEX
  8
MY3DLAYER
10
42.24358875188512
20
84.9760413159103
30
0.0
 70
     32
  0
VERTEX
  8
MY3DLAYER
10
42.03699470494016
20
84.7568613369272
30
0.0
 70
     32
  0
VERTEX
  8
MY3DLAYER
10
41.971495704859635
20
84.55454983864028
30
0.0
 70
     32
  0
VERTEX
  8
MY3DLAYER
10
42.040261159889624
20
84.37291516109276
30
0.0
 70
     32
  0
VERTEX
  8
MY3DLAYER
10
42.23645953175197
20
84.2157651710659
30
0.0
 70
     32
  0
VERTEX
  8
MY3DLAYER
10
42.98383597179214
20
83.9901530870091
30
0.0
 70
     32
  0
VERTEX
  8
MY3DLAYER
10
44.158978871161935
20
83.90817888702976
30
0.0
 70
     32
  0
VERTEX
  8
MY3DLAYER
10
45.251743404726994
20
83.8660533550811
30
0.0
 70
     32
  0
VERTEX
  8
MY3DLAYER
10
45.44085609656847
20
83.77661107931164
30
0.0
 70
     32
  0
VERTEX
  8
MY3DLAYER
10
45.54299220813264
20
83.60888368155929
30
0.0
 70
     32
  0
VERTEX
  8
MY3DLAYER
10
45.649376793484386
20
83.44543220679574
30
0.0
 70
     32
  0
VERTEX
  8
MY3DLAYER
10
45.842256651567205
20
83.3367612922842
30
0.0
 70
     32
  0
VERTEX
  8
MY3DLAYER
10
46.80613866651638
20
83.17407744863164
30
0.0
 70
     32
  0
SEQEND
 0
ENDSEC
 0
EOF
