<?xml version="1.0"?>
<svg 
  xmlns="http://www.w3.org/2000/svg" 
  xmlns:xlink="http://www.w3.org/1999/xlink" version="1.1" preserveAspectRatio="xMinYMin meet" viewBox="0 -201.0305532340003 171.62058585907425 199.42164103400032" width="100%" height="100%">
  <path fill="none" stroke="#000000" stroke-width="1%" d="M144.2054609573218,-89.17518769354527L144.22013853400006,-89.13561573400018"/>
  <path fill="none" stroke="#000000" stroke-width="1%" d="M144.74205908543289,-95.28811666845618L144.71745250000012,-95.35200741600013"/>
  <path fill="none" stroke="#000000" stroke-width="1%" d="M141.24620254275467,-91.83111259445734L141.23627353400013,-91.87082845000016"/>
  <path fill="none" stroke="#000000" stroke-width="1%" d="M108.16510625000002,-65.01604345000003L108.15028477732413,-65.0501471712801"/>
  <path fill="none" stroke="#000000" stroke-width="1%" d="M145.21476646600013,-90.87620991600012L145.19030377656483,-91.03938871703252"/>
  <path fill="none" stroke="#000000" stroke-width="1%" d="M144.45901510324305,-90.20866790931032L144.46880021599995,-90.13024366600013L143.47417228400008,-91.87082845000016L143.48884986067816,-91.66030589149665L143.52942904325923,-91.40920404163903L143.59072951056254,-91.12874695140633L143.6675709414074,-90.83015867177795L143.75477301461348,-90.52466325373281L143.8471554090001,-90.22348474825009L143.93953780338668,-89.93784720630913L144.02673987659267,-89.67897467888899L144.1035813074375,-89.4580912169689L144.1648817747407,-89.28642087152797L144.2054609573218,-89.17518769354527L144.03897131376735,-89.28411893258695L143.86902834030562,-89.47406447219464L143.7111729569687,-89.69509174309391L143.5662685071112,-89.93684013555573L143.43517833408688,-90.18894903985081L143.31876578124997,-90.44105784625016L143.21789419195488,-90.6828059450244L143.13342690955562,-90.90383272644459L143.06622727740626,-91.09377758078139L143.03338391910088,-91.05863395423152L143.47417228400008,-88.38964948400013L141.982239784,-91.37351448400018L141.982239784,-88.88696345000012L141.91532796016207,-89.15461271958462L141.84064542612964,-89.45334414467608L141.76078237512496,-89.77279705028137L141.6783290003704,-90.1026107614076L141.59587549508808,-90.43242460306146L141.51601205250012,-90.75187790025014L141.4413288658287,-91.05060997798051L141.37441612829628,-91.31826016125943L141.31786403312495,-91.54446777509386L141.2742627735371,-91.7188721444909L141.24620254275467,-91.83111259445734L140.98762124999996,-88.88696345000012L140.92560189008344,-89.25577413493298L140.8644455798334,-89.72387397196314L140.80501576050005,-90.26622479643765L140.74817587333337,-90.85778844370384L140.69478935958338,-91.47352674910896L140.6457196605,-92.08840154800016L140.6018302173334,-92.67737467572472L140.56398447133336,-93.21540796762982L140.53304586375012,-93.67746325906266L140.50987783583338,-94.03850238537053L140.4953438288333,-94.27348718190056L140.4609521306436,-93.82380640240294L140.37979376548154,-93.0104959770557L140.25719283087503,-91.97961206212516L140.10350996918515,-90.79331851177788L139.92910582277327,-89.51377918018069L139.74434103400006,-88.20315792150011L139.55957624522682,-86.92361858990296L139.38517209881493,-85.7373250395557L139.2314892371251,-84.70644112462517L139.10888830251852,-83.89313069927788L139.02772993735647,-83.35955761768068L138.99837478400008,-83.16788573400012L138.5010702160001,-85.65444616600016L137.755103966,-82.67058116600012L137.25779000000006,-84.41116595000017L136.76047603400008,-81.4273009500001L136.26317146600013,-82.91923345000014L135.7658575000001,-79.4380544840001L135.26854353400006,-81.92461491600011L135.01989125,-78.194783666L134.27392500000005,-81.17864866600016L135.01989125,-76.95150344999995L133.77661103399998,-78.6920882340001L133.77661103399998,-76.45418948400001L133.03064478400003,-77.6974697L132.7819925,-75.45957095000001L132.03602624999994,-77.20015573399999L132.28467853400008,-74.71360469999998L131.53871228399996,-76.20553720000002L131.29006000000007,-74.21629073400003L130.54409375000003,-75.95688491599999L130.295441466,-73.470324484L129.54947521600005,-74.96225698400002L129.54947521600005,-72.72435823400002L128.55484728400003,-74.464952416L128.30619500000003,-73.22167220000003L127.8088810340001,-74.71360469999998L127.8088810340001,-72.47570594999998L126.8142625000001,-73.470324484L127.31157646600013,-71.48108741600001L125.81964396600003,-72.97301991600001L126.31694853400002,-71.232425734L124.825016034,-72.47570594999998L125.32233000000005,-70.73512116600001L125.18361191417016,-70.82160303043756L125.02071933336113,-70.95039097083337L124.84055929809372,-71.11198772081251L124.65003884888895,-71.29689601400005L124.45606502626735,-71.49561858402085L124.26554487075005,-71.69865816450002L124.08538542285766,-71.89651748906255L123.92249372311112,-72.07969929133338L123.78377681203125,-72.2387063049375L123.67614173013894,-72.36404126350001L123.60649551795491,-72.44620690064586L123.581745216,-72.47570594999998L123.08443125,-71.72973970000002L122.58711728400006,-72.97301991600001L122.33846500000007,-71.97839198400003L121.34384646600003,-72.97301991600001L121.34384646600003,-72.22705366599997L120.90970539371418,-72.48981028674885L120.48160837754632,-72.77501497682407L120.06559908203131,-73.07403387846877L119.66772117170372,-73.37823313392596L119.29401831109844,-73.67897888543865L118.95053416475001,-73.96763727525001L118.64331239719328,-74.23557444560305L118.37839667296299,-74.47415653874076L118.16183065659372,-74.67474969690625L117.99965801262044,-74.82872006234263L117.8979224055776,-74.92743377729286L118.8572860340001,-71.72973970000002L117.61401521599997,-71.97839198400003L118.60863375000002,-70.48645948400005L116.86804896600002,-70.98377345000002L117.36535353400004,-68.49722241600003L115.62476875000003,-69.49184095L115.37611646600004,-68.74587470000004L116.12208271600004,-67.50259448400007L114.87880250000008,-68.24856073400005L115.37611646600004,-66.50797595000003L114.13283625,-67.50259448400007L114.63015021600002,-65.01604345000003L113.38687000000004,-66.75662823400002L113.635522284,-64.27007720000003L112.39225146600006,-66.25932366600001L112.64090375000004,-63.77276323400003L112.55442188556252,-63.97839332858219L112.42563394516675,-64.21596895465741L112.26403719518757,-64.47599281321878L112.07912890199997,-64.74896760525928L111.88040633197923,-65.02539603177202L111.67736675150007,-65.29578079375004L111.47950742693743,-65.55062459218637L111.29632562466675,-65.7804301280741L111.13731861106248,-65.9757001024063L111.01198365250008,-66.12693721617593L110.92981801535423,-66.22464417037617L110.90031896600006,-66.25932366600001L110.40300500000004,-63.27545866599999L109.65703875,-66.25932366600001L109.40838646600002,-64.27007720000003L108.41375853400004,-66.25932366600001L108.15028477732413,-65.0501471712801L108.10869832275925,-65.14382448824075L108.04466383150005,-65.2841246305625L107.96249824874073,-65.45809682792591L107.86651851967596,-65.6527903100116L107.76104158950002,-65.85525430650006L107.65038440340737,-66.05253804707179L107.5388639065927,-66.23169076140742L107.43079704425004,-66.3797616791875L107.33050076157414,-66.4838000300926L107.24229200375923,-66.53085504380324L107.17048771600003,-66.50797595000003L107.07421876457296,-66.42149408556253L106.91837657641669,-66.29270614516669L106.71591188921882,-66.13110939518752L106.47977544066673,-65.94620110200005L106.22291796844789,-65.74747853197916L105.95829021025008,-65.54443895149998L105.69884290376051,-65.34657962693751L105.45752678666672,-65.16339782466673L105.24729259665624,-65.00439081106249L105.08109107141676,-64.87905585250003L104.97187294863541,-64.79689021535418L104.93258896600003,-64.76739116599998L104.93258896600003,-64.69760066623498L104.93258896600003,-64.4991654150463L104.93258896600003,-64.18848978459377L104.93258896600007,-63.781978147037066L104.93258896600003,-63.296034874535906L104.93258896600003,-62.747064339250024L104.93258896600003,-62.151470913339125L104.93258896600007,-61.525658968962965L104.93258896600007,-60.88603287828127L104.93258896600003,-60.24899701345369L104.93258896600003,-59.630955746640026L104.93258896600003,-59.048313449999995L104.92280385324312,-58.445093829899314L104.89575089444443,-57.76589617669446L104.85488365881253,-57.0279882385313L104.80365571555555,-56.24863776355557L104.745520633882,-55.445112499913186L104.68393198300005,-54.63468019574999L104.62234333211815,-53.83460859921181L104.5642082504445,-53.0621654584445L104.51298030718752,-52.33461852159377L104.47211307155557,-51.669235536805616L104.44506011275693,-51.083284252225745L104.43527500000009,-50.59403241600008L104.44002356792367,-50.07110639277896L104.45254251972223,-49.39449784506487L104.47024172743754,-48.5970154192813L104.49053106311115,-47.711467761851914L104.51082039878476,-46.77066351920026L104.5285196065,-45.80741133775002L104.54103855829868,-44.85451986392483L104.54578712622231,-43.94479774414818L104.54017518231258,-43.111053624843805L104.52161259861117,-42.38609615243523L104.48750924715972,-41.80273397334612L104.43527500000009,-41.393775734000045L104.36361460823854,-40.94006725342483L104.27641312240748,-40.22993241756484L104.17885086368764,-39.3074040217188L104.07610815325937,-38.21651486118521L103.97336531230337,-37.001297731262746L103.87580266200005,-35.70578542725L103.78860052353025,-34.37401074444562L103.71693921807419,-33.05000647814816L103.66599906681257,-31.777805423656265L103.64096039092608,-30.601440376268517L103.64700351159497,-29.564944131283564L103.68930875000012,-28.712349484000015L103.80054110130682,-27.750250102128483L103.99897576512046,-26.299473418361107L104.26820836928137,-24.46189913696879L104.5918345416296,-22.33940696222225L104.95344991000582,-20.03387659839238L105.33665010224996,-17.647187749750014L105.72503074620258,-15.281220120565978L106.10218746970378,-13.037853415111114L106.4517159005938,-11.018967337656257L106.75721166671302,-9.326441592472218L107.00227039590165,-8.062155883829854L107.17048771600003,-7.327989916000001L107.32388140427553,-6.854708577600699L107.5273518787037,-6.318400237472227L107.76881167968757,-5.738922771718756L108.03617334762961,-5.136134056444452L108.31734942293293,-4.529891967753471L108.60025244600007,-3.9400543817500013L108.87279495723378,-3.3864791745381937L109.12288949703712,-2.8890242222222224L109.33844860581254,-2.4675474009062524L109.50738482396302,-2.141906586694445L109.61761069189123,-1.931959655690972L109.65703875,-1.8575644839999998L102.94334250000006,-1.8575644839999998L102.92334076596885,-2.1204671598935185L102.86621350558347,-2.4066809221481513L102.77627763140636,-2.7084353216250032L102.65785005600013,-3.017959909185188L102.51524769192713,-3.327484235689812L102.35278745175009,-3.6292378520000006L102.1747862480314,-3.9154503089768524L101.98556099333344,-4.178351157481483L101.78942860021893,-4.4101699483750005L101.59070598125018,-4.603136232518521L101.39371004898967,-4.749479560773151L101.20275771600012,-4.841429484000001L100.71796599218648,-5.067205208611117L100.37045277965755,-5.362915367055563L100.14208695428131,-5.715609123750006L100.01473739192605,-6.112335643111117L99.9702729684596,-6.540144089555553L99.9905625597501,-6.986083627500003L100.05747504166564,-7.4372034213611125L100.15287929007417,-7.8805526355555555L100.25864418084387,-8.3031804345L100.35663858984265,-8.692135982611118L100.42873139293867,-9.034468444305553L100.45679146600011,-9.317226984000001L100.44700635324317,-9.649776263660877L100.4199533944445,-10.13341800512038L100.37908615881265,-10.743114011093763L100.32785821555565,-11.45382608429631L100.26972313388207,-12.240516027443297L100.20813448300014,-13.078145643250012L100.14654583211822,-13.941676734431722L100.08841075044461,-14.806071103703703L100.0371828071876,-15.646290553781256L99.99631557155564,-16.437296887379627L99.969262612757,-17.154051907214125L99.95947750000019,-17.771517416L99.9299784506459,-18.45316128484954L99.84781281350013,-19.3497883847963L99.7224778549376,-20.41736601843753L99.5634708413335,-21.61186148837039L99.38028903906265,-22.889242097192167L99.18242971450013,-24.205475147500056L98.97939013402099,-25.516527941891223L98.78066756400017,-26.778367782962995L98.59575927081258,-27.946961973312526L98.43416252083341,-28.97827781553704L98.30537458043766,-29.82828261223381L98.21889271600007,-30.452943666000003L98.14219380517261,-30.98378124976505L98.0404570233797,-31.570739218953708L97.91972603515637,-32.19741320140627L97.78604450503715,-32.84739882496297L97.64545609755689,-33.50429171746411L97.50400447725009,-34.151687506750015L97.36773330865168,-34.7731818206609L97.24268625629638,-35.35237028703707L97.13490698471885,-35.87284853371874L97.05043915845377,-36.31821218854632L96.99532644203599,-36.67205687935995L96.9756125000001,-36.917978233999996L96.96553959524773,-37.17814547732526L96.93647209248154,-37.56954753476854L96.89013680893768,-38.06800958503127L96.82826056185192,-38.64935680681482L96.75257016846071,-39.28941437882065L96.66479244600008,-39.96400747975005L96.56665421170614,-40.64896128830444L96.45988228281492,-41.32010098318524L96.3462034765626,-41.9532517430938L96.22734461018527,-42.524238746731534L96.10503250091908,-43.008887172799824L95.98099396600007,-43.38302220000003L95.85206080801285,-43.7273703804121L95.7162206747686,-44.12783858729634L95.57692710284385,-44.568022481125034L95.43763362881488,-45.03151772237045L95.30179378925821,-45.501919971504705L95.17286112075006,-45.96282488900004L95.05428915986703,-46.39782813532874L94.94953144318525,-46.790525370963024L94.86204150728133,-47.12451225637505L94.79527288873155,-47.38338445203708L94.75267912411232,-47.55073761842131L94.73771375000013,-47.610167416000024L94.68073093491675,-47.320788915316L94.63410863166675,-46.84923576469444L94.59784684025003,-46.230906803781295L94.57194556066673,-45.50120087222225L94.55640479291671,-44.695516809663225L94.55122453700001,-43.84925345575005L94.55640479291671,-42.99780965012853L94.57194556066673,-42.17658423244449L94.59784684025003,-41.420976042343774L94.63410863166675,-40.76638391947229L94.68073093491675,-40.24820670347576L94.73771375000013,-39.90184323400006L94.77987509240748,-39.589729540949115L94.78491094109268,-39.16623871409267L94.75713824125006,-38.65468223137501L94.70087393807415,-38.07837157074077L94.62043497675933,-37.46061821013428L94.52013830250006,-36.824733627500024L94.40430086049093,-36.194029300782425L94.27723959592608,-35.59181670792596L94.14327145400011,-35.041407326874996L94.00671337990751,-34.56611263557409L93.87188231884268,-34.189244111967604L93.74309521600007,-33.93411323400002L93.6042330492582,-33.64847620329282L93.4403326852316,-33.18239153567593L93.25743785371883,-32.562624180406246L93.06159228451867,-31.81593908674075L92.85883970742947,-30.96910120393636L92.65522385225006,-30.048875481250004L92.45678844877904,-29.082026867938662L92.26957722681489,-28.09532031325929L92.09963391615636,-27.11552076646876L91.95300224660194,-26.16939317682408L91.83572594795031,-25.2837024935822L91.75384875000015,-24.485213666000043L91.69672203891909,-23.549590098041698L91.64909246368528,-22.284152726500018L91.61009664831265,-20.76315279987504L91.57887121681495,-19.06084156666667L91.55455279320611,-17.251470275375002L91.53627800150014,-15.409290174500004L91.52318346571076,-13.608552512541682L91.51440580985195,-11.92350853800001L91.5090816579376,-10.428409499375006L91.50634763398159,-9.197506645166666L91.50534036199781,-8.305051223875003L91.50519646600014,-7.825294484000002L91.52965897052093,-7.494042443781251L91.59729060066677,-7.019468064583336L91.69945753131265,-6.434380058093757L91.82752593733343,-5.771587136000005L91.97286199360424,-5.0638980099895905L92.12683187500011,-4.344121391750002L92.28080175639593,-3.6450659929687483L92.42613781266681,-2.9995405253333347L92.55420621868754,-2.440353700531252L92.65637314933348,-2.0003142302500003L92.72400477947929,-1.7122308261770833L92.7484672840001,-1.6089122000000011L86.7807372840001,-1.6089122000000011L86.7464896667223,-2.171839836701389L86.65180507777785,-2.631161376111114L86.50877091150012,-3.0075980376875L86.32947456222227,-3.3218710408888903L86.12600342427784,-3.594701605173611L85.91044489200013,-3.84681095L85.69488635972233,-4.0989202948263905L85.49141522177791,-4.371750859111115L85.31211887250008,-4.686023862312498L85.16908470622235,-5.062460523888898L85.0744001172779,-5.521782063298616L85.04015250000002,-6.084709700000003L85.06979545079061,-6.406034167269681L85.15296839799083,-6.748943066824075L85.28103748384386,-7.11429980728125L85.44536885059269,-7.502967797259259L85.63732864048043,-7.915810445376153L85.84828299575011,-8.35369116025L86.06959805864474,-8.817473350498847L86.29263997140752,-9.308020424740738L86.50877487628131,-9.826195791593756L86.70936891550934,-10.372862859675942L86.88578823133457,-10.948885037605331L87.02939896600013,-11.555125734000011L87.14365238816212,-12.35246487835418L87.23891153862974,-13.458032774L87.31690316937508,-14.807075438812506L87.37935403237044,-16.334838890666674L87.42799087958807,-17.9765691474375L87.4645404630001,-19.667512227000024L87.49072953457882,-21.34291414722919L87.50828484629643,-22.938020926000043L87.51893315012508,-24.388078581187536L87.52440119803717,-25.628333130666686L87.5264157420047,-26.594030592312514L87.52670353400006,-27.220416984000018L87.52152327264479,-27.67499148374884L87.5059824668242,-28.163237614324075L87.48008108390627,-28.67738495921876L87.44381909125936,-29.209663101925937L87.3971964562513,-29.75230162593866L87.3402131462501,-30.297530114750003L87.27286912862394,-30.83757815185303L87.1951643707409,-31.36467532074076L87.1070988399688,-31.871051204906262L87.00867250367602,-32.34893538784261L86.89988532923044,-32.79055745304283L86.7807372840001,-33.188146984000014L86.72850303684031,-33.725606682462974L86.69439968538899,-34.44178710270373L86.67583710168756,-35.297835868500016L86.6702251577779,-36.25490060362966L86.67497372570146,-37.27412893187038L86.68749267750009,-38.316668477000015L86.70519188521541,-39.343666862796354L86.725481220889,-40.3162717130371L86.74577055656258,-41.19563065150002L86.76346976427791,-41.94289130196301L86.77598871607643,-42.519201288203746L86.7807372840001,-42.88570823400004L86.75598698204524,-43.16458356686692L86.68634076986125,-43.50044207376855L86.57870568796886,-43.8881034661563L86.43998877688902,-44.32238745548152L86.27709707714243,-44.798113753195665L86.09693762925008,-45.310102070750055L85.90641747373274,-45.853172119596074L85.71244365111122,-46.42214361118521L85.52192320190639,-47.01183625696877L85.34176316663896,-47.6170697683982L85.17887058582991,-48.2326638569248L85.04015250000002,-48.85343823400005L84.92589691869104,-49.50817459006603L84.83063596802788,-50.21644048569448L84.75264286340632,-50.9592414860313L84.69019082022231,-51.71758315622227L84.64155305387159,-52.47247106141318L84.6050027797501,-53.20491076675003L84.57881321325355,-53.8959078373785L84.56125756977787,-54.52646783844445L84.55060906471886,-55.07759633509376L84.54514091347234,-55.530298892472246L84.54312633143414,-55.86558107572568L84.54283853400007,-56.06444844999998L84.52801706132418,-56.23827772488546L84.48643060675934,-56.501899113916664L84.42239611550009,-56.84149843815624L84.34023053274085,-57.24326151866671L84.24425080367601,-57.69337417651047L84.13877387350013,-58.17802223275002L84.0281166874075,-58.68339150844793L83.9165961905927,-59.19566782466666L83.8085293282501,-59.70103700246877L83.70823304557416,-60.185684862916695L83.62002428775934,-60.63579722707292L83.54822000000009,-61.037559915999964L83.5529685679237,-61.44939533020371L83.56548751972234,-61.92857472396297L83.58318672743759,-62.459557199L83.60347606311122,-63.02680185703701L83.62376539878481,-63.614767799796276L83.64146460650012,-64.207914129L83.65398355829869,-64.7906999463704L83.65873212622236,-65.34758435362968L83.65312018231258,-65.86302645250001L83.63455759861121,-66.32148534470375L83.60045424715977,-66.70742013196298L83.54822000000009,-67.00528991600001L83.48591284808809,-67.19624224898958L83.42274199387046,-67.39323818125001L83.3578441266251,-67.59196080021879L83.29035593562973,-67.7880931933334L83.21941411016218,-67.97731844803127L83.1441553395001,-68.15531965175003L83.06371631292141,-68.3177798919271L82.97723371970386,-68.46038225600003L82.88384424912505,-68.57880983140628L82.78268459046308,-68.66874570558336L82.67289143299546,-68.72587296596879L82.55360146600012,-68.74587470000004L82.34955365089478,-68.75033547048962L81.9987301886575,-68.76083984025003L81.52012557940637,-68.77307089671875L80.93273432325938,-68.78271172733338L80.25555092033458,-68.78544541953127L79.5075698707501,-68.77695506075001L78.70778567462392,-68.75292373842709L77.87519283207409,-68.70903454000002L77.02878584321876,-68.64097055290624L76.18755920817598,-68.54441486458339L75.37050742706367,-68.41505056246875L74.59662500000005,-68.24856073400005L73.71294860510882,-68.0429308243322L72.58320705203708,-67.80535570949074L71.25143303818751,-67.54533262321878L69.76165926096303,-67.27235879925931L68.15791841776627,-66.99593147135535L66.48424320599997,-66.72554787325L64.78466632306716,-66.47070523868636L63.1032204663704,-66.24090080140743L61.4839383333125,-66.04563179515627L59.970852621296316,-65.89439545367593L58.607996027724504,-65.7966890107095L57.43940125000004,-65.76200970000001L56.37916146381019,-65.8014377581088L55.31892180814814,-65.91166362603703L54.269042925375004,-66.08059984418749L53.239885457851884,-66.29615895296298L52.24181004793985,-66.54625349276625L51.285177338000075,-66.818796004L50.38034797039355,-67.10169902706713L49.537682587481534,-67.38287510237038L48.767541831625046,-67.65023677031255L48.080286345185236,-67.89169657129631L47.486276770523205,-68.09516704572452L46.99587375000002,-68.24856073400005L46.55079853980675,-68.41447497303933L46.08759207495373,-68.5398101491482L45.60884451603129,-68.6254296383125L45.11714602362972,-68.67219681651855L44.61508675833917,-68.68097505975233L44.10525688075003,-68.65262774400006L43.590246551452616,-68.58801824524774L43.07264593103708,-68.48800993948154L42.55504518009381,-68.35346620268751L42.04003445921302,-68.18525041085189L41.530203928984996,-67.98422593996065L41.028143750000055,-67.75125616599999L40.551121849879664,-67.46763226520952L40.11295258703708,-67.11925480650929L39.71104576825004,-66.71389420640625L39.342811200296346,-66.25932088140742L39.00565868995369,-65.76330524801968L38.69699804400002,-65.23361772275L38.41423906921296,-64.67802872210535L38.154791572370364,-64.10430866259262L37.91606536025001,-63.52022796071877L37.695470239629636,-62.93355703299077L37.49041601728703,-62.352066295915506L37.29831250000002,-61.783526166L37.032964995319475,-61.145770946273174L36.62602213205556,-60.36987361085188L36.101658698875,-59.483462582875035L35.484049484444476,-58.51416628548153L34.797369277430576,-57.48961314181023L34.06579286650003,-56.437431575L33.31349504031946,-55.38525000818983L32.56465058755556,-54.3606968645185L31.843434296875007,-53.39140056712504L31.174020956944457,-52.50498953914819L30.580585356430557,-51.7290922037269L30.087302284,-51.091336984000066L29.65791193878473,-50.487829566465315L29.24233567461112,-49.80661733122225L28.844027060687516,-49.06324124181255L28.466439666222225,-48.27324226177781L28.113027060423626,-47.452161354659744L27.787242812500004,-46.615539484000045L27.49254049165972,-45.77891761334032L27.23237366711113,-44.95783670622226L27.01019590806251,-44.16783772618753L26.829460783722226,-43.424461636777856L26.693621863298603,-42.743249401534754L26.606132716000012,-42.13974198400007L26.56396921988426,-41.53119820654634L26.558931609074083,-40.83545247553708L26.58670293837501,-40.06890913050006L26.642966262592598,-39.247972510962995L26.723404636532408,-38.389046956453726L26.82370111500001,-37.5085368065L26.93953875280094,-36.62284640062965L27.066600604740753,-35.748380078370374L27.200569725625012,-34.901542179250015L27.337129170259264,-34.09873704279631L27.471961993449067,-33.35636900853706L27.60075125000001,-32.690842415999995L27.944955409325242,-31.50958450766901L28.67595654626852,-29.457169265018525L29.714323123781263,-26.719224874562514L30.980623604814806,-23.481379522814862L32.3954264523206,-19.92926139628936L33.87930012925002,-16.248498681500006L35.35281309855439,-12.624719564960657L36.7365338231852,-9.243552233185184L37.951030766093744,-6.2906248726875065L38.91687239023149,-3.951565669981483L39.554627158549835,-2.412002811581021L39.78486353400004,-1.8575644839999998L32.325201034,-1.8575644839999998L32.329949781399314,-1.8968486461111114L32.3424692063611,-2.0060672420555563L32.36016908303126,-2.1722694362500006L32.38045918555556,-2.3825043931111116L32.40074928807987,-2.623821277055558L32.418449164749994,-2.883269252500002L32.43096858971182,-3.1478974838611142L32.43571733711113,-3.4047551355555554L32.43010518109374,-3.6408913719999982L32.41154189580555,-3.843355357611114L32.37743725539237,-3.9991962568055546L32.325201034,-4.095463234000002L32.252965052809024,-4.157484568149307L32.161734440972225,-4.218642167361108L32.05323598309374,-4.27807268828125L31.929196463777778,-4.334912787555559L31.79134266762847,-4.3882991218298635L31.641401379250016,-4.437368347750004L31.481099383246537,-4.481257121961808L31.31216346422222,-4.519102101111113L31.136320406781238,-4.55003994184375L30.955296995527775,-4.573207300805559L30.77082001506599,-4.5877408346423625L30.584616250000018,-4.592777200000002L30.403448844853024,-4.617527681430558L30.233505360157423,-4.687174366777778L30.07564920453126,-4.7948101176249995L29.930743786592593,-4.933527795555562L29.799652514959494,-5.096420262152784L29.68323879824999,-5.276580379000008L29.582366045082168,-5.467101007680565L29.49789766407408,-5.661075009777783L29.43069706384375,-5.851595246875006L29.381627653009264,-6.03175458055556L29.351552840188653,-6.19464587240278L29.34133603400001,-6.333361984000002L29.355869714680555,-6.4725119481759315L29.395441625277783,-6.63842689424074L29.45400806862501,-6.826789877000004L29.52552534755557,-7.033283951259261L29.603949764902776,-7.253592171824074L29.6832376235,-7.483397593500003L29.757345226180572,-7.718383271092596L29.82022887577779,-7.95423225940741L29.865844875125013,-8.18662761325L29.888149527055567,-8.411252387425925L29.88109913440278,-8.623789636740739L29.838650000000015,-8.819922416000004L29.60999703526737,-9.501566225024305L29.086928910805543,-11.061274278361124L28.327292568218734,-13.330686202906264L27.38893494911113,-16.14144162555556L26.329702995086812,-19.32518017320486L25.207443647750047,-22.713541472750027L24.080003848704894,-26.138165151086795L23.005230539555583,-29.430690835111125L22.04097066190627,-32.42275815171877L21.24507115736114,-34.94600672780556L20.675378967524324,-36.832076190267365L20.38974103400002,-37.912606166000025L20.216345611693313,-38.62187769657639L19.955747876879645,-39.48396873461115L19.62435220171877,-40.46520722506253L19.238562958370377,-41.53192111288896L18.81478451899421,-42.65043834304867L18.36942125575,-43.78708686050005L17.918877540797457,-44.90819461020143L17.47955774629631,-45.98008953711115L17.067866244406265,-46.96909958618754L16.700207407287035,-47.84155270238893L16.392985607098375,-48.563776830673625L16.162605216000006,-49.10209991600004L16.01108076164352,-49.564442265209536L15.92431022414816,-49.96203105650931L15.894523154375005,-50.302636706406254L15.913949103185189,-50.594029631407494L15.974817621439815,-50.84398024801971L16.06935826,-51.06025897275005L16.189800569726863,-51.250636222105385L16.328374101481483,-51.422882412592664L16.477308406125008,-51.58476796071883L16.628833034518518,-51.744063282990794L16.775177537523152,-51.90853879591556L16.908571466,-52.08596491600005L17.14067719501968,-52.52571584375115L17.563591660157417,-53.303914432842625L18.140189204531243,-54.35494329253127L18.833344171259256,-55.61318503207409L19.60593090345951,-57.013022260728L20.420823744250015,-58.48883758775L21.24089703674886,-59.97501362239703L22.02902512407411,-61.40593297392598L22.748082349343775,-62.71597825159377L23.360943055675946,-63.83953206465742L23.830481586188686,-64.71097702237384L24.119572284000025,-65.26469573400003L24.31987803631485,-65.66559503606366L24.540905073351887,-66.10966369217593L24.77229275275002,-66.57790720221875L25.00368043214819,-67.05133106607411L25.2247074691852,-67.51094078362385L25.425013221500045,-67.93774185475002L25.594237046731504,-68.31273977933449L25.722018302518563,-68.61694005725928L25.79799634650003,-68.83134818840627L25.811810536314827,-68.93696967265744L25.753100229601888,-68.9148100098947L25.611504784000015,-68.74587470000004L25.366590712221075,-68.4481507861933L25.019797001435215,-68.06322455987963L24.59357172096878,-67.60750039321879L24.110362940148175,-67.09738265837038L23.59261872829979,-66.54927572749425L23.062787154750033,-65.97958397275004L22.543316288825256,-65.40471176629747L22.056654199851888,-64.84106348029634L21.62524895715628,-64.30504348690627L21.27154863006484,-63.81305615828709L21.018001287903957,-63.381505866598374L20.88705500000002,-63.02679698400001L20.73956046025466,-62.61107758524074L20.432339209370397,-62.00109578325926L19.98179558687502,-61.220163056000004L19.404333932296296,-60.29159088140742L18.716358585162045,-59.23869073742593L17.934273885000014,-58.08477410199998L17.074484171337975,-56.85315245307406L16.153393783703713,-55.567137268592596L15.187407061624997,-54.25004002650001L14.192928344629628,-52.925172204740775L13.186361972245376,-51.61584528125929L12.184112284000008,-50.34537073400008L11.188196913018524,-49.023239089905125L10.308838409648155,-47.559511760907434L9.538266324749996,-45.97836360093752L8.868710209185188,-44.30396946392599L8.292399613814823,-42.56050420380326L7.801564089499998,-40.77214267450003L7.388433187101855,-38.963059729946785L7.045236457481484,-37.15743022407411L6.764203451500001,-35.37942901081251L6.537563720018523,-33.6532309440926L6.35754681389815,-32.003010877844915L6.216382284000007,-30.452943666000003L6.1122015871145905,-28.82099853286344L6.046009466250007,-26.94989511890742L6.014352450093757,-24.900933902312527L6.013777067333338,-22.73541536125928L6.040829846656259,-20.514639973928265L6.0920573167500045,-18.299908218499997L6.16400600630209,-16.152520573155105L6.253222444000006,-14.133777516074094L6.356253158531256,-12.304979525437524L6.469644678583342,-10.72742707942594L6.589943532843751,-9.462420656219905L6.713696249999998,-8.571260734L6.8442108444722285,-7.916814149600695L7.094736332611112,-7.210564124972227L7.4402344845,-6.4732319774687594L7.855667070222222,-5.725539024444452L8.31599585986111,-4.988206583253478L8.796182623499996,-4.281955971250001L9.271189131222226,-3.627508505788197L9.71597715311111,-3.0455855042222235L10.105508459250013,-2.5569082839062522L10.414744819722232,-2.182198162194445L10.618648004611124,-1.9421764564409725L10.692179784000015,-1.8575644839999998L2.4865510340000014,-1.8575644839999998L2.4862632420046324,-1.9211674395486118L2.4842486980370397,-2.097010904888889L2.478780650125003,-2.3626467780625L2.4681323462962985,-2.695626957111114L2.4505770345787075,-3.0735033400763907L2.424387962999999,-3.473827825L2.387838379587962,-3.8741523099236104L2.3392015323703714,-4.25202869288889L2.2767506693749993,-4.585008871937499L2.198759038629632,-4.850644745111118L2.103499888162038,-5.026488210451395L1.9892464660000002,-5.090091166000004L1.8456357313344915,-5.114985363952552L1.6692164155092593,-5.185638848120379L1.4686223762812511,-5.296007953968756L1.2524874714074092,-5.440049016962967L1.029445558644676,-5.611718372568293L0.8081304957500013,-5.804972356250008L0.5971761404803242,-6.013767303473386L0.40521635059259303,-6.23205954970371L0.24088498384375012,-6.453805430406255L0.11281589799074078,-6.672961281046299L0.02964295079050927,-6.883483437089122L0,-7.079328234000003L0.00028779743402777814,-7.275317111822921L0.002302379472222225,-7.486847051083335L0.007770530718750003,-7.7087376979687505L0.01841903577777779,-7.9358086986666665L0.035974679253472246,-8.162879699364582L0.06216424575000003,-8.384770346249999L0.09871451987152786,-8.596300285510422L0.14735228622222232,-8.792289163333344L0.20980432940625005,-8.96755662590625L0.28779743402777797,-9.116922319416672L0.38305838469097264,-9.235205890052086L0.4973139660000002,-9.317226984000001L0.6259571728449079,-10.031249236208344L0.7597809619259268,-11.900482654833347L0.8936050120625001,-14.70217349437501L1.0222490020740744,-18.21356800933335L1.1405326107800928,-22.211912454208363L1.2432755170000007,-26.474453083500002L1.3252973995532422,-30.778436151708355L1.3814179372592617,-34.901107913333355L1.4064568089375016,-38.61971462287502L1.3952336934074092,-41.711502534833414L1.3425682694884271,-43.95371790370839L1.2432802160000014,-45.123606984000006L1.129024634690973,-45.72135855075001L1.0337636840277784,-46.38300085416668L0.9557705794062503,-47.089539361500016L0.8933185362222227,-47.82197954000003L0.8446807698715282,-48.56132685691674L0.8081304957500013,-49.288586779500065L0.7819409292534732,-49.98476477500003L0.7643852857777791,-50.63086631066673L0.7537367807187507,-51.207896853750064L0.748268629472223,-51.696861871500055L0.7462540474340282,-52.07876683116673L0.7459662500000009,-52.334617200000004L0.786833289840279,-52.56226359433567L0.9071320298888889,-52.87106844085187L1.1034089009375,-53.25930492231252L1.3722103337777802,-53.7252462214815L1.7100827592013885,-54.26716552112266L2.113572608000002,-54.883336004000014L2.5792263109652804,-55.572030852877305L3.1035902988888933,-56.331523250518536L3.6832110025625004,-57.16008637968749L4.314634852777776,-58.05599342314815L4.994408280326391,-59.017517563664356L5.719077716000005,-60.04293198400004L6.352802357599544,-61.16015458527312L6.8932816747963,-62.267016544185196L7.350876244687502,-63.35315721837502L7.735946644370372,-64.4082159654815L8.058853450942134,-65.42183214314353L8.329957241499999,-66.383645109L8.559618593141211,-67.28329422068983L8.758198082962974,-68.1104188358519L8.936056288062503,-68.85465831212503L9.103553785537038,-69.50565200714819L9.27105115248379,-70.05303927856018L9.448908966000005,-70.48645948400005L9.651947997174771,-70.93930601351737L9.767784976898149,-71.53979189247228L9.80246363496876,-72.26978593146879L9.762027701185184,-73.11115694111116L9.652520905346062,-74.04577373200351L9.479986977250002,-75.05550511475L9.250469646695603,-76.12221989995489L8.970012643481484,-77.22778689822222L8.644659697406249,-78.35407492015636L8.280454538268518,-79.4829527763612L7.883440895866899,-80.5962892774411L7.459662500000004,-81.6759532340001L7.035308514703708,-82.75202178116558L6.634265746296301,-83.86089890949083L6.259124388000012,-84.99395076121887L5.912474633037043,-86.14254347859271L5.596906674629637,-87.29804320385543L5.315010706000007,-88.45181607925014L5.069376920370377,-89.5952282470198L4.862595510962965,-90.71964584940757L4.697256670999999,-91.81643502865636L4.575950593703706,-92.87696192700942L4.501267472296299,-93.89259268670966L4.4757975000000005,-94.85469345000008L4.466300184677085,-95.83909771222585L4.441261807916668,-96.80364429413903L4.405862723531251,-97.74919653909387L4.3652832853333345,-98.67661779044454L4.324703847135419,-99.58677139154528L4.28930476275,-100.48052068575012L4.264266385989589,-101.35872901641332L4.254769070666669,-102.22225972688902L4.2659931705937515,-103.07197616053136L4.303119039583334,-103.90874166069459L4.371327031447916,-104.73341957073262L4.4757975000000005,-105.54687323400005L4.676966639178245,-106.31442547174083L4.904037384259266,-107.00427243492594L5.151829414062506,-107.62159451000005L5.415162407407412,-108.17157208340747L5.688856043113431,-108.6593855415926L5.9677300000000075,-109.09021527100005L6.246603956886581,-109.46924165807413L6.520297592592605,-109.80164508925928L6.783630585937504,-110.09260595100007L7.031422615740741,-110.34730462974083L7.258493360821763,-110.57092151192595L7.459662500000004,-110.76863698400004L7.675797013290507,-110.96016509133338L7.945461522990751,-111.16119066083344L8.26002217134375,-111.37085025125005L8.6108451005926,-111.58828042133338L8.989296452980328,-111.81261772983332L9.386742370750007,-112.04299873550002L9.794548996144693,-112.27855999708339L10.204082471407425,-112.51843807333344L10.606708938781262,-112.76176952300003L10.993794540509269,-113.00769090483342L11.356705418834503,-113.25533877758335L11.686807716000015,-113.50384969999996L12.007554619607657,-113.77193066301624L12.34643310419445,-114.07368394212975L12.700852943906265,-114.40133902293755L13.068223912888891,-114.74712539103712L13.4459557852882,-115.10327253202546L13.831458335250007,-115.46200993149998L14.222141336920147,-115.81556707505788L14.61541456444445,-116.15617344829641L15.008687791968756,-116.47605853681247L15.399370793638886,-116.76745182620373L15.784873343600703,-117.02258280206719L16.162605216000006,-117.23368095000008L16.559619152089123,-117.41528004857877L16.997212053212955,-117.58824538729637L17.46415993365626,-117.75430371812504L17.94923880770372,-117.91518179303706L18.441224689640052,-118.07260636400461L18.928893593750004,-118.228304183L19.40102153431829,-118.38400200199537L19.846384525629656,-118.541426572963L20.253758581968782,-118.70230464787507L20.611919717620395,-118.86836297870376L20.909643946869235,-119.04132831742137L21.13570728400003,-119.22292741600008L21.358029520982658,-119.43906192385181L21.650286289694478,-119.70872639548153L22.00988736428128,-120.02328694050004L22.43424251888892,-120.37410966851856L22.920761527663224,-120.75256068914821L23.46685416475003,-121.15000611200004L24.069930204295165,-121.55781204668529L24.727399420444467,-121.9673446028149L25.436671587343774,-122.3699698900001L26.19515647913889,-122.75705401785184L27.000263869975704,-123.11996309598148L27.849403533999993,-123.45006323400008L28.68473098244213,-123.72073573358686L29.45530418770373,-123.91629344552781L30.168893664187504,-124.04450685159382L30.83326992629632,-124.11314643355558L31.45620348843288,-124.12998267318409L32.04546486499999,-124.10278605225004L32.608824570400465,-124.03932705252431L33.154053119037016,-123.94737615577783L33.6889210253125,-123.83470384378128L34.22119880362964,-123.70908059830568L34.7586569683912,-123.57827690112161L35.309066034000004,-123.45006323400008L35.806089853066005,-123.33106106443867L36.301386887527784,-123.22328248900929L36.79323035278128,-123.12759098159378L37.279893464222226,-123.04485001607415L37.75964943724654,-122.97592306633223L38.23077148724999,-122.92167360625L38.69153282962848,-122.88296510970955L39.14020667977776,-122.86066105059258L39.57506625309379,-122.85562490278126L39.99438476497228,-122.86872014015745L40.39643543080909,-122.90081023660305L40.77949146600003,-122.95275866600002L41.322417243581064,-123.06701208816206L42.0561517246482,-123.1622712386296L42.94356921968755,-123.2402628693751L43.94754403918523,-123.30271373237049L45.03095049362738,-123.35135057958806L46.156662893500055,-123.38790016300005L47.287555549289415,-123.41408923457875L48.38650277148155,-123.43164454629638L49.41637887056255,-123.4422928501251L50.340058157018554,-123.447760898037L51.12041494133571,-123.44977544200466L51.72032353400008,-123.45006323400008L52.32080987524077,-123.43063708939822L53.10519758575927,-123.37753895501861L54.03981454525003,-123.29853928000006L55.09098863340744,-123.20140851348155L56.22504772992592,-123.09391710460193L57.40831971450004,-122.9838355025001L58.607132466824076,-122.87893415631491L59.7878138665926,-122.78698351518516L60.91669179350002,-122.71575402825003L61.96009412724076,-122.67301614464823L62.88434874750927,-122.66654031351854L63.655783534000044,-122.70409698400002L64.33613375835996,-122.8205117503704L65.12009004737965,-123.03448898212966L65.98693114896876,-123.32962433975003L66.91593581103706,-123.68951348370378L67.88638278149418,-124.09775207446297L68.87755080825004,-124.53793577250005L69.86871863921414,-124.99366023828706L70.83916502229633,-125.44852113229632L71.76816870540631,-125.88611411499998L72.63500843645373,-126.29003484687047L73.41896296334838,-126.64387898837967L74.09931103400001,-126.93124219999994L74.85132165012153,-127.17471657758344L75.72247942497225,-127.40783044333327L76.68688278528126,-127.63058379724994L77.71863015777778,-127.84297663933337L78.79181996919105,-128.0450089695833L79.88055064625009,-128.236680788L80.95892061568411,-128.41799209458338L82.00102830422232,-128.5889428893333L82.98097213859386,-128.7495331722501L83.87285054552785,-128.89976294333326L84.65076195175354,-129.03963220258348L85.28880478400006,-129.16914094999993L85.91317750734386,-129.28310873387514L86.65756122225005,-129.37635510249993L87.50727830853138,-129.4488800558751L88.44765114600014,-129.50068359399998L89.46400211446887,-129.5317657168751L90.54165359375011,-129.54212642449997L91.66592796365636,-129.53176571687507L92.82214760400012,-129.50068359399998L93.9956348945938,-129.44888005587512L95.17171221525011,-129.37635510249993L96.33570194578137,-129.28310873387508L97.47292646600013,-129.16914094999993L98.72080755774316,-129.00106771081366L100.07920227677785,-128.75701676484266L101.51357512681258,-128.45425579496882L102.98939061155569,-128.11005248407406L104.47211323471527,-127.74167451504053L105.92720750000007,-127.36638957075002L107.32013791111812,-127.00146533408444L108.61636897177783,-126.66416948792602L109.78136518568755,-126.37176971515628L110.78059105655565,-126.14153369865748L111.57951108809033,-125.99072912131138L112.1435897840001,-125.93662366600006L112.66018364366553,-125.94698418871072L113.20958608449081,-125.9780658003519L113.78316324871872,-126.02986856618755L114.37228127859261,-126.10239255148159L114.96830631635537,-126.19563782149771L115.56260450425003,-126.30960444150008L116.1465419845197,-126.4442924767524L116.71148489940747,-126.59970199251859L117.24879939115627,-126.77583305406252L117.7498516020093,-126.97268572664814L118.20600767420954,-127.19026007553938L118.60863375000002,-127.42855616599999L118.9810412855706,-127.71606327361809L119.34999528456483,-128.07091468711104L119.71204221040622,-128.4775694429376L120.06372852651853,-128.92048657755558L120.40160069632525,-129.38412512742352L120.72220518325003,-129.852944129L121.02208845071648,-130.31140261874305L121.29779696214825,-130.74395963311122L121.54587718096874,-131.13507420856254L121.76287557060189,-131.46920538155555L121.94533859447107,-131.73081218854858L122.08981271599997,-131.90435366599993L122.30752866577554,-132.14998722864462L122.69187853037043,-132.50181737549082L123.21264375868755,-132.94171298240622L123.8396057996297,-133.45154292525933L124.54254610209956,-134.01317607991794L125.29124611499994,-134.60848132225001L126.05548728723386,-135.2193275281239L126.80505106770379,-135.82758357340734L127.50971890531251,-136.4151183339688L128.13927224896304,-136.96380068567595L128.6634925475579,-137.45549950439693L129.05216125000007,-137.872083666L129.3818318537339,-138.24420340413667L129.74172087803706,-138.6111428210927L130.12060430456253,-138.9677215956876L130.50725811496304,-139.30875940674082L130.89045829089122,-139.62907593307187L131.258980814,-139.92349085350014L131.60160166594218,-140.18682384684504L131.90709682837036,-140.41389459192598L132.1642422829375,-140.59952276756255L132.36181401129636,-140.73852805257414L132.48858799509952,-140.82573012578007L132.533340216,-140.85594866600002L132.54312514384256,-140.90026918803025L132.57017759140746,-141.02402127974082L132.61104405475004,-141.21339072956252L132.662271029926,-141.45456332592593L132.7204050129907,-141.73372485726156L132.7819925,-142.03706111200006L132.84357998700932,-142.35075787857187L132.90171397007413,-142.66100094540755L132.95294094524996,-142.95397610093752L132.99380740859263,-143.21586913359275L133.02085985615747,-143.4328658318032L133.03064478400003,-143.5911519840001L133.11784829301166,-143.7747663716424L133.25167443159253,-144.06544071947212L133.42694287856247,-144.4459072793438L133.63847331274076,-144.89889830311114L133.88108541294676,-145.40714604262843L134.149598858,-145.95338274975018L134.43883332671993,-146.52034067632988L134.74360849792598,-147.09075207422228L135.05874405043753,-147.64734919528132L135.37905966307412,-148.17286429136124L135.69937501465515,-148.65002961431594L136.014509784,-149.06157741600012L136.32461034713432,-149.42391204137962L136.6303939650741,-149.7637984995371L136.9275436926251,-150.07951003850013L137.2117425845926,-150.36931990629634L137.47867369578245,-150.63150135095373L137.72402008100008,-150.86432762050006L137.94346479505106,-151.06607196296298L138.13269089274075,-151.23500762637028L138.28738142887497,-151.36940785875012L138.40321945825923,-151.46754590812972L138.475888035699,-151.52769502253705L138.50581878392362,-151.56813018403128L138.51833773572224,-151.6252574444167L138.5360369434374,-151.71519331859383L138.55632627911112,-151.83362089400015L138.5766156147848,-151.976223258073L138.59431482250005,-152.13868349825012L138.60683377429874,-152.3166847019688L138.61158234222225,-152.50590995666667L138.60597039831262,-152.70204234978127L138.58740781461117,-152.90076496875005L138.55330446315983,-153.09776090101045L138.5010702160001,-153.28871323400006L138.3942966609502,-153.48484601325933L138.20636507793517,-153.6973832625741L137.94936282865635,-153.92200803675004L137.63537727481483,-154.1544033905926L137.27649577811226,-154.39025237890743L136.88480570024993,-154.62523805650014L136.47239440292935,-154.8550434781759L136.05134924785193,-155.07535169874077L135.63375759671877,-155.28184577300013L135.2317068112315,-155.47020875575936L134.8572842530914,-155.63612370182406L134.52257728400005,-155.77527366600003L134.1750655072767,-155.89441973699763L133.7524388123796,-156.00320562248146L133.25210703871878,-156.10163125718748L132.6714800257037,-156.18969657585177L132.00796761274418,-156.2674015132107L131.25897963925004,-156.33474600399992L130.4219259446308,-156.39172998295606L129.4942163682963,-156.43835338481475L128.4732607496562,-156.47461614431248L127.3564689281204,-156.5005181961851L126.14125074309835,-156.51605947516896L124.825016034,-156.52123991599996L123.46604654677314,-156.53634918610987L122.2417651491852,-156.57995022271294L121.14181119887503,-156.64945286521893L120.15582405348147,-156.74226695303722L119.27344307064357,-156.85580232557774L118.48430760800007,-156.98746882225012L117.7780570231898,-157.1346762824643L117.14433067385188,-157.2948345456298L116.57276791762497,-157.4653534511564L116.05300811214825,-157.64364283845393L115.57469061506018,-157.82711254693183L115.12745478399998,-158.01317241600023L114.7651201586204,-158.21880232566812L114.42523370046302,-158.45637744050944L114.1095221615,-158.71640052678129L113.81971229370382,-158.98937435074095L113.55753084904632,-159.26580167864486L113.32470457950004,-159.5361852767501L113.1229602370371,-159.79102791131388L112.95402457362968,-160.02083234859268L112.81962434125,-160.21610135484394L112.72148629187043,-160.36733769632426L112.66133717746297,-160.46504413929065L112.64090375000004,-160.49972345000015L111.497922720919,-161.23043653389252L110.54229676085187,-161.93179447530568L109.75416796106254,-162.60552405884394L109.1136784128149,-163.2533520691113L108.60097020737271,-163.8770052907119L108.19618543600004,-164.47821050825024L107.87946618996068,-165.05869450633008L107.63095456051853,-165.6201840695558L107.43079263893753,-166.16440598253152L107.25912251648151,-166.69308702986126L107.09608628441435,-167.20795399614946L106.92182603400003,-167.71073366600024L106.73547837293636,-168.3110739520963L106.54999412049078,-169.0944525904354L106.36623668528131,-170.02633405209406L106.18506947592597,-171.07218280814826L106.00735590104284,-172.19746332967492L105.83395936925005,-173.3676400877503L105.66574328916553,-174.54817755345042L105.5035710694074,-175.70454019785205L105.34830611859375,-176.80219249203157L105.20081184534261,-177.80659890706508L105.06195165827204,-178.68322391402913L104.93258896600003,-179.39753198400032L104.78336627654747,-180.01399164029195L104.58838430087974,-180.62009039316692L104.35368670353135,-181.2158282426252L104.08531714903712,-181.80120518866687L103.78931930193177,-182.37622123129194L103.47173682675007,-182.9408763705003L103.13861338802667,-183.49517060629188L102.79599265029641,-184.039103938667L102.4499182780939,-184.57267636762526L102.10643393595385,-185.09588789316697L101.77158328841101,-185.60873851529186L101.45141000000014,-186.11122823400035L101.01986046428482,-186.60767645819817L100.48556788094452,-187.0989443285837L99.87011691068761,-187.57985149134413L99.1950922142223,-188.0452175926671L98.482078452257,-188.48986227873974L97.75266028550018,-188.90860519575037L97.02842237465985,-189.29626598988568L96.33094938044455,-189.64766430733374L95.6818259635626,-189.9576197942815L95.10263678472232,-190.22095209691705L94.61496650463206,-190.43248086142736L94.2403997840001,-190.58702573400035L93.80683711836812,-190.73092426609975L93.15483732611125,-190.90935816396328L92.32497960068754,-191.1154203544378L91.35784313555565,-191.34220376437065L90.29400712417372,-191.58280132060904L89.17405076000014,-191.83030595000025L88.03855323649314,-192.07781057939152L86.92809374711122,-192.31840813562994L85.88325148531257,-192.54519154556274L84.94460564455568,-192.75125373603726L84.15273541829873,-192.9296876339008L83.54822000000009,-193.0735861660004L83.04155514908922,-193.1754650979818L82.52021293904643,-193.34986865701885L81.99023703440638,-193.58643620075026L81.4576710997038,-193.87480708681503L80.92855879947349,-194.20462067285206L80.40894379825008,-194.56551631650024L79.90486976056837,-194.94713337539835L79.42238035096305,-195.3391112071855L78.96751923396886,-195.73108916950034L78.54633007412046,-196.1127066199817L78.1648565359526,-196.47360291626876L77.82914228399999,-196.80341741600043L77.51904388001272,-197.14776343726535L77.21326206226848,-197.54822984395395L76.91611380859379,-197.98841226390658L76.63191609681482,-198.45190632496343L76.36498590475816,-198.9223076549645L76.11964021024997,-199.3832118817502L75.90019599111695,-199.81821463316112L75.71097022518528,-200.21091153703736L75.55627989028129,-200.5448982212192L75.44044196423157,-200.80377031354666L75.36777342486228,-200.9711234418603L75.34259125000005,-201.0305532340003L77.09123434039813,-200.50677101925973L77.11037281809378,-200.4671986409378L77.1476424851852,-200.40431471940784L77.20908707147105,-200.31380237473874L77.30075030675003,-200.1913447270003L77.4286759208206,-200.0326248962619L77.59890764348147,-199.83332600259288L77.81748920453126,-199.58913116606294L78.09046433376857,-199.2957235067412L78.42387676099197,-198.9487861446971L78.82377021600006,-198.5440022000003L79.30107853213553,-198.11921652127228L79.86558903025006,-197.71515189884292L80.52161862290632,-197.33180836534405L81.27348422266675,-196.96918595340784L82.12550274209387,-196.62728469566594L83.0819910937501,-196.30610462475036L84.14726619019802,-196.0056457732931L85.32564494400016,-195.7259081739263L86.62144426771883,-195.4668918592816L88.03898107391677,-195.22859686199098L89.58257227515632,-195.01102321468656L91.2565347840001,-194.81417095000026L92.90100040263668,-194.60321669806513L94.36242776692602,-194.34909299418553L95.65463108843757,-194.06043372875033L96.79142457874086,-193.74587279214842L97.78662244940521,-193.41404407476873L98.65403891200012,-193.07358146700028L99.40748817809504,-192.7331188592318L100.06078445925945,-192.40129014185214L100.62774196706265,-192.08672920525018L101.12217491307423,-191.79806993981504L101.55789750886352,-191.54394623593552L101.94872396600012,-191.3329919840003L102.36545202360081,-191.08232206143663L102.8581581143057,-190.71595841882439L103.40957448996885,-190.2528955562816L104.00243340244452,-189.71212797392624L104.61946710358686,-189.11265017187648L105.24340784524999,-188.47345665025028L105.85698787928816,-187.81354190916585L106.44293945755557,-187.15190044874103L106.98399483190632,-186.50752676909386L107.46288625419449,-185.8994153703429L107.86234597627434,-185.34656075260568L108.16510625000002,-184.8679574160003L108.42800695166086,-184.2710679199585L108.71421942495375,-183.38753433333355L109.0159731228438,-182.27261337187528L109.32549749829636,-180.98156175133352L109.63502200427669,-179.5696361874585L109.93677609375003,-178.09209339600022L110.22298921968172,-176.60419009270862L110.48589083503711,-175.1611829933335L110.71771039278134,-173.81832881362513L110.9106773458797,-172.63088426933362L111.05702114729743,-171.6541060762086L111.14897125000002,-170.94325095000022L111.22710716288778,-170.37945938800826L111.33891548976857,-169.81048760273174L111.48698632596881,-169.24151588271894L111.67390976681484,-168.67772451651868L111.90227590763313,-168.12429379267965L112.17467484374991,-167.58640399975008L112.49369667049193,-167.06923542627908L112.86193148318524,-166.57796836081496L113.28196937715624,-166.11778309190646L113.75640044773145,-165.69385990810198L114.28781479023723,-165.31137909795044L114.87880250000008,-164.9755209500001L115.50015264598036,-164.68988307630113L116.11977633367593,-164.45173159974095L116.7359467132188,-164.25674957512527L117.34693693474078,-164.10062005725942L117.95102014837391,-163.97902610094926L118.54646950424998,-163.8876507610002L119.13155815250116,-163.82217709221788L119.7045592432593,-163.77828814940762L120.26374592665633,-163.75166698737522L120.80739135282413,-163.7379966609262L121.33376867189467,-163.7329602248659L121.84115103400005,-163.7322407340002L122.36177397072338,-163.72245580615765L122.918658927287,-163.6954033585928L123.4962649727813,-163.65453689525026L124.0790511762963,-163.60330992007417L124.65147660692253,-163.54517593700947L125.19800033374995,-163.48358845000016L125.70308142586924,-163.42200096299098L126.15117895237049,-163.3638669799262L126.52675198234381,-163.31264000475022L126.81425958487966,-163.2717735414076L126.99816082906831,-163.24472109384274L127.06291478399997,-163.23493616600018L127.0424813565371,-163.26126934568424L126.98233224212967,-163.3419957019724L126.88419419275004,-163.47970546071892L126.74979396037037,-163.67698884777803L126.58085829696302,-163.93643608900368L126.37911395450011,-164.26063741025015L126.14628768495375,-164.6521830373717L125.88410624029628,-165.11366319622246L125.5942963725001,-165.64766811265645L125.27858483353701,-166.256788012528L124.9386983753796,-166.94361312169113L124.57636375000003,-167.71073366600024L124.23877942657526,-168.5244751267016L123.96853918060185,-169.3511676187779L123.76046272353122,-170.19340127018768L123.6093697668149,-171.05376620888904L123.51008002190393,-171.93485256284058L123.45741320024996,-172.8392504600001L123.44618901330439,-173.76955002832656L123.47122717251854,-174.72834139577807L123.52734738934379,-175.7182146903127L123.60936937523152,-176.74176003988913L123.71211284163314,-177.80156757246547L123.83039750000006,-178.90022741600026L123.95933065798728,-179.94809121094L124.09517079123154,-180.8595397726854L124.23446436315625,-181.64320699162508L124.37375783718524,-182.30772675814833L124.50959767674196,-182.86173296264366L124.63853034524999,-183.31385949550022L124.75710230613315,-183.67274024710676L124.86186002281487,-183.9470091078521L124.94934995871878,-184.14529996812527L125.0161185772685,-184.27624671831506L125.0587123418877,-184.34848324881045L125.07367771600003,-184.37064345000027L124.9499254774456,-184.37582371135554L124.60169244773148,-184.3913645171762L124.06351415578123,-184.4172659000939L123.3699261305186,-184.45352789274108L122.55546390086688,-184.5001505277491L121.65466299575002,-184.55713383775017L120.70205894409143,-184.62447785537648L119.73218727481478,-184.7021826132596L118.77958351684377,-184.79024814403147L117.87878319910186,-184.88867448032428L117.06432185051273,-184.99746165476986L116.370735,-185.11660970000034L115.69110624073845,-185.2750419073417L114.91218767674074,-185.49304767773182L114.05901760318751,-185.75767620821912L113.15663431525927,-186.05597669585214L112.2300761081366,-186.37499833767959L111.30438127700005,-186.70179033075033L110.40458811703013,-187.0234018721126L109.55573492340741,-187.32688215881512L108.78285999131249,-187.5992803879065L108.111001615926,-187.82764575643546L107.56519809242828,-187.99902746145048L107.17048771600003,-188.10047470000026L106.89463495505785,-188.17227898775954L106.6835364372963,-188.2604877455743L106.52942164831254,-188.36078402825032L106.42452007370377,-188.4688508905928L106.36106119906715,-188.5803713874077L106.33127451000006,-188.69102857350032L106.32738949209957,-188.79650550367612L106.34163563096301,-188.89248523274102L106.36624241218749,-188.9746508155003L106.39343932137044,-189.03868530675962L106.42452146600002,-189.09509323400027L106.45430831278823,-189.08530830615766L106.53848853197223,-189.0582558585929L106.66929164178129,-189.01738939525032L106.8389471604445,-188.96616242007437L107.03968460619095,-188.9080284370096L107.26373349725002,-188.84644095000024L107.50332335185078,-188.78485346299112L107.75068368822224,-188.7267194799263L107.99804402459378,-188.6754925047503L108.23763387919446,-188.63462604140764L108.46168277025347,-188.60757359384277L108.66242021600002,-188.59778866600033L108.96733967478704,-188.56828961120743L109.485515677963,-188.48612393599097L110.18154935325003,-188.3607888740941L111.02004182837034,-188.20178165925955L111.9655942310463,-188.01859952523057L112.98280768900004,-187.8207397057502L114.03628332995378,-187.61769943456167L115.09062228162978,-187.41897594540777L116.11042567175002,-187.23406647203157L117.06029462803701,-187.0724682481762L117.90483027821294,-186.94367850758465L118.60863375000002,-186.8571944840003L119.26408761726037,-186.81474534959756L119.9773886219167,-186.8076949569447L120.7338591437813,-186.82999960887523L121.51882156266674,-186.8756156082225L122.31759825838547,-186.93849925781967L123.11551161075002,-187.0126068605003L123.89788399957297,-187.09189471909752L124.65003780466674,-187.17031913644482L125.3572954058438,-187.24183641537525L126.00497918291667,-187.30040285872244L126.57841151569794,-187.33997476931958L127.06291478399997,-187.35450845000028L127.46813239636111,-187.31982913929076L127.81809290138887,-187.22212269632448L128.1197034375,-187.070886354844L128.3798711431111,-186.87561734859287L128.60550315663897,-186.64581291131395L128.80350661650007,-186.39097027675018L128.9807886611112,-186.12058667864488L129.14425642888898,-185.84415935074108L129.30081705825003,-185.5711855267815L129.45737768761117,-185.31116244050958L129.62084545538886,-185.07358732566803L129.7981275,-184.8679574160003L129.95425662628242,-184.6036157583753L130.05253884359257,-184.30732912400035L130.097291097125,-183.9782340716252L130.0928303320741,-183.61546716000032L130.0434734936343,-183.21816494787524L129.95353752699998,-182.78546399400025L129.82733937736572,-182.31650085712522L129.6691959899259,-181.8104120960002L129.48342430987503,-181.26633426937533L129.27434128240745,-180.6834039360002L129.04626385271763,-180.0607576546252L128.803508966,-179.39753198400032L128.5850707135729,-178.69862169403726L128.42361635308333,-177.97121927862986L128.31396553071883,-177.21791493100034L128.25093789266677,-176.4412988443707L128.22935308511464,-175.6439612119631L128.24403075424996,-174.8284922270002L128.2897905462604,-173.997482082704L128.36145210733338,-173.1535209722966L128.45383508365634,-172.2991990890002L128.5617591214167,-171.4371066260373L128.68004386680212,-170.56983377662974L128.803508966,-169.69997073400023L128.9733070046807,-168.85025548054654L129.2294440777779,-168.04111896370387L129.565013046875,-167.2716978727502L129.9731067735556,-166.54112889696324L130.44681811940276,-165.84854872562065L130.97923994600012,-165.1930940480002L131.56346511493052,-164.57390155337984L132.1925864877778,-163.9901079310373L132.85969692612505,-163.44084987025025L133.55788929155557,-162.92526406029654L134.28025644565278,-162.4424871904539L135.01989125,-161.9916559500002L135.74139481056494,-161.5916207527028L136.4197289191852,-161.25720281562064L137.06352746625012,-160.98149503296892L137.6814243421482,-160.75759029896324L138.28205343726864,-160.57858150781848L138.87404864199996,-160.43756155375021L139.46604384673148,-160.32762333097355L140.0666729418519,-160.2418597337039L140.6845698177501,-160.17336365615654L141.32836836481496,-160.11522799254638L142.0067024734352,-160.06054563708926L142.72820603399992,-160.00240948400008L143.5030957439249,-159.96514061095277L144.32719850506487,-159.9736310241205L145.1875635144688,-160.02183705896894L146.07123996918526,-160.10371505096313L146.9652770662628,-160.21322133556845L147.85672400275007,-160.3443122482501L148.73262997569563,-160.49094412447363L149.58004418214816,-160.64707329970378L150.3860158191562,-160.80665610940648L151.13759408376853,-160.96364888904654L151.82182817303354,-161.11200797408932L152.42576728400002,-161.24568970000016L152.94509460200118,-161.35490873647583L153.38930745867592,-161.43563568013903L153.76617627053128,-161.4904607568439L154.08347145407407,-161.5219741924446L154.34896342581135,-161.5327662127953L154.57042260225003,-161.52542704375028L154.75561939989706,-161.50254691116342L154.91232423525935,-161.4667160408891L155.0483075248437,-161.42052465878152L155.17133968515745,-161.3665629906947L155.28919113270715,-161.3074212624828L155.40963228400003,-161.24568970000016L155.5438895993403,-161.15373959729763L155.69627781038884,-161.00739579587977L155.86420678918748,-160.81442884278144L156.04508640777783,-160.5826092850371L156.23632653820135,-160.31970766968195L156.43533705250002,-160.03349454375012L156.6395278227155,-159.7317404542768L156.8463087208891,-159.42221594829653L157.05308961906263,-159.11269157284391L157.25728038927798,-158.81093787495382L157.45629090357656,-158.52472540166113L157.64753103400017,-158.26182470000018L157.81402086246888,-158.02842304769345L157.94338516458356,-157.82437621154637L158.03994085290634,-157.64795747221885L158.1080048400002,-157.49744011037058L158.15189403842723,-157.37109740666097L158.1759253607501,-157.26720264175017L158.18441571953144,-157.18402909629756L158.18168202733358,-157.11985005096315L158.17204119671888,-157.07293878640647L158.15981014025013,-157.04156858328716L158.14484500000017,-157.0185444840002L158.1101656892906,-156.95393443050486L158.0124592463242,-156.7710404963707L157.861222904844,-156.48626702112506L157.6659538985928,-156.11601834429626L157.4361494613138,-155.67669880541212L157.1813068267502,-155.18471274400008L156.91092322864483,-154.65646449958794L156.63449590074094,-154.10835841170362L156.36152207678128,-153.5567988198751L156.10149899050933,-153.01819006362976L155.86392387566784,-152.50893648249547L155.6582939660001,-152.04544241599996L155.47223409693171,-151.65375245234964L155.2887643884537,-151.23270711779617L155.11047500115626,-150.79439387193767L154.93995609562955,-150.35090017437042L154.7797978324641,-149.91431348469226L154.63259037224998,-149.49672126250007L154.5009238755775,-149.11021096739125L154.38738850303713,-148.76687005896298L154.29457441521876,-148.4787859968125L154.2250717727129,-148.25804624053717L154.1814707361099,-148.11673824973386L154.16636146600004,-148.0669494840001L154.33342676424775,-148.14537391222467L154.79836043248142,-148.36280383212969L155.5067691309375,-148.69247419656259L156.4042595198519,-149.10761995837052L157.43643825946083,-149.5814760704006L158.5489120100002,-150.08727748550012L159.68728743170618,-150.59825915651626L160.79717118481506,-151.0876560362963L161.82416992956263,-151.52870307768754L162.71389032618544,-151.89463523353717L163.41193903491921,-152.15868745669215L163.8639227160002,-152.2940947000001L164.16466770066225,-152.36028703297214L164.44641841362989,-152.42993313094448L164.71090160687513,-152.49612585549997L164.95984403237057,-152.55195806822226L165.19497244208816,-152.59052263069432L165.41801358800018,-152.6049124045001L165.6306942220789,-152.58822025122222L165.83474109629648,-152.53353903244448L166.03188096262525,-152.43396160975007L166.22384057303722,-152.28258084472228L166.41234667950476,-152.07248959894446L166.59912603400014,-151.7967807340001L166.68201117288902,-151.37185127892488L166.57840474927792,-150.63523914439816L166.31938869025015,-149.6482447759688L165.93604492288918,-148.47216861918523L165.459455374278,-147.16831111959624L164.9207019715002,-145.79797272275002L164.35086664163904,-144.42245387419564L163.781031311778,-143.10305501948153L163.24227790900028,-141.90107660415634L162.76568836038913,-140.87781907376856L162.38234459302788,-140.09458287386707L162.12332853400017,-139.6126684500001L161.9176986243323,-139.32703057630087L161.6801235094909,-139.0888790997408L161.420100423219,-138.89389707512507L161.1471265992595,-138.73776755725933L160.87069927135548,-138.61617360094905L160.60031567325015,-138.52479826100003L160.3454730386865,-138.45932459221748L160.11566860140766,-138.41543564940736L159.9203995951564,-138.38881448737507L159.76916325367606,-138.3751441609259L159.67145681070963,-138.37010772486576L159.6367775000002,-138.36938823400016L159.69606339614256,-138.31528277868875L159.86240925247236,-138.16447820134266L160.11854732084385,-137.93424218484364L160.4472098531113,-137.64184241207417L160.8311291011286,-137.3045465659156L161.25303731675015,-136.93962232925017L161.69566675182998,-136.56433738495952L162.1417496582224,-136.19595941592593L162.57401828778143,-135.85175610503128L162.97520489236132,-135.54899513515736L163.32804172381614,-135.30494418918636L163.6152610340002,-135.13687095000006L163.87327124597246,-134.9407381761794L164.14595878444467,-134.7282009649352L164.42727995225027,-134.50357629409382L164.7111910522224,-134.27118114148146L164.99164838719474,-134.03533248492477L165.26260826000015,-133.80034730225003L165.51802697347242,-133.57054257128357L165.75186083044466,-133.35023526985196L165.95806613375015,-133.14374237578124L166.13059918622247,-132.95538086689817L166.26341629069455,-132.78946772102887L166.35047375000025,-132.65031991599997L166.44256774870036,-132.5062774879027L166.58991882210208,-132.32683631805565L166.78561979915636,-132.118040103625L167.02276350881502,-131.88593254177778L167.29444278002913,-131.6365573296806L167.59375044175013,-131.3759581644999L167.9137793229296,-131.11017874340283L168.24762225251877,-130.84526276355558L168.58837205946892,-130.5872539221251L168.92912157273167,-130.34219591627772L169.26296362125828,-130.11613244318056L169.58299103400012,-129.91510720000002L169.73135033658934,-129.81884022280556L169.92028860421314,-129.66299932361116L170.13858185115643,-129.460535338L170.37500609170385,-129.22439910155566L170.6183373401403,-128.96754144986124L170.85735161075021,-128.70291321850007L171.08082491781855,-128.44346524305558L171.2775332756299,-128.2021483591111L171.43625269846896,-127.99191340224996L171.5457592006206,-127.82571120805558L171.59482879636943,-127.71649261211108L171.57223750000017,-127.67720844999997L171.61454273840533,-127.54309503065741L171.62058585907425,-127.39171409159263L171.59554718318765,-127.22651913675006L171.54460703192615,-127.05096367007415L171.47294572647013,-126.86850119550928L171.38574358800014,-126.68258521699998L171.28818093769704,-126.49666923849074L171.18543809674102,-126.31420676392602L171.0826953863127,-126.13865129724991L170.98513312759286,-125.97345634240745L170.8979316417618,-125.8220754033426L170.8262712500002,-125.68796198400004L170.7740370028406,-125.49182938965517L170.73993365138912,-125.27929265157402L170.72137106768773,-125.05466864968757L170.71575912377793,-124.82227426392598L170.72050769170164,-124.58642637421997L170.73302664350027,-124.35144186050005L170.75072585121544,-124.12163760269678L170.77101518688917,-123.90133048074073L170.79130452256268,-123.69483737456255L170.80900373027794,-123.50647516409259L170.82152268207656,-123.34056072926158L170.8262712500002,-123.20141095000001L170.8114497773243,-123.02988476161237L170.76986332275942,-122.88598696373163L170.70582883150024,-122.7662640197813L170.6236632487409,-122.66726239318533L170.52768351967606,-122.58552854736695L170.42220658950023,-122.51760894574996L170.3115494034077,-122.46005005175819L170.20002890659282,-122.40939832881486L170.0919620442503,-122.36220024034378L169.99166576157424,-122.31500224976854L169.90345700375929,-122.26435082051277L169.8316527160002,-122.20679241600004L169.72027449446307,-122.1249132438172L169.52083126970396,-122.0076356562037L169.24886394000015,-121.86100328506252L168.91991340362983,-121.69105976229639L168.5495205588706,-121.50384871980798L168.15322630400019,-121.30541378950002L167.74657153729646,-121.10179860327541L167.3450971570372,-120.89904679303713L166.96434406150016,-120.70320199068753L166.61985314896316,-120.52030782812967L166.3271653177038,-120.35640793726628L166.10182146600016,-120.21754594999997L165.85705129021903,-120.11307548144796L165.5112648514168,-120.0448674895834L165.08777359490642,-120.00774162059379L164.60988896600026,-119.99651752066669L164.10092241001064,-120.0060148359896L163.5841853722502,-120.03105321275001L163.08298929803146,-120.06645229713547L162.62064563266688,-120.10703173533338L162.22046582146888,-120.14761117353129L161.9057613097503,-120.18301025791673L161.6998435428231,-120.20804863467714L161.62602396600013,-120.21754594999997L161.58659590245273,-120.21740205400225L161.476369996454,-120.21639478201855L161.307433674969,-120.21366075806259L161.0918743649632,-120.2083366061482L160.84177949340184,-120.1995589502894L160.56923648725018,-120.1864644145L160.28633277347356,-120.16818962279403L160.00515577903712,-120.14387119918521L159.7377929309064,-120.11264576768748L159.49633165604644,-120.07364995231492L159.29285938142263,-120.02602037708103L159.13946353400019,-119.96889366600003L159.0053520943289,-119.89118747231136L158.85397248229648,-119.78239971049078L158.68877833237516,-119.64253034790627L158.51322327903728,-119.47157935192607L158.33076095675472,-119.26954668991779L158.14484500000017,-119.03643232925008L157.95892904324566,-118.77223623729051L157.77646672096324,-118.47695838140748L157.60091166762518,-118.15059872896882L157.43571751770386,-117.79315724734268L157.28433790567144,-117.40463390389701L157.15022646600013,-116.9850286660001L157.04575599744797,-116.46440572927662L156.97754800558351,-115.90752077271301L156.9404221365939,-115.32991472721886L156.9291980366669,-114.74712852370371L156.9386953519897,-114.17470309307754L156.96373372875016,-113.62817936625008L156.99913281313562,-113.12309827413083L157.03971225133355,-112.67500074762972L157.08029168953138,-112.29942771765627L157.11569077391675,-112.01192011512043L157.14072915067723,-111.82801887093167L156.6529125000001,-112.75788345000011L155.90694625000003,-111.01729866600006L155.6582939660001,-112.26056948400002L155.16098000000008,-111.26595095L154.41501374999999,-112.01191720000014L154.16636146600004,-110.76863698400004L153.6690475,-112.01191720000014L153.17173353399997,-111.01729866600006L152.67442896599994,-112.50923116600008L152.17711499999996,-111.01729866600006L151.67980103399998,-112.50923116600008L151.182496466,-111.76326491600005L150.93383478400003,-113.00653573400002L150.43653021600005,-112.50923116600008L149.93921625000004,-113.75250198400002L149.441902284,-112.50923116600008L148.94459771599992,-112.75788345000011L148.69593603400003,-113.25519741600004L148.44728374999997,-114.00116366600004L148.198631466,-112.75788345000011L147.45266521600013,-113.00653573400002L147.5000068143241,-112.4565596181528L147.52058343075925,-111.81851758538886L147.51871201050008,-111.11831130687509L147.49870949874085,-110.38184245377778L147.46489284067604,-109.63501269726396L147.4215789815,-108.90372370849998L147.37308486640742,-108.21387715865286L147.32372744059273,-107.59137471888891L147.27782364925002,-107.06211806037501L147.2396904375742,-106.65200885427782L147.21364475075922,-106.38694877176388L147.20400353399995,-106.29283948400007L146.70669896599998,-107.784771984L146.70669896599998,-105.29822095000006L145.96073271600005,-106.54150116600002L145.96073271600005,-104.55225469999996L144.966104784,-105.54687323400005L144.9905674734351,-104.85501400020605L145.05819961481475,-103.82470687664829L145.16036731774997,-102.53192992906264L145.28843669185184,-101.05266122318531L145.4337738467316,-99.46287882475247L145.58774489199996,-97.83856079950014L145.74171593726857,-96.25568521316451L145.88705309214825,-94.79023013148165L146.01512246625006,-93.51817362018762L146.11729016918517,-92.51549374501862L146.1849223105648,-91.8581685717108L146.20938500000008,-91.62217616600016L146.12779559948387,-91.80003254371081L146.01253388287034,-92.07113515951866L145.87137036456247,-92.4147626634376L145.71207555896297,-92.81019370548161L145.54241998047453,-93.23670693566449L145.37017414349998,-93.67358100400016L145.20310856244222,-94.10009456050244L145.04899375170373,-94.49552625518535L144.91560022568748,-94.83915473806259L144.81069849879637,-95.11025865914836L144.74205908543289,-95.28811666845618L145.19030377656483,-91.03938871703252L145.12267163518527,-91.26991215025934L145.02050393225002,-91.55223918687513L144.8924345581482,-91.8708287980742L144.74709740326853,-92.21013995505105L144.5931263580001,-92.55463162900011L144.43915531273151,-92.88876279111594L144.29381815785197,-93.19699241259275L144.16574878375002,-93.46377946462509L144.16574878375002,-92.60185958273242L144.22014323299996,-92.15056696850014L144.28173188388192,-91.64476671727326L144.33986696555561,-91.17091170385206L144.3910949088125,-90.75576691012516L144.43196214444447,-90.42609731798166L144.45901510324305,-90.20866790931032"/>
  <path fill="none" stroke="#000000" stroke-width="1%" d="M157.14072915067723,-111.82801887093167L157.15022646600013,-111.76326491600005"/>
  <path fill="none" stroke="#000000" stroke-width="1%" d="M117.8979224055776,-74.92743377729286L117.86266750000007,-74.96225698400002"/>
  <path fill="none" stroke="#000000" stroke-width="1%" d="M140.4953438288333,-94.27348718190056L140.49030728399995,-94.35737948400013"/>
</svg>