 0
SECTION
 2
ENTITIES
  0
LINE
 8
Layer0
10
144.2054609573218
20
89.17518769354527
30
0.0
11
144.22013853400006
21
89.13561573400018
31
0.0
  0
LINE
 8
Layer0
10
144.74205908543289
20
95.28811666845618
30
0.0
11
144.71745250000012
21
95.35200741600013
31
0.0
  0
LINE
 8
Layer0
10
141.24620254275467
20
91.83111259445734
30
0.0
11
141.23627353400013
21
91.87082845000016
31
0.0
  0
LINE
 8
Layer0
10
108.16510625000002
20
65.01604345000003
30
0.0
11
108.15028477732413
21
65.0501471712801
31
0.0
  0
LINE
 8
Layer0
10
145.21476646600013
20
90.87620991600012
30
0.0
11
145.19030377656483
21
91.03938871703252
31
0.0
  0
POLYLINE
 8
Layer0
 66
     1
70
    8
 10
0.0
 20
 0.0
 30
0.0
  0
VERTEX
  8
MY3DLAYER
10
144.45901510324305
20
90.20866790931032
30
0.0
 70
     32
  0
VERTEX
  8
MY3DLAYER
10
144.46880021599995
20
90.13024366600013
30
0.0
 70
     32
  0
VERTEX
  8
MY3DLAYER
10
143.47417228400008
20
91.87082845000016
30
0.0
 70
     32
  0
VERTEX
  8
MY3DLAYER
10
143.48884986067816
20
91.66030589149665
30
0.0
 70
     32
  0
VERTEX
  8
MY3DLAYER
10
143.52942904325923
20
91.40920404163903
30
0.0
 70
     32
  0
VERTEX
  8
MY3DLAYER
10
143.59072951056254
20
91.12874695140633
30
0.0
 70
     32
  0
VERTEX
  8
MY3DLAYER
10
143.6675709414074
20
90.83015867177795
30
0.0
 70
     32
  0
VERTEX
  8
MY3DLAYER
10
143.75477301461348
20
90.52466325373281
30
0.0
 70
     32
  0
VERTEX
  8
MY3DLAYER
10
143.8471554090001
20
90.22348474825009
30
0.0
 70
     32
  0
VERTEX
  8
MY3DLAYER
10
143.93953780338668
20
89.93784720630913
30
0.0
 70
     32
  0
VERTEX
  8
MY3DLAYER
10
144.02673987659267
20
89.67897467888899
30
0.0
 70
     32
  0
VERTEX
  8
MY3DLAYER
10
144.1035813074375
20
89.4580912169689
30
0.0
 70
     32
  0
VERTEX
  8
MY3DLAYER
10
144.1648817747407
20
89.28642087152797
30
0.0
 70
     32
  0
VERTEX
  8
MY3DLAYER
10
144.2054609573218
20
89.17518769354527
30
0.0
 70
     32
  0
VERTEX
  8
MY3DLAYER
10
144.03897131376735
20
89.28411893258695
30
0.0
 70
     32
  0
VERTEX
  8
MY3DLAYER
10
143.86902834030562
20
89.47406447219464
30
0.0
 70
     32
  0
VERTEX
  8
MY3DLAYER
10
143.7111729569687
20
89.69509174309391
30
0.0
 70
     32
  0
VERTEX
  8
MY3DLAYER
10
143.5662685071112
20
89.93684013555573
30
0.0
 70
     32
  0
VERTEX
  8
MY3DLAYER
10
143.43517833408688
20
90.18894903985081
30
0.0
 70
     32
  0
VERTEX
  8
MY3DLAYER
10
143.31876578124997
20
90.44105784625016
30
0.0
 70
     32
  0
VERTEX
  8
MY3DLAYER
10
143.21789419195488
20
90.6828059450244
30
0.0
 70
     32
  0
VERTEX
  8
MY3DLAYER
10
143.13342690955562
20
90.90383272644459
30
0.0
 70
     32
  0
VERTEX
  8
MY3DLAYER
10
143.06622727740626
20
91.09377758078139
30
0.0
 70
     32
  0
VERTEX
  8
MY3DLAYER
10
143.03338391910088
20
91.05863395423152
30
0.0
 70
     32
  0
VERTEX
  8
MY3DLAYER
10
143.47417228400008
20
88.38964948400013
30
0.0
 70
     32
  0
VERTEX
  8
MY3DLAYER
10
141.982239784
20
91.37351448400018
30
0.0
 70
     32
  0
VERTEX
  8
MY3DLAYER
10
141.982239784
20
88.88696345000012
30
0.0
 70
     32
  0
VERTEX
  8
MY3DLAYER
10
141.91532796016207
20
89.15461271958462
30
0.0
 70
     32
  0
VERTEX
  8
MY3DLAYER
10
141.84064542612964
20
89.45334414467608
30
0.0
 70
     32
  0
VERTEX
  8
MY3DLAYER
10
141.76078237512496
20
89.77279705028137
30
0.0
 70
     32
  0
VERTEX
  8
MY3DLAYER
10
141.6783290003704
20
90.1026107614076
30
0.0
 70
     32
  0
VERTEX
  8
MY3DLAYER
10
141.59587549508808
20
90.43242460306146
30
0.0
 70
     32
  0
VERTEX
  8
MY3DLAYER
10
141.51601205250012
20
90.75187790025014
30
0.0
 70
     32
  0
VERTEX
  8
MY3DLAYER
10
141.4413288658287
20
91.05060997798051
30
0.0
 70
     32
  0
VERTEX
  8
MY3DLAYER
10
141.37441612829628
20
91.31826016125943
30
0.0
 70
     32
  0
VERTEX
  8
MY3DLAYER
10
141.31786403312495
20
91.54446777509386
30
0.0
 70
     32
  0
VERTEX
  8
MY3DLAYER
10
141.2742627735371
20
91.7188721444909
30
0.0
 70
     32
  0
VERTEX
  8
MY3DLAYER
10
141.24620254275467
20
91.83111259445734
30
0.0
 70
     32
  0
VERTEX
  8
MY3DLAYER
10
140.98762124999996
20
88.88696345000012
30
0.0
 70
     32
  0
VERTEX
  8
MY3DLAYER
10
140.92560189008344
20
89.25577413493298
30
0.0
 70
     32
  0
VERTEX
  8
MY3DLAYER
10
140.8644455798334
20
89.72387397196314
30
0.0
 70
     32
  0
VERTEX
  8
MY3DLAYER
10
140.80501576050005
20
90.26622479643765
30
0.0
 70
     32
  0
VERTEX
  8
MY3DLAYER
10
140.74817587333337
20
90.85778844370384
30
0.0
 70
     32
  0
VERTEX
  8
MY3DLAYER
10
140.69478935958338
20
91.47352674910896
30
0.0
 70
     32
  0
VERTEX
  8
MY3DLAYER
10
140.6457196605
20
92.08840154800016
30
0.0
 70
     32
  0
VERTEX
  8
MY3DLAYER
10
140.6018302173334
20
92.67737467572472
30
0.0
 70
     32
  0
VERTEX
  8
MY3DLAYER
10
140.56398447133336
20
93.21540796762982
30
0.0
 70
     32
  0
VERTEX
  8
MY3DLAYER
10
140.53304586375012
20
93.67746325906266
30
0.0
 70
     32
  0
VERTEX
  8
MY3DLAYER
10
140.50987783583338
20
94.03850238537053
30
0.0
 70
     32
  0
VERTEX
  8
MY3DLAYER
10
140.4953438288333
20
94.27348718190056
30
0.0
 70
     32
  0
VERTEX
  8
MY3DLAYER
10
140.4609521306436
20
93.82380640240294
30
0.0
 70
     32
  0
VERTEX
  8
MY3DLAYER
10
140.37979376548154
20
93.0104959770557
30
0.0
 70
     32
  0
VERTEX
  8
MY3DLAYER
10
140.25719283087503
20
91.97961206212516
30
0.0
 70
     32
  0
VERTEX
  8
MY3DLAYER
10
140.10350996918515
20
90.79331851177788
30
0.0
 70
     32
  0
VERTEX
  8
MY3DLAYER
10
139.92910582277327
20
89.51377918018069
30
0.0
 70
     32
  0
VERTEX
  8
MY3DLAYER
10
139.74434103400006
20
88.20315792150011
30
0.0
 70
     32
  0
VERTEX
  8
MY3DLAYER
10
139.55957624522682
20
86.92361858990296
30
0.0
 70
     32
  0
VERTEX
  8
MY3DLAYER
10
139.38517209881493
20
85.7373250395557
30
0.0
 70
     32
  0
VERTEX
  8
MY3DLAYER
10
139.2314892371251
20
84.70644112462517
30
0.0
 70
     32
  0
VERTEX
  8
MY3DLAYER
10
139.10888830251852
20
83.89313069927788
30
0.0
 70
     32
  0
VERTEX
  8
MY3DLAYER
10
139.02772993735647
20
83.35955761768068
30
0.0
 70
     32
  0
VERTEX
  8
MY3DLAYER
10
138.99837478400008
20
83.16788573400012
30
0.0
 70
     32
  0
VERTEX
  8
MY3DLAYER
10
138.5010702160001
20
85.65444616600016
30
0.0
 70
     32
  0
VERTEX
  8
MY3DLAYER
10
137.755103966
20
82.67058116600012
30
0.0
 70
     32
  0
VERTEX
  8
MY3DLAYER
10
137.25779000000006
20
84.41116595000017
30
0.0
 70
     32
  0
VERTEX
  8
MY3DLAYER
10
136.76047603400008
20
81.4273009500001
30
0.0
 70
     32
  0
VERTEX
  8
MY3DLAYER
10
136.26317146600013
20
82.91923345000014
30
0.0
 70
     32
  0
VERTEX
  8
MY3DLAYER
10
135.7658575000001
20
79.4380544840001
30
0.0
 70
     32
  0
VERTEX
  8
MY3DLAYER
10
135.26854353400006
20
81.92461491600011
30
0.0
 70
     32
  0
VERTEX
  8
MY3DLAYER
10
135.01989125
20
78.194783666
30
0.0
 70
     32
  0
VERTEX
  8
MY3DLAYER
10
134.27392500000005
20
81.17864866600016
30
0.0
 70
     32
  0
VERTEX
  8
MY3DLAYER
10
135.01989125
20
76.95150344999995
30
0.0
 70
     32
  0
VERTEX
  8
MY3DLAYER
10
133.77661103399998
20
78.6920882340001
30
0.0
 70
     32
  0
VERTEX
  8
MY3DLAYER
10
133.77661103399998
20
76.45418948400001
30
0.0
 70
     32
  0
VERTEX
  8
MY3DLAYER
10
133.03064478400003
20
77.6974697
30
0.0
 70
     32
  0
VERTEX
  8
MY3DLAYER
10
132.7819925
20
75.45957095000001
30
0.0
 70
     32
  0
VERTEX
  8
MY3DLAYER
10
132.03602624999994
20
77.20015573399999
30
0.0
 70
     32
  0
VERTEX
  8
MY3DLAYER
10
132.28467853400008
20
74.71360469999998
30
0.0
 70
     32
  0
VERTEX
  8
MY3DLAYER
10
131.53871228399996
20
76.20553720000002
30
0.0
 70
     32
  0
VERTEX
  8
MY3DLAYER
10
131.29006000000007
20
74.21629073400003
30
0.0
 70
     32
  0
VERTEX
  8
MY3DLAYER
10
130.54409375000003
20
75.95688491599999
30
0.0
 70
     32
  0
VERTEX
  8
MY3DLAYER
10
130.295441466
20
73.470324484
30
0.0
 70
     32
  0
VERTEX
  8
MY3DLAYER
10
129.54947521600005
20
74.96225698400002
30
0.0
 70
     32
  0
VERTEX
  8
MY3DLAYER
10
129.54947521600005
20
72.72435823400002
30
0.0
 70
     32
  0
VERTEX
  8
MY3DLAYER
10
128.55484728400003
20
74.464952416
30
0.0
 70
     32
  0
VERTEX
  8
MY3DLAYER
10
128.30619500000003
20
73.22167220000003
30
0.0
 70
     32
  0
VERTEX
  8
MY3DLAYER
10
127.8088810340001
20
74.71360469999998
30
0.0
 70
     32
  0
VERTEX
  8
MY3DLAYER
10
127.8088810340001
20
72.47570594999998
30
0.0
 70
     32
  0
VERTEX
  8
MY3DLAYER
10
126.8142625000001
20
73.470324484
30
0.0
 70
     32
  0
VERTEX
  8
MY3DLAYER
10
127.31157646600013
20
71.48108741600001
30
0.0
 70
     32
  0
VERTEX
  8
MY3DLAYER
10
125.81964396600003
20
72.97301991600001
30
0.0
 70
     32
  0
VERTEX
  8
MY3DLAYER
10
126.31694853400002
20
71.232425734
30
0.0
 70
     32
  0
VERTEX
  8
MY3DLAYER
10
124.825016034
20
72.47570594999998
30
0.0
 70
     32
  0
VERTEX
  8
MY3DLAYER
10
125.32233000000005
20
70.73512116600001
30
0.0
 70
     32
  0
VERTEX
  8
MY3DLAYER
10
125.18361191417016
20
70.82160303043756
30
0.0
 70
     32
  0
VERTEX
  8
MY3DLAYER
10
125.02071933336113
20
70.95039097083337
30
0.0
 70
     32
  0
VERTEX
  8
MY3DLAYER
10
124.84055929809372
20
71.11198772081251
30
0.0
 70
     32
  0
VERTEX
  8
MY3DLAYER
10
124.65003884888895
20
71.29689601400005
30
0.0
 70
     32
  0
VERTEX
  8
MY3DLAYER
10
124.45606502626735
20
71.49561858402085
30
0.0
 70
     32
  0
VERTEX
  8
MY3DLAYER
10
124.26554487075005
20
71.69865816450002
30
0.0
 70
     32
  0
VERTEX
  8
MY3DLAYER
10
124.08538542285766
20
71.89651748906255
30
0.0
 70
     32
  0
VERTEX
  8
MY3DLAYER
10
123.92249372311112
20
72.07969929133338
30
0.0
 70
     32
  0
VERTEX
  8
MY3DLAYER
10
123.78377681203125
20
72.2387063049375
30
0.0
 70
     32
  0
VERTEX
  8
MY3DLAYER
10
123.67614173013894
20
72.36404126350001
30
0.0
 70
     32
  0
VERTEX
  8
MY3DLAYER
10
123.60649551795491
20
72.44620690064586
30
0.0
 70
     32
  0
VERTEX
  8
MY3DLAYER
10
123.581745216
20
72.47570594999998
30
0.0
 70
     32
  0
VERTEX
  8
MY3DLAYER
10
123.08443125
20
71.72973970000002
30
0.0
 70
     32
  0
VERTEX
  8
MY3DLAYER
10
122.58711728400006
20
72.97301991600001
30
0.0
 70
     32
  0
VERTEX
  8
MY3DLAYER
10
122.33846500000007
20
71.97839198400003
30
0.0
 70
     32
  0
VERTEX
  8
MY3DLAYER
10
121.34384646600003
20
72.97301991600001
30
0.0
 70
     32
  0
VERTEX
  8
MY3DLAYER
10
121.34384646600003
20
72.22705366599997
30
0.0
 70
     32
  0
VERTEX
  8
MY3DLAYER
10
120.90970539371418
20
72.48981028674885
30
0.0
 70
     32
  0
VERTEX
  8
MY3DLAYER
10
120.48160837754632
20
72.77501497682407
30
0.0
 70
     32
  0
VERTEX
  8
MY3DLAYER
10
120.06559908203131
20
73.07403387846877
30
0.0
 70
     32
  0
VERTEX
  8
MY3DLAYER
10
119.66772117170372
20
73.37823313392596
30
0.0
 70
     32
  0
VERTEX
  8
MY3DLAYER
10
119.29401831109844
20
73.67897888543865
30
0.0
 70
     32
  0
VERTEX
  8
MY3DLAYER
10
118.95053416475001
20
73.96763727525001
30
0.0
 70
     32
  0
VERTEX
  8
MY3DLAYER
10
118.64331239719328
20
74.23557444560305
30
0.0
 70
     32
  0
VERTEX
  8
MY3DLAYER
10
118.37839667296299
20
74.47415653874076
30
0.0
 70
     32
  0
VERTEX
  8
MY3DLAYER
10
118.16183065659372
20
74.67474969690625
30
0.0
 70
     32
  0
VERTEX
  8
MY3DLAYER
10
117.99965801262044
20
74.82872006234263
30
0.0
 70
     32
  0
VERTEX
  8
MY3DLAYER
10
117.8979224055776
20
74.92743377729286
30
0.0
 70
     32
  0
VERTEX
  8
MY3DLAYER
10
118.8572860340001
20
71.72973970000002
30
0.0
 70
     32
  0
VERTEX
  8
MY3DLAYER
10
117.61401521599997
20
71.97839198400003
30
0.0
 70
     32
  0
VERTEX
  8
MY3DLAYER
10
118.60863375000002
20
70.48645948400005
30
0.0
 70
     32
  0
VERTEX
  8
MY3DLAYER
10
116.86804896600002
20
70.98377345000002
30
0.0
 70
     32
  0
VERTEX
  8
MY3DLAYER
10
117.36535353400004
20
68.49722241600003
30
0.0
 70
     32
  0
VERTEX
  8
MY3DLAYER
10
115.62476875000003
20
69.49184095
30
0.0
 70
     32
  0
VERTEX
  8
MY3DLAYER
10
115.37611646600004
20
68.74587470000004
30
0.0
 70
     32
  0
VERTEX
  8
MY3DLAYER
10
116.12208271600004
20
67.50259448400007
30
0.0
 70
     32
  0
VERTEX
  8
MY3DLAYER
10
114.87880250000008
20
68.24856073400005
30
0.0
 70
     32
  0
VERTEX
  8
MY3DLAYER
10
115.37611646600004
20
66.50797595000003
30
0.0
 70
     32
  0
VERTEX
  8
MY3DLAYER
10
114.13283625
20
67.50259448400007
30
0.0
 70
     32
  0
VERTEX
  8
MY3DLAYER
10
114.63015021600002
20
65.01604345000003
30
0.0
 70
     32
  0
VERTEX
  8
MY3DLAYER
10
113.38687000000004
20
66.75662823400002
30
0.0
 70
     32
  0
VERTEX
  8
MY3DLAYER
10
113.635522284
20
64.27007720000003
30
0.0
 70
     32
  0
VERTEX
  8
MY3DLAYER
10
112.39225146600006
20
66.25932366600001
30
0.0
 70
     32
  0
VERTEX
  8
MY3DLAYER
10
112.64090375000004
20
63.77276323400003
30
0.0
 70
     32
  0
VERTEX
  8
MY3DLAYER
10
112.55442188556252
20
63.97839332858219
30
0.0
 70
     32
  0
VERTEX
  8
MY3DLAYER
10
112.42563394516675
20
64.21596895465741
30
0.0
 70
     32
  0
VERTEX
  8
MY3DLAYER
10
112.26403719518757
20
64.47599281321878
30
0.0
 70
     32
  0
VERTEX
  8
MY3DLAYER
10
112.07912890199997
20
64.74896760525928
30
0.0
 70
     32
  0
VERTEX
  8
MY3DLAYER
10
111.88040633197923
20
65.02539603177202
30
0.0
 70
     32
  0
VERTEX
  8
MY3DLAYER
10
111.67736675150007
20
65.29578079375004
30
0.0
 70
     32
  0
VERTEX
  8
MY3DLAYER
10
111.47950742693743
20
65.55062459218637
30
0.0
 70
     32
  0
VERTEX
  8
MY3DLAYER
10
111.29632562466675
20
65.7804301280741
30
0.0
 70
     32
  0
VERTEX
  8
MY3DLAYER
10
111.13731861106248
20
65.9757001024063
30
0.0
 70
     32
  0
VERTEX
  8
MY3DLAYER
10
111.01198365250008
20
66.12693721617593
30
0.0
 70
     32
  0
VERTEX
  8
MY3DLAYER
10
110.92981801535423
20
66.22464417037617
30
0.0
 70
     32
  0
VERTEX
  8
MY3DLAYER
10
110.90031896600006
20
66.25932366600001
30
0.0
 70
     32
  0
VERTEX
  8
MY3DLAYER
10
110.40300500000004
20
63.27545866599999
30
0.0
 70
     32
  0
VERTEX
  8
MY3DLAYER
10
109.65703875
20
66.25932366600001
30
0.0
 70
     32
  0
VERTEX
  8
MY3DLAYER
10
109.40838646600002
20
64.27007720000003
30
0.0
 70
     32
  0
VERTEX
  8
MY3DLAYER
10
108.41375853400004
20
66.25932366600001
30
0.0
 70
     32
  0
VERTEX
  8
MY3DLAYER
10
108.15028477732413
20
65.0501471712801
30
0.0
 70
     32
  0
VERTEX
  8
MY3DLAYER
10
108.10869832275925
20
65.14382448824075
30
0.0
 70
     32
  0
VERTEX
  8
MY3DLAYER
10
108.04466383150005
20
65.2841246305625
30
0.0
 70
     32
  0
VERTEX
  8
MY3DLAYER
10
107.96249824874073
20
65.45809682792591
30
0.0
 70
     32
  0
VERTEX
  8
MY3DLAYER
10
107.86651851967596
20
65.6527903100116
30
0.0
 70
     32
  0
VERTEX
  8
MY3DLAYER
10
107.76104158950002
20
65.85525430650006
30
0.0
 70
     32
  0
VERTEX
  8
MY3DLAYER
10
107.65038440340737
20
66.05253804707179
30
0.0
 70
     32
  0
VERTEX
  8
MY3DLAYER
10
107.5388639065927
20
66.23169076140742
30
0.0
 70
     32
  0
VERTEX
  8
MY3DLAYER
10
107.43079704425004
20
66.3797616791875
30
0.0
 70
     32
  0
VERTEX
  8
MY3DLAYER
10
107.33050076157414
20
66.4838000300926
30
0.0
 70
     32
  0
VERTEX
  8
MY3DLAYER
10
107.24229200375923
20
66.53085504380324
30
0.0
 70
     32
  0
VERTEX
  8
MY3DLAYER
10
107.17048771600003
20
66.50797595000003
30
0.0
 70
     32
  0
VERTEX
  8
MY3DLAYER
10
107.07421876457296
20
66.42149408556253
30
0.0
 70
     32
  0
VERTEX
  8
MY3DLAYER
10
106.91837657641669
20
66.29270614516669
30
0.0
 70
     32
  0
VERTEX
  8
MY3DLAYER
10
106.71591188921882
20
66.13110939518752
30
0.0
 70
     32
  0
VERTEX
  8
MY3DLAYER
10
106.47977544066673
20
65.94620110200005
30
0.0
 70
     32
  0
VERTEX
  8
MY3DLAYER
10
106.22291796844789
20
65.74747853197916
30
0.0
 70
     32
  0
VERTEX
  8
MY3DLAYER
10
105.95829021025008
20
65.54443895149998
30
0.0
 70
     32
  0
VERTEX
  8
MY3DLAYER
10
105.69884290376051
20
65.34657962693751
30
0.0
 70
     32
  0
VERTEX
  8
MY3DLAYER
10
105.45752678666672
20
65.16339782466673
30
0.0
 70
     32
  0
VERTEX
  8
MY3DLAYER
10
105.24729259665624
20
65.00439081106249
30
0.0
 70
     32
  0
VERTEX
  8
MY3DLAYER
10
105.08109107141676
20
64.87905585250003
30
0.0
 70
     32
  0
VERTEX
  8
MY3DLAYER
10
104.97187294863541
20
64.79689021535418
30
0.0
 70
     32
  0
VERTEX
  8
MY3DLAYER
10
104.93258896600003
20
64.76739116599998
30
0.0
 70
     32
  0
VERTEX
  8
MY3DLAYER
10
104.93258896600003
20
64.69760066623498
30
0.0
 70
     32
  0
VERTEX
  8
MY3DLAYER
10
104.93258896600003
20
64.4991654150463
30
0.0
 70
     32
  0
VERTEX
  8
MY3DLAYER
10
104.93258896600003
20
64.18848978459377
30
0.0
 70
     32
  0
VERTEX
  8
MY3DLAYER
10
104.93258896600007
20
63.781978147037066
30
0.0
 70
     32
  0
VERTEX
  8
MY3DLAYER
10
104.93258896600003
20
63.296034874535906
30
0.0
 70
     32
  0
VERTEX
  8
MY3DLAYER
10
104.93258896600003
20
62.747064339250024
30
0.0
 70
     32
  0
VERTEX
  8
MY3DLAYER
10
104.93258896600003
20
62.151470913339125
30
0.0
 70
     32
  0
VERTEX
  8
MY3DLAYER
10
104.93258896600007
20
61.525658968962965
30
0.0
 70
     32
  0
VERTEX
  8
MY3DLAYER
10
104.93258896600007
20
60.88603287828127
30
0.0
 70
     32
  0
VERTEX
  8
MY3DLAYER
10
104.93258896600003
20
60.24899701345369
30
0.0
 70
     32
  0
VERTEX
  8
MY3DLAYER
10
104.93258896600003
20
59.630955746640026
30
0.0
 70
     32
  0
VERTEX
  8
MY3DLAYER
10
104.93258896600003
20
59.048313449999995
30
0.0
 70
     32
  0
VERTEX
  8
MY3DLAYER
10
104.92280385324312
20
58.445093829899314
30
0.0
 70
     32
  0
VERTEX
  8
MY3DLAYER
10
104.89575089444443
20
57.76589617669446
30
0.0
 70
     32
  0
VERTEX
  8
MY3DLAYER
10
104.85488365881253
20
57.0279882385313
30
0.0
 70
     32
  0
VERTEX
  8
MY3DLAYER
10
104.80365571555555
20
56.24863776355557
30
0.0
 70
     32
  0
VERTEX
  8
MY3DLAYER
10
104.745520633882
20
55.445112499913186
30
0.0
 70
     32
  0
VERTEX
  8
MY3DLAYER
10
104.68393198300005
20
54.63468019574999
30
0.0
 70
     32
  0
VERTEX
  8
MY3DLAYER
10
104.62234333211815
20
53.83460859921181
30
0.0
 70
     32
  0
VERTEX
  8
MY3DLAYER
10
104.5642082504445
20
53.0621654584445
30
0.0
 70
     32
  0
VERTEX
  8
MY3DLAYER
10
104.51298030718752
20
52.33461852159377
30
0.0
 70
     32
  0
VERTEX
  8
MY3DLAYER
10
104.47211307155557
20
51.669235536805616
30
0.0
 70
     32
  0
VERTEX
  8
MY3DLAYER
10
104.44506011275693
20
51.083284252225745
30
0.0
 70
     32
  0
VERTEX
  8
MY3DLAYER
10
104.43527500000009
20
50.59403241600008
30
0.0
 70
     32
  0
VERTEX
  8
MY3DLAYER
10
104.44002356792367
20
50.07110639277896
30
0.0
 70
     32
  0
VERTEX
  8
MY3DLAYER
10
104.45254251972223
20
49.39449784506487
30
0.0
 70
     32
  0
VERTEX
  8
MY3DLAYER
10
104.47024172743754
20
48.5970154192813
30
0.0
 70
     32
  0
VERTEX
  8
MY3DLAYER
10
104.49053106311115
20
47.711467761851914
30
0.0
 70
     32
  0
VERTEX
  8
MY3DLAYER
10
104.51082039878476
20
46.77066351920026
30
0.0
 70
     32
  0
VERTEX
  8
MY3DLAYER
10
104.5285196065
20
45.80741133775002
30
0.0
 70
     32
  0
VERTEX
  8
MY3DLAYER
10
104.54103855829868
20
44.85451986392483
30
0.0
 70
     32
  0
VERTEX
  8
MY3DLAYER
10
104.54578712622231
20
43.94479774414818
30
0.0
 70
     32
  0
VERTEX
  8
MY3DLAYER
10
104.54017518231258
20
43.111053624843805
30
0.0
 70
     32
  0
VERTEX
  8
MY3DLAYER
10
104.52161259861117
20
42.38609615243523
30
0.0
 70
     32
  0
VERTEX
  8
MY3DLAYER
10
104.48750924715972
20
41.80273397334612
30
0.0
 70
     32
  0
VERTEX
  8
MY3DLAYER
10
104.43527500000009
20
41.393775734000045
30
0.0
 70
     32
  0
VERTEX
  8
MY3DLAYER
10
104.36361460823854
20
40.94006725342483
30
0.0
 70
     32
  0
VERTEX
  8
MY3DLAYER
10
104.27641312240748
20
40.22993241756484
30
0.0
 70
     32
  0
VERTEX
  8
MY3DLAYER
10
104.17885086368764
20
39.3074040217188
30
0.0
 70
     32
  0
VERTEX
  8
MY3DLAYER
10
104.07610815325937
20
38.21651486118521
30
0.0
 70
     32
  0
VERTEX
  8
MY3DLAYER
10
103.97336531230337
20
37.001297731262746
30
0.0
 70
     32
  0
VERTEX
  8
MY3DLAYER
10
103.87580266200005
20
35.70578542725
30
0.0
 70
     32
  0
VERTEX
  8
MY3DLAYER
10
103.78860052353025
20
34.37401074444562
30
0.0
 70
     32
  0
VERTEX
  8
MY3DLAYER
10
103.71693921807419
20
33.05000647814816
30
0.0
 70
     32
  0
VERTEX
  8
MY3DLAYER
10
103.66599906681257
20
31.777805423656265
30
0.0
 70
     32
  0
VERTEX
  8
MY3DLAYER
10
103.64096039092608
20
30.601440376268517
30
0.0
 70
     32
  0
VERTEX
  8
MY3DLAYER
10
103.64700351159497
20
29.564944131283564
30
0.0
 70
     32
  0
VERTEX
  8
MY3DLAYER
10
103.68930875000012
20
28.712349484000015
30
0.0
 70
     32
  0
VERTEX
  8
MY3DLAYER
10
103.80054110130682
20
27.750250102128483
30
0.0
 70
     32
  0
VERTEX
  8
MY3DLAYER
10
103.99897576512046
20
26.299473418361107
30
0.0
 70
     32
  0
VERTEX
  8
MY3DLAYER
10
104.26820836928137
20
24.46189913696879
30
0.0
 70
     32
  0
VERTEX
  8
MY3DLAYER
10
104.5918345416296
20
22.33940696222225
30
0.0
 70
     32
  0
VERTEX
  8
MY3DLAYER
10
104.95344991000582
20
20.03387659839238
30
0.0
 70
     32
  0
VERTEX
  8
MY3DLAYER
10
105.33665010224996
20
17.647187749750014
30
0.0
 70
     32
  0
VERTEX
  8
MY3DLAYER
10
105.72503074620258
20
15.281220120565978
30
0.0
 70
     32
  0
VERTEX
  8
MY3DLAYER
10
106.10218746970378
20
13.037853415111114
30
0.0
 70
     32
  0
VERTEX
  8
MY3DLAYER
10
106.4517159005938
20
11.018967337656257
30
0.0
 70
     32
  0
VERTEX
  8
MY3DLAYER
10
106.75721166671302
20
9.326441592472218
30
0.0
 70
     32
  0
VERTEX
  8
MY3DLAYER
10
107.00227039590165
20
8.062155883829854
30
0.0
 70
     32
  0
VERTEX
  8
MY3DLAYER
10
107.17048771600003
20
7.327989916000001
30
0.0
 70
     32
  0
VERTEX
  8
MY3DLAYER
10
107.32388140427553
20
6.854708577600699
30
0.0
 70
     32
  0
VERTEX
  8
MY3DLAYER
10
107.5273518787037
20
6.318400237472227
30
0.0
 70
     32
  0
VERTEX
  8
MY3DLAYER
10
107.76881167968757
20
5.738922771718756
30
0.0
 70
     32
  0
VERTEX
  8
MY3DLAYER
10
108.03617334762961
20
5.136134056444452
30
0.0
 70
     32
  0
VERTEX
  8
MY3DLAYER
10
108.31734942293293
20
4.529891967753471
30
0.0
 70
     32
  0
VERTEX
  8
MY3DLAYER
10
108.60025244600007
20
3.9400543817500013
30
0.0
 70
     32
  0
VERTEX
  8
MY3DLAYER
10
108.87279495723378
20
3.3864791745381937
30
0.0
 70
     32
  0
VERTEX
  8
MY3DLAYER
10
109.12288949703712
20
2.8890242222222224
30
0.0
 70
     32
  0
VERTEX
  8
MY3DLAYER
10
109.33844860581254
20
2.4675474009062524
30
0.0
 70
     32
  0
VERTEX
  8
MY3DLAYER
10
109.50738482396302
20
2.141906586694445
30
0.0
 70
     32
  0
VERTEX
  8
MY3DLAYER
10
109.61761069189123
20
1.931959655690972
30
0.0
 70
     32
  0
VERTEX
  8
MY3DLAYER
10
109.65703875
20
1.8575644839999998
30
0.0
 70
     32
  0
VERTEX
  8
MY3DLAYER
10
102.94334250000006
20
1.8575644839999998
30
0.0
 70
     32
  0
VERTEX
  8
MY3DLAYER
10
102.92334076596885
20
2.1204671598935185
30
0.0
 70
     32
  0
VERTEX
  8
MY3DLAYER
10
102.86621350558347
20
2.4066809221481513
30
0.0
 70
     32
  0
VERTEX
  8
MY3DLAYER
10
102.77627763140636
20
2.7084353216250032
30
0.0
 70
     32
  0
VERTEX
  8
MY3DLAYER
10
102.65785005600013
20
3.017959909185188
30
0.0
 70
     32
  0
VERTEX
  8
MY3DLAYER
10
102.51524769192713
20
3.327484235689812
30
0.0
 70
     32
  0
VERTEX
  8
MY3DLAYER
10
102.35278745175009
20
3.6292378520000006
30
0.0
 70
     32
  0
VERTEX
  8
MY3DLAYER
10
102.1747862480314
20
3.9154503089768524
30
0.0
 70
     32
  0
VERTEX
  8
MY3DLAYER
10
101.98556099333344
20
4.178351157481483
30
0.0
 70
     32
  0
VERTEX
  8
MY3DLAYER
10
101.78942860021893
20
4.4101699483750005
30
0.0
 70
     32
  0
VERTEX
  8
MY3DLAYER
10
101.59070598125018
20
4.603136232518521
30
0.0
 70
     32
  0
VERTEX
  8
MY3DLAYER
10
101.39371004898967
20
4.749479560773151
30
0.0
 70
     32
  0
VERTEX
  8
MY3DLAYER
10
101.20275771600012
20
4.841429484000001
30
0.0
 70
     32
  0
VERTEX
  8
MY3DLAYER
10
100.71796599218648
20
5.067205208611117
30
0.0
 70
     32
  0
VERTEX
  8
MY3DLAYER
10
100.37045277965755
20
5.362915367055563
30
0.0
 70
     32
  0
VERTEX
  8
MY3DLAYER
10
100.14208695428131
20
5.715609123750006
30
0.0
 70
     32
  0
VERTEX
  8
MY3DLAYER
10
100.01473739192605
20
6.112335643111117
30
0.0
 70
     32
  0
VERTEX
  8
MY3DLAYER
10
99.9702729684596
20
6.540144089555553
30
0.0
 70
     32
  0
VERTEX
  8
MY3DLAYER
10
99.9905625597501
20
6.986083627500003
30
0.0
 70
     32
  0
VERTEX
  8
MY3DLAYER
10
100.05747504166564
20
7.4372034213611125
30
0.0
 70
     32
  0
VERTEX
  8
MY3DLAYER
10
100.15287929007417
20
7.8805526355555555
30
0.0
 70
     32
  0
VERTEX
  8
MY3DLAYER
10
100.25864418084387
20
8.3031804345
30
0.0
 70
     32
  0
VERTEX
  8
MY3DLAYER
10
100.35663858984265
20
8.692135982611118
30
0.0
 70
     32
  0
VERTEX
  8
MY3DLAYER
10
100.42873139293867
20
9.034468444305553
30
0.0
 70
     32
  0
VERTEX
  8
MY3DLAYER
10
100.45679146600011
20
9.317226984000001
30
0.0
 70
     32
  0
VERTEX
  8
MY3DLAYER
10
100.44700635324317
20
9.649776263660877
30
0.0
 70
     32
  0
VERTEX
  8
MY3DLAYER
10
100.4199533944445
20
10.13341800512038
30
0.0
 70
     32
  0
VERTEX
  8
MY3DLAYER
10
100.37908615881265
20
10.743114011093763
30
0.0
 70
     32
  0
VERTEX
  8
MY3DLAYER
10
100.32785821555565
20
11.45382608429631
30
0.0
 70
     32
  0
VERTEX
  8
MY3DLAYER
10
100.26972313388207
20
12.240516027443297
30
0.0
 70
     32
  0
VERTEX
  8
MY3DLAYER
10
100.20813448300014
20
13.078145643250012
30
0.0
 70
     32
  0
VERTEX
  8
MY3DLAYER
10
100.14654583211822
20
13.941676734431722
30
0.0
 70
     32
  0
VERTEX
  8
MY3DLAYER
10
100.08841075044461
20
14.806071103703703
30
0.0
 70
     32
  0
VERTEX
  8
MY3DLAYER
10
100.0371828071876
20
15.646290553781256
30
0.0
 70
     32
  0
VERTEX
  8
MY3DLAYER
10
99.99631557155564
20
16.437296887379627
30
0.0
 70
     32
  0
VERTEX
  8
MY3DLAYER
10
99.969262612757
20
17.154051907214125
30
0.0
 70
     32
  0
VERTEX
  8
MY3DLAYER
10
99.95947750000019
20
17.771517416
30
0.0
 70
     32
  0
VERTEX
  8
MY3DLAYER
10
99.9299784506459
20
18.45316128484954
30
0.0
 70
     32
  0
VERTEX
  8
MY3DLAYER
10
99.84781281350013
20
19.3497883847963
30
0.0
 70
     32
  0
VERTEX
  8
MY3DLAYER
10
99.7224778549376
20
20.41736601843753
30
0.0
 70
     32
  0
VERTEX
  8
MY3DLAYER
10
99.5634708413335
20
21.61186148837039
30
0.0
 70
     32
  0
VERTEX
  8
MY3DLAYER
10
99.38028903906265
20
22.889242097192167
30
0.0
 70
     32
  0
VERTEX
  8
MY3DLAYER
10
99.18242971450013
20
24.205475147500056
30
0.0
 70
     32
  0
VERTEX
  8
MY3DLAYER
10
98.97939013402099
20
25.516527941891223
30
0.0
 70
     32
  0
VERTEX
  8
MY3DLAYER
10
98.78066756400017
20
26.778367782962995
30
0.0
 70
     32
  0
VERTEX
  8
MY3DLAYER
10
98.59575927081258
20
27.946961973312526
30
0.0
 70
     32
  0
VERTEX
  8
MY3DLAYER
10
98.43416252083341
20
28.97827781553704
30
0.0
 70
     32
  0
VERTEX
  8
MY3DLAYER
10
98.30537458043766
20
29.82828261223381
30
0.0
 70
     32
  0
VERTEX
  8
MY3DLAYER
10
98.21889271600007
20
30.452943666000003
30
0.0
 70
     32
  0
VERTEX
  8
MY3DLAYER
10
98.14219380517261
20
30.98378124976505
30
0.0
 70
     32
  0
VERTEX
  8
MY3DLAYER
10
98.0404570233797
20
31.570739218953708
30
0.0
 70
     32
  0
VERTEX
  8
MY3DLAYER
10
97.91972603515637
20
32.19741320140627
30
0.0
 70
     32
  0
VERTEX
  8
MY3DLAYER
10
97.78604450503715
20
32.84739882496297
30
0.0
 70
     32
  0
VERTEX
  8
MY3DLAYER
10
97.64545609755689
20
33.50429171746411
30
0.0
 70
     32
  0
VERTEX
  8
MY3DLAYER
10
97.50400447725009
20
34.151687506750015
30
0.0
 70
     32
  0
VERTEX
  8
MY3DLAYER
10
97.36773330865168
20
34.7731818206609
30
0.0
 70
     32
  0
VERTEX
  8
MY3DLAYER
10
97.24268625629638
20
35.35237028703707
30
0.0
 70
     32
  0
VERTEX
  8
MY3DLAYER
10
97.13490698471885
20
35.87284853371874
30
0.0
 70
     32
  0
VERTEX
  8
MY3DLAYER
10
97.05043915845377
20
36.31821218854632
30
0.0
 70
     32
  0
VERTEX
  8
MY3DLAYER
10
96.99532644203599
20
36.67205687935995
30
0.0
 70
     32
  0
VERTEX
  8
MY3DLAYER
10
96.9756125000001
20
36.917978233999996
30
0.0
 70
     32
  0
VERTEX
  8
MY3DLAYER
10
96.96553959524773
20
37.17814547732526
30
0.0
 70
     32
  0
VERTEX
  8
MY3DLAYER
10
96.93647209248154
20
37.56954753476854
30
0.0
 70
     32
  0
VERTEX
  8
MY3DLAYER
10
96.89013680893768
20
38.06800958503127
30
0.0
 70
     32
  0
VERTEX
  8
MY3DLAYER
10
96.82826056185192
20
38.64935680681482
30
0.0
 70
     32
  0
VERTEX
  8
MY3DLAYER
10
96.75257016846071
20
39.28941437882065
30
0.0
 70
     32
  0
VERTEX
  8
MY3DLAYER
10
96.66479244600008
20
39.96400747975005
30
0.0
 70
     32
  0
VERTEX
  8
MY3DLAYER
10
96.56665421170614
20
40.64896128830444
30
0.0
 70
     32
  0
VERTEX
  8
MY3DLAYER
10
96.45988228281492
20
41.32010098318524
30
0.0
 70
     32
  0
VERTEX
  8
MY3DLAYER
10
96.3462034765626
20
41.9532517430938
30
0.0
 70
     32
  0
VERTEX
  8
MY3DLAYER
10
96.22734461018527
20
42.524238746731534
30
0.0
 70
     32
  0
VERTEX
  8
MY3DLAYER
10
96.10503250091908
20
43.008887172799824
30
0.0
 70
     32
  0
VERTEX
  8
MY3DLAYER
10
95.98099396600007
20
43.38302220000003
30
0.0
 70
     32
  0
VERTEX
  8
MY3DLAYER
10
95.85206080801285
20
43.7273703804121
30
0.0
 70
     32
  0
VERTEX
  8
MY3DLAYER
10
95.7162206747686
20
44.12783858729634
30
0.0
 70
     32
  0
VERTEX
  8
MY3DLAYER
10
95.57692710284385
20
44.568022481125034
30
0.0
 70
     32
  0
VERTEX
  8
MY3DLAYER
10
95.43763362881488
20
45.03151772237045
30
0.0
 70
     32
  0
VERTEX
  8
MY3DLAYER
10
95.30179378925821
20
45.501919971504705
30
0.0
 70
     32
  0
VERTEX
  8
MY3DLAYER
10
95.17286112075006
20
45.96282488900004
30
0.0
 70
     32
  0
VERTEX
  8
MY3DLAYER
10
95.05428915986703
20
46.39782813532874
30
0.0
 70
     32
  0
VERTEX
  8
MY3DLAYER
10
94.94953144318525
20
46.790525370963024
30
0.0
 70
     32
  0
VERTEX
  8
MY3DLAYER
10
94.86204150728133
20
47.12451225637505
30
0.0
 70
     32
  0
VERTEX
  8
MY3DLAYER
10
94.79527288873155
20
47.38338445203708
30
0.0
 70
     32
  0
VERTEX
  8
MY3DLAYER
10
94.75267912411232
20
47.55073761842131
30
0.0
 70
     32
  0
VERTEX
  8
MY3DLAYER
10
94.73771375000013
20
47.610167416000024
30
0.0
 70
     32
  0
VERTEX
  8
MY3DLAYER
10
94.68073093491675
20
47.320788915316
30
0.0
 70
     32
  0
VERTEX
  8
MY3DLAYER
10
94.63410863166675
20
46.84923576469444
30
0.0
 70
     32
  0
VERTEX
  8
MY3DLAYER
10
94.59784684025003
20
46.230906803781295
30
0.0
 70
     32
  0
VERTEX
  8
MY3DLAYER
10
94.57194556066673
20
45.50120087222225
30
0.0
 70
     32
  0
VERTEX
  8
MY3DLAYER
10
94.55640479291671
20
44.695516809663225
30
0.0
 70
     32
  0
VERTEX
  8
MY3DLAYER
10
94.55122453700001
20
43.84925345575005
30
0.0
 70
     32
  0
VERTEX
  8
MY3DLAYER
10
94.55640479291671
20
42.99780965012853
30
0.0
 70
     32
  0
VERTEX
  8
MY3DLAYER
10
94.57194556066673
20
42.17658423244449
30
0.0
 70
     32
  0
VERTEX
  8
MY3DLAYER
10
94.59784684025003
20
41.420976042343774
30
0.0
 70
     32
  0
VERTEX
  8
MY3DLAYER
10
94.63410863166675
20
40.76638391947229
30
0.0
 70
     32
  0
VERTEX
  8
MY3DLAYER
10
94.68073093491675
20
40.24820670347576
30
0.0
 70
     32
  0
VERTEX
  8
MY3DLAYER
10
94.73771375000013
20
39.90184323400006
30
0.0
 70
     32
  0
VERTEX
  8
MY3DLAYER
10
94.77987509240748
20
39.589729540949115
30
0.0
 70
     32
  0
VERTEX
  8
MY3DLAYER
10
94.78491094109268
20
39.16623871409267
30
0.0
 70
     32
  0
VERTEX
  8
MY3DLAYER
10
94.75713824125006
20
38.65468223137501
30
0.0
 70
     32
  0
VERTEX
  8
MY3DLAYER
10
94.70087393807415
20
38.07837157074077
30
0.0
 70
     32
  0
VERTEX
  8
MY3DLAYER
10
94.62043497675933
20
37.46061821013428
30
0.0
 70
     32
  0
VERTEX
  8
MY3DLAYER
10
94.52013830250006
20
36.824733627500024
30
0.0
 70
     32
  0
VERTEX
  8
MY3DLAYER
10
94.40430086049093
20
36.194029300782425
30
0.0
 70
     32
  0
VERTEX
  8
MY3DLAYER
10
94.27723959592608
20
35.59181670792596
30
0.0
 70
     32
  0
VERTEX
  8
MY3DLAYER
10
94.14327145400011
20
35.041407326874996
30
0.0
 70
     32
  0
VERTEX
  8
MY3DLAYER
10
94.00671337990751
20
34.56611263557409
30
0.0
 70
     32
  0
VERTEX
  8
MY3DLAYER
10
93.87188231884268
20
34.189244111967604
30
0.0
 70
     32
  0
VERTEX
  8
MY3DLAYER
10
93.74309521600007
20
33.93411323400002
30
0.0
 70
     32
  0
VERTEX
  8
MY3DLAYER
10
93.6042330492582
20
33.64847620329282
30
0.0
 70
     32
  0
VERTEX
  8
MY3DLAYER
10
93.4403326852316
20
33.18239153567593
30
0.0
 70
     32
  0
VERTEX
  8
MY3DLAYER
10
93.25743785371883
20
32.562624180406246
30
0.0
 70
     32
  0
VERTEX
  8
MY3DLAYER
10
93.06159228451867
20
31.81593908674075
30
0.0
 70
     32
  0
VERTEX
  8
MY3DLAYER
10
92.85883970742947
20
30.96910120393636
30
0.0
 70
     32
  0
VERTEX
  8
MY3DLAYER
10
92.65522385225006
20
30.048875481250004
30
0.0
 70
     32
  0
VERTEX
  8
MY3DLAYER
10
92.45678844877904
20
29.082026867938662
30
0.0
 70
     32
  0
VERTEX
  8
MY3DLAYER
10
92.26957722681489
20
28.09532031325929
30
0.0
 70
     32
  0
VERTEX
  8
MY3DLAYER
10
92.09963391615636
20
27.11552076646876
30
0.0
 70
     32
  0
VERTEX
  8
MY3DLAYER
10
91.95300224660194
20
26.16939317682408
30
0.0
 70
     32
  0
VERTEX
  8
MY3DLAYER
10
91.83572594795031
20
25.2837024935822
30
0.0
 70
     32
  0
VERTEX
  8
MY3DLAYER
10
91.75384875000015
20
24.485213666000043
30
0.0
 70
     32
  0
VERTEX
  8
MY3DLAYER
10
91.69672203891909
20
23.549590098041698
30
0.0
 70
     32
  0
VERTEX
  8
MY3DLAYER
10
91.64909246368528
20
22.284152726500018
30
0.0
 70
     32
  0
VERTEX
  8
MY3DLAYER
10
91.61009664831265
20
20.76315279987504
30
0.0
 70
     32
  0
VERTEX
  8
MY3DLAYER
10
91.57887121681495
20
19.06084156666667
30
0.0
 70
     32
  0
VERTEX
  8
MY3DLAYER
10
91.55455279320611
20
17.251470275375002
30
0.0
 70
     32
  0
VERTEX
  8
MY3DLAYER
10
91.53627800150014
20
15.409290174500004
30
0.0
 70
     32
  0
VERTEX
  8
MY3DLAYER
10
91.52318346571076
20
13.608552512541682
30
0.0
 70
     32
  0
VERTEX
  8
MY3DLAYER
10
91.51440580985195
20
11.92350853800001
30
0.0
 70
     32
  0
VERTEX
  8
MY3DLAYER
10
91.5090816579376
20
10.428409499375006
30
0.0
 70
     32
  0
VERTEX
  8
MY3DLAYER
10
91.50634763398159
20
9.197506645166666
30
0.0
 70
     32
  0
VERTEX
  8
MY3DLAYER
10
91.50534036199781
20
8.305051223875003
30
0.0
 70
     32
  0
VERTEX
  8
MY3DLAYER
10
91.50519646600014
20
7.825294484000002
30
0.0
 70
     32
  0
VERTEX
  8
MY3DLAYER
10
91.52965897052093
20
7.494042443781251
30
0.0
 70
     32
  0
VERTEX
  8
MY3DLAYER
10
91.59729060066677
20
7.019468064583336
30
0.0
 70
     32
  0
VERTEX
  8
MY3DLAYER
10
91.69945753131265
20
6.434380058093757
30
0.0
 70
     32
  0
VERTEX
  8
MY3DLAYER
10
91.82752593733343
20
5.771587136000005
30
0.0
 70
     32
  0
VERTEX
  8
MY3DLAYER
10
91.97286199360424
20
5.0638980099895905
30
0.0
 70
     32
  0
VERTEX
  8
MY3DLAYER
10
92.12683187500011
20
4.344121391750002
30
0.0
 70
     32
  0
VERTEX
  8
MY3DLAYER
10
92.28080175639593
20
3.6450659929687483
30
0.0
 70
     32
  0
VERTEX
  8
MY3DLAYER
10
92.42613781266681
20
2.9995405253333347
30
0.0
 70
     32
  0
VERTEX
  8
MY3DLAYER
10
92.55420621868754
20
2.440353700531252
30
0.0
 70
     32
  0
VERTEX
  8
MY3DLAYER
10
92.65637314933348
20
2.0003142302500003
30
0.0
 70
     32
  0
VERTEX
  8
MY3DLAYER
10
92.72400477947929
20
1.7122308261770833
30
0.0
 70
     32
  0
VERTEX
  8
MY3DLAYER
10
92.7484672840001
20
1.6089122000000011
30
0.0
 70
     32
  0
VERTEX
  8
MY3DLAYER
10
86.7807372840001
20
1.6089122000000011
30
0.0
 70
     32
  0
VERTEX
  8
MY3DLAYER
10
86.7464896667223
20
2.171839836701389
30
0.0
 70
     32
  0
VERTEX
  8
MY3DLAYER
10
86.65180507777785
20
2.631161376111114
30
0.0
 70
     32
  0
VERTEX
  8
MY3DLAYER
10
86.50877091150012
20
3.0075980376875
30
0.0
 70
     32
  0
VERTEX
  8
MY3DLAYER
10
86.32947456222227
20
3.3218710408888903
30
0.0
 70
     32
  0
VERTEX
  8
MY3DLAYER
10
86.12600342427784
20
3.594701605173611
30
0.0
 70
     32
  0
VERTEX
  8
MY3DLAYER
10
85.91044489200013
20
3.84681095
30
0.0
 70
     32
  0
VERTEX
  8
MY3DLAYER
10
85.69488635972233
20
4.0989202948263905
30
0.0
 70
     32
  0
VERTEX
  8
MY3DLAYER
10
85.49141522177791
20
4.371750859111115
30
0.0
 70
     32
  0
VERTEX
  8
MY3DLAYER
10
85.31211887250008
20
4.686023862312498
30
0.0
 70
     32
  0
VERTEX
  8
MY3DLAYER
10
85.16908470622235
20
5.062460523888898
30
0.0
 70
     32
  0
VERTEX
  8
MY3DLAYER
10
85.0744001172779
20
5.521782063298616
30
0.0
 70
     32
  0
VERTEX
  8
MY3DLAYER
10
85.04015250000002
20
6.084709700000003
30
0.0
 70
     32
  0
VERTEX
  8
MY3DLAYER
10
85.06979545079061
20
6.406034167269681
30
0.0
 70
     32
  0
VERTEX
  8
MY3DLAYER
10
85.15296839799083
20
6.748943066824075
30
0.0
 70
     32
  0
VERTEX
  8
MY3DLAYER
10
85.28103748384386
20
7.11429980728125
30
0.0
 70
     32
  0
VERTEX
  8
MY3DLAYER
10
85.44536885059269
20
7.502967797259259
30
0.0
 70
     32
  0
VERTEX
  8
MY3DLAYER
10
85.63732864048043
20
7.915810445376153
30
0.0
 70
     32
  0
VERTEX
  8
MY3DLAYER
10
85.84828299575011
20
8.35369116025
30
0.0
 70
     32
  0
VERTEX
  8
MY3DLAYER
10
86.06959805864474
20
8.817473350498847
30
0.0
 70
     32
  0
VERTEX
  8
MY3DLAYER
10
86.29263997140752
20
9.308020424740738
30
0.0
 70
     32
  0
VERTEX
  8
MY3DLAYER
10
86.50877487628131
20
9.826195791593756
30
0.0
 70
     32
  0
VERTEX
  8
MY3DLAYER
10
86.70936891550934
20
10.372862859675942
30
0.0
 70
     32
  0
VERTEX
  8
MY3DLAYER
10
86.88578823133457
20
10.948885037605331
30
0.0
 70
     32
  0
VERTEX
  8
MY3DLAYER
10
87.02939896600013
20
11.555125734000011
30
0.0
 70
     32
  0
VERTEX
  8
MY3DLAYER
10
87.14365238816212
20
12.35246487835418
30
0.0
 70
     32
  0
VERTEX
  8
MY3DLAYER
10
87.23891153862974
20
13.458032774
30
0.0
 70
     32
  0
VERTEX
  8
MY3DLAYER
10
87.31690316937508
20
14.807075438812506
30
0.0
 70
     32
  0
VERTEX
  8
MY3DLAYER
10
87.37935403237044
20
16.334838890666674
30
0.0
 70
     32
  0
VERTEX
  8
MY3DLAYER
10
87.42799087958807
20
17.9765691474375
30
0.0
 70
     32
  0
VERTEX
  8
MY3DLAYER
10
87.4645404630001
20
19.667512227000024
30
0.0
 70
     32
  0
VERTEX
  8
MY3DLAYER
10
87.49072953457882
20
21.34291414722919
30
0.0
 70
     32
  0
VERTEX
  8
MY3DLAYER
10
87.50828484629643
20
22.938020926000043
30
0.0
 70
     32
  0
VERTEX
  8
MY3DLAYER
10
87.51893315012508
20
24.388078581187536
30
0.0
 70
     32
  0
VERTEX
  8
MY3DLAYER
10
87.52440119803717
20
25.628333130666686
30
0.0
 70
     32
  0
VERTEX
  8
MY3DLAYER
10
87.5264157420047
20
26.594030592312514
30
0.0
 70
     32
  0
VERTEX
  8
MY3DLAYER
10
87.52670353400006
20
27.220416984000018
30
0.0
 70
     32
  0
VERTEX
  8
MY3DLAYER
10
87.52152327264479
20
27.67499148374884
30
0.0
 70
     32
  0
VERTEX
  8
MY3DLAYER
10
87.5059824668242
20
28.163237614324075
30
0.0
 70
     32
  0
VERTEX
  8
MY3DLAYER
10
87.48008108390627
20
28.67738495921876
30
0.0
 70
     32
  0
VERTEX
  8
MY3DLAYER
10
87.44381909125936
20
29.209663101925937
30
0.0
 70
     32
  0
VERTEX
  8
MY3DLAYER
10
87.3971964562513
20
29.75230162593866
30
0.0
 70
     32
  0
VERTEX
  8
MY3DLAYER
10
87.3402131462501
20
30.297530114750003
30
0.0
 70
     32
  0
VERTEX
  8
MY3DLAYER
10
87.27286912862394
20
30.83757815185303
30
0.0
 70
     32
  0
VERTEX
  8
MY3DLAYER
10
87.1951643707409
20
31.36467532074076
30
0.0
 70
     32
  0
VERTEX
  8
MY3DLAYER
10
87.1070988399688
20
31.871051204906262
30
0.0
 70
     32
  0
VERTEX
  8
MY3DLAYER
10
87.00867250367602
20
32.34893538784261
30
0.0
 70
     32
  0
VERTEX
  8
MY3DLAYER
10
86.89988532923044
20
32.79055745304283
30
0.0
 70
     32
  0
VERTEX
  8
MY3DLAYER
10
86.7807372840001
20
33.188146984000014
30
0.0
 70
     32
  0
VERTEX
  8
MY3DLAYER
10
86.72850303684031
20
33.725606682462974
30
0.0
 70
     32
  0
VERTEX
  8
MY3DLAYER
10
86.69439968538899
20
34.44178710270373
30
0.0
 70
     32
  0
VERTEX
  8
MY3DLAYER
10
86.67583710168756
20
35.297835868500016
30
0.0
 70
     32
  0
VERTEX
  8
MY3DLAYER
10
86.6702251577779
20
36.25490060362966
30
0.0
 70
     32
  0
VERTEX
  8
MY3DLAYER
10
86.67497372570146
20
37.27412893187038
30
0.0
 70
     32
  0
VERTEX
  8
MY3DLAYER
10
86.68749267750009
20
38.316668477000015
30
0.0
 70
     32
  0
VERTEX
  8
MY3DLAYER
10
86.70519188521541
20
39.343666862796354
30
0.0
 70
     32
  0
VERTEX
  8
MY3DLAYER
10
86.725481220889
20
40.3162717130371
30
0.0
 70
     32
  0
VERTEX
  8
MY3DLAYER
10
86.74577055656258
20
41.19563065150002
30
0.0
 70
     32
  0
VERTEX
  8
MY3DLAYER
10
86.76346976427791
20
41.94289130196301
30
0.0
 70
     32
  0
VERTEX
  8
MY3DLAYER
10
86.77598871607643
20
42.519201288203746
30
0.0
 70
     32
  0
VERTEX
  8
MY3DLAYER
10
86.7807372840001
20
42.88570823400004
30
0.0
 70
     32
  0
VERTEX
  8
MY3DLAYER
10
86.75598698204524
20
43.16458356686692
30
0.0
 70
     32
  0
VERTEX
  8
MY3DLAYER
10
86.68634076986125
20
43.50044207376855
30
0.0
 70
     32
  0
VERTEX
  8
MY3DLAYER
10
86.57870568796886
20
43.8881034661563
30
0.0
 70
     32
  0
VERTEX
  8
MY3DLAYER
10
86.43998877688902
20
44.32238745548152
30
0.0
 70
     32
  0
VERTEX
  8
MY3DLAYER
10
86.27709707714243
20
44.798113753195665
30
0.0
 70
     32
  0
VERTEX
  8
MY3DLAYER
10
86.09693762925008
20
45.310102070750055
30
0.0
 70
     32
  0
VERTEX
  8
MY3DLAYER
10
85.90641747373274
20
45.853172119596074
30
0.0
 70
     32
  0
VERTEX
  8
MY3DLAYER
10
85.71244365111122
20
46.42214361118521
30
0.0
 70
     32
  0
VERTEX
  8
MY3DLAYER
10
85.52192320190639
20
47.01183625696877
30
0.0
 70
     32
  0
VERTEX
  8
MY3DLAYER
10
85.34176316663896
20
47.6170697683982
30
0.0
 70
     32
  0
VERTEX
  8
MY3DLAYER
10
85.17887058582991
20
48.2326638569248
30
0.0
 70
     32
  0
VERTEX
  8
MY3DLAYER
10
85.04015250000002
20
48.85343823400005
30
0.0
 70
     32
  0
VERTEX
  8
MY3DLAYER
10
84.92589691869104
20
49.50817459006603
30
0.0
 70
     32
  0
VERTEX
  8
MY3DLAYER
10
84.83063596802788
20
50.21644048569448
30
0.0
 70
     32
  0
VERTEX
  8
MY3DLAYER
10
84.75264286340632
20
50.9592414860313
30
0.0
 70
     32
  0
VERTEX
  8
MY3DLAYER
10
84.69019082022231
20
51.71758315622227
30
0.0
 70
     32
  0
VERTEX
  8
MY3DLAYER
10
84.64155305387159
20
52.47247106141318
30
0.0
 70
     32
  0
VERTEX
  8
MY3DLAYER
10
84.6050027797501
20
53.20491076675003
30
0.0
 70
     32
  0
VERTEX
  8
MY3DLAYER
10
84.57881321325355
20
53.8959078373785
30
0.0
 70
     32
  0
VERTEX
  8
MY3DLAYER
10
84.56125756977787
20
54.52646783844445
30
0.0
 70
     32
  0
VERTEX
  8
MY3DLAYER
10
84.55060906471886
20
55.07759633509376
30
0.0
 70
     32
  0
VERTEX
  8
MY3DLAYER
10
84.54514091347234
20
55.530298892472246
30
0.0
 70
     32
  0
VERTEX
  8
MY3DLAYER
10
84.54312633143414
20
55.86558107572568
30
0.0
 70
     32
  0
VERTEX
  8
MY3DLAYER
10
84.54283853400007
20
56.06444844999998
30
0.0
 70
     32
  0
VERTEX
  8
MY3DLAYER
10
84.52801706132418
20
56.23827772488546
30
0.0
 70
     32
  0
VERTEX
  8
MY3DLAYER
10
84.48643060675934
20
56.501899113916664
30
0.0
 70
     32
  0
VERTEX
  8
MY3DLAYER
10
84.42239611550009
20
56.84149843815624
30
0.0
 70
     32
  0
VERTEX
  8
MY3DLAYER
10
84.34023053274085
20
57.24326151866671
30
0.0
 70
     32
  0
VERTEX
  8
MY3DLAYER
10
84.24425080367601
20
57.69337417651047
30
0.0
 70
     32
  0
VERTEX
  8
MY3DLAYER
10
84.13877387350013
20
58.17802223275002
30
0.0
 70
     32
  0
VERTEX
  8
MY3DLAYER
10
84.0281166874075
20
58.68339150844793
30
0.0
 70
     32
  0
VERTEX
  8
MY3DLAYER
10
83.9165961905927
20
59.19566782466666
30
0.0
 70
     32
  0
VERTEX
  8
MY3DLAYER
10
83.8085293282501
20
59.70103700246877
30
0.0
 70
     32
  0
VERTEX
  8
MY3DLAYER
10
83.70823304557416
20
60.185684862916695
30
0.0
 70
     32
  0
VERTEX
  8
MY3DLAYER
10
83.62002428775934
20
60.63579722707292
30
0.0
 70
     32
  0
VERTEX
  8
MY3DLAYER
10
83.54822000000009
20
61.037559915999964
30
0.0
 70
     32
  0
VERTEX
  8
MY3DLAYER
10
83.5529685679237
20
61.44939533020371
30
0.0
 70
     32
  0
VERTEX
  8
MY3DLAYER
10
83.56548751972234
20
61.92857472396297
30
0.0
 70
     32
  0
VERTEX
  8
MY3DLAYER
10
83.58318672743759
20
62.459557199
30
0.0
 70
     32
  0
VERTEX
  8
MY3DLAYER
10
83.60347606311122
20
63.02680185703701
30
0.0
 70
     32
  0
VERTEX
  8
MY3DLAYER
10
83.62376539878481
20
63.614767799796276
30
0.0
 70
     32
  0
VERTEX
  8
MY3DLAYER
10
83.64146460650012
20
64.207914129
30
0.0
 70
     32
  0
VERTEX
  8
MY3DLAYER
10
83.65398355829869
20
64.7906999463704
30
0.0
 70
     32
  0
VERTEX
  8
MY3DLAYER
10
83.65873212622236
20
65.34758435362968
30
0.0
 70
     32
  0
VERTEX
  8
MY3DLAYER
10
83.65312018231258
20
65.86302645250001
30
0.0
 70
     32
  0
VERTEX
  8
MY3DLAYER
10
83.63455759861121
20
66.32148534470375
30
0.0
 70
     32
  0
VERTEX
  8
MY3DLAYER
10
83.60045424715977
20
66.70742013196298
30
0.0
 70
     32
  0
VERTEX
  8
MY3DLAYER
10
83.54822000000009
20
67.00528991600001
30
0.0
 70
     32
  0
VERTEX
  8
MY3DLAYER
10
83.48591284808809
20
67.19624224898958
30
0.0
 70
     32
  0
VERTEX
  8
MY3DLAYER
10
83.42274199387046
20
67.39323818125001
30
0.0
 70
     32
  0
VERTEX
  8
MY3DLAYER
10
83.3578441266251
20
67.59196080021879
30
0.0
 70
     32
  0
VERTEX
  8
MY3DLAYER
10
83.29035593562973
20
67.7880931933334
30
0.0
 70
     32
  0
VERTEX
  8
MY3DLAYER
10
83.21941411016218
20
67.97731844803127
30
0.0
 70
     32
  0
VERTEX
  8
MY3DLAYER
10
83.1441553395001
20
68.15531965175003
30
0.0
 70
     32
  0
VERTEX
  8
MY3DLAYER
10
83.06371631292141
20
68.3177798919271
30
0.0
 70
     32
  0
VERTEX
  8
MY3DLAYER
10
82.97723371970386
20
68.46038225600003
30
0.0
 70
     32
  0
VERTEX
  8
MY3DLAYER
10
82.88384424912505
20
68.57880983140628
30
0.0
 70
     32
  0
VERTEX
  8
MY3DLAYER
10
82.78268459046308
20
68.66874570558336
30
0.0
 70
     32
  0
VERTEX
  8
MY3DLAYER
10
82.67289143299546
20
68.72587296596879
30
0.0
 70
     32
  0
VERTEX
  8
MY3DLAYER
10
82.55360146600012
20
68.74587470000004
30
0.0
 70
     32
  0
VERTEX
  8
MY3DLAYER
10
82.34955365089478
20
68.75033547048962
30
0.0
 70
     32
  0
VERTEX
  8
MY3DLAYER
10
81.9987301886575
20
68.76083984025003
30
0.0
 70
     32
  0
VERTEX
  8
MY3DLAYER
10
81.52012557940637
20
68.77307089671875
30
0.0
 70
     32
  0
VERTEX
  8
MY3DLAYER
10
80.93273432325938
20
68.78271172733338
30
0.0
 70
     32
  0
VERTEX
  8
MY3DLAYER
10
80.25555092033458
20
68.78544541953127
30
0.0
 70
     32
  0
VERTEX
  8
MY3DLAYER
10
79.5075698707501
20
68.77695506075001
30
0.0
 70
     32
  0
VERTEX
  8
MY3DLAYER
10
78.70778567462392
20
68.75292373842709
30
0.0
 70
     32
  0
VERTEX
  8
MY3DLAYER
10
77.87519283207409
20
68.70903454000002
30
0.0
 70
     32
  0
VERTEX
  8
MY3DLAYER
10
77.02878584321876
20
68.64097055290624
30
0.0
 70
     32
  0
VERTEX
  8
MY3DLAYER
10
76.18755920817598
20
68.54441486458339
30
0.0
 70
     32
  0
VERTEX
  8
MY3DLAYER
10
75.37050742706367
20
68.41505056246875
30
0.0
 70
     32
  0
VERTEX
  8
MY3DLAYER
10
74.59662500000005
20
68.24856073400005
30
0.0
 70
     32
  0
VERTEX
  8
MY3DLAYER
10
73.71294860510882
20
68.0429308243322
30
0.0
 70
     32
  0
VERTEX
  8
MY3DLAYER
10
72.58320705203708
20
67.80535570949074
30
0.0
 70
     32
  0
VERTEX
  8
MY3DLAYER
10
71.25143303818751
20
67.54533262321878
30
0.0
 70
     32
  0
VERTEX
  8
MY3DLAYER
10
69.76165926096303
20
67.27235879925931
30
0.0
 70
     32
  0
VERTEX
  8
MY3DLAYER
10
68.15791841776627
20
66.99593147135535
30
0.0
 70
     32
  0
VERTEX
  8
MY3DLAYER
10
66.48424320599997
20
66.72554787325
30
0.0
 70
     32
  0
VERTEX
  8
MY3DLAYER
10
64.78466632306716
20
66.47070523868636
30
0.0
 70
     32
  0
VERTEX
  8
MY3DLAYER
10
63.1032204663704
20
66.24090080140743
30
0.0
 70
     32
  0
VERTEX
  8
MY3DLAYER
10
61.4839383333125
20
66.04563179515627
30
0.0
 70
     32
  0
VERTEX
  8
MY3DLAYER
10
59.970852621296316
20
65.89439545367593
30
0.0
 70
     32
  0
VERTEX
  8
MY3DLAYER
10
58.607996027724504
20
65.7966890107095
30
0.0
 70
     32
  0
VERTEX
  8
MY3DLAYER
10
57.43940125000004
20
65.76200970000001
30
0.0
 70
     32
  0
VERTEX
  8
MY3DLAYER
10
56.37916146381019
20
65.8014377581088
30
0.0
 70
     32
  0
VERTEX
  8
MY3DLAYER
10
55.31892180814814
20
65.91166362603703
30
0.0
 70
     32
  0
VERTEX
  8
MY3DLAYER
10
54.269042925375004
20
66.08059984418749
30
0.0
 70
     32
  0
VERTEX
  8
MY3DLAYER
10
53.239885457851884
20
66.29615895296298
30
0.0
 70
     32
  0
VERTEX
  8
MY3DLAYER
10
52.24181004793985
20
66.54625349276625
30
0.0
 70
     32
  0
VERTEX
  8
MY3DLAYER
10
51.285177338000075
20
66.818796004
30
0.0
 70
     32
  0
VERTEX
  8
MY3DLAYER
10
50.38034797039355
20
67.10169902706713
30
0.0
 70
     32
  0
VERTEX
  8
MY3DLAYER
10
49.537682587481534
20
67.38287510237038
30
0.0
 70
     32
  0
VERTEX
  8
MY3DLAYER
10
48.767541831625046
20
67.65023677031255
30
0.0
 70
     32
  0
VERTEX
  8
MY3DLAYER
10
48.080286345185236
20
67.89169657129631
30
0.0
 70
     32
  0
VERTEX
  8
MY3DLAYER
10
47.486276770523205
20
68.09516704572452
30
0.0
 70
     32
  0
VERTEX
  8
MY3DLAYER
10
46.99587375000002
20
68.24856073400005
30
0.0
 70
     32
  0
VERTEX
  8
MY3DLAYER
10
46.55079853980675
20
68.41447497303933
30
0.0
 70
     32
  0
VERTEX
  8
MY3DLAYER
10
46.08759207495373
20
68.5398101491482
30
0.0
 70
     32
  0
VERTEX
  8
MY3DLAYER
10
45.60884451603129
20
68.6254296383125
30
0.0
 70
     32
  0
VERTEX
  8
MY3DLAYER
10
45.11714602362972
20
68.67219681651855
30
0.0
 70
     32
  0
VERTEX
  8
MY3DLAYER
10
44.61508675833917
20
68.68097505975233
30
0.0
 70
     32
  0
VERTEX
  8
MY3DLAYER
10
44.10525688075003
20
68.65262774400006
30
0.0
 70
     32
  0
VERTEX
  8
MY3DLAYER
10
43.590246551452616
20
68.58801824524774
30
0.0
 70
     32
  0
VERTEX
  8
MY3DLAYER
10
43.07264593103708
20
68.48800993948154
30
0.0
 70
     32
  0
VERTEX
  8
MY3DLAYER
10
42.55504518009381
20
68.35346620268751
30
0.0
 70
     32
  0
VERTEX
  8
MY3DLAYER
10
42.04003445921302
20
68.18525041085189
30
0.0
 70
     32
  0
VERTEX
  8
MY3DLAYER
10
41.530203928984996
20
67.98422593996065
30
0.0
 70
     32
  0
VERTEX
  8
MY3DLAYER
10
41.028143750000055
20
67.75125616599999
30
0.0
 70
     32
  0
VERTEX
  8
MY3DLAYER
10
40.551121849879664
20
67.46763226520952
30
0.0
 70
     32
  0
VERTEX
  8
MY3DLAYER
10
40.11295258703708
20
67.11925480650929
30
0.0
 70
     32
  0
VERTEX
  8
MY3DLAYER
10
39.71104576825004
20
66.71389420640625
30
0.0
 70
     32
  0
VERTEX
  8
MY3DLAYER
10
39.342811200296346
20
66.25932088140742
30
0.0
 70
     32
  0
VERTEX
  8
MY3DLAYER
10
39.00565868995369
20
65.76330524801968
30
0.0
 70
     32
  0
VERTEX
  8
MY3DLAYER
10
38.69699804400002
20
65.23361772275
30
0.0
 70
     32
  0
VERTEX
  8
MY3DLAYER
10
38.41423906921296
20
64.67802872210535
30
0.0
 70
     32
  0
VERTEX
  8
MY3DLAYER
10
38.154791572370364
20
64.10430866259262
30
0.0
 70
     32
  0
VERTEX
  8
MY3DLAYER
10
37.91606536025001
20
63.52022796071877
30
0.0
 70
     32
  0
VERTEX
  8
MY3DLAYER
10
37.695470239629636
20
62.93355703299077
30
0.0
 70
     32
  0
VERTEX
  8
MY3DLAYER
10
37.49041601728703
20
62.352066295915506
30
0.0
 70
     32
  0
VERTEX
  8
MY3DLAYER
10
37.29831250000002
20
61.783526166
30
0.0
 70
     32
  0
VERTEX
  8
MY3DLAYER
10
37.032964995319475
20
61.145770946273174
30
0.0
 70
     32
  0
VERTEX
  8
MY3DLAYER
10
36.62602213205556
20
60.36987361085188
30
0.0
 70
     32
  0
VERTEX
  8
MY3DLAYER
10
36.101658698875
20
59.483462582875035
30
0.0
 70
     32
  0
VERTEX
  8
MY3DLAYER
10
35.484049484444476
20
58.51416628548153
30
0.0
 70
     32
  0
VERTEX
  8
MY3DLAYER
10
34.797369277430576
20
57.48961314181023
30
0.0
 70
     32
  0
VERTEX
  8
MY3DLAYER
10
34.06579286650003
20
56.437431575
30
0.0
 70
     32
  0
VERTEX
  8
MY3DLAYER
10
33.31349504031946
20
55.38525000818983
30
0.0
 70
     32
  0
VERTEX
  8
MY3DLAYER
10
32.56465058755556
20
54.3606968645185
30
0.0
 70
     32
  0
VERTEX
  8
MY3DLAYER
10
31.843434296875007
20
53.39140056712504
30
0.0
 70
     32
  0
VERTEX
  8
MY3DLAYER
10
31.174020956944457
20
52.50498953914819
30
0.0
 70
     32
  0
VERTEX
  8
MY3DLAYER
10
30.580585356430557
20
51.7290922037269
30
0.0
 70
     32
  0
VERTEX
  8
MY3DLAYER
10
30.087302284
20
51.091336984000066
30
0.0
 70
     32
  0
VERTEX
  8
MY3DLAYER
10
29.65791193878473
20
50.487829566465315
30
0.0
 70
     32
  0
VERTEX
  8
MY3DLAYER
10
29.24233567461112
20
49.80661733122225
30
0.0
 70
     32
  0
VERTEX
  8
MY3DLAYER
10
28.844027060687516
20
49.06324124181255
30
0.0
 70
     32
  0
VERTEX
  8
MY3DLAYER
10
28.466439666222225
20
48.27324226177781
30
0.0
 70
     32
  0
VERTEX
  8
MY3DLAYER
10
28.113027060423626
20
47.452161354659744
30
0.0
 70
     32
  0
VERTEX
  8
MY3DLAYER
10
27.787242812500004
20
46.615539484000045
30
0.0
 70
     32
  0
VERTEX
  8
MY3DLAYER
10
27.49254049165972
20
45.77891761334032
30
0.0
 70
     32
  0
VERTEX
  8
MY3DLAYER
10
27.23237366711113
20
44.95783670622226
30
0.0
 70
     32
  0
VERTEX
  8
MY3DLAYER
10
27.01019590806251
20
44.16783772618753
30
0.0
 70
     32
  0
VERTEX
  8
MY3DLAYER
10
26.829460783722226
20
43.424461636777856
30
0.0
 70
     32
  0
VERTEX
  8
MY3DLAYER
10
26.693621863298603
20
42.743249401534754
30
0.0
 70
     32
  0
VERTEX
  8
MY3DLAYER
10
26.606132716000012
20
42.13974198400007
30
0.0
 70
     32
  0
VERTEX
  8
MY3DLAYER
10
26.56396921988426
20
41.53119820654634
30
0.0
 70
     32
  0
VERTEX
  8
MY3DLAYER
10
26.558931609074083
20
40.83545247553708
30
0.0
 70
     32
  0
VERTEX
  8
MY3DLAYER
10
26.58670293837501
20
40.06890913050006
30
0.0
 70
     32
  0
VERTEX
  8
MY3DLAYER
10
26.642966262592598
20
39.247972510962995
30
0.0
 70
     32
  0
VERTEX
  8
MY3DLAYER
10
26.723404636532408
20
38.389046956453726
30
0.0
 70
     32
  0
VERTEX
  8
MY3DLAYER
10
26.82370111500001
20
37.5085368065
30
0.0
 70
     32
  0
VERTEX
  8
MY3DLAYER
10
26.93953875280094
20
36.62284640062965
30
0.0
 70
     32
  0
VERTEX
  8
MY3DLAYER
10
27.066600604740753
20
35.748380078370374
30
0.0
 70
     32
  0
VERTEX
  8
MY3DLAYER
10
27.200569725625012
20
34.901542179250015
30
0.0
 70
     32
  0
VERTEX
  8
MY3DLAYER
10
27.337129170259264
20
34.09873704279631
30
0.0
 70
     32
  0
VERTEX
  8
MY3DLAYER
10
27.471961993449067
20
33.35636900853706
30
0.0
 70
     32
  0
VERTEX
  8
MY3DLAYER
10
27.60075125000001
20
32.690842415999995
30
0.0
 70
     32
  0
VERTEX
  8
MY3DLAYER
10
27.944955409325242
20
31.50958450766901
30
0.0
 70
     32
  0
VERTEX
  8
MY3DLAYER
10
28.67595654626852
20
29.457169265018525
30
0.0
 70
     32
  0
VERTEX
  8
MY3DLAYER
10
29.714323123781263
20
26.719224874562514
30
0.0
 70
     32
  0
VERTEX
  8
MY3DLAYER
10
30.980623604814806
20
23.481379522814862
30
0.0
 70
     32
  0
VERTEX
  8
MY3DLAYER
10
32.3954264523206
20
19.92926139628936
30
0.0
 70
     32
  0
VERTEX
  8
MY3DLAYER
10
33.87930012925002
20
16.248498681500006
30
0.0
 70
     32
  0
VERTEX
  8
MY3DLAYER
10
35.35281309855439
20
12.624719564960657
30
0.0
 70
     32
  0
VERTEX
  8
MY3DLAYER
10
36.7365338231852
20
9.243552233185184
30
0.0
 70
     32
  0
VERTEX
  8
MY3DLAYER
10
37.951030766093744
20
6.2906248726875065
30
0.0
 70
     32
  0
VERTEX
  8
MY3DLAYER
10
38.91687239023149
20
3.951565669981483
30
0.0
 70
     32
  0
VERTEX
  8
MY3DLAYER
10
39.554627158549835
20
2.412002811581021
30
0.0
 70
     32
  0
VERTEX
  8
MY3DLAYER
10
39.78486353400004
20
1.8575644839999998
30
0.0
 70
     32
  0
VERTEX
  8
MY3DLAYER
10
32.325201034
20
1.8575644839999998
30
0.0
 70
     32
  0
VERTEX
  8
MY3DLAYER
10
32.329949781399314
20
1.8968486461111114
30
0.0
 70
     32
  0
VERTEX
  8
MY3DLAYER
10
32.3424692063611
20
2.0060672420555563
30
0.0
 70
     32
  0
VERTEX
  8
MY3DLAYER
10
32.36016908303126
20
2.1722694362500006
30
0.0
 70
     32
  0
VERTEX
  8
MY3DLAYER
10
32.38045918555556
20
2.3825043931111116
30
0.0
 70
     32
  0
VERTEX
  8
MY3DLAYER
10
32.40074928807987
20
2.623821277055558
30
0.0
 70
     32
  0
VERTEX
  8
MY3DLAYER
10
32.418449164749994
20
2.883269252500002
30
0.0
 70
     32
  0
VERTEX
  8
MY3DLAYER
10
32.43096858971182
20
3.1478974838611142
30
0.0
 70
     32
  0
VERTEX
  8
MY3DLAYER
10
32.43571733711113
20
3.4047551355555554
30
0.0
 70
     32
  0
VERTEX
  8
MY3DLAYER
10
32.43010518109374
20
3.6408913719999982
30
0.0
 70
     32
  0
VERTEX
  8
MY3DLAYER
10
32.41154189580555
20
3.843355357611114
30
0.0
 70
     32
  0
VERTEX
  8
MY3DLAYER
10
32.37743725539237
20
3.9991962568055546
30
0.0
 70
     32
  0
VERTEX
  8
MY3DLAYER
10
32.325201034
20
4.095463234000002
30
0.0
 70
     32
  0
VERTEX
  8
MY3DLAYER
10
32.252965052809024
20
4.157484568149307
30
0.0
 70
     32
  0
VERTEX
  8
MY3DLAYER
10
32.161734440972225
20
4.218642167361108
30
0.0
 70
     32
  0
VERTEX
  8
MY3DLAYER
10
32.05323598309374
20
4.27807268828125
30
0.0
 70
     32
  0
VERTEX
  8
MY3DLAYER
10
31.929196463777778
20
4.334912787555559
30
0.0
 70
     32
  0
VERTEX
  8
MY3DLAYER
10
31.79134266762847
20
4.3882991218298635
30
0.0
 70
     32
  0
VERTEX
  8
MY3DLAYER
10
31.641401379250016
20
4.437368347750004
30
0.0
 70
     32
  0
VERTEX
  8
MY3DLAYER
10
31.481099383246537
20
4.481257121961808
30
0.0
 70
     32
  0
VERTEX
  8
MY3DLAYER
10
31.31216346422222
20
4.519102101111113
30
0.0
 70
     32
  0
VERTEX
  8
MY3DLAYER
10
31.136320406781238
20
4.55003994184375
30
0.0
 70
     32
  0
VERTEX
  8
MY3DLAYER
10
30.955296995527775
20
4.573207300805559
30
0.0
 70
     32
  0
VERTEX
  8
MY3DLAYER
10
30.77082001506599
20
4.5877408346423625
30
0.0
 70
     32
  0
VERTEX
  8
MY3DLAYER
10
30.584616250000018
20
4.592777200000002
30
0.0
 70
     32
  0
VERTEX
  8
MY3DLAYER
10
30.403448844853024
20
4.617527681430558
30
0.0
 70
     32
  0
VERTEX
  8
MY3DLAYER
10
30.233505360157423
20
4.687174366777778
30
0.0
 70
     32
  0
VERTEX
  8
MY3DLAYER
10
30.07564920453126
20
4.7948101176249995
30
0.0
 70
     32
  0
VERTEX
  8
MY3DLAYER
10
29.930743786592593
20
4.933527795555562
30
0.0
 70
     32
  0
VERTEX
  8
MY3DLAYER
10
29.799652514959494
20
5.096420262152784
30
0.0
 70
     32
  0
VERTEX
  8
MY3DLAYER
10
29.68323879824999
20
5.276580379000008
30
0.0
 70
     32
  0
VERTEX
  8
MY3DLAYER
10
29.582366045082168
20
5.467101007680565
30
0.0
 70
     32
  0
VERTEX
  8
MY3DLAYER
10
29.49789766407408
20
5.661075009777783
30
0.0
 70
     32
  0
VERTEX
  8
MY3DLAYER
10
29.43069706384375
20
5.851595246875006
30
0.0
 70
     32
  0
VERTEX
  8
MY3DLAYER
10
29.381627653009264
20
6.03175458055556
30
0.0
 70
     32
  0
VERTEX
  8
MY3DLAYER
10
29.351552840188653
20
6.19464587240278
30
0.0
 70
     32
  0
VERTEX
  8
MY3DLAYER
10
29.34133603400001
20
6.333361984000002
30
0.0
 70
     32
  0
VERTEX
  8
MY3DLAYER
10
29.355869714680555
20
6.4725119481759315
30
0.0
 70
     32
  0
VERTEX
  8
MY3DLAYER
10
29.395441625277783
20
6.63842689424074
30
0.0
 70
     32
  0
VERTEX
  8
MY3DLAYER
10
29.45400806862501
20
6.826789877000004
30
0.0
 70
     32
  0
VERTEX
  8
MY3DLAYER
10
29.52552534755557
20
7.033283951259261
30
0.0
 70
     32
  0
VERTEX
  8
MY3DLAYER
10
29.603949764902776
20
7.253592171824074
30
0.0
 70
     32
  0
VERTEX
  8
MY3DLAYER
10
29.6832376235
20
7.483397593500003
30
0.0
 70
     32
  0
VERTEX
  8
MY3DLAYER
10
29.757345226180572
20
7.718383271092596
30
0.0
 70
     32
  0
VERTEX
  8
MY3DLAYER
10
29.82022887577779
20
7.95423225940741
30
0.0
 70
     32
  0
VERTEX
  8
MY3DLAYER
10
29.865844875125013
20
8.18662761325
30
0.0
 70
     32
  0
VERTEX
  8
MY3DLAYER
10
29.888149527055567
20
8.411252387425925
30
0.0
 70
     32
  0
VERTEX
  8
MY3DLAYER
10
29.88109913440278
20
8.623789636740739
30
0.0
 70
     32
  0
VERTEX
  8
MY3DLAYER
10
29.838650000000015
20
8.819922416000004
30
0.0
 70
     32
  0
VERTEX
  8
MY3DLAYER
10
29.60999703526737
20
9.501566225024305
30
0.0
 70
     32
  0
VERTEX
  8
MY3DLAYER
10
29.086928910805543
20
11.061274278361124
30
0.0
 70
     32
  0
VERTEX
  8
MY3DLAYER
10
28.327292568218734
20
13.330686202906264
30
0.0
 70
     32
  0
VERTEX
  8
MY3DLAYER
10
27.38893494911113
20
16.14144162555556
30
0.0
 70
     32
  0
VERTEX
  8
MY3DLAYER
10
26.329702995086812
20
19.32518017320486
30
0.0
 70
     32
  0
VERTEX
  8
MY3DLAYER
10
25.207443647750047
20
22.713541472750027
30
0.0
 70
     32
  0
VERTEX
  8
MY3DLAYER
10
24.080003848704894
20
26.138165151086795
30
0.0
 70
     32
  0
VERTEX
  8
MY3DLAYER
10
23.005230539555583
20
29.430690835111125
30
0.0
 70
     32
  0
VERTEX
  8
MY3DLAYER
10
22.04097066190627
20
32.42275815171877
30
0.0
 70
     32
  0
VERTEX
  8
MY3DLAYER
10
21.24507115736114
20
34.94600672780556
30
0.0
 70
     32
  0
VERTEX
  8
MY3DLAYER
10
20.675378967524324
20
36.832076190267365
30
0.0
 70
     32
  0
VERTEX
  8
MY3DLAYER
10
20.38974103400002
20
37.912606166000025
30
0.0
 70
     32
  0
VERTEX
  8
MY3DLAYER
10
20.216345611693313
20
38.62187769657639
30
0.0
 70
     32
  0
VERTEX
  8
MY3DLAYER
10
19.955747876879645
20
39.48396873461115
30
0.0
 70
     32
  0
VERTEX
  8
MY3DLAYER
10
19.62435220171877
20
40.46520722506253
30
0.0
 70
     32
  0
VERTEX
  8
MY3DLAYER
10
19.238562958370377
20
41.53192111288896
30
0.0
 70
     32
  0
VERTEX
  8
MY3DLAYER
10
18.81478451899421
20
42.65043834304867
30
0.0
 70
     32
  0
VERTEX
  8
MY3DLAYER
10
18.36942125575
20
43.78708686050005
30
0.0
 70
     32
  0
VERTEX
  8
MY3DLAYER
10
17.918877540797457
20
44.90819461020143
30
0.0
 70
     32
  0
VERTEX
  8
MY3DLAYER
10
17.47955774629631
20
45.98008953711115
30
0.0
 70
     32
  0
VERTEX
  8
MY3DLAYER
10
17.067866244406265
20
46.96909958618754
30
0.0
 70
     32
  0
VERTEX
  8
MY3DLAYER
10
16.700207407287035
20
47.84155270238893
30
0.0
 70
     32
  0
VERTEX
  8
MY3DLAYER
10
16.392985607098375
20
48.563776830673625
30
0.0
 70
     32
  0
VERTEX
  8
MY3DLAYER
10
16.162605216000006
20
49.10209991600004
30
0.0
 70
     32
  0
VERTEX
  8
MY3DLAYER
10
16.01108076164352
20
49.564442265209536
30
0.0
 70
     32
  0
VERTEX
  8
MY3DLAYER
10
15.92431022414816
20
49.96203105650931
30
0.0
 70
     32
  0
VERTEX
  8
MY3DLAYER
10
15.894523154375005
20
50.302636706406254
30
0.0
 70
     32
  0
VERTEX
  8
MY3DLAYER
10
15.913949103185189
20
50.594029631407494
30
0.0
 70
     32
  0
VERTEX
  8
MY3DLAYER
10
15.974817621439815
20
50.84398024801971
30
0.0
 70
     32
  0
VERTEX
  8
MY3DLAYER
10
16.06935826
20
51.06025897275005
30
0.0
 70
     32
  0
VERTEX
  8
MY3DLAYER
10
16.189800569726863
20
51.250636222105385
30
0.0
 70
     32
  0
VERTEX
  8
MY3DLAYER
10
16.328374101481483
20
51.422882412592664
30
0.0
 70
     32
  0
VERTEX
  8
MY3DLAYER
10
16.477308406125008
20
51.58476796071883
30
0.0
 70
     32
  0
VERTEX
  8
MY3DLAYER
10
16.628833034518518
20
51.744063282990794
30
0.0
 70
     32
  0
VERTEX
  8
MY3DLAYER
10
16.775177537523152
20
51.90853879591556
30
0.0
 70
     32
  0
VERTEX
  8
MY3DLAYER
10
16.908571466
20
52.08596491600005
30
0.0
 70
     32
  0
VERTEX
  8
MY3DLAYER
10
17.14067719501968
20
52.52571584375115
30
0.0
 70
     32
  0
VERTEX
  8
MY3DLAYER
10
17.563591660157417
20
53.303914432842625
30
0.0
 70
     32
  0
VERTEX
  8
MY3DLAYER
10
18.140189204531243
20
54.35494329253127
30
0.0
 70
     32
  0
VERTEX
  8
MY3DLAYER
10
18.833344171259256
20
55.61318503207409
30
0.0
 70
     32
  0
VERTEX
  8
MY3DLAYER
10
19.60593090345951
20
57.013022260728
30
0.0
 70
     32
  0
VERTEX
  8
MY3DLAYER
10
20.420823744250015
20
58.48883758775
30
0.0
 70
     32
  0
VERTEX
  8
MY3DLAYER
10
21.24089703674886
20
59.97501362239703
30
0.0
 70
     32
  0
VERTEX
  8
MY3DLAYER
10
22.02902512407411
20
61.40593297392598
30
0.0
 70
     32
  0
VERTEX
  8
MY3DLAYER
10
22.748082349343775
20
62.71597825159377
30
0.0
 70
     32
  0
VERTEX
  8
MY3DLAYER
10
23.360943055675946
20
63.83953206465742
30
0.0
 70
     32
  0
VERTEX
  8
MY3DLAYER
10
23.830481586188686
20
64.71097702237384
30
0.0
 70
     32
  0
VERTEX
  8
MY3DLAYER
10
24.119572284000025
20
65.26469573400003
30
0.0
 70
     32
  0
VERTEX
  8
MY3DLAYER
10
24.31987803631485
20
65.66559503606366
30
0.0
 70
     32
  0
VERTEX
  8
MY3DLAYER
10
24.540905073351887
20
66.10966369217593
30
0.0
 70
     32
  0
VERTEX
  8
MY3DLAYER
10
24.77229275275002
20
66.57790720221875
30
0.0
 70
     32
  0
VERTEX
  8
MY3DLAYER
10
25.00368043214819
20
67.05133106607411
30
0.0
 70
     32
  0
VERTEX
  8
MY3DLAYER
10
25.2247074691852
20
67.51094078362385
30
0.0
 70
     32
  0
VERTEX
  8
MY3DLAYER
10
25.425013221500045
20
67.93774185475002
30
0.0
 70
     32
  0
VERTEX
  8
MY3DLAYER
10
25.594237046731504
20
68.31273977933449
30
0.0
 70
     32
  0
VERTEX
  8
MY3DLAYER
10
25.722018302518563
20
68.61694005725928
30
0.0
 70
     32
  0
VERTEX
  8
MY3DLAYER
10
25.79799634650003
20
68.83134818840627
30
0.0
 70
     32
  0
VERTEX
  8
MY3DLAYER
10
25.811810536314827
20
68.93696967265744
30
0.0
 70
     32
  0
VERTEX
  8
MY3DLAYER
10
25.753100229601888
20
68.9148100098947
30
0.0
 70
     32
  0
VERTEX
  8
MY3DLAYER
10
25.611504784000015
20
68.74587470000004
30
0.0
 70
     32
  0
VERTEX
  8
MY3DLAYER
10
25.366590712221075
20
68.4481507861933
30
0.0
 70
     32
  0
VERTEX
  8
MY3DLAYER
10
25.019797001435215
20
68.06322455987963
30
0.0
 70
     32
  0
VERTEX
  8
MY3DLAYER
10
24.59357172096878
20
67.60750039321879
30
0.0
 70
     32
  0
VERTEX
  8
MY3DLAYER
10
24.110362940148175
20
67.09738265837038
30
0.0
 70
     32
  0
VERTEX
  8
MY3DLAYER
10
23.59261872829979
20
66.54927572749425
30
0.0
 70
     32
  0
VERTEX
  8
MY3DLAYER
10
23.062787154750033
20
65.97958397275004
30
0.0
 70
     32
  0
VERTEX
  8
MY3DLAYER
10
22.543316288825256
20
65.40471176629747
30
0.0
 70
     32
  0
VERTEX
  8
MY3DLAYER
10
22.056654199851888
20
64.84106348029634
30
0.0
 70
     32
  0
VERTEX
  8
MY3DLAYER
10
21.62524895715628
20
64.30504348690627
30
0.0
 70
     32
  0
VERTEX
  8
MY3DLAYER
10
21.27154863006484
20
63.81305615828709
30
0.0
 70
     32
  0
VERTEX
  8
MY3DLAYER
10
21.018001287903957
20
63.381505866598374
30
0.0
 70
     32
  0
VERTEX
  8
MY3DLAYER
10
20.88705500000002
20
63.02679698400001
30
0.0
 70
     32
  0
VERTEX
  8
MY3DLAYER
10
20.73956046025466
20
62.61107758524074
30
0.0
 70
     32
  0
VERTEX
  8
MY3DLAYER
10
20.432339209370397
20
62.00109578325926
30
0.0
 70
     32
  0
VERTEX
  8
MY3DLAYER
10
19.98179558687502
20
61.220163056000004
30
0.0
 70
     32
  0
VERTEX
  8
MY3DLAYER
10
19.404333932296296
20
60.29159088140742
30
0.0
 70
     32
  0
VERTEX
  8
MY3DLAYER
10
18.716358585162045
20
59.23869073742593
30
0.0
 70
     32
  0
VERTEX
  8
MY3DLAYER
10
17.934273885000014
20
58.08477410199998
30
0.0
 70
     32
  0
VERTEX
  8
MY3DLAYER
10
17.074484171337975
20
56.85315245307406
30
0.0
 70
     32
  0
VERTEX
  8
MY3DLAYER
10
16.153393783703713
20
55.567137268592596
30
0.0
 70
     32
  0
VERTEX
  8
MY3DLAYER
10
15.187407061624997
20
54.25004002650001
30
0.0
 70
     32
  0
VERTEX
  8
MY3DLAYER
10
14.192928344629628
20
52.925172204740775
30
0.0
 70
     32
  0
VERTEX
  8
MY3DLAYER
10
13.186361972245376
20
51.61584528125929
30
0.0
 70
     32
  0
VERTEX
  8
MY3DLAYER
10
12.184112284000008
20
50.34537073400008
30
0.0
 70
     32
  0
VERTEX
  8
MY3DLAYER
10
11.188196913018524
20
49.023239089905125
30
0.0
 70
     32
  0
VERTEX
  8
MY3DLAYER
10
10.308838409648155
20
47.559511760907434
30
0.0
 70
     32
  0
VERTEX
  8
MY3DLAYER
10
9.538266324749996
20
45.97836360093752
30
0.0
 70
     32
  0
VERTEX
  8
MY3DLAYER
10
8.868710209185188
20
44.30396946392599
30
0.0
 70
     32
  0
VERTEX
  8
MY3DLAYER
10
8.292399613814823
20
42.56050420380326
30
0.0
 70
     32
  0
VERTEX
  8
MY3DLAYER
10
7.801564089499998
20
40.77214267450003
30
0.0
 70
     32
  0
VERTEX
  8
MY3DLAYER
10
7.388433187101855
20
38.963059729946785
30
0.0
 70
     32
  0
VERTEX
  8
MY3DLAYER
10
7.045236457481484
20
37.15743022407411
30
0.0
 70
     32
  0
VERTEX
  8
MY3DLAYER
10
6.764203451500001
20
35.37942901081251
30
0.0
 70
     32
  0
VERTEX
  8
MY3DLAYER
10
6.537563720018523
20
33.6532309440926
30
0.0
 70
     32
  0
VERTEX
  8
MY3DLAYER
10
6.35754681389815
20
32.003010877844915
30
0.0
 70
     32
  0
VERTEX
  8
MY3DLAYER
10
6.216382284000007
20
30.452943666000003
30
0.0
 70
     32
  0
VERTEX
  8
MY3DLAYER
10
6.1122015871145905
20
28.82099853286344
30
0.0
 70
     32
  0
VERTEX
  8
MY3DLAYER
10
6.046009466250007
20
26.94989511890742
30
0.0
 70
     32
  0
VERTEX
  8
MY3DLAYER
10
6.014352450093757
20
24.900933902312527
30
0.0
 70
     32
  0
VERTEX
  8
MY3DLAYER
10
6.013777067333338
20
22.73541536125928
30
0.0
 70
     32
  0
VERTEX
  8
MY3DLAYER
10
6.040829846656259
20
20.514639973928265
30
0.0
 70
     32
  0
VERTEX
  8
MY3DLAYER
10
6.0920573167500045
20
18.299908218499997
30
0.0
 70
     32
  0
VERTEX
  8
MY3DLAYER
10
6.16400600630209
20
16.152520573155105
30
0.0
 70
     32
  0
VERTEX
  8
MY3DLAYER
10
6.253222444000006
20
14.133777516074094
30
0.0
 70
     32
  0
VERTEX
  8
MY3DLAYER
10
6.356253158531256
20
12.304979525437524
30
0.0
 70
     32
  0
VERTEX
  8
MY3DLAYER
10
6.469644678583342
20
10.72742707942594
30
0.0
 70
     32
  0
VERTEX
  8
MY3DLAYER
10
6.589943532843751
20
9.462420656219905
30
0.0
 70
     32
  0
VERTEX
  8
MY3DLAYER
10
6.713696249999998
20
8.571260734
30
0.0
 70
     32
  0
VERTEX
  8
MY3DLAYER
10
6.8442108444722285
20
7.916814149600695
30
0.0
 70
     32
  0
VERTEX
  8
MY3DLAYER
10
7.094736332611112
20
7.210564124972227
30
0.0
 70
     32
  0
VERTEX
  8
MY3DLAYER
10
7.4402344845
20
6.4732319774687594
30
0.0
 70
     32
  0
VERTEX
  8
MY3DLAYER
10
7.855667070222222
20
5.725539024444452
30
0.0
 70
     32
  0
VERTEX
  8
MY3DLAYER
10
8.31599585986111
20
4.988206583253478
30
0.0
 70
     32
  0
VERTEX
  8
MY3DLAYER
10
8.796182623499996
20
4.281955971250001
30
0.0
 70
     32
  0
VERTEX
  8
MY3DLAYER
10
9.271189131222226
20
3.627508505788197
30
0.0
 70
     32
  0
VERTEX
  8
MY3DLAYER
10
9.71597715311111
20
3.0455855042222235
30
0.0
 70
     32
  0
VERTEX
  8
MY3DLAYER
10
10.105508459250013
20
2.5569082839062522
30
0.0
 70
     32
  0
VERTEX
  8
MY3DLAYER
10
10.414744819722232
20
2.182198162194445
30
0.0
 70
     32
  0
VERTEX
  8
MY3DLAYER
10
10.618648004611124
20
1.9421764564409725
30
0.0
 70
     32
  0
VERTEX
  8
MY3DLAYER
10
10.692179784000015
20
1.8575644839999998
30
0.0
 70
     32
  0
VERTEX
  8
MY3DLAYER
10
2.4865510340000014
20
1.8575644839999998
30
0.0
 70
     32
  0
VERTEX
  8
MY3DLAYER
10
2.4862632420046324
20
1.9211674395486118
30
0.0
 70
     32
  0
VERTEX
  8
MY3DLAYER
10
2.4842486980370397
20
2.097010904888889
30
0.0
 70
     32
  0
VERTEX
  8
MY3DLAYER
10
2.478780650125003
20
2.3626467780625
30
0.0
 70
     32
  0
VERTEX
  8
MY3DLAYER
10
2.4681323462962985
20
2.695626957111114
30
0.0
 70
     32
  0
VERTEX
  8
MY3DLAYER
10
2.4505770345787075
20
3.0735033400763907
30
0.0
 70
     32
  0
VERTEX
  8
MY3DLAYER
10
2.424387962999999
20
3.473827825
30
0.0
 70
     32
  0
VERTEX
  8
MY3DLAYER
10
2.387838379587962
20
3.8741523099236104
30
0.0
 70
     32
  0
VERTEX
  8
MY3DLAYER
10
2.3392015323703714
20
4.25202869288889
30
0.0
 70
     32
  0
VERTEX
  8
MY3DLAYER
10
2.2767506693749993
20
4.585008871937499
30
0.0
 70
     32
  0
VERTEX
  8
MY3DLAYER
10
2.198759038629632
20
4.850644745111118
30
0.0
 70
     32
  0
VERTEX
  8
MY3DLAYER
10
2.103499888162038
20
5.026488210451395
30
0.0
 70
     32
  0
VERTEX
  8
MY3DLAYER
10
1.9892464660000002
20
5.090091166000004
30
0.0
 70
     32
  0
VERTEX
  8
MY3DLAYER
10
1.8456357313344915
20
5.114985363952552
30
0.0
 70
     32
  0
VERTEX
  8
MY3DLAYER
10
1.6692164155092593
20
5.185638848120379
30
0.0
 70
     32
  0
VERTEX
  8
MY3DLAYER
10
1.4686223762812511
20
5.296007953968756
30
0.0
 70
     32
  0
VERTEX
  8
MY3DLAYER
10
1.2524874714074092
20
5.440049016962967
30
0.0
 70
     32
  0
VERTEX
  8
MY3DLAYER
10
1.029445558644676
20
5.611718372568293
30
0.0
 70
     32
  0
VERTEX
  8
MY3DLAYER
10
0.8081304957500013
20
5.804972356250008
30
0.0
 70
     32
  0
VERTEX
  8
MY3DLAYER
10
0.5971761404803242
20
6.013767303473386
30
0.0
 70
     32
  0
VERTEX
  8
MY3DLAYER
10
0.40521635059259303
20
6.23205954970371
30
0.0
 70
     32
  0
VERTEX
  8
MY3DLAYER
10
0.24088498384375012
20
6.453805430406255
30
0.0
 70
     32
  0
VERTEX
  8
MY3DLAYER
10
0.11281589799074078
20
6.672961281046299
30
0.0
 70
     32
  0
VERTEX
  8
MY3DLAYER
10
0.02964295079050927
20
6.883483437089122
30
0.0
 70
     32
  0
VERTEX
  8
MY3DLAYER
10
0.0
20
7.079328234000003
30
0.0
 70
     32
  0
VERTEX
  8
MY3DLAYER
10
0.00028779743402777814
20
7.275317111822921
30
0.0
 70
     32
  0
VERTEX
  8
MY3DLAYER
10
0.002302379472222225
20
7.486847051083335
30
0.0
 70
     32
  0
VERTEX
  8
MY3DLAYER
10
0.007770530718750003
20
7.7087376979687505
30
0.0
 70
     32
  0
VERTEX
  8
MY3DLAYER
10
0.01841903577777779
20
7.9358086986666665
30
0.0
 70
     32
  0
VERTEX
  8
MY3DLAYER
10
0.035974679253472246
20
8.162879699364582
30
0.0
 70
     32
  0
VERTEX
  8
MY3DLAYER
10
0.06216424575000003
20
8.384770346249999
30
0.0
 70
     32
  0
VERTEX
  8
MY3DLAYER
10
0.09871451987152786
20
8.596300285510422
30
0.0
 70
     32
  0
VERTEX
  8
MY3DLAYER
10
0.14735228622222232
20
8.792289163333344
30
0.0
 70
     32
  0
VERTEX
  8
MY3DLAYER
10
0.20980432940625005
20
8.96755662590625
30
0.0
 70
     32
  0
VERTEX
  8
MY3DLAYER
10
0.28779743402777797
20
9.116922319416672
30
0.0
 70
     32
  0
VERTEX
  8
MY3DLAYER
10
0.38305838469097264
20
9.235205890052086
30
0.0
 70
     32
  0
VERTEX
  8
MY3DLAYER
10
0.4973139660000002
20
9.317226984000001
30
0.0
 70
     32
  0
VERTEX
  8
MY3DLAYER
10
0.6259571728449079
20
10.031249236208344
30
0.0
 70
     32
  0
VERTEX
  8
MY3DLAYER
10
0.7597809619259268
20
11.900482654833347
30
0.0
 70
     32
  0
VERTEX
  8
MY3DLAYER
10
0.8936050120625001
20
14.70217349437501
30
0.0
 70
     32
  0
VERTEX
  8
MY3DLAYER
10
1.0222490020740744
20
18.21356800933335
30
0.0
 70
     32
  0
VERTEX
  8
MY3DLAYER
10
1.1405326107800928
20
22.211912454208363
30
0.0
 70
     32
  0
VERTEX
  8
MY3DLAYER
10
1.2432755170000007
20
26.474453083500002
30
0.0
 70
     32
  0
VERTEX
  8
MY3DLAYER
10
1.3252973995532422
20
30.778436151708355
30
0.0
 70
     32
  0
VERTEX
  8
MY3DLAYER
10
1.3814179372592617
20
34.901107913333355
30
0.0
 70
     32
  0
VERTEX
  8
MY3DLAYER
10
1.4064568089375016
20
38.61971462287502
30
0.0
 70
     32
  0
VERTEX
  8
MY3DLAYER
10
1.3952336934074092
20
41.711502534833414
30
0.0
 70
     32
  0
VERTEX
  8
MY3DLAYER
10
1.3425682694884271
20
43.95371790370839
30
0.0
 70
     32
  0
VERTEX
  8
MY3DLAYER
10
1.2432802160000014
20
45.123606984000006
30
0.0
 70
     32
  0
VERTEX
  8
MY3DLAYER
10
1.129024634690973
20
45.72135855075001
30
0.0
 70
     32
  0
VERTEX
  8
MY3DLAYER
10
1.0337636840277784
20
46.38300085416668
30
0.0
 70
     32
  0
VERTEX
  8
MY3DLAYER
10
0.9557705794062503
20
47.089539361500016
30
0.0
 70
     32
  0
VERTEX
  8
MY3DLAYER
10
0.8933185362222227
20
47.82197954000003
30
0.0
 70
     32
  0
VERTEX
  8
MY3DLAYER
10
0.8446807698715282
20
48.56132685691674
30
0.0
 70
     32
  0
VERTEX
  8
MY3DLAYER
10
0.8081304957500013
20
49.288586779500065
30
0.0
 70
     32
  0
VERTEX
  8
MY3DLAYER
10
0.7819409292534732
20
49.98476477500003
30
0.0
 70
     32
  0
VERTEX
  8
MY3DLAYER
10
0.7643852857777791
20
50.63086631066673
30
0.0
 70
     32
  0
VERTEX
  8
MY3DLAYER
10
0.7537367807187507
20
51.207896853750064
30
0.0
 70
     32
  0
VERTEX
  8
MY3DLAYER
10
0.748268629472223
20
51.696861871500055
30
0.0
 70
     32
  0
VERTEX
  8
MY3DLAYER
10
0.7462540474340282
20
52.07876683116673
30
0.0
 70
     32
  0
VERTEX
  8
MY3DLAYER
10
0.7459662500000009
20
52.334617200000004
30
0.0
 70
     32
  0
VERTEX
  8
MY3DLAYER
10
0.786833289840279
20
52.56226359433567
30
0.0
 70
     32
  0
VERTEX
  8
MY3DLAYER
10
0.9071320298888889
20
52.87106844085187
30
0.0
 70
     32
  0
VERTEX
  8
MY3DLAYER
10
1.1034089009375
20
53.25930492231252
30
0.0
 70
     32
  0
VERTEX
  8
MY3DLAYER
10
1.3722103337777802
20
53.7252462214815
30
0.0
 70
     32
  0
VERTEX
  8
MY3DLAYER
10
1.7100827592013885
20
54.26716552112266
30
0.0
 70
     32
  0
VERTEX
  8
MY3DLAYER
10
2.113572608000002
20
54.883336004000014
30
0.0
 70
     32
  0
VERTEX
  8
MY3DLAYER
10
2.5792263109652804
20
55.572030852877305
30
0.0
 70
     32
  0
VERTEX
  8
MY3DLAYER
10
3.1035902988888933
20
56.331523250518536
30
0.0
 70
     32
  0
VERTEX
  8
MY3DLAYER
10
3.6832110025625004
20
57.16008637968749
30
0.0
 70
     32
  0
VERTEX
  8
MY3DLAYER
10
4.314634852777776
20
58.05599342314815
30
0.0
 70
     32
  0
VERTEX
  8
MY3DLAYER
10
4.994408280326391
20
59.017517563664356
30
0.0
 70
     32
  0
VERTEX
  8
MY3DLAYER
10
5.719077716000005
20
60.04293198400004
30
0.0
 70
     32
  0
VERTEX
  8
MY3DLAYER
10
6.352802357599544
20
61.16015458527312
30
0.0
 70
     32
  0
VERTEX
  8
MY3DLAYER
10
6.8932816747963
20
62.267016544185196
30
0.0
 70
     32
  0
VERTEX
  8
MY3DLAYER
10
7.350876244687502
20
63.35315721837502
30
0.0
 70
     32
  0
VERTEX
  8
MY3DLAYER
10
7.735946644370372
20
64.4082159654815
30
0.0
 70
     32
  0
VERTEX
  8
MY3DLAYER
10
8.058853450942134
20
65.42183214314353
30
0.0
 70
     32
  0
VERTEX
  8
MY3DLAYER
10
8.329957241499999
20
66.383645109
30
0.0
 70
     32
  0
VERTEX
  8
MY3DLAYER
10
8.559618593141211
20
67.28329422068983
30
0.0
 70
     32
  0
VERTEX
  8
MY3DLAYER
10
8.758198082962974
20
68.1104188358519
30
0.0
 70
     32
  0
VERTEX
  8
MY3DLAYER
10
8.936056288062503
20
68.85465831212503
30
0.0
 70
     32
  0
VERTEX
  8
MY3DLAYER
10
9.103553785537038
20
69.50565200714819
30
0.0
 70
     32
  0
VERTEX
  8
MY3DLAYER
10
9.27105115248379
20
70.05303927856018
30
0.0
 70
     32
  0
VERTEX
  8
MY3DLAYER
10
9.448908966000005
20
70.48645948400005
30
0.0
 70
     32
  0
VERTEX
  8
MY3DLAYER
10
9.651947997174771
20
70.93930601351737
30
0.0
 70
     32
  0
VERTEX
  8
MY3DLAYER
10
9.767784976898149
20
71.53979189247228
30
0.0
 70
     32
  0
VERTEX
  8
MY3DLAYER
10
9.80246363496876
20
72.26978593146879
30
0.0
 70
     32
  0
VERTEX
  8
MY3DLAYER
10
9.762027701185184
20
73.11115694111116
30
0.0
 70
     32
  0
VERTEX
  8
MY3DLAYER
10
9.652520905346062
20
74.04577373200351
30
0.0
 70
     32
  0
VERTEX
  8
MY3DLAYER
10
9.479986977250002
20
75.05550511475
30
0.0
 70
     32
  0
VERTEX
  8
MY3DLAYER
10
9.250469646695603
20
76.12221989995489
30
0.0
 70
     32
  0
VERTEX
  8
MY3DLAYER
10
8.970012643481484
20
77.22778689822222
30
0.0
 70
     32
  0
VERTEX
  8
MY3DLAYER
10
8.644659697406249
20
78.35407492015636
30
0.0
 70
     32
  0
VERTEX
  8
MY3DLAYER
10
8.280454538268518
20
79.4829527763612
30
0.0
 70
     32
  0
VERTEX
  8
MY3DLAYER
10
7.883440895866899
20
80.5962892774411
30
0.0
 70
     32
  0
VERTEX
  8
MY3DLAYER
10
7.459662500000004
20
81.6759532340001
30
0.0
 70
     32
  0
VERTEX
  8
MY3DLAYER
10
7.035308514703708
20
82.75202178116558
30
0.0
 70
     32
  0
VERTEX
  8
MY3DLAYER
10
6.634265746296301
20
83.86089890949083
30
0.0
 70
     32
  0
VERTEX
  8
MY3DLAYER
10
6.259124388000012
20
84.99395076121887
30
0.0
 70
     32
  0
VERTEX
  8
MY3DLAYER
10
5.912474633037043
20
86.14254347859271
30
0.0
 70
     32
  0
VERTEX
  8
MY3DLAYER
10
5.596906674629637
20
87.29804320385543
30
0.0
 70
     32
  0
VERTEX
  8
MY3DLAYER
10
5.315010706000007
20
88.45181607925014
30
0.0
 70
     32
  0
VERTEX
  8
MY3DLAYER
10
5.069376920370377
20
89.5952282470198
30
0.0
 70
     32
  0
VERTEX
  8
MY3DLAYER
10
4.862595510962965
20
90.71964584940757
30
0.0
 70
     32
  0
VERTEX
  8
MY3DLAYER
10
4.697256670999999
20
91.81643502865636
30
0.0
 70
     32
  0
VERTEX
  8
MY3DLAYER
10
4.575950593703706
20
92.87696192700942
30
0.0
 70
     32
  0
VERTEX
  8
MY3DLAYER
10
4.501267472296299
20
93.89259268670966
30
0.0
 70
     32
  0
VERTEX
  8
MY3DLAYER
10
4.4757975000000005
20
94.85469345000008
30
0.0
 70
     32
  0
VERTEX
  8
MY3DLAYER
10
4.466300184677085
20
95.83909771222585
30
0.0
 70
     32
  0
VERTEX
  8
MY3DLAYER
10
4.441261807916668
20
96.80364429413903
30
0.0
 70
     32
  0
VERTEX
  8
MY3DLAYER
10
4.405862723531251
20
97.74919653909387
30
0.0
 70
     32
  0
VERTEX
  8
MY3DLAYER
10
4.3652832853333345
20
98.67661779044454
30
0.0
 70
     32
  0
VERTEX
  8
MY3DLAYER
10
4.324703847135419
20
99.58677139154528
30
0.0
 70
     32
  0
VERTEX
  8
MY3DLAYER
10
4.28930476275
20
100.48052068575012
30
0.0
 70
     32
  0
VERTEX
  8
MY3DLAYER
10
4.264266385989589
20
101.35872901641332
30
0.0
 70
     32
  0
VERTEX
  8
MY3DLAYER
10
4.254769070666669
20
102.22225972688902
30
0.0
 70
     32
  0
VERTEX
  8
MY3DLAYER
10
4.2659931705937515
20
103.07197616053136
30
0.0
 70
     32
  0
VERTEX
  8
MY3DLAYER
10
4.303119039583334
20
103.90874166069459
30
0.0
 70
     32
  0
VERTEX
  8
MY3DLAYER
10
4.371327031447916
20
104.73341957073262
30
0.0
 70
     32
  0
VERTEX
  8
MY3DLAYER
10
4.4757975000000005
20
105.54687323400005
30
0.0
 70
     32
  0
VERTEX
  8
MY3DLAYER
10
4.676966639178245
20
106.31442547174083
30
0.0
 70
     32
  0
VERTEX
  8
MY3DLAYER
10
4.904037384259266
20
107.00427243492594
30
0.0
 70
     32
  0
VERTEX
  8
MY3DLAYER
10
5.151829414062506
20
107.62159451000005
30
0.0
 70
     32
  0
VERTEX
  8
MY3DLAYER
10
5.415162407407412
20
108.17157208340747
30
0.0
 70
     32
  0
VERTEX
  8
MY3DLAYER
10
5.688856043113431
20
108.6593855415926
30
0.0
 70
     32
  0
VERTEX
  8
MY3DLAYER
10
5.9677300000000075
20
109.09021527100005
30
0.0
 70
     32
  0
VERTEX
  8
MY3DLAYER
10
6.246603956886581
20
109.46924165807413
30
0.0
 70
     32
  0
VERTEX
  8
MY3DLAYER
10
6.520297592592605
20
109.80164508925928
30
0.0
 70
     32
  0
VERTEX
  8
MY3DLAYER
10
6.783630585937504
20
110.09260595100007
30
0.0
 70
     32
  0
VERTEX
  8
MY3DLAYER
10
7.031422615740741
20
110.34730462974083
30
0.0
 70
     32
  0
VERTEX
  8
MY3DLAYER
10
7.258493360821763
20
110.57092151192595
30
0.0
 70
     32
  0
VERTEX
  8
MY3DLAYER
10
7.459662500000004
20
110.76863698400004
30
0.0
 70
     32
  0
VERTEX
  8
MY3DLAYER
10
7.675797013290507
20
110.96016509133338
30
0.0
 70
     32
  0
VERTEX
  8
MY3DLAYER
10
7.945461522990751
20
111.16119066083344
30
0.0
 70
     32
  0
VERTEX
  8
MY3DLAYER
10
8.26002217134375
20
111.37085025125005
30
0.0
 70
     32
  0
VERTEX
  8
MY3DLAYER
10
8.6108451005926
20
111.58828042133338
30
0.0
 70
     32
  0
VERTEX
  8
MY3DLAYER
10
8.989296452980328
20
111.81261772983332
30
0.0
 70
     32
  0
VERTEX
  8
MY3DLAYER
10
9.386742370750007
20
112.04299873550002
30
0.0
 70
     32
  0
VERTEX
  8
MY3DLAYER
10
9.794548996144693
20
112.27855999708339
30
0.0
 70
     32
  0
VERTEX
  8
MY3DLAYER
10
10.204082471407425
20
112.51843807333344
30
0.0
 70
     32
  0
VERTEX
  8
MY3DLAYER
10
10.606708938781262
20
112.76176952300003
30
0.0
 70
     32
  0
VERTEX
  8
MY3DLAYER
10
10.993794540509269
20
113.00769090483342
30
0.0
 70
     32
  0
VERTEX
  8
MY3DLAYER
10
11.356705418834503
20
113.25533877758335
30
0.0
 70
     32
  0
VERTEX
  8
MY3DLAYER
10
11.686807716000015
20
113.50384969999996
30
0.0
 70
     32
  0
VERTEX
  8
MY3DLAYER
10
12.007554619607657
20
113.77193066301624
30
0.0
 70
     32
  0
VERTEX
  8
MY3DLAYER
10
12.34643310419445
20
114.07368394212975
30
0.0
 70
     32
  0
VERTEX
  8
MY3DLAYER
10
12.700852943906265
20
114.40133902293755
30
0.0
 70
     32
  0
VERTEX
  8
MY3DLAYER
10
13.068223912888891
20
114.74712539103712
30
0.0
 70
     32
  0
VERTEX
  8
MY3DLAYER
10
13.4459557852882
20
115.10327253202546
30
0.0
 70
     32
  0
VERTEX
  8
MY3DLAYER
10
13.831458335250007
20
115.46200993149998
30
0.0
 70
     32
  0
VERTEX
  8
MY3DLAYER
10
14.222141336920147
20
115.81556707505788
30
0.0
 70
     32
  0
VERTEX
  8
MY3DLAYER
10
14.61541456444445
20
116.15617344829641
30
0.0
 70
     32
  0
VERTEX
  8
MY3DLAYER
10
15.008687791968756
20
116.47605853681247
30
0.0
 70
     32
  0
VERTEX
  8
MY3DLAYER
10
15.399370793638886
20
116.76745182620373
30
0.0
 70
     32
  0
VERTEX
  8
MY3DLAYER
10
15.784873343600703
20
117.02258280206719
30
0.0
 70
     32
  0
VERTEX
  8
MY3DLAYER
10
16.162605216000006
20
117.23368095000008
30
0.0
 70
     32
  0
VERTEX
  8
MY3DLAYER
10
16.559619152089123
20
117.41528004857877
30
0.0
 70
     32
  0
VERTEX
  8
MY3DLAYER
10
16.997212053212955
20
117.58824538729637
30
0.0
 70
     32
  0
VERTEX
  8
MY3DLAYER
10
17.46415993365626
20
117.75430371812504
30
0.0
 70
     32
  0
VERTEX
  8
MY3DLAYER
10
17.94923880770372
20
117.91518179303706
30
0.0
 70
     32
  0
VERTEX
  8
MY3DLAYER
10
18.441224689640052
20
118.07260636400461
30
0.0
 70
     32
  0
VERTEX
  8
MY3DLAYER
10
18.928893593750004
20
118.228304183
30
0.0
 70
     32
  0
VERTEX
  8
MY3DLAYER
10
19.40102153431829
20
118.38400200199537
30
0.0
 70
     32
  0
VERTEX
  8
MY3DLAYER
10
19.846384525629656
20
118.541426572963
30
0.0
 70
     32
  0
VERTEX
  8
MY3DLAYER
10
20.253758581968782
20
118.70230464787507
30
0.0
 70
     32
  0
VERTEX
  8
MY3DLAYER
10
20.611919717620395
20
118.86836297870376
30
0.0
 70
     32
  0
VERTEX
  8
MY3DLAYER
10
20.909643946869235
20
119.04132831742137
30
0.0
 70
     32
  0
VERTEX
  8
MY3DLAYER
10
21.13570728400003
20
119.22292741600008
30
0.0
 70
     32
  0
VERTEX
  8
MY3DLAYER
10
21.358029520982658
20
119.43906192385181
30
0.0
 70
     32
  0
VERTEX
  8
MY3DLAYER
10
21.650286289694478
20
119.70872639548153
30
0.0
 70
     32
  0
VERTEX
  8
MY3DLAYER
10
22.00988736428128
20
120.02328694050004
30
0.0
 70
     32
  0
VERTEX
  8
MY3DLAYER
10
22.43424251888892
20
120.37410966851856
30
0.0
 70
     32
  0
VERTEX
  8
MY3DLAYER
10
22.920761527663224
20
120.75256068914821
30
0.0
 70
     32
  0
VERTEX
  8
MY3DLAYER
10
23.46685416475003
20
121.15000611200004
30
0.0
 70
     32
  0
VERTEX
  8
MY3DLAYER
10
24.069930204295165
20
121.55781204668529
30
0.0
 70
     32
  0
VERTEX
  8
MY3DLAYER
10
24.727399420444467
20
121.9673446028149
30
0.0
 70
     32
  0
VERTEX
  8
MY3DLAYER
10
25.436671587343774
20
122.3699698900001
30
0.0
 70
     32
  0
VERTEX
  8
MY3DLAYER
10
26.19515647913889
20
122.75705401785184
30
0.0
 70
     32
  0
VERTEX
  8
MY3DLAYER
10
27.000263869975704
20
123.11996309598148
30
0.0
 70
     32
  0
VERTEX
  8
MY3DLAYER
10
27.849403533999993
20
123.45006323400008
30
0.0
 70
     32
  0
VERTEX
  8
MY3DLAYER
10
28.68473098244213
20
123.72073573358686
30
0.0
 70
     32
  0
VERTEX
  8
MY3DLAYER
10
29.45530418770373
20
123.91629344552781
30
0.0
 70
     32
  0
VERTEX
  8
MY3DLAYER
10
30.168893664187504
20
124.04450685159382
30
0.0
 70
     32
  0
VERTEX
  8
MY3DLAYER
10
30.83326992629632
20
124.11314643355558
30
0.0
 70
     32
  0
VERTEX
  8
MY3DLAYER
10
31.45620348843288
20
124.12998267318409
30
0.0
 70
     32
  0
VERTEX
  8
MY3DLAYER
10
32.04546486499999
20
124.10278605225004
30
0.0
 70
     32
  0
VERTEX
  8
MY3DLAYER
10
32.608824570400465
20
124.03932705252431
30
0.0
 70
     32
  0
VERTEX
  8
MY3DLAYER
10
33.154053119037016
20
123.94737615577783
30
0.0
 70
     32
  0
VERTEX
  8
MY3DLAYER
10
33.6889210253125
20
123.83470384378128
30
0.0
 70
     32
  0
VERTEX
  8
MY3DLAYER
10
34.22119880362964
20
123.70908059830568
30
0.0
 70
     32
  0
VERTEX
  8
MY3DLAYER
10
34.7586569683912
20
123.57827690112161
30
0.0
 70
     32
  0
VERTEX
  8
MY3DLAYER
10
35.309066034000004
20
123.45006323400008
30
0.0
 70
     32
  0
VERTEX
  8
MY3DLAYER
10
35.806089853066005
20
123.33106106443867
30
0.0
 70
     32
  0
VERTEX
  8
MY3DLAYER
10
36.301386887527784
20
123.22328248900929
30
0.0
 70
     32
  0
VERTEX
  8
MY3DLAYER
10
36.79323035278128
20
123.12759098159378
30
0.0
 70
     32
  0
VERTEX
  8
MY3DLAYER
10
37.279893464222226
20
123.04485001607415
30
0.0
 70
     32
  0
VERTEX
  8
MY3DLAYER
10
37.75964943724654
20
122.97592306633223
30
0.0
 70
     32
  0
VERTEX
  8
MY3DLAYER
10
38.23077148724999
20
122.92167360625
30
0.0
 70
     32
  0
VERTEX
  8
MY3DLAYER
10
38.69153282962848
20
122.88296510970955
30
0.0
 70
     32
  0
VERTEX
  8
MY3DLAYER
10
39.14020667977776
20
122.86066105059258
30
0.0
 70
     32
  0
VERTEX
  8
MY3DLAYER
10
39.57506625309379
20
122.85562490278126
30
0.0
 70
     32
  0
VERTEX
  8
MY3DLAYER
10
39.99438476497228
20
122.86872014015745
30
0.0
 70
     32
  0
VERTEX
  8
MY3DLAYER
10
40.39643543080909
20
122.90081023660305
30
0.0
 70
     32
  0
VERTEX
  8
MY3DLAYER
10
40.77949146600003
20
122.95275866600002
30
0.0
 70
     32
  0
VERTEX
  8
MY3DLAYER
10
41.322417243581064
20
123.06701208816206
30
0.0
 70
     32
  0
VERTEX
  8
MY3DLAYER
10
42.0561517246482
20
123.1622712386296
30
0.0
 70
     32
  0
VERTEX
  8
MY3DLAYER
10
42.94356921968755
20
123.2402628693751
30
0.0
 70
     32
  0
VERTEX
  8
MY3DLAYER
10
43.94754403918523
20
123.30271373237049
30
0.0
 70
     32
  0
VERTEX
  8
MY3DLAYER
10
45.03095049362738
20
123.35135057958806
30
0.0
 70
     32
  0
VERTEX
  8
MY3DLAYER
10
46.156662893500055
20
123.38790016300005
30
0.0
 70
     32
  0
VERTEX
  8
MY3DLAYER
10
47.287555549289415
20
123.41408923457875
30
0.0
 70
     32
  0
VERTEX
  8
MY3DLAYER
10
48.38650277148155
20
123.43164454629638
30
0.0
 70
     32
  0
VERTEX
  8
MY3DLAYER
10
49.41637887056255
20
123.4422928501251
30
0.0
 70
     32
  0
VERTEX
  8
MY3DLAYER
10
50.340058157018554
20
123.447760898037
30
0.0
 70
     32
  0
VERTEX
  8
MY3DLAYER
10
51.12041494133571
20
123.44977544200466
30
0.0
 70
     32
  0
VERTEX
  8
MY3DLAYER
10
51.72032353400008
20
123.45006323400008
30
0.0
 70
     32
  0
VERTEX
  8
MY3DLAYER
10
52.32080987524077
20
123.43063708939822
30
0.0
 70
     32
  0
VERTEX
  8
MY3DLAYER
10
53.10519758575927
20
123.37753895501861
30
0.0
 70
     32
  0
VERTEX
  8
MY3DLAYER
10
54.03981454525003
20
123.29853928000006
30
0.0
 70
     32
  0
VERTEX
  8
MY3DLAYER
10
55.09098863340744
20
123.20140851348155
30
0.0
 70
     32
  0
VERTEX
  8
MY3DLAYER
10
56.22504772992592
20
123.09391710460193
30
0.0
 70
     32
  0
VERTEX
  8
MY3DLAYER
10
57.40831971450004
20
122.9838355025001
30
0.0
 70
     32
  0
VERTEX
  8
MY3DLAYER
10
58.607132466824076
20
122.87893415631491
30
0.0
 70
     32
  0
VERTEX
  8
MY3DLAYER
10
59.7878138665926
20
122.78698351518516
30
0.0
 70
     32
  0
VERTEX
  8
MY3DLAYER
10
60.91669179350002
20
122.71575402825003
30
0.0
 70
     32
  0
VERTEX
  8
MY3DLAYER
10
61.96009412724076
20
122.67301614464823
30
0.0
 70
     32
  0
VERTEX
  8
MY3DLAYER
10
62.88434874750927
20
122.66654031351854
30
0.0
 70
     32
  0
VERTEX
  8
MY3DLAYER
10
63.655783534000044
20
122.70409698400002
30
0.0
 70
     32
  0
VERTEX
  8
MY3DLAYER
10
64.33613375835996
20
122.8205117503704
30
0.0
 70
     32
  0
VERTEX
  8
MY3DLAYER
10
65.12009004737965
20
123.03448898212966
30
0.0
 70
     32
  0
VERTEX
  8
MY3DLAYER
10
65.98693114896876
20
123.32962433975003
30
0.0
 70
     32
  0
VERTEX
  8
MY3DLAYER
10
66.91593581103706
20
123.68951348370378
30
0.0
 70
     32
  0
VERTEX
  8
MY3DLAYER
10
67.88638278149418
20
124.09775207446297
30
0.0
 70
     32
  0
VERTEX
  8
MY3DLAYER
10
68.87755080825004
20
124.53793577250005
30
0.0
 70
     32
  0
VERTEX
  8
MY3DLAYER
10
69.86871863921414
20
124.99366023828706
30
0.0
 70
     32
  0
VERTEX
  8
MY3DLAYER
10
70.83916502229633
20
125.44852113229632
30
0.0
 70
     32
  0
VERTEX
  8
MY3DLAYER
10
71.76816870540631
20
125.88611411499998
30
0.0
 70
     32
  0
VERTEX
  8
MY3DLAYER
10
72.63500843645373
20
126.29003484687047
30
0.0
 70
     32
  0
VERTEX
  8
MY3DLAYER
10
73.41896296334838
20
126.64387898837967
30
0.0
 70
     32
  0
VERTEX
  8
MY3DLAYER
10
74.09931103400001
20
126.93124219999994
30
0.0
 70
     32
  0
VERTEX
  8
MY3DLAYER
10
74.85132165012153
20
127.17471657758344
30
0.0
 70
     32
  0
VERTEX
  8
MY3DLAYER
10
75.72247942497225
20
127.40783044333327
30
0.0
 70
     32
  0
VERTEX
  8
MY3DLAYER
10
76.68688278528126
20
127.63058379724994
30
0.0
 70
     32
  0
VERTEX
  8
MY3DLAYER
10
77.71863015777778
20
127.84297663933337
30
0.0
 70
     32
  0
VERTEX
  8
MY3DLAYER
10
78.79181996919105
20
128.0450089695833
30
0.0
 70
     32
  0
VERTEX
  8
MY3DLAYER
10
79.88055064625009
20
128.236680788
30
0.0
 70
     32
  0
VERTEX
  8
MY3DLAYER
10
80.95892061568411
20
128.41799209458338
30
0.0
 70
     32
  0
VERTEX
  8
MY3DLAYER
10
82.00102830422232
20
128.5889428893333
30
0.0
 70
     32
  0
VERTEX
  8
MY3DLAYER
10
82.98097213859386
20
128.7495331722501
30
0.0
 70
     32
  0
VERTEX
  8
MY3DLAYER
10
83.87285054552785
20
128.89976294333326
30
0.0
 70
     32
  0
VERTEX
  8
MY3DLAYER
10
84.65076195175354
20
129.03963220258348
30
0.0
 70
     32
  0
VERTEX
  8
MY3DLAYER
10
85.28880478400006
20
129.16914094999993
30
0.0
 70
     32
  0
VERTEX
  8
MY3DLAYER
10
85.91317750734386
20
129.28310873387514
30
0.0
 70
     32
  0
VERTEX
  8
MY3DLAYER
10
86.65756122225005
20
129.37635510249993
30
0.0
 70
     32
  0
VERTEX
  8
MY3DLAYER
10
87.50727830853138
20
129.4488800558751
30
0.0
 70
     32
  0
VERTEX
  8
MY3DLAYER
10
88.44765114600014
20
129.50068359399998
30
0.0
 70
     32
  0
VERTEX
  8
MY3DLAYER
10
89.46400211446887
20
129.5317657168751
30
0.0
 70
     32
  0
VERTEX
  8
MY3DLAYER
10
90.54165359375011
20
129.54212642449997
30
0.0
 70
     32
  0
VERTEX
  8
MY3DLAYER
10
91.66592796365636
20
129.53176571687507
30
0.0
 70
     32
  0
VERTEX
  8
MY3DLAYER
10
92.82214760400012
20
129.50068359399998
30
0.0
 70
     32
  0
VERTEX
  8
MY3DLAYER
10
93.9956348945938
20
129.44888005587512
30
0.0
 70
     32
  0
VERTEX
  8
MY3DLAYER
10
95.17171221525011
20
129.37635510249993
30
0.0
 70
     32
  0
VERTEX
  8
MY3DLAYER
10
96.33570194578137
20
129.28310873387508
30
0.0
 70
     32
  0
VERTEX
  8
MY3DLAYER
10
97.47292646600013
20
129.16914094999993
30
0.0
 70
     32
  0
VERTEX
  8
MY3DLAYER
10
98.72080755774316
20
129.00106771081366
30
0.0
 70
     32
  0
VERTEX
  8
MY3DLAYER
10
100.07920227677785
20
128.75701676484266
30
0.0
 70
     32
  0
VERTEX
  8
MY3DLAYER
10
101.51357512681258
20
128.45425579496882
30
0.0
 70
     32
  0
VERTEX
  8
MY3DLAYER
10
102.98939061155569
20
128.11005248407406
30
0.0
 70
     32
  0
VERTEX
  8
MY3DLAYER
10
104.47211323471527
20
127.74167451504053
30
0.0
 70
     32
  0
VERTEX
  8
MY3DLAYER
10
105.92720750000007
20
127.36638957075002
30
0.0
 70
     32
  0
VERTEX
  8
MY3DLAYER
10
107.32013791111812
20
127.00146533408444
30
0.0
 70
     32
  0
VERTEX
  8
MY3DLAYER
10
108.61636897177783
20
126.66416948792602
30
0.0
 70
     32
  0
VERTEX
  8
MY3DLAYER
10
109.78136518568755
20
126.37176971515628
30
0.0
 70
     32
  0
VERTEX
  8
MY3DLAYER
10
110.78059105655565
20
126.14153369865748
30
0.0
 70
     32
  0
VERTEX
  8
MY3DLAYER
10
111.57951108809033
20
125.99072912131138
30
0.0
 70
     32
  0
VERTEX
  8
MY3DLAYER
10
112.1435897840001
20
125.93662366600006
30
0.0
 70
     32
  0
VERTEX
  8
MY3DLAYER
10
112.66018364366553
20
125.94698418871072
30
0.0
 70
     32
  0
VERTEX
  8
MY3DLAYER
10
113.20958608449081
20
125.9780658003519
30
0.0
 70
     32
  0
VERTEX
  8
MY3DLAYER
10
113.78316324871872
20
126.02986856618755
30
0.0
 70
     32
  0
VERTEX
  8
MY3DLAYER
10
114.37228127859261
20
126.10239255148159
30
0.0
 70
     32
  0
VERTEX
  8
MY3DLAYER
10
114.96830631635537
20
126.19563782149771
30
0.0
 70
     32
  0
VERTEX
  8
MY3DLAYER
10
115.56260450425003
20
126.30960444150008
30
0.0
 70
     32
  0
VERTEX
  8
MY3DLAYER
10
116.1465419845197
20
126.4442924767524
30
0.0
 70
     32
  0
VERTEX
  8
MY3DLAYER
10
116.71148489940747
20
126.59970199251859
30
0.0
 70
     32
  0
VERTEX
  8
MY3DLAYER
10
117.24879939115627
20
126.77583305406252
30
0.0
 70
     32
  0
VERTEX
  8
MY3DLAYER
10
117.7498516020093
20
126.97268572664814
30
0.0
 70
     32
  0
VERTEX
  8
MY3DLAYER
10
118.20600767420954
20
127.19026007553938
30
0.0
 70
     32
  0
VERTEX
  8
MY3DLAYER
10
118.60863375000002
20
127.42855616599999
30
0.0
 70
     32
  0
VERTEX
  8
MY3DLAYER
10
118.9810412855706
20
127.71606327361809
30
0.0
 70
     32
  0
VERTEX
  8
MY3DLAYER
10
119.34999528456483
20
128.07091468711104
30
0.0
 70
     32
  0
VERTEX
  8
MY3DLAYER
10
119.71204221040622
20
128.4775694429376
30
0.0
 70
     32
  0
VERTEX
  8
MY3DLAYER
10
120.06372852651853
20
128.92048657755558
30
0.0
 70
     32
  0
VERTEX
  8
MY3DLAYER
10
120.40160069632525
20
129.38412512742352
30
0.0
 70
     32
  0
VERTEX
  8
MY3DLAYER
10
120.72220518325003
20
129.852944129
30
0.0
 70
     32
  0
VERTEX
  8
MY3DLAYER
10
121.02208845071648
20
130.31140261874305
30
0.0
 70
     32
  0
VERTEX
  8
MY3DLAYER
10
121.29779696214825
20
130.74395963311122
30
0.0
 70
     32
  0
VERTEX
  8
MY3DLAYER
10
121.54587718096874
20
131.13507420856254
30
0.0
 70
     32
  0
VERTEX
  8
MY3DLAYER
10
121.76287557060189
20
131.46920538155555
30
0.0
 70
     32
  0
VERTEX
  8
MY3DLAYER
10
121.94533859447107
20
131.73081218854858
30
0.0
 70
     32
  0
VERTEX
  8
MY3DLAYER
10
122.08981271599997
20
131.90435366599993
30
0.0
 70
     32
  0
VERTEX
  8
MY3DLAYER
10
122.30752866577554
20
132.14998722864462
30
0.0
 70
     32
  0
VERTEX
  8
MY3DLAYER
10
122.69187853037043
20
132.50181737549082
30
0.0
 70
     32
  0
VERTEX
  8
MY3DLAYER
10
123.21264375868755
20
132.94171298240622
30
0.0
 70
     32
  0
VERTEX
  8
MY3DLAYER
10
123.8396057996297
20
133.45154292525933
30
0.0
 70
     32
  0
VERTEX
  8
MY3DLAYER
10
124.54254610209956
20
134.01317607991794
30
0.0
 70
     32
  0
VERTEX
  8
MY3DLAYER
10
125.29124611499994
20
134.60848132225001
30
0.0
 70
     32
  0
VERTEX
  8
MY3DLAYER
10
126.05548728723386
20
135.2193275281239
30
0.0
 70
     32
  0
VERTEX
  8
MY3DLAYER
10
126.80505106770379
20
135.82758357340734
30
0.0
 70
     32
  0
VERTEX
  8
MY3DLAYER
10
127.50971890531251
20
136.4151183339688
30
0.0
 70
     32
  0
VERTEX
  8
MY3DLAYER
10
128.13927224896304
20
136.96380068567595
30
0.0
 70
     32
  0
VERTEX
  8
MY3DLAYER
10
128.6634925475579
20
137.45549950439693
30
0.0
 70
     32
  0
VERTEX
  8
MY3DLAYER
10
129.05216125000007
20
137.872083666
30
0.0
 70
     32
  0
VERTEX
  8
MY3DLAYER
10
129.3818318537339
20
138.24420340413667
30
0.0
 70
     32
  0
VERTEX
  8
MY3DLAYER
10
129.74172087803706
20
138.6111428210927
30
0.0
 70
     32
  0
VERTEX
  8
MY3DLAYER
10
130.12060430456253
20
138.9677215956876
30
0.0
 70
     32
  0
VERTEX
  8
MY3DLAYER
10
130.50725811496304
20
139.30875940674082
30
0.0
 70
     32
  0
VERTEX
  8
MY3DLAYER
10
130.89045829089122
20
139.62907593307187
30
0.0
 70
     32
  0
VERTEX
  8
MY3DLAYER
10
131.258980814
20
139.92349085350014
30
0.0
 70
     32
  0
VERTEX
  8
MY3DLAYER
10
131.60160166594218
20
140.18682384684504
30
0.0
 70
     32
  0
VERTEX
  8
MY3DLAYER
10
131.90709682837036
20
140.41389459192598
30
0.0
 70
     32
  0
VERTEX
  8
MY3DLAYER
10
132.1642422829375
20
140.59952276756255
30
0.0
 70
     32
  0
VERTEX
  8
MY3DLAYER
10
132.36181401129636
20
140.73852805257414
30
0.0
 70
     32
  0
VERTEX
  8
MY3DLAYER
10
132.48858799509952
20
140.82573012578007
30
0.0
 70
     32
  0
VERTEX
  8
MY3DLAYER
10
132.533340216
20
140.85594866600002
30
0.0
 70
     32
  0
VERTEX
  8
MY3DLAYER
10
132.54312514384256
20
140.90026918803025
30
0.0
 70
     32
  0
VERTEX
  8
MY3DLAYER
10
132.57017759140746
20
141.02402127974082
30
0.0
 70
     32
  0
VERTEX
  8
MY3DLAYER
10
132.61104405475004
20
141.21339072956252
30
0.0
 70
     32
  0
VERTEX
  8
MY3DLAYER
10
132.662271029926
20
141.45456332592593
30
0.0
 70
     32
  0
VERTEX
  8
MY3DLAYER
10
132.7204050129907
20
141.73372485726156
30
0.0
 70
     32
  0
VERTEX
  8
MY3DLAYER
10
132.7819925
20
142.03706111200006
30
0.0
 70
     32
  0
VERTEX
  8
MY3DLAYER
10
132.84357998700932
20
142.35075787857187
30
0.0
 70
     32
  0
VERTEX
  8
MY3DLAYER
10
132.90171397007413
20
142.66100094540755
30
0.0
 70
     32
  0
VERTEX
  8
MY3DLAYER
10
132.95294094524996
20
142.95397610093752
30
0.0
 70
     32
  0
VERTEX
  8
MY3DLAYER
10
132.99380740859263
20
143.21586913359275
30
0.0
 70
     32
  0
VERTEX
  8
MY3DLAYER
10
133.02085985615747
20
143.4328658318032
30
0.0
 70
     32
  0
VERTEX
  8
MY3DLAYER
10
133.03064478400003
20
143.5911519840001
30
0.0
 70
     32
  0
VERTEX
  8
MY3DLAYER
10
133.11784829301166
20
143.7747663716424
30
0.0
 70
     32
  0
VERTEX
  8
MY3DLAYER
10
133.25167443159253
20
144.06544071947212
30
0.0
 70
     32
  0
VERTEX
  8
MY3DLAYER
10
133.42694287856247
20
144.4459072793438
30
0.0
 70
     32
  0
VERTEX
  8
MY3DLAYER
10
133.63847331274076
20
144.89889830311114
30
0.0
 70
     32
  0
VERTEX
  8
MY3DLAYER
10
133.88108541294676
20
145.40714604262843
30
0.0
 70
     32
  0
VERTEX
  8
MY3DLAYER
10
134.149598858
20
145.95338274975018
30
0.0
 70
     32
  0
VERTEX
  8
MY3DLAYER
10
134.43883332671993
20
146.52034067632988
30
0.0
 70
     32
  0
VERTEX
  8
MY3DLAYER
10
134.74360849792598
20
147.09075207422228
30
0.0
 70
     32
  0
VERTEX
  8
MY3DLAYER
10
135.05874405043753
20
147.64734919528132
30
0.0
 70
     32
  0
VERTEX
  8
MY3DLAYER
10
135.37905966307412
20
148.17286429136124
30
0.0
 70
     32
  0
VERTEX
  8
MY3DLAYER
10
135.69937501465515
20
148.65002961431594
30
0.0
 70
     32
  0
VERTEX
  8
MY3DLAYER
10
136.014509784
20
149.06157741600012
30
0.0
 70
     32
  0
VERTEX
  8
MY3DLAYER
10
136.32461034713432
20
149.42391204137962
30
0.0
 70
     32
  0
VERTEX
  8
MY3DLAYER
10
136.6303939650741
20
149.7637984995371
30
0.0
 70
     32
  0
VERTEX
  8
MY3DLAYER
10
136.9275436926251
20
150.07951003850013
30
0.0
 70
     32
  0
VERTEX
  8
MY3DLAYER
10
137.2117425845926
20
150.36931990629634
30
0.0
 70
     32
  0
VERTEX
  8
MY3DLAYER
10
137.47867369578245
20
150.63150135095373
30
0.0
 70
     32
  0
VERTEX
  8
MY3DLAYER
10
137.72402008100008
20
150.86432762050006
30
0.0
 70
     32
  0
VERTEX
  8
MY3DLAYER
10
137.94346479505106
20
151.06607196296298
30
0.0
 70
     32
  0
VERTEX
  8
MY3DLAYER
10
138.13269089274075
20
151.23500762637028
30
0.0
 70
     32
  0
VERTEX
  8
MY3DLAYER
10
138.28738142887497
20
151.36940785875012
30
0.0
 70
     32
  0
VERTEX
  8
MY3DLAYER
10
138.40321945825923
20
151.46754590812972
30
0.0
 70
     32
  0
VERTEX
  8
MY3DLAYER
10
138.475888035699
20
151.52769502253705
30
0.0
 70
     32
  0
VERTEX
  8
MY3DLAYER
10
138.50581878392362
20
151.56813018403128
30
0.0
 70
     32
  0
VERTEX
  8
MY3DLAYER
10
138.51833773572224
20
151.6252574444167
30
0.0
 70
     32
  0
VERTEX
  8
MY3DLAYER
10
138.5360369434374
20
151.71519331859383
30
0.0
 70
     32
  0
VERTEX
  8
MY3DLAYER
10
138.55632627911112
20
151.83362089400015
30
0.0
 70
     32
  0
VERTEX
  8
MY3DLAYER
10
138.5766156147848
20
151.976223258073
30
0.0
 70
     32
  0
VERTEX
  8
MY3DLAYER
10
138.59431482250005
20
152.13868349825012
30
0.0
 70
     32
  0
VERTEX
  8
MY3DLAYER
10
138.60683377429874
20
152.3166847019688
30
0.0
 70
     32
  0
VERTEX
  8
MY3DLAYER
10
138.61158234222225
20
152.50590995666667
30
0.0
 70
     32
  0
VERTEX
  8
MY3DLAYER
10
138.60597039831262
20
152.70204234978127
30
0.0
 70
     32
  0
VERTEX
  8
MY3DLAYER
10
138.58740781461117
20
152.90076496875005
30
0.0
 70
     32
  0
VERTEX
  8
MY3DLAYER
10
138.55330446315983
20
153.09776090101045
30
0.0
 70
     32
  0
VERTEX
  8
MY3DLAYER
10
138.5010702160001
20
153.28871323400006
30
0.0
 70
     32
  0
VERTEX
  8
MY3DLAYER
10
138.3942966609502
20
153.48484601325933
30
0.0
 70
     32
  0
VERTEX
  8
MY3DLAYER
10
138.20636507793517
20
153.6973832625741
30
0.0
 70
     32
  0
VERTEX
  8
MY3DLAYER
10
137.94936282865635
20
153.92200803675004
30
0.0
 70
     32
  0
VERTEX
  8
MY3DLAYER
10
137.63537727481483
20
154.1544033905926
30
0.0
 70
     32
  0
VERTEX
  8
MY3DLAYER
10
137.27649577811226
20
154.39025237890743
30
0.0
 70
     32
  0
VERTEX
  8
MY3DLAYER
10
136.88480570024993
20
154.62523805650014
30
0.0
 70
     32
  0
VERTEX
  8
MY3DLAYER
10
136.47239440292935
20
154.8550434781759
30
0.0
 70
     32
  0
VERTEX
  8
MY3DLAYER
10
136.05134924785193
20
155.07535169874077
30
0.0
 70
     32
  0
VERTEX
  8
MY3DLAYER
10
135.63375759671877
20
155.28184577300013
30
0.0
 70
     32
  0
VERTEX
  8
MY3DLAYER
10
135.2317068112315
20
155.47020875575936
30
0.0
 70
     32
  0
VERTEX
  8
MY3DLAYER
10
134.8572842530914
20
155.63612370182406
30
0.0
 70
     32
  0
VERTEX
  8
MY3DLAYER
10
134.52257728400005
20
155.77527366600003
30
0.0
 70
     32
  0
VERTEX
  8
MY3DLAYER
10
134.1750655072767
20
155.89441973699763
30
0.0
 70
     32
  0
VERTEX
  8
MY3DLAYER
10
133.7524388123796
20
156.00320562248146
30
0.0
 70
     32
  0
VERTEX
  8
MY3DLAYER
10
133.25210703871878
20
156.10163125718748
30
0.0
 70
     32
  0
VERTEX
  8
MY3DLAYER
10
132.6714800257037
20
156.18969657585177
30
0.0
 70
     32
  0
VERTEX
  8
MY3DLAYER
10
132.00796761274418
20
156.2674015132107
30
0.0
 70
     32
  0
VERTEX
  8
MY3DLAYER
10
131.25897963925004
20
156.33474600399992
30
0.0
 70
     32
  0
VERTEX
  8
MY3DLAYER
10
130.4219259446308
20
156.39172998295606
30
0.0
 70
     32
  0
VERTEX
  8
MY3DLAYER
10
129.4942163682963
20
156.43835338481475
30
0.0
 70
     32
  0
VERTEX
  8
MY3DLAYER
10
128.4732607496562
20
156.47461614431248
30
0.0
 70
     32
  0
VERTEX
  8
MY3DLAYER
10
127.3564689281204
20
156.5005181961851
30
0.0
 70
     32
  0
VERTEX
  8
MY3DLAYER
10
126.14125074309835
20
156.51605947516896
30
0.0
 70
     32
  0
VERTEX
  8
MY3DLAYER
10
124.825016034
20
156.52123991599996
30
0.0
 70
     32
  0
VERTEX
  8
MY3DLAYER
10
123.46604654677314
20
156.53634918610987
30
0.0
 70
     32
  0
VERTEX
  8
MY3DLAYER
10
122.2417651491852
20
156.57995022271294
30
0.0
 70
     32
  0
VERTEX
  8
MY3DLAYER
10
121.14181119887503
20
156.64945286521893
30
0.0
 70
     32
  0
VERTEX
  8
MY3DLAYER
10
120.15582405348147
20
156.74226695303722
30
0.0
 70
     32
  0
VERTEX
  8
MY3DLAYER
10
119.27344307064357
20
156.85580232557774
30
0.0
 70
     32
  0
VERTEX
  8
MY3DLAYER
10
118.48430760800007
20
156.98746882225012
30
0.0
 70
     32
  0
VERTEX
  8
MY3DLAYER
10
117.7780570231898
20
157.1346762824643
30
0.0
 70
     32
  0
VERTEX
  8
MY3DLAYER
10
117.14433067385188
20
157.2948345456298
30
0.0
 70
     32
  0
VERTEX
  8
MY3DLAYER
10
116.57276791762497
20
157.4653534511564
30
0.0
 70
     32
  0
VERTEX
  8
MY3DLAYER
10
116.05300811214825
20
157.64364283845393
30
0.0
 70
     32
  0
VERTEX
  8
MY3DLAYER
10
115.57469061506018
20
157.82711254693183
30
0.0
 70
     32
  0
VERTEX
  8
MY3DLAYER
10
115.12745478399998
20
158.01317241600023
30
0.0
 70
     32
  0
VERTEX
  8
MY3DLAYER
10
114.7651201586204
20
158.21880232566812
30
0.0
 70
     32
  0
VERTEX
  8
MY3DLAYER
10
114.42523370046302
20
158.45637744050944
30
0.0
 70
     32
  0
VERTEX
  8
MY3DLAYER
10
114.1095221615
20
158.71640052678129
30
0.0
 70
     32
  0
VERTEX
  8
MY3DLAYER
10
113.81971229370382
20
158.98937435074095
30
0.0
 70
     32
  0
VERTEX
  8
MY3DLAYER
10
113.55753084904632
20
159.26580167864486
30
0.0
 70
     32
  0
VERTEX
  8
MY3DLAYER
10
113.32470457950004
20
159.5361852767501
30
0.0
 70
     32
  0
VERTEX
  8
MY3DLAYER
10
113.1229602370371
20
159.79102791131388
30
0.0
 70
     32
  0
VERTEX
  8
MY3DLAYER
10
112.95402457362968
20
160.02083234859268
30
0.0
 70
     32
  0
VERTEX
  8
MY3DLAYER
10
112.81962434125
20
160.21610135484394
30
0.0
 70
     32
  0
VERTEX
  8
MY3DLAYER
10
112.72148629187043
20
160.36733769632426
30
0.0
 70
     32
  0
VERTEX
  8
MY3DLAYER
10
112.66133717746297
20
160.46504413929065
30
0.0
 70
     32
  0
VERTEX
  8
MY3DLAYER
10
112.64090375000004
20
160.49972345000015
30
0.0
 70
     32
  0
VERTEX
  8
MY3DLAYER
10
111.497922720919
20
161.23043653389252
30
0.0
 70
     32
  0
VERTEX
  8
MY3DLAYER
10
110.54229676085187
20
161.93179447530568
30
0.0
 70
     32
  0
VERTEX
  8
MY3DLAYER
10
109.75416796106254
20
162.60552405884394
30
0.0
 70
     32
  0
VERTEX
  8
MY3DLAYER
10
109.1136784128149
20
163.2533520691113
30
0.0
 70
     32
  0
VERTEX
  8
MY3DLAYER
10
108.60097020737271
20
163.8770052907119
30
0.0
 70
     32
  0
VERTEX
  8
MY3DLAYER
10
108.19618543600004
20
164.47821050825024
30
0.0
 70
     32
  0
VERTEX
  8
MY3DLAYER
10
107.87946618996068
20
165.05869450633008
30
0.0
 70
     32
  0
VERTEX
  8
MY3DLAYER
10
107.63095456051853
20
165.6201840695558
30
0.0
 70
     32
  0
VERTEX
  8
MY3DLAYER
10
107.43079263893753
20
166.16440598253152
30
0.0
 70
     32
  0
VERTEX
  8
MY3DLAYER
10
107.25912251648151
20
166.69308702986126
30
0.0
 70
     32
  0
VERTEX
  8
MY3DLAYER
10
107.09608628441435
20
167.20795399614946
30
0.0
 70
     32
  0
VERTEX
  8
MY3DLAYER
10
106.92182603400003
20
167.71073366600024
30
0.0
 70
     32
  0
VERTEX
  8
MY3DLAYER
10
106.73547837293636
20
168.3110739520963
30
0.0
 70
     32
  0
VERTEX
  8
MY3DLAYER
10
106.54999412049078
20
169.0944525904354
30
0.0
 70
     32
  0
VERTEX
  8
MY3DLAYER
10
106.36623668528131
20
170.02633405209406
30
0.0
 70
     32
  0
VERTEX
  8
MY3DLAYER
10
106.18506947592597
20
171.07218280814826
30
0.0
 70
     32
  0
VERTEX
  8
MY3DLAYER
10
106.00735590104284
20
172.19746332967492
30
0.0
 70
     32
  0
VERTEX
  8
MY3DLAYER
10
105.83395936925005
20
173.3676400877503
30
0.0
 70
     32
  0
VERTEX
  8
MY3DLAYER
10
105.66574328916553
20
174.54817755345042
30
0.0
 70
     32
  0
VERTEX
  8
MY3DLAYER
10
105.5035710694074
20
175.70454019785205
30
0.0
 70
     32
  0
VERTEX
  8
MY3DLAYER
10
105.34830611859375
20
176.80219249203157
30
0.0
 70
     32
  0
VERTEX
  8
MY3DLAYER
10
105.20081184534261
20
177.80659890706508
30
0.0
 70
     32
  0
VERTEX
  8
MY3DLAYER
10
105.06195165827204
20
178.68322391402913
30
0.0
 70
     32
  0
VERTEX
  8
MY3DLAYER
10
104.93258896600003
20
179.39753198400032
30
0.0
 70
     32
  0
VERTEX
  8
MY3DLAYER
10
104.78336627654747
20
180.01399164029195
30
0.0
 70
     32
  0
VERTEX
  8
MY3DLAYER
10
104.58838430087974
20
180.62009039316692
30
0.0
 70
     32
  0
VERTEX
  8
MY3DLAYER
10
104.35368670353135
20
181.2158282426252
30
0.0
 70
     32
  0
VERTEX
  8
MY3DLAYER
10
104.08531714903712
20
181.80120518866687
30
0.0
 70
     32
  0
VERTEX
  8
MY3DLAYER
10
103.78931930193177
20
182.37622123129194
30
0.0
 70
     32
  0
VERTEX
  8
MY3DLAYER
10
103.47173682675007
20
182.9408763705003
30
0.0
 70
     32
  0
VERTEX
  8
MY3DLAYER
10
103.13861338802667
20
183.49517060629188
30
0.0
 70
     32
  0
VERTEX
  8
MY3DLAYER
10
102.79599265029641
20
184.039103938667
30
0.0
 70
     32
  0
VERTEX
  8
MY3DLAYER
10
102.4499182780939
20
184.57267636762526
30
0.0
 70
     32
  0
VERTEX
  8
MY3DLAYER
10
102.10643393595385
20
185.09588789316697
30
0.0
 70
     32
  0
VERTEX
  8
MY3DLAYER
10
101.77158328841101
20
185.60873851529186
30
0.0
 70
     32
  0
VERTEX
  8
MY3DLAYER
10
101.45141000000014
20
186.11122823400035
30
0.0
 70
     32
  0
VERTEX
  8
MY3DLAYER
10
101.01986046428482
20
186.60767645819817
30
0.0
 70
     32
  0
VERTEX
  8
MY3DLAYER
10
100.48556788094452
20
187.0989443285837
30
0.0
 70
     32
  0
VERTEX
  8
MY3DLAYER
10
99.87011691068761
20
187.57985149134413
30
0.0
 70
     32
  0
VERTEX
  8
MY3DLAYER
10
99.1950922142223
20
188.0452175926671
30
0.0
 70
     32
  0
VERTEX
  8
MY3DLAYER
10
98.482078452257
20
188.48986227873974
30
0.0
 70
     32
  0
VERTEX
  8
MY3DLAYER
10
97.75266028550018
20
188.90860519575037
30
0.0
 70
     32
  0
VERTEX
  8
MY3DLAYER
10
97.02842237465985
20
189.29626598988568
30
0.0
 70
     32
  0
VERTEX
  8
MY3DLAYER
10
96.33094938044455
20
189.64766430733374
30
0.0
 70
     32
  0
VERTEX
  8
MY3DLAYER
10
95.6818259635626
20
189.9576197942815
30
0.0
 70
     32
  0
VERTEX
  8
MY3DLAYER
10
95.10263678472232
20
190.22095209691705
30
0.0
 70
     32
  0
VERTEX
  8
MY3DLAYER
10
94.61496650463206
20
190.43248086142736
30
0.0
 70
     32
  0
VERTEX
  8
MY3DLAYER
10
94.2403997840001
20
190.58702573400035
30
0.0
 70
     32
  0
VERTEX
  8
MY3DLAYER
10
93.80683711836812
20
190.73092426609975
30
0.0
 70
     32
  0
VERTEX
  8
MY3DLAYER
10
93.15483732611125
20
190.90935816396328
30
0.0
 70
     32
  0
VERTEX
  8
MY3DLAYER
10
92.32497960068754
20
191.1154203544378
30
0.0
 70
     32
  0
VERTEX
  8
MY3DLAYER
10
91.35784313555565
20
191.34220376437065
30
0.0
 70
     32
  0
VERTEX
  8
MY3DLAYER
10
90.29400712417372
20
191.58280132060904
30
0.0
 70
     32
  0
VERTEX
  8
MY3DLAYER
10
89.17405076000014
20
191.83030595000025
30
0.0
 70
     32
  0
VERTEX
  8
MY3DLAYER
10
88.03855323649314
20
192.07781057939152
30
0.0
 70
     32
  0
VERTEX
  8
MY3DLAYER
10
86.92809374711122
20
192.31840813562994
30
0.0
 70
     32
  0
VERTEX
  8
MY3DLAYER
10
85.88325148531257
20
192.54519154556274
30
0.0
 70
     32
  0
VERTEX
  8
MY3DLAYER
10
84.94460564455568
20
192.75125373603726
30
0.0
 70
     32
  0
VERTEX
  8
MY3DLAYER
10
84.15273541829873
20
192.9296876339008
30
0.0
 70
     32
  0
VERTEX
  8
MY3DLAYER
10
83.54822000000009
20
193.0735861660004
30
0.0
 70
     32
  0
VERTEX
  8
MY3DLAYER
10
83.04155514908922
20
193.1754650979818
30
0.0
 70
     32
  0
VERTEX
  8
MY3DLAYER
10
82.52021293904643
20
193.34986865701885
30
0.0
 70
     32
  0
VERTEX
  8
MY3DLAYER
10
81.99023703440638
20
193.58643620075026
30
0.0
 70
     32
  0
VERTEX
  8
MY3DLAYER
10
81.4576710997038
20
193.87480708681503
30
0.0
 70
     32
  0
VERTEX
  8
MY3DLAYER
10
80.92855879947349
20
194.20462067285206
30
0.0
 70
     32
  0
VERTEX
  8
MY3DLAYER
10
80.40894379825008
20
194.56551631650024
30
0.0
 70
     32
  0
VERTEX
  8
MY3DLAYER
10
79.90486976056837
20
194.94713337539835
30
0.0
 70
     32
  0
VERTEX
  8
MY3DLAYER
10
79.42238035096305
20
195.3391112071855
30
0.0
 70
     32
  0
VERTEX
  8
MY3DLAYER
10
78.96751923396886
20
195.73108916950034
30
0.0
 70
     32
  0
VERTEX
  8
MY3DLAYER
10
78.54633007412046
20
196.1127066199817
30
0.0
 70
     32
  0
VERTEX
  8
MY3DLAYER
10
78.1648565359526
20
196.47360291626876
30
0.0
 70
     32
  0
VERTEX
  8
MY3DLAYER
10
77.82914228399999
20
196.80341741600043
30
0.0
 70
     32
  0
VERTEX
  8
MY3DLAYER
10
77.51904388001272
20
197.14776343726535
30
0.0
 70
     32
  0
VERTEX
  8
MY3DLAYER
10
77.21326206226848
20
197.54822984395395
30
0.0
 70
     32
  0
VERTEX
  8
MY3DLAYER
10
76.91611380859379
20
197.98841226390658
30
0.0
 70
     32
  0
VERTEX
  8
MY3DLAYER
10
76.63191609681482
20
198.45190632496343
30
0.0
 70
     32
  0
VERTEX
  8
MY3DLAYER
10
76.36498590475816
20
198.9223076549645
30
0.0
 70
     32
  0
VERTEX
  8
MY3DLAYER
10
76.11964021024997
20
199.3832118817502
30
0.0
 70
     32
  0
VERTEX
  8
MY3DLAYER
10
75.90019599111695
20
199.81821463316112
30
0.0
 70
     32
  0
VERTEX
  8
MY3DLAYER
10
75.71097022518528
20
200.21091153703736
30
0.0
 70
     32
  0
VERTEX
  8
MY3DLAYER
10
75.55627989028129
20
200.5448982212192
30
0.0
 70
     32
  0
VERTEX
  8
MY3DLAYER
10
75.44044196423157
20
200.80377031354666
30
0.0
 70
     32
  0
VERTEX
  8
MY3DLAYER
10
75.36777342486228
20
200.9711234418603
30
0.0
 70
     32
  0
VERTEX
  8
MY3DLAYER
10
75.34259125000005
20
201.0305532340003
30
0.0
 70
     32
  0
VERTEX
  8
MY3DLAYER
10
77.09123434039813
20
200.50677101925973
30
0.0
 70
     32
  0
VERTEX
  8
MY3DLAYER
10
77.11037281809378
20
200.4671986409378
30
0.0
 70
     32
  0
VERTEX
  8
MY3DLAYER
10
77.1476424851852
20
200.40431471940784
30
0.0
 70
     32
  0
VERTEX
  8
MY3DLAYER
10
77.20908707147105
20
200.31380237473874
30
0.0
 70
     32
  0
VERTEX
  8
MY3DLAYER
10
77.30075030675003
20
200.1913447270003
30
0.0
 70
     32
  0
VERTEX
  8
MY3DLAYER
10
77.4286759208206
20
200.0326248962619
30
0.0
 70
     32
  0
VERTEX
  8
MY3DLAYER
10
77.59890764348147
20
199.83332600259288
30
0.0
 70
     32
  0
VERTEX
  8
MY3DLAYER
10
77.81748920453126
20
199.58913116606294
30
0.0
 70
     32
  0
VERTEX
  8
MY3DLAYER
10
78.09046433376857
20
199.2957235067412
30
0.0
 70
     32
  0
VERTEX
  8
MY3DLAYER
10
78.42387676099197
20
198.9487861446971
30
0.0
 70
     32
  0
VERTEX
  8
MY3DLAYER
10
78.82377021600006
20
198.5440022000003
30
0.0
 70
     32
  0
VERTEX
  8
MY3DLAYER
10
79.30107853213553
20
198.11921652127228
30
0.0
 70
     32
  0
VERTEX
  8
MY3DLAYER
10
79.86558903025006
20
197.71515189884292
30
0.0
 70
     32
  0
VERTEX
  8
MY3DLAYER
10
80.52161862290632
20
197.33180836534405
30
0.0
 70
     32
  0
VERTEX
  8
MY3DLAYER
10
81.27348422266675
20
196.96918595340784
30
0.0
 70
     32
  0
VERTEX
  8
MY3DLAYER
10
82.12550274209387
20
196.62728469566594
30
0.0
 70
     32
  0
VERTEX
  8
MY3DLAYER
10
83.0819910937501
20
196.30610462475036
30
0.0
 70
     32
  0
VERTEX
  8
MY3DLAYER
10
84.14726619019802
20
196.0056457732931
30
0.0
 70
     32
  0
VERTEX
  8
MY3DLAYER
10
85.32564494400016
20
195.7259081739263
30
0.0
 70
     32
  0
VERTEX
  8
MY3DLAYER
10
86.62144426771883
20
195.4668918592816
30
0.0
 70
     32
  0
VERTEX
  8
MY3DLAYER
10
88.03898107391677
20
195.22859686199098
30
0.0
 70
     32
  0
VERTEX
  8
MY3DLAYER
10
89.58257227515632
20
195.01102321468656
30
0.0
 70
     32
  0
VERTEX
  8
MY3DLAYER
10
91.2565347840001
20
194.81417095000026
30
0.0
 70
     32
  0
VERTEX
  8
MY3DLAYER
10
92.90100040263668
20
194.60321669806513
30
0.0
 70
     32
  0
VERTEX
  8
MY3DLAYER
10
94.36242776692602
20
194.34909299418553
30
0.0
 70
     32
  0
VERTEX
  8
MY3DLAYER
10
95.65463108843757
20
194.06043372875033
30
0.0
 70
     32
  0
VERTEX
  8
MY3DLAYER
10
96.79142457874086
20
193.74587279214842
30
0.0
 70
     32
  0
VERTEX
  8
MY3DLAYER
10
97.78662244940521
20
193.41404407476873
30
0.0
 70
     32
  0
VERTEX
  8
MY3DLAYER
10
98.65403891200012
20
193.07358146700028
30
0.0
 70
     32
  0
VERTEX
  8
MY3DLAYER
10
99.40748817809504
20
192.7331188592318
30
0.0
 70
     32
  0
VERTEX
  8
MY3DLAYER
10
100.06078445925945
20
192.40129014185214
30
0.0
 70
     32
  0
VERTEX
  8
MY3DLAYER
10
100.62774196706265
20
192.08672920525018
30
0.0
 70
     32
  0
VERTEX
  8
MY3DLAYER
10
101.12217491307423
20
191.79806993981504
30
0.0
 70
     32
  0
VERTEX
  8
MY3DLAYER
10
101.55789750886352
20
191.54394623593552
30
0.0
 70
     32
  0
VERTEX
  8
MY3DLAYER
10
101.94872396600012
20
191.3329919840003
30
0.0
 70
     32
  0
VERTEX
  8
MY3DLAYER
10
102.36545202360081
20
191.08232206143663
30
0.0
 70
     32
  0
VERTEX
  8
MY3DLAYER
10
102.8581581143057
20
190.71595841882439
30
0.0
 70
     32
  0
VERTEX
  8
MY3DLAYER
10
103.40957448996885
20
190.2528955562816
30
0.0
 70
     32
  0
VERTEX
  8
MY3DLAYER
10
104.00243340244452
20
189.71212797392624
30
0.0
 70
     32
  0
VERTEX
  8
MY3DLAYER
10
104.61946710358686
20
189.11265017187648
30
0.0
 70
     32
  0
VERTEX
  8
MY3DLAYER
10
105.24340784524999
20
188.47345665025028
30
0.0
 70
     32
  0
VERTEX
  8
MY3DLAYER
10
105.85698787928816
20
187.81354190916585
30
0.0
 70
     32
  0
VERTEX
  8
MY3DLAYER
10
106.44293945755557
20
187.15190044874103
30
0.0
 70
     32
  0
VERTEX
  8
MY3DLAYER
10
106.98399483190632
20
186.50752676909386
30
0.0
 70
     32
  0
VERTEX
  8
MY3DLAYER
10
107.46288625419449
20
185.8994153703429
30
0.0
 70
     32
  0
VERTEX
  8
MY3DLAYER
10
107.86234597627434
20
185.34656075260568
30
0.0
 70
     32
  0
VERTEX
  8
MY3DLAYER
10
108.16510625000002
20
184.8679574160003
30
0.0
 70
     32
  0
VERTEX
  8
MY3DLAYER
10
108.42800695166086
20
184.2710679199585
30
0.0
 70
     32
  0
VERTEX
  8
MY3DLAYER
10
108.71421942495375
20
183.38753433333355
30
0.0
 70
     32
  0
VERTEX
  8
MY3DLAYER
10
109.0159731228438
20
182.27261337187528
30
0.0
 70
     32
  0
VERTEX
  8
MY3DLAYER
10
109.32549749829636
20
180.98156175133352
30
0.0
 70
     32
  0
VERTEX
  8
MY3DLAYER
10
109.63502200427669
20
179.5696361874585
30
0.0
 70
     32
  0
VERTEX
  8
MY3DLAYER
10
109.93677609375003
20
178.09209339600022
30
0.0
 70
     32
  0
VERTEX
  8
MY3DLAYER
10
110.22298921968172
20
176.60419009270862
30
0.0
 70
     32
  0
VERTEX
  8
MY3DLAYER
10
110.48589083503711
20
175.1611829933335
30
0.0
 70
     32
  0
VERTEX
  8
MY3DLAYER
10
110.71771039278134
20
173.81832881362513
30
0.0
 70
     32
  0
VERTEX
  8
MY3DLAYER
10
110.9106773458797
20
172.63088426933362
30
0.0
 70
     32
  0
VERTEX
  8
MY3DLAYER
10
111.05702114729743
20
171.6541060762086
30
0.0
 70
     32
  0
VERTEX
  8
MY3DLAYER
10
111.14897125000002
20
170.94325095000022
30
0.0
 70
     32
  0
VERTEX
  8
MY3DLAYER
10
111.22710716288778
20
170.37945938800826
30
0.0
 70
     32
  0
VERTEX
  8
MY3DLAYER
10
111.33891548976857
20
169.81048760273174
30
0.0
 70
     32
  0
VERTEX
  8
MY3DLAYER
10
111.48698632596881
20
169.24151588271894
30
0.0
 70
     32
  0
VERTEX
  8
MY3DLAYER
10
111.67390976681484
20
168.67772451651868
30
0.0
 70
     32
  0
VERTEX
  8
MY3DLAYER
10
111.90227590763313
20
168.12429379267965
30
0.0
 70
     32
  0
VERTEX
  8
MY3DLAYER
10
112.17467484374991
20
167.58640399975008
30
0.0
 70
     32
  0
VERTEX
  8
MY3DLAYER
10
112.49369667049193
20
167.06923542627908
30
0.0
 70
     32
  0
VERTEX
  8
MY3DLAYER
10
112.86193148318524
20
166.57796836081496
30
0.0
 70
     32
  0
VERTEX
  8
MY3DLAYER
10
113.28196937715624
20
166.11778309190646
30
0.0
 70
     32
  0
VERTEX
  8
MY3DLAYER
10
113.75640044773145
20
165.69385990810198
30
0.0
 70
     32
  0
VERTEX
  8
MY3DLAYER
10
114.28781479023723
20
165.31137909795044
30
0.0
 70
     32
  0
VERTEX
  8
MY3DLAYER
10
114.87880250000008
20
164.9755209500001
30
0.0
 70
     32
  0
VERTEX
  8
MY3DLAYER
10
115.50015264598036
20
164.68988307630113
30
0.0
 70
     32
  0
VERTEX
  8
MY3DLAYER
10
116.11977633367593
20
164.45173159974095
30
0.0
 70
     32
  0
VERTEX
  8
MY3DLAYER
10
116.7359467132188
20
164.25674957512527
30
0.0
 70
     32
  0
VERTEX
  8
MY3DLAYER
10
117.34693693474078
20
164.10062005725942
30
0.0
 70
     32
  0
VERTEX
  8
MY3DLAYER
10
117.95102014837391
20
163.97902610094926
30
0.0
 70
     32
  0
VERTEX
  8
MY3DLAYER
10
118.54646950424998
20
163.8876507610002
30
0.0
 70
     32
  0
VERTEX
  8
MY3DLAYER
10
119.13155815250116
20
163.82217709221788
30
0.0
 70
     32
  0
VERTEX
  8
MY3DLAYER
10
119.7045592432593
20
163.77828814940762
30
0.0
 70
     32
  0
VERTEX
  8
MY3DLAYER
10
120.26374592665633
20
163.75166698737522
30
0.0
 70
     32
  0
VERTEX
  8
MY3DLAYER
10
120.80739135282413
20
163.7379966609262
30
0.0
 70
     32
  0
VERTEX
  8
MY3DLAYER
10
121.33376867189467
20
163.7329602248659
30
0.0
 70
     32
  0
VERTEX
  8
MY3DLAYER
10
121.84115103400005
20
163.7322407340002
30
0.0
 70
     32
  0
VERTEX
  8
MY3DLAYER
10
122.36177397072338
20
163.72245580615765
30
0.0
 70
     32
  0
VERTEX
  8
MY3DLAYER
10
122.918658927287
20
163.6954033585928
30
0.0
 70
     32
  0
VERTEX
  8
MY3DLAYER
10
123.4962649727813
20
163.65453689525026
30
0.0
 70
     32
  0
VERTEX
  8
MY3DLAYER
10
124.0790511762963
20
163.60330992007417
30
0.0
 70
     32
  0
VERTEX
  8
MY3DLAYER
10
124.65147660692253
20
163.54517593700947
30
0.0
 70
     32
  0
VERTEX
  8
MY3DLAYER
10
125.19800033374995
20
163.48358845000016
30
0.0
 70
     32
  0
VERTEX
  8
MY3DLAYER
10
125.70308142586924
20
163.42200096299098
30
0.0
 70
     32
  0
VERTEX
  8
MY3DLAYER
10
126.15117895237049
20
163.3638669799262
30
0.0
 70
     32
  0
VERTEX
  8
MY3DLAYER
10
126.52675198234381
20
163.31264000475022
30
0.0
 70
     32
  0
VERTEX
  8
MY3DLAYER
10
126.81425958487966
20
163.2717735414076
30
0.0
 70
     32
  0
VERTEX
  8
MY3DLAYER
10
126.99816082906831
20
163.24472109384274
30
0.0
 70
     32
  0
VERTEX
  8
MY3DLAYER
10
127.06291478399997
20
163.23493616600018
30
0.0
 70
     32
  0
VERTEX
  8
MY3DLAYER
10
127.0424813565371
20
163.26126934568424
30
0.0
 70
     32
  0
VERTEX
  8
MY3DLAYER
10
126.98233224212967
20
163.3419957019724
30
0.0
 70
     32
  0
VERTEX
  8
MY3DLAYER
10
126.88419419275004
20
163.47970546071892
30
0.0
 70
     32
  0
VERTEX
  8
MY3DLAYER
10
126.74979396037037
20
163.67698884777803
30
0.0
 70
     32
  0
VERTEX
  8
MY3DLAYER
10
126.58085829696302
20
163.93643608900368
30
0.0
 70
     32
  0
VERTEX
  8
MY3DLAYER
10
126.37911395450011
20
164.26063741025015
30
0.0
 70
     32
  0
VERTEX
  8
MY3DLAYER
10
126.14628768495375
20
164.6521830373717
30
0.0
 70
     32
  0
VERTEX
  8
MY3DLAYER
10
125.88410624029628
20
165.11366319622246
30
0.0
 70
     32
  0
VERTEX
  8
MY3DLAYER
10
125.5942963725001
20
165.64766811265645
30
0.0
 70
     32
  0
VERTEX
  8
MY3DLAYER
10
125.27858483353701
20
166.256788012528
30
0.0
 70
     32
  0
VERTEX
  8
MY3DLAYER
10
124.9386983753796
20
166.94361312169113
30
0.0
 70
     32
  0
VERTEX
  8
MY3DLAYER
10
124.57636375000003
20
167.71073366600024
30
0.0
 70
     32
  0
VERTEX
  8
MY3DLAYER
10
124.23877942657526
20
168.5244751267016
30
0.0
 70
     32
  0
VERTEX
  8
MY3DLAYER
10
123.96853918060185
20
169.3511676187779
30
0.0
 70
     32
  0
VERTEX
  8
MY3DLAYER
10
123.76046272353122
20
170.19340127018768
30
0.0
 70
     32
  0
VERTEX
  8
MY3DLAYER
10
123.6093697668149
20
171.05376620888904
30
0.0
 70
     32
  0
VERTEX
  8
MY3DLAYER
10
123.51008002190393
20
171.93485256284058
30
0.0
 70
     32
  0
VERTEX
  8
MY3DLAYER
10
123.45741320024996
20
172.8392504600001
30
0.0
 70
     32
  0
VERTEX
  8
MY3DLAYER
10
123.44618901330439
20
173.76955002832656
30
0.0
 70
     32
  0
VERTEX
  8
MY3DLAYER
10
123.47122717251854
20
174.72834139577807
30
0.0
 70
     32
  0
VERTEX
  8
MY3DLAYER
10
123.52734738934379
20
175.7182146903127
30
0.0
 70
     32
  0
VERTEX
  8
MY3DLAYER
10
123.60936937523152
20
176.74176003988913
30
0.0
 70
     32
  0
VERTEX
  8
MY3DLAYER
10
123.71211284163314
20
177.80156757246547
30
0.0
 70
     32
  0
VERTEX
  8
MY3DLAYER
10
123.83039750000006
20
178.90022741600026
30
0.0
 70
     32
  0
VERTEX
  8
MY3DLAYER
10
123.95933065798728
20
179.94809121094
30
0.0
 70
     32
  0
VERTEX
  8
MY3DLAYER
10
124.09517079123154
20
180.8595397726854
30
0.0
 70
     32
  0
VERTEX
  8
MY3DLAYER
10
124.23446436315625
20
181.64320699162508
30
0.0
 70
     32
  0
VERTEX
  8
MY3DLAYER
10
124.37375783718524
20
182.30772675814833
30
0.0
 70
     32
  0
VERTEX
  8
MY3DLAYER
10
124.50959767674196
20
182.86173296264366
30
0.0
 70
     32
  0
VERTEX
  8
MY3DLAYER
10
124.63853034524999
20
183.31385949550022
30
0.0
 70
     32
  0
VERTEX
  8
MY3DLAYER
10
124.75710230613315
20
183.67274024710676
30
0.0
 70
     32
  0
VERTEX
  8
MY3DLAYER
10
124.86186002281487
20
183.9470091078521
30
0.0
 70
     32
  0
VERTEX
  8
MY3DLAYER
10
124.94934995871878
20
184.14529996812527
30
0.0
 70
     32
  0
VERTEX
  8
MY3DLAYER
10
125.0161185772685
20
184.27624671831506
30
0.0
 70
     32
  0
VERTEX
  8
MY3DLAYER
10
125.0587123418877
20
184.34848324881045
30
0.0
 70
     32
  0
VERTEX
  8
MY3DLAYER
10
125.07367771600003
20
184.37064345000027
30
0.0
 70
     32
  0
VERTEX
  8
MY3DLAYER
10
124.9499254774456
20
184.37582371135554
30
0.0
 70
     32
  0
VERTEX
  8
MY3DLAYER
10
124.60169244773148
20
184.3913645171762
30
0.0
 70
     32
  0
VERTEX
  8
MY3DLAYER
10
124.06351415578123
20
184.4172659000939
30
0.0
 70
     32
  0
VERTEX
  8
MY3DLAYER
10
123.3699261305186
20
184.45352789274108
30
0.0
 70
     32
  0
VERTEX
  8
MY3DLAYER
10
122.55546390086688
20
184.5001505277491
30
0.0
 70
     32
  0
VERTEX
  8
MY3DLAYER
10
121.65466299575002
20
184.55713383775017
30
0.0
 70
     32
  0
VERTEX
  8
MY3DLAYER
10
120.70205894409143
20
184.62447785537648
30
0.0
 70
     32
  0
VERTEX
  8
MY3DLAYER
10
119.73218727481478
20
184.7021826132596
30
0.0
 70
     32
  0
VERTEX
  8
MY3DLAYER
10
118.77958351684377
20
184.79024814403147
30
0.0
 70
     32
  0
VERTEX
  8
MY3DLAYER
10
117.87878319910186
20
184.88867448032428
30
0.0
 70
     32
  0
VERTEX
  8
MY3DLAYER
10
117.06432185051273
20
184.99746165476986
30
0.0
 70
     32
  0
VERTEX
  8
MY3DLAYER
10
116.370735
20
185.11660970000034
30
0.0
 70
     32
  0
VERTEX
  8
MY3DLAYER
10
115.69110624073845
20
185.2750419073417
30
0.0
 70
     32
  0
VERTEX
  8
MY3DLAYER
10
114.91218767674074
20
185.49304767773182
30
0.0
 70
     32
  0
VERTEX
  8
MY3DLAYER
10
114.05901760318751
20
185.75767620821912
30
0.0
 70
     32
  0
VERTEX
  8
MY3DLAYER
10
113.15663431525927
20
186.05597669585214
30
0.0
 70
     32
  0
VERTEX
  8
MY3DLAYER
10
112.2300761081366
20
186.37499833767959
30
0.0
 70
     32
  0
VERTEX
  8
MY3DLAYER
10
111.30438127700005
20
186.70179033075033
30
0.0
 70
     32
  0
VERTEX
  8
MY3DLAYER
10
110.40458811703013
20
187.0234018721126
30
0.0
 70
     32
  0
VERTEX
  8
MY3DLAYER
10
109.55573492340741
20
187.32688215881512
30
0.0
 70
     32
  0
VERTEX
  8
MY3DLAYER
10
108.78285999131249
20
187.5992803879065
30
0.0
 70
     32
  0
VERTEX
  8
MY3DLAYER
10
108.111001615926
20
187.82764575643546
30
0.0
 70
     32
  0
VERTEX
  8
MY3DLAYER
10
107.56519809242828
20
187.99902746145048
30
0.0
 70
     32
  0
VERTEX
  8
MY3DLAYER
10
107.17048771600003
20
188.10047470000026
30
0.0
 70
     32
  0
VERTEX
  8
MY3DLAYER
10
106.89463495505785
20
188.17227898775954
30
0.0
 70
     32
  0
VERTEX
  8
MY3DLAYER
10
106.6835364372963
20
188.2604877455743
30
0.0
 70
     32
  0
VERTEX
  8
MY3DLAYER
10
106.52942164831254
20
188.36078402825032
30
0.0
 70
     32
  0
VERTEX
  8
MY3DLAYER
10
106.42452007370377
20
188.4688508905928
30
0.0
 70
     32
  0
VERTEX
  8
MY3DLAYER
10
106.36106119906715
20
188.5803713874077
30
0.0
 70
     32
  0
VERTEX
  8
MY3DLAYER
10
106.33127451000006
20
188.69102857350032
30
0.0
 70
     32
  0
VERTEX
  8
MY3DLAYER
10
106.32738949209957
20
188.79650550367612
30
0.0
 70
     32
  0
VERTEX
  8
MY3DLAYER
10
106.34163563096301
20
188.89248523274102
30
0.0
 70
     32
  0
VERTEX
  8
MY3DLAYER
10
106.36624241218749
20
188.9746508155003
30
0.0
 70
     32
  0
VERTEX
  8
MY3DLAYER
10
106.39343932137044
20
189.03868530675962
30
0.0
 70
     32
  0
VERTEX
  8
MY3DLAYER
10
106.42452146600002
20
189.09509323400027
30
0.0
 70
     32
  0
VERTEX
  8
MY3DLAYER
10
106.45430831278823
20
189.08530830615766
30
0.0
 70
     32
  0
VERTEX
  8
MY3DLAYER
10
106.53848853197223
20
189.0582558585929
30
0.0
 70
     32
  0
VERTEX
  8
MY3DLAYER
10
106.66929164178129
20
189.01738939525032
30
0.0
 70
     32
  0
VERTEX
  8
MY3DLAYER
10
106.8389471604445
20
188.96616242007437
30
0.0
 70
     32
  0
VERTEX
  8
MY3DLAYER
10
107.03968460619095
20
188.9080284370096
30
0.0
 70
     32
  0
VERTEX
  8
MY3DLAYER
10
107.26373349725002
20
188.84644095000024
30
0.0
 70
     32
  0
VERTEX
  8
MY3DLAYER
10
107.50332335185078
20
188.78485346299112
30
0.0
 70
     32
  0
VERTEX
  8
MY3DLAYER
10
107.75068368822224
20
188.7267194799263
30
0.0
 70
     32
  0
VERTEX
  8
MY3DLAYER
10
107.99804402459378
20
188.6754925047503
30
0.0
 70
     32
  0
VERTEX
  8
MY3DLAYER
10
108.23763387919446
20
188.63462604140764
30
0.0
 70
     32
  0
VERTEX
  8
MY3DLAYER
10
108.46168277025347
20
188.60757359384277
30
0.0
 70
     32
  0
VERTEX
  8
MY3DLAYER
10
108.66242021600002
20
188.59778866600033
30
0.0
 70
     32
  0
VERTEX
  8
MY3DLAYER
10
108.96733967478704
20
188.56828961120743
30
0.0
 70
     32
  0
VERTEX
  8
MY3DLAYER
10
109.485515677963
20
188.48612393599097
30
0.0
 70
     32
  0
VERTEX
  8
MY3DLAYER
10
110.18154935325003
20
188.3607888740941
30
0.0
 70
     32
  0
VERTEX
  8
MY3DLAYER
10
111.02004182837034
20
188.20178165925955
30
0.0
 70
     32
  0
VERTEX
  8
MY3DLAYER
10
111.9655942310463
20
188.01859952523057
30
0.0
 70
     32
  0
VERTEX
  8
MY3DLAYER
10
112.98280768900004
20
187.8207397057502
30
0.0
 70
     32
  0
VERTEX
  8
MY3DLAYER
10
114.03628332995378
20
187.61769943456167
30
0.0
 70
     32
  0
VERTEX
  8
MY3DLAYER
10
115.09062228162978
20
187.41897594540777
30
0.0
 70
     32
  0
VERTEX
  8
MY3DLAYER
10
116.11042567175002
20
187.23406647203157
30
0.0
 70
     32
  0
VERTEX
  8
MY3DLAYER
10
117.06029462803701
20
187.0724682481762
30
0.0
 70
     32
  0
VERTEX
  8
MY3DLAYER
10
117.90483027821294
20
186.94367850758465
30
0.0
 70
     32
  0
VERTEX
  8
MY3DLAYER
10
118.60863375000002
20
186.8571944840003
30
0.0
 70
     32
  0
VERTEX
  8
MY3DLAYER
10
119.26408761726037
20
186.81474534959756
30
0.0
 70
     32
  0
VERTEX
  8
MY3DLAYER
10
119.9773886219167
20
186.8076949569447
30
0.0
 70
     32
  0
VERTEX
  8
MY3DLAYER
10
120.7338591437813
20
186.82999960887523
30
0.0
 70
     32
  0
VERTEX
  8
MY3DLAYER
10
121.51882156266674
20
186.8756156082225
30
0.0
 70
     32
  0
VERTEX
  8
MY3DLAYER
10
122.31759825838547
20
186.93849925781967
30
0.0
 70
     32
  0
VERTEX
  8
MY3DLAYER
10
123.11551161075002
20
187.0126068605003
30
0.0
 70
     32
  0
VERTEX
  8
MY3DLAYER
10
123.89788399957297
20
187.09189471909752
30
0.0
 70
     32
  0
VERTEX
  8
MY3DLAYER
10
124.65003780466674
20
187.17031913644482
30
0.0
 70
     32
  0
VERTEX
  8
MY3DLAYER
10
125.3572954058438
20
187.24183641537525
30
0.0
 70
     32
  0
VERTEX
  8
MY3DLAYER
10
126.00497918291667
20
187.30040285872244
30
0.0
 70
     32
  0
VERTEX
  8
MY3DLAYER
10
126.57841151569794
20
187.33997476931958
30
0.0
 70
     32
  0
VERTEX
  8
MY3DLAYER
10
127.06291478399997
20
187.35450845000028
30
0.0
 70
     32
  0
VERTEX
  8
MY3DLAYER
10
127.46813239636111
20
187.31982913929076
30
0.0
 70
     32
  0
VERTEX
  8
MY3DLAYER
10
127.81809290138887
20
187.22212269632448
30
0.0
 70
     32
  0
VERTEX
  8
MY3DLAYER
10
128.1197034375
20
187.070886354844
30
0.0
 70
     32
  0
VERTEX
  8
MY3DLAYER
10
128.3798711431111
20
186.87561734859287
30
0.0
 70
     32
  0
VERTEX
  8
MY3DLAYER
10
128.60550315663897
20
186.64581291131395
30
0.0
 70
     32
  0
VERTEX
  8
MY3DLAYER
10
128.80350661650007
20
186.39097027675018
30
0.0
 70
     32
  0
VERTEX
  8
MY3DLAYER
10
128.9807886611112
20
186.12058667864488
30
0.0
 70
     32
  0
VERTEX
  8
MY3DLAYER
10
129.14425642888898
20
185.84415935074108
30
0.0
 70
     32
  0
VERTEX
  8
MY3DLAYER
10
129.30081705825003
20
185.5711855267815
30
0.0
 70
     32
  0
VERTEX
  8
MY3DLAYER
10
129.45737768761117
20
185.31116244050958
30
0.0
 70
     32
  0
VERTEX
  8
MY3DLAYER
10
129.62084545538886
20
185.07358732566803
30
0.0
 70
     32
  0
VERTEX
  8
MY3DLAYER
10
129.7981275
20
184.8679574160003
30
0.0
 70
     32
  0
VERTEX
  8
MY3DLAYER
10
129.95425662628242
20
184.6036157583753
30
0.0
 70
     32
  0
VERTEX
  8
MY3DLAYER
10
130.05253884359257
20
184.30732912400035
30
0.0
 70
     32
  0
VERTEX
  8
MY3DLAYER
10
130.097291097125
20
183.9782340716252
30
0.0
 70
     32
  0
VERTEX
  8
MY3DLAYER
10
130.0928303320741
20
183.61546716000032
30
0.0
 70
     32
  0
VERTEX
  8
MY3DLAYER
10
130.0434734936343
20
183.21816494787524
30
0.0
 70
     32
  0
VERTEX
  8
MY3DLAYER
10
129.95353752699998
20
182.78546399400025
30
0.0
 70
     32
  0
VERTEX
  8
MY3DLAYER
10
129.82733937736572
20
182.31650085712522
30
0.0
 70
     32
  0
VERTEX
  8
MY3DLAYER
10
129.6691959899259
20
181.8104120960002
30
0.0
 70
     32
  0
VERTEX
  8
MY3DLAYER
10
129.48342430987503
20
181.26633426937533
30
0.0
 70
     32
  0
VERTEX
  8
MY3DLAYER
10
129.27434128240745
20
180.6834039360002
30
0.0
 70
     32
  0
VERTEX
  8
MY3DLAYER
10
129.04626385271763
20
180.0607576546252
30
0.0
 70
     32
  0
VERTEX
  8
MY3DLAYER
10
128.803508966
20
179.39753198400032
30
0.0
 70
     32
  0
VERTEX
  8
MY3DLAYER
10
128.5850707135729
20
178.69862169403726
30
0.0
 70
     32
  0
VERTEX
  8
MY3DLAYER
10
128.42361635308333
20
177.97121927862986
30
0.0
 70
     32
  0
VERTEX
  8
MY3DLAYER
10
128.31396553071883
20
177.21791493100034
30
0.0
 70
     32
  0
VERTEX
  8
MY3DLAYER
10
128.25093789266677
20
176.4412988443707
30
0.0
 70
     32
  0
VERTEX
  8
MY3DLAYER
10
128.22935308511464
20
175.6439612119631
30
0.0
 70
     32
  0
VERTEX
  8
MY3DLAYER
10
128.24403075424996
20
174.8284922270002
30
0.0
 70
     32
  0
VERTEX
  8
MY3DLAYER
10
128.2897905462604
20
173.997482082704
30
0.0
 70
     32
  0
VERTEX
  8
MY3DLAYER
10
128.36145210733338
20
173.1535209722966
30
0.0
 70
     32
  0
VERTEX
  8
MY3DLAYER
10
128.45383508365634
20
172.2991990890002
30
0.0
 70
     32
  0
VERTEX
  8
MY3DLAYER
10
128.5617591214167
20
171.4371066260373
30
0.0
 70
     32
  0
VERTEX
  8
MY3DLAYER
10
128.68004386680212
20
170.56983377662974
30
0.0
 70
     32
  0
VERTEX
  8
MY3DLAYER
10
128.803508966
20
169.69997073400023
30
0.0
 70
     32
  0
VERTEX
  8
MY3DLAYER
10
128.9733070046807
20
168.85025548054654
30
0.0
 70
     32
  0
VERTEX
  8
MY3DLAYER
10
129.2294440777779
20
168.04111896370387
30
0.0
 70
     32
  0
VERTEX
  8
MY3DLAYER
10
129.565013046875
20
167.2716978727502
30
0.0
 70
     32
  0
VERTEX
  8
MY3DLAYER
10
129.9731067735556
20
166.54112889696324
30
0.0
 70
     32
  0
VERTEX
  8
MY3DLAYER
10
130.44681811940276
20
165.84854872562065
30
0.0
 70
     32
  0
VERTEX
  8
MY3DLAYER
10
130.97923994600012
20
165.1930940480002
30
0.0
 70
     32
  0
VERTEX
  8
MY3DLAYER
10
131.56346511493052
20
164.57390155337984
30
0.0
 70
     32
  0
VERTEX
  8
MY3DLAYER
10
132.1925864877778
20
163.9901079310373
30
0.0
 70
     32
  0
VERTEX
  8
MY3DLAYER
10
132.85969692612505
20
163.44084987025025
30
0.0
 70
     32
  0
VERTEX
  8
MY3DLAYER
10
133.55788929155557
20
162.92526406029654
30
0.0
 70
     32
  0
VERTEX
  8
MY3DLAYER
10
134.28025644565278
20
162.4424871904539
30
0.0
 70
     32
  0
VERTEX
  8
MY3DLAYER
10
135.01989125
20
161.9916559500002
30
0.0
 70
     32
  0
VERTEX
  8
MY3DLAYER
10
135.74139481056494
20
161.5916207527028
30
0.0
 70
     32
  0
VERTEX
  8
MY3DLAYER
10
136.4197289191852
20
161.25720281562064
30
0.0
 70
     32
  0
VERTEX
  8
MY3DLAYER
10
137.06352746625012
20
160.98149503296892
30
0.0
 70
     32
  0
VERTEX
  8
MY3DLAYER
10
137.6814243421482
20
160.75759029896324
30
0.0
 70
     32
  0
VERTEX
  8
MY3DLAYER
10
138.28205343726864
20
160.57858150781848
30
0.0
 70
     32
  0
VERTEX
  8
MY3DLAYER
10
138.87404864199996
20
160.43756155375021
30
0.0
 70
     32
  0
VERTEX
  8
MY3DLAYER
10
139.46604384673148
20
160.32762333097355
30
0.0
 70
     32
  0
VERTEX
  8
MY3DLAYER
10
140.0666729418519
20
160.2418597337039
30
0.0
 70
     32
  0
VERTEX
  8
MY3DLAYER
10
140.6845698177501
20
160.17336365615654
30
0.0
 70
     32
  0
VERTEX
  8
MY3DLAYER
10
141.32836836481496
20
160.11522799254638
30
0.0
 70
     32
  0
VERTEX
  8
MY3DLAYER
10
142.0067024734352
20
160.06054563708926
30
0.0
 70
     32
  0
VERTEX
  8
MY3DLAYER
10
142.72820603399992
20
160.00240948400008
30
0.0
 70
     32
  0
VERTEX
  8
MY3DLAYER
10
143.5030957439249
20
159.96514061095277
30
0.0
 70
     32
  0
VERTEX
  8
MY3DLAYER
10
144.32719850506487
20
159.9736310241205
30
0.0
 70
     32
  0
VERTEX
  8
MY3DLAYER
10
145.1875635144688
20
160.02183705896894
30
0.0
 70
     32
  0
VERTEX
  8
MY3DLAYER
10
146.07123996918526
20
160.10371505096313
30
0.0
 70
     32
  0
VERTEX
  8
MY3DLAYER
10
146.9652770662628
20
160.21322133556845
30
0.0
 70
     32
  0
VERTEX
  8
MY3DLAYER
10
147.85672400275007
20
160.3443122482501
30
0.0
 70
     32
  0
VERTEX
  8
MY3DLAYER
10
148.73262997569563
20
160.49094412447363
30
0.0
 70
     32
  0
VERTEX
  8
MY3DLAYER
10
149.58004418214816
20
160.64707329970378
30
0.0
 70
     32
  0
VERTEX
  8
MY3DLAYER
10
150.3860158191562
20
160.80665610940648
30
0.0
 70
     32
  0
VERTEX
  8
MY3DLAYER
10
151.13759408376853
20
160.96364888904654
30
0.0
 70
     32
  0
VERTEX
  8
MY3DLAYER
10
151.82182817303354
20
161.11200797408932
30
0.0
 70
     32
  0
VERTEX
  8
MY3DLAYER
10
152.42576728400002
20
161.24568970000016
30
0.0
 70
     32
  0
VERTEX
  8
MY3DLAYER
10
152.94509460200118
20
161.35490873647583
30
0.0
 70
     32
  0
VERTEX
  8
MY3DLAYER
10
153.38930745867592
20
161.43563568013903
30
0.0
 70
     32
  0
VERTEX
  8
MY3DLAYER
10
153.76617627053128
20
161.4904607568439
30
0.0
 70
     32
  0
VERTEX
  8
MY3DLAYER
10
154.08347145407407
20
161.5219741924446
30
0.0
 70
     32
  0
VERTEX
  8
MY3DLAYER
10
154.34896342581135
20
161.5327662127953
30
0.0
 70
     32
  0
VERTEX
  8
MY3DLAYER
10
154.57042260225003
20
161.52542704375028
30
0.0
 70
     32
  0
VERTEX
  8
MY3DLAYER
10
154.75561939989706
20
161.50254691116342
30
0.0
 70
     32
  0
VERTEX
  8
MY3DLAYER
10
154.91232423525935
20
161.4667160408891
30
0.0
 70
     32
  0
VERTEX
  8
MY3DLAYER
10
155.0483075248437
20
161.42052465878152
30
0.0
 70
     32
  0
VERTEX
  8
MY3DLAYER
10
155.17133968515745
20
161.3665629906947
30
0.0
 70
     32
  0
VERTEX
  8
MY3DLAYER
10
155.28919113270715
20
161.3074212624828
30
0.0
 70
     32
  0
VERTEX
  8
MY3DLAYER
10
155.40963228400003
20
161.24568970000016
30
0.0
 70
     32
  0
VERTEX
  8
MY3DLAYER
10
155.5438895993403
20
161.15373959729763
30
0.0
 70
     32
  0
VERTEX
  8
MY3DLAYER
10
155.69627781038884
20
161.00739579587977
30
0.0
 70
     32
  0
VERTEX
  8
MY3DLAYER
10
155.86420678918748
20
160.81442884278144
30
0.0
 70
     32
  0
VERTEX
  8
MY3DLAYER
10
156.04508640777783
20
160.5826092850371
30
0.0
 70
     32
  0
VERTEX
  8
MY3DLAYER
10
156.23632653820135
20
160.31970766968195
30
0.0
 70
     32
  0
VERTEX
  8
MY3DLAYER
10
156.43533705250002
20
160.03349454375012
30
0.0
 70
     32
  0
VERTEX
  8
MY3DLAYER
10
156.6395278227155
20
159.7317404542768
30
0.0
 70
     32
  0
VERTEX
  8
MY3DLAYER
10
156.8463087208891
20
159.42221594829653
30
0.0
 70
     32
  0
VERTEX
  8
MY3DLAYER
10
157.05308961906263
20
159.11269157284391
30
0.0
 70
     32
  0
VERTEX
  8
MY3DLAYER
10
157.25728038927798
20
158.81093787495382
30
0.0
 70
     32
  0
VERTEX
  8
MY3DLAYER
10
157.45629090357656
20
158.52472540166113
30
0.0
 70
     32
  0
VERTEX
  8
MY3DLAYER
10
157.64753103400017
20
158.26182470000018
30
0.0
 70
     32
  0
VERTEX
  8
MY3DLAYER
10
157.81402086246888
20
158.02842304769345
30
0.0
 70
     32
  0
VERTEX
  8
MY3DLAYER
10
157.94338516458356
20
157.82437621154637
30
0.0
 70
     32
  0
VERTEX
  8
MY3DLAYER
10
158.03994085290634
20
157.64795747221885
30
0.0
 70
     32
  0
VERTEX
  8
MY3DLAYER
10
158.1080048400002
20
157.49744011037058
30
0.0
 70
     32
  0
VERTEX
  8
MY3DLAYER
10
158.15189403842723
20
157.37109740666097
30
0.0
 70
     32
  0
VERTEX
  8
MY3DLAYER
10
158.1759253607501
20
157.26720264175017
30
0.0
 70
     32
  0
VERTEX
  8
MY3DLAYER
10
158.18441571953144
20
157.18402909629756
30
0.0
 70
     32
  0
VERTEX
  8
MY3DLAYER
10
158.18168202733358
20
157.11985005096315
30
0.0
 70
     32
  0
VERTEX
  8
MY3DLAYER
10
158.17204119671888
20
157.07293878640647
30
0.0
 70
     32
  0
VERTEX
  8
MY3DLAYER
10
158.15981014025013
20
157.04156858328716
30
0.0
 70
     32
  0
VERTEX
  8
MY3DLAYER
10
158.14484500000017
20
157.0185444840002
30
0.0
 70
     32
  0
VERTEX
  8
MY3DLAYER
10
158.1101656892906
20
156.95393443050486
30
0.0
 70
     32
  0
VERTEX
  8
MY3DLAYER
10
158.0124592463242
20
156.7710404963707
30
0.0
 70
     32
  0
VERTEX
  8
MY3DLAYER
10
157.861222904844
20
156.48626702112506
30
0.0
 70
     32
  0
VERTEX
  8
MY3DLAYER
10
157.6659538985928
20
156.11601834429626
30
0.0
 70
     32
  0
VERTEX
  8
MY3DLAYER
10
157.4361494613138
20
155.67669880541212
30
0.0
 70
     32
  0
VERTEX
  8
MY3DLAYER
10
157.1813068267502
20
155.18471274400008
30
0.0
 70
     32
  0
VERTEX
  8
MY3DLAYER
10
156.91092322864483
20
154.65646449958794
30
0.0
 70
     32
  0
VERTEX
  8
MY3DLAYER
10
156.63449590074094
20
154.10835841170362
30
0.0
 70
     32
  0
VERTEX
  8
MY3DLAYER
10
156.36152207678128
20
153.5567988198751
30
0.0
 70
     32
  0
VERTEX
  8
MY3DLAYER
10
156.10149899050933
20
153.01819006362976
30
0.0
 70
     32
  0
VERTEX
  8
MY3DLAYER
10
155.86392387566784
20
152.50893648249547
30
0.0
 70
     32
  0
VERTEX
  8
MY3DLAYER
10
155.6582939660001
20
152.04544241599996
30
0.0
 70
     32
  0
VERTEX
  8
MY3DLAYER
10
155.47223409693171
20
151.65375245234964
30
0.0
 70
     32
  0
VERTEX
  8
MY3DLAYER
10
155.2887643884537
20
151.23270711779617
30
0.0
 70
     32
  0
VERTEX
  8
MY3DLAYER
10
155.11047500115626
20
150.79439387193767
30
0.0
 70
     32
  0
VERTEX
  8
MY3DLAYER
10
154.93995609562955
20
150.35090017437042
30
0.0
 70
     32
  0
VERTEX
  8
MY3DLAYER
10
154.7797978324641
20
149.91431348469226
30
0.0
 70
     32
  0
VERTEX
  8
MY3DLAYER
10
154.63259037224998
20
149.49672126250007
30
0.0
 70
     32
  0
VERTEX
  8
MY3DLAYER
10
154.5009238755775
20
149.11021096739125
30
0.0
 70
     32
  0
VERTEX
  8
MY3DLAYER
10
154.38738850303713
20
148.76687005896298
30
0.0
 70
     32
  0
VERTEX
  8
MY3DLAYER
10
154.29457441521876
20
148.4787859968125
30
0.0
 70
     32
  0
VERTEX
  8
MY3DLAYER
10
154.2250717727129
20
148.25804624053717
30
0.0
 70
     32
  0
VERTEX
  8
MY3DLAYER
10
154.1814707361099
20
148.11673824973386
30
0.0
 70
     32
  0
VERTEX
  8
MY3DLAYER
10
154.16636146600004
20
148.0669494840001
30
0.0
 70
     32
  0
VERTEX
  8
MY3DLAYER
10
154.33342676424775
20
148.14537391222467
30
0.0
 70
     32
  0
VERTEX
  8
MY3DLAYER
10
154.79836043248142
20
148.36280383212969
30
0.0
 70
     32
  0
VERTEX
  8
MY3DLAYER
10
155.5067691309375
20
148.69247419656259
30
0.0
 70
     32
  0
VERTEX
  8
MY3DLAYER
10
156.4042595198519
20
149.10761995837052
30
0.0
 70
     32
  0
VERTEX
  8
MY3DLAYER
10
157.43643825946083
20
149.5814760704006
30
0.0
 70
     32
  0
VERTEX
  8
MY3DLAYER
10
158.5489120100002
20
150.08727748550012
30
0.0
 70
     32
  0
VERTEX
  8
MY3DLAYER
10
159.68728743170618
20
150.59825915651626
30
0.0
 70
     32
  0
VERTEX
  8
MY3DLAYER
10
160.79717118481506
20
151.0876560362963
30
0.0
 70
     32
  0
VERTEX
  8
MY3DLAYER
10
161.82416992956263
20
151.52870307768754
30
0.0
 70
     32
  0
VERTEX
  8
MY3DLAYER
10
162.71389032618544
20
151.89463523353717
30
0.0
 70
     32
  0
VERTEX
  8
MY3DLAYER
10
163.41193903491921
20
152.15868745669215
30
0.0
 70
     32
  0
VERTEX
  8
MY3DLAYER
10
163.8639227160002
20
152.2940947000001
30
0.0
 70
     32
  0
VERTEX
  8
MY3DLAYER
10
164.16466770066225
20
152.36028703297214
30
0.0
 70
     32
  0
VERTEX
  8
MY3DLAYER
10
164.44641841362989
20
152.42993313094448
30
0.0
 70
     32
  0
VERTEX
  8
MY3DLAYER
10
164.71090160687513
20
152.49612585549997
30
0.0
 70
     32
  0
VERTEX
  8
MY3DLAYER
10
164.95984403237057
20
152.55195806822226
30
0.0
 70
     32
  0
VERTEX
  8
MY3DLAYER
10
165.19497244208816
20
152.59052263069432
30
0.0
 70
     32
  0
VERTEX
  8
MY3DLAYER
10
165.41801358800018
20
152.6049124045001
30
0.0
 70
     32
  0
VERTEX
  8
MY3DLAYER
10
165.6306942220789
20
152.58822025122222
30
0.0
 70
     32
  0
VERTEX
  8
MY3DLAYER
10
165.83474109629648
20
152.53353903244448
30
0.0
 70
     32
  0
VERTEX
  8
MY3DLAYER
10
166.03188096262525
20
152.43396160975007
30
0.0
 70
     32
  0
VERTEX
  8
MY3DLAYER
10
166.22384057303722
20
152.28258084472228
30
0.0
 70
     32
  0
VERTEX
  8
MY3DLAYER
10
166.41234667950476
20
152.07248959894446
30
0.0
 70
     32
  0
VERTEX
  8
MY3DLAYER
10
166.59912603400014
20
151.7967807340001
30
0.0
 70
     32
  0
VERTEX
  8
MY3DLAYER
10
166.68201117288902
20
151.37185127892488
30
0.0
 70
     32
  0
VERTEX
  8
MY3DLAYER
10
166.57840474927792
20
150.63523914439816
30
0.0
 70
     32
  0
VERTEX
  8
MY3DLAYER
10
166.31938869025015
20
149.6482447759688
30
0.0
 70
     32
  0
VERTEX
  8
MY3DLAYER
10
165.93604492288918
20
148.47216861918523
30
0.0
 70
     32
  0
VERTEX
  8
MY3DLAYER
10
165.459455374278
20
147.16831111959624
30
0.0
 70
     32
  0
VERTEX
  8
MY3DLAYER
10
164.9207019715002
20
145.79797272275002
30
0.0
 70
     32
  0
VERTEX
  8
MY3DLAYER
10
164.35086664163904
20
144.42245387419564
30
0.0
 70
     32
  0
VERTEX
  8
MY3DLAYER
10
163.781031311778
20
143.10305501948153
30
0.0
 70
     32
  0
VERTEX
  8
MY3DLAYER
10
163.24227790900028
20
141.90107660415634
30
0.0
 70
     32
  0
VERTEX
  8
MY3DLAYER
10
162.76568836038913
20
140.87781907376856
30
0.0
 70
     32
  0
VERTEX
  8
MY3DLAYER
10
162.38234459302788
20
140.09458287386707
30
0.0
 70
     32
  0
VERTEX
  8
MY3DLAYER
10
162.12332853400017
20
139.6126684500001
30
0.0
 70
     32
  0
VERTEX
  8
MY3DLAYER
10
161.9176986243323
20
139.32703057630087
30
0.0
 70
     32
  0
VERTEX
  8
MY3DLAYER
10
161.6801235094909
20
139.0888790997408
30
0.0
 70
     32
  0
VERTEX
  8
MY3DLAYER
10
161.420100423219
20
138.89389707512507
30
0.0
 70
     32
  0
VERTEX
  8
MY3DLAYER
10
161.1471265992595
20
138.73776755725933
30
0.0
 70
     32
  0
VERTEX
  8
MY3DLAYER
10
160.87069927135548
20
138.61617360094905
30
0.0
 70
     32
  0
VERTEX
  8
MY3DLAYER
10
160.60031567325015
20
138.52479826100003
30
0.0
 70
     32
  0
VERTEX
  8
MY3DLAYER
10
160.3454730386865
20
138.45932459221748
30
0.0
 70
     32
  0
VERTEX
  8
MY3DLAYER
10
160.11566860140766
20
138.41543564940736
30
0.0
 70
     32
  0
VERTEX
  8
MY3DLAYER
10
159.9203995951564
20
138.38881448737507
30
0.0
 70
     32
  0
VERTEX
  8
MY3DLAYER
10
159.76916325367606
20
138.3751441609259
30
0.0
 70
     32
  0
VERTEX
  8
MY3DLAYER
10
159.67145681070963
20
138.37010772486576
30
0.0
 70
     32
  0
VERTEX
  8
MY3DLAYER
10
159.6367775000002
20
138.36938823400016
30
0.0
 70
     32
  0
VERTEX
  8
MY3DLAYER
10
159.69606339614256
20
138.31528277868875
30
0.0
 70
     32
  0
VERTEX
  8
MY3DLAYER
10
159.86240925247236
20
138.16447820134266
30
0.0
 70
     32
  0
VERTEX
  8
MY3DLAYER
10
160.11854732084385
20
137.93424218484364
30
0.0
 70
     32
  0
VERTEX
  8
MY3DLAYER
10
160.4472098531113
20
137.64184241207417
30
0.0
 70
     32
  0
VERTEX
  8
MY3DLAYER
10
160.8311291011286
20
137.3045465659156
30
0.0
 70
     32
  0
VERTEX
  8
MY3DLAYER
10
161.25303731675015
20
136.93962232925017
30
0.0
 70
     32
  0
VERTEX
  8
MY3DLAYER
10
161.69566675182998
20
136.56433738495952
30
0.0
 70
     32
  0
VERTEX
  8
MY3DLAYER
10
162.1417496582224
20
136.19595941592593
30
0.0
 70
     32
  0
VERTEX
  8
MY3DLAYER
10
162.57401828778143
20
135.85175610503128
30
0.0
 70
     32
  0
VERTEX
  8
MY3DLAYER
10
162.97520489236132
20
135.54899513515736
30
0.0
 70
     32
  0
VERTEX
  8
MY3DLAYER
10
163.32804172381614
20
135.30494418918636
30
0.0
 70
     32
  0
VERTEX
  8
MY3DLAYER
10
163.6152610340002
20
135.13687095000006
30
0.0
 70
     32
  0
VERTEX
  8
MY3DLAYER
10
163.87327124597246
20
134.9407381761794
30
0.0
 70
     32
  0
VERTEX
  8
MY3DLAYER
10
164.14595878444467
20
134.7282009649352
30
0.0
 70
     32
  0
VERTEX
  8
MY3DLAYER
10
164.42727995225027
20
134.50357629409382
30
0.0
 70
     32
  0
VERTEX
  8
MY3DLAYER
10
164.7111910522224
20
134.27118114148146
30
0.0
 70
     32
  0
VERTEX
  8
MY3DLAYER
10
164.99164838719474
20
134.03533248492477
30
0.0
 70
     32
  0
VERTEX
  8
MY3DLAYER
10
165.26260826000015
20
133.80034730225003
30
0.0
 70
     32
  0
VERTEX
  8
MY3DLAYER
10
165.51802697347242
20
133.57054257128357
30
0.0
 70
     32
  0
VERTEX
  8
MY3DLAYER
10
165.75186083044466
20
133.35023526985196
30
0.0
 70
     32
  0
VERTEX
  8
MY3DLAYER
10
165.95806613375015
20
133.14374237578124
30
0.0
 70
     32
  0
VERTEX
  8
MY3DLAYER
10
166.13059918622247
20
132.95538086689817
30
0.0
 70
     32
  0
VERTEX
  8
MY3DLAYER
10
166.26341629069455
20
132.78946772102887
30
0.0
 70
     32
  0
VERTEX
  8
MY3DLAYER
10
166.35047375000025
20
132.65031991599997
30
0.0
 70
     32
  0
VERTEX
  8
MY3DLAYER
10
166.44256774870036
20
132.5062774879027
30
0.0
 70
     32
  0
VERTEX
  8
MY3DLAYER
10
166.58991882210208
20
132.32683631805565
30
0.0
 70
     32
  0
VERTEX
  8
MY3DLAYER
10
166.78561979915636
20
132.118040103625
30
0.0
 70
     32
  0
VERTEX
  8
MY3DLAYER
10
167.02276350881502
20
131.88593254177778
30
0.0
 70
     32
  0
VERTEX
  8
MY3DLAYER
10
167.29444278002913
20
131.6365573296806
30
0.0
 70
     32
  0
VERTEX
  8
MY3DLAYER
10
167.59375044175013
20
131.3759581644999
30
0.0
 70
     32
  0
VERTEX
  8
MY3DLAYER
10
167.9137793229296
20
131.11017874340283
30
0.0
 70
     32
  0
VERTEX
  8
MY3DLAYER
10
168.24762225251877
20
130.84526276355558
30
0.0
 70
     32
  0
VERTEX
  8
MY3DLAYER
10
168.58837205946892
20
130.5872539221251
30
0.0
 70
     32
  0
VERTEX
  8
MY3DLAYER
10
168.92912157273167
20
130.34219591627772
30
0.0
 70
     32
  0
VERTEX
  8
MY3DLAYER
10
169.26296362125828
20
130.11613244318056
30
0.0
 70
     32
  0
VERTEX
  8
MY3DLAYER
10
169.58299103400012
20
129.91510720000002
30
0.0
 70
     32
  0
VERTEX
  8
MY3DLAYER
10
169.73135033658934
20
129.81884022280556
30
0.0
 70
     32
  0
VERTEX
  8
MY3DLAYER
10
169.92028860421314
20
129.66299932361116
30
0.0
 70
     32
  0
VERTEX
  8
MY3DLAYER
10
170.13858185115643
20
129.460535338
30
0.0
 70
     32
  0
VERTEX
  8
MY3DLAYER
10
170.37500609170385
20
129.22439910155566
30
0.0
 70
     32
  0
VERTEX
  8
MY3DLAYER
10
170.6183373401403
20
128.96754144986124
30
0.0
 70
     32
  0
VERTEX
  8
MY3DLAYER
10
170.85735161075021
20
128.70291321850007
30
0.0
 70
     32
  0
VERTEX
  8
MY3DLAYER
10
171.08082491781855
20
128.44346524305558
30
0.0
 70
     32
  0
VERTEX
  8
MY3DLAYER
10
171.2775332756299
20
128.2021483591111
30
0.0
 70
     32
  0
VERTEX
  8
MY3DLAYER
10
171.43625269846896
20
127.99191340224996
30
0.0
 70
     32
  0
VERTEX
  8
MY3DLAYER
10
171.5457592006206
20
127.82571120805558
30
0.0
 70
     32
  0
VERTEX
  8
MY3DLAYER
10
171.59482879636943
20
127.71649261211108
30
0.0
 70
     32
  0
VERTEX
  8
MY3DLAYER
10
171.57223750000017
20
127.67720844999997
30
0.0
 70
     32
  0
VERTEX
  8
MY3DLAYER
10
171.61454273840533
20
127.54309503065741
30
0.0
 70
     32
  0
VERTEX
  8
MY3DLAYER
10
171.62058585907425
20
127.39171409159263
30
0.0
 70
     32
  0
VERTEX
  8
MY3DLAYER
10
171.59554718318765
20
127.22651913675006
30
0.0
 70
     32
  0
VERTEX
  8
MY3DLAYER
10
171.54460703192615
20
127.05096367007415
30
0.0
 70
     32
  0
VERTEX
  8
MY3DLAYER
10
171.47294572647013
20
126.86850119550928
30
0.0
 70
     32
  0
VERTEX
  8
MY3DLAYER
10
171.38574358800014
20
126.68258521699998
30
0.0
 70
     32
  0
VERTEX
  8
MY3DLAYER
10
171.28818093769704
20
126.49666923849074
30
0.0
 70
     32
  0
VERTEX
  8
MY3DLAYER
10
171.18543809674102
20
126.31420676392602
30
0.0
 70
     32
  0
VERTEX
  8
MY3DLAYER
10
171.0826953863127
20
126.13865129724991
30
0.0
 70
     32
  0
VERTEX
  8
MY3DLAYER
10
170.98513312759286
20
125.97345634240745
30
0.0
 70
     32
  0
VERTEX
  8
MY3DLAYER
10
170.8979316417618
20
125.8220754033426
30
0.0
 70
     32
  0
VERTEX
  8
MY3DLAYER
10
170.8262712500002
20
125.68796198400004
30
0.0
 70
     32
  0
VERTEX
  8
MY3DLAYER
10
170.7740370028406
20
125.49182938965517
30
0.0
 70
     32
  0
VERTEX
  8
MY3DLAYER
10
170.73993365138912
20
125.27929265157402
30
0.0
 70
     32
  0
VERTEX
  8
MY3DLAYER
10
170.72137106768773
20
125.05466864968757
30
0.0
 70
     32
  0
VERTEX
  8
MY3DLAYER
10
170.71575912377793
20
124.82227426392598
30
0.0
 70
     32
  0
VERTEX
  8
MY3DLAYER
10
170.72050769170164
20
124.58642637421997
30
0.0
 70
     32
  0
VERTEX
  8
MY3DLAYER
10
170.73302664350027
20
124.35144186050005
30
0.0
 70
     32
  0
VERTEX
  8
MY3DLAYER
10
170.75072585121544
20
124.12163760269678
30
0.0
 70
     32
  0
VERTEX
  8
MY3DLAYER
10
170.77101518688917
20
123.90133048074073
30
0.0
 70
     32
  0
VERTEX
  8
MY3DLAYER
10
170.79130452256268
20
123.69483737456255
30
0.0
 70
     32
  0
VERTEX
  8
MY3DLAYER
10
170.80900373027794
20
123.50647516409259
30
0.0
 70
     32
  0
VERTEX
  8
MY3DLAYER
10
170.82152268207656
20
123.34056072926158
30
0.0
 70
     32
  0
VERTEX
  8
MY3DLAYER
10
170.8262712500002
20
123.20141095000001
30
0.0
 70
     32
  0
VERTEX
  8
MY3DLAYER
10
170.8114497773243
20
123.02988476161237
30
0.0
 70
     32
  0
VERTEX
  8
MY3DLAYER
10
170.76986332275942
20
122.88598696373163
30
0.0
 70
     32
  0
VERTEX
  8
MY3DLAYER
10
170.70582883150024
20
122.7662640197813
30
0.0
 70
     32
  0
VERTEX
  8
MY3DLAYER
10
170.6236632487409
20
122.66726239318533
30
0.0
 70
     32
  0
VERTEX
  8
MY3DLAYER
10
170.52768351967606
20
122.58552854736695
30
0.0
 70
     32
  0
VERTEX
  8
MY3DLAYER
10
170.42220658950023
20
122.51760894574996
30
0.0
 70
     32
  0
VERTEX
  8
MY3DLAYER
10
170.3115494034077
20
122.46005005175819
30
0.0
 70
     32
  0
VERTEX
  8
MY3DLAYER
10
170.20002890659282
20
122.40939832881486
30
0.0
 70
     32
  0
VERTEX
  8
MY3DLAYER
10
170.0919620442503
20
122.36220024034378
30
0.0
 70
     32
  0
VERTEX
  8
MY3DLAYER
10
169.99166576157424
20
122.31500224976854
30
0.0
 70
     32
  0
VERTEX
  8
MY3DLAYER
10
169.90345700375929
20
122.26435082051277
30
0.0
 70
     32
  0
VERTEX
  8
MY3DLAYER
10
169.8316527160002
20
122.20679241600004
30
0.0
 70
     32
  0
VERTEX
  8
MY3DLAYER
10
169.72027449446307
20
122.1249132438172
30
0.0
 70
     32
  0
VERTEX
  8
MY3DLAYER
10
169.52083126970396
20
122.0076356562037
30
0.0
 70
     32
  0
VERTEX
  8
MY3DLAYER
10
169.24886394000015
20
121.86100328506252
30
0.0
 70
     32
  0
VERTEX
  8
MY3DLAYER
10
168.91991340362983
20
121.69105976229639
30
0.0
 70
     32
  0
VERTEX
  8
MY3DLAYER
10
168.5495205588706
20
121.50384871980798
30
0.0
 70
     32
  0
VERTEX
  8
MY3DLAYER
10
168.15322630400019
20
121.30541378950002
30
0.0
 70
     32
  0
VERTEX
  8
MY3DLAYER
10
167.74657153729646
20
121.10179860327541
30
0.0
 70
     32
  0
VERTEX
  8
MY3DLAYER
10
167.3450971570372
20
120.89904679303713
30
0.0
 70
     32
  0
VERTEX
  8
MY3DLAYER
10
166.96434406150016
20
120.70320199068753
30
0.0
 70
     32
  0
VERTEX
  8
MY3DLAYER
10
166.61985314896316
20
120.52030782812967
30
0.0
 70
     32
  0
VERTEX
  8
MY3DLAYER
10
166.3271653177038
20
120.35640793726628
30
0.0
 70
     32
  0
VERTEX
  8
MY3DLAYER
10
166.10182146600016
20
120.21754594999997
30
0.0
 70
     32
  0
VERTEX
  8
MY3DLAYER
10
165.85705129021903
20
120.11307548144796
30
0.0
 70
     32
  0
VERTEX
  8
MY3DLAYER
10
165.5112648514168
20
120.0448674895834
30
0.0
 70
     32
  0
VERTEX
  8
MY3DLAYER
10
165.08777359490642
20
120.00774162059379
30
0.0
 70
     32
  0
VERTEX
  8
MY3DLAYER
10
164.60988896600026
20
119.99651752066669
30
0.0
 70
     32
  0
VERTEX
  8
MY3DLAYER
10
164.10092241001064
20
120.0060148359896
30
0.0
 70
     32
  0
VERTEX
  8
MY3DLAYER
10
163.5841853722502
20
120.03105321275001
30
0.0
 70
     32
  0
VERTEX
  8
MY3DLAYER
10
163.08298929803146
20
120.06645229713547
30
0.0
 70
     32
  0
VERTEX
  8
MY3DLAYER
10
162.62064563266688
20
120.10703173533338
30
0.0
 70
     32
  0
VERTEX
  8
MY3DLAYER
10
162.22046582146888
20
120.14761117353129
30
0.0
 70
     32
  0
VERTEX
  8
MY3DLAYER
10
161.9057613097503
20
120.18301025791673
30
0.0
 70
     32
  0
VERTEX
  8
MY3DLAYER
10
161.6998435428231
20
120.20804863467714
30
0.0
 70
     32
  0
VERTEX
  8
MY3DLAYER
10
161.62602396600013
20
120.21754594999997
30
0.0
 70
     32
  0
VERTEX
  8
MY3DLAYER
10
161.58659590245273
20
120.21740205400225
30
0.0
 70
     32
  0
VERTEX
  8
MY3DLAYER
10
161.476369996454
20
120.21639478201855
30
0.0
 70
     32
  0
VERTEX
  8
MY3DLAYER
10
161.307433674969
20
120.21366075806259
30
0.0
 70
     32
  0
VERTEX
  8
MY3DLAYER
10
161.0918743649632
20
120.2083366061482
30
0.0
 70
     32
  0
VERTEX
  8
MY3DLAYER
10
160.84177949340184
20
120.1995589502894
30
0.0
 70
     32
  0
VERTEX
  8
MY3DLAYER
10
160.56923648725018
20
120.1864644145
30
0.0
 70
     32
  0
VERTEX
  8
MY3DLAYER
10
160.28633277347356
20
120.16818962279403
30
0.0
 70
     32
  0
VERTEX
  8
MY3DLAYER
10
160.00515577903712
20
120.14387119918521
30
0.0
 70
     32
  0
VERTEX
  8
MY3DLAYER
10
159.7377929309064
20
120.11264576768748
30
0.0
 70
     32
  0
VERTEX
  8
MY3DLAYER
10
159.49633165604644
20
120.07364995231492
30
0.0
 70
     32
  0
VERTEX
  8
MY3DLAYER
10
159.29285938142263
20
120.02602037708103
30
0.0
 70
     32
  0
VERTEX
  8
MY3DLAYER
10
159.13946353400019
20
119.96889366600003
30
0.0
 70
     32
  0
VERTEX
  8
MY3DLAYER
10
159.0053520943289
20
119.89118747231136
30
0.0
 70
     32
  0
VERTEX
  8
MY3DLAYER
10
158.85397248229648
20
119.78239971049078
30
0.0
 70
     32
  0
VERTEX
  8
MY3DLAYER
10
158.68877833237516
20
119.64253034790627
30
0.0
 70
     32
  0
VERTEX
  8
MY3DLAYER
10
158.51322327903728
20
119.47157935192607
30
0.0
 70
     32
  0
VERTEX
  8
MY3DLAYER
10
158.33076095675472
20
119.26954668991779
30
0.0
 70
     32
  0
VERTEX
  8
MY3DLAYER
10
158.14484500000017
20
119.03643232925008
30
0.0
 70
     32
  0
VERTEX
  8
MY3DLAYER
10
157.95892904324566
20
118.77223623729051
30
0.0
 70
     32
  0
VERTEX
  8
MY3DLAYER
10
157.77646672096324
20
118.47695838140748
30
0.0
 70
     32
  0
VERTEX
  8
MY3DLAYER
10
157.60091166762518
20
118.15059872896882
30
0.0
 70
     32
  0
VERTEX
  8
MY3DLAYER
10
157.43571751770386
20
117.79315724734268
30
0.0
 70
     32
  0
VERTEX
  8
MY3DLAYER
10
157.28433790567144
20
117.40463390389701
30
0.0
 70
     32
  0
VERTEX
  8
MY3DLAYER
10
157.15022646600013
20
116.9850286660001
30
0.0
 70
     32
  0
VERTEX
  8
MY3DLAYER
10
157.04575599744797
20
116.46440572927662
30
0.0
 70
     32
  0
VERTEX
  8
MY3DLAYER
10
156.97754800558351
20
115.90752077271301
30
0.0
 70
     32
  0
VERTEX
  8
MY3DLAYER
10
156.9404221365939
20
115.32991472721886
30
0.0
 70
     32
  0
VERTEX
  8
MY3DLAYER
10
156.9291980366669
20
114.74712852370371
30
0.0
 70
     32
  0
VERTEX
  8
MY3DLAYER
10
156.9386953519897
20
114.17470309307754
30
0.0
 70
     32
  0
VERTEX
  8
MY3DLAYER
10
156.96373372875016
20
113.62817936625008
30
0.0
 70
     32
  0
VERTEX
  8
MY3DLAYER
10
156.99913281313562
20
113.12309827413083
30
0.0
 70
     32
  0
VERTEX
  8
MY3DLAYER
10
157.03971225133355
20
112.67500074762972
30
0.0
 70
     32
  0
VERTEX
  8
MY3DLAYER
10
157.08029168953138
20
112.29942771765627
30
0.0
 70
     32
  0
VERTEX
  8
MY3DLAYER
10
157.11569077391675
20
112.01192011512043
30
0.0
 70
     32
  0
VERTEX
  8
MY3DLAYER
10
157.14072915067723
20
111.82801887093167
30
0.0
 70
     32
  0
VERTEX
  8
MY3DLAYER
10
156.6529125000001
20
112.75788345000011
30
0.0
 70
     32
  0
VERTEX
  8
MY3DLAYER
10
155.90694625000003
20
111.01729866600006
30
0.0
 70
     32
  0
VERTEX
  8
MY3DLAYER
10
155.6582939660001
20
112.26056948400002
30
0.0
 70
     32
  0
VERTEX
  8
MY3DLAYER
10
155.16098000000008
20
111.26595095
30
0.0
 70
     32
  0
VERTEX
  8
MY3DLAYER
10
154.41501374999999
20
112.01191720000014
30
0.0
 70
     32
  0
VERTEX
  8
MY3DLAYER
10
154.16636146600004
20
110.76863698400004
30
0.0
 70
     32
  0
VERTEX
  8
MY3DLAYER
10
153.6690475
20
112.01191720000014
30
0.0
 70
     32
  0
VERTEX
  8
MY3DLAYER
10
153.17173353399997
20
111.01729866600006
30
0.0
 70
     32
  0
VERTEX
  8
MY3DLAYER
10
152.67442896599994
20
112.50923116600008
30
0.0
 70
     32
  0
VERTEX
  8
MY3DLAYER
10
152.17711499999996
20
111.01729866600006
30
0.0
 70
     32
  0
VERTEX
  8
MY3DLAYER
10
151.67980103399998
20
112.50923116600008
30
0.0
 70
     32
  0
VERTEX
  8
MY3DLAYER
10
151.182496466
20
111.76326491600005
30
0.0
 70
     32
  0
VERTEX
  8
MY3DLAYER
10
150.93383478400003
20
113.00653573400002
30
0.0
 70
     32
  0
VERTEX
  8
MY3DLAYER
10
150.43653021600005
20
112.50923116600008
30
0.0
 70
     32
  0
VERTEX
  8
MY3DLAYER
10
149.93921625000004
20
113.75250198400002
30
0.0
 70
     32
  0
VERTEX
  8
MY3DLAYER
10
149.441902284
20
112.50923116600008
30
0.0
 70
     32
  0
VERTEX
  8
MY3DLAYER
10
148.94459771599992
20
112.75788345000011
30
0.0
 70
     32
  0
VERTEX
  8
MY3DLAYER
10
148.69593603400003
20
113.25519741600004
30
0.0
 70
     32
  0
VERTEX
  8
MY3DLAYER
10
148.44728374999997
20
114.00116366600004
30
0.0
 70
     32
  0
VERTEX
  8
MY3DLAYER
10
148.198631466
20
112.75788345000011
30
0.0
 70
     32
  0
VERTEX
  8
MY3DLAYER
10
147.45266521600013
20
113.00653573400002
30
0.0
 70
     32
  0
VERTEX
  8
MY3DLAYER
10
147.5000068143241
20
112.4565596181528
30
0.0
 70
     32
  0
VERTEX
  8
MY3DLAYER
10
147.52058343075925
20
111.81851758538886
30
0.0
 70
     32
  0
VERTEX
  8
MY3DLAYER
10
147.51871201050008
20
111.11831130687509
30
0.0
 70
     32
  0
VERTEX
  8
MY3DLAYER
10
147.49870949874085
20
110.38184245377778
30
0.0
 70
     32
  0
VERTEX
  8
MY3DLAYER
10
147.46489284067604
20
109.63501269726396
30
0.0
 70
     32
  0
VERTEX
  8
MY3DLAYER
10
147.4215789815
20
108.90372370849998
30
0.0
 70
     32
  0
VERTEX
  8
MY3DLAYER
10
147.37308486640742
20
108.21387715865286
30
0.0
 70
     32
  0
VERTEX
  8
MY3DLAYER
10
147.32372744059273
20
107.59137471888891
30
0.0
 70
     32
  0
VERTEX
  8
MY3DLAYER
10
147.27782364925002
20
107.06211806037501
30
0.0
 70
     32
  0
VERTEX
  8
MY3DLAYER
10
147.2396904375742
20
106.65200885427782
30
0.0
 70
     32
  0
VERTEX
  8
MY3DLAYER
10
147.21364475075922
20
106.38694877176388
30
0.0
 70
     32
  0
VERTEX
  8
MY3DLAYER
10
147.20400353399995
20
106.29283948400007
30
0.0
 70
     32
  0
VERTEX
  8
MY3DLAYER
10
146.70669896599998
20
107.784771984
30
0.0
 70
     32
  0
VERTEX
  8
MY3DLAYER
10
146.70669896599998
20
105.29822095000006
30
0.0
 70
     32
  0
VERTEX
  8
MY3DLAYER
10
145.96073271600005
20
106.54150116600002
30
0.0
 70
     32
  0
VERTEX
  8
MY3DLAYER
10
145.96073271600005
20
104.55225469999996
30
0.0
 70
     32
  0
VERTEX
  8
MY3DLAYER
10
144.966104784
20
105.54687323400005
30
0.0
 70
     32
  0
VERTEX
  8
MY3DLAYER
10
144.9905674734351
20
104.85501400020605
30
0.0
 70
     32
  0
VERTEX
  8
MY3DLAYER
10
145.05819961481475
20
103.82470687664829
30
0.0
 70
     32
  0
VERTEX
  8
MY3DLAYER
10
145.16036731774997
20
102.53192992906264
30
0.0
 70
     32
  0
VERTEX
  8
MY3DLAYER
10
145.28843669185184
20
101.05266122318531
30
0.0
 70
     32
  0
VERTEX
  8
MY3DLAYER
10
145.4337738467316
20
99.46287882475247
30
0.0
 70
     32
  0
VERTEX
  8
MY3DLAYER
10
145.58774489199996
20
97.83856079950014
30
0.0
 70
     32
  0
VERTEX
  8
MY3DLAYER
10
145.74171593726857
20
96.25568521316451
30
0.0
 70
     32
  0
VERTEX
  8
MY3DLAYER
10
145.88705309214825
20
94.79023013148165
30
0.0
 70
     32
  0
VERTEX
  8
MY3DLAYER
10
146.01512246625006
20
93.51817362018762
30
0.0
 70
     32
  0
VERTEX
  8
MY3DLAYER
10
146.11729016918517
20
92.51549374501862
30
0.0
 70
     32
  0
VERTEX
  8
MY3DLAYER
10
146.1849223105648
20
91.8581685717108
30
0.0
 70
     32
  0
VERTEX
  8
MY3DLAYER
10
146.20938500000008
20
91.62217616600016
30
0.0
 70
     32
  0
VERTEX
  8
MY3DLAYER
10
146.12779559948387
20
91.80003254371081
30
0.0
 70
     32
  0
VERTEX
  8
MY3DLAYER
10
146.01253388287034
20
92.07113515951866
30
0.0
 70
     32
  0
VERTEX
  8
MY3DLAYER
10
145.87137036456247
20
92.4147626634376
30
0.0
 70
     32
  0
VERTEX
  8
MY3DLAYER
10
145.71207555896297
20
92.81019370548161
30
0.0
 70
     32
  0
VERTEX
  8
MY3DLAYER
10
145.54241998047453
20
93.23670693566449
30
0.0
 70
     32
  0
VERTEX
  8
MY3DLAYER
10
145.37017414349998
20
93.67358100400016
30
0.0
 70
     32
  0
VERTEX
  8
MY3DLAYER
10
145.20310856244222
20
94.10009456050244
30
0.0
 70
     32
  0
VERTEX
  8
MY3DLAYER
10
145.04899375170373
20
94.49552625518535
30
0.0
 70
     32
  0
VERTEX
  8
MY3DLAYER
10
144.91560022568748
20
94.83915473806259
30
0.0
 70
     32
  0
VERTEX
  8
MY3DLAYER
10
144.81069849879637
20
95.11025865914836
30
0.0
 70
     32
  0
VERTEX
  8
MY3DLAYER
10
144.74205908543289
20
95.28811666845618
30
0.0
 70
     32
  0
VERTEX
  8
MY3DLAYER
10
145.19030377656483
20
91.03938871703252
30
0.0
 70
     32
  0
VERTEX
  8
MY3DLAYER
10
145.12267163518527
20
91.26991215025934
30
0.0
 70
     32
  0
VERTEX
  8
MY3DLAYER
10
145.02050393225002
20
91.55223918687513
30
0.0
 70
     32
  0
VERTEX
  8
MY3DLAYER
10
144.8924345581482
20
91.8708287980742
30
0.0
 70
     32
  0
VERTEX
  8
MY3DLAYER
10
144.74709740326853
20
92.21013995505105
30
0.0
 70
     32
  0
VERTEX
  8
MY3DLAYER
10
144.5931263580001
20
92.55463162900011
30
0.0
 70
     32
  0
VERTEX
  8
MY3DLAYER
10
144.43915531273151
20
92.88876279111594
30
0.0
 70
     32
  0
VERTEX
  8
MY3DLAYER
10
144.29381815785197
20
93.19699241259275
30
0.0
 70
     32
  0
VERTEX
  8
MY3DLAYER
10
144.16574878375002
20
93.46377946462509
30
0.0
 70
     32
  0
VERTEX
  8
MY3DLAYER
10
144.16574878375002
20
92.60185958273242
30
0.0
 70
     32
  0
VERTEX
  8
MY3DLAYER
10
144.22014323299996
20
92.15056696850014
30
0.0
 70
     32
  0
VERTEX
  8
MY3DLAYER
10
144.28173188388192
20
91.64476671727326
30
0.0
 70
     32
  0
VERTEX
  8
MY3DLAYER
10
144.33986696555561
20
91.17091170385206
30
0.0
 70
     32
  0
VERTEX
  8
MY3DLAYER
10
144.3910949088125
20
90.75576691012516
30
0.0
 70
     32
  0
VERTEX
  8
MY3DLAYER
10
144.43196214444447
20
90.42609731798166
30
0.0
 70
     32
  0
VERTEX
  8
MY3DLAYER
10
144.45901510324305
20
90.20866790931032
30
0.0
 70
     32
  0
SEQEND
  0
LINE
 8
Layer0
10
157.14072915067723
20
111.82801887093167
30
0.0
11
157.15022646600013
21
111.76326491600005
31
0.0
  0
LINE
 8
Layer0
10
117.8979224055776
20
74.92743377729286
30
0.0
11
117.86266750000007
21
74.96225698400002
31
0.0
  0
LINE
 8
Layer0
10
140.4953438288333
20
94.27348718190056
30
0.0
11
140.49030728399995
21
94.35737948400013
31
0.0
 0
ENDSEC
 0
EOF
