 0
SECTION
 2
ENTITIES
  0
POLYLINE
 8
Layer0
 66
     1
70
    8
 10
0.0
 20
 0.0
 30
0.0
  0
VERTEX
  8
MY3DLAYER
10
46.61089306831688
20
75.30925475321764
30
0.0
 70
     32
  0
VERTEX
  8
MY3DLAYER
10
44.7768223214941
20
75.41221179065847
30
0.0
 70
     32
  0
VERTEX
  8
MY3DLAYER
10
45.694705870236675
20
75.38711386632627
30
0.0
 70
     32
  0
VERTEX
  8
MY3DLAYER
10
46.61089306831688
20
75.30925475321764
30
0.0
 70
     32
  0
SEQEND
  0
POLYLINE
 8
Layer0
 66
     1
70
    8
 10
0.0
 20
 0.0
 30
0.0
  0
VERTEX
  8
MY3DLAYER
10
44.7768223214941
20
75.41221179065847
30
0.0
 70
     32
  0
VERTEX
  8
MY3DLAYER
10
46.61089306831688
20
75.30925475321764
30
0.0
 70
     32
  0
VERTEX
  8
MY3DLAYER
10
47.81195443453349
20
75.72558135435392
30
0.0
 70
     32
  0
VERTEX
  8
MY3DLAYER
10
49.05000248942537
20
76.04355604178008
30
0.0
 70
     32
  0
VERTEX
  8
MY3DLAYER
10
50.32268523759565
20
76.26356908021906
30
0.0
 70
     32
  0
VERTEX
  8
MY3DLAYER
10
51.62765068364738
20
76.38601073439378
30
0.0
 70
     32
  0
VERTEX
  8
MY3DLAYER
10
52.962546832183676
20
76.41127126902717
30
0.0
 70
     32
  0
VERTEX
  8
MY3DLAYER
10
54.32502168780761
20
76.33974094884219
30
0.0
 70
     32
  0
VERTEX
  8
MY3DLAYER
10
55.71272325512231
20
76.17181003856177
30
0.0
 70
     32
  0
VERTEX
  8
MY3DLAYER
10
57.12329953873085
20
75.90786880290887
30
0.0
 70
     32
  0
VERTEX
  8
MY3DLAYER
10
58.55439854323627
20
75.54830750660636
30
0.0
 70
     32
  0
VERTEX
  8
MY3DLAYER
10
60.00366827324175
20
75.09351641437728
30
0.0
 70
     32
  0
VERTEX
  8
MY3DLAYER
10
61.468756733350304
20
74.54388579094447
30
0.0
 70
     32
  0
VERTEX
  8
MY3DLAYER
10
62.947311928165064
20
73.89980590103096
30
0.0
 70
     32
  0
VERTEX
  8
MY3DLAYER
10
64.4352571812987
20
73.24229020850407
30
0.0
 70
     32
  0
VERTEX
  8
MY3DLAYER
10
65.94318051922703
20
72.64425432877277
30
0.0
 70
     32
  0
VERTEX
  8
MY3DLAYER
10
67.4701210234767
20
72.1033081072228
30
0.0
 70
     32
  0
VERTEX
  8
MY3DLAYER
10
69.0151177755743
20
71.6170613892399
30
0.0
 70
     32
  0
VERTEX
  8
MY3DLAYER
10
70.57720985704647
20
71.18312402020975
30
0.0
 70
     32
  0
VERTEX
  8
MY3DLAYER
10
72.15543634941989
20
70.79910584551813
30
0.0
 70
     32
  0
VERTEX
  8
MY3DLAYER
10
73.74883633422114
20
70.46261671055079
30
0.0
 70
     32
  0
VERTEX
  8
MY3DLAYER
10
75.35644889297687
20
70.17126646069347
30
0.0
 70
     32
  0
VERTEX
  8
MY3DLAYER
10
76.97731310721372
20
69.92266494133186
30
0.0
 70
     32
  0
VERTEX
  8
MY3DLAYER
10
78.61046805845831
20
69.71442199785176
30
0.0
 70
     32
  0
VERTEX
  8
MY3DLAYER
10
80.25495282823725
20
69.54414747563885
30
0.0
 70
     32
  0
VERTEX
  8
MY3DLAYER
10
81.9098064980772
20
69.40945122007888
30
0.0
 70
     32
  0
VERTEX
  8
MY3DLAYER
10
81.64511855592107
20
70.23993700771425
30
0.0
 70
     32
  0
VERTEX
  8
MY3DLAYER
10
81.44773306611808
20
71.10478083430219
30
0.0
 70
     32
  0
VERTEX
  8
MY3DLAYER
10
81.3142469202842
20
71.99650436049625
30
0.0
 70
     32
  0
VERTEX
  8
MY3DLAYER
10
81.24125701003543
20
72.90762924694997
30
0.0
 70
     32
  0
VERTEX
  8
MY3DLAYER
10
81.22536022698773
20
73.83067715431694
30
0.0
 70
     32
  0
VERTEX
  8
MY3DLAYER
10
81.26315346275709
20
74.7581697432507
30
0.0
 70
     32
  0
VERTEX
  8
MY3DLAYER
10
81.35123360895949
20
75.68262867440485
30
0.0
 70
     32
  0
VERTEX
  8
MY3DLAYER
10
81.4861975572109
20
76.59657560843291
30
0.0
 70
     32
  0
VERTEX
  8
MY3DLAYER
10
81.66464219912724
20
77.4925322059884
30
0.0
 70
     32
  0
VERTEX
  8
MY3DLAYER
10
81.88316442632461
20
78.36302012772498
30
0.0
 70
     32
  0
VERTEX
  8
MY3DLAYER
10
82.13836113041886
20
79.20056103429613
30
0.0
 70
     32
  0
VERTEX
  8
MY3DLAYER
10
82.42682920302606
20
79.99767658635544
30
0.0
 70
     32
  0
VERTEX
  8
MY3DLAYER
10
82.71864632512604
20
80.65145079652925
30
0.0
 70
     32
  0
VERTEX
  8
MY3DLAYER
10
83.06684715988627
20
81.28009802933042
30
0.0
 70
     32
  0
VERTEX
  8
MY3DLAYER
10
83.4654563207711
20
81.88450895558213
30
0.0
 70
     32
  0
VERTEX
  8
MY3DLAYER
10
83.9084984212449
20
82.4655742461077
30
0.0
 70
     32
  0
VERTEX
  8
MY3DLAYER
10
84.38999807477198
20
83.02418457173033
30
0.0
 70
     32
  0
VERTEX
  8
MY3DLAYER
10
84.90397989481671
20
83.56123060327326
30
0.0
 70
     32
  0
VERTEX
  8
MY3DLAYER
10
85.44446849484343
20
84.0776030115597
30
0.0
 70
     32
  0
VERTEX
  8
MY3DLAYER
10
86.00548848831647
20
84.57419246741297
30
0.0
 70
     32
  0
VERTEX
  8
MY3DLAYER
10
86.58106448870015
20
85.05188964165623
30
0.0
 70
     32
  0
VERTEX
  8
MY3DLAYER
10
87.16522110945887
20
85.51158520511274
30
0.0
 70
     32
  0
VERTEX
  8
MY3DLAYER
10
87.75198296405691
20
85.95416982860574
30
0.0
 70
     32
  0
VERTEX
  8
MY3DLAYER
10
88.33537466595867
20
86.3805341829585
30
0.0
 70
     32
  0
VERTEX
  8
MY3DLAYER
10
89.72031113544008
20
87.33628887587253
30
0.0
 70
     32
  0
VERTEX
  8
MY3DLAYER
10
91.18034321016427
20
88.2583966788847
30
0.0
 70
     32
  0
VERTEX
  8
MY3DLAYER
10
92.7053326798842
20
89.14056045387663
30
0.0
 70
     32
  0
VERTEX
  8
MY3DLAYER
10
94.28514133435291
20
89.97648306273
30
0.0
 70
     32
  0
VERTEX
  8
MY3DLAYER
10
95.90963096332334
20
90.75986736732648
30
0.0
 70
     32
  0
VERTEX
  8
MY3DLAYER
10
97.56866335654854
20
91.48441622954763
30
0.0
 70
     32
  0
VERTEX
  8
MY3DLAYER
10
99.25210030378152
20
92.14383251127526
30
0.0
 70
     32
  0
VERTEX
  8
MY3DLAYER
10
100.94980359477522
20
92.73181907439088
30
0.0
 70
     32
  0
VERTEX
  8
MY3DLAYER
10
102.65163501928266
20
93.2420787807762
30
0.0
 70
     32
  0
VERTEX
  8
MY3DLAYER
10
104.34745636705688
20
93.66831449231287
30
0.0
 70
     32
  0
VERTEX
  8
MY3DLAYER
10
106.0271294278508
20
94.00422907088254
30
0.0
 70
     32
  0
VERTEX
  8
MY3DLAYER
10
107.68051599141751
20
94.24352537836688
30
0.0
 70
     32
  0
VERTEX
  8
MY3DLAYER
10
107.52293490158942
20
94.52876422720549
30
0.0
 70
     32
  0
VERTEX
  8
MY3DLAYER
10
107.30313520786565
20
94.76820420992487
30
0.0
 70
     32
  0
VERTEX
  8
MY3DLAYER
10
107.03037398947433
20
94.96582342493414
30
0.0
 70
     32
  0
VERTEX
  8
MY3DLAYER
10
106.71390832564354
20
95.12559997064251
30
0.0
 70
     32
  0
VERTEX
  8
MY3DLAYER
10
106.36299529560138
20
95.25151194545909
30
0.0
 70
     32
  0
VERTEX
  8
MY3DLAYER
10
105.98689197857593
20
95.34753744779302
30
0.0
 70
     32
  0
VERTEX
  8
MY3DLAYER
10
105.59485545379535
20
95.4176545760535
30
0.0
 70
     32
  0
VERTEX
  8
MY3DLAYER
10
105.19614280048769
20
95.46584142864967
30
0.0
 70
     32
  0
VERTEX
  8
MY3DLAYER
10
104.80001109788105
20
95.49607610399065
30
0.0
 70
     32
  0
VERTEX
  8
MY3DLAYER
10
104.41571742520357
20
95.51233670048562
30
0.0
 70
     32
  0
VERTEX
  8
MY3DLAYER
10
104.05251886168323
20
95.5186013165437
30
0.0
 70
     32
  0
VERTEX
  8
MY3DLAYER
10
103.71967248654833
20
95.5188480505741
30
0.0
 70
     32
  0
VERTEX
  8
MY3DLAYER
10
104.28558032886245
20
96.15010875613653
30
0.0
 70
     32
  0
VERTEX
  8
MY3DLAYER
10
105.21927191156385
20
96.67829621209621
30
0.0
 70
     32
  0
VERTEX
  8
MY3DLAYER
10
106.45108064533338
20
97.09913138257988
30
0.0
 70
     32
  0
VERTEX
  8
MY3DLAYER
10
107.91133994085183
20
97.4083352317142
30
0.0
 70
     32
  0
VERTEX
  8
MY3DLAYER
10
109.5303832087999
20
97.60162872362594
30
0.0
 70
     32
  0
VERTEX
  8
MY3DLAYER
10
111.2385438598585
20
97.67473282244181
30
0.0
 70
     32
  0
VERTEX
  8
MY3DLAYER
10
112.96615530470834
20
97.62336849228848
30
0.0
 70
     32
  0
VERTEX
  8
MY3DLAYER
10
114.64355095403023
20
97.44325669729274
30
0.0
 70
     32
  0
VERTEX
  8
MY3DLAYER
10
116.20106421850488
20
97.13011840158117
30
0.0
 70
     32
  0
VERTEX
  8
MY3DLAYER
10
117.5690285088132
20
96.67967456928064
30
0.0
 70
     32
  0
VERTEX
  8
MY3DLAYER
10
118.6777772356359
20
96.08764616451775
30
0.0
 70
     32
  0
VERTEX
  8
MY3DLAYER
10
119.47978685186332
20
95.35999672134409
30
0.0
 70
     32
  0
VERTEX
  8
MY3DLAYER
10
119.53612922537147
20
95.39370894445142
30
0.0
 70
     32
  0
VERTEX
  8
MY3DLAYER
10
119.6115408004973
20
95.45536759074092
30
0.0
 70
     32
  0
VERTEX
  8
MY3DLAYER
10
119.69089144756005
20
95.54944943021216
30
0.0
 70
     32
  0
VERTEX
  8
MY3DLAYER
10
119.75905103687873
20
95.68043123286466
30
0.0
 70
     32
  0
VERTEX
  8
MY3DLAYER
10
119.80088943877259
20
95.85278976869807
30
0.0
 70
     32
  0
VERTEX
  8
MY3DLAYER
10
119.80127652356076
20
96.07100180771192
30
0.0
 70
     32
  0
VERTEX
  8
MY3DLAYER
10
119.7450821615624
20
96.33954411990581
30
0.0
 70
     32
  0
VERTEX
  8
MY3DLAYER
10
119.61717622309658
20
96.66289347527929
30
0.0
 70
     32
  0
VERTEX
  8
MY3DLAYER
10
119.40242857848247
20
97.0455266438319
30
0.0
 70
     32
  0
VERTEX
  8
MY3DLAYER
10
119.08570909803926
20
97.49192039556327
30
0.0
 70
     32
  0
VERTEX
  8
MY3DLAYER
10
118.6518876520861
20
98.00655150047301
30
0.0
 70
     32
  0
VERTEX
  8
MY3DLAYER
10
119.44515071316009
20
97.98754141673369
30
0.0
 70
     32
  0
VERTEX
  8
MY3DLAYER
10
120.24658678478728
20
97.90402924684204
30
0.0
 70
     32
  0
VERTEX
  8
MY3DLAYER
10
121.05235913111382
20
97.75956466526694
30
0.0
 70
     32
  0
VERTEX
  8
MY3DLAYER
10
121.85863101628571
20
97.55769734647723
30
0.0
 70
     32
  0
VERTEX
  8
MY3DLAYER
10
122.66156570444902
20
97.30197696494173
30
0.0
 70
     32
  0
VERTEX
  8
MY3DLAYER
10
123.45732645974978
20
96.99595319512942
30
0.0
 70
     32
  0
VERTEX
  8
MY3DLAYER
10
124.242076546334
20
96.64317571150904
30
0.0
 70
     32
  0
VERTEX
  8
MY3DLAYER
10
125.01197922834783
20
96.2471941885495
30
0.0
 70
     32
  0
VERTEX
  8
MY3DLAYER
10
125.76319776993721
20
95.8115583007196
30
0.0
 70
     32
  0
VERTEX
  8
MY3DLAYER
10
126.49189543524821
20
95.33981772248833
30
0.0
 70
     32
  0
VERTEX
  8
MY3DLAYER
10
127.19423548842687
20
94.83552212832444
30
0.0
 70
     32
  0
VERTEX
  8
MY3DLAYER
10
127.86638119361929
20
94.30222119269683
30
0.0
 70
     32
  0
VERTEX
  8
MY3DLAYER
10
128.40703515025453
20
93.80666463747698
30
0.0
 70
     32
  0
VERTEX
  8
MY3DLAYER
10
128.87196907809033
20
93.2869420233578
30
0.0
 70
     32
  0
VERTEX
  8
MY3DLAYER
10
129.2606643586726
20
92.74749629739628
30
0.0
 70
     32
  0
VERTEX
  8
MY3DLAYER
10
129.5726023735474
20
92.19277040664933
30
0.0
 70
     32
  0
VERTEX
  8
MY3DLAYER
10
129.80726450426056
20
91.62720729817381
30
0.0
 70
     32
  0
VERTEX
  8
MY3DLAYER
10
129.9641321323581
20
91.0552499190267
30
0.0
 70
     32
  0
VERTEX
  8
MY3DLAYER
10
130.04268663938603
20
90.4813412162649
30
0.0
 70
     32
  0
VERTEX
  8
MY3DLAYER
10
130.04240940689027
20
89.90992413694534
30
0.0
 70
     32
  0
VERTEX
  8
MY3DLAYER
10
129.9627818164167
20
89.34544162812486
30
0.0
 70
     32
  0
VERTEX
  8
MY3DLAYER
10
129.80328524951148
20
88.79233663686051
30
0.0
 70
     32
  0
VERTEX
  8
MY3DLAYER
10
129.5634010877204
20
88.2550521102091
30
0.0
 70
     32
  0
VERTEX
  8
MY3DLAYER
10
129.24261071258948
20
87.73803099522763
30
0.0
 70
     32
  0
VERTEX
  8
MY3DLAYER
10
129.60353475548746
20
87.636549592067
30
0.0
 70
     32
  0
VERTEX
  8
MY3DLAYER
10
129.96279540341078
20
87.52777023858742
30
0.0
 70
     32
  0
VERTEX
  8
MY3DLAYER
10
130.32087311559616
20
87.41239801305503
30
0.0
 70
     32
  0
VERTEX
  8
MY3DLAYER
10
130.67824835128022
20
87.29113799373587
30
0.0
 70
     32
  0
VERTEX
  8
MY3DLAYER
10
131.03540156969967
20
87.1646952588961
30
0.0
 70
     32
  0
VERTEX
  8
MY3DLAYER
10
131.39281323009124
20
87.0337748868018
30
0.0
 70
     32
  0
VERTEX
  8
MY3DLAYER
10
131.75096379169153
20
86.89908195571914
30
0.0
 70
     32
  0
VERTEX
  8
MY3DLAYER
10
132.1103337137373
20
86.76132154391416
30
0.0
 70
     32
  0
VERTEX
  8
MY3DLAYER
10
132.47140345546512
20
86.62119872965296
30
0.0
 70
     32
  0
VERTEX
  8
MY3DLAYER
10
132.83465347611187
20
86.47941859120169
30
0.0
 70
     32
  0
VERTEX
  8
MY3DLAYER
10
133.20056423491403
20
86.33668620682646
30
0.0
 70
     32
  0
VERTEX
  8
MY3DLAYER
10
133.56961619110842
20
86.1937066547934
30
0.0
 70
     32
  0
VERTEX
  8
MY3DLAYER
10
133.9645022265364
20
86.04453027713002
30
0.0
 70
     32
  0
VERTEX
  8
MY3DLAYER
10
134.3348726993244
20
85.90623014366744
30
0.0
 70
     32
  0
VERTEX
  8
MY3DLAYER
10
134.68066863613637
20
85.77208416136685
30
0.0
 70
     32
  0
VERTEX
  8
MY3DLAYER
10
135.00183106363653
20
85.63537023718928
30
0.0
 70
     32
  0
VERTEX
  8
MY3DLAYER
10
135.29830100848883
20
85.48936627809593
30
0.0
 70
     32
  0
VERTEX
  8
MY3DLAYER
10
135.57001949735746
20
85.32735019104787
30
0.0
 70
     32
  0
VERTEX
  8
MY3DLAYER
10
135.81692755690648
20
85.14259988300623
30
0.0
 70
     32
  0
VERTEX
  8
MY3DLAYER
10
136.03896621380002
20
84.92839326093214
30
0.0
 70
     32
  0
VERTEX
  8
MY3DLAYER
10
136.23607649470208
20
84.67800823178669
30
0.0
 70
     32
  0
VERTEX
  8
MY3DLAYER
10
136.4081994262768
20
84.38472270253106
30
0.0
 70
     32
  0
VERTEX
  8
MY3DLAYER
10
136.55527603518826
20
84.04181458012633
30
0.0
 70
     32
  0
VERTEX
  8
MY3DLAYER
10
136.6772473481006
20
83.64256177153362
30
0.0
 70
     32
  0
VERTEX
  8
MY3DLAYER
10
136.77694784324225
20
83.18343830725242
30
0.0
 70
     32
  0
VERTEX
  8
MY3DLAYER
10
136.83360994473819
20
82.791406552374
30
0.0
 70
     32
  0
VERTEX
  8
MY3DLAYER
10
136.8619752520563
20
82.457097551783
30
0.0
 70
     32
  0
VERTEX
  8
MY3DLAYER
10
136.87678536466439
20
82.17114235036406
30
0.0
 70
     32
  0
VERTEX
  8
MY3DLAYER
10
136.8927818820301
20
81.92417199300185
30
0.0
 70
     32
  0
VERTEX
  8
MY3DLAYER
10
136.92470640362146
20
81.70681752458104
30
0.0
 70
     32
  0
VERTEX
  8
MY3DLAYER
10
136.98730052890605
20
81.50970998998628
30
0.0
 70
     32
  0
VERTEX
  8
MY3DLAYER
10
137.09530585735183
20
81.32348043410221
30
0.0
 70
     32
  0
VERTEX
  8
MY3DLAYER
10
137.26346398842645
20
81.13875990181347
30
0.0
 70
     32
  0
VERTEX
  8
MY3DLAYER
10
137.50651652159783
20
80.94617943800482
30
0.0
 70
     32
  0
VERTEX
  8
MY3DLAYER
10
137.8392050563337
20
80.7363700875608
30
0.0
 70
     32
  0
VERTEX
  8
MY3DLAYER
10
138.2762711921019
20
80.49996289536614
30
0.0
 70
     32
  0
VERTEX
  8
MY3DLAYER
10
138.8254728134244
20
80.21984966776462
30
0.0
 70
     32
  0
VERTEX
  8
MY3DLAYER
10
139.37467616925684
20
79.94289845167381
30
0.0
 70
     32
  0
VERTEX
  8
MY3DLAYER
10
139.9247571870884
20
79.67122014561741
30
0.0
 70
     32
  0
VERTEX
  8
MY3DLAYER
10
140.4765917944084
20
79.406925648119
30
0.0
 70
     32
  0
VERTEX
  8
MY3DLAYER
10
141.03105591870596
20
79.15212585770217
30
0.0
 70
     32
  0
VERTEX
  8
MY3DLAYER
10
141.58902548747056
20
78.90893167289065
30
0.0
 70
     32
  0
VERTEX
  8
MY3DLAYER
10
142.1513764281913
20
78.67945399220798
30
0.0
 70
     32
  0
VERTEX
  8
MY3DLAYER
10
142.71898466835754
20
78.46580371417782
30
0.0
 70
     32
  0
VERTEX
  8
MY3DLAYER
10
143.2927261354584
20
78.27009173732377
30
0.0
 70
     32
  0
VERTEX
  8
MY3DLAYER
10
143.8734767569833
20
78.09442896016948
30
0.0
 70
     32
  0
VERTEX
  8
MY3DLAYER
10
144.46211246042142
20
77.94092628123859
30
0.0
 70
     32
  0
VERTEX
  8
MY3DLAYER
10
145.05950917326206
20
77.81169459905472
30
0.0
 70
     32
  0
VERTEX
  8
MY3DLAYER
10
145.48939790714792
20
77.72380669436399
30
0.0
 70
     32
  0
VERTEX
  8
MY3DLAYER
10
145.8573073995015
20
77.63489716335411
30
0.0
 70
     32
  0
VERTEX
  8
MY3DLAYER
10
146.1683214987803
20
77.5384702665255
30
0.0
 70
     32
  0
VERTEX
  8
MY3DLAYER
10
146.42752405344174
20
77.42803026437858
30
0.0
 70
     32
  0
VERTEX
  8
MY3DLAYER
10
146.63999891194348
20
77.29708141741375
30
0.0
 70
     32
  0
VERTEX
  8
MY3DLAYER
10
146.81082992274276
20
77.13912798613148
30
0.0
 70
     32
  0
VERTEX
  8
MY3DLAYER
10
146.9451009342972
20
76.94767423103217
30
0.0
 70
     32
  0
VERTEX
  8
MY3DLAYER
10
147.04789579506428
20
76.71622441261628
30
0.0
 70
     32
  0
VERTEX
  8
MY3DLAYER
10
147.12429835350142
20
76.43828279138414
30
0.0
 70
     32
  0
VERTEX
  8
MY3DLAYER
10
147.17939245806608
20
76.10735362783628
30
0.0
 70
     32
  0
VERTEX
  8
MY3DLAYER
10
147.2182619572158
20
75.71694118247304
30
0.0
 70
     32
  0
VERTEX
  8
MY3DLAYER
10
147.24599069940805
20
75.26054971579492
30
0.0
 70
     32
  0
VERTEX
  8
MY3DLAYER
10
147.26406400326985
20
74.90361360019541
30
0.0
 70
     32
  0
VERTEX
  8
MY3DLAYER
10
147.2854242033537
20
74.45983057491799
30
0.0
 70
     32
  0
VERTEX
  8
MY3DLAYER
10
147.3049909202219
20
73.94883876082095
30
0.0
 70
     32
  0
VERTEX
  8
MY3DLAYER
10
147.3176837744368
20
73.39027627876249
30
0.0
 70
     32
  0
VERTEX
  8
MY3DLAYER
10
147.31842238656054
20
72.80378124960093
30
0.0
 70
     32
  0
VERTEX
  8
MY3DLAYER
10
147.3021263771555
20
72.20899179419453
30
0.0
 70
     32
  0
VERTEX
  8
MY3DLAYER
10
147.26371536678403
20
71.62554603340155
30
0.0
 70
     32
  0
VERTEX
  8
MY3DLAYER
10
147.19810897600829
20
71.07308208808024
30
0.0
 70
     32
  0
VERTEX
  8
MY3DLAYER
10
147.10022682539054
20
70.57123807908884
30
0.0
 70
     32
  0
VERTEX
  8
MY3DLAYER
10
146.96498853549318
20
70.13965212728566
30
0.0
 70
     32
  0
VERTEX
  8
MY3DLAYER
10
146.7873137268784
20
69.79796235352893
30
0.0
 70
     32
  0
VERTEX
  8
MY3DLAYER
10
146.56212202010852
20
69.56580687867695
30
0.0
 70
     32
  0
VERTEX
  8
MY3DLAYER
10
146.26653551895495
20
69.30527265405527
30
0.0
 70
     32
  0
VERTEX
  8
MY3DLAYER
10
146.04951190829368
20
69.04810771487499
30
0.0
 70
     32
  0
VERTEX
  8
MY3DLAYER
10
145.89097597077685
20
68.79531894412123
30
0.0
 70
     32
  0
VERTEX
  8
MY3DLAYER
10
145.7708524890564
20
68.54791322477921
30
0.0
 70
     32
  0
VERTEX
  8
MY3DLAYER
10
145.66906624578436
20
68.30689743983413
30
0.0
 70
     32
  0
VERTEX
  8
MY3DLAYER
10
145.56554202361286
20
68.07327847227111
30
0.0
 70
     32
  0
VERTEX
  8
MY3DLAYER
10
145.440204605194
20
67.8480632050754
30
0.0
 70
     32
  0
VERTEX
  8
MY3DLAYER
10
145.2729787731797
20
67.63225852123212
30
0.0
 70
     32
  0
VERTEX
  8
MY3DLAYER
10
145.04378931022202
20
67.42687130372646
30
0.0
 70
     32
  0
VERTEX
  8
MY3DLAYER
10
144.73256099897304
20
67.23290843554365
30
0.0
 70
     32
  0
VERTEX
  8
MY3DLAYER
10
144.3192186220848
20
67.0513767996688
30
0.0
 70
     32
  0
VERTEX
  8
MY3DLAYER
10
143.7836869622094
20
66.88328327908717
30
0.0
 70
     32
  0
VERTEX
  8
MY3DLAYER
10
143.55825965118086
20
66.8211352119266
30
0.0
 70
     32
  0
VERTEX
  8
MY3DLAYER
10
143.31607697471415
20
66.75049151537513
30
0.0
 70
     32
  0
VERTEX
  8
MY3DLAYER
10
143.05863754934543
20
66.67158808277644
30
0.0
 70
     32
  0
VERTEX
  8
MY3DLAYER
10
142.78743999161068
20
66.58466080747411
30
0.0
 70
     32
  0
VERTEX
  8
MY3DLAYER
10
142.503982918046
20
66.48994558281179
30
0.0
 70
     32
  0
VERTEX
  8
MY3DLAYER
10
142.20976494518752
20
66.38767830213315
30
0.0
 70
     32
  0
VERTEX
  8
MY3DLAYER
10
141.90628468957132
20
66.27809485878184
30
0.0
 70
     32
  0
VERTEX
  8
MY3DLAYER
10
141.59504076773348
20
66.16143114610149
30
0.0
 70
     32
  0
VERTEX
  8
MY3DLAYER
10
141.27753179620998
20
66.0379230574357
30
0.0
 70
     32
  0
VERTEX
  8
MY3DLAYER
10
140.95525639153706
20
65.9078064861282
30
0.0
 70
     32
  0
VERTEX
  8
MY3DLAYER
10
140.62971317025068
20
65.77131732552255
30
0.0
 70
     32
  0
VERTEX
  8
MY3DLAYER
10
140.30240074888704
20
65.62869146896244
30
0.0
 70
     32
  0
VERTEX
  8
MY3DLAYER
10
140.32804143026905
20
65.58614509795268
30
0.0
 70
     32
  0
VERTEX
  8
MY3DLAYER
10
140.35383474852054
20
65.54358485086387
30
0.0
 70
     32
  0
VERTEX
  8
MY3DLAYER
10
140.37951705813967
20
65.50087196690563
30
0.0
 70
     32
  0
VERTEX
  8
MY3DLAYER
10
140.40482471362478
20
65.45786768528762
30
0.0
 70
     32
  0
VERTEX
  8
MY3DLAYER
10
140.42949406947423
20
65.41443324521944
30
0.0
 70
     32
  0
VERTEX
  8
MY3DLAYER
10
140.45326148018611
20
65.3704298859107
30
0.0
 70
     32
  0
VERTEX
  8
MY3DLAYER
10
141.54810435221808
20
62.7082809957081
30
0.0
 70
     32
  0
VERTEX
  8
MY3DLAYER
10
142.05257209648755
20
60.1445898243183
30
0.0
 70
     32
  0
VERTEX
  8
MY3DLAYER
10
142.05376833013455
20
57.70260227314939
30
0.0
 70
     32
  0
VERTEX
  8
MY3DLAYER
10
141.63879667029937
20
55.405564243609454
30
0.0
 70
     32
  0
VERTEX
  8
MY3DLAYER
10
140.89476073412192
20
53.27672163710659
30
0.0
 70
     32
  0
VERTEX
  8
MY3DLAYER
10
139.90876413874238
20
51.339320355048905
30
0.0
 70
     32
  0
VERTEX
  8
MY3DLAYER
10
138.76791050130092
20
49.61660629884448
30
0.0
 70
     32
  0
VERTEX
  8
MY3DLAYER
10
137.55930343893755
20
48.131825369901435
30
0.0
 70
     32
  0
VERTEX
  8
MY3DLAYER
10
136.37004656879236
20
46.90822346962783
30
0.0
 70
     32
  0
VERTEX
  8
MY3DLAYER
10
135.28724350800562
20
45.96904649943178
30
0.0
 70
     32
  0
VERTEX
  8
MY3DLAYER
10
134.39799787371717
20
45.337540360721334
30
0.0
 70
     32
  0
VERTEX
  8
MY3DLAYER
10
133.78941328306738
20
45.03695095490467
30
0.0
 70
     32
  0
VERTEX
  8
MY3DLAYER
10
133.79529009162485
20
45.18748993462108
30
0.0
 70
     32
  0
VERTEX
  8
MY3DLAYER
10
133.79942024873347
20
45.350834800779495
30
0.0
 70
     32
  0
VERTEX
  8
MY3DLAYER
10
133.80028605824845
20
45.523931081481734
30
0.0
 70
     32
  0
VERTEX
  8
MY3DLAYER
10
133.796369824025
20
45.70372430482961
30
0.0
 70
     32
  0
VERTEX
  8
MY3DLAYER
10
133.78615384991838
20
45.88715999892489
30
0.0
 70
     32
  0
VERTEX
  8
MY3DLAYER
10
133.76812043978384
20
46.07118369186941
30
0.0
 70
     32
  0
VERTEX
  8
MY3DLAYER
10
133.74075189747663
20
46.25274091176497
30
0.0
 70
     32
  0
VERTEX
  8
MY3DLAYER
10
133.70253052685197
20
46.42877718671335
30
0.0
 70
     32
  0
VERTEX
  8
MY3DLAYER
10
133.65193863176506
20
46.59623804481636
30
0.0
 70
     32
  0
VERTEX
  8
MY3DLAYER
10
133.5874585160712
20
46.752069014175824
30
0.0
 70
     32
  0
VERTEX
  8
MY3DLAYER
10
133.50757248362564
20
46.89321562289348
30
0.0
 70
     32
  0
VERTEX
  8
MY3DLAYER
10
133.41076283828352
20
47.0166233990712
30
0.0
 70
     32
  0
VERTEX
  8
MY3DLAYER
10
133.19710966940357
20
47.234247150150836
30
0.0
 70
     32
  0
VERTEX
  8
MY3DLAYER
10
133.02344215678093
20
47.38579648187218
30
0.0
 70
     32
  0
VERTEX
  8
MY3DLAYER
10
132.88335128641006
20
47.47758847921719
30
0.0
 70
     32
  0
VERTEX
  8
MY3DLAYER
10
132.77042804428535
20
47.51594022716782
30
0.0
 70
     32
  0
VERTEX
  8
MY3DLAYER
10
132.67826341640117
20
47.50716881070605
30
0.0
 70
     32
  0
VERTEX
  8
MY3DLAYER
10
132.60044838875197
20
47.45759131481382
30
0.0
 70
     32
  0
VERTEX
  8
MY3DLAYER
10
132.53057394733216
20
47.373524824473115
30
0.0
 70
     32
  0
VERTEX
  8
MY3DLAYER
10
132.4622310781362
20
47.26128642466591
30
0.0
 70
     32
  0
VERTEX
  8
MY3DLAYER
10
132.38901076715837
20
47.12719320037414
30
0.0
 70
     32
  0
VERTEX
  8
MY3DLAYER
10
132.3045040003932
20
46.977562236579764
30
0.0
 70
     32
  0
VERTEX
  8
MY3DLAYER
10
132.20230176383504
20
46.81871061826479
30
0.0
 70
     32
  0
VERTEX
  8
MY3DLAYER
10
132.07599504347834
20
46.656955430411124
30
0.0
 70
     32
  0
VERTEX
  8
MY3DLAYER
10
131.53086605135343
20
45.04541998847742
30
0.0
 70
     32
  0
VERTEX
  8
MY3DLAYER
10
130.84407443382156
20
43.510341742042044
30
0.0
 70
     32
  0
VERTEX
  8
MY3DLAYER
10
130.03768142204308
20
42.0604487448198
30
0.0
 70
     32
  0
VERTEX
  8
MY3DLAYER
10
129.13374824717818
20
40.70446905052547
30
0.0
 70
     32
  0
VERTEX
  8
MY3DLAYER
10
128.15433614038704
20
39.451130712873834
30
0.0
 70
     32
  0
VERTEX
  8
MY3DLAYER
10
127.12150633283002
20
38.30916178557966
30
0.0
 70
     32
  0
VERTEX
  8
MY3DLAYER
10
126.05732005566729
20
37.28729032235778
30
0.0
 70
     32
  0
VERTEX
  8
MY3DLAYER
10
124.98383854005914
20
36.39424437692293
30
0.0
 70
     32
  0
VERTEX
  8
MY3DLAYER
10
123.92312301716571
20
35.6387520029899
30
0.0
 70
     32
  0
VERTEX
  8
MY3DLAYER
10
122.89723471814737
20
35.02954125427348
30
0.0
 70
     32
  0
VERTEX
  8
MY3DLAYER
10
121.92823487416423
20
34.57534018448846
30
0.0
 70
     32
  0
VERTEX
  8
MY3DLAYER
10
121.03818471637669
20
34.28487684734963
30
0.0
 70
     32
  0
VERTEX
  8
MY3DLAYER
10
121.02024294618079
20
34.57646530323045
30
0.0
 70
     32
  0
VERTEX
  8
MY3DLAYER
10
121.00009487941789
20
34.866575956693744
30
0.0
 70
     32
  0
VERTEX
  8
MY3DLAYER
10
120.9776780737323
20
35.15529206421373
30
0.0
 70
     32
  0
VERTEX
  8
MY3DLAYER
10
120.95293008676836
20
35.442696882264656
30
0.0
 70
     32
  0
VERTEX
  8
MY3DLAYER
10
120.92578847617041
20
35.72887366732072
30
0.0
 70
     32
  0
VERTEX
  8
MY3DLAYER
10
120.89619079958277
20
36.01390567585617
30
0.0
 70
     32
  0
VERTEX
  8
MY3DLAYER
10
120.86407461464972
20
36.29787616434523
30
0.0
 70
     32
  0
VERTEX
  8
MY3DLAYER
10
120.82937747901569
20
36.58086838926213
30
0.0
 70
     32
  0
VERTEX
  8
MY3DLAYER
10
120.79203695032496
20
36.86296560708109
30
0.0
 70
     32
  0
VERTEX
  8
MY3DLAYER
10
120.75199058622182
20
37.144251074276326
30
0.0
 70
     32
  0
VERTEX
  8
MY3DLAYER
10
120.70917594435065
20
37.424808047322074
30
0.0
 70
     32
  0
VERTEX
  8
MY3DLAYER
10
120.66353058235578
20
37.704719782692585
30
0.0
 70
     32
  0
VERTEX
  8
MY3DLAYER
10
120.15455947226859
20
36.93658774618101
30
0.0
 70
     32
  0
VERTEX
  8
MY3DLAYER
10
119.63411978285666
20
36.178233141861455
30
0.0
 70
     32
  0
VERTEX
  8
MY3DLAYER
10
119.10281512355812
20
35.43110775450326
30
0.0
 70
     32
  0
VERTEX
  8
MY3DLAYER
10
118.56124910381111
20
34.69666336887573
30
0.0
 70
     32
  0
VERTEX
  8
MY3DLAYER
10
118.0100253330538
20
33.97635176974823
30
0.0
 70
     32
  0
VERTEX
  8
MY3DLAYER
10
117.44974742072432
20
33.27162474189005
30
0.0
 70
     32
  0
VERTEX
  8
MY3DLAYER
10
116.88101897626079
20
32.58393407007056
30
0.0
 70
     32
  0
VERTEX
  8
MY3DLAYER
10
116.30444360910144
20
31.914731539059066
30
0.0
 70
     32
  0
VERTEX
  8
MY3DLAYER
10
115.72062492868426
20
31.265468933624906
30
0.0
 70
     32
  0
VERTEX
  8
MY3DLAYER
10
115.13016654444755
20
30.63759803853742
30
0.0
 70
     32
  0
VERTEX
  8
MY3DLAYER
10
114.53367206582935
20
30.032570638565925
30
0.0
 70
     32
  0
VERTEX
  8
MY3DLAYER
10
113.93174510226788
20
29.45183851847977
30
0.0
 70
     32
  0
VERTEX
  8
MY3DLAYER
10
114.01217374722083
20
27.17956032838795
30
0.0
 70
     32
  0
VERTEX
  8
MY3DLAYER
10
114.08346152510762
20
24.944326065797448
30
0.0
 70
     32
  0
VERTEX
  8
MY3DLAYER
10
114.14837324467655
20
22.77397981780752
30
0.0
 70
     32
  0
VERTEX
  8
MY3DLAYER
10
114.2096737146759
20
20.696365671517405
30
0.0
 70
     32
  0
VERTEX
  8
MY3DLAYER
10
114.2701277438539
20
18.739327714026352
30
0.0
 70
     32
  0
VERTEX
  8
MY3DLAYER
10
114.33250014095891
20
16.93071003243362
30
0.0
 70
     32
  0
VERTEX
  8
MY3DLAYER
10
114.39955571473922
20
15.29835671383845
30
0.0
 70
     32
  0
VERTEX
  8
MY3DLAYER
10
114.47405927394303
20
13.870111845340102
30
0.0
 70
     32
  0
VERTEX
  8
MY3DLAYER
10
114.55877562731864
20
12.673819514037802
30
0.0
 70
     32
  0
VERTEX
  8
MY3DLAYER
10
114.6564695836144
20
11.737323807030823
30
0.0
 70
     32
  0
VERTEX
  8
MY3DLAYER
10
114.76990595157852
20
11.088468811418398
30
0.0
 70
     32
  0
VERTEX
  8
MY3DLAYER
10
114.90184953995937
20
10.755098614299792
30
0.0
 70
     32
  0
VERTEX
  8
MY3DLAYER
10
115.22037030891266
20
10.444587811971079
30
0.0
 70
     32
  0
VERTEX
  8
MY3DLAYER
10
115.59764239651207
20
10.177127544857173
30
0.0
 70
     32
  0
VERTEX
  8
MY3DLAYER
10
116.0256870573108
20
9.944003635322337
30
0.0
 70
     32
  0
VERTEX
  8
MY3DLAYER
10
116.49652554586214
20
9.736501905730819
30
0.0
 70
     32
  0
VERTEX
  8
MY3DLAYER
10
117.00217911671939
20
9.545908178446874
30
0.0
 70
     32
  0
VERTEX
  8
MY3DLAYER
10
117.53466902443569
20
9.363508275834755
30
0.0
 70
     32
  0
VERTEX
  8
MY3DLAYER
10
118.0860165235645
20
9.180588020258721
30
0.0
 70
     32
  0
VERTEX
  8
MY3DLAYER
10
118.64824286865884
20
8.988433234083026
30
0.0
 70
     32
  0
VERTEX
  8
MY3DLAYER
10
119.21336931427213
20
8.778329739671916
30
0.0
 70
     32
  0
VERTEX
  8
MY3DLAYER
10
119.77341711495758
20
8.541563359389654
30
0.0
 70
     32
  0
VERTEX
  8
MY3DLAYER
10
120.32040752526844
20
8.269419915600487
30
0.0
 70
     32
  0
VERTEX
  8
MY3DLAYER
10
120.84636179975799
20
7.953185230668674
30
0.0
 70
     32
  0
VERTEX
  8
MY3DLAYER
10
121.03467667014493
20
7.717076518715808
30
0.0
 70
     32
  0
VERTEX
  8
MY3DLAYER
10
121.21493127312083
20
7.438338757448903
30
0.0
 70
     32
  0
VERTEX
  8
MY3DLAYER
10
121.38331142146008
20
7.123693172651898
30
0.0
 70
     32
  0
VERTEX
  8
MY3DLAYER
10
121.53600292793723
20
6.77986099010874
30
0.0
 70
     32
  0
VERTEX
  8
MY3DLAYER
10
121.66919160532672
20
6.413563435603361
30
0.0
 70
     32
  0
VERTEX
  8
MY3DLAYER
10
121.77906326640306
20
6.031521734919707
30
0.0
 70
     32
  0
VERTEX
  8
MY3DLAYER
10
121.86180372394071
20
5.640457113841715
30
0.0
 70
     32
  0
VERTEX
  8
MY3DLAYER
10
121.91359879071419
20
5.2470907981533275
30
0.0
 70
     32
  0
VERTEX
  8
MY3DLAYER
10
121.9306342794979
20
4.85814401363848
30
0.0
 70
     32
  0
VERTEX
  8
MY3DLAYER
10
121.90909600306641
20
4.480337986081119
30
0.0
 70
     32
  0
VERTEX
  8
MY3DLAYER
10
121.8451697741941
20
4.120393941265179
30
0.0
 70
     32
  0
VERTEX
  8
MY3DLAYER
10
121.7350414056556
20
3.7850331049746027
30
0.0
 70
     32
  0
VERTEX
  8
MY3DLAYER
10
121.52245640577655
20
3.3657344211594027
30
0.0
 70
     32
  0
VERTEX
  8
MY3DLAYER
10
121.24894848088202
20
2.9610992838674104
30
0.0
 70
     32
  0
VERTEX
  8
MY3DLAYER
10
120.92513283143586
20
2.573448467317701
30
0.0
 70
     32
  0
VERTEX
  8
MY3DLAYER
10
120.56162465790209
20
2.2051027457293464
30
0.0
 70
     32
  0
VERTEX
  8
MY3DLAYER
10
120.16903916074456
20
1.858382893321422
30
0.0
 70
     32
  0
VERTEX
  8
MY3DLAYER
10
119.7579915404272
20
1.5356096843130012
30
0.0
 70
     32
  0
VERTEX
  8
MY3DLAYER
10
119.33909699741396
20
1.2391038929231575
30
0.0
 70
     32
  0
VERTEX
  8
MY3DLAYER
10
118.92297073216885
20
0.9711862933709666
30
0.0
 70
     32
  0
VERTEX
  8
MY3DLAYER
10
118.52022794515558
20
0.7341776598755012
30
0.0
 70
     32
  0
VERTEX
  8
MY3DLAYER
10
118.1414838368383
20
0.5303987666558356
30
0.0
 70
     32
  0
VERTEX
  8
MY3DLAYER
10
117.79735360768073
20
0.36217038793104395
30
0.0
 70
     32
  0
VERTEX
  8
MY3DLAYER
10
117.49845245814701
20
0.23181329792020045
30
0.0
 70
     32
  0
VERTEX
  8
MY3DLAYER
10
117.08589321246951
20
0.06514713442708253
30
0.0
 70
     32
  0
VERTEX
  8
MY3DLAYER
10
116.63493712158449
20
0.0010494781617103042
30
0.0
 70
     32
  0
VERTEX
  8
MY3DLAYER
10
116.14700474908346
20
0.027611184289881765
30
0.0
 70
     32
  0
VERTEX
  8
MY3DLAYER
10
115.6235166585579
20
0.13292310797739493
30
0.0
 70
     32
  0
VERTEX
  8
MY3DLAYER
10
115.06589341359935
20
0.3050761043900476
30
0.0
 70
     32
  0
VERTEX
  8
MY3DLAYER
10
114.47555557779926
20
0.5321610286936379
30
0.0
 70
     32
  0
VERTEX
  8
MY3DLAYER
10
113.85392371474911
20
0.8022687360539639
30
0.0
 70
     32
  0
VERTEX
  8
MY3DLAYER
10
113.20241838804048
20
1.1034900816368238
30
0.0
 70
     32
  0
VERTEX
  8
MY3DLAYER
10
112.52246016126482
20
1.4239159206080145
30
0.0
 70
     32
  0
VERTEX
  8
MY3DLAYER
10
111.8154695980136
20
1.7516371081333357
30
0.0
 70
     32
  0
VERTEX
  8
MY3DLAYER
10
111.08286726187833
20
2.0747444993785837
30
0.0
 70
     32
  0
VERTEX
  8
MY3DLAYER
10
110.32607371645057
20
2.3813289495095575
30
0.0
 70
     32
  0
VERTEX
  8
MY3DLAYER
10
110.08747771733016
20
2.503628952044092
30
0.0
 70
     32
  0
VERTEX
  8
MY3DLAYER
10
109.84644473182874
20
2.6828954625584824
30
0.0
 70
     32
  0
VERTEX
  8
MY3DLAYER
10
109.60626165616841
20
2.909677136718101
30
0.0
 70
     32
  0
VERTEX
  8
MY3DLAYER
10
109.3702153865712
20
3.1745226301883163
30
0.0
 70
     32
  0
VERTEX
  8
MY3DLAYER
10
109.14159281925924
20
3.4679805986345005
30
0.0
 70
     32
  0
VERTEX
  8
MY3DLAYER
10
108.92368085045459
20
3.7805996977220215
30
0.0
 70
     32
  0
VERTEX
  8
MY3DLAYER
10
108.71976637637933
20
4.102928583116253
30
0.0
 70
     32
  0
VERTEX
  8
MY3DLAYER
10
108.53313629325554
20
4.425515910482565
30
0.0
 70
     32
  0
VERTEX
  8
MY3DLAYER
10
108.36707749730529
20
4.738910335486323
30
0.0
 70
     32
  0
VERTEX
  8
MY3DLAYER
10
108.22487688475069
20
5.033660513792904
30
0.0
 70
     32
  0
VERTEX
  8
MY3DLAYER
10
108.10982135181382
20
5.300315101067672
30
0.0
 70
     32
  0
VERTEX
  8
MY3DLAYER
10
108.02519779471675
20
5.529422752976005
30
0.0
 70
     32
  0
VERTEX
  8
MY3DLAYER
10
107.83505735268135
20
6.148518184411999
30
0.0
 70
     32
  0
VERTEX
  8
MY3DLAYER
10
107.6785733403522
20
6.741889099821769
30
0.0
 70
     32
  0
VERTEX
  8
MY3DLAYER
10
107.55060467044572
20
7.315032161014166
30
0.0
 70
     32
  0
VERTEX
  8
MY3DLAYER
10
107.44601025567847
20
7.873444029798048
30
0.0
 70
     32
  0
VERTEX
  8
MY3DLAYER
10
107.35964900876691
20
8.422621367982266
30
0.0
 70
     32
  0
VERTEX
  8
MY3DLAYER
10
107.28637984242751
20
8.968060837375674
30
0.0
 70
     32
  0
VERTEX
  8
MY3DLAYER
10
107.22106166937674
20
9.515259099787126
30
0.0
 70
     32
  0
VERTEX
  8
MY3DLAYER
10
107.15855340233118
20
10.069712817025474
30
0.0
 70
     32
  0
VERTEX
  8
MY3DLAYER
10
107.09371395400723
20
10.636918650899567
30
0.0
 70
     32
  0
VERTEX
  8
MY3DLAYER
10
107.02140223712142
20
11.222373263218268
30
0.0
 70
     32
  0
VERTEX
  8
MY3DLAYER
10
106.93647716439025
20
11.831573315790415
30
0.0
 70
     32
  0
VERTEX
  8
MY3DLAYER
10
106.83379764853021
20
12.470015470424881
30
0.0
 70
     32
  0
VERTEX
  8
MY3DLAYER
10
106.6653518779005
20
13.423725320733208
30
0.0
 70
     32
  0
VERTEX
  8
MY3DLAYER
10
106.4898466520603
20
14.376061439216793
30
0.0
 70
     32
  0
VERTEX
  8
MY3DLAYER
10
106.30711198904139
20
15.326940569401406
30
0.0
 70
     32
  0
VERTEX
  8
MY3DLAYER
10
106.11697790687558
20
16.276279454812823
30
0.0
 70
     32
  0
VERTEX
  8
MY3DLAYER
10
105.91927442359463
20
17.223994838976814
30
0.0
 70
     32
  0
VERTEX
  8
MY3DLAYER
10
105.71383155723036
20
18.170003465419153
30
0.0
 70
     32
  0
VERTEX
  8
MY3DLAYER
10
105.50047932581454
20
19.114222077665616
30
0.0
 70
     32
  0
VERTEX
  8
MY3DLAYER
10
105.27904774737894
20
20.056567419241983
30
0.0
 70
     32
  0
VERTEX
  8
MY3DLAYER
10
105.04936683995531
20
20.996956233674002
30
0.0
 70
     32
  0
VERTEX
  8
MY3DLAYER
10
104.81126662157558
20
21.93530526448747
30
0.0
 70
     32
  0
VERTEX
  8
MY3DLAYER
10
104.56457711027136
20
22.871531255208154
30
0.0
 70
     32
  0
VERTEX
  8
MY3DLAYER
10
104.30912832407459
20
23.80555094936183
30
0.0
 70
     32
  0
VERTEX
  8
MY3DLAYER
10
103.91569176073607
20
23.68697754130389
30
0.0
 70
     32
  0
VERTEX
  8
MY3DLAYER
10
103.52362199118275
20
23.57696567401227
30
0.0
 70
     32
  0
VERTEX
  8
MY3DLAYER
10
103.13287044913807
20
23.47541821493373
30
0.0
 70
     32
  0
VERTEX
  8
MY3DLAYER
10
102.74338856832533
20
23.382238031514984
30
0.0
 70
     32
  0
VERTEX
  8
MY3DLAYER
10
102.35512778246793
20
23.297327991202767
30
0.0
 70
     32
  0
VERTEX
  8
MY3DLAYER
10
101.96803952528919
20
23.220590961443826
30
0.0
 70
     32
  0
VERTEX
  8
MY3DLAYER
10
101.58207523051253
20
23.151929809684894
30
0.0
 70
     32
  0
VERTEX
  8
MY3DLAYER
10
101.19718633186133
20
23.09124740337271
30
0.0
 70
     32
  0
VERTEX
  8
MY3DLAYER
10
100.81332426305887
20
23.03844660995399
30
0.0
 70
     32
  0
VERTEX
  8
MY3DLAYER
10
100.43044045782862
20
22.993430296875488
30
0.0
 70
     32
  0
VERTEX
  8
MY3DLAYER
10
100.04848634989389
20
22.95610133158393
30
0.0
 70
     32
  0
VERTEX
  8
MY3DLAYER
10
99.66741337297806
20
22.92636258152606
30
0.0
 70
     32
  0
VERTEX
  8
MY3DLAYER
10
99.521715410336
20
21.873253751710212
30
0.0
 70
     32
  0
VERTEX
  8
MY3DLAYER
10
99.38634645402766
20
20.87381759561261
30
0.0
 70
     32
  0
VERTEX
  8
MY3DLAYER
10
99.26281032411885
20
19.933500474255617
30
0.0
 70
     32
  0
VERTEX
  8
MY3DLAYER
10
99.15261084067527
20
19.05774874866156
30
0.0
 70
     32
  0
VERTEX
  8
MY3DLAYER
10
99.05725182376261
20
18.252008779852776
30
0.0
 70
     32
  0
VERTEX
  8
MY3DLAYER
10
98.9782370934466
20
17.521726928851617
30
0.0
 70
     32
  0
VERTEX
  8
MY3DLAYER
10
98.91707046979296
20
16.872349556680426
30
0.0
 70
     32
  0
VERTEX
  8
MY3DLAYER
10
98.8752557728675
20
16.309323024361532
30
0.0
 70
     32
  0
VERTEX
  8
MY3DLAYER
10
98.85429682273582
20
15.838093692917276
30
0.0
 70
     32
  0
VERTEX
  8
MY3DLAYER
10
98.8556974394637
20
15.464107923370017
30
0.0
 70
     32
  0
VERTEX
  8
MY3DLAYER
10
98.88096144311683
20
15.192812076742074
30
0.0
 70
     32
  0
VERTEX
  8
MY3DLAYER
10
98.931592653761
20
15.029652514055805
30
0.0
 70
     32
  0
VERTEX
  8
MY3DLAYER
10
99.18200326692715
20
14.684596345707519
30
0.0
 70
     32
  0
VERTEX
  8
MY3DLAYER
10
99.49491520909933
20
14.370638204992845
30
0.0
 70
     32
  0
VERTEX
  8
MY3DLAYER
10
99.8613749402785
20
14.080848724942285
30
0.0
 70
     32
  0
VERTEX
  8
MY3DLAYER
10
100.27242892046539
20
13.808298538586326
30
0.0
 70
     32
  0
VERTEX
  8
MY3DLAYER
10
100.7191236096609
20
13.54605827895546
30
0.0
 70
     32
  0
VERTEX
  8
MY3DLAYER
10
101.19250546786589
20
13.287198579080178
30
0.0
 70
     32
  0
VERTEX
  8
MY3DLAYER
10
101.6836209550812
20
13.024790071990978
30
0.0
 70
     32
  0
VERTEX
  8
MY3DLAYER
10
102.18351653130772
20
12.751903390718352
30
0.0
 70
     32
  0
VERTEX
  8
MY3DLAYER
10
102.68323865654622
20
12.461609168292787
30
0.0
 70
     32
  0
VERTEX
  8
MY3DLAYER
10
103.17383379079762
20
12.146978037744786
30
0.0
 70
     32
  0
VERTEX
  8
MY3DLAYER
10
103.6463483940627
20
11.801080632104824
30
0.0
 70
     32
  0
VERTEX
  8
MY3DLAYER
10
104.09182892634244
20
11.416987584403417
30
0.0
 70
     32
  0
VERTEX
  8
MY3DLAYER
10
104.23127051184836
20
11.163394723777929
30
0.0
 70
     32
  0
VERTEX
  8
MY3DLAYER
10
104.35618904613132
20
10.870834364194502
30
0.0
 70
     32
  0
VERTEX
  8
MY3DLAYER
10
104.4640712243756
20
10.546275766349883
30
0.0
 70
     32
  0
VERTEX
  8
MY3DLAYER
10
104.55240374176552
20
10.19668819094081
30
0.0
 70
     32
  0
VERTEX
  8
MY3DLAYER
10
104.61867329348526
20
9.829040898664024
30
0.0
 70
     32
  0
VERTEX
  8
MY3DLAYER
10
104.6603665747192
20
9.450303150216268
30
0.0
 70
     32
  0
VERTEX
  8
MY3DLAYER
10
104.67497028065155
20
9.067444206294285
30
0.0
 70
     32
  0
VERTEX
  8
MY3DLAYER
10
104.65997110646667
20
8.687433327594812
30
0.0
 70
     32
  0
VERTEX
  8
MY3DLAYER
10
104.61285574734863
20
8.317239774814587
30
0.0
 70
     32
  0
VERTEX
  8
MY3DLAYER
10
104.53111089848198
20
7.963832808650355
30
0.0
 70
     32
  0
VERTEX
  8
MY3DLAYER
10
104.41222325505085
20
7.63418168979886
30
0.0
 70
     32
  0
VERTEX
  8
MY3DLAYER
10
104.25367951223949
20
7.3352556789568375
30
0.0
 70
     32
  0
VERTEX
  8
MY3DLAYER
10
103.98472583211912
20
6.973804055970437
30
0.0
 70
     32
  0
VERTEX
  8
MY3DLAYER
10
103.66061126880372
20
6.63607705911893
30
0.0
 70
     32
  0
VERTEX
  8
MY3DLAYER
10
103.29173941255183
20
6.322549944109374
30
0.0
 70
     32
  0
VERTEX
  8
MY3DLAYER
10
102.88851385362213
20
6.033697966648804
30
0.0
 70
     32
  0
VERTEX
  8
MY3DLAYER
10
102.46133818227311
20
5.769996382444267
30
0.0
 70
     32
  0
VERTEX
  8
MY3DLAYER
10
102.02061598876347
20
5.53192044720281
30
0.0
 70
     32
  0
VERTEX
  8
MY3DLAYER
10
101.57675086335173
20
5.3199454166314775
30
0.0
 70
     32
  0
VERTEX
  8
MY3DLAYER
10
101.14014639629657
20
5.134546546437315
30
0.0
 70
     32
  0
VERTEX
  8
MY3DLAYER
10
100.72120617785649
20
4.976199092327364
30
0.0
 70
     32
  0
VERTEX
  8
MY3DLAYER
10
100.3303337982902
20
4.845378310008675
30
0.0
 70
     32
  0
VERTEX
  8
MY3DLAYER
10
99.97793284785614
20
4.742559455188289
30
0.0
 70
     32
  0
VERTEX
  8
MY3DLAYER
10
99.67440691681311
20
4.668217783573251
30
0.0
 70
     32
  0
VERTEX
  8
MY3DLAYER
10
99.25766287696578
20
4.5776356068693556
30
0.0
 70
     32
  0
VERTEX
  8
MY3DLAYER
10
98.82128938880957
20
4.590213405262191
30
0.0
 70
     32
  0
VERTEX
  8
MY3DLAYER
10
98.36470192251504
20
4.694466988838092
30
0.0
 70
     32
  0
VERTEX
  8
MY3DLAYER
10
97.88731594825272
20
4.878912167683387
30
0.0
 70
     32
  0
VERTEX
  8
MY3DLAYER
10
97.38854693619311
20
5.132064751884405
30
0.0
 70
     32
  0
VERTEX
  8
MY3DLAYER
10
96.86781035650675
20
5.442440551527482
30
0.0
 70
     32
  0
VERTEX
  8
MY3DLAYER
10
96.3245216793642
20
5.798555376698945
30
0.0
 70
     32
  0
VERTEX
  8
MY3DLAYER
10
95.75809637493602
20
6.188925037485127
30
0.0
 70
     32
  0
VERTEX
  8
MY3DLAYER
10
95.1679499133926
20
6.602065343972355
30
0.0
 70
     32
  0
VERTEX
  8
MY3DLAYER
10
94.55349776490465
20
7.026492106246967
30
0.0
 70
     32
  0
VERTEX
  8
MY3DLAYER
10
93.91415539964257
20
7.450721134395289
30
0.0
 70
     32
  0
VERTEX
  8
MY3DLAYER
10
93.24933828777704
20
7.863268238503653
30
0.0
 70
     32
  0
VERTEX
  8
MY3DLAYER
10
93.04384309703137
20
8.017642219564129
30
0.0
 70
     32
  0
VERTEX
  8
MY3DLAYER
10
92.84527380423546
20
8.226190147698103
30
0.0
 70
     32
  0
VERTEX
  8
MY3DLAYER
10
92.65520707886998
20
8.479457209551185
30
0.0
 70
     32
  0
VERTEX
  8
MY3DLAYER
10
92.47521959041558
20
8.767988591768987
30
0.0
 70
     32
  0
VERTEX
  8
MY3DLAYER
10
92.30688800835296
20
9.082329480997116
30
0.0
 70
     32
  0
VERTEX
  8
MY3DLAYER
10
92.15178900216274
20
9.413025063881188
30
0.0
 70
     32
  0
VERTEX
  8
MY3DLAYER
10
92.01149924132565
20
9.750620527066811
30
0.0
 70
     32
  0
VERTEX
  8
MY3DLAYER
10
91.88759539532236
20
10.085661057199601
30
0.0
 70
     32
  0
VERTEX
  8
MY3DLAYER
10
91.78165413363347
20
10.40869184092516
30
0.0
 70
     32
  0
VERTEX
  8
MY3DLAYER
10
91.6952521257397
20
10.710258064889103
30
0.0
 70
     32
  0
VERTEX
  8
MY3DLAYER
10
91.62996604112173
20
10.98090491573704
30
0.0
 70
     32
  0
VERTEX
  8
MY3DLAYER
10
91.58737254926024
20
11.211177580114592
30
0.0
 70
     32
  0
VERTEX
  8
MY3DLAYER
10
91.50833642665573
20
11.826832900289126
30
0.0
 70
     32
  0
VERTEX
  8
MY3DLAYER
10
91.45691196682658
20
12.412732703476957
30
0.0
 70
     32
  0
VERTEX
  8
MY3DLAYER
10
91.42913581469762
20
12.974900942490363
30
0.0
 70
     32
  0
VERTEX
  8
MY3DLAYER
10
91.42104461519367
20
13.519361570141648
30
0.0
 70
     32
  0
VERTEX
  8
MY3DLAYER
10
91.42867501323957
20
14.052138539243092
30
0.0
 70
     32
  0
VERTEX
  8
MY3DLAYER
10
91.44806365376013
20
14.579255802606989
30
0.0
 70
     32
  0
VERTEX
  8
MY3DLAYER
10
91.47524718168017
20
15.106737313045628
30
0.0
 70
     32
  0
VERTEX
  8
MY3DLAYER
10
91.50626224192457
20
15.640607023371306
30
0.0
 70
     32
  0
VERTEX
  8
MY3DLAYER
10
91.53714547941806
20
16.186888886396293
30
0.0
 70
     32
  0
VERTEX
  8
MY3DLAYER
10
91.56393353908555
20
16.751606854932902
30
0.0
 70
     32
  0
VERTEX
  8
MY3DLAYER
10
91.58266306585178
20
17.34078488179341
30
0.0
 70
     32
  0
VERTEX
  8
MY3DLAYER
10
91.58937070464168
20
17.960446919790115
30
0.0
 70
     32
  0
VERTEX
  8
MY3DLAYER
10
91.58795332098495
20
18.46570935866946
30
0.0
 70
     32
  0
VERTEX
  8
MY3DLAYER
10
91.58444238390342
20
18.97092843480181
30
0.0
 70
     32
  0
VERTEX
  8
MY3DLAYER
10
91.57882575182788
20
19.47610241367729
30
0.0
 70
     32
  0
VERTEX
  8
MY3DLAYER
10
91.5710912831892
20
19.981229560786012
30
0.0
 70
     32
  0
VERTEX
  8
MY3DLAYER
10
91.5612268364182
20
20.486308141618107
30
0.0
 70
     32
  0
VERTEX
  8
MY3DLAYER
10
91.54922026994576
20
20.991336421663682
30
0.0
 70
     32
  0
VERTEX
  8
MY3DLAYER
10
91.53505944220272
20
21.496312666412873
30
0.0
 70
     32
  0
VERTEX
  8
MY3DLAYER
10
91.51873221161986
20
22.001235141355796
30
0.0
 70
     32
  0
VERTEX
  8
MY3DLAYER
10
91.50022643662807
20
22.50610211198256
30
0.0
 70
     32
  0
VERTEX
  8
MY3DLAYER
10
91.47952997565822
20
23.0109118437833
30
0.0
 70
     32
  0
VERTEX
  8
MY3DLAYER
10
91.45663068714106
20
23.515662602248124
30
0.0
 70
     32
  0
VERTEX
  8
MY3DLAYER
10
91.43151642950752
20
24.020352652867157
30
0.0
 70
     32
  0
VERTEX
  8
MY3DLAYER
10
90.81446569613475
20
24.22289368420266
30
0.0
 70
     32
  0
VERTEX
  8
MY3DLAYER
10
90.19652689370356
20
24.440122545199678
30
0.0
 70
     32
  0
VERTEX
  8
MY3DLAYER
10
89.57747800494933
20
24.671657643684686
30
0.0
 70
     32
  0
VERTEX
  8
MY3DLAYER
10
88.95709701260746
20
24.917117387484147
30
0.0
 70
     32
  0
VERTEX
  8
MY3DLAYER
10
88.3351618994134
20
25.176120184424494
30
0.0
 70
     32
  0
VERTEX
  8
MY3DLAYER
10
87.71145064810247
20
25.448284442332216
30
0.0
 70
     32
  0
VERTEX
  8
MY3DLAYER
10
87.08574124141009
20
25.733228569033752
30
0.0
 70
     32
  0
VERTEX
  8
MY3DLAYER
10
86.45781166207172
20
26.030570972355594
30
0.0
 70
     32
  0
VERTEX
  8
MY3DLAYER
10
85.82743989282262
20
26.33993006012417
30
0.0
 70
     32
  0
VERTEX
  8
MY3DLAYER
10
85.19440391639829
20
26.660924240165947
30
0.0
 70
     32
  0
VERTEX
  8
MY3DLAYER
10
84.55848171553407
20
26.993171920307393
30
0.0
 70
     32
  0
VERTEX
  8
MY3DLAYER
10
83.9194512729654
20
27.33629150837497
30
0.0
 70
     32
  0
VERTEX
  8
MY3DLAYER
10
82.8568381962636
20
27.898985014796956
30
0.0
 70
     32
  0
VERTEX
  8
MY3DLAYER
10
81.69150570997449
20
28.488265088655393
30
0.0
 70
     32
  0
VERTEX
  8
MY3DLAYER
10
80.43937488028413
20
29.097665477118657
30
0.0
 70
     32
  0
VERTEX
  8
MY3DLAYER
10
79.1163667733785
20
29.720719927355123
30
0.0
 70
     32
  0
VERTEX
  8
MY3DLAYER
10
77.73840245544362
20
30.350962186533177
30
0.0
 70
     32
  0
VERTEX
  8
MY3DLAYER
10
76.3214029926655
20
30.9819260018212
30
0.0
 70
     32
  0
VERTEX
  8
MY3DLAYER
10
74.88128945123013
20
31.60714512038757
30
0.0
 70
     32
  0
VERTEX
  8
MY3DLAYER
10
73.43398289732355
20
32.22015328940067
30
0.0
 70
     32
  0
VERTEX
  8
MY3DLAYER
10
71.99540439713172
20
32.81448425602886
30
0.0
 70
     32
  0
VERTEX
  8
MY3DLAYER
10
70.58147501684071
20
33.383671767440546
30
0.0
 70
     32
  0
VERTEX
  8
MY3DLAYER
10
69.20811582263649
20
33.92124957080409
30
0.0
 70
     32
  0
VERTEX
  8
MY3DLAYER
10
67.89124788070511
20
34.42075141328788
30
0.0
 70
     32
  0
VERTEX
  8
MY3DLAYER
10
67.62215702976177
20
34.22923550491789
30
0.0
 70
     32
  0
VERTEX
  8
MY3DLAYER
10
67.3535509743298
20
34.03756349065871
30
0.0
 70
     32
  0
VERTEX
  8
MY3DLAYER
10
67.08548782049021
20
33.845704149332526
30
0.0
 70
     32
  0
VERTEX
  8
MY3DLAYER
10
66.81802567432396
20
33.6536262597615
30
0.0
 70
     32
  0
VERTEX
  8
MY3DLAYER
10
66.55122264191198
20
33.46129860076778
30
0.0
 70
     32
  0
VERTEX
  8
MY3DLAYER
10
66.28513682933526
20
33.268689951173556
30
0.0
 70
     32
  0
VERTEX
  8
MY3DLAYER
10
66.01982634267478
20
33.07576908980098
30
0.0
 70
     32
  0
VERTEX
  8
MY3DLAYER
10
65.75534928801153
20
32.88250479547222
30
0.0
 70
     32
  0
VERTEX
  8
MY3DLAYER
10
65.49176377142645
20
32.688865847009424
30
0.0
 70
     32
  0
VERTEX
  8
MY3DLAYER
10
65.22912789900052
20
32.49482102323479
30
0.0
 70
     32
  0
VERTEX
  8
MY3DLAYER
10
64.96749977681469
20
32.300339102970455
30
0.0
 70
     32
  0
VERTEX
  8
MY3DLAYER
10
64.70693751094997
20
32.1053888650386
30
0.0
 70
     32
  0
VERTEX
  8
MY3DLAYER
10
64.11103565654071
20
31.643122902482816
30
0.0
 70
     32
  0
VERTEX
  8
MY3DLAYER
10
63.625965514426206
20
31.228781447903874
30
0.0
 70
     32
  0
VERTEX
  8
MY3DLAYER
10
63.241181264537715
20
30.84715978769609
30
0.0
 70
     32
  0
VERTEX
  8
MY3DLAYER
10
62.94613708680652
20
30.48305320825379
30
0.0
 70
     32
  0
VERTEX
  8
MY3DLAYER
10
62.730287161163886
20
30.12125699597128
30
0.0
 70
     32
  0
VERTEX
  8
MY3DLAYER
10
62.583085667541056
20
29.746566437242887
30
0.0
 70
     32
  0
VERTEX
  8
MY3DLAYER
10
62.49398678586929
20
29.34377681846292
30
0.0
 70
     32
  0
VERTEX
  8
MY3DLAYER
10
62.4524446960799
20
28.89768342602571
30
0.0
 70
     32
  0
VERTEX
  8
MY3DLAYER
10
62.447913578104085
20
28.39308154632556
30
0.0
 70
     32
  0
VERTEX
  8
MY3DLAYER
10
62.46984761187315
20
27.814766465756804
30
0.0
 70
     32
  0
VERTEX
  8
MY3DLAYER
10
62.507700977318336
20
27.147533470713732
30
0.0
 70
     32
  0
VERTEX
  8
MY3DLAYER
10
62.55092785437092
20
26.376177847590693
30
0.0
 70
     32
  0
VERTEX
  8
MY3DLAYER
10
62.58160482973124
20
25.671292690248485
30
0.0
 70
     32
  0
VERTEX
  8
MY3DLAYER
10
62.60310538057284
20
25.00074389048535
30
0.0
 70
     32
  0
VERTEX
  8
MY3DLAYER
10
62.62071889477401
20
24.36144402071536
30
0.0
 70
     32
  0
VERTEX
  8
MY3DLAYER
10
62.63973476021294
20
23.750305653352616
30
0.0
 70
     32
  0
VERTEX
  8
MY3DLAYER
10
62.66544236476782
20
23.164241360811186
30
0.0
 70
     32
  0
VERTEX
  8
MY3DLAYER
10
62.703131096316916
20
22.600163715505186
30
0.0
 70
     32
  0
VERTEX
  8
MY3DLAYER
10
62.75809034273847
20
22.054985289848673
30
0.0
 70
     32
  0
VERTEX
  8
MY3DLAYER
10
62.8356094919107
20
21.52561865625576
30
0.0
 70
     32
  0
VERTEX
  8
MY3DLAYER
10
62.94097793171177
20
21.008976387140503
30
0.0
 70
     32
  0
VERTEX
  8
MY3DLAYER
10
63.07948505001998
20
20.501971054917018
30
0.0
 70
     32
  0
VERTEX
  8
MY3DLAYER
10
63.25642023471352
20
20.00151523199937
30
0.0
 70
     32
  0
VERTEX
  8
MY3DLAYER
10
63.47707287367064
20
19.50452149080167
30
0.0
 70
     32
  0
VERTEX
  8
MY3DLAYER
10
63.735420025876465
20
19.082979796627004
30
0.0
 70
     32
  0
VERTEX
  8
MY3DLAYER
10
64.04331865632629
20
18.74685751049923
30
0.0
 70
     32
  0
VERTEX
  8
MY3DLAYER
10
64.39297734664044
20
18.482082553764123
30
0.0
 70
     32
  0
VERTEX
  8
MY3DLAYER
10
64.77660467843914
20
18.274582847767466
30
0.0
 70
     32
  0
VERTEX
  8
MY3DLAYER
10
65.18640923334267
20
18.11028631385503
30
0.0
 70
     32
  0
VERTEX
  8
MY3DLAYER
10
65.61459959297132
20
17.975120873372607
30
0.0
 70
     32
  0
VERTEX
  8
MY3DLAYER
10
66.05338433894534
20
17.855014447665965
30
0.0
 70
     32
  0
VERTEX
  8
MY3DLAYER
10
66.49497205288498
20
17.73589495808089
30
0.0
 70
     32
  0
VERTEX
  8
MY3DLAYER
10
66.93157131641053
20
17.60369032596316
30
0.0
 70
     32
  0
VERTEX
  8
MY3DLAYER
10
67.35539071114225
20
17.444328472658547
30
0.0
 70
     32
  0
VERTEX
  8
MY3DLAYER
10
67.75863881870042
20
17.24373731951284
30
0.0
 70
     32
  0
VERTEX
  8
MY3DLAYER
10
68.13352422070531
20
16.987844787871815
30
0.0
 70
     32
  0
VERTEX
  8
MY3DLAYER
10
68.51574761129886
20
16.62831847085191
30
0.0
 70
     32
  0
VERTEX
  8
MY3DLAYER
10
68.83492416952917
20
16.224891708776127
30
0.0
 70
     32
  0
VERTEX
  8
MY3DLAYER
10
69.0955384706903
20
15.787343668346365
30
0.0
 70
     32
  0
VERTEX
  8
MY3DLAYER
10
69.30207509007624
20
15.325453516264524
30
0.0
 70
     32
  0
VERTEX
  8
MY3DLAYER
10
69.45901860298103
20
14.849000419232496
30
0.0
 70
     32
  0
VERTEX
  8
MY3DLAYER
10
69.57085358469872
20
14.367763543952185
30
0.0
 70
     32
  0
VERTEX
  8
MY3DLAYER
10
69.64206461052335
20
13.891522057125485
30
0.0
 70
     32
  0
VERTEX
  8
MY3DLAYER
10
69.67713625574893
20
13.430055125454295
30
0.0
 70
     32
  0
VERTEX
  8
MY3DLAYER
10
69.6805530956695
20
12.99314191564051
30
0.0
 70
     32
  0
VERTEX
  8
MY3DLAYER
10
69.6567997055791
20
12.590561594386035
30
0.0
 70
     32
  0
VERTEX
  8
MY3DLAYER
10
69.61036066077175
20
12.23209332839276
30
0.0
 70
     32
  0
VERTEX
  8
MY3DLAYER
10
69.5457205365415
20
11.927516284362591
30
0.0
 70
     32
  0
VERTEX
  8
MY3DLAYER
10
68.82005320453287
20
11.498892008179041
30
0.0
 70
     32
  0
VERTEX
  8
MY3DLAYER
10
68.04184843552224
20
11.142040016308693
30
0.0
 70
     32
  0
VERTEX
  8
MY3DLAYER
10
67.22041794579897
20
10.855279568678094
30
0.0
 70
     32
  0
VERTEX
  8
MY3DLAYER
10
66.36507345165235
20
10.636929925213789
30
0.0
 70
     32
  0
VERTEX
  8
MY3DLAYER
10
65.48512666937167
20
10.485310345842315
30
0.0
 70
     32
  0
VERTEX
  8
MY3DLAYER
10
64.58988931524628
20
10.398740090490225
30
0.0
 70
     32
  0
VERTEX
  8
MY3DLAYER
10
63.688673105565464
20
10.375538419084064
30
0.0
 70
     32
  0
VERTEX
  8
MY3DLAYER
10
62.790789756618544
20
10.41402459155038
30
0.0
 70
     32
  0
VERTEX
  8
MY3DLAYER
10
61.905550984694834
20
10.512517867815701
30
0.0
 70
     32
  0
VERTEX
  8
MY3DLAYER
10
61.04226850608363
20
10.669337507806594
30
0.0
 70
     32
  0
VERTEX
  8
MY3DLAYER
10
60.21025403707424
20
10.88280277144959
30
0.0
 70
     32
  0
VERTEX
  8
MY3DLAYER
10
59.418819293956034
20
11.151232918671242
30
0.0
 70
     32
  0
VERTEX
  8
MY3DLAYER
10
58.524390221434594
20
11.560596040810388
30
0.0
 70
     32
  0
VERTEX
  8
MY3DLAYER
10
57.824128255634314
20
12.019567880019595
30
0.0
 70
     32
  0
VERTEX
  8
MY3DLAYER
10
57.292715623095766
20
12.528406878270934
30
0.0
 70
     32
  0
VERTEX
  8
MY3DLAYER
10
56.904834550359524
20
13.087371477536491
30
0.0
 70
     32
  0
VERTEX
  8
MY3DLAYER
10
56.635167263966146
20
13.69672011978834
30
0.0
 70
     32
  0
VERTEX
  8
MY3DLAYER
10
56.45839599045624
20
14.356711246998561
30
0.0
 70
     32
  0
VERTEX
  8
MY3DLAYER
10
56.349202956370355
20
15.067603301139242
30
0.0
 70
     32
  0
VERTEX
  8
MY3DLAYER
10
56.28227038824907
20
15.82965472418245
30
0.0
 70
     32
  0
VERTEX
  8
MY3DLAYER
10
56.23228051263293
20
16.64312395810027
30
0.0
 70
     32
  0
VERTEX
  8
MY3DLAYER
10
56.17391555606255
20
17.508269444864787
30
0.0
 70
     32
  0
VERTEX
  8
MY3DLAYER
10
56.081857745078466
20
18.425349626448064
30
0.0
 70
     32
  0
VERTEX
  8
MY3DLAYER
10
55.93078930622128
20
19.3946229448222
30
0.0
 70
     32
  0
VERTEX
  8
MY3DLAYER
10
55.77744258863707
20
20.232058479918166
30
0.0
 70
     32
  0
VERTEX
  8
MY3DLAYER
10
55.635572255672066
20
21.060171024410593
30
0.0
 70
     32
  0
VERTEX
  8
MY3DLAYER
10
55.50250109132692
20
21.880086275211436
30
0.0
 70
     32
  0
VERTEX
  8
MY3DLAYER
10
55.375551879602284
20
22.692929929232637
30
0.0
 70
     32
  0
VERTEX
  8
MY3DLAYER
10
55.252047404498775
20
23.499827683386137
30
0.0
 70
     32
  0
VERTEX
  8
MY3DLAYER
10
55.12931045001703
20
24.301905234583874
30
0.0
 70
     32
  0
VERTEX
  8
MY3DLAYER
10
55.00466380015772
20
25.100288279737804
30
0.0
 70
     32
  0
VERTEX
  8
MY3DLAYER
10
54.875430238921474
20
25.896102515759853
30
0.0
 70
     32
  0
VERTEX
  8
MY3DLAYER
10
54.73893255030892
20
26.690473639561958
30
0.0
 70
     32
  0
VERTEX
  8
MY3DLAYER
10
54.59249351832074
20
27.48452734805608
30
0.0
 70
     32
  0
VERTEX
  8
MY3DLAYER
10
54.43343592695751
20
28.279389338154154
30
0.0
 70
     32
  0
VERTEX
  8
MY3DLAYER
10
54.259082560219944
20
29.076185306768128
30
0.0
 70
     32
  0
VERTEX
  8
MY3DLAYER
10
53.7329782506258
20
28.7090274353624
30
0.0
 70
     32
  0
VERTEX
  8
MY3DLAYER
10
53.207853939113704
20
28.3420135282767
30
0.0
 70
     32
  0
VERTEX
  8
MY3DLAYER
10
52.68395072255695
20
27.97497533805268
30
0.0
 70
     32
  0
VERTEX
  8
MY3DLAYER
10
52.1615096978288
20
27.607744617232008
30
0.0
 70
     32
  0
VERTEX
  8
MY3DLAYER
10
51.640771961802514
20
27.24015311835635
30
0.0
 70
     32
  0
VERTEX
  8
MY3DLAYER
10
51.12197861135143
20
26.872032593967383
30
0.0
 70
     32
  0
VERTEX
  8
MY3DLAYER
10
50.6053707433488
20
26.503214796606763
30
0.0
 70
     32
  0
VERTEX
  8
MY3DLAYER
10
50.09118945466791
20
26.133531478816163
30
0.0
 70
     32
  0
VERTEX
  8
MY3DLAYER
10
49.579675842182034
20
25.76281439313724
30
0.0
 70
     32
  0
VERTEX
  8
MY3DLAYER
10
49.071071002764455
20
25.39089529211167
30
0.0
 70
     32
  0
VERTEX
  8
MY3DLAYER
10
48.56561603328846
20
25.017605928281117
30
0.0
 70
     32
  0
VERTEX
  8
MY3DLAYER
10
48.063552030627335
20
24.642778054187243
30
0.0
 70
     32
  0
VERTEX
  8
MY3DLAYER
10
47.46770741504409
20
24.180512091631456
30
0.0
 70
     32
  0
VERTEX
  8
MY3DLAYER
10
46.98268410469633
20
23.766170637052515
30
0.0
 70
     32
  0
VERTEX
  8
MY3DLAYER
10
46.59793627951532
20
23.384548976844737
30
0.0
 70
     32
  0
VERTEX
  8
MY3DLAYER
10
46.30291811943232
20
23.02044239740243
30
0.0
 70
     32
  0
VERTEX
  8
MY3DLAYER
10
46.0870838043786
20
22.65864618511992
30
0.0
 70
     32
  0
VERTEX
  8
MY3DLAYER
10
45.9398875142854
20
22.283955626391528
30
0.0
 70
     32
  0
VERTEX
  8
MY3DLAYER
10
45.85078342908402
20
21.881166007611565
30
0.0
 70
     32
  0
VERTEX
  8
MY3DLAYER
10
45.809225728705705
20
21.435072615174363
30
0.0
 70
     32
  0
VERTEX
  8
MY3DLAYER
10
45.80466859308169
20
20.930470735474202
30
0.0
 70
     32
  0
VERTEX
  8
MY3DLAYER
10
45.82656620214328
20
20.35215565490544
30
0.0
 70
     32
  0
VERTEX
  8
MY3DLAYER
10
45.86437273582172
20
19.684922659862373
30
0.0
 70
     32
  0
VERTEX
  8
MY3DLAYER
10
45.90754237404828
20
18.913567036739334
30
0.0
 70
     32
  0
VERTEX
  8
MY3DLAYER
10
45.938219349408584
20
18.20868187939713
30
0.0
 70
     32
  0
VERTEX
  8
MY3DLAYER
10
45.959719900250214
20
17.53813307963399
30
0.0
 70
     32
  0
VERTEX
  8
MY3DLAYER
10
45.97733341445136
20
16.898833209864005
30
0.0
 70
     32
  0
VERTEX
  8
MY3DLAYER
10
45.996349279890275
20
16.287694842501256
30
0.0
 70
     32
  0
VERTEX
  8
MY3DLAYER
10
46.02205688444516
20
15.70163054995984
30
0.0
 70
     32
  0
VERTEX
  8
MY3DLAYER
10
46.059745615994274
20
15.137552904653827
30
0.0
 70
     32
  0
VERTEX
  8
MY3DLAYER
10
46.114704862415806
20
14.59237447899732
30
0.0
 70
     32
  0
VERTEX
  8
MY3DLAYER
10
46.192224011588024
20
14.063007845404398
30
0.0
 70
     32
  0
VERTEX
  8
MY3DLAYER
10
46.29759245138911
20
13.546365576289148
30
0.0
 70
     32
  0
VERTEX
  8
MY3DLAYER
10
46.43609956969731
20
13.039360244065659
30
0.0
 70
     32
  0
VERTEX
  8
MY3DLAYER
10
46.61303475439085
20
12.538904421148017
30
0.0
 70
     32
  0
VERTEX
  8
MY3DLAYER
10
46.83368739334797
20
12.04191067995031
30
0.0
 70
     32
  0
VERTEX
  8
MY3DLAYER
10
47.092139483401525
20
11.620359445971308
30
0.0
 70
     32
  0
VERTEX
  8
MY3DLAYER
10
47.400106626991615
20
11.284212009450275
30
0.0
 70
     32
  0
VERTEX
  8
MY3DLAYER
10
47.74980260926817
20
11.019401495262631
30
0.0
 70
     32
  0
VERTEX
  8
MY3DLAYER
10
48.133441215381104
20
10.811861028283802
30
0.0
 70
     32
  0
VERTEX
  8
MY3DLAYER
10
48.5432362304803
20
10.647523733389196
30
0.0
 70
     32
  0
VERTEX
  8
MY3DLAYER
10
48.971401439715684
20
10.512322735454237
30
0.0
 70
     32
  0
VERTEX
  8
MY3DLAYER
10
49.41015062823716
20
10.39219115935434
30
0.0
 70
     32
  0
VERTEX
  8
MY3DLAYER
10
49.85169758119463
20
10.273062129964927
30
0.0
 70
     32
  0
VERTEX
  8
MY3DLAYER
10
50.288256083738
20
10.140868772161415
30
0.0
 70
     32
  0
VERTEX
  8
MY3DLAYER
10
50.71203992101719
20
9.981544210819218
30
0.0
 70
     32
  0
VERTEX
  8
MY3DLAYER
10
51.1152628781821
20
9.781021570813758
30
0.0
 70
     32
  0
VERTEX
  8
MY3DLAYER
10
51.490138740382655
20
9.525233977020454
30
0.0
 70
     32
  0
VERTEX
  8
MY3DLAYER
10
51.872414599900054
20
9.165697831111231
30
0.0
 70
     32
  0
VERTEX
  8
MY3DLAYER
10
52.1916254147005
20
8.762243895047332
30
0.0
 70
     32
  0
VERTEX
  8
MY3DLAYER
10
52.45225836184282
20
8.324654804550416
30
0.0
 70
     32
  0
VERTEX
  8
MY3DLAYER
10
52.65880061838588
20
7.862713195342142
30
0.0
 70
     32
  0
VERTEX
  8
MY3DLAYER
10
52.81573936138851
20
7.386201703144165
30
0.0
 70
     32
  0
VERTEX
  8
MY3DLAYER
10
52.92756176790957
20
6.904902963678142
30
0.0
 70
     32
  0
VERTEX
  8
MY3DLAYER
10
52.99875501500793
20
6.42859961266573
30
0.0
 70
     32
  0
VERTEX
  8
MY3DLAYER
10
53.03380627974243
20
5.96707428582859
30
0.0
 70
     32
  0
VERTEX
  8
MY3DLAYER
10
53.03720273917191
20
5.5301096188883765
30
0.0
 70
     32
  0
VERTEX
  8
MY3DLAYER
10
53.01343157035524
20
5.127488247566747
30
0.0
 70
     32
  0
VERTEX
  8
MY3DLAYER
10
52.966979950351266
20
4.76899280758536
30
0.0
 70
     32
  0
VERTEX
  8
MY3DLAYER
10
52.90233505621884
20
4.46440593466587
30
0.0
 70
     32
  0
VERTEX
  8
MY3DLAYER
10
52.1767154232319
20
4.036001652152067
30
0.0
 70
     32
  0
VERTEX
  8
MY3DLAYER
10
51.39853233559477
20
3.6793158841451934
30
0.0
 70
     32
  0
VERTEX
  8
MY3DLAYER
10
50.577102713126436
20
3.392676563121195
30
0.0
 70
     32
  0
VERTEX
  8
MY3DLAYER
10
49.72174347564583
20
3.1744116215560134
30
0.0
 70
     32
  0
VERTEX
  8
MY3DLAYER
10
48.84177154297191
20
3.0228489919255934
30
0.0
 70
     32
  0
VERTEX
  8
MY3DLAYER
10
47.946503834923625
20
2.936316606705879
30
0.0
 70
     32
  0
VERTEX
  8
MY3DLAYER
10
47.04525727131992
20
2.9131423983728135
30
0.0
 70
     32
  0
VERTEX
  8
MY3DLAYER
10
46.14734877197975
20
2.9516542994023407
30
0.0
 70
     32
  0
VERTEX
  8
MY3DLAYER
10
45.26209525672204
20
3.050180242270404
30
0.0
 70
     32
  0
VERTEX
  8
MY3DLAYER
10
44.3988136453658
20
3.2070481594529463
30
0.0
 70
     32
  0
VERTEX
  8
MY3DLAYER
10
43.56682085772992
20
3.420585983425913
30
0.0
 70
     32
  0
VERTEX
  8
MY3DLAYER
10
42.775433813633384
20
3.689121646665247
30
0.0
 70
     32
  0
VERTEX
  8
MY3DLAYER
10
41.8810096555566
20
4.098369712982373
30
0.0
 70
     32
  0
VERTEX
  8
MY3DLAYER
10
41.18076127675037
20
4.557243841468351
30
0.0
 70
     32
  0
VERTEX
  8
MY3DLAYER
10
40.6493691692454
20
5.065999005075504
30
0.0
 70
     32
  0
VERTEX
  8
MY3DLAYER
10
40.26151382507238
20
5.624890176756151
30
0.0
 70
     32
  0
VERTEX
  8
MY3DLAYER
10
39.99187573626198
20
6.234172329462611
30
0.0
 70
     32
  0
VERTEX
  8
MY3DLAYER
10
39.815135394844916
20
6.8941004361472045
30
0.0
 70
     32
  0
VERTEX
  8
MY3DLAYER
10
39.70597329285188
20
7.6049294697622525
30
0.0
 70
     32
  0
VERTEX
  8
MY3DLAYER
10
39.639069922313574
20
8.366914403260074
30
0.0
 70
     32
  0
VERTEX
  8
MY3DLAYER
10
39.58910577526065
20
9.180310209592983
30
0.0
 70
     32
  0
VERTEX
  8
MY3DLAYER
10
39.530761343723846
20
10.045371861713312
30
0.0
 70
     32
  0
VERTEX
  8
MY3DLAYER
10
39.43871711973382
20
10.962354332573366
30
0.0
 70
     32
  0
VERTEX
  8
MY3DLAYER
10
39.2876535953213
20
11.931512595125481
30
0.0
 70
     32
  0
VERTEX
  8
MY3DLAYER
10
39.090755791879495
20
13.018413146418158
30
0.0
 70
     32
  0
VERTEX
  8
MY3DLAYER
10
38.91198882021046
20
14.090043072729733
30
0.0
 70
     32
  0
VERTEX
  8
MY3DLAYER
10
38.74544320515398
20
15.148886192207963
30
0.0
 70
     32
  0
VERTEX
  8
MY3DLAYER
10
38.585209471549824
20
16.197426323000613
30
0.0
 70
     32
  0
VERTEX
  8
MY3DLAYER
10
38.42537814423777
20
17.238147283255458
30
0.0
 70
     32
  0
VERTEX
  8
MY3DLAYER
10
38.26003974805758
20
18.27353289112027
30
0.0
 70
     32
  0
VERTEX
  8
MY3DLAYER
10
38.08328480784905
20
19.306066964742808
30
0.0
 70
     32
  0
VERTEX
  8
MY3DLAYER
10
37.88920384845191
20
20.338233322270842
30
0.0
 70
     32
  0
VERTEX
  8
MY3DLAYER
10
37.671887394705955
20
21.372515781852137
30
0.0
 70
     32
  0
VERTEX
  8
MY3DLAYER
10
37.42542597145097
20
22.41139816163448
30
0.0
 70
     32
  0
VERTEX
  8
MY3DLAYER
10
37.1439101035267
20
23.45736427976561
30
0.0
 70
     32
  0
VERTEX
  8
MY3DLAYER
10
36.821430315772936
20
24.51289795439332
30
0.0
 70
     32
  0
VERTEX
  8
MY3DLAYER
10
36.60794524980881
20
25.385602146128704
30
0.0
 70
     32
  0
VERTEX
  8
MY3DLAYER
10
36.54851674959716
20
26.187763821055608
30
0.0
 70
     32
  0
VERTEX
  8
MY3DLAYER
10
36.62637990989551
20
26.928558536437794
30
0.0
 70
     32
  0
VERTEX
  8
MY3DLAYER
10
36.82476982546137
20
27.617161849539006
30
0.0
 70
     32
  0
VERTEX
  8
MY3DLAYER
10
37.126921591052195
20
28.262749317622994
30
0.0
 70
     32
  0
VERTEX
  8
MY3DLAYER
10
37.51607030142554
20
28.874496497953533
30
0.0
 70
     32
  0
VERTEX
  8
MY3DLAYER
10
37.9754510513389
20
29.46157894779435
30
0.0
 70
     32
  0
VERTEX
  8
MY3DLAYER
10
38.488298935549764
20
30.033172224409224
30
0.0
 70
     32
  0
VERTEX
  8
MY3DLAYER
10
39.037849048815616
20
30.59845188506187
30
0.0
 70
     32
  0
VERTEX
  8
MY3DLAYER
10
39.60733648589401
20
31.166593487016083
30
0.0
 70
     32
  0
VERTEX
  8
MY3DLAYER
10
40.17999634154241
20
31.746772587535578
30
0.0
 70
     32
  0
VERTEX
  8
MY3DLAYER
10
40.73906371051834
20
32.348164743884155
30
0.0
 70
     32
  0
VERTEX
  8
MY3DLAYER
10
40.81631401065919
20
33.1483990892497
30
0.0
 70
     32
  0
VERTEX
  8
MY3DLAYER
10
40.80413905218592
20
34.057954388804774
30
0.0
 70
     32
  0
VERTEX
  8
MY3DLAYER
10
40.71280279731182
20
35.06368132315116
30
0.0
 70
     32
  0
VERTEX
  8
MY3DLAYER
10
40.55256920825015
20
36.15243057289065
30
0.0
 70
     32
  0
VERTEX
  8
MY3DLAYER
10
40.33370224721423
20
37.31105281862504
30
0.0
 70
     32
  0
VERTEX
  8
MY3DLAYER
10
40.0664658764173
20
38.52639874095612
30
0.0
 70
     32
  0
VERTEX
  8
MY3DLAYER
10
39.76112405807264
20
39.785319020485716
30
0.0
 70
     32
  0
VERTEX
  8
MY3DLAYER
10
39.42794075439358
20
41.07466433781557
30
0.0
 70
     32
  0
VERTEX
  8
MY3DLAYER
10
39.077179927593356
20
42.381285373547506
30
0.0
 70
     32
  0
VERTEX
  8
MY3DLAYER
10
38.719105539885284
20
43.692032808283315
30
0.0
 70
     32
  0
VERTEX
  8
MY3DLAYER
10
38.3639815534826
20
44.99375732262476
30
0.0
 70
     32
  0
VERTEX
  8
MY3DLAYER
10
38.02207193059863
20
46.2733095971737
30
0.0
 70
     32
  0
VERTEX
  8
MY3DLAYER
10
37.329399312777085
20
47.46128697719757
30
0.0
 70
     32
  0
VERTEX
  8
MY3DLAYER
10
36.72185904161734
20
48.68684077925582
30
0.0
 70
     32
  0
VERTEX
  8
MY3DLAYER
10
36.20182652839967
20
49.946168957692116
30
0.0
 70
     32
  0
VERTEX
  8
MY3DLAYER
10
35.77167718440439
20
51.23546946685007
30
0.0
 70
     32
  0
VERTEX
  8
MY3DLAYER
10
35.43378642091173
20
52.55094026107335
30
0.0
 70
     32
  0
VERTEX
  8
MY3DLAYER
10
35.19052964920203
20
53.888779294705586
30
0.0
 70
     32
  0
VERTEX
  8
MY3DLAYER
10
35.04428228055554
20
55.24518452209042
30
0.0
 70
     32
  0
VERTEX
  8
MY3DLAYER
10
34.99741972625256
20
56.61635389757147
30
0.0
 70
     32
  0
VERTEX
  8
MY3DLAYER
10
35.052317397573376
20
57.9984853754924
30
0.0
 70
     32
  0
VERTEX
  8
MY3DLAYER
10
35.211350705798274
20
59.38777691019684
30
0.0
 70
     32
  0
VERTEX
  8
MY3DLAYER
10
35.476895062207525
20
60.780426456028415
30
0.0
 70
     32
  0
VERTEX
  8
MY3DLAYER
10
35.85132587808143
20
62.17263196733081
30
0.0
 70
     32
  0
VERTEX
  8
MY3DLAYER
10
35.978511994947155
20
62.574600584767694
30
0.0
 70
     32
  0
VERTEX
  8
MY3DLAYER
10
36.10964065276949
20
62.97052963880338
30
0.0
 70
     32
  0
VERTEX
  8
MY3DLAYER
10
36.24465808174219
20
63.36045728865522
30
0.0
 70
     32
  0
VERTEX
  8
MY3DLAYER
10
36.38351051205895
20
63.74442169354056
30
0.0
 70
     32
  0
VERTEX
  8
MY3DLAYER
10
36.526144173913515
20
64.12246101267672
30
0.0
 70
     32
  0
VERTEX
  8
MY3DLAYER
10
36.67250529749961
20
64.49461340528111
30
0.0
 70
     32
  0
VERTEX
  8
MY3DLAYER
10
36.82254011301098
20
64.86091703057107
30
0.0
 70
     32
  0
VERTEX
  8
MY3DLAYER
10
36.976194850641335
20
65.22141004776397
30
0.0
 70
     32
  0
VERTEX
  8
MY3DLAYER
10
37.1334157405844
20
65.5761306160771
30
0.0
 70
     32
  0
VERTEX
  8
MY3DLAYER
10
37.2941490130339
20
65.92511689472788
30
0.0
 70
     32
  0
VERTEX
  8
MY3DLAYER
10
37.458340898183586
20
66.2684070429336
30
0.0
 70
     32
  0
VERTEX
  8
MY3DLAYER
10
37.62593762622717
20
66.60603921991168
30
0.0
 70
     32
  0
VERTEX
  8
MY3DLAYER
10
37.52941894491743
20
66.55699797665727
30
0.0
 70
     32
  0
VERTEX
  8
MY3DLAYER
10
37.43319079401253
20
66.50727160200037
30
0.0
 70
     32
  0
VERTEX
  8
MY3DLAYER
10
37.33726271331683
20
66.45684101633232
30
0.0
 70
     32
  0
VERTEX
  8
MY3DLAYER
10
37.24164424263466
20
66.4056871400444
30
0.0
 70
     32
  0
VERTEX
  8
MY3DLAYER
10
37.14634492177035
20
66.35379089352797
30
0.0
 70
     32
  0
VERTEX
  8
MY3DLAYER
10
37.05137429052826
20
66.30113319717434
30
0.0
 70
     32
  0
VERTEX
  8
MY3DLAYER
10
36.95674188871273
20
66.24769497137481
30
0.0
 70
     32
  0
VERTEX
  8
MY3DLAYER
10
36.86245725612806
20
66.19345713652076
30
0.0
 70
     32
  0
VERTEX
  8
MY3DLAYER
10
36.768529932578616
20
66.13840061300344
30
0.0
 70
     32
  0
VERTEX
  8
MY3DLAYER
10
36.674969457868755
20
66.08250632121425
30
0.0
 70
     32
  0
VERTEX
  8
MY3DLAYER
10
36.58178537180276
20
66.02575518154444
30
0.0
 70
     32
  0
VERTEX
  8
MY3DLAYER
10
36.48898721418503
20
65.96812811438541
30
0.0
 70
     32
  0
VERTEX
  8
MY3DLAYER
10
35.639540053629474
20
65.37072287353789
30
0.0
 70
     32
  0
VERTEX
  8
MY3DLAYER
10
34.88767728616226
20
64.71729556534001
30
0.0
 70
     32
  0
VERTEX
  8
MY3DLAYER
10
34.22067888358043
20
64.01416240751881
30
0.0
 70
     32
  0
VERTEX
  8
MY3DLAYER
10
33.625824817681014
20
63.267639617801336
30
0.0
 70
     32
  0
VERTEX
  8
MY3DLAYER
10
33.09039506026101
20
62.48404341391456
30
0.0
 70
     32
  0
VERTEX
  8
MY3DLAYER
10
32.60166958311747
20
61.66969001358556
30
0.0
 70
     32
  0
VERTEX
  8
MY3DLAYER
10
32.14692835804741
20
60.83089563454133
30
0.0
 70
     32
  0
VERTEX
  8
MY3DLAYER
10
31.71345135684787
20
59.97397649450888
30
0.0
 70
     32
  0
VERTEX
  8
MY3DLAYER
10
31.288518551315835
20
59.10524881121527
30
0.0
 70
     32
  0
VERTEX
  8
MY3DLAYER
10
30.859409913248378
20
58.23102880238749
30
0.0
 70
     32
  0
VERTEX
  8
MY3DLAYER
10
30.413405414442497
20
57.357632685752584
30
0.0
 70
     32
  0
VERTEX
  8
MY3DLAYER
10
29.937785026695227
20
56.49137667903758
30
0.0
 70
     32
  0
VERTEX
  8
MY3DLAYER
10
29.456999557611123
20
55.70873170927736
30
0.0
 70
     32
  0
VERTEX
  8
MY3DLAYER
10
28.942785746869976
20
54.97477443184105
30
0.0
 70
     32
  0
VERTEX
  8
MY3DLAYER
10
28.39476807308284
20
54.28795766391597
30
0.0
 70
     32
  0
VERTEX
  8
MY3DLAYER
10
27.812571014860765
20
53.64673422268935
30
0.0
 70
     32
  0
VERTEX
  8
MY3DLAYER
10
27.19581905081477
20
53.04955692534854
30
0.0
 70
     32
  0
VERTEX
  8
MY3DLAYER
10
26.544136659555907
20
52.49487858908076
30
0.0
 70
     32
  0
VERTEX
  8
MY3DLAYER
10
25.857148319695213
20
51.98115203107333
30
0.0
 70
     32
  0
VERTEX
  8
MY3DLAYER
10
25.134478509843728
20
51.506830068513544
30
0.0
 70
     32
  0
VERTEX
  8
MY3DLAYER
10
24.375751708612484
20
51.07036551858863
30
0.0
 70
     32
  0
VERTEX
  8
MY3DLAYER
10
23.580592394612523
20
50.670211198485944
30
0.0
 70
     32
  0
VERTEX
  8
MY3DLAYER
10
22.748625046454887
20
50.304819925392685
30
0.0
 70
     32
  0
VERTEX
  8
MY3DLAYER
10
21.879474142750617
20
49.972644516496246
30
0.0
 70
     32
  0
VERTEX
  8
MY3DLAYER
10
21.110552615158785
20
49.727549453399
30
0.0
 70
     32
  0
VERTEX
  8
MY3DLAYER
10
20.30906046104545
20
49.526860444987584
30
0.0
 70
     32
  0
VERTEX
  8
MY3DLAYER
10
19.481984286206156
20
49.37108656991168
30
0.0
 70
     32
  0
VERTEX
  8
MY3DLAYER
10
18.636310696436436
20
49.260736906821
30
0.0
 70
     32
  0
VERTEX
  8
MY3DLAYER
10
17.77902629753182
20
49.19632053436522
30
0.0
 70
     32
  0
VERTEX
  8
MY3DLAYER
10
16.917117695287857
20
49.17834653119407
30
0.0
 70
     32
  0
VERTEX
  8
MY3DLAYER
10
16.05757149550009
20
49.20732397595723
30
0.0
 70
     32
  0
VERTEX
  8
MY3DLAYER
10
15.207374303964038
20
49.283761947304434
30
0.0
 70
     32
  0
VERTEX
  8
MY3DLAYER
10
14.373512726475246
20
49.40816952388529
30
0.0
 70
     32
  0
VERTEX
  8
MY3DLAYER
10
13.562973368829269
20
49.58105578434961
30
0.0
 70
     32
  0
VERTEX
  8
MY3DLAYER
10
12.782742836821622
20
49.802929807347034
30
0.0
 70
     32
  0
VERTEX
  8
MY3DLAYER
10
12.039807736247855
20
50.07430067152726
30
0.0
 70
     32
  0
VERTEX
  8
MY3DLAYER
10
11.583423063066753
20
50.268654960772956
30
0.0
 70
     32
  0
VERTEX
  8
MY3DLAYER
10
11.139212047476512
20
50.47174510902788
30
0.0
 70
     32
  0
VERTEX
  8
MY3DLAYER
10
10.707432264194274
20
50.68271166664663
30
0.0
 70
     32
  0
VERTEX
  8
MY3DLAYER
10
10.288341287937172
20
50.900695183983835
30
0.0
 70
     32
  0
VERTEX
  8
MY3DLAYER
10
9.882196693422344
20
51.124836211394054
30
0.0
 70
     32
  0
VERTEX
  8
MY3DLAYER
10
9.48925605536694
20
51.35427529923192
30
0.0
 70
     32
  0
VERTEX
  8
MY3DLAYER
10
9.109776948488093
20
51.58815299785199
30
0.0
 70
     32
  0
VERTEX
  8
MY3DLAYER
10
8.744016947502942
20
51.825609857608875
30
0.0
 70
     32
  0
VERTEX
  8
MY3DLAYER
10
8.392233627128624
20
52.06578642885716
30
0.0
 70
     32
  0
VERTEX
  8
MY3DLAYER
10
8.054684562082285
20
52.30782326195149
30
0.0
 70
     32
  0
VERTEX
  8
MY3DLAYER
10
7.731627327081057
20
52.55086090724638
30
0.0
 70
     32
  0
VERTEX
  8
MY3DLAYER
10
7.423319496842084
20
52.79403991509648
30
0.0
 70
     32
  0
VERTEX
  8
MY3DLAYER
10
6.954402556152489
20
52.66523925861771
30
0.0
 70
     32
  0
VERTEX
  8
MY3DLAYER
10
6.45366603171931
20
52.59097506177731
30
0.0
 70
     32
  0
VERTEX
  8
MY3DLAYER
10
5.93062717925261
20
52.567951755803755
30
0.0
 70
     32
  0
VERTEX
  8
MY3DLAYER
10
5.394803254462447
20
52.592873771925625
30
0.0
 70
     32
  0
VERTEX
  8
MY3DLAYER
10
4.855711513058877
20
52.66244554137141
30
0.0
 70
     32
  0
VERTEX
  8
MY3DLAYER
10
4.322869210751963
20
52.77337149536964
30
0.0
 70
     32
  0
VERTEX
  8
MY3DLAYER
10
3.805793603251762
20
52.922356065148826
30
0.0
 70
     32
  0
VERTEX
  8
MY3DLAYER
10
3.314001946268335
20
53.10610368193749
30
0.0
 70
     32
  0
VERTEX
  8
MY3DLAYER
10
2.8570114955117383
20
53.32131877696415
30
0.0
 70
     32
  0
VERTEX
  8
MY3DLAYER
10
2.4443395066920335
20
53.56470578145735
30
0.0
 70
     32
  0
VERTEX
  8
MY3DLAYER
10
2.0855032355192797
20
53.83296912664553
30
0.0
 70
     32
  0
VERTEX
  8
MY3DLAYER
10
1.7900199377035355
20
54.12281324375733
30
0.0
 70
     32
  0
VERTEX
  8
MY3DLAYER
10
1.4028422087235206
20
54.59889876923735
30
0.0
 70
     32
  0
VERTEX
  8
MY3DLAYER
10
1.0556666138446977
20
55.09534483894053
30
0.0
 70
     32
  0
VERTEX
  8
MY3DLAYER
10
0.7518416243898796
20
55.615454826932826
30
0.0
 70
     32
  0
VERTEX
  8
MY3DLAYER
10
0.49471571168187634
20
56.16253210728017
30
0.0
 70
     32
  0
VERTEX
  8
MY3DLAYER
10
0.287637347043501
20
56.739880054048484
30
0.0
 70
     32
  0
VERTEX
  8
MY3DLAYER
10
0.13395500179756586
20
57.35080204130372
30
0.0
 70
     32
  0
VERTEX
  8
MY3DLAYER
10
0.03701714726688224
20
57.99860144311186
30
0.0
 70
     32
  0
VERTEX
  8
MY3DLAYER
10
0.0001722547742624563
20
58.686581633538786
30
0.0
 70
     32
  0
VERTEX
  8
MY3DLAYER
10
0.026768795642518398
20
59.41804598665044
30
0.0
 70
     32
  0
VERTEX
  8
MY3DLAYER
10
0.12015524119446203
20
60.19629787651279
30
0.0
 70
     32
  0
VERTEX
  8
MY3DLAYER
10
0.28368006275290525
20
61.024640677191734
30
0.0
 70
     32
  0
VERTEX
  8
MY3DLAYER
10
0.5206917316406602
20
61.906377762753266
30
0.0
 70
     32
  0
VERTEX
  8
MY3DLAYER
10
0.5337150099876066
20
61.93037991046893
30
0.0
 70
     32
  0
VERTEX
  8
MY3DLAYER
10
0.5697205442409287
20
61.99673878944751
30
0.0
 70
     32
  0
VERTEX
  8
MY3DLAYER
10
0.6241118832193515
20
62.09698305343641
30
0.0
 70
     32
  0
VERTEX
  8
MY3DLAYER
10
0.6922925757416001
20
62.22264135618308
30
0.0
 70
     32
  0
VERTEX
  8
MY3DLAYER
10
0.7696661706263987
20
62.3652423514349
30
0.0
 70
     32
  0
VERTEX
  8
MY3DLAYER
10
0.8516362166924725
20
62.51631469293934
30
0.0
 70
     32
  0
VERTEX
  8
MY3DLAYER
10
0.9336062627585465
20
62.66738703444376
30
0.0
 70
     32
  0
VERTEX
  8
MY3DLAYER
10
1.0109798576433453
20
62.809988029695596
30
0.0
 70
     32
  0
VERTEX
  8
MY3DLAYER
10
1.0791605501655934
20
62.935646332442246
30
0.0
 70
     32
  0
VERTEX
  8
MY3DLAYER
10
1.1335518891440164
20
63.03589059643117
30
0.0
 70
     32
  0
VERTEX
  8
MY3DLAYER
10
1.1695574233973387
20
63.102249475409735
30
0.0
 70
     32
  0
VERTEX
  8
MY3DLAYER
10
1.1825807017442849
20
63.12625162312539
30
0.0
 70
     32
  0
VERTEX
  8
MY3DLAYER
10
1.298235074217137
20
62.704723371402295
30
0.0
 70
     32
  0
VERTEX
  8
MY3DLAYER
10
1.4177652090162378
20
62.324215411079784
30
0.0
 70
     32
  0
VERTEX
  8
MY3DLAYER
10
1.5465767061817555
20
61.981757393988836
30
0.0
 70
     32
  0
VERTEX
  8
MY3DLAYER
10
1.690075165753857
20
61.67437897196043
30
0.0
 70
     32
  0
VERTEX
  8
MY3DLAYER
10
1.8536661877727096
20
61.399109796825506
30
0.0
 70
     32
  0
VERTEX
  8
MY3DLAYER
10
2.0427553722784815
20
61.15297952041506
30
0.0
 70
     32
  0
VERTEX
  8
MY3DLAYER
10
2.2627483193113407
20
60.93301779456003
30
0.0
 70
     32
  0
VERTEX
  8
MY3DLAYER
10
2.5190506289114545
20
60.73625427109141
30
0.0
 70
     32
  0
VERTEX
  8
MY3DLAYER
10
2.8170679011189876
20
60.55971860184014
30
0.0
 70
     32
  0
VERTEX
  8
MY3DLAYER
10
3.1622057359741125
20
60.40044043863722
30
0.0
 70
     32
  0
VERTEX
  8
MY3DLAYER
10
3.5598697335169938
20
60.25544943331363
30
0.0
 70
     32
  0
VERTEX
  8
MY3DLAYER
10
4.015465493787799
20
60.1217752377003
30
0.0
 70
     32
  0
VERTEX
  8
MY3DLAYER
10
4.384202780981502
20
60.028030615858185
30
0.0
 70
     32
  0
VERTEX
  8
MY3DLAYER
10
4.762897022139773
20
59.93656774176286
30
0.0
 70
     32
  0
VERTEX
  8
MY3DLAYER
10
5.148080064758102
20
59.843746746431705
30
0.0
 70
     32
  0
VERTEX
  8
MY3DLAYER
10
5.536283756331976
20
59.745927760882125
30
0.0
 70
     32
  0
VERTEX
  8
MY3DLAYER
10
5.92403994435688
20
59.6394709161315
30
0.0
 70
     32
  0
VERTEX
  8
MY3DLAYER
10
6.3078804763283
20
59.52073634319724
30
0.0
 70
     32
  0
VERTEX
  8
MY3DLAYER
10
6.684337199741725
20
59.38608417309671
30
0.0
 70
     32
  0
VERTEX
  8
MY3DLAYER
10
7.0499419620926425
20
59.23187453684736
30
0.0
 70
     32
  0
VERTEX
  8
MY3DLAYER
10
7.401226610876535
20
59.05446756546652
30
0.0
 70
     32
  0
VERTEX
  8
MY3DLAYER
10
7.734722993588899
20
58.850223389971624
30
0.0
 70
     32
  0
VERTEX
  8
MY3DLAYER
10
8.04696295772521
20
58.615502141380034
30
0.0
 70
     32
  0
VERTEX
  8
MY3DLAYER
10
8.33447835078096
20
58.34666395070918
30
0.0
 70
     32
  0
VERTEX
  8
MY3DLAYER
10
8.56005150518188
20
58.07778051823896
30
0.0
 70
     32
  0
VERTEX
  8
MY3DLAYER
10
8.756215177317097
20
57.7772613600724
30
0.0
 70
     32
  0
VERTEX
  8
MY3DLAYER
10
8.922220926173507
20
57.45012441329157
30
0.0
 70
     32
  0
VERTEX
  8
MY3DLAYER
10
9.057320310738014
20
57.10138761497851
30
0.0
 70
     32
  0
VERTEX
  8
MY3DLAYER
10
9.160764889997512
20
56.73606890221526
30
0.0
 70
     32
  0
VERTEX
  8
MY3DLAYER
10
9.2318062229389
20
56.35918621208385
30
0.0
 70
     32
  0
VERTEX
  8
MY3DLAYER
10
9.269695868549075
20
55.9757574816664
30
0.0
 70
     32
  0
VERTEX
  8
MY3DLAYER
10
9.273685385814936
20
55.59080064804488
30
0.0
 70
     32
  0
VERTEX
  8
MY3DLAYER
10
9.24302633372338
20
55.20933364830136
30
0.0
 70
     32
  0
VERTEX
  8
MY3DLAYER
10
9.176970271261307
20
54.83637441951793
30
0.0
 70
     32
  0
VERTEX
  8
MY3DLAYER
10
9.07476875741561
20
54.47694089877658
30
0.0
 70
     32
  0
VERTEX
  8
MY3DLAYER
10
8.935673351173197
20
54.136051023159396
30
0.0
 70
     32
  0
VERTEX
  8
MY3DLAYER
10
9.639417201014544
20
53.776503892020926
30
0.0
 70
     32
  0
VERTEX
  8
MY3DLAYER
10
10.375013590287184
20
53.4227812450586
30
0.0
 70
     32
  0
VERTEX
  8
MY3DLAYER
10
11.13511166612084
20
53.08194600650262
30
0.0
 70
     32
  0
VERTEX
  8
MY3DLAYER
10
11.912360575645234
20
52.76106110058326
30
0.0
 70
     32
  0
VERTEX
  8
MY3DLAYER
10
12.699409465990081
20
52.46718945153077
30
0.0
 70
     32
  0
VERTEX
  8
MY3DLAYER
10
13.488907484285107
20
52.20739398357537
30
0.0
 70
     32
  0
VERTEX
  8
MY3DLAYER
10
14.27350377766002
20
51.98873762094733
30
0.0
 70
     32
  0
VERTEX
  8
MY3DLAYER
10
15.045847493244548
20
51.8182832878769
30
0.0
 70
     32
  0
VERTEX
  8
MY3DLAYER
10
15.798587778168406
20
51.70309390859429
30
0.0
 70
     32
  0
VERTEX
  8
MY3DLAYER
10
16.524373779561312
20
51.6502324073298
30
0.0
 70
     32
  0
VERTEX
  8
MY3DLAYER
10
17.215854644552987
20
51.66676170831362
30
0.0
 70
     32
  0
VERTEX
  8
MY3DLAYER
10
17.865679520273158
20
51.75974473577603
30
0.0
 70
     32
  0
VERTEX
  8
MY3DLAYER
10
19.171029160263252
20
52.10591402583963
30
0.0
 70
     32
  0
VERTEX
  8
MY3DLAYER
10
20.37032566267723
20
52.55975041492244
30
0.0
 70
     32
  0
VERTEX
  8
MY3DLAYER
10
21.471233826673604
20
53.114568234693046
30
0.0
 70
     32
  0
VERTEX
  8
MY3DLAYER
10
22.481418451410885
20
53.763681816820046
30
0.0
 70
     32
  0
VERTEX
  8
MY3DLAYER
10
23.408544336047584
20
54.50040549297202
30
0.0
 70
     32
  0
VERTEX
  8
MY3DLAYER
10
24.26027627974221
20
55.31805359481757
30
0.0
 70
     32
  0
VERTEX
  8
MY3DLAYER
10
25.044279081653276
20
56.20994045402529
30
0.0
 70
     32
  0
VERTEX
  8
MY3DLAYER
10
25.768217540939304
20
57.16938040226381
30
0.0
 70
     32
  0
VERTEX
  8
MY3DLAYER
10
26.439756456758786
20
58.189687771201655
30
0.0
 70
     32
  0
VERTEX
  8
MY3DLAYER
10
27.06656062827025
20
59.264176892507464
30
0.0
 70
     32
  0
VERTEX
  8
MY3DLAYER
10
27.65629485463218
20
60.3861620978498
30
0.0
 70
     32
  0
VERTEX
  8
MY3DLAYER
10
28.216623935003124
20
61.54895771889732
30
0.0
 70
     32
  0
VERTEX
  8
MY3DLAYER
10
28.726044427691647
20
62.65987010225249
30
0.0
 70
     32
  0
VERTEX
  8
MY3DLAYER
10
29.217118142127354
20
63.73937658247039
30
0.0
 70
     32
  0
VERTEX
  8
MY3DLAYER
10
29.702740292011086
20
64.78701144364831
30
0.0
 70
     32
  0
VERTEX
  8
MY3DLAYER
10
30.19580609104366
20
65.80230896988357
30
0.0
 70
     32
  0
VERTEX
  8
MY3DLAYER
10
30.709210752925916
20
66.78480344527341
30
0.0
 70
     32
  0
VERTEX
  8
MY3DLAYER
10
31.25584949135866
20
67.73402915391517
30
0.0
 70
     32
  0
VERTEX
  8
MY3DLAYER
10
31.848617520042737
20
68.64952037990614
30
0.0
 70
     32
  0
VERTEX
  8
MY3DLAYER
10
32.50041005267897
20
69.5308114073436
30
0.0
 70
     32
  0
VERTEX
  8
MY3DLAYER
10
33.22412230296817
20
70.37743652032484
30
0.0
 70
     32
  0
VERTEX
  8
MY3DLAYER
10
34.03264948461118
20
71.18893000294716
30
0.0
 70
     32
  0
VERTEX
  8
MY3DLAYER
10
34.93888681130882
20
71.96482613930786
30
0.0
 70
     32
  0
VERTEX
  8
MY3DLAYER
10
35.95572949676192
20
72.70465921350421
30
0.0
 70
     32
  0
VERTEX
  8
MY3DLAYER
10
36.77781606484721
20
73.22133978637932
30
0.0
 70
     32
  0
VERTEX
  8
MY3DLAYER
10
37.61870818904848
20
73.68268342330654
30
0.0
 70
     32
  0
VERTEX
  8
MY3DLAYER
10
38.476355678687916
20
74.08894769900307
30
0.0
 70
     32
  0
VERTEX
  8
MY3DLAYER
10
39.34870834308768
20
74.44039018818603
30
0.0
 70
     32
  0
VERTEX
  8
MY3DLAYER
10
40.233715991569916
20
74.73726846557253
30
0.0
 70
     32
  0
VERTEX
  8
MY3DLAYER
10
41.1293284334568
20
74.97984010587976
30
0.0
 70
     32
  0
VERTEX
  8
MY3DLAYER
10
42.033495478070506
20
75.16836268382482
30
0.0
 70
     32
  0
VERTEX
  8
MY3DLAYER
10
42.944166934733175
20
75.30309377412486
30
0.0
 70
     32
  0
VERTEX
  8
MY3DLAYER
10
43.859292612766986
20
75.38429095149701
30
0.0
 70
     32
  0
VERTEX
  8
MY3DLAYER
10
44.7768223214941
20
75.41221179065847
30
0.0
 70
     32
  0
SEQEND
 0
ENDSEC
 0
EOF
