<?xml version="1.0"?>
<svg 
  xmlns="http://www.w3.org/2000/svg" 
  xmlns:xlink="http://www.w3.org/1999/xlink" version="1.1" preserveAspectRatio="xMinYMin meet" viewBox="0.0001722547742624563 -98.00655150047301 147.31825013178627 98.0055020223113" width="100%" height="100%">
  <path fill="none" stroke="#000000" stroke-width="1%" d="M46.61089306831688,-75.30925475321764L44.7768223214941,-75.41221179065847L45.694705870236675,-75.38711386632627L46.61089306831688,-75.30925475321764"/>
  <path fill="none" stroke="#000000" stroke-width="1%" d="M44.7768223214941,-75.41221179065847L46.61089306831688,-75.30925475321764L47.81195443453349,-75.72558135435392L49.05000248942537,-76.04355604178008L50.32268523759565,-76.26356908021906L51.62765068364738,-76.38601073439378L52.962546832183676,-76.41127126902717L54.32502168780761,-76.33974094884219L55.71272325512231,-76.17181003856177L57.12329953873085,-75.90786880290887L58.55439854323627,-75.54830750660636L60.00366827324175,-75.09351641437728L61.468756733350304,-74.54388579094447L62.947311928165064,-73.89980590103096L64.4352571812987,-73.24229020850407L65.94318051922703,-72.64425432877277L67.4701210234767,-72.1033081072228L69.0151177755743,-71.6170613892399L70.57720985704647,-71.18312402020975L72.15543634941989,-70.79910584551813L73.74883633422114,-70.46261671055079L75.35644889297687,-70.17126646069347L76.97731310721372,-69.92266494133186L78.61046805845831,-69.71442199785176L80.25495282823725,-69.54414747563885L81.9098064980772,-69.40945122007888L81.64511855592107,-70.23993700771425L81.44773306611808,-71.10478083430219L81.3142469202842,-71.99650436049625L81.24125701003543,-72.90762924694997L81.22536022698773,-73.83067715431694L81.26315346275709,-74.7581697432507L81.35123360895949,-75.68262867440485L81.4861975572109,-76.59657560843291L81.66464219912724,-77.4925322059884L81.88316442632461,-78.36302012772498L82.13836113041886,-79.20056103429613L82.42682920302606,-79.99767658635544L82.71864632512604,-80.65145079652925L83.06684715988627,-81.28009802933042L83.4654563207711,-81.88450895558213L83.9084984212449,-82.4655742461077L84.38999807477198,-83.02418457173033L84.90397989481671,-83.56123060327326L85.44446849484343,-84.0776030115597L86.00548848831647,-84.57419246741297L86.58106448870015,-85.05188964165623L87.16522110945887,-85.51158520511274L87.75198296405691,-85.95416982860574L88.33537466595867,-86.3805341829585L89.72031113544008,-87.33628887587253L91.18034321016427,-88.2583966788847L92.7053326798842,-89.14056045387663L94.28514133435291,-89.97648306273L95.90963096332334,-90.75986736732648L97.56866335654854,-91.48441622954763L99.25210030378152,-92.14383251127526L100.94980359477522,-92.73181907439088L102.65163501928266,-93.2420787807762L104.34745636705688,-93.66831449231287L106.0271294278508,-94.00422907088254L107.68051599141751,-94.24352537836688L107.52293490158942,-94.52876422720549L107.30313520786565,-94.76820420992487L107.03037398947433,-94.96582342493414L106.71390832564354,-95.12559997064251L106.36299529560138,-95.25151194545909L105.98689197857593,-95.34753744779302L105.59485545379535,-95.4176545760535L105.19614280048769,-95.46584142864967L104.80001109788105,-95.49607610399065L104.41571742520357,-95.51233670048562L104.05251886168323,-95.5186013165437L103.71967248654833,-95.5188480505741L104.28558032886245,-96.15010875613653L105.21927191156385,-96.67829621209621L106.45108064533338,-97.09913138257988L107.91133994085183,-97.4083352317142L109.5303832087999,-97.60162872362594L111.2385438598585,-97.67473282244181L112.96615530470834,-97.62336849228848L114.64355095403023,-97.44325669729274L116.20106421850488,-97.13011840158117L117.5690285088132,-96.67967456928064L118.6777772356359,-96.08764616451775L119.47978685186332,-95.35999672134409L119.53612922537147,-95.39370894445142L119.6115408004973,-95.45536759074092L119.69089144756005,-95.54944943021216L119.75905103687873,-95.68043123286466L119.80088943877259,-95.85278976869807L119.80127652356076,-96.07100180771192L119.7450821615624,-96.33954411990581L119.61717622309658,-96.66289347527929L119.40242857848247,-97.0455266438319L119.08570909803926,-97.49192039556327L118.6518876520861,-98.00655150047301L119.44515071316009,-97.98754141673369L120.24658678478728,-97.90402924684204L121.05235913111382,-97.75956466526694L121.85863101628571,-97.55769734647723L122.66156570444902,-97.30197696494173L123.45732645974978,-96.99595319512942L124.242076546334,-96.64317571150904L125.01197922834783,-96.2471941885495L125.76319776993721,-95.8115583007196L126.49189543524821,-95.33981772248833L127.19423548842687,-94.83552212832444L127.86638119361929,-94.30222119269683L128.40703515025453,-93.80666463747698L128.87196907809033,-93.2869420233578L129.2606643586726,-92.74749629739628L129.5726023735474,-92.19277040664933L129.80726450426056,-91.62720729817381L129.9641321323581,-91.0552499190267L130.04268663938603,-90.4813412162649L130.04240940689027,-89.90992413694534L129.9627818164167,-89.34544162812486L129.80328524951148,-88.79233663686051L129.5634010877204,-88.2550521102091L129.24261071258948,-87.73803099522763L129.60353475548746,-87.636549592067L129.96279540341078,-87.52777023858742L130.32087311559616,-87.41239801305503L130.67824835128022,-87.29113799373587L131.03540156969967,-87.1646952588961L131.39281323009124,-87.0337748868018L131.75096379169153,-86.89908195571914L132.1103337137373,-86.76132154391416L132.47140345546512,-86.62119872965296L132.83465347611187,-86.47941859120169L133.20056423491403,-86.33668620682646L133.56961619110842,-86.1937066547934L133.9645022265364,-86.04453027713002L134.3348726993244,-85.90623014366744L134.68066863613637,-85.77208416136685L135.00183106363653,-85.63537023718928L135.29830100848883,-85.48936627809593L135.57001949735746,-85.32735019104787L135.81692755690648,-85.14259988300623L136.03896621380002,-84.92839326093214L136.23607649470208,-84.67800823178669L136.4081994262768,-84.38472270253106L136.55527603518826,-84.04181458012633L136.6772473481006,-83.64256177153362L136.77694784324225,-83.18343830725242L136.83360994473819,-82.791406552374L136.8619752520563,-82.457097551783L136.87678536466439,-82.17114235036406L136.8927818820301,-81.92417199300185L136.92470640362146,-81.70681752458104L136.98730052890605,-81.50970998998628L137.09530585735183,-81.32348043410221L137.26346398842645,-81.13875990181347L137.50651652159783,-80.94617943800482L137.8392050563337,-80.7363700875608L138.2762711921019,-80.49996289536614L138.8254728134244,-80.21984966776462L139.37467616925684,-79.94289845167381L139.9247571870884,-79.67122014561741L140.4765917944084,-79.406925648119L141.03105591870596,-79.15212585770217L141.58902548747056,-78.90893167289065L142.1513764281913,-78.67945399220798L142.71898466835754,-78.46580371417782L143.2927261354584,-78.27009173732377L143.8734767569833,-78.09442896016948L144.46211246042142,-77.94092628123859L145.05950917326206,-77.81169459905472L145.48939790714792,-77.72380669436399L145.8573073995015,-77.63489716335411L146.1683214987803,-77.5384702665255L146.42752405344174,-77.42803026437858L146.63999891194348,-77.29708141741375L146.81082992274276,-77.13912798613148L146.9451009342972,-76.94767423103217L147.04789579506428,-76.71622441261628L147.12429835350142,-76.43828279138414L147.17939245806608,-76.10735362783628L147.2182619572158,-75.71694118247304L147.24599069940805,-75.26054971579492L147.26406400326985,-74.90361360019541L147.2854242033537,-74.45983057491799L147.3049909202219,-73.94883876082095L147.3176837744368,-73.39027627876249L147.31842238656054,-72.80378124960093L147.3021263771555,-72.20899179419453L147.26371536678403,-71.62554603340155L147.19810897600829,-71.07308208808024L147.10022682539054,-70.57123807908884L146.96498853549318,-70.13965212728566L146.7873137268784,-69.79796235352893L146.56212202010852,-69.56580687867695L146.26653551895495,-69.30527265405527L146.04951190829368,-69.04810771487499L145.89097597077685,-68.79531894412123L145.7708524890564,-68.54791322477921L145.66906624578436,-68.30689743983413L145.56554202361286,-68.07327847227111L145.440204605194,-67.8480632050754L145.2729787731797,-67.63225852123212L145.04378931022202,-67.42687130372646L144.73256099897304,-67.23290843554365L144.3192186220848,-67.0513767996688L143.7836869622094,-66.88328327908717L143.55825965118086,-66.8211352119266L143.31607697471415,-66.75049151537513L143.05863754934543,-66.67158808277644L142.78743999161068,-66.58466080747411L142.503982918046,-66.48994558281179L142.20976494518752,-66.38767830213315L141.90628468957132,-66.27809485878184L141.59504076773348,-66.16143114610149L141.27753179620998,-66.0379230574357L140.95525639153706,-65.9078064861282L140.62971317025068,-65.77131732552255L140.30240074888704,-65.62869146896244L140.32804143026905,-65.58614509795268L140.35383474852054,-65.54358485086387L140.37951705813967,-65.50087196690563L140.40482471362478,-65.45786768528762L140.42949406947423,-65.41443324521944L140.45326148018611,-65.3704298859107L141.54810435221808,-62.7082809957081L142.05257209648755,-60.1445898243183L142.05376833013455,-57.70260227314939L141.63879667029937,-55.405564243609454L140.89476073412192,-53.27672163710659L139.90876413874238,-51.339320355048905L138.76791050130092,-49.61660629884448L137.55930343893755,-48.131825369901435L136.37004656879236,-46.90822346962783L135.28724350800562,-45.96904649943178L134.39799787371717,-45.337540360721334L133.78941328306738,-45.03695095490467L133.79529009162485,-45.18748993462108L133.79942024873347,-45.350834800779495L133.80028605824845,-45.523931081481734L133.796369824025,-45.70372430482961L133.78615384991838,-45.88715999892489L133.76812043978384,-46.07118369186941L133.74075189747663,-46.25274091176497L133.70253052685197,-46.42877718671335L133.65193863176506,-46.59623804481636L133.5874585160712,-46.752069014175824L133.50757248362564,-46.89321562289348L133.41076283828352,-47.0166233990712L133.19710966940357,-47.234247150150836L133.02344215678093,-47.38579648187218L132.88335128641006,-47.47758847921719L132.77042804428535,-47.51594022716782L132.67826341640117,-47.50716881070605L132.60044838875197,-47.45759131481382L132.53057394733216,-47.373524824473115L132.4622310781362,-47.26128642466591L132.38901076715837,-47.12719320037414L132.3045040003932,-46.977562236579764L132.20230176383504,-46.81871061826479L132.07599504347834,-46.656955430411124L131.53086605135343,-45.04541998847742L130.84407443382156,-43.510341742042044L130.03768142204308,-42.0604487448198L129.13374824717818,-40.70446905052547L128.15433614038704,-39.451130712873834L127.12150633283002,-38.30916178557966L126.05732005566729,-37.28729032235778L124.98383854005914,-36.39424437692293L123.92312301716571,-35.6387520029899L122.89723471814737,-35.02954125427348L121.92823487416423,-34.57534018448846L121.03818471637669,-34.28487684734963L121.02024294618079,-34.57646530323045L121.00009487941789,-34.866575956693744L120.9776780737323,-35.15529206421373L120.95293008676836,-35.442696882264656L120.92578847617041,-35.72887366732072L120.89619079958277,-36.01390567585617L120.86407461464972,-36.29787616434523L120.82937747901569,-36.58086838926213L120.79203695032496,-36.86296560708109L120.75199058622182,-37.144251074276326L120.70917594435065,-37.424808047322074L120.66353058235578,-37.704719782692585L120.15455947226859,-36.93658774618101L119.63411978285666,-36.178233141861455L119.10281512355812,-35.43110775450326L118.56124910381111,-34.69666336887573L118.0100253330538,-33.97635176974823L117.44974742072432,-33.27162474189005L116.88101897626079,-32.58393407007056L116.30444360910144,-31.914731539059066L115.72062492868426,-31.265468933624906L115.13016654444755,-30.63759803853742L114.53367206582935,-30.032570638565925L113.93174510226788,-29.45183851847977L114.01217374722083,-27.17956032838795L114.08346152510762,-24.944326065797448L114.14837324467655,-22.77397981780752L114.2096737146759,-20.696365671517405L114.2701277438539,-18.739327714026352L114.33250014095891,-16.93071003243362L114.39955571473922,-15.29835671383845L114.47405927394303,-13.870111845340102L114.55877562731864,-12.673819514037802L114.6564695836144,-11.737323807030823L114.76990595157852,-11.088468811418398L114.90184953995937,-10.755098614299792L115.22037030891266,-10.444587811971079L115.59764239651207,-10.177127544857173L116.0256870573108,-9.944003635322337L116.49652554586214,-9.736501905730819L117.00217911671939,-9.545908178446874L117.53466902443569,-9.363508275834755L118.0860165235645,-9.180588020258721L118.64824286865884,-8.988433234083026L119.21336931427213,-8.778329739671916L119.77341711495758,-8.541563359389654L120.32040752526844,-8.269419915600487L120.84636179975799,-7.953185230668674L121.03467667014493,-7.717076518715808L121.21493127312083,-7.438338757448903L121.38331142146008,-7.123693172651898L121.53600292793723,-6.77986099010874L121.66919160532672,-6.413563435603361L121.77906326640306,-6.031521734919707L121.86180372394071,-5.640457113841715L121.91359879071419,-5.2470907981533275L121.9306342794979,-4.85814401363848L121.90909600306641,-4.480337986081119L121.8451697741941,-4.120393941265179L121.7350414056556,-3.7850331049746027L121.52245640577655,-3.3657344211594027L121.24894848088202,-2.9610992838674104L120.92513283143586,-2.573448467317701L120.56162465790209,-2.2051027457293464L120.16903916074456,-1.858382893321422L119.7579915404272,-1.5356096843130012L119.33909699741396,-1.2391038929231575L118.92297073216885,-0.9711862933709666L118.52022794515558,-0.7341776598755012L118.1414838368383,-0.5303987666558356L117.79735360768073,-0.36217038793104395L117.49845245814701,-0.23181329792020045L117.08589321246951,-0.06514713442708253L116.63493712158449,-0.0010494781617103042L116.14700474908346,-0.027611184289881765L115.6235166585579,-0.13292310797739493L115.06589341359935,-0.3050761043900476L114.47555557779926,-0.5321610286936379L113.85392371474911,-0.8022687360539639L113.20241838804048,-1.1034900816368238L112.52246016126482,-1.4239159206080145L111.8154695980136,-1.7516371081333357L111.08286726187833,-2.0747444993785837L110.32607371645057,-2.3813289495095575L110.08747771733016,-2.503628952044092L109.84644473182874,-2.6828954625584824L109.60626165616841,-2.909677136718101L109.3702153865712,-3.1745226301883163L109.14159281925924,-3.4679805986345005L108.92368085045459,-3.7805996977220215L108.71976637637933,-4.102928583116253L108.53313629325554,-4.425515910482565L108.36707749730529,-4.738910335486323L108.22487688475069,-5.033660513792904L108.10982135181382,-5.300315101067672L108.02519779471675,-5.529422752976005L107.83505735268135,-6.148518184411999L107.6785733403522,-6.741889099821769L107.55060467044572,-7.315032161014166L107.44601025567847,-7.873444029798048L107.35964900876691,-8.422621367982266L107.28637984242751,-8.968060837375674L107.22106166937674,-9.515259099787126L107.15855340233118,-10.069712817025474L107.09371395400723,-10.636918650899567L107.02140223712142,-11.222373263218268L106.93647716439025,-11.831573315790415L106.83379764853021,-12.470015470424881L106.6653518779005,-13.423725320733208L106.4898466520603,-14.376061439216793L106.30711198904139,-15.326940569401406L106.11697790687558,-16.276279454812823L105.91927442359463,-17.223994838976814L105.71383155723036,-18.170003465419153L105.50047932581454,-19.114222077665616L105.27904774737894,-20.056567419241983L105.04936683995531,-20.996956233674002L104.81126662157558,-21.93530526448747L104.56457711027136,-22.871531255208154L104.30912832407459,-23.80555094936183L103.91569176073607,-23.68697754130389L103.52362199118275,-23.57696567401227L103.13287044913807,-23.47541821493373L102.74338856832533,-23.382238031514984L102.35512778246793,-23.297327991202767L101.96803952528919,-23.220590961443826L101.58207523051253,-23.151929809684894L101.19718633186133,-23.09124740337271L100.81332426305887,-23.03844660995399L100.43044045782862,-22.993430296875488L100.04848634989389,-22.95610133158393L99.66741337297806,-22.92636258152606L99.521715410336,-21.873253751710212L99.38634645402766,-20.87381759561261L99.26281032411885,-19.933500474255617L99.15261084067527,-19.05774874866156L99.05725182376261,-18.252008779852776L98.9782370934466,-17.521726928851617L98.91707046979296,-16.872349556680426L98.8752557728675,-16.309323024361532L98.85429682273582,-15.838093692917276L98.8556974394637,-15.464107923370017L98.88096144311683,-15.192812076742074L98.931592653761,-15.029652514055805L99.18200326692715,-14.684596345707519L99.49491520909933,-14.370638204992845L99.8613749402785,-14.080848724942285L100.27242892046539,-13.808298538586326L100.7191236096609,-13.54605827895546L101.19250546786589,-13.287198579080178L101.6836209550812,-13.024790071990978L102.18351653130772,-12.751903390718352L102.68323865654622,-12.461609168292787L103.17383379079762,-12.146978037744786L103.6463483940627,-11.801080632104824L104.09182892634244,-11.416987584403417L104.23127051184836,-11.163394723777929L104.35618904613132,-10.870834364194502L104.4640712243756,-10.546275766349883L104.55240374176552,-10.19668819094081L104.61867329348526,-9.829040898664024L104.6603665747192,-9.450303150216268L104.67497028065155,-9.067444206294285L104.65997110646667,-8.687433327594812L104.61285574734863,-8.317239774814587L104.53111089848198,-7.963832808650355L104.41222325505085,-7.63418168979886L104.25367951223949,-7.3352556789568375L103.98472583211912,-6.973804055970437L103.66061126880372,-6.63607705911893L103.29173941255183,-6.322549944109374L102.88851385362213,-6.033697966648804L102.46133818227311,-5.769996382444267L102.02061598876347,-5.53192044720281L101.57675086335173,-5.3199454166314775L101.14014639629657,-5.134546546437315L100.72120617785649,-4.976199092327364L100.3303337982902,-4.845378310008675L99.97793284785614,-4.742559455188289L99.67440691681311,-4.668217783573251L99.25766287696578,-4.5776356068693556L98.82128938880957,-4.590213405262191L98.36470192251504,-4.694466988838092L97.88731594825272,-4.878912167683387L97.38854693619311,-5.132064751884405L96.86781035650675,-5.442440551527482L96.3245216793642,-5.798555376698945L95.75809637493602,-6.188925037485127L95.1679499133926,-6.602065343972355L94.55349776490465,-7.026492106246967L93.91415539964257,-7.450721134395289L93.24933828777704,-7.863268238503653L93.04384309703137,-8.017642219564129L92.84527380423546,-8.226190147698103L92.65520707886998,-8.479457209551185L92.47521959041558,-8.767988591768987L92.30688800835296,-9.082329480997116L92.15178900216274,-9.413025063881188L92.01149924132565,-9.750620527066811L91.88759539532236,-10.085661057199601L91.78165413363347,-10.40869184092516L91.6952521257397,-10.710258064889103L91.62996604112173,-10.98090491573704L91.58737254926024,-11.211177580114592L91.50833642665573,-11.826832900289126L91.45691196682658,-12.412732703476957L91.42913581469762,-12.974900942490363L91.42104461519367,-13.519361570141648L91.42867501323957,-14.052138539243092L91.44806365376013,-14.579255802606989L91.47524718168017,-15.106737313045628L91.50626224192457,-15.640607023371306L91.53714547941806,-16.186888886396293L91.56393353908555,-16.751606854932902L91.58266306585178,-17.34078488179341L91.58937070464168,-17.960446919790115L91.58795332098495,-18.46570935866946L91.58444238390342,-18.97092843480181L91.57882575182788,-19.47610241367729L91.5710912831892,-19.981229560786012L91.5612268364182,-20.486308141618107L91.54922026994576,-20.991336421663682L91.53505944220272,-21.496312666412873L91.51873221161986,-22.001235141355796L91.50022643662807,-22.50610211198256L91.47952997565822,-23.0109118437833L91.45663068714106,-23.515662602248124L91.43151642950752,-24.020352652867157L90.81446569613475,-24.22289368420266L90.19652689370356,-24.440122545199678L89.57747800494933,-24.671657643684686L88.95709701260746,-24.917117387484147L88.3351618994134,-25.176120184424494L87.71145064810247,-25.448284442332216L87.08574124141009,-25.733228569033752L86.45781166207172,-26.030570972355594L85.82743989282262,-26.33993006012417L85.19440391639829,-26.660924240165947L84.55848171553407,-26.993171920307393L83.9194512729654,-27.33629150837497L82.8568381962636,-27.898985014796956L81.69150570997449,-28.488265088655393L80.43937488028413,-29.097665477118657L79.1163667733785,-29.720719927355123L77.73840245544362,-30.350962186533177L76.3214029926655,-30.9819260018212L74.88128945123013,-31.60714512038757L73.43398289732355,-32.22015328940067L71.99540439713172,-32.81448425602886L70.58147501684071,-33.383671767440546L69.20811582263649,-33.92124957080409L67.89124788070511,-34.42075141328788L67.62215702976177,-34.22923550491789L67.3535509743298,-34.03756349065871L67.08548782049021,-33.845704149332526L66.81802567432396,-33.6536262597615L66.55122264191198,-33.46129860076778L66.28513682933526,-33.268689951173556L66.01982634267478,-33.07576908980098L65.75534928801153,-32.88250479547222L65.49176377142645,-32.688865847009424L65.22912789900052,-32.49482102323479L64.96749977681469,-32.300339102970455L64.70693751094997,-32.1053888650386L64.11103565654071,-31.643122902482816L63.625965514426206,-31.228781447903874L63.241181264537715,-30.84715978769609L62.94613708680652,-30.48305320825379L62.730287161163886,-30.12125699597128L62.583085667541056,-29.746566437242887L62.49398678586929,-29.34377681846292L62.4524446960799,-28.89768342602571L62.447913578104085,-28.39308154632556L62.46984761187315,-27.814766465756804L62.507700977318336,-27.147533470713732L62.55092785437092,-26.376177847590693L62.58160482973124,-25.671292690248485L62.60310538057284,-25.00074389048535L62.62071889477401,-24.36144402071536L62.63973476021294,-23.750305653352616L62.66544236476782,-23.164241360811186L62.703131096316916,-22.600163715505186L62.75809034273847,-22.054985289848673L62.8356094919107,-21.52561865625576L62.94097793171177,-21.008976387140503L63.07948505001998,-20.501971054917018L63.25642023471352,-20.00151523199937L63.47707287367064,-19.50452149080167L63.735420025876465,-19.082979796627004L64.04331865632629,-18.74685751049923L64.39297734664044,-18.482082553764123L64.77660467843914,-18.274582847767466L65.18640923334267,-18.11028631385503L65.61459959297132,-17.975120873372607L66.05338433894534,-17.855014447665965L66.49497205288498,-17.73589495808089L66.93157131641053,-17.60369032596316L67.35539071114225,-17.444328472658547L67.75863881870042,-17.24373731951284L68.13352422070531,-16.987844787871815L68.51574761129886,-16.62831847085191L68.83492416952917,-16.224891708776127L69.0955384706903,-15.787343668346365L69.30207509007624,-15.325453516264524L69.45901860298103,-14.849000419232496L69.57085358469872,-14.367763543952185L69.64206461052335,-13.891522057125485L69.67713625574893,-13.430055125454295L69.6805530956695,-12.99314191564051L69.6567997055791,-12.590561594386035L69.61036066077175,-12.23209332839276L69.5457205365415,-11.927516284362591L68.82005320453287,-11.498892008179041L68.04184843552224,-11.142040016308693L67.22041794579897,-10.855279568678094L66.36507345165235,-10.636929925213789L65.48512666937167,-10.485310345842315L64.58988931524628,-10.398740090490225L63.688673105565464,-10.375538419084064L62.790789756618544,-10.41402459155038L61.905550984694834,-10.512517867815701L61.04226850608363,-10.669337507806594L60.21025403707424,-10.88280277144959L59.418819293956034,-11.151232918671242L58.524390221434594,-11.560596040810388L57.824128255634314,-12.019567880019595L57.292715623095766,-12.528406878270934L56.904834550359524,-13.087371477536491L56.635167263966146,-13.69672011978834L56.45839599045624,-14.356711246998561L56.349202956370355,-15.067603301139242L56.28227038824907,-15.82965472418245L56.23228051263293,-16.64312395810027L56.17391555606255,-17.508269444864787L56.081857745078466,-18.425349626448064L55.93078930622128,-19.3946229448222L55.77744258863707,-20.232058479918166L55.635572255672066,-21.060171024410593L55.50250109132692,-21.880086275211436L55.375551879602284,-22.692929929232637L55.252047404498775,-23.499827683386137L55.12931045001703,-24.301905234583874L55.00466380015772,-25.100288279737804L54.875430238921474,-25.896102515759853L54.73893255030892,-26.690473639561958L54.59249351832074,-27.48452734805608L54.43343592695751,-28.279389338154154L54.259082560219944,-29.076185306768128L53.7329782506258,-28.7090274353624L53.207853939113704,-28.3420135282767L52.68395072255695,-27.97497533805268L52.1615096978288,-27.607744617232008L51.640771961802514,-27.24015311835635L51.12197861135143,-26.872032593967383L50.6053707433488,-26.503214796606763L50.09118945466791,-26.133531478816163L49.579675842182034,-25.76281439313724L49.071071002764455,-25.39089529211167L48.56561603328846,-25.017605928281117L48.063552030627335,-24.642778054187243L47.46770741504409,-24.180512091631456L46.98268410469633,-23.766170637052515L46.59793627951532,-23.384548976844737L46.30291811943232,-23.02044239740243L46.0870838043786,-22.65864618511992L45.9398875142854,-22.283955626391528L45.85078342908402,-21.881166007611565L45.809225728705705,-21.435072615174363L45.80466859308169,-20.930470735474202L45.82656620214328,-20.35215565490544L45.86437273582172,-19.684922659862373L45.90754237404828,-18.913567036739334L45.938219349408584,-18.20868187939713L45.959719900250214,-17.53813307963399L45.97733341445136,-16.898833209864005L45.996349279890275,-16.287694842501256L46.02205688444516,-15.70163054995984L46.059745615994274,-15.137552904653827L46.114704862415806,-14.59237447899732L46.192224011588024,-14.063007845404398L46.29759245138911,-13.546365576289148L46.43609956969731,-13.039360244065659L46.61303475439085,-12.538904421148017L46.83368739334797,-12.04191067995031L47.092139483401525,-11.620359445971308L47.400106626991615,-11.284212009450275L47.74980260926817,-11.019401495262631L48.133441215381104,-10.811861028283802L48.5432362304803,-10.647523733389196L48.971401439715684,-10.512322735454237L49.41015062823716,-10.39219115935434L49.85169758119463,-10.273062129964927L50.288256083738,-10.140868772161415L50.71203992101719,-9.981544210819218L51.1152628781821,-9.781021570813758L51.490138740382655,-9.525233977020454L51.872414599900054,-9.165697831111231L52.1916254147005,-8.762243895047332L52.45225836184282,-8.324654804550416L52.65880061838588,-7.862713195342142L52.81573936138851,-7.386201703144165L52.92756176790957,-6.904902963678142L52.99875501500793,-6.42859961266573L53.03380627974243,-5.96707428582859L53.03720273917191,-5.5301096188883765L53.01343157035524,-5.127488247566747L52.966979950351266,-4.76899280758536L52.90233505621884,-4.46440593466587L52.1767154232319,-4.036001652152067L51.39853233559477,-3.6793158841451934L50.577102713126436,-3.392676563121195L49.72174347564583,-3.1744116215560134L48.84177154297191,-3.0228489919255934L47.946503834923625,-2.936316606705879L47.04525727131992,-2.9131423983728135L46.14734877197975,-2.9516542994023407L45.26209525672204,-3.050180242270404L44.3988136453658,-3.2070481594529463L43.56682085772992,-3.420585983425913L42.775433813633384,-3.689121646665247L41.8810096555566,-4.098369712982373L41.18076127675037,-4.557243841468351L40.6493691692454,-5.065999005075504L40.26151382507238,-5.624890176756151L39.99187573626198,-6.234172329462611L39.815135394844916,-6.8941004361472045L39.70597329285188,-7.6049294697622525L39.639069922313574,-8.366914403260074L39.58910577526065,-9.180310209592983L39.530761343723846,-10.045371861713312L39.43871711973382,-10.962354332573366L39.2876535953213,-11.931512595125481L39.090755791879495,-13.018413146418158L38.91198882021046,-14.090043072729733L38.74544320515398,-15.148886192207963L38.585209471549824,-16.197426323000613L38.42537814423777,-17.238147283255458L38.26003974805758,-18.27353289112027L38.08328480784905,-19.306066964742808L37.88920384845191,-20.338233322270842L37.671887394705955,-21.372515781852137L37.42542597145097,-22.41139816163448L37.1439101035267,-23.45736427976561L36.821430315772936,-24.51289795439332L36.60794524980881,-25.385602146128704L36.54851674959716,-26.187763821055608L36.62637990989551,-26.928558536437794L36.82476982546137,-27.617161849539006L37.126921591052195,-28.262749317622994L37.51607030142554,-28.874496497953533L37.9754510513389,-29.46157894779435L38.488298935549764,-30.033172224409224L39.037849048815616,-30.59845188506187L39.60733648589401,-31.166593487016083L40.17999634154241,-31.746772587535578L40.73906371051834,-32.348164743884155L40.81631401065919,-33.1483990892497L40.80413905218592,-34.057954388804774L40.71280279731182,-35.06368132315116L40.55256920825015,-36.15243057289065L40.33370224721423,-37.31105281862504L40.0664658764173,-38.52639874095612L39.76112405807264,-39.785319020485716L39.42794075439358,-41.07466433781557L39.077179927593356,-42.381285373547506L38.719105539885284,-43.692032808283315L38.3639815534826,-44.99375732262476L38.02207193059863,-46.2733095971737L37.329399312777085,-47.46128697719757L36.72185904161734,-48.68684077925582L36.20182652839967,-49.946168957692116L35.77167718440439,-51.23546946685007L35.43378642091173,-52.55094026107335L35.19052964920203,-53.888779294705586L35.04428228055554,-55.24518452209042L34.99741972625256,-56.61635389757147L35.052317397573376,-57.9984853754924L35.211350705798274,-59.38777691019684L35.476895062207525,-60.780426456028415L35.85132587808143,-62.17263196733081L35.978511994947155,-62.574600584767694L36.10964065276949,-62.97052963880338L36.24465808174219,-63.36045728865522L36.38351051205895,-63.74442169354056L36.526144173913515,-64.12246101267672L36.67250529749961,-64.49461340528111L36.82254011301098,-64.86091703057107L36.976194850641335,-65.22141004776397L37.1334157405844,-65.5761306160771L37.2941490130339,-65.92511689472788L37.458340898183586,-66.2684070429336L37.62593762622717,-66.60603921991168L37.52941894491743,-66.55699797665727L37.43319079401253,-66.50727160200037L37.33726271331683,-66.45684101633232L37.24164424263466,-66.4056871400444L37.14634492177035,-66.35379089352797L37.05137429052826,-66.30113319717434L36.95674188871273,-66.24769497137481L36.86245725612806,-66.19345713652076L36.768529932578616,-66.13840061300344L36.674969457868755,-66.08250632121425L36.58178537180276,-66.02575518154444L36.48898721418503,-65.96812811438541L35.639540053629474,-65.37072287353789L34.88767728616226,-64.71729556534001L34.22067888358043,-64.01416240751881L33.625824817681014,-63.267639617801336L33.09039506026101,-62.48404341391456L32.60166958311747,-61.66969001358556L32.14692835804741,-60.83089563454133L31.71345135684787,-59.97397649450888L31.288518551315835,-59.10524881121527L30.859409913248378,-58.23102880238749L30.413405414442497,-57.357632685752584L29.937785026695227,-56.49137667903758L29.456999557611123,-55.70873170927736L28.942785746869976,-54.97477443184105L28.39476807308284,-54.28795766391597L27.812571014860765,-53.64673422268935L27.19581905081477,-53.04955692534854L26.544136659555907,-52.49487858908076L25.857148319695213,-51.98115203107333L25.134478509843728,-51.506830068513544L24.375751708612484,-51.07036551858863L23.580592394612523,-50.670211198485944L22.748625046454887,-50.304819925392685L21.879474142750617,-49.972644516496246L21.110552615158785,-49.727549453399L20.30906046104545,-49.526860444987584L19.481984286206156,-49.37108656991168L18.636310696436436,-49.260736906821L17.77902629753182,-49.19632053436522L16.917117695287857,-49.17834653119407L16.05757149550009,-49.20732397595723L15.207374303964038,-49.283761947304434L14.373512726475246,-49.40816952388529L13.562973368829269,-49.58105578434961L12.782742836821622,-49.802929807347034L12.039807736247855,-50.07430067152726L11.583423063066753,-50.268654960772956L11.139212047476512,-50.47174510902788L10.707432264194274,-50.68271166664663L10.288341287937172,-50.900695183983835L9.882196693422344,-51.124836211394054L9.48925605536694,-51.35427529923192L9.109776948488093,-51.58815299785199L8.744016947502942,-51.825609857608875L8.392233627128624,-52.06578642885716L8.054684562082285,-52.30782326195149L7.731627327081057,-52.55086090724638L7.423319496842084,-52.79403991509648L6.954402556152489,-52.66523925861771L6.45366603171931,-52.59097506177731L5.93062717925261,-52.567951755803755L5.394803254462447,-52.592873771925625L4.855711513058877,-52.66244554137141L4.322869210751963,-52.77337149536964L3.805793603251762,-52.922356065148826L3.314001946268335,-53.10610368193749L2.8570114955117383,-53.32131877696415L2.4443395066920335,-53.56470578145735L2.0855032355192797,-53.83296912664553L1.7900199377035355,-54.12281324375733L1.4028422087235206,-54.59889876923735L1.0556666138446977,-55.09534483894053L0.7518416243898796,-55.615454826932826L0.49471571168187634,-56.16253210728017L0.287637347043501,-56.739880054048484L0.13395500179756586,-57.35080204130372L0.03701714726688224,-57.99860144311186L0.0001722547742624563,-58.686581633538786L0.026768795642518398,-59.41804598665044L0.12015524119446203,-60.19629787651279L0.28368006275290525,-61.024640677191734L0.5206917316406602,-61.906377762753266L0.5337150099876066,-61.93037991046893L0.5697205442409287,-61.99673878944751L0.6241118832193515,-62.09698305343641L0.6922925757416001,-62.22264135618308L0.7696661706263987,-62.3652423514349L0.8516362166924725,-62.51631469293934L0.9336062627585465,-62.66738703444376L1.0109798576433453,-62.809988029695596L1.0791605501655934,-62.935646332442246L1.1335518891440164,-63.03589059643117L1.1695574233973387,-63.102249475409735L1.1825807017442849,-63.12625162312539L1.298235074217137,-62.704723371402295L1.4177652090162378,-62.324215411079784L1.5465767061817555,-61.981757393988836L1.690075165753857,-61.67437897196043L1.8536661877727096,-61.399109796825506L2.0427553722784815,-61.15297952041506L2.2627483193113407,-60.93301779456003L2.5190506289114545,-60.73625427109141L2.8170679011189876,-60.55971860184014L3.1622057359741125,-60.40044043863722L3.5598697335169938,-60.25544943331363L4.015465493787799,-60.1217752377003L4.384202780981502,-60.028030615858185L4.762897022139773,-59.93656774176286L5.148080064758102,-59.843746746431705L5.536283756331976,-59.745927760882125L5.92403994435688,-59.6394709161315L6.3078804763283,-59.52073634319724L6.684337199741725,-59.38608417309671L7.0499419620926425,-59.23187453684736L7.401226610876535,-59.05446756546652L7.734722993588899,-58.850223389971624L8.04696295772521,-58.615502141380034L8.33447835078096,-58.34666395070918L8.56005150518188,-58.07778051823896L8.756215177317097,-57.7772613600724L8.922220926173507,-57.45012441329157L9.057320310738014,-57.10138761497851L9.160764889997512,-56.73606890221526L9.2318062229389,-56.35918621208385L9.269695868549075,-55.9757574816664L9.273685385814936,-55.59080064804488L9.24302633372338,-55.20933364830136L9.176970271261307,-54.83637441951793L9.07476875741561,-54.47694089877658L8.935673351173197,-54.136051023159396L9.639417201014544,-53.776503892020926L10.375013590287184,-53.4227812450586L11.13511166612084,-53.08194600650262L11.912360575645234,-52.76106110058326L12.699409465990081,-52.46718945153077L13.488907484285107,-52.20739398357537L14.27350377766002,-51.98873762094733L15.045847493244548,-51.8182832878769L15.798587778168406,-51.70309390859429L16.524373779561312,-51.6502324073298L17.215854644552987,-51.66676170831362L17.865679520273158,-51.75974473577603L19.171029160263252,-52.10591402583963L20.37032566267723,-52.55975041492244L21.471233826673604,-53.114568234693046L22.481418451410885,-53.763681816820046L23.408544336047584,-54.50040549297202L24.26027627974221,-55.31805359481757L25.044279081653276,-56.20994045402529L25.768217540939304,-57.16938040226381L26.439756456758786,-58.189687771201655L27.06656062827025,-59.264176892507464L27.65629485463218,-60.3861620978498L28.216623935003124,-61.54895771889732L28.726044427691647,-62.65987010225249L29.217118142127354,-63.73937658247039L29.702740292011086,-64.78701144364831L30.19580609104366,-65.80230896988357L30.709210752925916,-66.78480344527341L31.25584949135866,-67.73402915391517L31.848617520042737,-68.64952037990614L32.50041005267897,-69.5308114073436L33.22412230296817,-70.37743652032484L34.03264948461118,-71.18893000294716L34.93888681130882,-71.96482613930786L35.95572949676192,-72.70465921350421L36.77781606484721,-73.22133978637932L37.61870818904848,-73.68268342330654L38.476355678687916,-74.08894769900307L39.34870834308768,-74.44039018818603L40.233715991569916,-74.73726846557253L41.1293284334568,-74.97984010587976L42.033495478070506,-75.16836268382482L42.944166934733175,-75.30309377412486L43.859292612766986,-75.38429095149701L44.7768223214941,-75.41221179065847"/>
</svg>