 0
SECTION
 2
ENTITIES
  0
POLYLINE
 8
Layer0
 66
     1
70
    8
 10
0.0
 20
 0.0
 30
0.0
  0
VERTEX
  8
MY3DLAYER
10
133.19527675904084
20
128.91963000108157
30
0.0
 70
     32
  0
VERTEX
  8
MY3DLAYER
10
134.08803206847836
20
128.81835691945824
30
0.0
 70
     32
  0
VERTEX
  8
MY3DLAYER
10
134.98307864178793
20
128.7119140346901
30
0.0
 70
     32
  0
VERTEX
  8
MY3DLAYER
10
135.88830597596137
20
128.59938469998883
30
0.0
 70
     32
  0
VERTEX
  8
MY3DLAYER
10
136.81160356799026
20
128.4798522685653
30
0.0
 70
     32
  0
VERTEX
  8
MY3DLAYER
10
137.7608609148663
20
128.35240009363085
30
0.0
 70
     32
  0
VERTEX
  8
MY3DLAYER
10
138.7439675135812
20
128.21611152839685
30
0.0
 70
     32
  0
VERTEX
  8
MY3DLAYER
10
139.76881286112626
20
128.0700699260745
30
0.0
 70
     32
  0
VERTEX
  8
MY3DLAYER
10
140.1900216377975
20
128.0127446237675
30
0.0
 70
     32
  0
VERTEX
  8
MY3DLAYER
10
140.6144396739703
20
127.96242921888258
30
0.0
 70
     32
  0
VERTEX
  8
MY3DLAYER
10
141.0510036473178
20
127.91874148100814
30
0.0
 70
     32
  0
VERTEX
  8
MY3DLAYER
10
141.50865023551276
20
127.88129917973222
30
0.0
 70
     32
  0
VERTEX
  8
MY3DLAYER
10
141.99631611622812
20
127.84972008464331
30
0.0
 70
     32
  0
VERTEX
  8
MY3DLAYER
10
142.5229379671367
20
127.82362196532966
30
0.0
 70
     32
  0
VERTEX
  8
MY3DLAYER
10
143.09745246591137
20
127.80262259137949
30
0.0
 70
     32
  0
VERTEX
  8
MY3DLAYER
10
143.72879629022506
20
127.78633973238115
30
0.0
 70
     32
  0
VERTEX
  8
MY3DLAYER
10
144.42590611775046
20
127.77439115792279
30
0.0
 70
     32
  0
VERTEX
  8
MY3DLAYER
10
145.19771862616042
20
127.76639463759302
30
0.0
 70
     32
  0
VERTEX
  8
MY3DLAYER
10
146.05317049312816
20
127.7619679409796
30
0.0
 70
     32
  0
VERTEX
  8
MY3DLAYER
10
147.00119839632623
20
127.76072883767127
30
0.0
 70
     32
  0
VERTEX
  8
MY3DLAYER
10
148.31738650200262
20
127.76600127041702
30
0.0
 70
     32
  0
VERTEX
  8
MY3DLAYER
10
149.5027319083411
20
127.7824412858474
30
0.0
 70
     32
  0
VERTEX
  8
MY3DLAYER
10
150.57283297764903
20
127.81178989140524
30
0.0
 70
     32
  0
VERTEX
  8
MY3DLAYER
10
151.54328807223382
20
127.85578809453409
30
0.0
 70
     32
  0
VERTEX
  8
MY3DLAYER
10
152.42969555440212
20
127.91617690267678
30
0.0
 70
     32
  0
VERTEX
  8
MY3DLAYER
10
153.24765378646146
20
127.99469732327674
30
0.0
 70
     32
  0
VERTEX
  8
MY3DLAYER
10
154.0127611307187
20
128.09309036377687
30
0.0
 70
     32
  0
VERTEX
  8
MY3DLAYER
10
154.74061594948114
20
128.21309703162072
30
0.0
 70
     32
  0
VERTEX
  8
MY3DLAYER
10
155.44681660505626
20
128.35645833425127
30
0.0
 70
     32
  0
VERTEX
  8
MY3DLAYER
10
156.14696145975043
20
128.52491527911167
30
0.0
 70
     32
  0
VERTEX
  8
MY3DLAYER
10
156.85664887587154
20
128.72020887364505
30
0.0
 70
     32
  0
VERTEX
  8
MY3DLAYER
10
157.59147721572626
20
128.94408012529476
30
0.0
 70
     32
  0
VERTEX
  8
MY3DLAYER
10
158.0429637032781
20
129.0931226441793
30
0.0
 70
     32
  0
VERTEX
  8
MY3DLAYER
10
158.44451521437136
20
129.23915753054555
30
0.0
 70
     32
  0
VERTEX
  8
MY3DLAYER
10
158.8002587357815
20
129.3852769348531
30
0.0
 70
     32
  0
VERTEX
  8
MY3DLAYER
10
159.11432125428405
20
129.53457300756128
30
0.0
 70
     32
  0
VERTEX
  8
MY3DLAYER
10
159.39082975665477
20
129.69013789912918
30
0.0
 70
     32
  0
VERTEX
  8
MY3DLAYER
10
159.63391122966894
20
129.85506376001666
30
0.0
 70
     32
  0
VERTEX
  8
MY3DLAYER
10
159.84769266010235
20
130.0324427406828
30
0.0
 70
     32
  0
VERTEX
  8
MY3DLAYER
10
160.03630103473034
20
130.22536699158715
30
0.0
 70
     32
  0
VERTEX
  8
MY3DLAYER
10
160.20386334032844
20
130.43692866318915
30
0.0
 70
     32
  0
VERTEX
  8
MY3DLAYER
10
160.35450656367226
20
130.6702199059479
30
0.0
 70
     32
  0
VERTEX
  8
MY3DLAYER
10
160.49235769153734
20
130.92833287032292
30
0.0
 70
     32
  0
VERTEX
  8
MY3DLAYER
10
160.6215437106993
20
131.21435970677365
30
0.0
 70
     32
  0
VERTEX
  8
MY3DLAYER
10
160.68964077918008
20
131.37268034366696
30
0.0
 70
     32
  0
VERTEX
  8
MY3DLAYER
10
160.77869561352077
20
131.5732009270164
30
0.0
 70
     32
  0
VERTEX
  8
MY3DLAYER
10
160.88659825947687
20
131.81142894124997
30
0.0
 70
     32
  0
VERTEX
  8
MY3DLAYER
10
161.01123876280363
20
132.08287187079586
30
0.0
 70
     32
  0
VERTEX
  8
MY3DLAYER
10
161.1505071692566
20
132.38303720008173
30
0.0
 70
     32
  0
VERTEX
  8
MY3DLAYER
10
161.30229352459065
20
132.70743241353568
30
0.0
 70
     32
  0
VERTEX
  8
MY3DLAYER
10
161.46448787456146
20
133.05156499558572
30
0.0
 70
     32
  0
VERTEX
  8
MY3DLAYER
10
161.6349802649245
20
133.41094243065993
30
0.0
 70
     32
  0
VERTEX
  8
MY3DLAYER
10
161.81166074143482
20
133.7810722031859
30
0.0
 70
     32
  0
VERTEX
  8
MY3DLAYER
10
161.99241934984798
20
134.15746179759188
30
0.0
 70
     32
  0
VERTEX
  8
MY3DLAYER
10
162.17514613591922
20
134.53561869830574
30
0.0
 70
     32
  0
VERTEX
  8
MY3DLAYER
10
162.35773114540407
20
134.91105038975553
30
0.0
 70
     32
  0
VERTEX
  8
MY3DLAYER
10
162.74782424207822
20
135.72011266948286
30
0.0
 70
     32
  0
VERTEX
  8
MY3DLAYER
10
163.08911552981095
20
136.45001934229032
30
0.0
 70
     32
  0
VERTEX
  8
MY3DLAYER
10
163.3838195509741
20
137.10757158131307
30
0.0
 70
     32
  0
VERTEX
  8
MY3DLAYER
10
163.63415084794016
20
137.69957055968572
30
0.0
 70
     32
  0
VERTEX
  8
MY3DLAYER
10
163.84232396308087
20
138.2328174505428
30
0.0
 70
     32
  0
VERTEX
  8
MY3DLAYER
10
164.01055343876854
20
138.71411342701975
30
0.0
 70
     32
  0
VERTEX
  8
MY3DLAYER
10
164.14105381737534
20
139.15025966225093
30
0.0
 70
     32
  0
VERTEX
  8
MY3DLAYER
10
164.23603964127295
20
139.5480573293714
30
0.0
 70
     32
  0
VERTEX
  8
MY3DLAYER
10
164.2977254528338
20
139.9143076015158
30
0.0
 70
     32
  0
VERTEX
  8
MY3DLAYER
10
164.32832579443004
20
140.2558116518192
30
0.0
 70
     32
  0
VERTEX
  8
MY3DLAYER
10
164.33005520843352
20
140.5793706534164
30
0.0
 70
     32
  0
VERTEX
  8
MY3DLAYER
10
164.30512823721634
20
140.89178577944185
30
0.0
 70
     32
  0
VERTEX
  8
MY3DLAYER
10
164.28141080073982
20
141.09406600448193
30
0.0
 70
     32
  0
VERTEX
  8
MY3DLAYER
10
164.2642372124695
20
141.26644454744573
30
0.0
 70
     32
  0
VERTEX
  8
MY3DLAYER
10
164.2549699922944
20
141.41312025795682
30
0.0
 70
     32
  0
VERTEX
  8
MY3DLAYER
10
164.25497166010183
20
141.53829198563955
30
0.0
 70
     32
  0
VERTEX
  8
MY3DLAYER
10
164.26560473578036
20
141.64615858011746
30
0.0
 70
     32
  0
VERTEX
  8
MY3DLAYER
10
164.288231739218
20
141.7409188910148
30
0.0
 70
     32
  0
VERTEX
  8
MY3DLAYER
10
164.32421519030285
20
141.8267717679554
30
0.0
 70
     32
  0
VERTEX
  8
MY3DLAYER
10
164.37491760892343
20
141.90791606056317
30
0.0
 70
     32
  0
VERTEX
  8
MY3DLAYER
10
164.4417015149673
20
141.98855061846203
30
0.0
 70
     32
  0
VERTEX
  8
MY3DLAYER
10
164.52592942832288
20
142.0728742912759
30
0.0
 70
     32
  0
VERTEX
  8
MY3DLAYER
10
164.62896386887854
20
142.16508592862886
30
0.0
 70
     32
  0
VERTEX
  8
MY3DLAYER
10
164.75216735652194
20
142.26938438014483
30
0.0
 70
     32
  0
VERTEX
  8
MY3DLAYER
10
165.09384736934683
20
142.56055752448685
30
0.0
 70
     32
  0
VERTEX
  8
MY3DLAYER
10
165.40565239443129
20
142.83906769484395
30
0.0
 70
     32
  0
VERTEX
  8
MY3DLAYER
10
165.69081630232577
20
143.10895392792156
30
0.0
 70
     32
  0
VERTEX
  8
MY3DLAYER
10
165.9525729635802
20
143.37425526042483
30
0.0
 70
     32
  0
VERTEX
  8
MY3DLAYER
10
166.19415624874424
20
143.63901072905912
30
0.0
 70
     32
  0
VERTEX
  8
MY3DLAYER
10
166.41880002836825
20
143.90725937052997
30
0.0
 70
     32
  0
VERTEX
  8
MY3DLAYER
10
166.62973817300184
20
144.18304022154248
30
0.0
 70
     32
  0
VERTEX
  8
MY3DLAYER
10
166.83020455319524
20
144.47039231880242
30
0.0
 70
     32
  0
VERTEX
  8
MY3DLAYER
10
167.02343303949834
20
144.77335469901493
30
0.0
 70
     32
  0
VERTEX
  8
MY3DLAYER
10
167.2126575024611
20
145.0959663988854
30
0.0
 70
     32
  0
VERTEX
  8
MY3DLAYER
10
167.4011118126334
20
145.4422664551192
30
0.0
 70
     32
  0
VERTEX
  8
MY3DLAYER
10
167.5920298405652
20
145.81629390442177
30
0.0
 70
     32
  0
VERTEX
  8
MY3DLAYER
10
167.7360501990544
20
146.1111553080007
30
0.0
 70
     32
  0
VERTEX
  8
MY3DLAYER
10
167.86522787093983
20
146.3860954557285
30
0.0
 70
     32
  0
VERTEX
  8
MY3DLAYER
10
167.9803258481497
20
146.6433805767091
30
0.0
 70
     32
  0
VERTEX
  8
MY3DLAYER
10
168.08210712261354
20
146.88527690004733
30
0.0
 70
     32
  0
VERTEX
  8
MY3DLAYER
10
168.1713346862593
20
147.114050654847
30
0.0
 70
     32
  0
VERTEX
  8
MY3DLAYER
10
168.2487715310163
20
147.331968070213
30
0.0
 70
     32
  0
VERTEX
  8
MY3DLAYER
10
168.3151806488129
20
147.5412953752492
30
0.0
 70
     32
  0
VERTEX
  8
MY3DLAYER
10
168.371325031578
20
147.74429879906037
30
0.0
 70
     32
  0
VERTEX
  8
MY3DLAYER
10
168.4179676712405
20
147.94324457075064
30
0.0
 70
     32
  0
VERTEX
  8
MY3DLAYER
10
168.45587155972888
20
148.14039891942417
30
0.0
 70
     32
  0
VERTEX
  8
MY3DLAYER
10
168.48579968897187
20
148.33802807418567
30
0.0
 70
     32
  0
VERTEX
  8
MY3DLAYER
10
168.5085150508982
20
148.53839826413906
30
0.0
 70
     32
  0
VERTEX
  8
MY3DLAYER
10
168.6122558520778
20
149.62331100848237
30
0.0
 70
     32
  0
VERTEX
  8
MY3DLAYER
10
169.14048643104755
20
149.57342666651917
30
0.0
 70
     32
  0
VERTEX
  8
MY3DLAYER
10
169.24739580758265
20
149.56694897506998
30
0.0
 70
     32
  0
VERTEX
  8
MY3DLAYER
10
169.34757414364287
20
149.56956053566861
30
0.0
 70
     32
  0
VERTEX
  8
MY3DLAYER
10
169.4435693500772
20
149.58284728849966
30
0.0
 70
     32
  0
VERTEX
  8
MY3DLAYER
10
169.53792933773482
20
149.60839517374734
30
0.0
 70
     32
  0
VERTEX
  8
MY3DLAYER
10
169.6332020174646
20
149.64779013159617
30
0.0
 70
     32
  0
VERTEX
  8
MY3DLAYER
10
169.73193530011596
20
149.70261810223022
30
0.0
 70
     32
  0
VERTEX
  8
MY3DLAYER
10
169.8366770965374
20
149.77446502583422
30
0.0
 70
     32
  0
VERTEX
  8
MY3DLAYER
10
169.94997531757832
20
149.86491684259278
30
0.0
 70
     32
  0
VERTEX
  8
MY3DLAYER
10
170.07437787408765
20
149.9755594926899
30
0.0
 70
     32
  0
VERTEX
  8
MY3DLAYER
10
170.21243267691443
20
150.10797891631026
30
0.0
 70
     32
  0
VERTEX
  8
MY3DLAYER
10
170.36668763690787
20
150.2637610536379
30
0.0
 70
     32
  0
VERTEX
  8
MY3DLAYER
10
170.53969066491683
20
150.44449184485768
30
0.0
 70
     32
  0
VERTEX
  8
MY3DLAYER
10
170.66831689748923
20
150.58550628571624
30
0.0
 70
     32
  0
VERTEX
  8
MY3DLAYER
10
170.8130130146293
20
150.75309226194054
30
0.0
 70
     32
  0
VERTEX
  8
MY3DLAYER
10
170.97128193065734
20
150.94394551608866
30
0.0
 70
     32
  0
VERTEX
  8
MY3DLAYER
10
171.14062655989312
20
151.15476179071922
30
0.0
 70
     32
  0
VERTEX
  8
MY3DLAYER
10
171.31854981665657
20
151.3822368283904
30
0.0
 70
     32
  0
VERTEX
  8
MY3DLAYER
10
171.50255461526785
20
151.62306637166077
30
0.0
 70
     32
  0
VERTEX
  8
MY3DLAYER
10
171.6901438700467
20
151.8739461630883
30
0.0
 70
     32
  0
VERTEX
  8
MY3DLAYER
10
171.87882049531333
20
152.13157194523149
30
0.0
 70
     32
  0
VERTEX
  8
MY3DLAYER
10
172.06608740538746
20
152.39263946064867
30
0.0
 70
     32
  0
VERTEX
  8
MY3DLAYER
10
172.2494475145893
20
152.65384445189838
30
0.0
 70
     32
  0
VERTEX
  8
MY3DLAYER
10
172.42640373723862
20
152.91188266153847
30
0.0
 70
     32
  0
VERTEX
  8
MY3DLAYER
10
172.5944589876554
20
153.1634498321279
30
0.0
 70
     32
  0
VERTEX
  8
MY3DLAYER
10
172.87638004332092
20
153.58274994373926
30
0.0
 70
     32
  0
VERTEX
  8
MY3DLAYER
10
173.15839411250593
20
153.98465091288503
30
0.0
 70
     32
  0
VERTEX
  8
MY3DLAYER
10
173.43942686116367
20
154.36792180580684
30
0.0
 70
     32
  0
VERTEX
  8
MY3DLAYER
10
173.7184039552465
20
154.73133168874625
30
0.0
 70
     32
  0
VERTEX
  8
MY3DLAYER
10
173.9942510607077
20
155.0736496279443
30
0.0
 70
     32
  0
VERTEX
  8
MY3DLAYER
10
174.26589384349947
20
155.39364468964246
30
0.0
 70
     32
  0
VERTEX
  8
MY3DLAYER
10
174.53225796957514
20
155.69008594008224
30
0.0
 70
     32
  0
VERTEX
  8
MY3DLAYER
10
174.79226910488734
20
155.9617424455052
30
0.0
 70
     32
  0
VERTEX
  8
MY3DLAYER
10
175.0448529153889
20
156.20738327215224
30
0.0
 70
     32
  0
VERTEX
  8
MY3DLAYER
10
175.28893506703238
20
156.42577748626516
30
0.0
 70
     32
  0
VERTEX
  8
MY3DLAYER
10
175.52344122577105
20
156.61569415408522
30
0.0
 70
     32
  0
VERTEX
  8
MY3DLAYER
10
175.74729705755738
20
156.77590234185388
30
0.0
 70
     32
  0
VERTEX
  8
MY3DLAYER
10
175.9380680359473
20
156.9578830412325
30
0.0
 70
     32
  0
VERTEX
  8
MY3DLAYER
10
176.04955718840333
20
157.19700071484584
30
0.0
 70
     32
  0
VERTEX
  8
MY3DLAYER
10
176.08213791078256
20
157.49249994828435
30
0.0
 70
     32
  0
VERTEX
  8
MY3DLAYER
10
176.03618359894327
20
157.8436253271386
30
0.0
 70
     32
  0
VERTEX
  8
MY3DLAYER
10
175.91206764874227
20
158.2496214369994
30
0.0
 70
     32
  0
VERTEX
  8
MY3DLAYER
10
175.71016345603712
20
158.70973286345682
30
0.0
 70
     32
  0
VERTEX
  8
MY3DLAYER
10
175.43084441668583
20
159.2232041921019
30
0.0
 70
     32
  0
VERTEX
  8
MY3DLAYER
10
175.07448392654592
20
159.78928000852497
30
0.0
 70
     32
  0
VERTEX
  8
MY3DLAYER
10
174.6414553814744
20
160.40720489831637
30
0.0
 70
     32
  0
VERTEX
  8
MY3DLAYER
10
174.13213217732908
20
161.07622344706726
30
0.0
 70
     32
  0
VERTEX
  8
MY3DLAYER
10
173.54688770996782
20
161.79558024036774
30
0.0
 70
     32
  0
VERTEX
  8
MY3DLAYER
10
172.8860953752477
20
162.5645198638084
30
0.0
 70
     32
  0
VERTEX
  8
MY3DLAYER
10
172.47101081840654
20
163.03981884580355
30
0.0
 70
     32
  0
VERTEX
  8
MY3DLAYER
10
172.09102804980154
20
163.4842183001296
30
0.0
 70
     32
  0
VERTEX
  8
MY3DLAYER
10
171.7367173657283
20
163.91068690035672
30
0.0
 70
     32
  0
VERTEX
  8
MY3DLAYER
10
171.39864906248226
20
164.33219332005555
30
0.0
 70
     32
  0
VERTEX
  8
MY3DLAYER
10
171.06739343635897
20
164.76170623279626
30
0.0
 70
     32
  0
VERTEX
  8
MY3DLAYER
10
170.73352078365355
20
165.21219431214965
30
0.0
 70
     32
  0
VERTEX
  8
MY3DLAYER
10
170.38760140066177
20
165.6966262316862
30
0.0
 70
     32
  0
VERTEX
  8
MY3DLAYER
10
170.02020558367911
20
166.2279706649762
30
0.0
 70
     32
  0
VERTEX
  8
MY3DLAYER
10
169.6219036290011
20
166.81919628559012
30
0.0
 70
     32
  0
VERTEX
  8
MY3DLAYER
10
169.183265832923
20
167.48327176709856
30
0.0
 70
     32
  0
VERTEX
  8
MY3DLAYER
10
168.69486249174022
20
168.23316578307194
30
0.0
 70
     32
  0
VERTEX
  8
MY3DLAYER
10
168.14726390174846
20
169.08184700708085
30
0.0
 70
     32
  0
VERTEX
  8
MY3DLAYER
10
167.9837182169105
20
169.33112437327648
30
0.0
 70
     32
  0
VERTEX
  8
MY3DLAYER
10
167.79974199348004
20
169.6025599242159
30
0.0
 70
     32
  0
VERTEX
  8
MY3DLAYER
10
167.59851011317323
20
169.89188292624056
30
0.0
 70
     32
  0
VERTEX
  8
MY3DLAYER
10
167.3831974577059
20
170.19482264569208
30
0.0
 70
     32
  0
VERTEX
  8
MY3DLAYER
10
167.15697890879463
20
170.50710834891225
30
0.0
 70
     32
  0
VERTEX
  8
MY3DLAYER
10
166.9230293481555
20
170.82446930224256
30
0.0
 70
     32
  0
VERTEX
  8
MY3DLAYER
10
166.6845236575046
20
171.142634772025
30
0.0
 70
     32
  0
VERTEX
  8
MY3DLAYER
10
166.4446367185582
20
171.45733402460124
30
0.0
 70
     32
  0
VERTEX
  8
MY3DLAYER
10
166.20654341303228
20
171.7642963263127
30
0.0
 70
     32
  0
VERTEX
  8
MY3DLAYER
10
165.9734186226433
20
172.0592509435011
30
0.0
 70
     32
  0
VERTEX
  8
MY3DLAYER
10
165.74843722910714
20
172.3379271425083
30
0.0
 70
     32
  0
VERTEX
  8
MY3DLAYER
10
165.53477411414016
20
172.59605418967595
30
0.0
 70
     32
  0
VERTEX
  8
MY3DLAYER
10
165.14609385052862
20
173.06269430459358
30
0.0
 70
     32
  0
VERTEX
  8
MY3DLAYER
10
164.80684358138862
20
173.4789108166429
30
0.0
 70
     32
  0
VERTEX
  8
MY3DLAYER
10
164.51412401224795
20
173.8494023174358
30
0.0
 70
     32
  0
VERTEX
  8
MY3DLAYER
10
164.26503584863474
20
174.17886739858395
30
0.0
 70
     32
  0
VERTEX
  8
MY3DLAYER
10
164.05667979607693
20
174.4720046516988
30
0.0
 70
     32
  0
VERTEX
  8
MY3DLAYER
10
163.88615656010222
20
174.73351266839222
30
0.0
 70
     32
  0
VERTEX
  8
MY3DLAYER
10
163.75056684623885
20
174.96809004027574
30
0.0
 70
     32
  0
VERTEX
  8
MY3DLAYER
10
163.6470113600143
20
175.180435358961
30
0.0
 70
     32
  0
VERTEX
  8
MY3DLAYER
10
163.57259080695695
20
175.37524721605988
30
0.0
 70
     32
  0
VERTEX
  8
MY3DLAYER
10
163.5244058925945
20
175.55722420318378
30
0.0
 70
     32
  0
VERTEX
  8
MY3DLAYER
10
163.49955732245513
20
175.73106491194443
30
0.0
 70
     32
  0
VERTEX
  8
MY3DLAYER
10
163.49514580206622
20
175.90146793395334
30
0.0
 70
     32
  0
VERTEX
  8
MY3DLAYER
10
163.49589927207347
20
175.9980071940324
30
0.0
 70
     32
  0
VERTEX
  8
MY3DLAYER
10
163.49074412727379
20
176.0809941915012
30
0.0
 70
     32
  0
VERTEX
  8
MY3DLAYER
10
163.47741650433093
20
176.1519980307514
30
0.0
 70
     32
  0
VERTEX
  8
MY3DLAYER
10
163.45365253990852
20
176.2125878161744
30
0.0
 70
     32
  0
VERTEX
  8
MY3DLAYER
10
163.41718837067017
20
176.2643326521611
30
0.0
 70
     32
  0
VERTEX
  8
MY3DLAYER
10
163.36576013327925
20
176.30880164310324
30
0.0
 70
     32
  0
VERTEX
  8
MY3DLAYER
10
163.2971039643991
20
176.3475638933919
30
0.0
 70
     32
  0
VERTEX
  8
MY3DLAYER
10
163.2089560006937
20
176.38218850741842
30
0.0
 70
     32
  0
VERTEX
  8
MY3DLAYER
10
163.09905237882668
20
176.41424458957417
30
0.0
 70
     32
  0
VERTEX
  8
MY3DLAYER
10
162.96512923546106
20
176.4453012442505
30
0.0
 70
     32
  0
VERTEX
  8
MY3DLAYER
10
162.804922707261
20
176.47692757583866
30
0.0
 70
     32
  0
VERTEX
  8
MY3DLAYER
10
162.61616893088967
20
176.5106926887298
30
0.0
 70
     32
  0
VERTEX
  8
MY3DLAYER
10
161.7242689501263
20
176.66544255324507
30
0.0
 70
     32
  0
VERTEX
  8
MY3DLAYER
10
162.45569173294703
20
177.1581864441333
30
0.0
 70
     32
  0
VERTEX
  8
MY3DLAYER
10
162.74901159156528
20
177.34610989717356
30
0.0
 70
     32
  0
VERTEX
  8
MY3DLAYER
10
163.01782828098135
20
177.48764172911905
30
0.0
 70
     32
  0
VERTEX
  8
MY3DLAYER
10
163.27652134812513
20
177.57668461456657
30
0.0
 70
     32
  0
VERTEX
  8
MY3DLAYER
10
163.53947033992614
20
177.60714122811186
30
0.0
 70
     32
  0
VERTEX
  8
MY3DLAYER
10
163.82105480331458
20
177.57291424435135
30
0.0
 70
     32
  0
VERTEX
  8
MY3DLAYER
10
164.1356542852199
20
177.46790633788132
30
0.0
 70
     32
  0
VERTEX
  8
MY3DLAYER
10
164.49764833257228
20
177.28602018329815
30
0.0
 70
     32
  0
VERTEX
  8
MY3DLAYER
10
164.92141649230143
20
177.02115845519785
30
0.0
 70
     32
  0
VERTEX
  8
MY3DLAYER
10
165.4213383113369
20
176.6672238281767
30
0.0
 70
     32
  0
VERTEX
  8
MY3DLAYER
10
166.01179333660895
20
176.21811897683114
30
0.0
 70
     32
  0
VERTEX
  8
MY3DLAYER
10
166.707161115047
20
175.66774657575732
30
0.0
 70
     32
  0
VERTEX
  8
MY3DLAYER
10
167.5218211935812
20
175.01000929955129
30
0.0
 70
     32
  0
VERTEX
  8
MY3DLAYER
10
167.77070422863906
20
174.81107966804785
30
0.0
 70
     32
  0
VERTEX
  8
MY3DLAYER
10
168.07132792133729
20
174.57600392773446
30
0.0
 70
     32
  0
VERTEX
  8
MY3DLAYER
10
168.41755384546857
20
174.30935873077658
30
0.0
 70
     32
  0
VERTEX
  8
MY3DLAYER
10
168.80324357482593
20
174.0157207293398
30
0.0
 70
     32
  0
VERTEX
  8
MY3DLAYER
10
169.22225868320157
20
173.69966657558982
30
0.0
 70
     32
  0
VERTEX
  8
MY3DLAYER
10
169.66846074438809
20
173.3657729216921
30
0.0
 70
     32
  0
VERTEX
  8
MY3DLAYER
10
170.1357113321783
20
173.01861641981233
30
0.0
 70
     32
  0
VERTEX
  8
MY3DLAYER
10
170.61787202036484
20
172.66277372211587
30
0.0
 70
     32
  0
VERTEX
  8
MY3DLAYER
10
171.10880438274032
20
172.30282148076853
30
0.0
 70
     32
  0
VERTEX
  8
MY3DLAYER
10
171.60236999309734
20
171.94333634793594
30
0.0
 70
     32
  0
VERTEX
  8
MY3DLAYER
10
172.09243042522849
20
171.58889497578335
30
0.0
 70
     32
  0
VERTEX
  8
MY3DLAYER
10
172.57284725292632
20
171.24407401647662
30
0.0
 70
     32
  0
VERTEX
  8
MY3DLAYER
10
173.58289576856993
20
170.51918983480087
30
0.0
 70
     32
  0
VERTEX
  8
MY3DLAYER
10
174.48094736263715
20
169.86809345978153
30
0.0
 70
     32
  0
VERTEX
  8
MY3DLAYER
10
175.2737770294516
20
169.28529967138545
30
0.0
 70
     32
  0
VERTEX
  8
MY3DLAYER
10
175.96815976333752
20
168.7653232495784
30
0.0
 70
     32
  0
VERTEX
  8
MY3DLAYER
10
176.57087055861894
20
168.3026789743275
30
0.0
 70
     32
  0
VERTEX
  8
MY3DLAYER
10
177.0886844096197
20
167.89188162559907
30
0.0
 70
     32
  0
VERTEX
  8
MY3DLAYER
10
177.52837631066402
20
167.5274459833594
30
0.0
 70
     32
  0
VERTEX
  8
MY3DLAYER
10
177.8967212560756
20
167.2038868275756
30
0.0
 70
     32
  0
VERTEX
  8
MY3DLAYER
10
178.20049424017873
20
166.91571893821367
30
0.0
 70
     32
  0
VERTEX
  8
MY3DLAYER
10
178.44647025729725
20
166.65745709524046
30
0.0
 70
     32
  0
VERTEX
  8
MY3DLAYER
10
178.64142430175522
20
166.42361607862222
30
0.0
 70
     32
  0
VERTEX
  8
MY3DLAYER
10
178.79213136787646
20
166.20871066832555
30
0.0
 70
     32
  0
VERTEX
  8
MY3DLAYER
10
178.91023767438818
20
166.03122622855264
30
0.0
 70
     32
  0
VERTEX
  8
MY3DLAYER
10
179.0308671323987
20
165.8719894580424
30
0.0
 70
     32
  0
VERTEX
  8
MY3DLAYER
10
179.15856903591
20
165.72834195399108
30
0.0
 70
     32
  0
VERTEX
  8
MY3DLAYER
10
179.29789267892414
20
165.597625313596
30
0.0
 70
     32
  0
VERTEX
  8
MY3DLAYER
10
179.45338735544235
20
165.4771811340533
30
0.0
 70
     32
  0
VERTEX
  8
MY3DLAYER
10
179.62960235946662
20
165.36435101256
30
0.0
 70
     32
  0
VERTEX
  8
MY3DLAYER
10
179.83108698499896
20
165.25647654631308
30
0.0
 70
     32
  0
VERTEX
  8
MY3DLAYER
10
180.06239052604076
20
165.15089933250903
30
0.0
 70
     32
  0
VERTEX
  8
MY3DLAYER
10
180.3280622765943
20
165.04496096834447
30
0.0
 70
     32
  0
VERTEX
  8
MY3DLAYER
10
180.63265153066095
20
164.93600305101617
30
0.0
 70
     32
  0
VERTEX
  8
MY3DLAYER
10
180.98070758224253
20
164.82136717772116
30
0.0
 70
     32
  0
VERTEX
  8
MY3DLAYER
10
181.376779725341
20
164.69839494565608
30
0.0
 70
     32
  0
VERTEX
  8
MY3DLAYER
10
181.72976080783312
20
164.60017174963642
30
0.0
 70
     32
  0
VERTEX
  8
MY3DLAYER
10
182.0798345451802
20
164.51976095689452
30
0.0
 70
     32
  0
VERTEX
  8
MY3DLAYER
10
182.4220401621905
20
164.4571662043569
30
0.0
 70
     32
  0
VERTEX
  8
MY3DLAYER
10
182.75141688367282
20
164.412391128951
30
0.0
 70
     32
  0
VERTEX
  8
MY3DLAYER
10
183.06300393443541
20
164.3854393676026
30
0.0
 70
     32
  0
VERTEX
  8
MY3DLAYER
10
183.3518405392864
20
164.3763145572393
30
0.0
 70
     32
  0
VERTEX
  8
MY3DLAYER
10
183.61296592303444
20
164.38502033478758
30
0.0
 70
     32
  0
VERTEX
  8
MY3DLAYER
10
183.84141931048774
20
164.41156033717425
30
0.0
 70
     32
  0
VERTEX
  8
MY3DLAYER
10
184.03223992645493
20
164.455938201326
30
0.0
 70
     32
  0
VERTEX
  8
MY3DLAYER
10
184.18046699574398
20
164.51815756416948
30
0.0
 70
     32
  0
VERTEX
  8
MY3DLAYER
10
184.28113974316364
20
164.5982220626321
30
0.0
 70
     32
  0
VERTEX
  8
MY3DLAYER
10
184.32929739352227
20
164.6961353336398
30
0.0
 70
     32
  0
VERTEX
  8
MY3DLAYER
10
184.3081790026145
20
164.91465810546396
30
0.0
 70
     32
  0
VERTEX
  8
MY3DLAYER
10
184.18364179507034
20
165.21576109920906
30
0.0
 70
     32
  0
VERTEX
  8
MY3DLAYER
10
183.96308599176837
20
165.59100566312537
30
0.0
 70
     32
  0
VERTEX
  8
MY3DLAYER
10
183.65391181358754
20
166.0319531454634
30
0.0
 70
     32
  0
VERTEX
  8
MY3DLAYER
10
183.26351948140623
20
166.5301648944735
30
0.0
 70
     32
  0
VERTEX
  8
MY3DLAYER
10
182.79930921610318
20
167.07720225840578
30
0.0
 70
     32
  0
VERTEX
  8
MY3DLAYER
10
182.268681238557
20
167.66462658551114
30
0.0
 70
     32
  0
VERTEX
  8
MY3DLAYER
10
181.6790357696466
20
168.28399922403932
30
0.0
 70
     32
  0
VERTEX
  8
MY3DLAYER
10
181.0377730302505
20
168.9268815222412
30
0.0
 70
     32
  0
VERTEX
  8
MY3DLAYER
10
180.35229324124737
20
169.58483482836704
30
0.0
 70
     32
  0
VERTEX
  8
MY3DLAYER
10
179.62999662351564
20
170.24942049066675
30
0.0
 70
     32
  0
VERTEX
  8
MY3DLAYER
10
178.87828339793438
20
170.91219985739147
30
0.0
 70
     32
  0
VERTEX
  8
MY3DLAYER
10
178.58568397802435
20
171.16017624544344
30
0.0
 70
     32
  0
VERTEX
  8
MY3DLAYER
10
178.2615776001149
20
171.42682655057695
30
0.0
 70
     32
  0
VERTEX
  8
MY3DLAYER
10
177.9113252355208
20
171.708115521315
30
0.0
 70
     32
  0
VERTEX
  8
MY3DLAYER
10
177.540287855558
20
172.00000790618034
30
0.0
 70
     32
  0
VERTEX
  8
MY3DLAYER
10
177.1538264315417
20
172.2984684536971
30
0.0
 70
     32
  0
VERTEX
  8
MY3DLAYER
10
176.7573019347876
20
172.59946191238814
30
0.0
 70
     32
  0
VERTEX
  8
MY3DLAYER
10
176.35607533661081
20
172.89895303077665
30
0.0
 70
     32
  0
VERTEX
  8
MY3DLAYER
10
175.95550760832705
20
173.19290655738615
30
0.0
 70
     32
  0
VERTEX
  8
MY3DLAYER
10
175.56095972125138
20
173.47728724073988
30
0.0
 70
     32
  0
VERTEX
  8
MY3DLAYER
10
175.1777926466997
20
173.74805982936093
30
0.0
 70
     32
  0
VERTEX
  8
MY3DLAYER
10
174.81136735598702
20
174.0011890717726
30
0.0
 70
     32
  0
VERTEX
  8
MY3DLAYER
10
174.46704482042927
20
174.23263971649843
30
0.0
 70
     32
  0
VERTEX
  8
MY3DLAYER
10
173.66408782261843
20
174.7738271190132
30
0.0
 70
     32
  0
VERTEX
  8
MY3DLAYER
10
172.94614234993688
20
175.2801084140765
30
0.0
 70
     32
  0
VERTEX
  8
MY3DLAYER
10
172.30842551881562
20
175.75646340895318
30
0.0
 70
     32
  0
VERTEX
  8
MY3DLAYER
10
171.74615444568525
20
176.20787191090795
30
0.0
 70
     32
  0
VERTEX
  8
MY3DLAYER
10
171.25454624697704
20
176.63931372720566
30
0.0
 70
     32
  0
VERTEX
  8
MY3DLAYER
10
170.82881803912164
20
177.055768665111
30
0.0
 70
     32
  0
VERTEX
  8
MY3DLAYER
10
170.46418693855009
20
177.4622165318889
30
0.0
 70
     32
  0
VERTEX
  8
MY3DLAYER
10
170.1558700616935
20
177.86363713480398
30
0.0
 70
     32
  0
VERTEX
  8
MY3DLAYER
10
169.89908452498278
20
178.26501028112116
30
0.0
 70
     32
  0
VERTEX
  8
MY3DLAYER
10
169.6890474448485
20
178.67131577810486
30
0.0
 70
     32
  0
VERTEX
  8
MY3DLAYER
10
169.52097593772203
20
179.0875334330202
30
0.0
 70
     32
  0
VERTEX
  8
MY3DLAYER
10
169.39008712003408
20
179.51864305313205
30
0.0
 70
     32
  0
VERTEX
  8
MY3DLAYER
10
169.3628384442207
20
179.62363226415042
30
0.0
 70
     32
  0
VERTEX
  8
MY3DLAYER
10
169.3351197715373
20
179.72980241001193
30
0.0
 70
     32
  0
VERTEX
  8
MY3DLAYER
10
169.30727439256196
20
179.83587066542745
30
0.0
 70
     32
  0
VERTEX
  8
MY3DLAYER
10
169.27964559787299
20
179.94055420510867
30
0.0
 70
     32
  0
VERTEX
  8
MY3DLAYER
10
169.25257667804846
20
180.04257020376645
30
0.0
 70
     32
  0
VERTEX
  8
MY3DLAYER
10
169.2264109236669
20
180.14063583611247
30
0.0
 70
     32
  0
VERTEX
  8
MY3DLAYER
10
169.20149162530564
20
180.23346827685808
30
0.0
 70
     32
  0
VERTEX
  8
MY3DLAYER
10
169.1781620735439
20
180.31978470071428
30
0.0
 70
     32
  0
VERTEX
  8
MY3DLAYER
10
169.15676555895922
20
180.39830228239262
30
0.0
 70
     32
  0
VERTEX
  8
MY3DLAYER
10
169.13764537212992
20
180.46773819660464
30
0.0
 70
     32
  0
VERTEX
  8
MY3DLAYER
10
169.1211448036342
20
180.5268096180613
30
0.0
 70
     32
  0
VERTEX
  8
MY3DLAYER
10
169.10760714405026
20
180.57423372147403
30
0.0
 70
     32
  0
VERTEX
  8
MY3DLAYER
10
169.08648935341193
20
180.62619092809084
30
0.0
 70
     32
  0
VERTEX
  8
MY3DLAYER
10
169.04791889039558
20
180.6984612535302
30
0.0
 70
     32
  0
VERTEX
  8
MY3DLAYER
10
168.99324326815264
20
180.789161264059
30
0.0
 70
     32
  0
VERTEX
  8
MY3DLAYER
10
168.9238099998342
20
180.89640752594403
30
0.0
 70
     32
  0
VERTEX
  8
MY3DLAYER
10
168.84096659859242
20
181.01831660545216
30
0.0
 70
     32
  0
VERTEX
  8
MY3DLAYER
10
168.74606057757794
20
181.15300506885038
30
0.0
 70
     32
  0
VERTEX
  8
MY3DLAYER
10
168.64043944994265
20
181.29858948240536
30
0.0
 70
     32
  0
VERTEX
  8
MY3DLAYER
10
168.52545072883788
20
181.45318641238393
30
0.0
 70
     32
  0
VERTEX
  8
MY3DLAYER
10
168.40244192741503
20
181.6149124250535
30
0.0
 70
     32
  0
VERTEX
  8
MY3DLAYER
10
168.2727605588255
20
181.7818840866802
30
0.0
 70
     32
  0
VERTEX
  8
MY3DLAYER
10
168.13775413622085
20
181.95221796353152
30
0.0
 70
     32
  0
VERTEX
  8
MY3DLAYER
10
167.99877017275224
20
182.12403062187394
30
0.0
 70
     32
  0
VERTEX
  8
MY3DLAYER
10
167.75820765052782
20
182.4222709552395
30
0.0
 70
     32
  0
VERTEX
  8
MY3DLAYER
10
167.55330673490798
20
182.68576945725243
30
0.0
 70
     32
  0
VERTEX
  8
MY3DLAYER
10
167.38275186826326
20
182.91769957604376
30
0.0
 70
     32
  0
VERTEX
  8
MY3DLAYER
10
167.24522749296403
20
183.12123475974522
30
0.0
 70
     32
  0
VERTEX
  8
MY3DLAYER
10
167.13941805138032
20
183.299548456488
30
0.0
 70
     32
  0
VERTEX
  8
MY3DLAYER
10
167.06400798588285
20
183.45581411440386
30
0.0
 70
     32
  0
VERTEX
  8
MY3DLAYER
10
167.01768173884128
20
183.59320518162437
30
0.0
 70
     32
  0
VERTEX
  8
MY3DLAYER
10
166.9991237526265
20
183.71489510628052
30
0.0
 70
     32
  0
VERTEX
  8
MY3DLAYER
10
167.00701846960854
20
183.82405733650367
30
0.0
 70
     32
  0
VERTEX
  8
MY3DLAYER
10
167.04005033215776
20
183.9238653204256
30
0.0
 70
     32
  0
VERTEX
  8
MY3DLAYER
10
167.09690378264438
20
184.01749250617792
30
0.0
 70
     32
  0
VERTEX
  8
MY3DLAYER
10
167.17626326343884
20
184.10811234189154
30
0.0
 70
     32
  0
VERTEX
  8
MY3DLAYER
10
167.20854396054457
20
184.1473458696251
30
0.0
 70
     32
  0
VERTEX
  8
MY3DLAYER
10
167.22920736014206
20
184.1897289900754
30
0.0
 70
     32
  0
VERTEX
  8
MY3DLAYER
10
167.2377902448751
20
184.2360903293407
30
0.0
 70
     32
  0
VERTEX
  8
MY3DLAYER
10
167.23382939738755
20
184.28725851351987
30
0.0
 70
     32
  0
VERTEX
  8
MY3DLAYER
10
167.2168616003234
20
184.34406216871153
30
0.0
 70
     32
  0
VERTEX
  8
MY3DLAYER
10
167.18642363632645
20
184.4073299210142
30
0.0
 70
     32
  0
VERTEX
  8
MY3DLAYER
10
167.14205228804104
20
184.47789039652696
30
0.0
 70
     32
  0
VERTEX
  8
MY3DLAYER
10
167.08328433811081
20
184.55657222134803
30
0.0
 70
     32
  0
VERTEX
  8
MY3DLAYER
10
167.0096565691797
20
184.6442040215761
30
0.0
 70
     32
  0
VERTEX
  8
MY3DLAYER
10
166.9207057638919
20
184.74161442331004
30
0.0
 70
     32
  0
VERTEX
  8
MY3DLAYER
10
166.81596870489133
20
184.84963205264827
30
0.0
 70
     32
  0
VERTEX
  8
MY3DLAYER
10
166.6949821748216
20
184.9690855356898
30
0.0
 70
     32
  0
VERTEX
  8
MY3DLAYER
10
166.5681524134144
20
185.09654317425333
30
0.0
 70
     32
  0
VERTEX
  8
MY3DLAYER
10
166.45248971210435
20
185.22263156284862
30
0.0
 70
     32
  0
VERTEX
  8
MY3DLAYER
10
166.3467424172425
20
185.34964552459283
30
0.0
 70
     32
  0
VERTEX
  8
MY3DLAYER
10
166.24965887518135
20
185.479879882603
30
0.0
 70
     32
  0
VERTEX
  8
MY3DLAYER
10
166.1599874322722
20
185.61562945999594
30
0.0
 70
     32
  0
VERTEX
  8
MY3DLAYER
10
166.07647643486703
20
185.75918907988896
30
0.0
 70
     32
  0
VERTEX
  8
MY3DLAYER
10
165.9978742293176
20
185.91285356539888
30
0.0
 70
     32
  0
VERTEX
  8
MY3DLAYER
10
165.9229291619753
20
186.07891773964295
30
0.0
 70
     32
  0
VERTEX
  8
MY3DLAYER
10
165.8503895791924
20
186.25967642573792
30
0.0
 70
     32
  0
VERTEX
  8
MY3DLAYER
10
165.77900382732
20
186.45742444680118
30
0.0
 70
     32
  0
VERTEX
  8
MY3DLAYER
10
165.70752025271048
20
186.67445662594952
30
0.0
 70
     32
  0
VERTEX
  8
MY3DLAYER
10
165.63468720171505
20
186.9130677863001
30
0.0
 70
     32
  0
VERTEX
  8
MY3DLAYER
10
165.50447540442096
20
187.38250580782233
30
0.0
 70
     32
  0
VERTEX
  8
MY3DLAYER
10
165.3822529960202
20
187.88073699026222
30
0.0
 70
     32
  0
VERTEX
  8
MY3DLAYER
10
165.2686974900691
20
188.40283090381507
30
0.0
 70
     32
  0
VERTEX
  8
MY3DLAYER
10
165.1644864001238
20
188.94385711867665
30
0.0
 70
     32
  0
VERTEX
  8
MY3DLAYER
10
165.07029723974097
20
189.49888520504186
30
0.0
 70
     32
  0
VERTEX
  8
MY3DLAYER
10
164.986807522477
20
190.0629847331071
30
0.0
 70
     32
  0
VERTEX
  8
MY3DLAYER
10
164.91469476188834
20
190.63122527306734
30
0.0
 70
     32
  0
VERTEX
  8
MY3DLAYER
10
164.8546364715309
20
191.19867639511844
30
0.0
 70
     32
  0
VERTEX
  8
MY3DLAYER
10
164.80731016496156
20
191.76040766945528
30
0.0
 70
     32
  0
VERTEX
  8
MY3DLAYER
10
164.7733933557366
20
192.311488666274
30
0.0
 70
     32
  0
VERTEX
  8
MY3DLAYER
10
164.75356355741235
20
192.84698895577006
30
0.0
 70
     32
  0
VERTEX
  8
MY3DLAYER
10
164.74849828354527
20
193.3619781081387
30
0.0
 70
     32
  0
VERTEX
  8
MY3DLAYER
10
164.75582209953654
20
193.83492770958406
30
0.0
 70
     32
  0
VERTEX
  8
MY3DLAYER
10
164.77291548474352
20
194.2646177335972
30
0.0
 70
     32
  0
VERTEX
  8
MY3DLAYER
10
164.7999647416234
20
194.65176527620926
30
0.0
 70
     32
  0
VERTEX
  8
MY3DLAYER
10
164.8371561726333
20
194.99708743345172
30
0.0
 70
     32
  0
VERTEX
  8
MY3DLAYER
10
164.8846760802304
20
195.30130130135555
30
0.0
 70
     32
  0
VERTEX
  8
MY3DLAYER
10
164.94271076687158
20
195.56512397595233
30
0.0
 70
     32
  0
VERTEX
  8
MY3DLAYER
10
165.0114465350139
20
195.78927255327366
30
0.0
 70
     32
  0
VERTEX
  8
MY3DLAYER
10
165.0910696871149
20
195.97446412935065
30
0.0
 70
     32
  0
VERTEX
  8
MY3DLAYER
10
165.1817665256316
20
196.12141580021444
30
0.0
 70
     32
  0
VERTEX
  8
MY3DLAYER
10
165.28372335302078
20
196.2308446618969
30
0.0
 70
     32
  0
VERTEX
  8
MY3DLAYER
10
165.39712647173988
20
196.303467810429
30
0.0
 70
     32
  0
VERTEX
  8
MY3DLAYER
10
165.52216218424599
20
196.34000234184197
30
0.0
 70
     32
  0
VERTEX
  8
MY3DLAYER
10
165.68336545283694
20
196.34869641413565
30
0.0
 70
     32
  0
VERTEX
  8
MY3DLAYER
10
165.83024521141857
20
196.32506793877153
30
0.0
 70
     32
  0
VERTEX
  8
MY3DLAYER
10
165.96385236234264
20
196.26696117153702
30
0.0
 70
     32
  0
VERTEX
  8
MY3DLAYER
10
166.08523780796108
20
196.17222036822037
30
0.0
 70
     32
  0
VERTEX
  8
MY3DLAYER
10
166.19545245062614
20
196.0386897846094
30
0.0
 70
     32
  0
VERTEX
  8
MY3DLAYER
10
166.29554719268924
20
195.8642136764921
30
0.0
 70
     32
  0
VERTEX
  8
MY3DLAYER
10
166.38657293650274
20
195.64663629965645
30
0.0
 70
     32
  0
VERTEX
  8
MY3DLAYER
10
166.46958058441842
20
195.38380190989
30
0.0
 70
     32
  0
VERTEX
  8
MY3DLAYER
10
166.5456210387881
20
195.07355476298048
30
0.0
 70
     32
  0
VERTEX
  8
MY3DLAYER
10
166.61574520196393
20
194.71373911471616
30
0.0
 70
     32
  0
VERTEX
  8
MY3DLAYER
10
166.68100397629752
20
194.30219922088492
30
0.0
 70
     32
  0
VERTEX
  8
MY3DLAYER
10
166.74244826414136
20
193.83677933727435
30
0.0
 70
     32
  0
VERTEX
  8
MY3DLAYER
10
166.8656716324743
20
192.93345475021
30
0.0
 70
     32
  0
VERTEX
  8
MY3DLAYER
10
167.00942825609891
20
192.10936677819578
30
0.0
 70
     32
  0
VERTEX
  8
MY3DLAYER
10
167.17991568423423
20
191.3522460545301
30
0.0
 70
     32
  0
VERTEX
  8
MY3DLAYER
10
167.38333146609932
20
190.64982321251176
30
0.0
 70
     32
  0
VERTEX
  8
MY3DLAYER
10
167.6258731509133
20
189.98982888543938
30
0.0
 70
     32
  0
VERTEX
  8
MY3DLAYER
10
167.9137382878951
20
189.35999370661156
30
0.0
 70
     32
  0
VERTEX
  8
MY3DLAYER
10
168.25312442626392
20
188.74804830932698
30
0.0
 70
     32
  0
VERTEX
  8
MY3DLAYER
10
168.65022911523866
20
188.14172332688426
30
0.0
 70
     32
  0
VERTEX
  8
MY3DLAYER
10
169.11124990403843
20
187.52874939258209
30
0.0
 70
     32
  0
VERTEX
  8
MY3DLAYER
10
169.64238434188218
20
186.89685713971886
30
0.0
 70
     32
  0
VERTEX
  8
MY3DLAYER
10
170.24982997798912
20
186.2337772015934
30
0.0
 70
     32
  0
VERTEX
  8
MY3DLAYER
10
170.93978436157835
20
185.52724021150422
30
0.0
 70
     32
  0
VERTEX
  8
MY3DLAYER
10
172.1691290691857
20
184.307022784781
30
0.0
 70
     32
  0
VERTEX
  8
MY3DLAYER
10
173.41477907998453
20
183.0850944417701
30
0.0
 70
     32
  0
VERTEX
  8
MY3DLAYER
10
174.66309009240024
20
181.87417471596424
30
0.0
 70
     32
  0
VERTEX
  8
MY3DLAYER
10
175.90041780485848
20
180.68698314085668
30
0.0
 70
     32
  0
VERTEX
  8
MY3DLAYER
10
177.11311791578458
20
179.53623924994002
30
0.0
 70
     32
  0
VERTEX
  8
MY3DLAYER
10
178.28754612360422
20
178.43466257670747
30
0.0
 70
     32
  0
VERTEX
  8
MY3DLAYER
10
179.41005812674257
20
177.39497265465192
30
0.0
 70
     32
  0
VERTEX
  8
MY3DLAYER
10
180.4670096236253
20
176.42988901726662
30
0.0
 70
     32
  0
VERTEX
  8
MY3DLAYER
10
181.44475631267758
20
175.55213119804404
30
0.0
 70
     32
  0
VERTEX
  8
MY3DLAYER
10
182.32965389232518
20
174.7744187304776
30
0.0
 70
     32
  0
VERTEX
  8
MY3DLAYER
10
183.10805806099347
20
174.10947114806004
30
0.0
 70
     32
  0
VERTEX
  8
MY3DLAYER
10
183.76632451710807
20
173.5700079842842
30
0.0
 70
     32
  0
VERTEX
  8
MY3DLAYER
10
184.1269882013608
20
173.28214040149857
30
0.0
 70
     32
  0
VERTEX
  8
MY3DLAYER
10
184.49568718452818
20
172.98631715790177
30
0.0
 70
     32
  0
VERTEX
  8
MY3DLAYER
10
184.86776280351106
20
172.68635420181678
30
0.0
 70
     32
  0
VERTEX
  8
MY3DLAYER
10
185.23855639521054
20
172.3860674815664
30
0.0
 70
     32
  0
VERTEX
  8
MY3DLAYER
10
185.60340929652784
20
172.089272945473
30
0.0
 70
     32
  0
VERTEX
  8
MY3DLAYER
10
185.95766284436368
20
171.79978654186021
30
0.0
 70
     32
  0
VERTEX
  8
MY3DLAYER
10
186.2966583756191
20
171.5214242190501
30
0.0
 70
     32
  0
VERTEX
  8
MY3DLAYER
10
186.6157372271951
20
171.25800192536585
30
0.0
 70
     32
  0
VERTEX
  8
MY3DLAYER
10
186.9102407359928
20
171.01333560913045
30
0.0
 70
     32
  0
VERTEX
  8
MY3DLAYER
10
187.17551023891315
20
170.7912412186662
30
0.0
 70
     32
  0
VERTEX
  8
MY3DLAYER
10
187.4068870728572
20
170.59553470229622
30
0.0
 70
     32
  0
VERTEX
  8
MY3DLAYER
10
187.59971257472603
20
170.4300320083432
30
0.0
 70
     32
  0
VERTEX
  8
MY3DLAYER
10
187.89698806908046
20
170.17707276577593
30
0.0
 70
     32
  0
VERTEX
  8
MY3DLAYER
10
188.17040267550215
20
169.95478770971943
30
0.0
 70
     32
  0
VERTEX
  8
MY3DLAYER
10
188.4216492739472
20
169.76231789693597
30
0.0
 70
     32
  0
VERTEX
  8
MY3DLAYER
10
188.65242074437126
20
169.59880438418762
30
0.0
 70
     32
  0
VERTEX
  8
MY3DLAYER
10
188.86440996672943
20
169.46338822823643
30
0.0
 70
     32
  0
VERTEX
  8
MY3DLAYER
10
189.05930982097848
20
169.35521048584482
30
0.0
 70
     32
  0
VERTEX
  8
MY3DLAYER
10
189.23881318707345
20
169.27341221377483
30
0.0
 70
     32
  0
VERTEX
  8
MY3DLAYER
10
189.4046129449706
20
169.21713446878874
30
0.0
 70
     32
  0
VERTEX
  8
MY3DLAYER
10
189.55840197462538
20
169.18551830764866
30
0.0
 70
     32
  0
VERTEX
  8
MY3DLAYER
10
189.7018731559936
20
169.1777047871168
30
0.0
 70
     32
  0
VERTEX
  8
MY3DLAYER
10
189.83671936903107
20
169.19283496395536
30
0.0
 70
     32
  0
VERTEX
  8
MY3DLAYER
10
189.96463349369364
20
169.23004989492622
30
0.0
 70
     32
  0
VERTEX
  8
MY3DLAYER
10
190.07664387189914
20
169.28834688284735
30
0.0
 70
     32
  0
VERTEX
  8
MY3DLAYER
10
190.15658941578505
20
169.36493874945916
30
0.0
 70
     32
  0
VERTEX
  8
MY3DLAYER
10
190.2044854428148
20
169.45978755066923
30
0.0
 70
     32
  0
VERTEX
  8
MY3DLAYER
10
190.22034727045403
20
169.57285534238508
30
0.0
 70
     32
  0
VERTEX
  8
MY3DLAYER
10
190.20419021616638
20
169.7041041805143
30
0.0
 70
     32
  0
VERTEX
  8
MY3DLAYER
10
190.15602959741645
20
169.85349612096448
30
0.0
 70
     32
  0
VERTEX
  8
MY3DLAYER
10
190.0758807316686
20
170.02099321964351
30
0.0
 70
     32
  0
VERTEX
  8
MY3DLAYER
10
189.96375893638756
20
170.20655753245845
30
0.0
 70
     32
  0
VERTEX
  8
MY3DLAYER
10
189.81967952903761
20
170.4101511153172
30
0.0
 70
     32
  0
VERTEX
  8
MY3DLAYER
10
189.6436578270834
20
170.6317360241272
30
0.0
 70
     32
  0
VERTEX
  8
MY3DLAYER
10
189.43570914798866
20
170.87127431479632
30
0.0
 70
     32
  0
VERTEX
  8
MY3DLAYER
10
189.19584880921886
20
171.12872804323183
30
0.0
 70
     32
  0
VERTEX
  8
MY3DLAYER
10
188.74144117267826
20
171.62909246095577
30
0.0
 70
     32
  0
VERTEX
  8
MY3DLAYER
10
188.34345330134903
20
172.13787000132174
30
0.0
 70
     32
  0
VERTEX
  8
MY3DLAYER
10
187.99486591241975
20
172.6816889851875
30
0.0
 70
     32
  0
VERTEX
  8
MY3DLAYER
10
187.68865972307793
20
173.28717773341043
30
0.0
 70
     32
  0
VERTEX
  8
MY3DLAYER
10
187.41781545051242
20
173.9809645668477
30
0.0
 70
     32
  0
VERTEX
  8
MY3DLAYER
10
187.1753138119111
20
174.7896778063569
30
0.0
 70
     32
  0
VERTEX
  8
MY3DLAYER
10
186.95413552446215
20
175.73994577279566
30
0.0
 70
     32
  0
VERTEX
  8
MY3DLAYER
10
186.7472613053538
20
176.85839678702092
30
0.0
 70
     32
  0
VERTEX
  8
MY3DLAYER
10
186.54767187177433
20
178.1716591698906
30
0.0
 70
     32
  0
VERTEX
  8
MY3DLAYER
10
186.34834794091174
20
179.70636124226178
30
0.0
 70
     32
  0
VERTEX
  8
MY3DLAYER
10
186.14227022995456
20
181.48913132499197
30
0.0
 70
     32
  0
VERTEX
  8
MY3DLAYER
10
185.9224194560908
20
183.54659773893874
30
0.0
 70
     32
  0
VERTEX
  8
MY3DLAYER
10
185.73598984071245
20
185.28685548321116
30
0.0
 70
     32
  0
VERTEX
  8
MY3DLAYER
10
185.55771081129674
20
186.83166544608673
30
0.0
 70
     32
  0
VERTEX
  8
MY3DLAYER
10
185.3843024389706
20
188.19643773124298
30
0.0
 70
     32
  0
VERTEX
  8
MY3DLAYER
10
185.21248479486044
20
189.39658244235795
30
0.0
 70
     32
  0
VERTEX
  8
MY3DLAYER
10
185.03897795009343
20
190.44750968310908
30
0.0
 70
     32
  0
VERTEX
  8
MY3DLAYER
10
184.86050197579598
20
191.36462955717465
30
0.0
 70
     32
  0
VERTEX
  8
MY3DLAYER
10
184.67377694309513
20
192.16335216823163
30
0.0
 70
     32
  0
VERTEX
  8
MY3DLAYER
10
184.47552292311795
20
192.85908761995842
30
0.0
 70
     32
  0
VERTEX
  8
MY3DLAYER
10
184.2624599869908
20
193.4672460160325
30
0.0
 70
     32
  0
VERTEX
  8
MY3DLAYER
10
184.03130820584053
20
194.00323746013186
30
0.0
 70
     32
  0
VERTEX
  8
MY3DLAYER
10
183.7787876507941
20
194.4824720559341
30
0.0
 70
     32
  0
VERTEX
  8
MY3DLAYER
10
183.50161839297806
20
194.92035990711696
30
0.0
 70
     32
  0
VERTEX
  8
MY3DLAYER
10
183.34185603946779
20
195.14374329622925
30
0.0
 70
     32
  0
VERTEX
  8
MY3DLAYER
10
183.18242758408417
20
195.3468539823095
30
0.0
 70
     32
  0
VERTEX
  8
MY3DLAYER
10
183.01901685630074
20
195.53274968859716
30
0.0
 70
     32
  0
VERTEX
  8
MY3DLAYER
10
182.84730768559174
20
195.70448813833227
30
0.0
 70
     32
  0
VERTEX
  8
MY3DLAYER
10
182.66298390143083
20
195.86512705475488
30
0.0
 70
     32
  0
VERTEX
  8
MY3DLAYER
10
182.46172933329188
20
196.01772416110447
30
0.0
 70
     32
  0
VERTEX
  8
MY3DLAYER
10
182.23922781064897
20
196.16533718062118
30
0.0
 70
     32
  0
VERTEX
  8
MY3DLAYER
10
181.99116316297602
20
196.3110238365447
30
0.0
 70
     32
  0
VERTEX
  8
MY3DLAYER
10
181.71321921974678
20
196.45784185211488
30
0.0
 70
     32
  0
VERTEX
  8
MY3DLAYER
10
181.401079810435
20
196.60884895057177
30
0.0
 70
     32
  0
VERTEX
  8
MY3DLAYER
10
181.05042876451495
20
196.767102855155
30
0.0
 70
     32
  0
VERTEX
  8
MY3DLAYER
10
180.65694991146037
20
196.9356612891046
30
0.0
 70
     32
  0
VERTEX
  8
MY3DLAYER
10
180.29917226160947
20
197.0908876545863
30
0.0
 70
     32
  0
VERTEX
  8
MY3DLAYER
10
179.98852622386815
20
197.23682939090102
30
0.0
 70
     32
  0
VERTEX
  8
MY3DLAYER
10
179.7241678405493
20
197.37437851260324
30
0.0
 70
     32
  0
VERTEX
  8
MY3DLAYER
10
179.50525315396604
20
197.50442703424793
30
0.0
 70
     32
  0
VERTEX
  8
MY3DLAYER
10
179.33093820643114
20
197.6278669703892
30
0.0
 70
     32
  0
VERTEX
  8
MY3DLAYER
10
179.20037904025753
20
197.74559033558165
30
0.0
 70
     32
  0
VERTEX
  8
MY3DLAYER
10
179.11273169775814
20
197.85848914438006
30
0.0
 70
     32
  0
VERTEX
  8
MY3DLAYER
10
179.06715222124583
20
197.96745541133896
30
0.0
 70
     32
  0
VERTEX
  8
MY3DLAYER
10
179.0627966530335
20
198.0733811510127
30
0.0
 70
     32
  0
VERTEX
  8
MY3DLAYER
10
179.09882103543424
20
198.17715837795575
30
0.0
 70
     32
  0
VERTEX
  8
MY3DLAYER
10
179.17438141076084
20
198.279679106723
30
0.0
 70
     32
  0
VERTEX
  8
MY3DLAYER
10
179.2886338213263
20
198.38183535186877
30
0.0
 70
     32
  0
VERTEX
  8
MY3DLAYER
10
179.4532152405306
20
198.47164762270305
30
0.0
 70
     32
  0
VERTEX
  8
MY3DLAYER
10
179.6741092662531
20
198.53671997805696
30
0.0
 70
     32
  0
VERTEX
  8
MY3DLAYER
10
179.94274084433505
20
198.5778887274778
30
0.0
 70
     32
  0
VERTEX
  8
MY3DLAYER
10
180.2505349206175
20
198.59599018051372
30
0.0
 70
     32
  0
VERTEX
  8
MY3DLAYER
10
180.58891644094132
20
198.59186064671226
30
0.0
 70
     32
  0
VERTEX
  8
MY3DLAYER
10
180.9493103511477
20
198.56633643562174
30
0.0
 70
     32
  0
VERTEX
  8
MY3DLAYER
10
181.32314159707786
20
198.5202538567896
30
0.0
 70
     32
  0
VERTEX
  8
MY3DLAYER
10
181.70183512457282
20
198.45444921976406
30
0.0
 70
     32
  0
VERTEX
  8
MY3DLAYER
10
182.07681587947368
20
198.36975883409283
30
0.0
 70
     32
  0
VERTEX
  8
MY3DLAYER
10
182.4395088076216
20
198.2670190093234
30
0.0
 70
     32
  0
VERTEX
  8
MY3DLAYER
10
182.7813388548573
20
198.14706605500396
30
0.0
 70
     32
  0
VERTEX
  8
MY3DLAYER
10
183.09373096702237
20
198.01073628068255
30
0.0
 70
     32
  0
VERTEX
  8
MY3DLAYER
10
183.54860438559956
20
197.76212272542142
30
0.0
 70
     32
  0
VERTEX
  8
MY3DLAYER
10
184.00459510339414
20
197.46248930903556
30
0.0
 70
     32
  0
VERTEX
  8
MY3DLAYER
10
184.4579306951504
20
197.11616658027086
30
0.0
 70
     32
  0
VERTEX
  8
MY3DLAYER
10
184.90483873561317
20
196.7274850878724
30
0.0
 70
     32
  0
VERTEX
  8
MY3DLAYER
10
185.3415467995272
20
196.30077538058572
30
0.0
 70
     32
  0
VERTEX
  8
MY3DLAYER
10
185.76428246163695
20
195.84036800715606
30
0.0
 70
     32
  0
VERTEX
  8
MY3DLAYER
10
186.1692732966873
20
195.35059351632884
30
0.0
 70
     32
  0
VERTEX
  8
MY3DLAYER
10
186.55274687942276
20
194.83578245684944
30
0.0
 70
     32
  0
VERTEX
  8
MY3DLAYER
10
186.91093078458817
20
194.30026537746346
30
0.0
 70
     32
  0
VERTEX
  8
MY3DLAYER
10
187.24005258692807
20
193.7483728269159
30
0.0
 70
     32
  0
VERTEX
  8
MY3DLAYER
10
187.53633986118712
20
193.1844353539524
30
0.0
 70
     32
  0
VERTEX
  8
MY3DLAYER
10
187.79602018210997
20
192.6127835073183
30
0.0
 70
     32
  0
VERTEX
  8
MY3DLAYER
10
187.85091104097543
20
192.4711094456414
30
0.0
 70
     32
  0
VERTEX
  8
MY3DLAYER
10
187.90601978353433
20
192.30884353531098
30
0.0
 70
     32
  0
VERTEX
  8
MY3DLAYER
10
187.9607757512571
20
192.12857986555275
30
0.0
 70
     32
  0
VERTEX
  8
MY3DLAYER
10
188.01460828561534
20
191.9329125255931
30
0.0
 70
     32
  0
VERTEX
  8
MY3DLAYER
10
188.0669467280798
20
191.7244356046583
30
0.0
 70
     32
  0
VERTEX
  8
MY3DLAYER
10
188.11722042012158
20
191.5057431919741
30
0.0
 70
     32
  0
VERTEX
  8
MY3DLAYER
10
188.16485870321176
20
191.2794293767674
30
0.0
 70
     32
  0
VERTEX
  8
MY3DLAYER
10
188.20929091882135
20
191.0480882482637
30
0.0
 70
     32
  0
VERTEX
  8
MY3DLAYER
10
188.2499464084217
20
190.81431389568937
30
0.0
 70
     32
  0
VERTEX
  8
MY3DLAYER
10
188.28625451348316
20
190.5807004082709
30
0.0
 70
     32
  0
VERTEX
  8
MY3DLAYER
10
188.31764457547743
20
190.34984187523395
30
0.0
 70
     32
  0
VERTEX
  8
MY3DLAYER
10
188.343545935875
20
190.1243323858051
30
0.0
 70
     32
  0
VERTEX
  8
MY3DLAYER
10
188.37623847904052
20
189.8297950324024
30
0.0
 70
     32
  0
VERTEX
  8
MY3DLAYER
10
188.41140912524696
20
189.55797592928175
30
0.0
 70
     32
  0
VERTEX
  8
MY3DLAYER
10
188.44998397729245
20
189.305484825103
30
0.0
 70
     32
  0
VERTEX
  8
MY3DLAYER
10
188.49288913797568
20
189.0689314685276
30
0.0
 70
     32
  0
VERTEX
  8
MY3DLAYER
10
188.54105071009465
20
188.84492560821496
30
0.0
 70
     32
  0
VERTEX
  8
MY3DLAYER
10
188.595394796448
20
188.63007699282593
30
0.0
 70
     32
  0
VERTEX
  8
MY3DLAYER
10
188.6568474998343
20
188.42099537102123
30
0.0
 70
     32
  0
VERTEX
  8
MY3DLAYER
10
188.72633492305147
20
188.21429049146096
30
0.0
 70
     32
  0
VERTEX
  8
MY3DLAYER
10
188.8047831688985
20
188.00657210280568
30
0.0
 70
     32
  0
VERTEX
  8
MY3DLAYER
10
188.89311834017303
20
187.79444995371585
30
0.0
 70
     32
  0
VERTEX
  8
MY3DLAYER
10
188.99226653967403
20
187.57453379285204
30
0.0
 70
     32
  0
VERTEX
  8
MY3DLAYER
10
189.1031538701996
20
187.34343336887426
30
0.0
 70
     32
  0
VERTEX
  8
MY3DLAYER
10
189.19190646297795
20
187.15469498882635
30
0.0
 70
     32
  0
VERTEX
  8
MY3DLAYER
10
189.28142122849354
20
186.94808453165356
30
0.0
 70
     32
  0
VERTEX
  8
MY3DLAYER
10
189.37093994872578
20
186.72594338019775
30
0.0
 70
     32
  0
VERTEX
  8
MY3DLAYER
10
189.45970440565358
20
186.49061291730092
30
0.0
 70
     32
  0
VERTEX
  8
MY3DLAYER
10
189.54695638125585
20
186.24443452580434
30
0.0
 70
     32
  0
VERTEX
  8
MY3DLAYER
10
189.63193765751186
20
185.9897495885504
30
0.0
 70
     32
  0
VERTEX
  8
MY3DLAYER
10
189.71389001640048
20
185.72889948838073
30
0.0
 70
     32
  0
VERTEX
  8
MY3DLAYER
10
189.7920552399007
20
185.46422560813735
30
0.0
 70
     32
  0
VERTEX
  8
MY3DLAYER
10
189.86567510999166
20
185.19806933066172
30
0.0
 70
     32
  0
VERTEX
  8
MY3DLAYER
10
189.9339914086523
20
184.9327720387958
30
0.0
 70
     32
  0
VERTEX
  8
MY3DLAYER
10
189.99624591786198
20
184.67067511538173
30
0.0
 70
     32
  0
VERTEX
  8
MY3DLAYER
10
190.05168041959936
20
184.41411994326103
30
0.0
 70
     32
  0
VERTEX
  8
MY3DLAYER
10
190.10371036710595
20
184.16788828314563
30
0.0
 70
     32
  0
VERTEX
  8
MY3DLAYER
10
190.16256899421307
20
183.90359959228928
30
0.0
 70
     32
  0
VERTEX
  8
MY3DLAYER
10
190.22722548994057
20
183.62523000621883
30
0.0
 70
     32
  0
VERTEX
  8
MY3DLAYER
10
190.29664904330943
20
183.33675566046102
30
0.0
 70
     32
  0
VERTEX
  8
MY3DLAYER
10
190.36980884333963
20
183.04215269054342
30
0.0
 70
     32
  0
VERTEX
  8
MY3DLAYER
10
190.44567407905154
20
182.74539723199268
30
0.0
 70
     32
  0
VERTEX
  8
MY3DLAYER
10
190.52321393946534
20
182.45046542033592
30
0.0
 70
     32
  0
VERTEX
  8
MY3DLAYER
10
190.6013976136012
20
182.16133339110036
30
0.0
 70
     32
  0
VERTEX
  8
MY3DLAYER
10
190.67919429047976
20
181.88197727981276
30
0.0
 70
     32
  0
VERTEX
  8
MY3DLAYER
10
190.75557315912073
20
181.61637322200053
30
0.0
 70
     32
  0
VERTEX
  8
MY3DLAYER
10
190.829503408545
20
181.36849735319043
30
0.0
 70
     32
  0
VERTEX
  8
MY3DLAYER
10
190.89995422777278
20
181.14232580890965
30
0.0
 70
     32
  0
VERTEX
  8
MY3DLAYER
10
190.96824227375052
20
180.92399187009033
30
0.0
 70
     32
  0
VERTEX
  8
MY3DLAYER
10
191.0358829185134
20
180.69893654454165
30
0.0
 70
     32
  0
VERTEX
  8
MY3DLAYER
10
191.10213122058852
20
180.47009755810555
30
0.0
 70
     32
  0
VERTEX
  8
MY3DLAYER
10
191.16624223850286
20
180.24041263662411
30
0.0
 70
     32
  0
VERTEX
  8
MY3DLAYER
10
191.22747103078427
20
180.0128195059395
30
0.0
 70
     32
  0
VERTEX
  8
MY3DLAYER
10
191.2850726559596
20
179.79025589189357
30
0.0
 70
     32
  0
VERTEX
  8
MY3DLAYER
10
191.33830217255655
20
179.57565952032834
30
0.0
 70
     32
  0
VERTEX
  8
MY3DLAYER
10
191.38641463910201
20
179.37196811708623
30
0.0
 70
     32
  0
VERTEX
  8
MY3DLAYER
10
191.4286651141236
20
179.18211940800893
30
0.0
 70
     32
  0
VERTEX
  8
MY3DLAYER
10
191.46430865614835
20
179.00905111893871
30
0.0
 70
     32
  0
VERTEX
  8
MY3DLAYER
10
191.49260032370384
20
178.85570097571747
30
0.0
 70
     32
  0
VERTEX
  8
MY3DLAYER
10
191.51279517531694
20
178.72500670418736
30
0.0
 70
     32
  0
VERTEX
  8
MY3DLAYER
10
191.586647430905
20
178.2574691487501
30
0.0
 70
     32
  0
VERTEX
  8
MY3DLAYER
10
191.68387011896004
20
177.79121336636456
30
0.0
 70
     32
  0
VERTEX
  8
MY3DLAYER
10
191.80752851905498
20
177.31926512267663
30
0.0
 70
     32
  0
VERTEX
  8
MY3DLAYER
10
191.96068791076303
20
176.83465018333322
30
0.0
 70
     32
  0
VERTEX
  8
MY3DLAYER
10
192.1464135736572
20
176.33039431398026
30
0.0
 70
     32
  0
VERTEX
  8
MY3DLAYER
10
192.36777078731092
20
175.7995232802644
30
0.0
 70
     32
  0
VERTEX
  8
MY3DLAYER
10
192.62782483129715
20
175.2350628478316
30
0.0
 70
     32
  0
VERTEX
  8
MY3DLAYER
10
192.92964098518914
20
174.63003878232857
30
0.0
 70
     32
  0
VERTEX
  8
MY3DLAYER
10
193.2762845285598
20
173.97747684940137
30
0.0
 70
     32
  0
VERTEX
  8
MY3DLAYER
10
193.67082074098258
20
173.27040281469655
30
0.0
 70
     32
  0
VERTEX
  8
MY3DLAYER
10
194.11631490203072
20
172.5018424438602
30
0.0
 70
     32
  0
VERTEX
  8
MY3DLAYER
10
194.61583229127734
20
171.66482150253893
30
0.0
 70
     32
  0
VERTEX
  8
MY3DLAYER
10
195.19948416487918
20
170.68631055863767
30
0.0
 70
     32
  0
VERTEX
  8
MY3DLAYER
10
195.70455424680156
20
169.8091949441799
30
0.0
 70
     32
  0
VERTEX
  8
MY3DLAYER
10
196.13728848210633
20
169.0161190044573
30
0.0
 70
     32
  0
VERTEX
  8
MY3DLAYER
10
196.50393281585607
20
168.28972708476203
30
0.0
 70
     32
  0
VERTEX
  8
MY3DLAYER
10
196.8107331931129
20
167.61266353038638
30
0.0
 70
     32
  0
VERTEX
  8
MY3DLAYER
10
197.06393555893897
20
166.96757268662222
30
0.0
 70
     32
  0
VERTEX
  8
MY3DLAYER
10
197.26978585839657
20
166.33709889876164
30
0.0
 70
     32
  0
VERTEX
  8
MY3DLAYER
10
197.43453003654767
20
165.70388651209666
30
0.0
 70
     32
  0
VERTEX
  8
MY3DLAYER
10
197.56441403845477
20
165.05057987191947
30
0.0
 70
     32
  0
VERTEX
  8
MY3DLAYER
10
197.66568380918022
20
164.35982332352236
30
0.0
 70
     32
  0
VERTEX
  8
MY3DLAYER
10
197.7445852937856
20
163.61426121219722
30
0.0
 70
     32
  0
VERTEX
  8
MY3DLAYER
10
197.80736443733406
20
162.79653788323603
30
0.0
 70
     32
  0
VERTEX
  8
MY3DLAYER
10
197.86625286605462
20
161.95566120867298
30
0.0
 70
     32
  0
VERTEX
  8
MY3DLAYER
10
197.92759151000274
20
161.18828568737803
30
0.0
 70
     32
  0
VERTEX
  8
MY3DLAYER
10
197.99300034817287
20
160.48463614291245
30
0.0
 70
     32
  0
VERTEX
  8
MY3DLAYER
10
198.06409935955867
20
159.8349373988373
30
0.0
 70
     32
  0
VERTEX
  8
MY3DLAYER
10
198.14250852315507
20
159.22941427871385
30
0.0
 70
     32
  0
VERTEX
  8
MY3DLAYER
10
198.229847817956
20
158.6582916061034
30
0.0
 70
     32
  0
VERTEX
  8
MY3DLAYER
10
198.3277372229561
20
158.11179420456696
30
0.0
 70
     32
  0
VERTEX
  8
MY3DLAYER
10
198.43779671714933
20
157.58014689766614
30
0.0
 70
     32
  0
VERTEX
  8
MY3DLAYER
10
198.56164627953
20
157.0535745089618
30
0.0
 70
     32
  0
VERTEX
  8
MY3DLAYER
10
198.7009058890926
20
156.5223018620152
30
0.0
 70
     32
  0
VERTEX
  8
MY3DLAYER
10
198.8571955248314
20
155.97655378038775
30
0.0
 70
     32
  0
VERTEX
  8
MY3DLAYER
10
199.0321351657407
20
155.4065550876405
30
0.0
 70
     32
  0
VERTEX
  8
MY3DLAYER
10
199.1272467154899
20
155.10118132492727
30
0.0
 70
     32
  0
VERTEX
  8
MY3DLAYER
10
199.22608884111958
20
154.7761539841737
30
0.0
 70
     32
  0
VERTEX
  8
MY3DLAYER
10
199.3273309570779
20
154.4362307376312
30
0.0
 70
     32
  0
VERTEX
  8
MY3DLAYER
10
199.4296424778109
20
154.08616925755138
30
0.0
 70
     32
  0
VERTEX
  8
MY3DLAYER
10
199.5316928177673
20
153.7307272161853
30
0.0
 70
     32
  0
VERTEX
  8
MY3DLAYER
10
199.6321513913947
20
153.37466228578467
30
0.0
 70
     32
  0
VERTEX
  8
MY3DLAYER
10
199.72968761314027
20
153.02273213860062
30
0.0
 70
     32
  0
VERTEX
  8
MY3DLAYER
10
199.82297089745165
20
152.67969444688458
30
0.0
 70
     32
  0
VERTEX
  8
MY3DLAYER
10
199.91067065877678
20
152.35030688288788
30
0.0
 70
     32
  0
VERTEX
  8
MY3DLAYER
10
199.99145631156296
20
152.03932711886196
30
0.0
 70
     32
  0
VERTEX
  8
MY3DLAYER
10
200.06399727025772
20
151.7515128270581
30
0.0
 70
     32
  0
VERTEX
  8
MY3DLAYER
10
200.12696294930876
20
151.49162167972773
30
0.0
 70
     32
  0
VERTEX
  8
MY3DLAYER
10
200.24644780878828
20
151.00888732577977
30
0.0
 70
     32
  0
VERTEX
  8
MY3DLAYER
10
200.36989745517118
20
150.55759267846537
30
0.0
 70
     32
  0
VERTEX
  8
MY3DLAYER
10
200.4990108770372
20
150.13401202055533
30
0.0
 70
     32
  0
VERTEX
  8
MY3DLAYER
10
200.63548706296737
20
149.73441963482128
30
0.0
 70
     32
  0
VERTEX
  8
MY3DLAYER
10
200.78102500154162
20
149.3550898040344
30
0.0
 70
     32
  0
VERTEX
  8
MY3DLAYER
10
200.93732368133996
20
148.99229681096617
30
0.0
 70
     32
  0
VERTEX
  8
MY3DLAYER
10
201.10608209094363
20
148.6423149383878
30
0.0
 70
     32
  0
VERTEX
  8
MY3DLAYER
10
201.2889992189325
20
148.30141846907074
30
0.0
 70
     32
  0
VERTEX
  8
MY3DLAYER
10
201.48777405388716
20
147.96588168578623
30
0.0
 70
     32
  0
VERTEX
  8
MY3DLAYER
10
201.7041055843875
20
147.63197887130568
30
0.0
 70
     32
  0
VERTEX
  8
MY3DLAYER
10
201.93969279901424
20
147.29598430840022
30
0.0
 70
     32
  0
VERTEX
  8
MY3DLAYER
10
202.19623468634782
20
146.95417227984152
30
0.0
 70
     32
  0
VERTEX
  8
MY3DLAYER
10
202.39911406976984
20
146.6874135554491
30
0.0
 70
     32
  0
VERTEX
  8
MY3DLAYER
10
202.5817447256279
20
146.4374618182842
30
0.0
 70
     32
  0
VERTEX
  8
MY3DLAYER
10
202.74527153022566
20
146.20213590801907
30
0.0
 70
     32
  0
VERTEX
  8
MY3DLAYER
10
202.8908393598653
20
145.97925466432628
30
0.0
 70
     32
  0
VERTEX
  8
MY3DLAYER
10
203.0195930908497
20
145.76663692687802
30
0.0
 70
     32
  0
VERTEX
  8
MY3DLAYER
10
203.13267759948184
20
145.56210153534678
30
0.0
 70
     32
  0
VERTEX
  8
MY3DLAYER
10
203.23123776206407
20
145.36346732940493
30
0.0
 70
     32
  0
VERTEX
  8
MY3DLAYER
10
203.31641845489946
20
145.1685531487247
30
0.0
 70
     32
  0
VERTEX
  8
MY3DLAYER
10
203.38936455429095
20
144.97517783297863
30
0.0
 70
     32
  0
VERTEX
  8
MY3DLAYER
10
203.45122093654084
20
144.78116022183886
30
0.0
 70
     32
  0
VERTEX
  8
MY3DLAYER
10
203.50313247795208
20
144.58431915497806
30
0.0
 70
     32
  0
VERTEX
  8
MY3DLAYER
10
203.5462440548275
20
144.38247347206837
30
0.0
 70
     32
  0
VERTEX
  8
MY3DLAYER
10
203.58279558681363
20
144.22431609316968
30
0.0
 70
     32
  0
VERTEX
  8
MY3DLAYER
10
203.63067132944386
20
144.0705003785945
30
0.0
 70
     32
  0
VERTEX
  8
MY3DLAYER
10
203.68855102180027
20
143.92282016656134
30
0.0
 70
     32
  0
VERTEX
  8
MY3DLAYER
10
203.75511440296546
20
143.7830692952885
30
0.0
 70
     32
  0
VERTEX
  8
MY3DLAYER
10
203.82904121202134
20
143.65304160299462
30
0.0
 70
     32
  0
VERTEX
  8
MY3DLAYER
10
203.90901118805155
20
143.5345309278977
30
0.0
 70
     32
  0
VERTEX
  8
MY3DLAYER
10
203.99370407013777
20
143.42933110821662
30
0.0
 70
     32
  0
VERTEX
  8
MY3DLAYER
10
204.0817995973626
20
143.33923598216958
30
0.0
 70
     32
  0
VERTEX
  8
MY3DLAYER
10
204.17197750880842
20
143.2660393879749
30
0.0
 70
     32
  0
VERTEX
  8
MY3DLAYER
10
204.262917543558
20
143.21153516385127
30
0.0
 70
     32
  0
VERTEX
  8
MY3DLAYER
10
204.35329944069292
20
143.17751714801685
30
0.0
 70
     32
  0
VERTEX
  8
MY3DLAYER
10
204.44180293929648
20
143.16577917869003
30
0.0
 70
     32
  0
VERTEX
  8
MY3DLAYER
10
204.53279262810105
20
143.13746572253
30
0.0
 70
     32
  0
VERTEX
  8
MY3DLAYER
10
204.64842039843637
20
143.05463716324485
30
0.0
 70
     32
  0
VERTEX
  8
MY3DLAYER
10
204.78649991353322
20
142.9204612146273
30
0.0
 70
     32
  0
VERTEX
  8
MY3DLAYER
10
204.94484483662285
20
142.73810559046944
30
0.0
 70
     32
  0
VERTEX
  8
MY3DLAYER
10
205.1212688309364
20
142.5107380045642
30
0.0
 70
     32
  0
VERTEX
  8
MY3DLAYER
10
205.31358555970442
20
142.2415261707037
30
0.0
 70
     32
  0
VERTEX
  8
MY3DLAYER
10
205.51960868615782
20
141.9336378026809
30
0.0
 70
     32
  0
VERTEX
  8
MY3DLAYER
10
205.73715187352832
20
141.59024061428798
30
0.0
 70
     32
  0
VERTEX
  8
MY3DLAYER
10
205.96402878504563
20
141.21450231931757
30
0.0
 70
     32
  0
VERTEX
  8
MY3DLAYER
10
206.1980530839416
20
140.80959063156217
30
0.0
 70
     32
  0
VERTEX
  8
MY3DLAYER
10
206.43703843344713
20
140.37867326481427
30
0.0
 70
     32
  0
VERTEX
  8
MY3DLAYER
10
206.67879849679264
20
139.92491793286632
30
0.0
 70
     32
  0
VERTEX
  8
MY3DLAYER
10
206.91306645448213
20
139.48813103709332
30
0.0
 70
     32
  0
VERTEX
  8
MY3DLAYER
10
207.14431016278203
20
139.08003209265476
30
0.0
 70
     32
  0
VERTEX
  8
MY3DLAYER
10
207.3711477943132
20
138.70239251593895
30
0.0
 70
     32
  0
VERTEX
  8
MY3DLAYER
10
207.59219752169713
20
138.35698372333448
30
0.0
 70
     32
  0
VERTEX
  8
MY3DLAYER
10
207.80607751755412
20
138.04557713122924
30
0.0
 70
     32
  0
VERTEX
  8
MY3DLAYER
10
208.01140595450545
20
137.76994415601163
30
0.0
 70
     32
  0
VERTEX
  8
MY3DLAYER
10
208.2068010051721
20
137.53185621407002
30
0.0
 70
     32
  0
VERTEX
  8
MY3DLAYER
10
208.39088084217494
20
137.33308472179272
30
0.0
 70
     32
  0
VERTEX
  8
MY3DLAYER
10
208.56226363813522
20
137.17540109556765
30
0.0
 70
     32
  0
VERTEX
  8
MY3DLAYER
10
208.7195675656732
20
137.06057675178334
30
0.0
 70
     32
  0
VERTEX
  8
MY3DLAYER
10
208.86141079740983
20
136.99038310682826
30
0.0
 70
     32
  0
VERTEX
  8
MY3DLAYER
10
208.98641150596694
20
136.96659157709004
30
0.0
 70
     32
  0
VERTEX
  8
MY3DLAYER
10
209.03059392473364
20
136.96317700071302
30
0.0
 70
     32
  0
VERTEX
  8
MY3DLAYER
10
209.07443559524003
20
136.95319652858498
30
0.0
 70
     32
  0
VERTEX
  8
MY3DLAYER
10
209.11751390659387
20
136.93704504621033
30
0.0
 70
     32
  0
VERTEX
  8
MY3DLAYER
10
209.15940624790326
20
136.91511743909373
30
0.0
 70
     32
  0
VERTEX
  8
MY3DLAYER
10
209.19969000827655
20
136.88780859273956
30
0.0
 70
     32
  0
VERTEX
  8
MY3DLAYER
10
209.237942576821
20
136.85551339265248
30
0.0
 70
     32
  0
VERTEX
  8
MY3DLAYER
10
209.2737413426454
20
136.81862672433687
30
0.0
 70
     32
  0
VERTEX
  8
MY3DLAYER
10
209.30666369485766
20
136.77754347329733
30
0.0
 70
     32
  0
VERTEX
  8
MY3DLAYER
10
209.3362870225654
20
136.73265852503826
30
0.0
 70
     32
  0
VERTEX
  8
MY3DLAYER
10
209.36218871487674
20
136.68436676506434
30
0.0
 70
     32
  0
VERTEX
  8
MY3DLAYER
10
209.3839461609
20
136.63306307888027
30
0.0
 70
     32
  0
VERTEX
  8
MY3DLAYER
10
209.40113674974342
20
136.5791423519901
30
0.0
 70
     32
  0
VERTEX
  8
MY3DLAYER
10
209.45719013518774
20
136.2948551164687
30
0.0
 70
     32
  0
VERTEX
  8
MY3DLAYER
10
209.49217480378888
20
135.94804849518437
30
0.0
 70
     32
  0
VERTEX
  8
MY3DLAYER
10
209.50705215418904
20
135.54882152760882
30
0.0
 70
     32
  0
VERTEX
  8
MY3DLAYER
10
209.50278358503172
20
135.1072732532145
30
0.0
 70
     32
  0
VERTEX
  8
MY3DLAYER
10
209.48033049496027
20
134.63350271147348
30
0.0
 70
     32
  0
VERTEX
  8
MY3DLAYER
10
209.44065428261737
20
134.13760894185793
30
0.0
 70
     32
  0
VERTEX
  8
MY3DLAYER
10
209.38471634664643
20
133.62969098384016
30
0.0
 70
     32
  0
VERTEX
  8
MY3DLAYER
10
209.31347808569066
20
133.1198478768921
30
0.0
 70
     32
  0
VERTEX
  8
MY3DLAYER
10
209.22790089839316
20
132.61817866048602
30
0.0
 70
     32
  0
VERTEX
  8
MY3DLAYER
10
209.12894618339683
20
132.13478237409396
30
0.0
 70
     32
  0
VERTEX
  8
MY3DLAYER
10
209.01757533934526
20
131.67975805718828
30
0.0
 70
     32
  0
VERTEX
  8
MY3DLAYER
10
208.89474976488145
20
131.26320474924086
30
0.0
 70
     32
  0
VERTEX
  8
MY3DLAYER
10
208.79868476711658
20
131.00733449399988
30
0.0
 70
     32
  0
VERTEX
  8
MY3DLAYER
10
208.68010573780535
20
130.75838655333476
30
0.0
 70
     32
  0
VERTEX
  8
MY3DLAYER
10
208.54080599964044
20
130.51813725171908
30
0.0
 70
     32
  0
VERTEX
  8
MY3DLAYER
10
208.38257887531444
20
130.28836291362668
30
0.0
 70
     32
  0
VERTEX
  8
MY3DLAYER
10
208.2072176875204
20
130.07083986353172
30
0.0
 70
     32
  0
VERTEX
  8
MY3DLAYER
10
208.01651575895147
20
129.86734442590807
30
0.0
 70
     32
  0
VERTEX
  8
MY3DLAYER
10
207.81226641229995
20
129.67965292522965
30
0.0
 70
     32
  0
VERTEX
  8
MY3DLAYER
10
207.59626297025898
20
129.50954168597028
30
0.0
 70
     32
  0
VERTEX
  8
MY3DLAYER
10
207.37029875552176
20
129.35878703260414
30
0.0
 70
     32
  0
VERTEX
  8
MY3DLAYER
10
207.1361670907808
20
129.2291652896049
30
0.0
 70
     32
  0
VERTEX
  8
MY3DLAYER
10
206.895661298729
20
129.1224527814465
30
0.0
 70
     32
  0
VERTEX
  8
MY3DLAYER
10
206.65057470205937
20
129.04042583260284
30
0.0
 70
     32
  0
VERTEX
  8
MY3DLAYER
10
206.36417642474646
20
128.97677747179287
30
0.0
 70
     32
  0
VERTEX
  8
MY3DLAYER
10
206.0314412073564
20
128.93215872656535
30
0.0
 70
     32
  0
VERTEX
  8
MY3DLAYER
10
205.65690482017317
20
128.90622590380832
30
0.0
 70
     32
  0
VERTEX
  8
MY3DLAYER
10
205.24510303348063
20
128.89863531041013
30
0.0
 70
     32
  0
VERTEX
  8
MY3DLAYER
10
204.80057161756233
20
128.90904325325909
30
0.0
 70
     32
  0
VERTEX
  8
MY3DLAYER
10
204.3278463427024
20
128.93710603924302
30
0.0
 70
     32
  0
VERTEX
  8
MY3DLAYER
10
203.83146297918427
20
128.9824799752502
30
0.0
 70
     32
  0
VERTEX
  8
MY3DLAYER
10
203.31595729729145
20
129.04482136816864
30
0.0
 70
     32
  0
VERTEX
  8
MY3DLAYER
10
202.7858650673086
20
129.12378652488712
30
0.0
 70
     32
  0
VERTEX
  8
MY3DLAYER
10
202.24572205951836
20
129.21903175229312
30
0.0
 70
     32
  0
VERTEX
  8
MY3DLAYER
10
201.70006404420525
20
129.33021335727543
30
0.0
 70
     32
  0
VERTEX
  8
MY3DLAYER
10
201.15342679165266
20
129.4569876467217
30
0.0
 70
     32
  0
VERTEX
  8
MY3DLAYER
10
200.40393404522626
20
129.63749632882207
30
0.0
 70
     32
  0
VERTEX
  8
MY3DLAYER
10
199.70139967314054
20
129.7975108649522
30
0.0
 70
     32
  0
VERTEX
  8
MY3DLAYER
10
199.03819840290046
20
129.93808359104867
30
0.0
 70
     32
  0
VERTEX
  8
MY3DLAYER
10
198.40670496201037
20
130.06026684304805
30
0.0
 70
     32
  0
VERTEX
  8
MY3DLAYER
10
197.79929407797457
20
130.16511295688727
30
0.0
 70
     32
  0
VERTEX
  8
MY3DLAYER
10
197.20834047829774
20
130.25367426850278
30
0.0
 70
     32
  0
VERTEX
  8
MY3DLAYER
10
196.62621889048467
20
130.32700311383132
30
0.0
 70
     32
  0
VERTEX
  8
MY3DLAYER
10
196.04530404203928
20
130.38615182880957
30
0.0
 70
     32
  0
VERTEX
  8
MY3DLAYER
10
195.45797066046651
20
130.43217274937427
30
0.0
 70
     32
  0
VERTEX
  8
MY3DLAYER
10
194.85659347327123
20
130.46611821146192
30
0.0
 70
     32
  0
VERTEX
  8
MY3DLAYER
10
194.23354720795706
20
130.48904055100905
30
0.0
 70
     32
  0
VERTEX
  8
MY3DLAYER
10
193.58120659202896
20
130.50199210395272
30
0.0
 70
     32
  0
VERTEX
  8
MY3DLAYER
10
192.97099481298804
20
130.51274621043413
30
0.0
 70
     32
  0
VERTEX
  8
MY3DLAYER
10
192.43306529415617
20
130.52941588778617
30
0.0
 70
     32
  0
VERTEX
  8
MY3DLAYER
10
191.96375448503505
20
130.55274690373477
30
0.0
 70
     32
  0
VERTEX
  8
MY3DLAYER
10
191.5593988351276
20
130.58348502600595
30
0.0
 70
     32
  0
VERTEX
  8
MY3DLAYER
10
191.21633479393594
20
130.62237602232557
30
0.0
 70
     32
  0
VERTEX
  8
MY3DLAYER
10
190.93089881096222
20
130.6701656604199
30
0.0
 70
     32
  0
VERTEX
  8
MY3DLAYER
10
190.69942733570906
20
130.72759970801462
30
0.0
 70
     32
  0
VERTEX
  8
MY3DLAYER
10
190.5182568176784
20
130.79542393283586
30
0.0
 70
     32
  0
VERTEX
  8
MY3DLAYER
10
190.38372370637282
20
130.87438410260967
30
0.0
 70
     32
  0
VERTEX
  8
MY3DLAYER
10
190.29216445129444
20
130.96522598506186
30
0.0
 70
     32
  0
VERTEX
  8
MY3DLAYER
10
190.23991550194583
20
131.06869534791846
30
0.0
 70
     32
  0
VERTEX
  8
MY3DLAYER
10
190.22331330782896
20
131.18553795890554
30
0.0
 70
     32
  0
VERTEX
  8
MY3DLAYER
10
190.21535990803287
20
131.2657065935277
30
0.0
 70
     32
  0
VERTEX
  8
MY3DLAYER
10
190.19229353794606
20
131.33529803520497
30
0.0
 70
     32
  0
VERTEX
  8
MY3DLAYER
10
190.1553049415207
20
131.39402469836568
30
0.0
 70
     32
  0
VERTEX
  8
MY3DLAYER
10
190.10558486270884
20
131.44159899743855
30
0.0
 70
     32
  0
VERTEX
  8
MY3DLAYER
10
190.04432404546301
20
131.47773334685198
30
0.0
 70
     32
  0
VERTEX
  8
MY3DLAYER
10
189.97271323373482
20
131.50214016103448
30
0.0
 70
     32
  0
VERTEX
  8
MY3DLAYER
10
189.89194317147698
20
131.5145318544146
30
0.0
 70
     32
  0
VERTEX
  8
MY3DLAYER
10
189.80320460264107
20
131.51462084142094
30
0.0
 70
     32
  0
VERTEX
  8
MY3DLAYER
10
189.70768827118002
20
131.50211953648167
30
0.0
 70
     32
  0
VERTEX
  8
MY3DLAYER
10
189.60658492104562
20
131.47674035402585
30
0.0
 70
     32
  0
VERTEX
  8
MY3DLAYER
10
189.50108529618976
20
131.43819570848157
30
0.0
 70
     32
  0
VERTEX
  8
MY3DLAYER
10
189.39238014056485
20
131.38619801427748
30
0.0
 70
     32
  0
VERTEX
  8
MY3DLAYER
10
189.04455133099492
20
131.12017641019975
30
0.0
 70
     32
  0
VERTEX
  8
MY3DLAYER
10
188.60079818209795
20
130.65792753597884
30
0.0
 70
     32
  0
VERTEX
  8
MY3DLAYER
10
188.0833555718697
20
130.03362039640672
30
0.0
 70
     32
  0
VERTEX
  8
MY3DLAYER
10
187.51445837830562
20
129.28142399627495
30
0.0
 70
     32
  0
VERTEX
  8
MY3DLAYER
10
186.91634147940164
20
128.43550734037532
30
0.0
 70
     32
  0
VERTEX
  8
MY3DLAYER
10
186.31123975315327
20
127.53003943349981
30
0.0
 70
     32
  0
VERTEX
  8
MY3DLAYER
10
185.7213880775564
20
126.59918928044014
30
0.0
 70
     32
  0
VERTEX
  8
MY3DLAYER
10
185.16902133060648
20
125.67712588598785
30
0.0
 70
     32
  0
VERTEX
  8
MY3DLAYER
10
184.67637439029946
20
124.79801825493495
30
0.0
 70
     32
  0
VERTEX
  8
MY3DLAYER
10
184.265682134631
20
123.9960353920733
30
0.0
 70
     32
  0
VERTEX
  8
MY3DLAYER
10
183.9591794415969
20
123.30534630219434
30
0.0
 70
     32
  0
VERTEX
  8
MY3DLAYER
10
183.77910118919237
20
122.76011999009005
30
0.0
 70
     32
  0
VERTEX
  8
MY3DLAYER
10
183.75722498750545
20
122.68474028881153
30
0.0
 70
     32
  0
VERTEX
  8
MY3DLAYER
10
183.72587995160646
20
122.60157274087949
30
0.0
 70
     32
  0
VERTEX
  8
MY3DLAYER
10
183.68591710823813
20
122.51197760634393
30
0.0
 70
     32
  0
VERTEX
  8
MY3DLAYER
10
183.63818748414386
20
122.41731514525496
30
0.0
 70
     32
  0
VERTEX
  8
MY3DLAYER
10
183.58354210606606
20
122.31894561766293
30
0.0
 70
     32
  0
VERTEX
  8
MY3DLAYER
10
183.52283200074766
20
122.21822928361784
30
0.0
 70
     32
  0
VERTEX
  8
MY3DLAYER
10
183.45690819493143
20
122.11652640316971
30
0.0
 70
     32
  0
VERTEX
  8
MY3DLAYER
10
183.38662171536038
20
122.01519723636912
30
0.0
 70
     32
  0
VERTEX
  8
MY3DLAYER
10
183.31282358877698
20
121.91560204326579
30
0.0
 70
     32
  0
VERTEX
  8
MY3DLAYER
10
183.23636484192465
20
121.81910108390997
30
0.0
 70
     32
  0
VERTEX
  8
MY3DLAYER
10
183.15809650154554
20
121.72705461835184
30
0.0
 70
     32
  0
VERTEX
  8
MY3DLAYER
10
183.07886959438287
20
121.64082290664159
30
0.0
 70
     32
  0
VERTEX
  8
MY3DLAYER
10
182.87995473421645
20
121.41868323702734
30
0.0
 70
     32
  0
VERTEX
  8
MY3DLAYER
10
182.64793351570563
20
121.13284073979949
30
0.0
 70
     32
  0
VERTEX
  8
MY3DLAYER
10
182.38286453927483
20
120.78338340739998
30
0.0
 70
     32
  0
VERTEX
  8
MY3DLAYER
10
182.0848064053479
20
120.37039923227081
30
0.0
 70
     32
  0
VERTEX
  8
MY3DLAYER
10
181.7538177143492
20
119.89397620685442
30
0.0
 70
     32
  0
VERTEX
  8
MY3DLAYER
10
181.38995706670298
20
119.3542023235926
30
0.0
 70
     32
  0
VERTEX
  8
MY3DLAYER
10
180.99328306283294
20
118.75116557492763
30
0.0
 70
     32
  0
VERTEX
  8
MY3DLAYER
10
180.5638543031636
20
118.08495395330185
30
0.0
 70
     32
  0
VERTEX
  8
MY3DLAYER
10
180.10172938811914
20
117.3556554511569
30
0.0
 70
     32
  0
VERTEX
  8
MY3DLAYER
10
179.60696691812353
20
116.56335806093533
30
0.0
 70
     32
  0
VERTEX
  8
MY3DLAYER
10
179.07962549360064
20
115.7081497750791
30
0.0
 70
     32
  0
VERTEX
  8
MY3DLAYER
10
178.5197637149751
20
114.79011858603026
30
0.0
 70
     32
  0
VERTEX
  8
MY3DLAYER
10
177.61150538603115
20
113.333809245173
30
0.0
 70
     32
  0
VERTEX
  8
MY3DLAYER
10
176.6587297032579
20
111.88563453723442
30
0.0
 70
     32
  0
VERTEX
  8
MY3DLAYER
10
175.65959669243176
20
110.44334203224591
30
0.0
 70
     32
  0
VERTEX
  8
MY3DLAYER
10
174.61226637932927
20
109.00467930023915
30
0.0
 70
     32
  0
VERTEX
  8
MY3DLAYER
10
173.51489878972663
20
107.56739391124526
30
0.0
 70
     32
  0
VERTEX
  8
MY3DLAYER
10
172.36565394940038
20
106.12923343529589
30
0.0
 70
     32
  0
VERTEX
  8
MY3DLAYER
10
171.16269188412684
20
104.68794544242246
30
0.0
 70
     32
  0
VERTEX
  8
MY3DLAYER
10
169.90417261968253
20
103.2412775026563
30
0.0
 70
     32
  0
VERTEX
  8
MY3DLAYER
10
168.58825618184386
20
101.78697718602902
30
0.0
 70
     32
  0
VERTEX
  8
MY3DLAYER
10
167.21310259638724
20
100.32279206257198
30
0.0
 70
     32
  0
VERTEX
  8
MY3DLAYER
10
165.77687188908894
20
98.8464697023166
30
0.0
 70
     32
  0
VERTEX
  8
MY3DLAYER
10
164.2777240857256
20
97.35575767529438
30
0.0
 70
     32
  0
VERTEX
  8
MY3DLAYER
10
163.60023369032356
20
96.6960076696657
30
0.0
 70
     32
  0
VERTEX
  8
MY3DLAYER
10
162.97324150775353
20
96.09343461621856
30
0.0
 70
     32
  0
VERTEX
  8
MY3DLAYER
10
162.38259393251406
20
95.53581358231588
30
0.0
 70
     32
  0
VERTEX
  8
MY3DLAYER
10
161.81413735910314
20
95.01091963532112
30
0.0
 70
     32
  0
VERTEX
  8
MY3DLAYER
10
161.25371818201893
20
94.50652784259748
30
0.0
 70
     32
  0
VERTEX
  8
MY3DLAYER
10
160.68718279575955
20
94.0104132715083
30
0.0
 70
     32
  0
VERTEX
  8
MY3DLAYER
10
160.10037759482333
20
93.5103509894171
30
0.0
 70
     32
  0
VERTEX
  8
MY3DLAYER
10
159.47914897370853
20
92.99411606368699
30
0.0
 70
     32
  0
VERTEX
  8
MY3DLAYER
10
158.80934332691345
20
92.44948356168115
30
0.0
 70
     32
  0
VERTEX
  8
MY3DLAYER
10
158.076807048936
20
91.86422855076306
30
0.0
 70
     32
  0
VERTEX
  8
MY3DLAYER
10
157.2673865342748
20
91.22612609829595
30
0.0
 70
     32
  0
VERTEX
  8
MY3DLAYER
10
156.3669281774277
20
90.52295127164324
30
0.0
 70
     32
  0
VERTEX
  8
MY3DLAYER
10
155.90818850088402
20
90.15980014603994
30
0.0
 70
     32
  0
VERTEX
  8
MY3DLAYER
10
155.46992537888437
20
89.8000003672527
30
0.0
 70
     32
  0
VERTEX
  8
MY3DLAYER
10
155.05063677479188
20
89.44205592958723
30
0.0
 70
     32
  0
VERTEX
  8
MY3DLAYER
10
154.64882065196986
20
89.08447082735
30
0.0
 70
     32
  0
VERTEX
  8
MY3DLAYER
10
154.2629749737817
20
88.72574905484666
30
0.0
 70
     32
  0
VERTEX
  8
MY3DLAYER
10
153.89159770359066
20
88.36439460638333
30
0.0
 70
     32
  0
VERTEX
  8
MY3DLAYER
10
153.53318680476016
20
87.99891147626592
30
0.0
 70
     32
  0
VERTEX
  8
MY3DLAYER
10
153.1862402406536
20
87.62780365880047
30
0.0
 70
     32
  0
VERTEX
  8
MY3DLAYER
10
152.84925597463408
20
87.2495751482929
30
0.0
 70
     32
  0
VERTEX
  8
MY3DLAYER
10
152.52073197006524
20
86.86272993904936
30
0.0
 70
     32
  0
VERTEX
  8
MY3DLAYER
10
152.1991661903102
20
86.46577202537568
30
0.0
 70
     32
  0
VERTEX
  8
MY3DLAYER
10
151.88305659873214
20
86.05720540157797
30
0.0
 70
     32
  0
VERTEX
  8
MY3DLAYER
10
151.36585064768437
20
85.41373125298097
30
0.0
 70
     32
  0
VERTEX
  8
MY3DLAYER
10
150.7943830414051
20
84.77662750296196
30
0.0
 70
     32
  0
VERTEX
  8
MY3DLAYER
10
150.1743180285316
20
84.1501194271257
30
0.0
 70
     32
  0
VERTEX
  8
MY3DLAYER
10
149.51131985770067
20
83.53843230107658
30
0.0
 70
     32
  0
VERTEX
  8
MY3DLAYER
10
148.81105277754943
20
82.94579140041904
30
0.0
 70
     32
  0
VERTEX
  8
MY3DLAYER
10
148.07918103671497
20
82.37642200075797
30
0.0
 70
     32
  0
VERTEX
  8
MY3DLAYER
10
147.32136888383425
20
81.83454937769764
30
0.0
 70
     32
  0
VERTEX
  8
MY3DLAYER
10
146.54328056754434
20
81.32439880684267
30
0.0
 70
     32
  0
VERTEX
  8
MY3DLAYER
10
145.75058033648244
20
80.85019556379767
30
0.0
 70
     32
  0
VERTEX
  8
MY3DLAYER
10
144.94893243928507
20
80.41616492416709
30
0.0
 70
     32
  0
VERTEX
  8
MY3DLAYER
10
144.14400112458964
20
80.02653216355563
30
0.0
 70
     32
  0
VERTEX
  8
MY3DLAYER
10
143.34145064103336
20
79.68552255756758
30
0.0
 70
     32
  0
VERTEX
  8
MY3DLAYER
10
142.55275579039133
20
79.37775698937705
30
0.0
 70
     32
  0
VERTEX
  8
MY3DLAYER
10
141.90214367982367
20
79.11436090392856
30
0.0
 70
     32
  0
VERTEX
  8
MY3DLAYER
10
141.37563992310555
20
78.8648743049821
30
0.0
 70
     32
  0
VERTEX
  8
MY3DLAYER
10
140.95927013401283
20
78.59883719629696
30
0.0
 70
     32
  0
VERTEX
  8
MY3DLAYER
10
140.63905992632093
20
78.28578958163317
30
0.0
 70
     32
  0
VERTEX
  8
MY3DLAYER
10
140.4010349138057
20
77.89527146475015
30
0.0
 70
     32
  0
VERTEX
  8
MY3DLAYER
10
140.23122071024252
20
77.39682284940774
30
0.0
 70
     32
  0
VERTEX
  8
MY3DLAYER
10
140.11564292940693
20
76.75998373936552
30
0.0
 70
     32
  0
VERTEX
  8
MY3DLAYER
10
140.04032718507494
20
75.95429413838332
30
0.0
 70
     32
  0
VERTEX
  8
MY3DLAYER
10
139.99129909102166
20
74.94929405022069
30
0.0
 70
     32
  0
VERTEX
  8
MY3DLAYER
10
139.95458426102303
20
73.71452347863735
30
0.0
 70
     32
  0
VERTEX
  8
MY3DLAYER
10
139.9162083088545
20
72.21952242739297
30
0.0
 70
     32
  0
VERTEX
  8
MY3DLAYER
10
139.89733751986546
20
71.375489845514
30
0.0
 70
     32
  0
VERTEX
  8
MY3DLAYER
10
139.87834767978592
20
70.25835940057985
30
0.0
 70
     32
  0
VERTEX
  8
MY3DLAYER
10
139.8594634588847
20
68.89512697609872
30
0.0
 70
     32
  0
VERTEX
  8
MY3DLAYER
10
139.84090952743125
20
67.31278845557875
30
0.0
 70
     32
  0
VERTEX
  8
MY3DLAYER
10
139.82291055569476
20
65.53833972252784
30
0.0
 70
     32
  0
VERTEX
  8
MY3DLAYER
10
139.80569121394424
20
63.59877666045435
30
0.0
 70
     32
  0
VERTEX
  8
MY3DLAYER
10
139.78947617244881
20
61.521095152866366
30
0.0
 70
     32
  0
VERTEX
  8
MY3DLAYER
10
139.77449010147782
20
59.33229108327194
30
0.0
 70
     32
  0
VERTEX
  8
MY3DLAYER
10
139.76095767130022
20
57.0593603351793
30
0.0
 70
     32
  0
VERTEX
  8
MY3DLAYER
10
139.7491035521854
20
54.7292987920965
30
0.0
 70
     32
  0
VERTEX
  8
MY3DLAYER
10
139.73915241440235
20
52.36910233753165
30
0.0
 70
     32
  0
VERTEX
  8
MY3DLAYER
10
139.7313289282203
20
50.00576685499293
30
0.0
 70
     32
  0
VERTEX
  8
MY3DLAYER
10
139.72137867083245
20
46.30223094498227
30
0.0
 70
     32
  0
VERTEX
  8
MY3DLAYER
10
139.71472889271962
20
43.167167742684384
30
0.0
 70
     32
  0
VERTEX
  8
MY3DLAYER
10
139.71209318010227
20
40.550384049839195
30
0.0
 70
     32
  0
VERTEX
  8
MY3DLAYER
10
139.71418511920083
20
38.401686668186585
30
0.0
 70
     32
  0
VERTEX
  8
MY3DLAYER
10
139.72171829623596
20
36.670882399466564
30
0.0
 70
     32
  0
VERTEX
  8
MY3DLAYER
10
139.73540629742763
20
35.30777804541909
30
0.0
 70
     32
  0
VERTEX
  8
MY3DLAYER
10
139.75596270899695
20
34.26218040778407
30
0.0
 70
     32
  0
VERTEX
  8
MY3DLAYER
10
139.78410111716394
20
33.483896288301445
30
0.0
 70
     32
  0
VERTEX
  8
MY3DLAYER
10
139.82053510814896
20
32.92273248871117
30
0.0
 70
     32
  0
VERTEX
  8
MY3DLAYER
10
139.8659782681731
20
32.52849581075319
30
0.0
 70
     32
  0
VERTEX
  8
MY3DLAYER
10
139.92114418345614
20
32.25099305616747
30
0.0
 70
     32
  0
VERTEX
  8
MY3DLAYER
10
139.986746440219
20
32.04003102669392
30
0.0
 70
     32
  0
VERTEX
  8
MY3DLAYER
10
140.05976986491063
20
31.81598460111229
30
0.0
 70
     32
  0
VERTEX
  8
MY3DLAYER
10
140.12658110087045
20
31.551159999090157
30
0.0
 70
     32
  0
VERTEX
  8
MY3DLAYER
10
140.1887625360997
20
31.227299488023924
30
0.0
 70
     32
  0
VERTEX
  8
MY3DLAYER
10
140.24789655860005
20
30.826145335310052
30
0.0
 70
     32
  0
VERTEX
  8
MY3DLAYER
10
140.30556555637278
20
30.329439808344954
30
0.0
 70
     32
  0
VERTEX
  8
MY3DLAYER
10
140.3633519174198
20
29.718925174525122
30
0.0
 70
     32
  0
VERTEX
  8
MY3DLAYER
10
140.42283802974234
20
28.976343701247004
30
0.0
 70
     32
  0
VERTEX
  8
MY3DLAYER
10
140.4856062813424
20
28.083437655906984
30
0.0
 70
     32
  0
VERTEX
  8
MY3DLAYER
10
140.55323906022102
20
27.021949305901536
30
0.0
 70
     32
  0
VERTEX
  8
MY3DLAYER
10
140.62731875438018
20
25.77362091862713
30
0.0
 70
     32
  0
VERTEX
  8
MY3DLAYER
10
140.70942775182098
20
24.320194761480167
30
0.0
 70
     32
  0
VERTEX
  8
MY3DLAYER
10
140.80114844054555
20
22.643413101857146
30
0.0
 70
     32
  0
VERTEX
  8
MY3DLAYER
10
140.87553221356245
20
21.41202607625028
30
0.0
 70
     32
  0
VERTEX
  8
MY3DLAYER
10
140.96016316549444
20
20.318986050523677
30
0.0
 70
     32
  0
VERTEX
  8
MY3DLAYER
10
141.0590566612437
20
19.34984376174521
30
0.0
 70
     32
  0
VERTEX
  8
MY3DLAYER
10
141.17622806571285
20
18.490149946982722
30
0.0
 70
     32
  0
VERTEX
  8
MY3DLAYER
10
141.31569274380396
20
17.72545534330412
30
0.0
 70
     32
  0
VERTEX
  8
MY3DLAYER
10
141.48146606041925
20
17.041310687777255
30
0.0
 70
     32
  0
VERTEX
  8
MY3DLAYER
10
141.67756338046144
20
16.423266717470035
30
0.0
 70
     32
  0
VERTEX
  8
MY3DLAYER
10
141.9080000688324
20
15.856874169450315
30
0.0
 70
     32
  0
VERTEX
  8
MY3DLAYER
10
142.176791490435
20
15.32768378078597
30
0.0
 70
     32
  0
VERTEX
  8
MY3DLAYER
10
142.48795301017088
20
14.82124628854488
30
0.0
 70
     32
  0
VERTEX
  8
MY3DLAYER
10
142.84549999294305
20
14.323112429794902
30
0.0
 70
     32
  0
VERTEX
  8
MY3DLAYER
10
143.25344780365342
20
13.818832941603928
30
0.0
 70
     32
  0
VERTEX
  8
MY3DLAYER
10
143.7567372403386
20
13.215585275902688
30
0.0
 70
     32
  0
VERTEX
  8
MY3DLAYER
10
144.2048931974782
20
12.656470473781017
30
0.0
 70
     32
  0
VERTEX
  8
MY3DLAYER
10
144.60010798628753
20
12.137537865261342
30
0.0
 70
     32
  0
VERTEX
  8
MY3DLAYER
10
144.94457391798247
20
11.654836780366054
30
0.0
 70
     32
  0
VERTEX
  8
MY3DLAYER
10
145.2404833037789
20
11.204416549117601
30
0.0
 70
     32
  0
VERTEX
  8
MY3DLAYER
10
145.4900284548926
20
10.782326501538398
30
0.0
 70
     32
  0
VERTEX
  8
MY3DLAYER
10
145.6954016825395
20
10.384615967650852
30
0.0
 70
     32
  0
VERTEX
  8
MY3DLAYER
10
145.8587952979349
20
10.00733427747739
30
0.0
 70
     32
  0
VERTEX
  8
MY3DLAYER
10
145.98240161229492
20
9.646530761040424
30
0.0
 70
     32
  0
VERTEX
  8
MY3DLAYER
10
146.06841293683533
20
9.29825474836238
30
0.0
 70
     32
  0
VERTEX
  8
MY3DLAYER
10
146.11902158277158
20
8.958555569465672
30
0.0
 70
     32
  0
VERTEX
  8
MY3DLAYER
10
146.13641986131987
20
8.623482554372721
30
0.0
 70
     32
  0
VERTEX
  8
MY3DLAYER
10
146.13320344566458
20
8.38134693537639
30
0.0
 70
     32
  0
VERTEX
  8
MY3DLAYER
10
146.12053730555218
20
8.163342862285177
30
0.0
 70
     32
  0
VERTEX
  8
MY3DLAYER
10
146.09736636499304
20
7.9673793988036055
30
0.0
 70
     32
  0
VERTEX
  8
MY3DLAYER
10
146.06263554799645
20
7.791365608636188
30
0.0
 70
     32
  0
VERTEX
  8
MY3DLAYER
10
146.01528977857234
20
7.633210555487449
30
0.0
 70
     32
  0
VERTEX
  8
MY3DLAYER
10
145.95427398073062
20
7.490823303061892
30
0.0
 70
     32
  0
VERTEX
  8
MY3DLAYER
10
145.87853307848073
20
7.362112915064054
30
0.0
 70
     32
  0
VERTEX
  8
MY3DLAYER
10
145.78701199583247
20
7.244988455198454
30
0.0
 70
     32
  0
VERTEX
  8
MY3DLAYER
10
145.67865565679605
20
7.137358987169602
30
0.0
 70
     32
  0
VERTEX
  8
MY3DLAYER
10
145.5524089853807
20
7.037133574682017
30
0.0
 70
     32
  0
VERTEX
  8
MY3DLAYER
10
145.4072169055965
20
6.94222128144022
30
0.0
 70
     32
  0
VERTEX
  8
MY3DLAYER
10
145.24202434145303
20
6.850531171148721
30
0.0
 70
     32
  0
VERTEX
  8
MY3DLAYER
10
145.04800824511108
20
6.7686920430909225
30
0.0
 70
     32
  0
VERTEX
  8
MY3DLAYER
10
144.82532366028911
20
6.70720519261096
30
0.0
 70
     32
  0
VERTEX
  8
MY3DLAYER
10
144.57845824390787
20
6.665686652046667
30
0.0
 70
     32
  0
VERTEX
  8
MY3DLAYER
10
144.31189965288726
20
6.643752453735854
30
0.0
 70
     32
  0
VERTEX
  8
MY3DLAYER
10
144.03013554414792
20
6.641018630016336
30
0.0
 70
     32
  0
VERTEX
  8
MY3DLAYER
10
143.73765357461008
20
6.657101213225941
30
0.0
 70
     32
  0
VERTEX
  8
MY3DLAYER
10
143.43894140119406
20
6.691616235702485
30
0.0
 70
     32
  0
VERTEX
  8
MY3DLAYER
10
143.13848668082025
20
6.744179729783785
30
0.0
 70
     32
  0
VERTEX
  8
MY3DLAYER
10
142.84077707040908
20
6.814407727807664
30
0.0
 70
     32
  0
VERTEX
  8
MY3DLAYER
10
142.5503002268805
20
6.901916262111926
30
0.0
 70
     32
  0
VERTEX
  8
MY3DLAYER
10
142.2715438071554
20
7.0063213650344105
30
0.0
 70
     32
  0
VERTEX
  8
MY3DLAYER
10
142.0089954681536
20
7.127239068912924
30
0.0
 70
     32
  0
VERTEX
  8
MY3DLAYER
10
141.7306471892952
20
7.283600611048953
30
0.0
 70
     32
  0
VERTEX
  8
MY3DLAYER
10
141.45184726768846
20
7.467816400847442
30
0.0
 70
     32
  0
VERTEX
  8
MY3DLAYER
10
141.17537043129778
20
7.676827881753272
30
0.0
 70
     32
  0
VERTEX
  8
MY3DLAYER
10
140.90399140808753
20
7.907576497211319
30
0.0
 70
     32
  0
VERTEX
  8
MY3DLAYER
10
140.6404849260217
20
8.157003690666476
30
0.0
 70
     32
  0
VERTEX
  8
MY3DLAYER
10
140.38762571306503
20
8.422050905563594
30
0.0
 70
     32
  0
VERTEX
  8
MY3DLAYER
10
140.14818849718156
20
8.699659585347584
30
0.0
 70
     32
  0
VERTEX
  8
MY3DLAYER
10
139.92494800633565
20
8.986771173463318
30
0.0
 70
     32
  0
VERTEX
  8
MY3DLAYER
10
139.72067896849174
20
9.28032711335568
30
0.0
 70
     32
  0
VERTEX
  8
MY3DLAYER
10
139.53815611161392
20
9.577268848469544
30
0.0
 70
     32
  0
VERTEX
  8
MY3DLAYER
10
139.3801541636666
20
9.874537822249797
30
0.0
 70
     32
  0
VERTEX
  8
MY3DLAYER
10
139.24944785261422
20
10.169075478141318
30
0.0
 70
     32
  0
VERTEX
  8
MY3DLAYER
10
139.06956950995203
20
10.605500020661228
30
0.0
 70
     32
  0
VERTEX
  8
MY3DLAYER
10
138.8659238154644
20
11.070726622210756
30
0.0
 70
     32
  0
VERTEX
  8
MY3DLAYER
10
138.6414710580634
20
11.559086055447281
30
0.0
 70
     32
  0
VERTEX
  8
MY3DLAYER
10
138.39917152666112
20
12.064909093028191
30
0.0
 70
     32
  0
VERTEX
  8
MY3DLAYER
10
138.14198551016986
20
12.582526507610849
30
0.0
 70
     32
  0
VERTEX
  8
MY3DLAYER
10
137.87287329750106
20
13.106269071852624
30
0.0
 70
     32
  0
VERTEX
  8
MY3DLAYER
10
137.59479517756768
20
13.630467558410896
30
0.0
 70
     32
  0
VERTEX
  8
MY3DLAYER
10
137.3107114392813
20
14.149452739943058
30
0.0
 70
     32
  0
VERTEX
  8
MY3DLAYER
10
137.02358237155389
20
14.657555389106468
30
0.0
 70
     32
  0
VERTEX
  8
MY3DLAYER
10
136.736368263298
20
15.14910627855848
30
0.0
 70
     32
  0
VERTEX
  8
MY3DLAYER
10
136.4520294034252
20
15.618436180956513
30
0.0
 70
     32
  0
VERTEX
  8
MY3DLAYER
10
136.1735260808481
20
16.059875868957928
30
0.0
 70
     32
  0
VERTEX
  8
MY3DLAYER
10
135.85205036505317
20
16.56320696669825
30
0.0
 70
     32
  0
VERTEX
  8
MY3DLAYER
10
135.58075896353034
20
17.00178612115727
30
0.0
 70
     32
  0
VERTEX
  8
MY3DLAYER
10
135.35708199556777
20
17.383934211214882
30
0.0
 70
     32
  0
VERTEX
  8
MY3DLAYER
10
135.17844958045382
20
17.717972115750925
30
0.0
 70
     32
  0
VERTEX
  8
MY3DLAYER
10
135.04229183747708
20
18.012220713645274
30
0.0
 70
     32
  0
VERTEX
  8
MY3DLAYER
10
134.94603888592582
20
18.275000883777775
30
0.0
 70
     32
  0
VERTEX
  8
MY3DLAYER
10
134.88712084508833
20
18.514633505028307
30
0.0
 70
     32
  0
VERTEX
  8
MY3DLAYER
10
134.86296783425323
20
18.739439456276724
30
0.0
 70
     32
  0
VERTEX
  8
MY3DLAYER
10
134.8710099727088
20
18.957739616402883
30
0.0
 70
     32
  0
VERTEX
  8
MY3DLAYER
10
134.90867737974332
20
19.177854864286676
30
0.0
 70
     32
  0
VERTEX
  8
MY3DLAYER
10
134.9734001746455
20
19.408106078807954
30
0.0
 70
     32
  0
VERTEX
  8
MY3DLAYER
10
135.0626084767034
20
19.656814138846524
30
0.0
 70
     32
  0
VERTEX
  8
MY3DLAYER
10
135.1237745867284
20
19.82627489315349
30
0.0
 70
     32
  0
VERTEX
  8
MY3DLAYER
10
135.17668024029172
20
19.999470107437425
30
0.0
 70
     32
  0
VERTEX
  8
MY3DLAYER
10
135.2218441973307
20
20.18266342411683
30
0.0
 70
     32
  0
VERTEX
  8
MY3DLAYER
10
135.25978521778217
20
20.382118485610274
30
0.0
 70
     32
  0
VERTEX
  8
MY3DLAYER
10
135.29102206158302
20
20.604098934336307
30
0.0
 70
     32
  0
VERTEX
  8
MY3DLAYER
10
135.31607348867
20
20.854868412713504
30
0.0
 70
     32
  0
VERTEX
  8
MY3DLAYER
10
135.3354582589801
20
21.140690563160405
30
0.0
 70
     32
  0
VERTEX
  8
MY3DLAYER
10
135.34969513245028
20
21.4678290280956
30
0.0
 70
     32
  0
VERTEX
  8
MY3DLAYER
10
135.3593028690171
20
21.8425474499376
30
0.0
 70
     32
  0
VERTEX
  8
MY3DLAYER
10
135.36480022861798
20
22.271109471104964
30
0.0
 70
     32
  0
VERTEX
  8
MY3DLAYER
10
135.3667059711893
20
22.75977873401632
30
0.0
 70
     32
  0
VERTEX
  8
MY3DLAYER
10
135.36553885666822
20
23.31481888109011
30
0.0
 70
     32
  0
VERTEX
  8
MY3DLAYER
10
135.3514544245722
20
24.38751076050521
30
0.0
 70
     32
  0
VERTEX
  8
MY3DLAYER
10
135.31874773387932
20
25.38947993628726
30
0.0
 70
     32
  0
VERTEX
  8
MY3DLAYER
10
135.26749154431107
20
26.320299892261747
30
0.0
 70
     32
  0
VERTEX
  8
MY3DLAYER
10
135.19775861558892
20
27.1795441122541
30
0.0
 70
     32
  0
VERTEX
  8
MY3DLAYER
10
135.10962170743488
20
27.966786080089854
30
0.0
 70
     32
  0
VERTEX
  8
MY3DLAYER
10
135.00315357957015
20
28.681599279594476
30
0.0
 70
     32
  0
VERTEX
  8
MY3DLAYER
10
134.87842699171657
20
29.323557194593363
30
0.0
 70
     32
  0
VERTEX
  8
MY3DLAYER
10
134.73551470359567
20
29.892233308912097
30
0.0
 70
     32
  0
VERTEX
  8
MY3DLAYER
10
134.57448947492918
20
30.387201106376107
30
0.0
 70
     32
  0
VERTEX
  8
MY3DLAYER
10
134.3954240654384
20
30.808034070810855
30
0.0
 70
     32
  0
VERTEX
  8
MY3DLAYER
10
134.19839123484527
20
31.15430568604182
30
0.0
 70
     32
  0
VERTEX
  8
MY3DLAYER
10
133.98346374287118
20
31.42558943589451
30
0.0
 70
     32
  0
VERTEX
  8
MY3DLAYER
10
133.5166738654293
20
31.912817514192316
30
0.0
 70
     32
  0
VERTEX
  8
MY3DLAYER
10
133.87613115517456
20
32.2201572900627
30
0.0
 70
     32
  0
VERTEX
  8
MY3DLAYER
10
134.015454341513
20
32.35834678865033
30
0.0
 70
     32
  0
VERTEX
  8
MY3DLAYER
10
134.1381536086878
20
32.52466251346574
30
0.0
 70
     32
  0
VERTEX
  8
MY3DLAYER
10
134.2454288035612
20
32.726442327982724
30
0.0
 70
     32
  0
VERTEX
  8
MY3DLAYER
10
134.33847977299507
20
32.971024095675176
30
0.0
 70
     32
  0
VERTEX
  8
MY3DLAYER
10
134.41850636385217
20
33.2657456800169
30
0.0
 70
     32
  0
VERTEX
  8
MY3DLAYER
10
134.486708422994
20
33.617944944481835
30
0.0
 70
     32
  0
VERTEX
  8
MY3DLAYER
10
134.54428579728292
20
34.034959752543685
30
0.0
 70
     32
  0
VERTEX
  8
MY3DLAYER
10
134.59243833358101
20
34.524127967676456
30
0.0
 70
     32
  0
VERTEX
  8
MY3DLAYER
10
134.63236587875048
20
35.09278745335387
30
0.0
 70
     32
  0
VERTEX
  8
MY3DLAYER
10
134.66526827965316
20
35.748276073049894
30
0.0
 70
     32
  0
VERTEX
  8
MY3DLAYER
10
134.69234538315138
20
36.49793169023826
30
0.0
 70
     32
  0
VERTEX
  8
MY3DLAYER
10
134.7147970361073
20
37.349092168392914
30
0.0
 70
     32
  0
VERTEX
  8
MY3DLAYER
10
134.72911480824675
20
38.023826053420464
30
0.0
 70
     32
  0
VERTEX
  8
MY3DLAYER
10
134.73912438991303
20
38.61170207623895
30
0.0
 70
     32
  0
VERTEX
  8
MY3DLAYER
10
134.74449877548568
20
39.11958525746855
30
0.0
 70
     32
  0
VERTEX
  8
MY3DLAYER
10
134.74491095934388
20
39.55434061772972
30
0.0
 70
     32
  0
VERTEX
  8
MY3DLAYER
10
134.7400339358672
20
39.92283317764276
30
0.0
 70
     32
  0
VERTEX
  8
MY3DLAYER
10
134.72954069943484
20
40.23192795782795
30
0.0
 70
     32
  0
VERTEX
  8
MY3DLAYER
10
134.71310424442635
20
40.48848997890561
30
0.0
 70
     32
  0
VERTEX
  8
MY3DLAYER
10
134.69039756522128
20
40.69938426149615
30
0.0
 70
     32
  0
VERTEX
  8
MY3DLAYER
10
134.66109365619877
20
40.87147582621978
30
0.0
 70
     32
  0
VERTEX
  8
MY3DLAYER
10
134.6248655117384
20
41.01162969369695
30
0.0
 70
     32
  0
VERTEX
  8
MY3DLAYER
10
134.58138612621946
20
41.12671088454786
30
0.0
 70
     32
  0
VERTEX
  8
MY3DLAYER
10
134.53032849402146
20
41.22358441939294
30
0.0
 70
     32
  0
VERTEX
  8
MY3DLAYER
10
134.35832496528894
20
41.512960566451504
30
0.0
 70
     32
  0
VERTEX
  8
MY3DLAYER
10
134.2115932684683
20
41.787589702797426
30
0.0
 70
     32
  0
VERTEX
  8
MY3DLAYER
10
134.08638264450104
20
42.07113779827393
30
0.0
 70
     32
  0
VERTEX
  8
MY3DLAYER
10
133.97894233432874
20
42.38727082272415
30
0.0
 70
     32
  0
VERTEX
  8
MY3DLAYER
10
133.88552157889302
20
42.75965474599121
30
0.0
 70
     32
  0
VERTEX
  8
MY3DLAYER
10
133.80236961913508
20
43.211955537918335
30
0.0
 70
     32
  0
VERTEX
  8
MY3DLAYER
10
133.72573569599652
20
43.76783916834862
30
0.0
 70
     32
  0
VERTEX
  8
MY3DLAYER
10
133.6518690504189
20
44.45097160712532
30
0.0
 70
     32
  0
VERTEX
  8
MY3DLAYER
10
133.57701892334373
20
45.28501882409157
30
0.0
 70
     32
  0
VERTEX
  8
MY3DLAYER
10
133.4974345557125
20
46.293646789090445
30
0.0
 70
     32
  0
VERTEX
  8
MY3DLAYER
10
133.40936518846647
20
47.500521471965165
30
0.0
 70
     32
  0
VERTEX
  8
MY3DLAYER
10
133.3090600625474
20
48.92930884255896
30
0.0
 70
     32
  0
VERTEX
  8
MY3DLAYER
10
133.15455009395976
20
51.121043864366335
30
0.0
 70
     32
  0
VERTEX
  8
MY3DLAYER
10
133.00776241553763
20
53.14187094691259
30
0.0
 70
     32
  0
VERTEX
  8
MY3DLAYER
10
132.86786560463298
20
55.001078497531246
30
0.0
 70
     32
  0
VERTEX
  8
MY3DLAYER
10
132.73402823859757
20
56.70795492355584
30
0.0
 70
     32
  0
VERTEX
  8
MY3DLAYER
10
132.60541889478338
20
58.27178863232001
30
0.0
 70
     32
  0
VERTEX
  8
MY3DLAYER
10
132.48120615054214
20
59.70186803115729
30
0.0
 70
     32
  0
VERTEX
  8
MY3DLAYER
10
132.36055858322544
20
61.00748152740126
30
0.0
 70
     32
  0
VERTEX
  8
MY3DLAYER
10
132.24264477018545
20
62.197917528385595
30
0.0
 70
     32
  0
VERTEX
  8
MY3DLAYER
10
132.12663328877383
20
63.28246444144376
30
0.0
 70
     32
  0
VERTEX
  8
MY3DLAYER
10
132.01169271634245
20
64.27041067390937
30
0.0
 70
     32
  0
VERTEX
  8
MY3DLAYER
10
131.89699163024315
20
65.17104463311607
30
0.0
 70
     32
  0
VERTEX
  8
MY3DLAYER
10
131.78169860782762
20
65.99365472639735
30
0.0
 70
     32
  0
VERTEX
  8
MY3DLAYER
10
131.6599079414767
20
66.79518858651953
30
0.0
 70
     32
  0
VERTEX
  8
MY3DLAYER
10
131.547763153521
20
67.46953180793783
30
0.0
 70
     32
  0
VERTEX
  8
MY3DLAYER
10
131.44218472034592
20
68.02125352179452
30
0.0
 70
     32
  0
VERTEX
  8
MY3DLAYER
10
131.34009311833694
20
68.45492285923177
30
0.0
 70
     32
  0
VERTEX
  8
MY3DLAYER
10
131.2384088238795
20
68.775108951392
30
0.0
 70
     32
  0
VERTEX
  8
MY3DLAYER
10
131.134052313359
20
68.98638092941717
30
0.0
 70
     32
  0
VERTEX
  8
MY3DLAYER
10
131.02394406316103
20
69.0933079244498
30
0.0
 70
     32
  0
VERTEX
  8
MY3DLAYER
10
130.90500454967068
20
69.1004590676319
30
0.0
 70
     32
  0
VERTEX
  8
MY3DLAYER
10
130.77415424927375
20
69.01240349010583
30
0.0
 70
     32
  0
VERTEX
  8
MY3DLAYER
10
130.62831363835545
20
68.83371032301365
30
0.0
 70
     32
  0
VERTEX
  8
MY3DLAYER
10
130.4644031933014
20
68.5689486974978
30
0.0
 70
     32
  0
VERTEX
  8
MY3DLAYER
10
130.27934339049682
20
68.22268774470028
30
0.0
 70
     32
  0
VERTEX
  8
MY3DLAYER
10
130.21443681662333
20
68.08408046327045
30
0.0
 70
     32
  0
VERTEX
  8
MY3DLAYER
10
130.15419581247883
20
67.9305651717944
30
0.0
 70
     32
  0
VERTEX
  8
MY3DLAYER
10
130.09808995877455
20
67.75916029651108
30
0.0
 70
     32
  0
VERTEX
  8
MY3DLAYER
10
130.04558883622215
20
67.56688426365908
30
0.0
 70
     32
  0
VERTEX
  8
MY3DLAYER
10
129.99616202553273
20
67.35075549947709
30
0.0
 70
     32
  0
VERTEX
  8
MY3DLAYER
10
129.94927910741816
20
67.10779243020413
30
0.0
 70
     32
  0
VERTEX
  8
MY3DLAYER
10
129.9044096625894
20
66.83501348207874
30
0.0
 70
     32
  0
VERTEX
  8
MY3DLAYER
10
129.86102327175814
20
66.52943708133964
30
0.0
 70
     32
  0
VERTEX
  8
MY3DLAYER
10
129.81858951563578
20
66.18808165422575
30
0.0
 70
     32
  0
VERTEX
  8
MY3DLAYER
10
129.77657797493387
20
65.80796562697577
30
0.0
 70
     32
  0
VERTEX
  8
MY3DLAYER
10
129.7344582303636
20
65.38610742582838
30
0.0
 70
     32
  0
VERTEX
  8
MY3DLAYER
10
129.6916998626366
20
64.91952547702233
30
0.0
 70
     32
  0
VERTEX
  8
MY3DLAYER
10
129.62540172995674
20
64.18765908447108
30
0.0
 70
     32
  0
VERTEX
  8
MY3DLAYER
10
129.56108765735885
20
63.523435949620385
30
0.0
 70
     32
  0
VERTEX
  8
MY3DLAYER
10
129.49658882888065
20
62.91276567887425
30
0.0
 70
     32
  0
VERTEX
  8
MY3DLAYER
10
129.42973642855932
20
62.34155787863712
30
0.0
 70
     32
  0
VERTEX
  8
MY3DLAYER
10
129.35836164043246
20
61.79572215531319
30
0.0
 70
     32
  0
VERTEX
  8
MY3DLAYER
10
129.2802956485372
20
61.26116811530681
30
0.0
 70
     32
  0
VERTEX
  8
MY3DLAYER
10
129.1933696369114
20
60.723805365022166
30
0.0
 70
     32
  0
VERTEX
  8
MY3DLAYER
10
129.09541478959238
20
60.16954351086352
30
0.0
 70
     32
  0
VERTEX
  8
MY3DLAYER
10
128.9842622906174
20
59.5842921592352
30
0.0
 70
     32
  0
VERTEX
  8
MY3DLAYER
10
128.8577433240242
20
58.95396091654143
30
0.0
 70
     32
  0
VERTEX
  8
MY3DLAYER
10
128.7136890738499
20
58.2644593891865
30
0.0
 70
     32
  0
VERTEX
  8
MY3DLAYER
10
128.54993072413228
20
57.50169718357471
30
0.0
 70
     32
  0
VERTEX
  8
MY3DLAYER
10
128.47305293034054
20
57.14263380713272
30
0.0
 70
     32
  0
VERTEX
  8
MY3DLAYER
10
128.38742906914933
20
56.734674513620476
30
0.0
 70
     32
  0
VERTEX
  8
MY3DLAYER
10
128.29449725908975
20
56.28504547401885
30
0.0
 70
     32
  0
VERTEX
  8
MY3DLAYER
10
128.195695618693
20
55.80097285930836
30
0.0
 70
     32
  0
VERTEX
  8
MY3DLAYER
10
128.09246226649063
20
55.28968284046981
30
0.0
 70
     32
  0
VERTEX
  8
MY3DLAYER
10
127.98623532101338
20
54.758401588484
30
0.0
 70
     32
  0
VERTEX
  8
MY3DLAYER
10
127.87845290079298
20
54.21435527433143
30
0.0
 70
     32
  0
VERTEX
  8
MY3DLAYER
10
127.77055312436038
20
53.664770068992894
30
0.0
 70
     32
  0
VERTEX
  8
MY3DLAYER
10
127.66397411024683
20
53.116872143449044
30
0.0
 70
     32
  0
VERTEX
  8
MY3DLAYER
10
127.56015397698364
20
52.57788766868065
30
0.0
 70
     32
  0
VERTEX
  8
MY3DLAYER
10
127.46053084310196
20
52.05504281566841
30
0.0
 70
     32
  0
VERTEX
  8
MY3DLAYER
10
127.36654282713327
20
51.55556375539292
30
0.0
 70
     32
  0
VERTEX
  8
MY3DLAYER
10
127.27500608451392
20
51.06797848145126
30
0.0
 70
     32
  0
VERTEX
  8
MY3DLAYER
10
127.18252123392384
20
50.57976542451318
30
0.0
 70
     32
  0
VERTEX
  8
MY3DLAYER
10
127.09020156336756
20
50.096574885778125
30
0.0
 70
     32
  0
VERTEX
  8
MY3DLAYER
10
126.99916036084971
20
49.624057166445354
30
0.0
 70
     32
  0
VERTEX
  8
MY3DLAYER
10
126.91051091437528
20
49.16786256771429
30
0.0
 70
     32
  0
VERTEX
  8
MY3DLAYER
10
126.82536651194864
20
48.7336413907844
30
0.0
 70
     32
  0
VERTEX
  8
MY3DLAYER
10
126.74484044157475
20
48.32704393685492
30
0.0
 70
     32
  0
VERTEX
  8
MY3DLAYER
10
126.67004599125832
20
47.9537205071253
30
0.0
 70
     32
  0
VERTEX
  8
MY3DLAYER
10
126.6020964490039
20
47.61932140279493
30
0.0
 70
     32
  0
VERTEX
  8
MY3DLAYER
10
126.54210510281641
20
47.32949692506316
30
0.0
 70
     32
  0
VERTEX
  8
MY3DLAYER
10
126.49118524070045
20
47.08989737512936
30
0.0
 70
     32
  0
VERTEX
  8
MY3DLAYER
10
126.45045015066074
20
46.9061730541929
30
0.0
 70
     32
  0
VERTEX
  8
MY3DLAYER
10
126.38232848290178
20
46.574581305415
30
0.0
 70
     32
  0
VERTEX
  8
MY3DLAYER
10
126.30400138673474
20
46.13328168852863
30
0.0
 70
     32
  0
VERTEX
  8
MY3DLAYER
10
126.21713453225354
20
45.594808091335125
30
0.0
 70
     32
  0
VERTEX
  8
MY3DLAYER
10
126.12339358955217
20
44.97169440163571
30
0.0
 70
     32
  0
VERTEX
  8
MY3DLAYER
10
126.02444422872422
20
44.27647450723159
30
0.0
 70
     32
  0
VERTEX
  8
MY3DLAYER
10
125.92195211986378
20
43.52168229592417
30
0.0
 70
     32
  0
VERTEX
  8
MY3DLAYER
10
125.81758293306436
20
42.719851655514724
30
0.0
 70
     32
  0
VERTEX
  8
MY3DLAYER
10
125.7130023384203
20
41.88351647380443
30
0.0
 70
     32
  0
VERTEX
  8
MY3DLAYER
10
125.609876006025
20
41.02521063859453
30
0.0
 70
     32
  0
VERTEX
  8
MY3DLAYER
10
125.50986960597257
20
40.15746803768639
30
0.0
 70
     32
  0
VERTEX
  8
MY3DLAYER
10
125.41464880835689
20
39.29282255888124
30
0.0
 70
     32
  0
VERTEX
  8
MY3DLAYER
10
125.3258792832717
20
38.44380808998035
30
0.0
 70
     32
  0
VERTEX
  8
MY3DLAYER
10
125.29895117018656
20
38.201432198416654
30
0.0
 70
     32
  0
VERTEX
  8
MY3DLAYER
10
125.26756775117451
20
37.9592716199804
30
0.0
 70
     32
  0
VERTEX
  8
MY3DLAYER
10
125.2321830206276
20
37.71945527036947
30
0.0
 70
     32
  0
VERTEX
  8
MY3DLAYER
10
125.19325097293822
20
37.48411206528173
30
0.0
 70
     32
  0
VERTEX
  8
MY3DLAYER
10
125.15122560249846
20
37.255370920415
30
0.0
 70
     32
  0
VERTEX
  8
MY3DLAYER
10
125.10656090370051
20
37.03536075146723
30
0.0
 70
     32
  0
VERTEX
  8
MY3DLAYER
10
125.05971087093673
20
36.82621047413627
30
0.0
 70
     32
  0
VERTEX
  8
MY3DLAYER
10
125.01112949859915
20
36.630049004119925
30
0.0
 70
     32
  0
VERTEX
  8
MY3DLAYER
10
124.96127078108012
20
36.44900525711615
30
0.0
 70
     32
  0
VERTEX
  8
MY3DLAYER
10
124.9105887127718
20
36.28520814882271
30
0.0
 70
     32
  0
VERTEX
  8
MY3DLAYER
10
124.85953728806625
20
36.14078659493754
30
0.0
 70
     32
  0
VERTEX
  8
MY3DLAYER
10
124.80857050135576
20
36.01786951115853
30
0.0
 70
     32
  0
VERTEX
  8
MY3DLAYER
10
124.67779632689742
20
35.65930953246297
30
0.0
 70
     32
  0
VERTEX
  8
MY3DLAYER
10
124.56025997271537
20
35.18270185944993
30
0.0
 70
     32
  0
VERTEX
  8
MY3DLAYER
10
124.4555545549777
20
34.58097249297994
30
0.0
 70
     32
  0
VERTEX
  8
MY3DLAYER
10
124.36327318985239
20
33.847047433913716
30
0.0
 70
     32
  0
VERTEX
  8
MY3DLAYER
10
124.28300899350785
20
32.97385268311181
30
0.0
 70
     32
  0
VERTEX
  8
MY3DLAYER
10
124.21435508211174
20
31.9543142414349
30
0.0
 70
     32
  0
VERTEX
  8
MY3DLAYER
10
124.15690457183261
20
30.781358109743604
30
0.0
 70
     32
  0
VERTEX
  8
MY3DLAYER
10
124.1102505788383
20
29.44791028889849
30
0.0
 70
     32
  0
VERTEX
  8
MY3DLAYER
10
124.07398621929694
20
27.946896779760287
30
0.0
 70
     32
  0
VERTEX
  8
MY3DLAYER
10
124.0477046093767
20
26.27124358318951
30
0.0
 70
     32
  0
VERTEX
  8
MY3DLAYER
10
124.03099886524558
20
24.41387670004685
30
0.0
 70
     32
  0
VERTEX
  8
MY3DLAYER
10
124.02346210307176
20
22.367722131192927
30
0.0
 70
     32
  0
VERTEX
  8
MY3DLAYER
10
124.02246605357936
20
20.468441002790176
30
0.0
 70
     32
  0
VERTEX
  8
MY3DLAYER
10
124.02689956148565
20
18.85710651854712
30
0.0
 70
     32
  0
VERTEX
  8
MY3DLAYER
10
124.03901733778314
20
17.509069220060994
30
0.0
 70
     32
  0
VERTEX
  8
MY3DLAYER
10
124.06107409346454
20
16.399679648929055
30
0.0
 70
     32
  0
VERTEX
  8
MY3DLAYER
10
124.09532453952215
20
15.50428834674854
30
0.0
 70
     32
  0
VERTEX
  8
MY3DLAYER
10
124.14402338694882
20
14.798245855116699
30
0.0
 70
     32
  0
VERTEX
  8
MY3DLAYER
10
124.20942534673682
20
14.256902715630767
30
0.0
 70
     32
  0
VERTEX
  8
MY3DLAYER
10
124.29378512987876
20
13.855609469887991
30
0.0
 70
     32
  0
VERTEX
  8
MY3DLAYER
10
124.39935744736727
20
13.56971665948562
30
0.0
 70
     32
  0
VERTEX
  8
MY3DLAYER
10
124.52839701019475
20
13.374574826020877
30
0.0
 70
     32
  0
VERTEX
  8
MY3DLAYER
10
124.68315852935378
20
13.24553451109104
30
0.0
 70
     32
  0
VERTEX
  8
MY3DLAYER
10
124.86589671583701
20
13.157946256293325
30
0.0
 70
     32
  0
VERTEX
  8
MY3DLAYER
10
124.95048450839418
20
13.123274963665082
30
0.0
 70
     32
  0
VERTEX
  8
MY3DLAYER
10
125.02242779408003
20
13.086760766085849
30
0.0
 70
     32
  0
VERTEX
  8
MY3DLAYER
10
125.08266829682306
20
13.04559866082411
30
0.0
 70
     32
  0
VERTEX
  8
MY3DLAYER
10
125.13214774055179
20
12.996983645148328
30
0.0
 70
     32
  0
VERTEX
  8
MY3DLAYER
10
125.17180784919476
20
12.938110716326992
30
0.0
 70
     32
  0
VERTEX
  8
MY3DLAYER
10
125.20259034668068
20
12.866174871628601
30
0.0
 70
     32
  0
VERTEX
  8
MY3DLAYER
10
125.22543695693798
20
12.778371108321611
30
0.0
 70
     32
  0
VERTEX
  8
MY3DLAYER
10
125.2412894038953
20
12.67189442367453
30
0.0
 70
     32
  0
VERTEX
  8
MY3DLAYER
10
125.25108941148105
20
12.54393981495581
30
0.0
 70
     32
  0
VERTEX
  8
MY3DLAYER
10
125.25577870362397
20
12.39170227943395
30
0.0
 70
     32
  0
VERTEX
  8
MY3DLAYER
10
125.25629900425255
20
12.21237681437743
30
0.0
 70
     32
  0
VERTEX
  8
MY3DLAYER
10
125.2535920372952
20
12.003158417054722
30
0.0
 70
     32
  0
VERTEX
  8
MY3DLAYER
10
125.25825879108505
20
11.685771763952005
30
0.0
 70
     32
  0
VERTEX
  8
MY3DLAYER
10
125.28480467493544
20
11.357311932897254
30
0.0
 70
     32
  0
VERTEX
  8
MY3DLAYER
10
125.33529933323074
20
11.011516319585004
30
0.0
 70
     32
  0
VERTEX
  8
MY3DLAYER
10
125.41181241035517
20
10.642122319709792
30
0.0
 70
     32
  0
VERTEX
  8
MY3DLAYER
10
125.51641355069306
20
10.242867328966113
30
0.0
 70
     32
  0
VERTEX
  8
MY3DLAYER
10
125.65117239862893
20
9.807488743048516
30
0.0
 70
     32
  0
VERTEX
  8
MY3DLAYER
10
125.81815859854699
20
9.329723957651522
30
0.0
 70
     32
  0
VERTEX
  8
MY3DLAYER
10
126.01944179483145
20
8.803310368469655
30
0.0
 70
     32
  0
VERTEX
  8
MY3DLAYER
10
126.2570916318668
20
8.221985371197437
30
0.0
 70
     32
  0
VERTEX
  8
MY3DLAYER
10
126.53317775403728
20
7.579486361529384
30
0.0
 70
     32
  0
VERTEX
  8
MY3DLAYER
10
126.84976980572723
20
6.869550735160041
30
0.0
 70
     32
  0
VERTEX
  8
MY3DLAYER
10
127.20893743132103
20
6.085915887783919
30
0.0
 70
     32
  0
VERTEX
  8
MY3DLAYER
10
127.73188442194882
20
4.931632719804674
30
0.0
 70
     32
  0
VERTEX
  8
MY3DLAYER
10
128.15958159958265
20
3.9215536704540206
30
0.0
 70
     32
  0
VERTEX
  8
MY3DLAYER
10
128.4919907305882
20
3.0407638513039146
30
0.0
 70
     32
  0
VERTEX
  8
MY3DLAYER
10
128.72907358133122
20
2.2743483739263284
30
0.0
 70
     32
  0
VERTEX
  8
MY3DLAYER
10
128.87079191817787
20
1.6073923498932068
30
0.0
 70
     32
  0
VERTEX
  8
MY3DLAYER
10
128.9171075074938
20
1.0249808907765205
30
0.0
 70
     32
  0
VERTEX
  8
MY3DLAYER
10
128.86798211564457
20
0.5121991081482379
30
0.0
 70
     32
  0
VERTEX
  8
MY3DLAYER
10
128.7233775089964
20
0.05413211358032669
30
0.0
 70
     32
  0
VERTEX
  8
MY3DLAYER
10
128.48325545391515
20
-0.36413498135527994
30
0.0
 70
     32
  0
VERTEX
  8
MY3DLAYER
10
128.1475777167664
20
-0.7575170650865712
30
0.0
 70
     32
  0
VERTEX
  8
MY3DLAYER
10
127.71630606391601
20
-1.1409290260416347
30
0.0
 70
     32
  0
VERTEX
  8
MY3DLAYER
10
127.18940226173
20
-1.529285752648482
30
0.0
 70
     32
  0
VERTEX
  8
MY3DLAYER
10
126.87739289079435
20
-1.7362357175247847
30
0.0
 70
     32
  0
VERTEX
  8
MY3DLAYER
10
126.58960363022734
20
-1.909325336170159
30
0.0
 70
     32
  0
VERTEX
  8
MY3DLAYER
10
126.32252103927053
20
-2.048961654842329
30
0.0
 70
     32
  0
VERTEX
  8
MY3DLAYER
10
126.0726316771654
20
-2.155551719799092
30
0.0
 70
     32
  0
VERTEX
  8
MY3DLAYER
10
125.83642210315338
20
-2.229502577298154
30
0.0
 70
     32
  0
VERTEX
  8
MY3DLAYER
10
125.61037887647595
20
-2.271221273597306
30
0.0
 70
     32
  0
VERTEX
  8
MY3DLAYER
10
125.39098855637467
20
-2.2811148549542932
30
0.0
 70
     32
  0
VERTEX
  8
MY3DLAYER
10
125.1747377020909
20
-2.25959036762688
30
0.0
 70
     32
  0
VERTEX
  8
MY3DLAYER
10
124.95811287286595
20
-2.2070548578728157
30
0.0
 70
     32
  0
VERTEX
  8
MY3DLAYER
10
124.73760062794156
20
-2.1239153719498596
30
0.0
 70
     32
  0
VERTEX
  8
MY3DLAYER
10
124.509687526559
20
-2.0105789561157574
30
0.0
 70
     32
  0
VERTEX
  8
MY3DLAYER
10
124.27086622952237
20
-1.8674099456900863
30
0.0
 70
     32
  0
VERTEX
  8
MY3DLAYER
10
123.96052025236459
20
-1.6539147378634382
30
0.0
 70
     32
  0
VERTEX
  8
MY3DLAYER
10
123.63509564739161
20
-1.4046770424175876
30
0.0
 70
     32
  0
VERTEX
  8
MY3DLAYER
10
123.3009741688675
20
-1.1263513336911728
30
0.0
 70
     32
  0
VERTEX
  8
MY3DLAYER
10
122.96453757105633
20
-0.82559208602288
30
0.0
 70
     32
  0
VERTEX
  8
MY3DLAYER
10
122.63216760822208
20
-0.5090537737513553
30
0.0
 70
     32
  0
VERTEX
  8
MY3DLAYER
10
122.31024603462895
20
-0.183390871215275
30
0.0
 70
     32
  0
VERTEX
  8
MY3DLAYER
10
122.00515460454059
20
0.14474214724669607
30
0.0
 70
     32
  0
VERTEX
  8
MY3DLAYER
10
121.72327507222147
20
0.4686908072959173
30
0.0
 70
     32
  0
VERTEX
  8
MY3DLAYER
10
121.47098919193525
20
0.7818006345937127
30
0.0
 70
     32
  0
VERTEX
  8
MY3DLAYER
10
121.25467871794622
20
1.0774171548014175
30
0.0
 70
     32
  0
VERTEX
  8
MY3DLAYER
10
121.08072540451815
20
1.348885893580381
30
0.0
 70
     32
  0
VERTEX
  8
MY3DLAYER
10
120.95551100591544
20
1.589552376591919
30
0.0
 70
     32
  0
VERTEX
  8
MY3DLAYER
10
120.88689399343676
20
1.751110706927704
30
0.0
 70
     32
  0
VERTEX
  8
MY3DLAYER
10
120.82796949676
20
1.905711038433437
30
0.0
 70
     32
  0
VERTEX
  8
MY3DLAYER
10
120.7782446593416
20
2.057323270895699
30
0.0
 70
     32
  0
VERTEX
  8
MY3DLAYER
10
120.7372266246373
20
2.209917304101054
30
0.0
 70
     32
  0
VERTEX
  8
MY3DLAYER
10
120.7044225361035
20
2.367463037836057
30
0.0
 70
     32
  0
VERTEX
  8
MY3DLAYER
10
120.67933953719636
20
2.533930371887268
30
0.0
 70
     32
  0
VERTEX
  8
MY3DLAYER
10
120.6614847713723
20
2.713289206041258
30
0.0
 70
     32
  0
VERTEX
  8
MY3DLAYER
10
120.65036538208712
20
2.90950944008458
30
0.0
 70
     32
  0
VERTEX
  8
MY3DLAYER
10
120.64548851279724
20
3.1265609738038127
30
0.0
 70
     32
  0
VERTEX
  8
MY3DLAYER
10
120.64636130695878
20
3.368413706985503
30
0.0
 70
     32
  0
VERTEX
  8
MY3DLAYER
10
120.652490908028
20
3.6390375394162215
30
0.0
 70
     32
  0
VERTEX
  8
MY3DLAYER
10
120.66338445946107
20
3.9424023708825184
30
0.0
 70
     32
  0
VERTEX
  8
MY3DLAYER
10
120.6948682058644
20
4.758080781853474
30
0.0
 70
     32
  0
VERTEX
  8
MY3DLAYER
10
120.71784972845019
20
5.470747344763887
30
0.0
 70
     32
  0
VERTEX
  8
MY3DLAYER
10
120.73174620793647
20
6.089904466543946
30
0.0
 70
     32
  0
VERTEX
  8
MY3DLAYER
10
120.73597482504105
20
6.625054554123853
30
0.0
 70
     32
  0
VERTEX
  8
MY3DLAYER
10
120.72995276048181
20
7.0857000144337805
30
0.0
 70
     32
  0
VERTEX
  8
MY3DLAYER
10
120.7130971949763
20
7.4813432544039165
30
0.0
 70
     32
  0
VERTEX
  8
MY3DLAYER
10
120.68482530924244
20
7.82148668096446
30
0.0
 70
     32
  0
VERTEX
  8
MY3DLAYER
10
120.64455428399813
20
8.115632701045591
30
0.0
 70
     32
  0
VERTEX
  8
MY3DLAYER
10
120.5917012999609
20
8.373283721577488
30
0.0
 70
     32
  0
VERTEX
  8
MY3DLAYER
10
120.52568353784902
20
8.60394214949035
30
0.0
 70
     32
  0
VERTEX
  8
MY3DLAYER
10
120.44591817837976
20
8.817110391714367
30
0.0
 70
     32
  0
VERTEX
  8
MY3DLAYER
10
120.35182240227142
20
9.022290855179719
30
0.0
 70
     32
  0
VERTEX
  8
MY3DLAYER
10
120.290298738795
20
9.138124521473701
30
0.0
 70
     32
  0
VERTEX
  8
MY3DLAYER
10
120.21267696396178
20
9.270924041606579
30
0.0
 70
     32
  0
VERTEX
  8
MY3DLAYER
10
120.12068383411149
20
9.418282808162239
30
0.0
 70
     32
  0
VERTEX
  8
MY3DLAYER
10
120.01604610558388
20
9.577794213724587
30
0.0
 70
     32
  0
VERTEX
  8
MY3DLAYER
10
119.9004905347188
20
9.747051650877506
30
0.0
 70
     32
  0
VERTEX
  8
MY3DLAYER
10
119.77574387785594
20
9.923648512204892
30
0.0
 70
     32
  0
VERTEX
  8
MY3DLAYER
10
119.6435328913352
20
10.105178190290648
30
0.0
 70
     32
  0
VERTEX
  8
MY3DLAYER
10
119.50558433149631
20
10.289234077718657
30
0.0
 70
     32
  0
VERTEX
  8
MY3DLAYER
10
119.36362495467914
20
10.473409567072807
30
0.0
 70
     32
  0
VERTEX
  8
MY3DLAYER
10
119.21938151722334
20
10.655298050937013
30
0.0
 70
     32
  0
VERTEX
  8
MY3DLAYER
10
119.0745807754688
20
10.832492921895149
30
0.0
 70
     32
  0
VERTEX
  8
MY3DLAYER
10
118.93094948575522
20
11.002587572531125
30
0.0
 70
     32
  0
VERTEX
  8
MY3DLAYER
10
118.58002868579787
20
11.420127739963053
30
0.0
 70
     32
  0
VERTEX
  8
MY3DLAYER
10
118.28403182896977
20
11.801546734484937
30
0.0
 70
     32
  0
VERTEX
  8
MY3DLAYER
10
118.03881278343033
20
12.165425247798462
30
0.0
 70
     32
  0
VERTEX
  8
MY3DLAYER
10
117.84022541733894
20
12.53034397160539
30
0.0
 70
     32
  0
VERTEX
  8
MY3DLAYER
10
117.68412359885512
20
12.91488359760744
30
0.0
 70
     32
  0
VERTEX
  8
MY3DLAYER
10
117.56636119613803
20
13.337624817506349
30
0.0
 70
     32
  0
VERTEX
  8
MY3DLAYER
10
117.48279207734728
20
13.817148323003854
30
0.0
 70
     32
  0
VERTEX
  8
MY3DLAYER
10
117.42927011064236
20
14.372034805801658
30
0.0
 70
     32
  0
VERTEX
  8
MY3DLAYER
10
117.40164916418227
20
15.020864957601516
30
0.0
 70
     32
  0
VERTEX
  8
MY3DLAYER
10
117.39578310612696
20
15.78221947010517
30
0.0
 70
     32
  0
VERTEX
  8
MY3DLAYER
10
117.4075258046354
20
16.67467903501432
30
0.0
 70
     32
  0
VERTEX
  8
MY3DLAYER
10
117.43273112786727
20
17.716824344030716
30
0.0
 70
     32
  0
VERTEX
  8
MY3DLAYER
10
117.47692392658763
20
18.998043230394423
30
0.0
 70
     32
  0
VERTEX
  8
MY3DLAYER
10
117.54112307112217
20
20.34871147936008
30
0.0
 70
     32
  0
VERTEX
  8
MY3DLAYER
10
117.62413867201985
20
21.75599786494164
30
0.0
 70
     32
  0
VERTEX
  8
MY3DLAYER
10
117.72478083982956
20
23.20707116115292
30
0.0
 70
     32
  0
VERTEX
  8
MY3DLAYER
10
117.84185968510064
20
24.689100142007838
30
0.0
 70
     32
  0
VERTEX
  8
MY3DLAYER
10
117.97418531838187
20
26.189253581520262
30
0.0
 70
     32
  0
VERTEX
  8
MY3DLAYER
10
118.12056785022253
20
27.69470025370403
30
0.0
 70
     32
  0
VERTEX
  8
MY3DLAYER
10
118.27981739117162
20
29.192608932573066
30
0.0
 70
     32
  0
VERTEX
  8
MY3DLAYER
10
118.4507440517782
20
30.6701483921413
30
0.0
 70
     32
  0
VERTEX
  8
MY3DLAYER
10
118.63215794259155
20
32.11448740642257
30
0.0
 70
     32
  0
VERTEX
  8
MY3DLAYER
10
118.82286917416046
20
33.51279474943075
30
0.0
 70
     32
  0
VERTEX
  8
MY3DLAYER
10
119.02168785703414
20
34.85223919517975
30
0.0
 70
     32
  0
VERTEX
  8
MY3DLAYER
10
119.09079128316407
20
35.348103404466386
30
0.0
 70
     32
  0
VERTEX
  8
MY3DLAYER
10
119.14594608522309
20
35.853732938710564
30
0.0
 70
     32
  0
VERTEX
  8
MY3DLAYER
10
119.18716630245444
20
36.36811191598727
30
0.0
 70
     32
  0
VERTEX
  8
MY3DLAYER
10
119.2144659741016
20
36.89022445437167
30
0.0
 70
     32
  0
VERTEX
  8
MY3DLAYER
10
119.22785913940855
20
37.41905467193878
30
0.0
 70
     32
  0
VERTEX
  8
MY3DLAYER
10
119.22735983761824
20
37.95358668676368
30
0.0
 70
     32
  0
VERTEX
  8
MY3DLAYER
10
119.21298210797491
20
38.49280461692146
30
0.0
 70
     32
  0
VERTEX
  8
MY3DLAYER
10
119.18473998972169
20
39.03569258048719
30
0.0
 70
     32
  0
VERTEX
  8
MY3DLAYER
10
119.14264752210244
20
39.58123469553596
30
0.0
 70
     32
  0
VERTEX
  8
MY3DLAYER
10
119.08671874436044
20
40.12841508014282
30
0.0
 70
     32
  0
VERTEX
  8
MY3DLAYER
10
119.0169676957395
20
40.67621785238284
30
0.0
 70
     32
  0
VERTEX
  8
MY3DLAYER
10
118.93340841548306
20
41.22362713033114
30
0.0
 70
     32
  0
VERTEX
  8
MY3DLAYER
10
118.85153172114943
20
42.077139759691065
30
0.0
 70
     32
  0
VERTEX
  8
MY3DLAYER
10
118.79723428750374
20
43.42545797958061
30
0.0
 70
     32
  0
VERTEX
  8
MY3DLAYER
10
118.76906219127252
20
45.19412464051366
30
0.0
 70
     32
  0
VERTEX
  8
MY3DLAYER
10
118.7655615091828
20
47.30868259300426
30
0.0
 70
     32
  0
VERTEX
  8
MY3DLAYER
10
118.78527831796104
20
49.694674687566454
30
0.0
 70
     32
  0
VERTEX
  8
MY3DLAYER
10
118.82675869433402
20
52.277643774714214
30
0.0
 70
     32
  0
VERTEX
  8
MY3DLAYER
10
118.88854871502876
20
54.98313270496158
30
0.0
 70
     32
  0
VERTEX
  8
MY3DLAYER
10
118.96919445677175
20
57.7366843288226
30
0.0
 70
     32
  0
VERTEX
  8
MY3DLAYER
10
119.06724199628965
20
60.46384149681118
30
0.0
 70
     32
  0
VERTEX
  8
MY3DLAYER
10
119.18123741030959
20
63.090147059441314
30
0.0
 70
     32
  0
VERTEX
  8
MY3DLAYER
10
119.30972677555796
20
65.54114386722712
30
0.0
 70
     32
  0
VERTEX
  8
MY3DLAYER
10
119.4512561687618
20
67.74237477068253
30
0.0
 70
     32
  0
VERTEX
  8
MY3DLAYER
10
119.51560442847132
20
68.60393092500283
30
0.0
 70
     32
  0
VERTEX
  8
MY3DLAYER
10
119.57907589222282
20
69.38359262642922
30
0.0
 70
     32
  0
VERTEX
  8
MY3DLAYER
10
119.64243855889862
20
70.08666395485565
30
0.0
 70
     32
  0
VERTEX
  8
MY3DLAYER
10
119.70646042738109
20
70.71844899017579
30
0.0
 70
     32
  0
VERTEX
  8
MY3DLAYER
10
119.7719094965525
20
71.2842518122834
30
0.0
 70
     32
  0
VERTEX
  8
MY3DLAYER
10
119.83955376529492
20
71.78937650107235
30
0.0
 70
     32
  0
VERTEX
  8
MY3DLAYER
10
119.91016123249099
20
72.2391271364364
30
0.0
 70
     32
  0
VERTEX
  8
MY3DLAYER
10
119.9844998970229
20
72.63880779826934
30
0.0
 70
     32
  0
VERTEX
  8
MY3DLAYER
10
120.06333775777294
20
72.9937225664649
30
0.0
 70
     32
  0
VERTEX
  8
MY3DLAYER
10
120.1474428136232
20
73.3091755209171
30
0.0
 70
     32
  0
VERTEX
  8
MY3DLAYER
10
120.23758306345631
20
73.59047074151937
30
0.0
 70
     32
  0
VERTEX
  8
MY3DLAYER
10
120.33452650615463
20
73.84291230816571
30
0.0
 70
     32
  0
VERTEX
  8
MY3DLAYER
10
120.50114864499373
20
74.27782440113918
30
0.0
 70
     32
  0
VERTEX
  8
MY3DLAYER
10
120.61780722748581
20
74.67282921686544
30
0.0
 70
     32
  0
VERTEX
  8
MY3DLAYER
10
120.68324806472634
20
75.03042432123985
30
0.0
 70
     32
  0
VERTEX
  8
MY3DLAYER
10
120.69621696781155
20
75.35310728015821
30
0.0
 70
     32
  0
VERTEX
  8
MY3DLAYER
10
120.65545974783757
20
75.6433756595162
30
0.0
 70
     32
  0
VERTEX
  8
MY3DLAYER
10
120.55972221590018
20
75.90372702520918
30
0.0
 70
     32
  0
VERTEX
  8
MY3DLAYER
10
120.4077501830953
20
76.13665894313297
30
0.0
 70
     32
  0
VERTEX
  8
MY3DLAYER
10
120.19828946051904
20
76.34466897918315
30
0.0
 70
     32
  0
VERTEX
  8
MY3DLAYER
10
119.93008585926731
20
76.53025469925518
30
0.0
 70
     32
  0
VERTEX
  8
MY3DLAYER
10
119.60188519043619
20
76.69591366924476
30
0.0
 70
     32
  0
VERTEX
  8
MY3DLAYER
10
119.21243326512163
20
76.84414345504757
30
0.0
 70
     32
  0
VERTEX
  8
MY3DLAYER
10
118.7604758944197
20
76.97744162255914
30
0.0
 70
     32
  0
VERTEX
  8
MY3DLAYER
10
118.53729163823007
20
77.03156672119444
30
0.0
 70
     32
  0
VERTEX
  8
MY3DLAYER
10
118.30338947886976
20
77.07908129227812
30
0.0
 70
     32
  0
VERTEX
  8
MY3DLAYER
10
118.05302487989539
20
77.12034711468809
30
0.0
 70
     32
  0
VERTEX
  8
MY3DLAYER
10
117.78045330486236
20
77.1557259673021
30
0.0
 70
     32
  0
VERTEX
  8
MY3DLAYER
10
117.47993021732712
20
77.18557962899807
30
0.0
 70
     32
  0
VERTEX
  8
MY3DLAYER
10
117.14571108084547
20
77.21026987865366
30
0.0
 70
     32
  0
VERTEX
  8
MY3DLAYER
10
116.7720513589735
20
77.23015849514687
30
0.0
 70
     32
  0
VERTEX
  8
MY3DLAYER
10
116.35320651526716
20
77.24560725735545
30
0.0
 70
     32
  0
VERTEX
  8
MY3DLAYER
10
115.88343201328264
20
77.25697794415717
30
0.0
 70
     32
  0
VERTEX
  8
MY3DLAYER
10
115.35698331657588
20
77.26463233442985
30
0.0
 70
     32
  0
VERTEX
  8
MY3DLAYER
10
114.76811588870278
20
77.26893220705148
30
0.0
 70
     32
  0
VERTEX
  8
MY3DLAYER
10
114.11108519321954
20
77.27023934089955
30
0.0
 70
     32
  0
VERTEX
  8
MY3DLAYER
10
113.21335002708346
20
77.26575734181324
30
0.0
 70
     32
  0
VERTEX
  8
MY3DLAYER
10
112.3974581638204
20
77.25219431790183
30
0.0
 70
     32
  0
VERTEX
  8
MY3DLAYER
10
111.65984340251653
20
77.22911693816671
30
0.0
 70
     32
  0
VERTEX
  8
MY3DLAYER
10
110.99693954225826
20
77.19609187160948
30
0.0
 70
     32
  0
VERTEX
  8
MY3DLAYER
10
110.40518038213158
20
77.15268578723172
30
0.0
 70
     32
  0
VERTEX
  8
MY3DLAYER
10
109.88099972122242
20
77.09846535403487
30
0.0
 70
     32
  0
VERTEX
  8
MY3DLAYER
10
109.42083135861726
20
77.03299724102035
30
0.0
 70
     32
  0
VERTEX
  8
MY3DLAYER
10
109.02110909340203
20
76.95584811718989
30
0.0
 70
     32
  0
VERTEX
  8
MY3DLAYER
10
108.67826672466313
20
76.86658465154477
30
0.0
 70
     32
  0
VERTEX
  8
MY3DLAYER
10
108.3887380514866
20
76.76477351308645
30
0.0
 70
     32
  0
VERTEX
  8
MY3DLAYER
10
108.14895687295855
20
76.64998137081676
30
0.0
 70
     32
  0
VERTEX
  8
MY3DLAYER
10
107.95535698816515
20
76.52177489373702
30
0.0
 70
     32
  0
VERTEX
  8
MY3DLAYER
10
107.87227918522663
20
76.46031563564361
30
0.0
 70
     32
  0
VERTEX
  8
MY3DLAYER
10
107.78929222777575
20
76.40780568912993
30
0.0
 70
     32
  0
VERTEX
  8
MY3DLAYER
10
107.70381091763622
20
76.36386194103493
30
0.0
 70
     32
  0
VERTEX
  8
MY3DLAYER
10
107.61325005663232
20
76.32810127819779
30
0.0
 70
     32
  0
VERTEX
  8
MY3DLAYER
10
107.51502444658793
20
76.30014058745756
30
0.0
 70
     32
  0
VERTEX
  8
MY3DLAYER
10
107.40654888932686
20
76.2795967556533
30
0.0
 70
     32
  0
VERTEX
  8
MY3DLAYER
10
107.28523818667323
20
76.26608666962393
30
0.0
 70
     32
  0
VERTEX
  8
MY3DLAYER
10
107.14850714045073
20
76.2592272162087
30
0.0
 70
     32
  0
VERTEX
  8
MY3DLAYER
10
106.99377055248358
20
76.25863528224649
30
0.0
 70
     32
  0
VERTEX
  8
MY3DLAYER
10
106.81844322459568
20
76.26392775457666
30
0.0
 70
     32
  0
VERTEX
  8
MY3DLAYER
10
106.61993995861083
20
76.274721520038
30
0.0
 70
     32
  0
VERTEX
  8
MY3DLAYER
10
106.39567555635318
20
76.29063346546958
30
0.0
 70
     32
  0
VERTEX
  8
MY3DLAYER
10
106.08384024237745
20
76.30731928536221
30
0.0
 70
     32
  0
VERTEX
  8
MY3DLAYER
10
105.76732511463132
20
76.30729798168117
30
0.0
 70
     32
  0
VERTEX
  8
MY3DLAYER
10
105.43425576960011
20
76.28792424455928
30
0.0
 70
     32
  0
VERTEX
  8
MY3DLAYER
10
105.0727578037688
20
76.24655276412983
30
0.0
 70
     32
  0
VERTEX
  8
MY3DLAYER
10
104.67095681362237
20
76.18053823052605
30
0.0
 70
     32
  0
VERTEX
  8
MY3DLAYER
10
104.216978395646
20
76.08723533388083
30
0.0
 70
     32
  0
VERTEX
  8
MY3DLAYER
10
103.69894814632471
20
75.96399876432757
30
0.0
 70
     32
  0
VERTEX
  8
MY3DLAYER
10
103.10499166214353
20
75.80818321199926
30
0.0
 70
     32
  0
VERTEX
  8
MY3DLAYER
10
102.4232345395877
20
75.61714336702924
30
0.0
 70
     32
  0
VERTEX
  8
MY3DLAYER
10
101.64180237514212
20
75.38823391955049
30
0.0
 70
     32
  0
VERTEX
  8
MY3DLAYER
10
100.74882076529208
20
75.11880955969626
30
0.0
 70
     32
  0
VERTEX
  8
MY3DLAYER
10
99.73241530652234
20
74.80622497759961
30
0.0
 70
     32
  0
VERTEX
  8
MY3DLAYER
10
98.7438108232653
20
74.51205135689285
30
0.0
 70
     32
  0
VERTEX
  8
MY3DLAYER
10
97.75404659820859
20
74.24112790996128
30
0.0
 70
     32
  0
VERTEX
  8
MY3DLAYER
10
96.76578017965437
20
73.99389877971589
30
0.0
 70
     32
  0
VERTEX
  8
MY3DLAYER
10
95.78166911590449
20
73.77080810906737
30
0.0
 70
     32
  0
VERTEX
  8
MY3DLAYER
10
94.80437095526109
20
73.57230004092679
30
0.0
 70
     32
  0
VERTEX
  8
MY3DLAYER
10
93.83654324602627
20
73.39881871820513
30
0.0
 70
     32
  0
VERTEX
  8
MY3DLAYER
10
92.88084353650187
20
73.2508082838132
30
0.0
 70
     32
  0
VERTEX
  8
MY3DLAYER
10
91.93992937498987
20
73.12871288066196
30
0.0
 70
     32
  0
VERTEX
  8
MY3DLAYER
10
91.01645830979257
20
73.03297665166234
30
0.0
 70
     32
  0
VERTEX
  8
MY3DLAYER
10
90.11308788921173
20
72.96404373972531
30
0.0
 70
     32
  0
VERTEX
  8
MY3DLAYER
10
89.23247566154951
20
72.92235828776172
30
0.0
 70
     32
  0
VERTEX
  8
MY3DLAYER
10
88.3772791751078
20
72.90836443868254
30
0.0
 70
     32
  0
VERTEX
  8
MY3DLAYER
10
87.79198684508374
20
72.91504214815765
30
0.0
 70
     32
  0
VERTEX
  8
MY3DLAYER
10
87.16474851083674
20
72.93440060665598
30
0.0
 70
     32
  0
VERTEX
  8
MY3DLAYER
10
86.50637015978522
20
72.96542780928746
30
0.0
 70
     32
  0
VERTEX
  8
MY3DLAYER
10
85.82765777934762
20
73.0071117511613
30
0.0
 70
     32
  0
VERTEX
  8
MY3DLAYER
10
85.13941735694266
20
73.05844042738742
30
0.0
 70
     32
  0
VERTEX
  8
MY3DLAYER
10
84.45245487998864
20
73.11840183307544
30
0.0
 70
     32
  0
VERTEX
  8
MY3DLAYER
10
83.77757633590407
20
73.18598396333488
30
0.0
 70
     32
  0
VERTEX
  8
MY3DLAYER
10
83.12558771210762
20
73.26017481327567
30
0.0
 70
     32
  0
VERTEX
  8
MY3DLAYER
10
82.50729499601754
20
73.3399623780071
30
0.0
 70
     32
  0
VERTEX
  8
MY3DLAYER
10
81.93350417505239
20
73.42433465263895
30
0.0
 70
     32
  0
VERTEX
  8
MY3DLAYER
10
81.41502123663074
20
73.51227963228102
30
0.0
 70
     32
  0
VERTEX
  8
MY3DLAYER
10
80.96265216817105
20
73.60278531204277
30
0.0
 70
     32
  0
VERTEX
  8
MY3DLAYER
10
80.37285343163322
20
73.74597450682357
30
0.0
 70
     32
  0
VERTEX
  8
MY3DLAYER
10
79.70430300597015
20
73.93181979636094
30
0.0
 70
     32
  0
VERTEX
  8
MY3DLAYER
10
78.97266029030109
20
74.1545377326253
30
0.0
 70
     32
  0
VERTEX
  8
MY3DLAYER
10
78.19358468374492
20
74.40834486758712
30
0.0
 70
     32
  0
VERTEX
  8
MY3DLAYER
10
77.3827355854209
20
74.6874577532168
30
0.0
 70
     32
  0
VERTEX
  8
MY3DLAYER
10
76.55577239444821
20
74.98609294148498
30
0.0
 70
     32
  0
VERTEX
  8
MY3DLAYER
10
75.7283545099459
20
75.29846698436195
30
0.0
 70
     32
  0
VERTEX
  8
MY3DLAYER
10
74.91614133103313
20
75.61879643381822
30
0.0
 70
     32
  0
VERTEX
  8
MY3DLAYER
10
74.13479225682912
20
75.94129784182431
30
0.0
 70
     32
  0
VERTEX
  8
MY3DLAYER
10
73.39996668645281
20
76.26018776035056
30
0.0
 70
     32
  0
VERTEX
  8
MY3DLAYER
10
72.72732401902353
20
76.5696827413676
30
0.0
 70
     32
  0
VERTEX
  8
MY3DLAYER
10
72.1325236536602
20
76.86399933684575
30
0.0
 70
     32
  0
VERTEX
  8
MY3DLAYER
10
71.69640645852434
20
77.09254496217655
30
0.0
 70
     32
  0
VERTEX
  8
MY3DLAYER
10
71.29123833800585
20
77.31241748462712
30
0.0
 70
     32
  0
VERTEX
  8
MY3DLAYER
10
70.90452125804588
20
77.53211707297483
30
0.0
 70
     32
  0
VERTEX
  8
MY3DLAYER
10
70.52375718458543
20
77.76014389599662
30
0.0
 70
     32
  0
VERTEX
  8
MY3DLAYER
10
70.13644808356543
20
78.0049981224699
30
0.0
 70
     32
  0
VERTEX
  8
MY3DLAYER
10
69.73009592092694
20
78.2751799211719
30
0.0
 70
     32
  0
VERTEX
  8
MY3DLAYER
10
69.29220266261086
20
78.57918946087966
30
0.0
 70
     32
  0
VERTEX
  8
MY3DLAYER
10
68.81027027455823
20
78.92552691037037
30
0.0
 70
     32
  0
VERTEX
  8
MY3DLAYER
10
68.27180072271017
20
79.3226924384212
30
0.0
 70
     32
  0
VERTEX
  8
MY3DLAYER
10
67.66429597300753
20
79.7791862138095
30
0.0
 70
     32
  0
VERTEX
  8
MY3DLAYER
10
66.97525799139126
20
80.30350840531233
30
0.0
 70
     32
  0
VERTEX
  8
MY3DLAYER
10
66.1921887438026
20
80.90415918170676
30
0.0
 70
     32
  0
VERTEX
  8
MY3DLAYER
10
65.77570301560453
20
81.20154061891446
30
0.0
 70
     32
  0
VERTEX
  8
MY3DLAYER
10
65.33209423151472
20
81.47695408618034
30
0.0
 70
     32
  0
VERTEX
  8
MY3DLAYER
10
64.87144030858236
20
81.72725400200017
30
0.0
 70
     32
  0
VERTEX
  8
MY3DLAYER
10
64.40381916385601
20
81.94929478486972
30
0.0
 70
     32
  0
VERTEX
  8
MY3DLAYER
10
63.93930871438472
20
82.13993085328518
30
0.0
 70
     32
  0
VERTEX
  8
MY3DLAYER
10
63.48798687721721
20
82.29601662574233
30
0.0
 70
     32
  0
VERTEX
  8
MY3DLAYER
10
63.05993156940238
20
82.41440652073689
30
0.0
 70
     32
  0
VERTEX
  8
MY3DLAYER
10
62.66522070798901
20
82.49195495676507
30
0.0
 70
     32
  0
VERTEX
  8
MY3DLAYER
10
62.31393221002612
20
82.5255163523226
30
0.0
 70
     32
  0
VERTEX
  8
MY3DLAYER
10
62.01614399256238
20
82.51194512590543
30
0.0
 70
     32
  0
VERTEX
  8
MY3DLAYER
10
61.781933972646726
20
82.4480956960093
30
0.0
 70
     32
  0
VERTEX
  8
MY3DLAYER
10
61.62138006732798
20
82.3308224811304
30
0.0
 70
     32
  0
VERTEX
  8
MY3DLAYER
10
61.58352773492507
20
82.28186135596398
30
0.0
 70
     32
  0
VERTEX
  8
MY3DLAYER
10
61.55240091345589
20
82.23380115758809
30
0.0
 70
     32
  0
VERTEX
  8
MY3DLAYER
10
61.527984497315906
20
82.18587801838697
30
0.0
 70
     32
  0
VERTEX
  8
MY3DLAYER
10
61.5102633809004
20
82.13732807074463
30
0.0
 70
     32
  0
VERTEX
  8
MY3DLAYER
10
61.499222458604834
20
82.08738744704505
30
0.0
 70
     32
  0
VERTEX
  8
MY3DLAYER
10
61.4948466248245
20
82.03529227967225
30
0.0
 70
     32
  0
VERTEX
  8
MY3DLAYER
10
61.49712077395488
20
81.98027870101039
30
0.0
 70
     32
  0
VERTEX
  8
MY3DLAYER
10
61.506029800391154
20
81.92158284344332
30
0.0
 70
     32
  0
VERTEX
  8
MY3DLAYER
10
61.521558598529005
20
81.85844083935527
30
0.0
 70
     32
  0
VERTEX
  8
MY3DLAYER
10
61.543692062763405
20
81.79008882113007
30
0.0
 70
     32
  0
VERTEX
  8
MY3DLAYER
10
61.57241508748995
20
81.7157629211519
30
0.0
 70
     32
  0
VERTEX
  8
MY3DLAYER
10
61.60771256710396
20
81.63469927180483
30
0.0
 70
     32
  0
VERTEX
  8
MY3DLAYER
10
61.662518233607976
20
81.49878215449507
30
0.0
 70
     32
  0
VERTEX
  8
MY3DLAYER
10
61.700637086831975
20
81.36943213347534
30
0.0
 70
     32
  0
VERTEX
  8
MY3DLAYER
10
61.72243999444008
20
81.24765023929763
30
0.0
 70
     32
  0
VERTEX
  8
MY3DLAYER
10
61.72829782409582
20
81.13443750251409
30
0.0
 70
     32
  0
VERTEX
  8
MY3DLAYER
10
61.71858144346293
20
81.03079495367666
30
0.0
 70
     32
  0
VERTEX
  8
MY3DLAYER
10
61.693661720205334
20
80.93772362333763
30
0.0
 70
     32
  0
VERTEX
  8
MY3DLAYER
10
61.65390952198686
20
80.85622454204884
30
0.0
 70
     32
  0
VERTEX
  8
MY3DLAYER
10
61.59969571647107
20
80.7872987403626
30
0.0
 70
     32
  0
VERTEX
  8
MY3DLAYER
10
61.531391171321914
20
80.73194724883072
30
0.0
 70
     32
  0
VERTEX
  8
MY3DLAYER
10
61.44936675420307
20
80.69117109800538
30
0.0
 70
     32
  0
VERTEX
  8
MY3DLAYER
10
61.35399333277844
20
80.66597131843861
30
0.0
 70
     32
  0
VERTEX
  8
MY3DLAYER
10
61.24564177471159
20
80.65734894068258
30
0.0
 70
     32
  0
VERTEX
  8
MY3DLAYER
10
61.067601785545435
20
80.64644485157788
30
0.0
 70
     32
  0
VERTEX
  8
MY3DLAYER
10
60.881347518294966
20
80.61368680842044
30
0.0
 70
     32
  0
VERTEX
  8
MY3DLAYER
10
60.68676206165394
20
80.55900614744489
30
0.0
 70
     32
  0
VERTEX
  8
MY3DLAYER
10
60.48372850431552
20
80.48233420488604
30
0.0
 70
     32
  0
VERTEX
  8
MY3DLAYER
10
60.27212993497331
20
80.38360231697858
30
0.0
 70
     32
  0
VERTEX
  8
MY3DLAYER
10
60.05184944232078
20
80.26274181995747
30
0.0
 70
     32
  0
VERTEX
  8
MY3DLAYER
10
59.82277011505135
20
80.11968405005724
30
0.0
 70
     32
  0
VERTEX
  8
MY3DLAYER
10
59.58477504185854
20
79.954360343513
30
0.0
 70
     32
  0
VERTEX
  8
MY3DLAYER
10
59.33774731143591
20
79.76670203655922
30
0.0
 70
     32
  0
VERTEX
  8
MY3DLAYER
10
59.08157001247663
20
79.55664046543073
30
0.0
 70
     32
  0
VERTEX
  8
MY3DLAYER
10
58.816126233674474
20
79.32410696636235
30
0.0
 70
     32
  0
VERTEX
  8
MY3DLAYER
10
58.54129906372281
20
79.06903287558885
30
0.0
 70
     32
  0
VERTEX
  8
MY3DLAYER
10
58.248802989029514
20
78.78236633667316
30
0.0
 70
     32
  0
VERTEX
  8
MY3DLAYER
10
57.969863979101824
20
78.49331297804801
30
0.0
 70
     32
  0
VERTEX
  8
MY3DLAYER
10
57.70674595377229
20
78.20498713189475
30
0.0
 70
     32
  0
VERTEX
  8
MY3DLAYER
10
57.46171283287325
20
77.92050313039563
30
0.0
 70
     32
  0
VERTEX
  8
MY3DLAYER
10
57.23702853623718
20
77.6429753057321
30
0.0
 70
     32
  0
VERTEX
  8
MY3DLAYER
10
57.034956983696404
20
77.37551799008602
30
0.0
 70
     32
  0
VERTEX
  8
MY3DLAYER
10
56.85776209508334
20
77.12124551563902
30
0.0
 70
     32
  0
VERTEX
  8
MY3DLAYER
10
56.70770779023027
20
76.88327221457294
30
0.0
 70
     32
  0
VERTEX
  8
MY3DLAYER
10
56.587057988969605
20
76.66471241906959
30
0.0
 70
     32
  0
VERTEX
  8
MY3DLAYER
10
56.49807661113385
20
76.46868046131054
30
0.0
 70
     32
  0
VERTEX
  8
MY3DLAYER
10
56.44302757655534
20
76.29829067347778
30
0.0
 70
     32
  0
VERTEX
  8
MY3DLAYER
10
56.4241748050664
20
76.156657387753
30
0.0
 70
     32
  0
VERTEX
  8
MY3DLAYER
10
56.363354491450515
20
75.95875785985281
30
0.0
 70
     32
  0
VERTEX
  8
MY3DLAYER
10
56.181051593315054
20
75.64365117731728
30
0.0
 70
     32
  0
VERTEX
  8
MY3DLAYER
10
55.87750317472828
20
75.21161136668985
30
0.0
 70
     32
  0
VERTEX
  8
MY3DLAYER
10
55.45294629975825
20
74.66291245451391
30
0.0
 70
     32
  0
VERTEX
  8
MY3DLAYER
10
54.90761803247326
20
73.997828467333
30
0.0
 70
     32
  0
VERTEX
  8
MY3DLAYER
10
54.241755436941375
20
73.21663343169058
30
0.0
 70
     32
  0
VERTEX
  8
MY3DLAYER
10
53.45559557723096
20
72.31960137413016
30
0.0
 70
     32
  0
VERTEX
  8
MY3DLAYER
10
52.549375517410056
20
71.30700632119523
30
0.0
 70
     32
  0
VERTEX
  8
MY3DLAYER
10
51.523332321547066
20
70.17912229942927
30
0.0
 70
     32
  0
VERTEX
  8
MY3DLAYER
10
50.37770305370993
20
68.93622333537567
30
0.0
 70
     32
  0
VERTEX
  8
MY3DLAYER
10
49.11272477796695
20
67.57858345557791
30
0.0
 70
     32
  0
VERTEX
  8
MY3DLAYER
10
47.72863455838638
20
66.10647668657975
30
0.0
 70
     32
  0
VERTEX
  8
MY3DLAYER
10
46.38755526461538
20
64.68066995521008
30
0.0
 70
     32
  0
VERTEX
  8
MY3DLAYER
10
45.17979316454393
20
63.385483300887124
30
0.0
 70
     32
  0
VERTEX
  8
MY3DLAYER
10
44.10020803065752
20
62.21493450870519
30
0.0
 70
     32
  0
VERTEX
  8
MY3DLAYER
10
43.14365963544116
20
61.16304136375886
30
0.0
 70
     32
  0
VERTEX
  8
MY3DLAYER
10
42.305007751380195
20
60.22382165114234
30
0.0
 70
     32
  0
VERTEX
  8
MY3DLAYER
10
41.579112150959745
20
59.39129315595005
30
0.0
 70
     32
  0
VERTEX
  8
MY3DLAYER
10
40.96083260666505
20
58.65947366327633
30
0.0
 70
     32
  0
VERTEX
  8
MY3DLAYER
10
40.44502889098122
20
58.02238095821558
30
0.0
 70
     32
  0
VERTEX
  8
MY3DLAYER
10
40.02656077639349
20
57.47403282586224
30
0.0
 70
     32
  0
VERTEX
  8
MY3DLAYER
10
39.70028803538722
20
57.00844705131051
30
0.0
 70
     32
  0
VERTEX
  8
MY3DLAYER
10
39.461070440447315
20
56.61964141965502
30
0.0
 70
     32
  0
VERTEX
  8
MY3DLAYER
10
39.303767764059195
20
56.301633715989894
30
0.0
 70
     32
  0
VERTEX
  8
MY3DLAYER
10
39.257340690579056
20
56.20113408863898
30
0.0
 70
     32
  0
VERTEX
  8
MY3DLAYER
10
39.196399856977834
20
56.08748085528736
30
0.0
 70
     32
  0
VERTEX
  8
MY3DLAYER
10
39.12239802129993
20
55.96266296291653
30
0.0
 70
     32
  0
VERTEX
  8
MY3DLAYER
10
39.03678794158941
20
55.82866935850841
30
0.0
 70
     32
  0
VERTEX
  8
MY3DLAYER
10
38.94102237589084
20
55.687488989044816
30
0.0
 70
     32
  0
VERTEX
  8
MY3DLAYER
10
38.8365540822483
20
55.54111080150734
30
0.0
 70
     32
  0
VERTEX
  8
MY3DLAYER
10
38.72483581870612
20
55.39152374287773
30
0.0
 70
     32
  0
VERTEX
  8
MY3DLAYER
10
38.60732034330854
20
55.240716760137744
30
0.0
 70
     32
  0
VERTEX
  8
MY3DLAYER
10
38.48546041409993
20
55.090678800269224
30
0.0
 70
     32
  0
VERTEX
  8
MY3DLAYER
10
38.36070878912451
20
54.9433988102539
30
0.0
 70
     32
  0
VERTEX
  8
MY3DLAYER
10
38.234518226426594
20
54.80086573707338
30
0.0
 70
     32
  0
VERTEX
  8
MY3DLAYER
10
38.1083414840504
20
54.66506852770954
30
0.0
 70
     32
  0
VERTEX
  8
MY3DLAYER
10
37.9639301500472
20
54.509389043522816
30
0.0
 70
     32
  0
VERTEX
  8
MY3DLAYER
10
37.825534773155766
20
54.351546682510346
30
0.0
 70
     32
  0
VERTEX
  8
MY3DLAYER
10
37.693446604122386
20
54.19197986736808
30
0.0
 70
     32
  0
VERTEX
  8
MY3DLAYER
10
37.56795689369313
20
54.031127020791885
30
0.0
 70
     32
  0
VERTEX
  8
MY3DLAYER
10
37.449356892614425
20
53.86942656547793
30
0.0
 70
     32
  0
VERTEX
  8
MY3DLAYER
10
37.33793785163241
20
53.70731692412208
30
0.0
 70
     32
  0
VERTEX
  8
MY3DLAYER
10
37.233991021493324
20
53.54523651942034
30
0.0
 70
     32
  0
VERTEX
  8
MY3DLAYER
10
37.13780765294345
20
53.3836237740687
30
0.0
 70
     32
  0
VERTEX
  8
MY3DLAYER
10
37.04967899672905
20
53.22291711076321
30
0.0
 70
     32
  0
VERTEX
  8
MY3DLAYER
10
36.96989630359625
20
53.06355495219976
30
0.0
 70
     32
  0
VERTEX
  8
MY3DLAYER
10
36.89875082429136
20
52.905975721074405
30
0.0
 70
     32
  0
VERTEX
  8
MY3DLAYER
10
36.83653380956058
20
52.75061784008313
30
0.0
 70
     32
  0
VERTEX
  8
MY3DLAYER
10
36.52221761600349
20
51.75741322117725
30
0.0
 70
     32
  0
VERTEX
  8
MY3DLAYER
10
36.27811014711224
20
50.64846332271424
30
0.0
 70
     32
  0
VERTEX
  8
MY3DLAYER
10
36.10404309438995
20
49.42758637404077
30
0.0
 70
     32
  0
VERTEX
  8
MY3DLAYER
10
35.99984814933944
20
48.09860060450366
30
0.0
 70
     32
  0
VERTEX
  8
MY3DLAYER
10
35.965357003463794
20
46.66532424344973
30
0.0
 70
     32
  0
VERTEX
  8
MY3DLAYER
10
36.000401348265875
20
45.13157552022581
30
0.0
 70
     32
  0
VERTEX
  8
MY3DLAYER
10
36.10481287524869
20
43.50117266417863
30
0.0
 70
     32
  0
VERTEX
  8
MY3DLAYER
10
36.27842327591515
20
41.777933904655015
30
0.0
 70
     32
  0
VERTEX
  8
MY3DLAYER
10
36.52106424176824
20
39.965677471001726
30
0.0
 70
     32
  0
VERTEX
  8
MY3DLAYER
10
36.832567464310884
20
38.06822159256557
30
0.0
 70
     32
  0
VERTEX
  8
MY3DLAYER
10
37.212764635046064
20
36.08938449869337
30
0.0
 70
     32
  0
VERTEX
  8
MY3DLAYER
10
37.661487445476844
20
34.03298441873191
30
0.0
 70
     32
  0
VERTEX
  8
MY3DLAYER
10
37.75887885750956
20
33.608476772920326
30
0.0
 70
     32
  0
VERTEX
  8
MY3DLAYER
10
37.86159977261357
20
33.15659827291848
30
0.0
 70
     32
  0
VERTEX
  8
MY3DLAYER
10
37.968192213931225
20
32.6839658868162
30
0.0
 70
     32
  0
VERTEX
  8
MY3DLAYER
10
38.077198204604805
20
32.19719658270337
30
0.0
 70
     32
  0
VERTEX
  8
MY3DLAYER
10
38.18715976777671
20
31.702907328669866
30
0.0
 70
     32
  0
VERTEX
  8
MY3DLAYER
10
38.29661892658926
20
31.207715092805454
30
0.0
 70
     32
  0
VERTEX
  8
MY3DLAYER
10
38.4041177041848
20
30.71823684320013
30
0.0
 70
     32
  0
VERTEX
  8
MY3DLAYER
10
38.508198123705576
20
30.24108954794364
30
0.0
 70
     32
  0
VERTEX
  8
MY3DLAYER
10
38.60740220829408
20
29.78289017512586
30
0.0
 70
     32
  0
VERTEX
  8
MY3DLAYER
10
38.700271981092556
20
29.350255692836672
30
0.0
 70
     32
  0
VERTEX
  8
MY3DLAYER
10
38.785349465243364
20
28.949803069165945
30
0.0
 70
     32
  0
VERTEX
  8
MY3DLAYER
10
38.86117668388881
20
28.588149272203502
30
0.0
 70
     32
  0
VERTEX
  8
MY3DLAYER
10
39.14520253148147
20
27.33816510633448
30
0.0
 70
     32
  0
VERTEX
  8
MY3DLAYER
10
39.48490446690971
20
26.04654810741732
30
0.0
 70
     32
  0
VERTEX
  8
MY3DLAYER
10
39.87670859168655
20
24.722253328432636
30
0.0
 70
     32
  0
VERTEX
  8
MY3DLAYER
10
40.31704100732493
20
23.374235822360998
30
0.0
 70
     32
  0
VERTEX
  8
MY3DLAYER
10
40.802327815337755
20
22.011450642183043
30
0.0
 70
     32
  0
VERTEX
  8
MY3DLAYER
10
41.328995117238115
20
20.642852840879353
30
0.0
 70
     32
  0
VERTEX
  8
MY3DLAYER
10
41.893469014538915
20
19.27739747143055
30
0.0
 70
     32
  0
VERTEX
  8
MY3DLAYER
10
42.49217560875306
20
17.924039586817244
30
0.0
 70
     32
  0
VERTEX
  8
MY3DLAYER
10
43.12154100139364
20
16.591734240020056
30
0.0
 70
     32
  0
VERTEX
  8
MY3DLAYER
10
43.7779912939735
20
15.289436484019557
30
0.0
 70
     32
  0
VERTEX
  8
MY3DLAYER
10
44.457952588005725
20
14.026101371796393
30
0.0
 70
     32
  0
VERTEX
  8
MY3DLAYER
10
45.157850985003165
20
12.810683956331127
30
0.0
 70
     32
  0
VERTEX
  8
MY3DLAYER
10
45.461192595457035
20
12.292041144963969
30
0.0
 70
     32
  0
VERTEX
  8
MY3DLAYER
10
45.74171586599151
20
11.791906463312758
30
0.0
 70
     32
  0
VERTEX
  8
MY3DLAYER
10
45.99921594935404
20
11.310759957464644
30
0.0
 70
     32
  0
VERTEX
  8
MY3DLAYER
10
46.233487998291785
20
10.849081673506786
30
0.0
 70
     32
  0
VERTEX
  8
MY3DLAYER
10
46.444327165552096
20
10.407351657526332
30
0.0
 70
     32
  0
VERTEX
  8
MY3DLAYER
10
46.631528603882245
20
9.986049955610422
30
0.0
 70
     32
  0
VERTEX
  8
MY3DLAYER
10
46.794887466029515
20
9.585656613846218
30
0.0
 70
     32
  0
VERTEX
  8
MY3DLAYER
10
46.934198904741194
20
9.206651678320855
30
0.0
 70
     32
  0
VERTEX
  8
MY3DLAYER
10
47.04925807276464
20
8.849515195121496
30
0.0
 70
     32
  0
VERTEX
  8
MY3DLAYER
10
47.139860122847104
20
8.514727210335284
30
0.0
 70
     32
  0
VERTEX
  8
MY3DLAYER
10
47.205800207735805
20
8.20276777004938
30
0.0
 70
     32
  0
VERTEX
  8
MY3DLAYER
10
47.2468734801782
20
7.914116920350921
30
0.0
 70
     32
  0
VERTEX
  8
MY3DLAYER
10
47.26419551037984
20
7.7319621816673605
30
0.0
 70
     32
  0
VERTEX
  8
MY3DLAYER
10
47.27552939360115
20
7.5718414425672895
30
0.0
 70
     32
  0
VERTEX
  8
MY3DLAYER
10
47.28006687053342
20
7.430598147208311
30
0.0
 70
     32
  0
VERTEX
  8
MY3DLAYER
10
47.27699968186792
20
7.30507573974805
30
0.0
 70
     32
  0
VERTEX
  8
MY3DLAYER
10
47.26551956829605
20
7.192117664344116
30
0.0
 70
     32
  0
VERTEX
  8
MY3DLAYER
10
47.244818270509136
20
7.088567365154117
30
0.0
 70
     32
  0
VERTEX
  8
MY3DLAYER
10
47.21408752919838
20
6.9912682863356705
30
0.0
 70
     32
  0
VERTEX
  8
MY3DLAYER
10
47.17251908505526
20
6.897063872046387
30
0.0
 70
     32
  0
VERTEX
  8
MY3DLAYER
10
47.119304678771094
20
6.802797566443877
30
0.0
 70
     32
  0
VERTEX
  8
MY3DLAYER
10
47.05363605103708
20
6.705312813685753
30
0.0
 70
     32
  0
VERTEX
  8
MY3DLAYER
10
46.97470494254463
20
6.6014530579296276
30
0.0
 70
     32
  0
VERTEX
  8
MY3DLAYER
10
46.88170309398503
20
6.488061743333124
30
0.0
 70
     32
  0
VERTEX
  8
MY3DLAYER
10
46.71824255207475
20
6.308758069235312
30
0.0
 70
     32
  0
VERTEX
  8
MY3DLAYER
10
46.54778577770026
20
6.151299733557962
30
0.0
 70
     32
  0
VERTEX
  8
MY3DLAYER
10
46.36991571775866
20
6.015564584995173
30
0.0
 70
     32
  0
VERTEX
  8
MY3DLAYER
10
46.18421531914707
20
5.901430472241054
30
0.0
 70
     32
  0
VERTEX
  8
MY3DLAYER
10
45.990267528762594
20
5.808775243989705
30
0.0
 70
     32
  0
VERTEX
  8
MY3DLAYER
10
45.78765529350227
20
5.737476748935244
30
0.0
 70
     32
  0
VERTEX
  8
MY3DLAYER
10
45.57596156026328
20
5.687412835771767
30
0.0
 70
     32
  0
VERTEX
  8
MY3DLAYER
10
45.35476927594271
20
5.6584613531933865
30
0.0
 70
     32
  0
VERTEX
  8
MY3DLAYER
10
45.12366138743765
20
5.6505001498942065
30
0.0
 70
     32
  0
VERTEX
  8
MY3DLAYER
10
44.882220841645136
20
5.663407074568331
30
0.0
 70
     32
  0
VERTEX
  8
MY3DLAYER
10
44.630030585462386
20
5.697059975909862
30
0.0
 70
     32
  0
VERTEX
  8
MY3DLAYER
10
44.366673565786414
20
5.751336702612916
30
0.0
 70
     32
  0
VERTEX
  8
MY3DLAYER
10
43.95445550045632
20
5.869761552122656
30
0.0
 70
     32
  0
VERTEX
  8
MY3DLAYER
10
43.567389608616
20
6.020732235408705
30
0.0
 70
     32
  0
VERTEX
  8
MY3DLAYER
10
43.2063371498374
20
6.2033134478948195
30
0.0
 70
     32
  0
VERTEX
  8
MY3DLAYER
10
42.87215938369209
20
6.416569885004784
30
0.0
 70
     32
  0
VERTEX
  8
MY3DLAYER
10
42.565717569752024
20
6.659566242162347
30
0.0
 70
     32
  0
VERTEX
  8
MY3DLAYER
10
42.287872967588825
20
6.93136721479127
30
0.0
 70
     32
  0
VERTEX
  8
MY3DLAYER
10
42.03948683677435
20
7.231037498315318
30
0.0
 70
     32
  0
VERTEX
  8
MY3DLAYER
10
41.82142043688025
20
7.557641788158253
30
0.0
 70
     32
  0
VERTEX
  8
MY3DLAYER
10
41.63453502747846
20
7.910244779743843
30
0.0
 70
     32
  0
VERTEX
  8
MY3DLAYER
10
41.47969186814061
20
8.287911168495837
30
0.0
 70
     32
  0
VERTEX
  8
MY3DLAYER
10
41.35775221843857
20
8.68970564983801
30
0.0
 70
     32
  0
VERTEX
  8
MY3DLAYER
10
41.26957733794401
20
9.114692919194118
30
0.0
 70
     32
  0
VERTEX
  8
MY3DLAYER
10
41.209550393423044
20
9.43017137568263
30
0.0
 70
     32
  0
VERTEX
  8
MY3DLAYER
10
41.13272874248161
20
9.733252904676668
30
0.0
 70
     32
  0
VERTEX
  8
MY3DLAYER
10
41.036159836153
20
10.028728765269857
30
0.0
 70
     32
  0
VERTEX
  8
MY3DLAYER
10
40.91689112547005
20
10.321390216555855
30
0.0
 70
     32
  0
VERTEX
  8
MY3DLAYER
10
40.77197006146598
20
10.616028517628305
30
0.0
 70
     32
  0
VERTEX
  8
MY3DLAYER
10
40.59844409517378
20
10.917434927580846
30
0.0
 70
     32
  0
VERTEX
  8
MY3DLAYER
10
40.39336067762658
20
11.230400705507122
30
0.0
 70
     32
  0
VERTEX
  8
MY3DLAYER
10
40.153767259857325
20
11.55971711050079
30
0.0
 70
     32
  0
VERTEX
  8
MY3DLAYER
10
39.87671129289918
20
11.910175401655483
30
0.0
 70
     32
  0
VERTEX
  8
MY3DLAYER
10
39.55924022778517
20
12.286566838064832
30
0.0
 70
     32
  0
VERTEX
  8
MY3DLAYER
10
39.19840151554837
20
12.693682678822498
30
0.0
 70
     32
  0
VERTEX
  8
MY3DLAYER
10
38.79124260722183
20
13.136314183022128
30
0.0
 70
     32
  0
VERTEX
  8
MY3DLAYER
10
38.41977034968389
20
13.541627520495048
30
0.0
 70
     32
  0
VERTEX
  8
MY3DLAYER
10
38.08902872018257
20
13.91925049093247
30
0.0
 70
     32
  0
VERTEX
  8
MY3DLAYER
10
37.79645750587574
20
14.273576268840364
30
0.0
 70
     32
  0
VERTEX
  8
MY3DLAYER
10
37.539496493921106
20
14.608998028724661
30
0.0
 70
     32
  0
VERTEX
  8
MY3DLAYER
10
37.31558547147669
20
14.929908945091327
30
0.0
 70
     32
  0
VERTEX
  8
MY3DLAYER
10
37.12216422570021
20
15.240702192446344
30
0.0
 70
     32
  0
VERTEX
  8
MY3DLAYER
10
36.95667254374951
20
15.54577094529565
30
0.0
 70
     32
  0
VERTEX
  8
MY3DLAYER
10
36.816550212782474
20
15.849508378145183
30
0.0
 70
     32
  0
VERTEX
  8
MY3DLAYER
10
36.6992370199569
20
16.15630766550094
30
0.0
 70
     32
  0
VERTEX
  8
MY3DLAYER
10
36.6021727524306
20
16.470561981868837
30
0.0
 70
     32
  0
VERTEX
  8
MY3DLAYER
10
36.522797197361534
20
16.79666450175484
30
0.0
 70
     32
  0
VERTEX
  8
MY3DLAYER
10
36.4585501419074
20
17.139008399664917
30
0.0
 70
     32
  0
VERTEX
  8
MY3DLAYER
10
36.19882778093572
20
18.387862236938304
30
0.0
 70
     32
  0
VERTEX
  8
MY3DLAYER
10
35.757280725912295
20
20.119903992947112
30
0.0
 70
     32
  0
VERTEX
  8
MY3DLAYER
10
35.15909047172519
20
22.257048334172367
30
0.0
 70
     32
  0
VERTEX
  8
MY3DLAYER
10
34.42943851326212
20
24.72120992709506
30
0.0
 70
     32
  0
VERTEX
  8
MY3DLAYER
10
33.593506345411136
20
27.434303438196213
30
0.0
 70
     32
  0
VERTEX
  8
MY3DLAYER
10
32.676475463060086
20
30.318243533956874
30
0.0
 70
     32
  0
VERTEX
  8
MY3DLAYER
10
31.70352736109689
20
33.29494488085809
30
0.0
 70
     32
  0
VERTEX
  8
MY3DLAYER
10
30.699843534409293
20
36.286322145380794
30
0.0
 70
     32
  0
VERTEX
  8
MY3DLAYER
10
29.69060547788535
20
39.21428999400605
30
0.0
 70
     32
  0
VERTEX
  8
MY3DLAYER
10
28.700994686412873
20
42.00076309321488
30
0.0
 70
     32
  0
VERTEX
  8
MY3DLAYER
10
27.756192654879786
20
44.56765610948833
30
0.0
 70
     32
  0
VERTEX
  8
MY3DLAYER
10
26.881380878174003
20
46.836883709307315
30
0.0
 70
     32
  0
VERTEX
  8
MY3DLAYER
10
26.51563017382142
20
47.773238118004706
30
0.0
 70
     32
  0
VERTEX
  8
MY3DLAYER
10
26.19418855804036
20
48.62981372708192
30
0.0
 70
     32
  0
VERTEX
  8
MY3DLAYER
10
25.915332134598717
20
49.41363832905308
30
0.0
 70
     32
  0
VERTEX
  8
MY3DLAYER
10
25.677337007263898
20
50.131739716432534
30
0.0
 70
     32
  0
VERTEX
  8
MY3DLAYER
10
25.478479279803857
20
50.7911456817346
30
0.0
 70
     32
  0
VERTEX
  8
MY3DLAYER
10
25.317035055986086
20
51.398884017473485
30
0.0
 70
     32
  0
VERTEX
  8
MY3DLAYER
10
25.191280439578335
20
51.96198251616352
30
0.0
 70
     32
  0
VERTEX
  8
MY3DLAYER
10
25.09949153434824
20
52.48746897031893
30
0.0
 70
     32
  0
VERTEX
  8
MY3DLAYER
10
25.039944444063575
20
52.982371172453995
30
0.0
 70
     32
  0
VERTEX
  8
MY3DLAYER
10
25.010915272491953
20
53.45371691508292
30
0.0
 70
     32
  0
VERTEX
  8
MY3DLAYER
10
25.010680123401087
20
53.90853399072006
30
0.0
 70
     32
  0
VERTEX
  8
MY3DLAYER
10
25.037515100558625
20
54.353850191879744
30
0.0
 70
     32
  0
VERTEX
  8
MY3DLAYER
10
25.054601925173483
20
54.55427079976062
30
0.0
 70
     32
  0
VERTEX
  8
MY3DLAYER
10
25.066867618461036
20
54.72626649438818
30
0.0
 70
     32
  0
VERTEX
  8
MY3DLAYER
10
25.073864174599994
20
54.871933395561136
30
0.0
 70
     32
  0
VERTEX
  8
MY3DLAYER
10
25.075143587768622
20
54.99336762307855
30
0.0
 70
     32
  0
VERTEX
  8
MY3DLAYER
10
25.070257852145673
20
55.092665296739156
30
0.0
 70
     32
  0
VERTEX
  8
MY3DLAYER
10
25.058758961909376
20
55.17192253634196
30
0.0
 70
     32
  0
VERTEX
  8
MY3DLAYER
10
25.040198911238413
20
55.23323546168593
30
0.0
 70
     32
  0
VERTEX
  8
MY3DLAYER
10
25.01412969431111
20
55.27870019256972
30
0.0
 70
     32
  0
VERTEX
  8
MY3DLAYER
10
24.980103305306134
20
55.31041284879242
30
0.0
 70
     32
  0
VERTEX
  8
MY3DLAYER
10
24.937671738401875
20
55.33046955015281
30
0.0
 70
     32
  0
VERTEX
  8
MY3DLAYER
10
24.886386987776845
20
55.34096641644989
30
0.0
 70
     32
  0
VERTEX
  8
MY3DLAYER
10
24.825801047609577
20
55.34399956748246
30
0.0
 70
     32
  0
VERTEX
  8
MY3DLAYER
10
24.770397147845102
20
55.3289863407915
30
0.0
 70
     32
  0
VERTEX
  8
MY3DLAYER
10
24.68841999665045
20
55.28527276190486
30
0.0
 70
     32
  0
VERTEX
  8
MY3DLAYER
10
24.58218885164102
20
55.21484798260214
30
0.0
 70
     32
  0
VERTEX
  8
MY3DLAYER
10
24.454022970432295
20
55.11970115466294
30
0.0
 70
     32
  0
VERTEX
  8
MY3DLAYER
10
24.30624161063967
20
55.00182142986672
30
0.0
 70
     32
  0
VERTEX
  8
MY3DLAYER
10
24.14116402987851
20
54.86319795999317
30
0.0
 70
     32
  0
VERTEX
  8
MY3DLAYER
10
23.961109485764233
20
54.70581989682176
30
0.0
 70
     32
  0
VERTEX
  8
MY3DLAYER
10
23.76839723591227
20
54.53167639213213
30
0.0
 70
     32
  0
VERTEX
  8
MY3DLAYER
10
23.565346537938037
20
54.34275659770374
30
0.0
 70
     32
  0
VERTEX
  8
MY3DLAYER
10
23.354276649456956
20
54.14104966531631
30
0.0
 70
     32
  0
VERTEX
  8
MY3DLAYER
10
23.137506828084387
20
53.928544746749225
30
0.0
 70
     32
  0
VERTEX
  8
MY3DLAYER
10
22.917356331435805
20
53.707230993782076
30
0.0
 70
     32
  0
VERTEX
  8
MY3DLAYER
10
22.268957190769505
20
53.03043561861899
30
0.0
 70
     32
  0
VERTEX
  8
MY3DLAYER
10
21.649983626684936
20
52.35031475059905
30
0.0
 70
     32
  0
VERTEX
  8
MY3DLAYER
10
21.060852692285195
20
51.66746425250686
30
0.0
 70
     32
  0
VERTEX
  8
MY3DLAYER
10
20.501981440672935
20
50.982479987127064
30
0.0
 70
     32
  0
VERTEX
  8
MY3DLAYER
10
19.973786924951234
20
50.29595781724437
30
0.0
 70
     32
  0
VERTEX
  8
MY3DLAYER
10
19.47668619822296
20
49.60849360564339
30
0.0
 70
     32
  0
VERTEX
  8
MY3DLAYER
10
19.01109631359093
20
48.92068321510877
30
0.0
 70
     32
  0
VERTEX
  8
MY3DLAYER
10
18.57743432415806
20
48.233122508425204
30
0.0
 70
     32
  0
VERTEX
  8
MY3DLAYER
10
18.17611728302739
20
47.54640734837731
30
0.0
 70
     32
  0
VERTEX
  8
MY3DLAYER
10
17.807562243301675
20
46.86113359774973
30
0.0
 70
     32
  0
VERTEX
  8
MY3DLAYER
10
17.472186258083845
20
46.177897119327135
30
0.0
 70
     32
  0
VERTEX
  8
MY3DLAYER
10
17.17040638047682
20
45.49729377589411
30
0.0
 70
     32
  0
VERTEX
  8
MY3DLAYER
10
16.984567210157067
20
45.06203080423022
30
0.0
 70
     32
  0
VERTEX
  8
MY3DLAYER
10
16.809877070664168
20
44.669674303249245
30
0.0
 70
     32
  0
VERTEX
  8
MY3DLAYER
10
16.644912892575668
20
44.317946892958766
30
0.0
 70
     32
  0
VERTEX
  8
MY3DLAYER
10
16.488251606468825
20
44.00457119336628
30
0.0
 70
     32
  0
VERTEX
  8
MY3DLAYER
10
16.338470142921327
20
43.72726982447931
30
0.0
 70
     32
  0
VERTEX
  8
MY3DLAYER
10
16.194145432510492
20
43.483765406305416
30
0.0
 70
     32
  0
VERTEX
  8
MY3DLAYER
10
16.053854405813773
20
43.27178055885207
30
0.0
 70
     32
  0
VERTEX
  8
MY3DLAYER
10
15.916173993408538
20
43.08903790212681
30
0.0
 70
     32
  0
VERTEX
  8
MY3DLAYER
10
15.779681125872347
20
42.933260056137215
30
0.0
 70
     32
  0
VERTEX
  8
MY3DLAYER
10
15.64295273378261
20
42.80216964089067
30
0.0
 70
     32
  0
VERTEX
  8
MY3DLAYER
10
15.504565747716729
20
42.69348927639492
30
0.0
 70
     32
  0
VERTEX
  8
MY3DLAYER
10
15.3630970982522
20
42.60494158265733
30
0.0
 70
     32
  0
VERTEX
  8
MY3DLAYER
10
15.286246330710616
20
42.55899698694419
30
0.0
 70
     32
  0
VERTEX
  8
MY3DLAYER
10
15.212914950126276
20
42.508139284497226
30
0.0
 70
     32
  0
VERTEX
  8
MY3DLAYER
10
15.143417073981203
20
42.452767117801656
30
0.0
 70
     32
  0
VERTEX
  8
MY3DLAYER
10
15.078066819757401
20
42.39327912934271
30
0.0
 70
     32
  0
VERTEX
  8
MY3DLAYER
10
15.01717830493694
20
42.33007396160542
30
0.0
 70
     32
  0
VERTEX
  8
MY3DLAYER
10
14.961065647001739
20
42.26355025707518
30
0.0
 70
     32
  0
VERTEX
  8
MY3DLAYER
10
14.910042963433813
20
42.19410665823717
30
0.0
 70
     32
  0
VERTEX
  8
MY3DLAYER
10
14.864424371715094
20
42.12214180757641
30
0.0
 70
     32
  0
VERTEX
  8
MY3DLAYER
10
14.824523989327732
20
42.04805434757822
30
0.0
 70
     32
  0
VERTEX
  8
MY3DLAYER
10
14.790655933753637
20
41.97224292072782
30
0.0
 70
     32
  0
VERTEX
  8
MY3DLAYER
10
14.763134322474754
20
41.895106169510306
30
0.0
 70
     32
  0
VERTEX
  8
MY3DLAYER
10
14.742273272973197
20
41.817042736410926
30
0.0
 70
     32
  0
VERTEX
  8
MY3DLAYER
10
14.638812123215365
20
41.35805028992507
30
0.0
 70
     32
  0
VERTEX
  8
MY3DLAYER
10
14.542225379467423
20
40.94504888706222
30
0.0
 70
     32
  0
VERTEX
  8
MY3DLAYER
10
14.450136461910887
20
40.57057971358164
30
0.0
 70
     32
  0
VERTEX
  8
MY3DLAYER
10
14.36016879072698
20
40.22718395524246
30
0.0
 70
     32
  0
VERTEX
  8
MY3DLAYER
10
14.269945786097104
20
39.907402797803925
30
0.0
 70
     32
  0
VERTEX
  8
MY3DLAYER
10
14.177090868202505
20
39.60377742702521
30
0.0
 70
     32
  0
VERTEX
  8
MY3DLAYER
10
14.079227457224528
20
39.30884902866548
30
0.0
 70
     32
  0
VERTEX
  8
MY3DLAYER
10
13.973978973344396
20
39.01515878848399
30
0.0
 70
     32
  0
VERTEX
  8
MY3DLAYER
10
13.858968836743593
20
38.71524789223994
30
0.0
 70
     32
  0
VERTEX
  8
MY3DLAYER
10
13.731820467603336
20
38.40165752569235
30
0.0
 70
     32
  0
VERTEX
  8
MY3DLAYER
10
13.590157286104988
20
38.06692887460064
30
0.0
 70
     32
  0
VERTEX
  8
MY3DLAYER
10
13.431602712429825
20
37.70360312472392
30
0.0
 70
     32
  0
VERTEX
  8
MY3DLAYER
10
13.182068235519644
20
37.129764962506705
30
0.0
 70
     32
  0
VERTEX
  8
MY3DLAYER
10
12.964741527682897
20
36.61032571243142
30
0.0
 70
     32
  0
VERTEX
  8
MY3DLAYER
10
12.778190917988846
20
36.139853889175
30
0.0
 70
     32
  0
VERTEX
  8
MY3DLAYER
10
12.620984735506212
20
35.71291800741447
30
0.0
 70
     32
  0
VERTEX
  8
MY3DLAYER
10
12.491691309304416
20
35.32408658182672
30
0.0
 70
     32
  0
VERTEX
  8
MY3DLAYER
10
12.388878968452335
20
34.9679281270888
30
0.0
 70
     32
  0
VERTEX
  8
MY3DLAYER
10
12.311116042019066
20
34.639011157877604
30
0.0
 70
     32
  0
VERTEX
  8
MY3DLAYER
10
12.256970859073542
20
34.33190418887018
30
0.0
 70
     32
  0
VERTEX
  8
MY3DLAYER
10
12.225011748684958
20
34.04117573474342
30
0.0
 70
     32
  0
VERTEX
  8
MY3DLAYER
10
12.213807039922395
20
33.76139431017435
30
0.0
 70
     32
  0
VERTEX
  8
MY3DLAYER
10
12.221925061854769
20
33.487128429839956
30
0.0
 70
     32
  0
VERTEX
  8
MY3DLAYER
10
12.247934143551227
20
33.2129466084171
30
0.0
 70
     32
  0
VERTEX
  8
MY3DLAYER
10
12.271321667219816
20
33.01894890739179
30
0.0
 70
     32
  0
VERTEX
  8
MY3DLAYER
10
12.288767674252734
20
32.85350354623511
30
0.0
 70
     32
  0
VERTEX
  8
MY3DLAYER
10
12.299599347319521
20
32.7139337115261
30
0.0
 70
     32
  0
VERTEX
  8
MY3DLAYER
10
12.303143869089537
20
32.597562589843776
30
0.0
 70
     32
  0
VERTEX
  8
MY3DLAYER
10
12.298728422232331
20
32.50171336776719
30
0.0
 70
     32
  0
VERTEX
  8
MY3DLAYER
10
12.285680189417251
20
32.42370923187533
30
0.0
 70
     32
  0
VERTEX
  8
MY3DLAYER
10
12.263326353313825
20
32.360873368747285
30
0.0
 70
     32
  0
VERTEX
  8
MY3DLAYER
10
12.230994096591457
20
32.31052896496207
30
0.0
 70
     32
  0
VERTEX
  8
MY3DLAYER
10
12.188010601919688
20
32.269999207098635
30
0.0
 70
     32
  0
VERTEX
  8
MY3DLAYER
10
12.133703051967938
20
32.23660728173615
30
0.0
 70
     32
  0
VERTEX
  8
MY3DLAYER
10
12.067398629405584
20
32.207676375453545
30
0.0
 70
     32
  0
VERTEX
  8
MY3DLAYER
10
11.988424516902194
20
32.180529674829906
30
0.0
 70
     32
  0
VERTEX
  8
MY3DLAYER
10
11.836359438798727
20
32.09855524956485
30
0.0
 70
     32
  0
VERTEX
  8
MY3DLAYER
10
11.679227945139132
20
31.94651326182691
30
0.0
 70
     32
  0
VERTEX
  8
MY3DLAYER
10
11.516346237192543
20
31.722627549568056
30
0.0
 70
     32
  0
VERTEX
  8
MY3DLAYER
10
11.347030516228198
20
31.425121950740248
30
0.0
 70
     32
  0
VERTEX
  8
MY3DLAYER
10
11.170596983515235
20
31.052220303295375
30
0.0
 70
     32
  0
VERTEX
  8
MY3DLAYER
10
10.986361840322928
20
30.602146445185333
30
0.0
 70
     32
  0
VERTEX
  8
MY3DLAYER
10
10.793641287920279
20
30.073124214362164
30
0.0
 70
     32
  0
VERTEX
  8
MY3DLAYER
10
10.591751527576617
20
29.46337744877776
30
0.0
 70
     32
  0
VERTEX
  8
MY3DLAYER
10
10.380008760561026
20
28.771129986384057
30
0.0
 70
     32
  0
VERTEX
  8
MY3DLAYER
10
10.157729188142708
20
27.99460566513299
30
0.0
 70
     32
  0
VERTEX
  8
MY3DLAYER
10
9.924229011590848
20
27.132028322976502
30
0.0
 70
     32
  0
VERTEX
  8
MY3DLAYER
10
9.678824432174606
20
26.18162179786652
30
0.0
 70
     32
  0
VERTEX
  8
MY3DLAYER
10
9.548690426272778
20
25.67184568216816
30
0.0
 70
     32
  0
VERTEX
  8
MY3DLAYER
10
9.412772018972108
20
25.148453957775878
30
0.0
 70
     32
  0
VERTEX
  8
MY3DLAYER
10
9.27293269387358
20
24.618174303655564
30
0.0
 70
     32
  0
VERTEX
  8
MY3DLAYER
10
9.131035934577916
20
24.08773439877308
30
0.0
 70
     32
  0
VERTEX
  8
MY3DLAYER
10
8.988945224685962
20
23.563861922094265
30
0.0
 70
     32
  0
VERTEX
  8
MY3DLAYER
10
8.848524047798394
20
23.053284552585026
30
0.0
 70
     32
  0
VERTEX
  8
MY3DLAYER
10
8.711635887516017
20
22.56272996921126
30
0.0
 70
     32
  0
VERTEX
  8
MY3DLAYER
10
8.580144227439659
20
22.098925850938773
30
0.0
 70
     32
  0
VERTEX
  8
MY3DLAYER
10
8.45591255117011
20
21.66859987673356
30
0.0
 70
     32
  0
VERTEX
  8
MY3DLAYER
10
8.340804342308077
20
21.278479725561365
30
0.0
 70
     32
  0
VERTEX
  8
MY3DLAYER
10
8.236683084454402
20
20.935293076388145
30
0.0
 70
     32
  0
VERTEX
  8
MY3DLAYER
10
8.145412261209803
20
20.645767608179728
30
0.0
 70
     32
  0
VERTEX
  8
MY3DLAYER
10
7.926739872809067
20
19.959745543977398
30
0.0
 70
     32
  0
VERTEX
  8
MY3DLAYER
10
7.73670696221787
20
19.340019549175803
30
0.0
 70
     32
  0
VERTEX
  8
MY3DLAYER
10
7.573467481897926
20
18.776887425979556
30
0.0
 70
     32
  0
VERTEX
  8
MY3DLAYER
10
7.4351753843110515
20
18.260646976593243
30
0.0
 70
     32
  0
VERTEX
  8
MY3DLAYER
10
7.319984621919132
20
17.781596003221566
30
0.0
 70
     32
  0
VERTEX
  8
MY3DLAYER
10
7.226049147183789
20
17.330032308069097
30
0.0
 70
     32
  0
VERTEX
  8
MY3DLAYER
10
7.1515229125669695
20
16.89625369334049
30
0.0
 70
     32
  0
VERTEX
  8
MY3DLAYER
10
7.094559870530362
20
16.47055796124038
30
0.0
 70
     32
  0
VERTEX
  8
MY3DLAYER
10
7.053313973535755
20
16.04324291397341
30
0.0
 70
     32
  0
VERTEX
  8
MY3DLAYER
10
7.0259391740449955
20
15.604606353744169
30
0.0
 70
     32
  0
VERTEX
  8
MY3DLAYER
10
7.010589424519794
20
15.144946082757334
30
0.0
 70
     32
  0
VERTEX
  8
MY3DLAYER
10
7.005418677422013
20
14.654559903217532
30
0.0
 70
     32
  0
VERTEX
  8
MY3DLAYER
10
7.011230439338498
20
14.098445327936604
30
0.0
 70
     32
  0
VERTEX
  8
MY3DLAYER
10
7.03097881993676
20
13.567874287715155
30
0.0
 70
     32
  0
VERTEX
  8
MY3DLAYER
10
7.065711141138014
20
13.057561409880838
30
0.0
 70
     32
  0
VERTEX
  8
MY3DLAYER
10
7.116474724863224
20
12.562221321761331
30
0.0
 70
     32
  0
VERTEX
  8
MY3DLAYER
10
7.184316893033646
20
12.07656865068426
30
0.0
 70
     32
  0
VERTEX
  8
MY3DLAYER
10
7.2702849675702685
20
11.595318023977299
30
0.0
 70
     32
  0
VERTEX
  8
MY3DLAYER
10
7.375426270394209
20
11.113184068968103
30
0.0
 70
     32
  0
VERTEX
  8
MY3DLAYER
10
7.500788123426531
20
10.624881412984323
30
0.0
 70
     32
  0
VERTEX
  8
MY3DLAYER
10
7.647417848588443
20
10.125124683353615
30
0.0
 70
     32
  0
VERTEX
  8
MY3DLAYER
10
7.8163627678009435
20
9.60862850740365
30
0.0
 70
     32
  0
VERTEX
  8
MY3DLAYER
10
8.008670202985172
20
9.070107512462057
30
0.0
 70
     32
  0
VERTEX
  8
MY3DLAYER
10
8.225387476062226
20
8.504276325856518
30
0.0
 70
     32
  0
VERTEX
  8
MY3DLAYER
10
8.71652297080291
20
7.181685908452427
30
0.0
 70
     32
  0
VERTEX
  8
MY3DLAYER
10
9.097987545786419
20
5.97871627272164
30
0.0
 70
     32
  0
VERTEX
  8
MY3DLAYER
10
9.36916469602044
20
4.891710365200727
30
0.0
 70
     32
  0
VERTEX
  8
MY3DLAYER
10
9.529437916512528
20
3.9170111324262527
30
0.0
 70
     32
  0
VERTEX
  8
MY3DLAYER
10
9.578190702270389
20
3.05096152093478
30
0.0
 70
     32
  0
VERTEX
  8
MY3DLAYER
10
9.51480654830161
20
2.289904477262865
30
0.0
 70
     32
  0
VERTEX
  8
MY3DLAYER
10
9.338668949613766
20
1.6301829479470864
30
0.0
 70
     32
  0
VERTEX
  8
MY3DLAYER
10
9.04916140121447
20
1.068139879523985
30
0.0
 70
     32
  0
VERTEX
  8
MY3DLAYER
10
8.645667398111433
20
0.6001182185301406
30
0.0
 70
     32
  0
VERTEX
  8
MY3DLAYER
10
8.127570435312181
20
0.22246091150210384
30
0.0
 70
     32
  0
VERTEX
  8
MY3DLAYER
10
7.49425400782437
20
-0.06848909502355668
30
0.0
 70
     32
  0
VERTEX
  8
MY3DLAYER
10
6.745101610655628
20
-0.2763888545102759
30
0.0
 70
     32
  0
VERTEX
  8
MY3DLAYER
10
6.4447018325932195
20
-0.3312358313236487
30
0.0
 70
     32
  0
VERTEX
  8
MY3DLAYER
10
6.159693627536914
20
-0.36753847864112027
30
0.0
 70
     32
  0
VERTEX
  8
MY3DLAYER
10
5.888941215032032
20
-0.3850485956303313
30
0.0
 70
     32
  0
VERTEX
  8
MY3DLAYER
10
5.631308814623612
20
-0.38351798145895416
30
0.0
 70
     32
  0
VERTEX
  8
MY3DLAYER
10
5.385660645856954
20
-0.36269843529464935
30
0.0
 70
     32
  0
VERTEX
  8
MY3DLAYER
10
5.150860928277198
20
-0.3223417563050808
30
0.0
 70
     32
  0
VERTEX
  8
MY3DLAYER
10
4.925773881429541
20
-0.2621997436579145
30
0.0
 70
     32
  0
VERTEX
  8
MY3DLAYER
10
4.709263724859204
20
-0.18202419652081342
30
0.0
 70
     32
  0
VERTEX
  8
MY3DLAYER
10
4.500194678111342
20
-0.08156691406143016
30
0.0
 70
     32
  0
VERTEX
  8
MY3DLAYER
10
4.297430960731126
20
0.0394203045525505
30
0.0
 70
     32
  0
VERTEX
  8
MY3DLAYER
10
4.099836792263781
20
0.1811856601534914
30
0.0
 70
     32
  0
VERTEX
  8
MY3DLAYER
10
3.906276392254409
20
0.3439773535737145
30
0.0
 70
     32
  0
VERTEX
  8
MY3DLAYER
10
3.6829715254505766
20
0.5585072788396244
30
0.0
 70
     32
  0
VERTEX
  8
MY3DLAYER
10
3.4923495586595994
20
0.7744795527710063
30
0.0
 70
     32
  0
VERTEX
  8
MY3DLAYER
10
3.332484905107906
20
1.0017304098046411
30
0.0
 70
     32
  0
VERTEX
  8
MY3DLAYER
10
3.2014519780215362
20
1.2500960843772537
30
0.0
 70
     32
  0
VERTEX
  8
MY3DLAYER
10
3.0973251906267603
20
1.529412810925595
30
0.0
 70
     32
  0
VERTEX
  8
MY3DLAYER
10
3.0181789561497037
20
1.8495168238863955
30
0.0
 70
     32
  0
VERTEX
  8
MY3DLAYER
10
2.9620876878165388
20
2.2202443576964095
30
0.0
 70
     32
  0
VERTEX
  8
MY3DLAYER
10
2.9271257988534827
20
2.651431646792384
30
0.0
 70
     32
  0
VERTEX
  8
MY3DLAYER
10
2.911367702486684
20
3.1529149256110593
30
0.0
 70
     32
  0
VERTEX
  8
MY3DLAYER
10
2.912887811942389
20
3.734530428589177
30
0.0
 70
     32
  0
VERTEX
  8
MY3DLAYER
10
2.9297605404466736
20
4.406114390163481
30
0.0
 70
     32
  0
VERTEX
  8
MY3DLAYER
10
2.960060301225822
20
5.177503044770723
30
0.0
 70
     32
  0
VERTEX
  8
MY3DLAYER
10
3.083769482940809
20
7.982049684485121
30
0.0
 70
     32
  0
VERTEX
  8
MY3DLAYER
10
2.4859139731424005
20
8.545211709339911
30
0.0
 70
     32
  0
VERTEX
  8
MY3DLAYER
10
2.3984173065186445
20
8.625765716961082
30
0.0
 70
     32
  0
VERTEX
  8
MY3DLAYER
10
2.3014094619684307
20
8.711707524411928
30
0.0
 70
     32
  0
VERTEX
  8
MY3DLAYER
10
2.1964991899160315
20
8.801769228396596
30
0.0
 70
     32
  0
VERTEX
  8
MY3DLAYER
10
2.085295240785652
20
8.894682925619186
30
0.0
 70
     32
  0
VERTEX
  8
MY3DLAYER
10
1.9694063650015188
20
8.989180712783826
30
0.0
 70
     32
  0
VERTEX
  8
MY3DLAYER
10
1.8504413129879176
20
9.083994686594641
30
0.0
 70
     32
  0
VERTEX
  8
MY3DLAYER
10
1.7300088351689624
20
9.177856943755744
30
0.0
 70
     32
  0
VERTEX
  8
MY3DLAYER
10
1.609717681968948
20
9.269499580971255
30
0.0
 70
     32
  0
VERTEX
  8
MY3DLAYER
10
1.491176603812063
20
9.357654694945284
30
0.0
 70
     32
  0
VERTEX
  8
MY3DLAYER
10
1.3759943511225965
20
9.441054382381957
30
0.0
 70
     32
  0
VERTEX
  8
MY3DLAYER
10
1.2657796743246748
20
9.5184307399854
30
0.0
 70
     32
  0
VERTEX
  8
MY3DLAYER
10
1.1621413238425928
20
9.588515864459723
30
0.0
 70
     32
  0
VERTEX
  8
MY3DLAYER
10
0.9337111609326655
20
9.752074838792888
30
0.0
 70
     32
  0
VERTEX
  8
MY3DLAYER
10
0.7302882311528661
20
9.924077231721471
30
0.0
 70
     32
  0
VERTEX
  8
MY3DLAYER
10
0.551846157956566
20
10.104583931755572
30
0.0
 70
     32
  0
VERTEX
  8
MY3DLAYER
10
0.39835856479696696
20
10.293655827405328
30
0.0
 70
     32
  0
VERTEX
  8
MY3DLAYER
10
0.26979907512764467
20
10.491353807180817
30
0.0
 70
     32
  0
VERTEX
  8
MY3DLAYER
10
0.16614131240171784
20
10.697738759592173
30
0.0
 70
     32
  0
VERTEX
  8
MY3DLAYER
10
0.08735890007267466
20
10.912871573149506
30
0.0
 70
     32
  0
VERTEX
  8
MY3DLAYER
10
0.033425461593797424
20
11.13681313636292
30
0.0
 70
     32
  0
VERTEX
  8
MY3DLAYER
10
0.004314620418469972
20
11.369624337742541
30
0.0
 70
     32
  0
VERTEX
  8
MY3DLAYER
10
0.0
20
11.611366065798471
30
0.0
 70
     32
  0
VERTEX
  8
MY3DLAYER
10
0.020455223791706476
20
11.86209920904083
30
0.0
 70
     32
  0
VERTEX
  8
MY3DLAYER
10
0.06565391524699016
20
12.121884655979727
30
0.0
 70
     32
  0
VERTEX
  8
MY3DLAYER
10
0.10443024832822405
20
12.28905185715154
30
0.0
 70
     32
  0
VERTEX
  8
MY3DLAYER
10
0.17281033915547492
20
12.571317791166782
30
0.0
 70
     32
  0
VERTEX
  8
MY3DLAYER
10
0.2684744004639852
20
12.959474564482584
30
0.0
 70
     32
  0
VERTEX
  8
MY3DLAYER
10
0.3891026449886024
20
13.444314283556121
30
0.0
 70
     32
  0
VERTEX
  8
MY3DLAYER
10
0.5323752854646283
20
14.016629054844577
30
0.0
 70
     32
  0
VERTEX
  8
MY3DLAYER
10
0.6959725346269612
20
14.667210984805084
30
0.0
 70
     32
  0
VERTEX
  8
MY3DLAYER
10
0.8775746052105827
20
15.386852179894795
30
0.0
 70
     32
  0
VERTEX
  8
MY3DLAYER
10
1.0748617099507507
20
16.166344746570918
30
0.0
 70
     32
  0
VERTEX
  8
MY3DLAYER
10
1.2855140615823508
20
16.996480791290583
30
0.0
 70
     32
  0
VERTEX
  8
MY3DLAYER
10
1.5072118728405508
20
17.868052420510956
30
0.0
 70
     32
  0
VERTEX
  8
MY3DLAYER
10
1.7376353564603253
20
18.771851740689215
30
0.0
 70
     32
  0
VERTEX
  8
MY3DLAYER
10
1.9744647251767895
20
19.698670858282536
30
0.0
 70
     32
  0
VERTEX
  8
MY3DLAYER
10
2.4769091178048885
20
21.675376048056503
30
0.0
 70
     32
  0
VERTEX
  8
MY3DLAYER
10
2.9206836315868743
20
23.449803449178212
30
0.0
 70
     32
  0
VERTEX
  8
MY3DLAYER
10
3.308682900079113
20
25.035868720331983
30
0.0
 70
     32
  0
VERTEX
  8
MY3DLAYER
10
3.643801556837641
20
26.44748752020225
30
0.0
 70
     32
  0
VERTEX
  8
MY3DLAYER
10
3.928934235418776
20
27.698575507473358
30
0.0
 70
     32
  0
VERTEX
  8
MY3DLAYER
10
4.1669755693786135
20
28.803048340829704
30
0.0
 70
     32
  0
VERTEX
  8
MY3DLAYER
10
4.360820192273428
20
29.774821678955632
30
0.0
 70
     32
  0
VERTEX
  8
MY3DLAYER
10
4.513362737659311
20
30.627811180535563
30
0.0
 70
     32
  0
VERTEX
  8
MY3DLAYER
10
4.62749783909259
20
31.375932504253846
30
0.0
 70
     32
  0
VERTEX
  8
MY3DLAYER
10
4.70612013012934
20
32.03310130879487
30
0.0
 70
     32
  0
VERTEX
  8
MY3DLAYER
10
4.7521242443258345
20
32.613233252842925
30
0.0
 70
     32
  0
VERTEX
  8
MY3DLAYER
10
4.768404815238196
20
33.1302439950825
30
0.0
 70
     32
  0
VERTEX
  8
MY3DLAYER
10
4.771722396308125
20
33.38322484381958
30
0.0
 70
     32
  0
VERTEX
  8
MY3DLAYER
10
4.779361564453234
20
33.623086019435874
30
0.0
 70
     32
  0
VERTEX
  8
MY3DLAYER
10
4.791483912214789
20
33.850922625302104
30
0.0
 70
     32
  0
VERTEX
  8
MY3DLAYER
10
4.808251032133535
20
34.06782976478913
30
0.0
 70
     32
  0
VERTEX
  8
MY3DLAYER
10
4.829824516750574
20
34.27490254126775
30
0.0
 70
     32
  0
VERTEX
  8
MY3DLAYER
10
4.856365958606913
20
34.47323605810877
30
0.0
 70
     32
  0
VERTEX
  8
MY3DLAYER
10
4.888036950243487
20
34.66392541868303
30
0.0
 70
     32
  0
VERTEX
  8
MY3DLAYER
10
4.92499908420127
20
34.848065726361305
30
0.0
 70
     32
  0
VERTEX
  8
MY3DLAYER
10
4.967413953021308
20
35.026752084514456
30
0.0
 70
     32
  0
VERTEX
  8
MY3DLAYER
10
5.015443149244559
20
35.201079596513274
30
0.0
 70
     32
  0
VERTEX
  8
MY3DLAYER
10
5.069248265411985
20
35.37214336572855
30
0.0
 70
     32
  0
VERTEX
  8
MY3DLAYER
10
5.128990894064616
20
35.54103849553111
30
0.0
 70
     32
  0
VERTEX
  8
MY3DLAYER
10
5.338011175391678
20
36.10274225163252
30
0.0
 70
     32
  0
VERTEX
  8
MY3DLAYER
10
5.518614685944061
20
36.59252844300637
30
0.0
 70
     32
  0
VERTEX
  8
MY3DLAYER
10
5.673719653399179
20
37.01959291543407
30
0.0
 70
     32
  0
VERTEX
  8
MY3DLAYER
10
5.806244305434302
20
37.39313151469725
30
0.0
 70
     32
  0
VERTEX
  8
MY3DLAYER
10
5.919106869726797
20
37.72234008657737
30
0.0
 70
     32
  0
VERTEX
  8
MY3DLAYER
10
6.015225573953899
20
38.01641447685587
30
0.0
 70
     32
  0
VERTEX
  8
MY3DLAYER
10
6.097518645792953
20
38.2845505313143
30
0.0
 70
     32
  0
VERTEX
  8
MY3DLAYER
10
6.168904312921264
20
38.53594409573419
30
0.0
 70
     32
  0
VERTEX
  8
MY3DLAYER
10
6.2323008030161935
20
38.779791015896976
30
0.0
 70
     32
  0
VERTEX
  8
MY3DLAYER
10
6.29062634375495
20
39.02528713758419
30
0.0
 70
     32
  0
VERTEX
  8
MY3DLAYER
10
6.346799162814899
20
39.28162830657735
30
0.0
 70
     32
  0
VERTEX
  8
MY3DLAYER
10
6.403737487873408
20
39.55801036865791
30
0.0
 70
     32
  0
VERTEX
  8
MY3DLAYER
10
6.439762836590353
20
39.74607777337866
30
0.0
 70
     32
  0
VERTEX
  8
MY3DLAYER
10
6.479028284535632
20
39.96776317789085
30
0.0
 70
     32
  0
VERTEX
  8
MY3DLAYER
10
6.520914184129792
20
40.218774895600625
30
0.0
 70
     32
  0
VERTEX
  8
MY3DLAYER
10
6.564800887793207
20
40.49482123991434
30
0.0
 70
     32
  0
VERTEX
  8
MY3DLAYER
10
6.610068747946279
20
40.79161052423812
30
0.0
 70
     32
  0
VERTEX
  8
MY3DLAYER
10
6.656098117009395
20
41.104851061978216
30
0.0
 70
     32
  0
VERTEX
  8
MY3DLAYER
10
6.702269347402978
20
41.430251166540884
30
0.0
 70
     32
  0
VERTEX
  8
MY3DLAYER
10
6.7479627915474145
20
41.76351915133236
30
0.0
 70
     32
  0
VERTEX
  8
MY3DLAYER
10
6.792558801863094
20
42.10036332975879
30
0.0
 70
     32
  0
VERTEX
  8
MY3DLAYER
10
6.8354377307704315
20
42.436492015226435
30
0.0
 70
     32
  0
VERTEX
  8
MY3DLAYER
10
6.875979930689771
20
42.76761352114156
30
0.0
 70
     32
  0
VERTEX
  8
MY3DLAYER
10
6.9135657540416355
20
43.08943616091034
30
0.0
 70
     32
  0
VERTEX
  8
MY3DLAYER
10
6.954465736927359
20
43.42772210891877
30
0.0
 70
     32
  0
VERTEX
  8
MY3DLAYER
10
7.004654805098071
20
43.80677840161667
30
0.0
 70
     32
  0
VERTEX
  8
MY3DLAYER
10
7.063074471620577
20
44.22013217089664
30
0.0
 70
     32
  0
VERTEX
  8
MY3DLAYER
10
7.128666249561552
20
44.66131054865133
30
0.0
 70
     32
  0
VERTEX
  8
MY3DLAYER
10
7.200371651987884
20
45.123840666773276
30
0.0
 70
     32
  0
VERTEX
  8
MY3DLAYER
10
7.277132191966334
20
45.601249657155186
30
0.0
 70
     32
  0
VERTEX
  8
MY3DLAYER
10
7.357889382563678
20
46.087064651689566
30
0.0
 70
     32
  0
VERTEX
  8
MY3DLAYER
10
7.441584736846689
20
46.57481278226912
30
0.0
 70
     32
  0
VERTEX
  8
MY3DLAYER
10
7.52715976788213
20
47.05802118078643
30
0.0
 70
     32
  0
VERTEX
  8
MY3DLAYER
10
7.613555988736831
20
47.530216979134096
30
0.0
 70
     32
  0
VERTEX
  8
MY3DLAYER
10
7.699714912477513
20
47.98492730920473
30
0.0
 70
     32
  0
VERTEX
  8
MY3DLAYER
10
7.784578052171
20
48.41567930289093
30
0.0
 70
     32
  0
VERTEX
  8
MY3DLAYER
10
7.89387408598994
20
48.96891557312226
30
0.0
 70
     32
  0
VERTEX
  8
MY3DLAYER
10
7.991470966730766
20
49.48579308378773
30
0.0
 70
     32
  0
VERTEX
  8
MY3DLAYER
10
8.078004867038658
20
49.97131133099075
30
0.0
 70
     32
  0
VERTEX
  8
MY3DLAYER
10
8.154111959558392
20
50.43046981083468
30
0.0
 70
     32
  0
VERTEX
  8
MY3DLAYER
10
8.220428416935041
20
50.86826801942281
30
0.0
 70
     32
  0
VERTEX
  8
MY3DLAYER
10
8.277590411813598
20
51.28970545285866
30
0.0
 70
     32
  0
VERTEX
  8
MY3DLAYER
10
8.326234116839016
20
51.69978160724535
30
0.0
 70
     32
  0
VERTEX
  8
MY3DLAYER
10
8.366995704656214
20
52.103495978686375
30
0.0
 70
     32
  0
VERTEX
  8
MY3DLAYER
10
8.400511347910214
20
52.505848063285036
30
0.0
 70
     32
  0
VERTEX
  8
MY3DLAYER
10
8.427417219245996
20
52.911837357144734
30
0.0
 70
     32
  0
VERTEX
  8
MY3DLAYER
10
8.448349491308573
20
53.326463356368784
30
0.0
 70
     32
  0
VERTEX
  8
MY3DLAYER
10
8.463944336742808
20
53.754725557060524
30
0.0
 70
     32
  0
VERTEX
  8
MY3DLAYER
10
8.484891770905936
20
54.31716674302723
30
0.0
 70
     32
  0
VERTEX
  8
MY3DLAYER
10
8.512450798981646
20
54.814814715421264
30
0.0
 70
     32
  0
VERTEX
  8
MY3DLAYER
10
8.547463478980752
20
55.25069733231078
30
0.0
 70
     32
  0
VERTEX
  8
MY3DLAYER
10
8.590771868913983
20
55.62784245176408
30
0.0
 70
     32
  0
VERTEX
  8
MY3DLAYER
10
8.64321802679215
20
55.94927793184956
30
0.0
 70
     32
  0
VERTEX
  8
MY3DLAYER
10
8.705644010625983
20
56.21803163063536
30
0.0
 70
     32
  0
VERTEX
  8
MY3DLAYER
10
8.778891878426245
20
56.43713140618988
30
0.0
 70
     32
  0
VERTEX
  8
MY3DLAYER
10
8.863803688203618
20
56.60960511658127
30
0.0
 70
     32
  0
VERTEX
  8
MY3DLAYER
10
8.961221497969001
20
56.73848061987801
30
0.0
 70
     32
  0
VERTEX
  8
MY3DLAYER
10
9.071987365733085
20
56.82678577414827
30
0.0
 70
     32
  0
VERTEX
  8
MY3DLAYER
10
9.19694334950664
20
56.87754843746035
30
0.0
 70
     32
  0
VERTEX
  8
MY3DLAYER
10
9.336931507300411
20
56.8937964678825
30
0.0
 70
     32
  0
VERTEX
  8
MY3DLAYER
10
9.381006782674946
20
56.8971695938872
30
0.0
 70
     32
  0
VERTEX
  8
MY3DLAYER
10
9.420028368206065
20
56.907492103089645
30
0.0
 70
     32
  0
VERTEX
  8
MY3DLAYER
10
9.454115512720314
20
56.925068692271985
30
0.0
 70
     32
  0
VERTEX
  8
MY3DLAYER
10
9.48338746504404
20
56.95020405821673
30
0.0
 70
     32
  0
VERTEX
  8
MY3DLAYER
10
9.507963474003857
20
56.983202897706136
30
0.0
 70
     32
  0
VERTEX
  8
MY3DLAYER
10
9.527962788426068
20
57.02436990752254
30
0.0
 70
     32
  0
VERTEX
  8
MY3DLAYER
10
9.543504657137186
20
57.07400978444827
30
0.0
 70
     32
  0
VERTEX
  8
MY3DLAYER
10
9.554708328963725
20
57.132427225265715
30
0.0
 70
     32
  0
VERTEX
  8
MY3DLAYER
10
9.561693052732121
20
57.19992692675721
30
0.0
 70
     32
  0
VERTEX
  8
MY3DLAYER
10
9.564578077268832
20
57.27681358570504
30
0.0
 70
     32
  0
VERTEX
  8
MY3DLAYER
10
9.563482651400316
20
57.363391898891564
30
0.0
 70
     32
  0
VERTEX
  8
MY3DLAYER
10
9.55852602395303
20
57.459966563099094
30
0.0
 70
     32
  0
VERTEX
  8
MY3DLAYER
10
9.554647645251485
20
57.53859344090082
30
0.0
 70
     32
  0
VERTEX
  8
MY3DLAYER
10
9.55342385587656
20
57.618134677405344
30
0.0
 70
     32
  0
VERTEX
  8
MY3DLAYER
10
9.554731169805546
20
57.69762763812052
30
0.0
 70
     32
  0
VERTEX
  8
MY3DLAYER
10
9.558446101015708
20
57.7761096885544
30
0.0
 70
     32
  0
VERTEX
  8
MY3DLAYER
10
9.564445163484438
20
57.85261819421492
30
0.0
 70
     32
  0
VERTEX
  8
MY3DLAYER
10
9.572604871188984
20
57.92619052060997
30
0.0
 70
     32
  0
VERTEX
  8
MY3DLAYER
10
9.582801738106532
20
57.99586403324752
30
0.0
 70
     32
  0
VERTEX
  8
MY3DLAYER
10
9.594912278214473
20
58.06067609763564
30
0.0
 70
     32
  0
VERTEX
  8
MY3DLAYER
10
9.608813005490068
20
58.119664079282174
30
0.0
 70
     32
  0
VERTEX
  8
MY3DLAYER
10
9.6243804339106
20
58.17186534369499
30
0.0
 70
     32
  0
VERTEX
  8
MY3DLAYER
10
9.641491077453374
20
58.21631725638223
30
0.0
 70
     32
  0
VERTEX
  8
MY3DLAYER
10
9.660021450095627
20
58.252057182851765
30
0.0
 70
     32
  0
VERTEX
  8
MY3DLAYER
10
9.765794069266885
20
58.379569560105764
30
0.0
 70
     32
  0
VERTEX
  8
MY3DLAYER
10
9.942364122088915
20
58.53608470531384
30
0.0
 70
     32
  0
VERTEX
  8
MY3DLAYER
10
10.187255885413045
20
58.72016757191202
30
0.0
 70
     32
  0
VERTEX
  8
MY3DLAYER
10
10.497993636090154
20
58.930383113336305
30
0.0
 70
     32
  0
VERTEX
  8
MY3DLAYER
10
10.872101650971347
20
59.165296283022585
30
0.0
 70
     32
  0
VERTEX
  8
MY3DLAYER
10
11.307104206907772
20
59.42347203440713
30
0.0
 70
     32
  0
VERTEX
  8
MY3DLAYER
10
11.800525580750433
20
59.70347532092583
30
0.0
 70
     32
  0
VERTEX
  8
MY3DLAYER
10
12.349890049350257
20
60.0038710960148
30
0.0
 70
     32
  0
VERTEX
  8
MY3DLAYER
10
12.952721889558523
20
60.32322431311006
30
0.0
 70
     32
  0
VERTEX
  8
MY3DLAYER
10
13.606545378226189
20
60.6600999256477
30
0.0
 70
     32
  0
VERTEX
  8
MY3DLAYER
10
14.308884792204347
20
61.01306288706365
30
0.0
 70
     32
  0
VERTEX
  8
MY3DLAYER
10
15.057264408344016
20
61.38067815079413
30
0.0
 70
     32
  0
VERTEX
  8
MY3DLAYER
10
16.160870891608127
20
61.922501987247614
30
0.0
 70
     32
  0
VERTEX
  8
MY3DLAYER
10
17.10476502616267
20
62.400739363620424
30
0.0
 70
     32
  0
VERTEX
  8
MY3DLAYER
10
17.901102600663656
20
62.825759843179085
30
0.0
 70
     32
  0
VERTEX
  8
MY3DLAYER
10
18.56203940376687
20
63.207932989190574
30
0.0
 70
     32
  0
VERTEX
  8
MY3DLAYER
10
19.099731224128316
20
63.5576283649214
30
0.0
 70
     32
  0
VERTEX
  8
MY3DLAYER
10
19.52633385040384
20
63.88521553363855
30
0.0
 70
     32
  0
VERTEX
  8
MY3DLAYER
10
19.85400307124925
20
64.20106405860852
30
0.0
 70
     32
  0
VERTEX
  8
MY3DLAYER
10
20.09489467532054
20
64.51554350309813
30
0.0
 70
     32
  0
VERTEX
  8
MY3DLAYER
10
20.261164451273658
20
64.83902343037418
30
0.0
 70
     32
  0
VERTEX
  8
MY3DLAYER
10
20.364968187764347
20
65.18187340370342
30
0.0
 70
     32
  0
VERTEX
  8
MY3DLAYER
10
20.418461673448533
20
65.55446298635246
30
0.0
 70
     32
  0
VERTEX
  8
MY3DLAYER
10
20.43380069698222
20
65.96716174158817
30
0.0
 70
     32
  0
VERTEX
  8
MY3DLAYER
10
20.437377627418584
20
66.19787186447229
30
0.0
 70
     32
  0
VERTEX
  8
MY3DLAYER
10
20.448332717065075
20
66.3972066437342
30
0.0
 70
     32
  0
VERTEX
  8
MY3DLAYER
10
20.46740511655966
20
66.56614257655964
30
0.0
 70
     32
  0
VERTEX
  8
MY3DLAYER
10
20.495333976540042
20
66.70565616013447
30
0.0
 70
     32
  0
VERTEX
  8
MY3DLAYER
10
20.532858447644205
20
66.81672389164436
30
0.0
 70
     32
  0
VERTEX
  8
MY3DLAYER
10
20.580717680509874
20
66.90032226827522
30
0.0
 70
     32
  0
VERTEX
  8
MY3DLAYER
10
20.639650825774936
20
66.95742778721265
30
0.0
 70
     32
  0
VERTEX
  8
MY3DLAYER
10
20.710397034077147
20
66.9890169456427
30
0.0
 70
     32
  0
VERTEX
  8
MY3DLAYER
10
20.793695456054486
20
66.99606624075089
30
0.0
 70
     32
  0
VERTEX
  8
MY3DLAYER
10
20.890285242344657
20
66.97955216972319
30
0.0
 70
     32
  0
VERTEX
  8
MY3DLAYER
10
21.000905543585542
20
66.94045122974528
30
0.0
 70
     32
  0
VERTEX
  8
MY3DLAYER
10
21.126295510415027
20
66.87973991800294
30
0.0
 70
     32
  0
VERTEX
  8
MY3DLAYER
10
21.50068352746344
20
66.81827381330665
30
0.0
 70
     32
  0
VERTEX
  8
MY3DLAYER
10
22.003153887042505
20
66.93983589351285
30
0.0
 70
     32
  0
VERTEX
  8
MY3DLAYER
10
22.605834601761536
20
67.22000706245497
30
0.0
 70
     32
  0
VERTEX
  8
MY3DLAYER
10
23.280853684229637
20
67.63436822396645
30
0.0
 70
     32
  0
VERTEX
  8
MY3DLAYER
10
24.00033914705624
20
68.1585002818805
30
0.0
 70
     32
  0
VERTEX
  8
MY3DLAYER
10
24.736419002850447
20
68.7679841400306
30
0.0
 70
     32
  0
VERTEX
  8
MY3DLAYER
10
25.46122126422154
20
69.43840070225009
30
0.0
 70
     32
  0
VERTEX
  8
MY3DLAYER
10
26.146873943778743
20
70.14533087237234
30
0.0
 70
     32
  0
VERTEX
  8
MY3DLAYER
10
26.765505054131342
20
70.86435555423063
30
0.0
 70
     32
  0
VERTEX
  8
MY3DLAYER
10
27.289242607888543
20
71.57105565165843
30
0.0
 70
     32
  0
VERTEX
  8
MY3DLAYER
10
27.690214617659628
20
72.24101206848918
30
0.0
 70
     32
  0
VERTEX
  8
MY3DLAYER
10
27.940549096053793
20
72.84980570855608
30
0.0
 70
     32
  0
VERTEX
  8
MY3DLAYER
10
27.989415761168846
20
73.01039101973811
30
0.0
 70
     32
  0
VERTEX
  8
MY3DLAYER
10
28.0385169056624
20
73.15607975424176
30
0.0
 70
     32
  0
VERTEX
  8
MY3DLAYER
10
28.08839412089714
20
73.2877211803736
30
0.0
 70
     32
  0
VERTEX
  8
MY3DLAYER
10
28.139588998235677
20
73.40616456643995
30
0.0
 70
     32
  0
VERTEX
  8
MY3DLAYER
10
28.192643129040768
20
73.51225918074718
30
0.0
 70
     32
  0
VERTEX
  8
MY3DLAYER
10
28.248098104675034
20
73.60685429160162
30
0.0
 70
     32
  0
VERTEX
  8
MY3DLAYER
10
28.30649551650126
20
73.69079916730985
30
0.0
 70
     32
  0
VERTEX
  8
MY3DLAYER
10
28.3683769558819
20
73.76494307617803
30
0.0
 70
     32
  0
VERTEX
  8
MY3DLAYER
10
28.434284014179934
20
73.83013528651264
30
0.0
 70
     32
  0
VERTEX
  8
MY3DLAYER
10
28.504758282757873
20
73.88722506662009
30
0.0
 70
     32
  0
VERTEX
  8
MY3DLAYER
10
28.580341352978397
20
73.93706168480678
30
0.0
 70
     32
  0
VERTEX
  8
MY3DLAYER
10
28.661574816204208
20
73.98049440937899
30
0.0
 70
     32
  0
VERTEX
  8
MY3DLAYER
10
28.726800182599558
20
74.01543709560401
30
0.0
 70
     32
  0
VERTEX
  8
MY3DLAYER
10
28.79636698733456
20
74.0592948286151
30
0.0
 70
     32
  0
VERTEX
  8
MY3DLAYER
10
28.8692499207228
20
74.1111013440553
30
0.0
 70
     32
  0
VERTEX
  8
MY3DLAYER
10
28.9444236730775
20
74.16989037756795
30
0.0
 70
     32
  0
VERTEX
  8
MY3DLAYER
10
29.020862934712344
20
74.23469566479595
30
0.0
 70
     32
  0
VERTEX
  8
MY3DLAYER
10
29.097542395940554
20
74.30455094138273
30
0.0
 70
     32
  0
VERTEX
  8
MY3DLAYER
10
29.173436747075602
20
74.37848994297127
30
0.0
 70
     32
  0
VERTEX
  8
MY3DLAYER
10
29.24752067843089
20
74.45554640520493
30
0.0
 70
     32
  0
VERTEX
  8
MY3DLAYER
10
29.318768880319872
20
74.53475406372654
30
0.0
 70
     32
  0
VERTEX
  8
MY3DLAYER
10
29.386156043055955
20
74.61514665417955
30
0.0
 70
     32
  0
VERTEX
  8
MY3DLAYER
10
29.448656856952525
20
74.69575791220704
30
0.0
 70
     32
  0
VERTEX
  8
MY3DLAYER
10
29.50524601232304
20
74.77562157345216
30
0.0
 70
     32
  0
VERTEX
  8
MY3DLAYER
10
29.652850822271922
20
75.01508734803839
30
0.0
 70
     32
  0
VERTEX
  8
MY3DLAYER
10
29.807233550210302
20
75.3030166903134
30
0.0
 70
     32
  0
VERTEX
  8
MY3DLAYER
10
29.966009007748927
20
75.63288139438676
30
0.0
 70
     32
  0
VERTEX
  8
MY3DLAYER
10
30.12679200649885
20
75.9981532543682
30
0.0
 70
     32
  0
VERTEX
  8
MY3DLAYER
10
30.28719735807106
20
76.39230406436714
30
0.0
 70
     32
  0
VERTEX
  8
MY3DLAYER
10
30.444839874076425
20
76.80880561849331
30
0.0
 70
     32
  0
VERTEX
  8
MY3DLAYER
10
30.59733436612587
20
77.24112971085613
30
0.0
 70
     32
  0
VERTEX
  8
MY3DLAYER
10
30.742295645830318
20
77.68274813556538
30
0.0
 70
     32
  0
VERTEX
  8
MY3DLAYER
10
30.87733852480081
20
78.1271326867306
30
0.0
 70
     32
  0
VERTEX
  8
MY3DLAYER
10
31.000077814648208
20
78.5677551584612
30
0.0
 70
     32
  0
VERTEX
  8
MY3DLAYER
10
31.108128326983447
20
78.99808734486699
30
0.0
 70
     32
  0
VERTEX
  8
MY3DLAYER
10
31.199104873417454
20
79.4116010400574
30
0.0
 70
     32
  0
VERTEX
  8
MY3DLAYER
10
31.26022293481374
20
79.7186415957216
30
0.0
 70
     32
  0
VERTEX
  8
MY3DLAYER
10
31.31026908235492
20
79.98688610710308
30
0.0
 70
     32
  0
VERTEX
  8
MY3DLAYER
10
31.34926150067489
20
80.22396642141338
30
0.0
 70
     32
  0
VERTEX
  8
MY3DLAYER
10
31.377218374407523
20
80.43751438586433
30
0.0
 70
     32
  0
VERTEX
  8
MY3DLAYER
10
31.39415788818679
20
80.63516184766758
30
0.0
 70
     32
  0
VERTEX
  8
MY3DLAYER
10
31.400098226646488
20
80.82454065403473
30
0.0
 70
     32
  0
VERTEX
  8
MY3DLAYER
10
31.395057574420505
20
81.01328265217751
30
0.0
 70
     32
  0
VERTEX
  8
MY3DLAYER
10
31.379054116142886
20
81.20901968930741
30
0.0
 70
     32
  0
VERTEX
  8
MY3DLAYER
10
31.35210603644746
20
81.41938361263627
30
0.0
 70
     32
  0
VERTEX
  8
MY3DLAYER
10
31.314231519968132
20
81.65200626937579
30
0.0
 70
     32
  0
VERTEX
  8
MY3DLAYER
10
31.265448751338802
20
81.91451950673755
30
0.0
 70
     32
  0
VERTEX
  8
MY3DLAYER
10
31.20577591519344
20
82.21455517193318
30
0.0
 70
     32
  0
VERTEX
  8
MY3DLAYER
10
31.160730645552345
20
82.4211079914669
30
0.0
 70
     32
  0
VERTEX
  8
MY3DLAYER
10
31.103626802661317
20
82.65706549114311
30
0.0
 70
     32
  0
VERTEX
  8
MY3DLAYER
10
31.035745862968263
20
82.91818994506195
30
0.0
 70
     32
  0
VERTEX
  8
MY3DLAYER
10
30.958369302920975
20
83.20024362732406
30
0.0
 70
     32
  0
VERTEX
  8
MY3DLAYER
10
30.872778598967432
20
83.4989888120298
30
0.0
 70
     32
  0
VERTEX
  8
MY3DLAYER
10
30.780255227555372
20
83.81018777327972
30
0.0
 70
     32
  0
VERTEX
  8
MY3DLAYER
10
30.68208066513277
20
84.12960278517433
30
0.0
 70
     32
  0
VERTEX
  8
MY3DLAYER
10
30.579536388147385
20
84.45299612181402
30
0.0
 70
     32
  0
VERTEX
  8
MY3DLAYER
10
30.473903873047238
20
84.77613005729923
30
0.0
 70
     32
  0
VERTEX
  8
MY3DLAYER
10
30.366464596280057
20
85.09476686573056
30
0.0
 70
     32
  0
VERTEX
  8
MY3DLAYER
10
30.258500034293775
20
85.4046688212084
30
0.0
 70
     32
  0
VERTEX
  8
MY3DLAYER
10
30.151291663536224
20
85.70159819783316
30
0.0
 70
     32
  0
VERTEX
  8
MY3DLAYER
10
29.857324746209642
20
86.51857563312949
30
0.0
 70
     32
  0
VERTEX
  8
MY3DLAYER
10
29.60029710552095
20
87.27168926266441
30
0.0
 70
     32
  0
VERTEX
  8
MY3DLAYER
10
29.38047550828428
20
87.95957095932692
30
0.0
 70
     32
  0
VERTEX
  8
MY3DLAYER
10
29.198126721313436
20
88.58085259600578
30
0.0
 70
     32
  0
VERTEX
  8
MY3DLAYER
10
29.05351751142239
20
89.13416604558974
30
0.0
 70
     32
  0
VERTEX
  8
MY3DLAYER
10
28.94691464542499
20
89.61814318096772
30
0.0
 70
     32
  0
VERTEX
  8
MY3DLAYER
10
28.878584890135105
20
90.03141587502851
30
0.0
 70
     32
  0
VERTEX
  8
MY3DLAYER
10
28.848795012366697
20
90.37261600066074
30
0.0
 70
     32
  0
VERTEX
  8
MY3DLAYER
10
28.85781177893369
20
90.64037543075358
30
0.0
 70
     32
  0
VERTEX
  8
MY3DLAYER
10
28.90590195664998
20
90.8333260381956
30
0.0
 70
     32
  0
VERTEX
  8
MY3DLAYER
10
28.993332312329468
20
90.95009969587556
30
0.0
 70
     32
  0
VERTEX
  8
MY3DLAYER
10
29.120369612785996
20
90.98932827668256
30
0.0
 70
     32
  0
VERTEX
  8
MY3DLAYER
10
29.23770707886109
20
90.99716780771446
30
0.0
 70
     32
  0
VERTEX
  8
MY3DLAYER
10
29.33047429385534
20
91.02035944933141
30
0.0
 70
     32
  0
VERTEX
  8
MY3DLAYER
10
29.398765895546923
20
91.05841277431549
30
0.0
 70
     32
  0
VERTEX
  8
MY3DLAYER
10
29.442676521714205
20
91.11083735544874
30
0.0
 70
     32
  0
VERTEX
  8
MY3DLAYER
10
29.46230081013533
20
91.17714276551308
30
0.0
 70
     32
  0
VERTEX
  8
MY3DLAYER
10
29.4577333985886
20
91.25683857729085
30
0.0
 70
     32
  0
VERTEX
  8
MY3DLAYER
10
29.429068924852217
20
91.3494343635638
30
0.0
 70
     32
  0
VERTEX
  8
MY3DLAYER
10
29.376402026704408
20
91.45443969711418
30
0.0
 70
     32
  0
VERTEX
  8
MY3DLAYER
10
29.2998273419235
20
91.57136415072362
30
0.0
 70
     32
  0
VERTEX
  8
MY3DLAYER
10
29.19943950828767
20
91.69971729717469
30
0.0
 70
     32
  0
VERTEX
  8
MY3DLAYER
10
29.075333163575124
20
91.83900870924914
30
0.0
 70
     32
  0
VERTEX
  8
MY3DLAYER
10
28.927602945564214
20
91.98874795972905
30
0.0
 70
     32
  0
VERTEX
  8
MY3DLAYER
10
28.736990899697595
20
92.18416510619706
30
0.0
 70
     32
  0
VERTEX
  8
MY3DLAYER
10
28.568450281981168
20
92.38187254198223
30
0.0
 70
     32
  0
VERTEX
  8
MY3DLAYER
10
28.419887536120104
20
92.58816165607634
30
0.0
 70
     32
  0
VERTEX
  8
MY3DLAYER
10
28.289209105819
20
92.80932383747154
30
0.0
 70
     32
  0
VERTEX
  8
MY3DLAYER
10
28.174321434782815
20
93.05165047515987
30
0.0
 70
     32
  0
VERTEX
  8
MY3DLAYER
10
28.073130966716356
20
93.32143295813322
30
0.0
 70
     32
  0
VERTEX
  8
MY3DLAYER
10
27.983544145324394
20
93.6249626753836
30
0.0
 70
     32
  0
VERTEX
  8
MY3DLAYER
10
27.903467414311788
20
93.96853101590303
30
0.0
 70
     32
  0
VERTEX
  8
MY3DLAYER
10
27.830807217383484
20
94.3584293686834
30
0.0
 70
     32
  0
VERTEX
  8
MY3DLAYER
10
27.763469998244204
20
94.80094912271697
30
0.0
 70
     32
  0
VERTEX
  8
MY3DLAYER
10
27.699362200598863
20
95.30238166699563
30
0.0
 70
     32
  0
VERTEX
  8
MY3DLAYER
10
27.63639026815222
20
95.86901839051121
30
0.0
 70
     32
  0
VERTEX
  8
MY3DLAYER
10
27.571343343038027
20
96.7330021299
30
0.0
 70
     32
  0
VERTEX
  8
MY3DLAYER
10
27.544364052861194
20
97.70256131288644
30
0.0
 70
     32
  0
VERTEX
  8
MY3DLAYER
10
27.553927586055327
20
98.76243324078845
30
0.0
 70
     32
  0
VERTEX
  8
MY3DLAYER
10
27.598509131053696
20
99.89735521492388
30
0.0
 70
     32
  0
VERTEX
  8
MY3DLAYER
10
27.676583876290106
20
101.09206453661015
30
0.0
 70
     32
  0
VERTEX
  8
MY3DLAYER
10
27.786627010197858
20
102.33129850716516
30
0.0
 70
     32
  0
VERTEX
  8
MY3DLAYER
10
27.927113721210414
20
103.59979442790696
30
0.0
 70
     32
  0
VERTEX
  8
MY3DLAYER
10
28.096519197761253
20
104.88228960015319
30
0.0
 70
     32
  0
VERTEX
  8
MY3DLAYER
10
28.293318628284048
20
106.16352132522152
30
0.0
 70
     32
  0
VERTEX
  8
MY3DLAYER
10
28.515987201212102
20
107.42822690442976
30
0.0
 70
     32
  0
VERTEX
  8
MY3DLAYER
10
28.763000104978882
20
108.66114363909571
30
0.0
 70
     32
  0
VERTEX
  8
MY3DLAYER
10
29.032832528018016
20
109.84700883053735
30
0.0
 70
     32
  0
VERTEX
  8
MY3DLAYER
10
29.25785134659006
20
110.73775210851252
30
0.0
 70
     32
  0
VERTEX
  8
MY3DLAYER
10
29.485986354648198
20
111.56656144706822
30
0.0
 70
     32
  0
VERTEX
  8
MY3DLAYER
10
29.718138620222962
20
112.33548372272125
30
0.0
 70
     32
  0
VERTEX
  8
MY3DLAYER
10
29.95520921134488
20
113.04656581198805
30
0.0
 70
     32
  0
VERTEX
  8
MY3DLAYER
10
30.19809919604465
20
113.70185459138483
30
0.0
 70
     32
  0
VERTEX
  8
MY3DLAYER
10
30.447709642352592
20
114.30339693742823
30
0.0
 70
     32
  0
VERTEX
  8
MY3DLAYER
10
30.704941618299376
20
114.85323972663484
30
0.0
 70
     32
  0
VERTEX
  8
MY3DLAYER
10
30.97069619191546
20
115.35342983552104
30
0.0
 70
     32
  0
VERTEX
  8
MY3DLAYER
10
31.245874431231506
20
115.80601414060322
30
0.0
 70
     32
  0
VERTEX
  8
MY3DLAYER
10
31.531377404277862
20
116.213039518398
30
0.0
 70
     32
  0
VERTEX
  8
MY3DLAYER
10
31.828106179085193
20
116.57655284542177
30
0.0
 70
     32
  0
VERTEX
  8
MY3DLAYER
10
32.13696182368402
20
116.89860099819084
30
0.0
 70
     32
  0
VERTEX
  8
MY3DLAYER
10
32.26809374109079
20
117.02830948012844
30
0.0
 70
     32
  0
VERTEX
  8
MY3DLAYER
10
32.37878839688684
20
117.14750782275163
30
0.0
 70
     32
  0
VERTEX
  8
MY3DLAYER
10
32.46952561823767
20
117.25803858497372
30
0.0
 70
     32
  0
VERTEX
  8
MY3DLAYER
10
32.54078523230851
20
117.36174432570822
30
0.0
 70
     32
  0
VERTEX
  8
MY3DLAYER
10
32.59304706626482
20
117.46046760386812
30
0.0
 70
     32
  0
VERTEX
  8
MY3DLAYER
10
32.626790947271836
20
117.556050978367
30
0.0
 70
     32
  0
VERTEX
  8
MY3DLAYER
10
32.642496702494896
20
117.65033700811804
30
0.0
 70
     32
  0
VERTEX
  8
MY3DLAYER
10
32.640644159099466
20
117.74516825203455
30
0.0
 70
     32
  0
VERTEX
  8
MY3DLAYER
10
32.62171314425077
20
117.84238726902997
30
0.0
 70
     32
  0
VERTEX
  8
MY3DLAYER
10
32.5861834851142
20
117.94383661801727
30
0.0
 70
     32
  0
VERTEX
  8
MY3DLAYER
10
32.534535008855116
20
118.05135885791003
30
0.0
 70
     32
  0
VERTEX
  8
MY3DLAYER
10
32.467247542638816
20
118.16679654762146
30
0.0
 70
     32
  0
VERTEX
  8
MY3DLAYER
10
32.40924379106127
20
118.29268641180252
30
0.0
 70
     32
  0
VERTEX
  8
MY3DLAYER
10
32.385739573830904
20
118.43315559259271
30
0.0
 70
     32
  0
VERTEX
  8
MY3DLAYER
10
32.398533015796524
20
118.59101671261453
30
0.0
 70
     32
  0
VERTEX
  8
MY3DLAYER
10
32.44942224180652
20
118.76908239449094
30
0.0
 70
     32
  0
VERTEX
  8
MY3DLAYER
10
32.540205376709714
20
118.97016526084484
30
0.0
 70
     32
  0
VERTEX
  8
MY3DLAYER
10
32.67268054535464
20
119.19707793429858
30
0.0
 70
     32
  0
VERTEX
  8
MY3DLAYER
10
32.84864587259
20
119.45263303747556
30
0.0
 70
     32
  0
VERTEX
  8
MY3DLAYER
10
33.06989948326426
20
119.73964319299792
30
0.0
 70
     32
  0
VERTEX
  8
MY3DLAYER
10
33.33823950222619
20
120.060921023489
30
0.0
 70
     32
  0
VERTEX
  8
MY3DLAYER
10
33.65546405432439
20
120.41927915157117
30
0.0
 70
     32
  0
VERTEX
  8
MY3DLAYER
10
34.02337126440744
20
120.81753019986735
30
0.0
 70
     32
  0
VERTEX
  8
MY3DLAYER
10
34.44375925732399
20
121.25848679100038
30
0.0
 70
     32
  0
VERTEX
  8
MY3DLAYER
10
35.22023007691046
20
122.04210490380527
30
0.0
 70
     32
  0
VERTEX
  8
MY3DLAYER
10
36.01117822379213
20
122.80049131800868
30
0.0
 70
     32
  0
VERTEX
  8
MY3DLAYER
10
36.81073544951865
20
123.52922583285472
30
0.0
 70
     32
  0
VERTEX
  8
MY3DLAYER
10
37.61303350563941
20
124.2238882475871
30
0.0
 70
     32
  0
VERTEX
  8
MY3DLAYER
10
38.412204143704116
20
124.88005836144984
30
0.0
 70
     32
  0
VERTEX
  8
MY3DLAYER
10
39.20237911526211
20
125.49331597368725
30
0.0
 70
     32
  0
VERTEX
  8
MY3DLAYER
10
39.97769017186295
20
126.05924088354284
30
0.0
 70
     32
  0
VERTEX
  8
MY3DLAYER
10
40.732269065056116
20
126.57341289026073
30
0.0
 70
     32
  0
VERTEX
  8
MY3DLAYER
10
41.46024754639123
20
127.03141179308489
30
0.0
 70
     32
  0
VERTEX
  8
MY3DLAYER
10
42.155757367417685
20
127.42881739125934
30
0.0
 70
     32
  0
VERTEX
  8
MY3DLAYER
10
42.81293027968503
20
127.76120948402797
30
0.0
 70
     32
  0
VERTEX
  8
MY3DLAYER
10
43.425898034742794
20
128.02416787063467
30
0.0
 70
     32
  0
VERTEX
  8
MY3DLAYER
10
44.369726030194904
20
128.37972666205846
30
0.0
 70
     32
  0
VERTEX
  8
MY3DLAYER
10
45.29472199052568
20
128.71216055947596
30
0.0
 70
     32
  0
VERTEX
  8
MY3DLAYER
10
46.20247555640441
20
129.02190161566517
30
0.0
 70
     32
  0
VERTEX
  8
MY3DLAYER
10
47.09457636850004
20
129.30938188340372
30
0.0
 70
     32
  0
VERTEX
  8
MY3DLAYER
10
47.97261406748185
20
129.57503341546897
30
0.0
 70
     32
  0
VERTEX
  8
MY3DLAYER
10
48.83817829401886
20
129.81928826463877
30
0.0
 70
     32
  0
VERTEX
  8
MY3DLAYER
10
49.692858688780284
20
130.04257848369062
30
0.0
 70
     32
  0
VERTEX
  8
MY3DLAYER
10
50.538244892435344
20
130.24533612540208
30
0.0
 70
     32
  0
VERTEX
  8
MY3DLAYER
10
51.37592654565296
20
130.4279932425511
30
0.0
 70
     32
  0
VERTEX
  8
MY3DLAYER
10
52.20749328910245
20
130.59098188791495
30
0.0
 70
     32
  0
VERTEX
  8
MY3DLAYER
10
53.0345347634529
20
130.73473411427153
30
0.0
 70
     32
  0
VERTEX
  8
MY3DLAYER
10
53.85864060937341
20
130.8596819743983
30
0.0
 70
     32
  0
VERTEX
  8
MY3DLAYER
10
54.683118494071685
20
130.95129105419647
30
0.0
 70
     32
  0
VERTEX
  8
MY3DLAYER
10
55.75571592049728
20
131.03151203349344
30
0.0
 70
     32
  0
VERTEX
  8
MY3DLAYER
10
57.04969915341235
20
131.09999106403018
30
0.0
 70
     32
  0
VERTEX
  8
MY3DLAYER
10
58.53833445757847
20
131.15637429754796
30
0.0
 70
     32
  0
VERTEX
  8
MY3DLAYER
10
60.194888097757755
20
131.20030788578788
30
0.0
 70
     32
  0
VERTEX
  8
MY3DLAYER
10
61.99262633871189
20
131.23143798049108
30
0.0
 70
     32
  0
VERTEX
  8
MY3DLAYER
10
63.90481544520296
20
131.24941073339886
30
0.0
 70
     32
  0
VERTEX
  8
MY3DLAYER
10
65.90472168199251
20
131.2538722962523
30
0.0
 70
     32
  0
VERTEX
  8
MY3DLAYER
10
67.9656113138427
20
131.24446882079252
30
0.0
 70
     32
  0
VERTEX
  8
MY3DLAYER
10
70.06075060551514
20
131.22084645876078
30
0.0
 70
     32
  0
VERTEX
  8
MY3DLAYER
10
72.16340582177195
20
131.1826513618982
30
0.0
 70
     32
  0
VERTEX
  8
MY3DLAYER
10
74.24684322737484
20
131.12952968194594
30
0.0
 70
     32
  0
VERTEX
  8
MY3DLAYER
10
76.45511645575067
20
131.06215380545288
30
0.0
 70
     32
  0
VERTEX
  8
MY3DLAYER
10
78.4266626990185
20
130.99624912586972
30
0.0
 70
     32
  0
VERTEX
  8
MY3DLAYER
10
80.18523364550136
20
130.93026199044766
30
0.0
 70
     32
  0
VERTEX
  8
MY3DLAYER
10
81.75458098352286
20
130.86263874643757
30
0.0
 70
     32
  0
VERTEX
  8
MY3DLAYER
10
83.15845640140614
20
130.7918257410904
30
0.0
 70
     32
  0
VERTEX
  8
MY3DLAYER
10
84.4206115874746
20
130.71626932165734
30
0.0
 70
     32
  0
VERTEX
  8
MY3DLAYER
10
85.56479823005147
20
130.63441583538918
30
0.0
 70
     32
  0
VERTEX
  8
MY3DLAYER
10
86.61476801746001
20
130.54471162953706
30
0.0
 70
     32
  0
VERTEX
  8
MY3DLAYER
10
87.59427263802363
20
130.44560305135215
30
0.0
 70
     32
  0
VERTEX
  8
MY3DLAYER
10
88.52706378006557
20
130.33553644808515
30
0.0
 70
     32
  0
VERTEX
  8
MY3DLAYER
10
89.43689313190907
20
130.21295816698728
30
0.0
 70
     32
  0
VERTEX
  8
MY3DLAYER
10
90.3475123818775
20
130.07631455530955
30
0.0
 70
     32
  0
VERTEX
  8
MY3DLAYER
10
91.66369280881258
20
129.87204241254227
30
0.0
 70
     32
  0
VERTEX
  8
MY3DLAYER
10
92.82178471481905
20
129.69942014840427
30
0.0
 70
     32
  0
VERTEX
  8
MY3DLAYER
10
93.8608237788135
20
129.5558088088231
30
0.0
 70
     32
  0
VERTEX
  8
MY3DLAYER
10
94.81984567971269
20
129.43856943972614
30
0.0
 70
     32
  0
VERTEX
  8
MY3DLAYER
10
95.7378860964333
20
129.345063087041
30
0.0
 70
     32
  0
VERTEX
  8
MY3DLAYER
10
96.653980707892
20
129.27265079669542
30
0.0
 70
     32
  0
VERTEX
  8
MY3DLAYER
10
97.6071651930054
20
129.21869361461646
30
0.0
 70
     32
  0
VERTEX
  8
MY3DLAYER
10
98.63647523069034
20
129.180552586732
30
0.0
 70
     32
  0
VERTEX
  8
MY3DLAYER
10
99.78094649986329
20
129.15558875896957
30
0.0
 70
     32
  0
VERTEX
  8
MY3DLAYER
10
101.07961467944105
20
129.14116317725637
30
0.0
 70
     32
  0
VERTEX
  8
MY3DLAYER
10
102.5715154483403
20
129.1346368875203
30
0.0
 70
     32
  0
VERTEX
  8
MY3DLAYER
10
104.29568448547758
20
129.1333709356887
30
0.0
 70
     32
  0
VERTEX
  8
MY3DLAYER
10
106.04835211835719
20
129.13653602241953
30
0.0
 70
     32
  0
VERTEX
  8
MY3DLAYER
10
107.58123225754468
20
129.14620495116233
30
0.0
 70
     32
  0
VERTEX
  8
MY3DLAYER
10
108.92045207657345
20
129.16425208805035
30
0.0
 70
     32
  0
VERTEX
  8
MY3DLAYER
10
110.09213874897627
20
129.19255179921657
30
0.0
 70
     32
  0
VERTEX
  8
MY3DLAYER
10
111.12241944828614
20
129.23297845079415
30
0.0
 70
     32
  0
VERTEX
  8
MY3DLAYER
10
112.03742134803596
20
129.28740640891633
30
0.0
 70
     32
  0
VERTEX
  8
MY3DLAYER
10
112.8632716217585
20
129.35771003971632
30
0.0
 70
     32
  0
VERTEX
  8
MY3DLAYER
10
113.62609744298709
20
129.44576370932708
30
0.0
 70
     32
  0
VERTEX
  8
MY3DLAYER
10
114.35202598525441
20
129.55344178388205
30
0.0
 70
     32
  0
VERTEX
  8
MY3DLAYER
10
115.06718442209349
20
129.68261862951397
30
0.0
 70
     32
  0
VERTEX
  8
MY3DLAYER
10
115.79769992703719
20
129.83516861235617
30
0.0
 70
     32
  0
VERTEX
  8
MY3DLAYER
10
116.56969967361857
20
130.01296609854214
30
0.0
 70
     32
  0
VERTEX
  8
MY3DLAYER
10
118.42563434205685
20
130.4553781995429
30
0.0
 70
     32
  0
VERTEX
  8
MY3DLAYER
10
121.39128867451576
20
130.09848356608953
30
0.0
 70
     32
  0
VERTEX
  8
MY3DLAYER
10
121.83019543133398
20
130.04691476559785
30
0.0
 70
     32
  0
VERTEX
  8
MY3DLAYER
10
122.32560844160096
20
129.99093570057548
30
0.0
 70
     32
  0
VERTEX
  8
MY3DLAYER
10
122.86890113391338
20
129.931418873288
30
0.0
 70
     32
  0
VERTEX
  8
MY3DLAYER
10
123.45144693686817
20
129.86923678600127
30
0.0
 70
     32
  0
VERTEX
  8
MY3DLAYER
10
124.06461927906187
20
129.8052619409814
30
0.0
 70
     32
  0
VERTEX
  8
MY3DLAYER
10
124.69979158909118
20
129.7403668404937
30
0.0
 70
     32
  0
VERTEX
  8
MY3DLAYER
10
125.34833729555285
20
129.6754239868044
30
0.0
 70
     32
  0
VERTEX
  8
MY3DLAYER
10
126.0016298270434
20
129.6113058821791
30
0.0
 70
     32
  0
VERTEX
  8
MY3DLAYER
10
126.65104261215967
20
129.5488850288838
30
0.0
 70
     32
  0
VERTEX
  8
MY3DLAYER
10
127.28794907949818
20
129.48903392918413
30
0.0
 70
     32
  0
VERTEX
  8
MY3DLAYER
10
127.90372265765582
20
129.43262508534602
30
0.0
 70
     32
  0
VERTEX
  8
MY3DLAYER
10
128.48973677522895
20
129.38053099963525
30
0.0
 70
     32
  0
VERTEX
  8
MY3DLAYER
10
129.48937822018016
20
129.29135723190373
30
0.0
 70
     32
  0
VERTEX
  8
MY3DLAYER
10
130.45186344404522
20
129.20159689497146
30
0.0
 70
     32
  0
VERTEX
  8
MY3DLAYER
10
131.38508194381606
20
129.11033334204947
30
0.0
 70
     32
  0
VERTEX
  8
MY3DLAYER
10
132.2969232164839
20
129.0166499263491
30
0.0
 70
     32
  0
VERTEX
  8
MY3DLAYER
10
133.19527675904084
20
128.91963000108157
30
0.0
 70
     32
  0
SEQEND
 0
ENDSEC
 0
EOF
