<?xml version="1.0"?>
<svg 
  xmlns="http://www.w3.org/2000/svg" 
  xmlns:xlink="http://www.w3.org/1999/xlink" version="1.1" preserveAspectRatio="xMinYMin meet" viewBox="0 -198.59599018051372 209.50705215418904 200.87710503546802" width="100%" height="100%">
  <path fill="none" stroke="#000000" stroke-width="1%" d="M133.19527675904084,-128.91963000108157L134.08803206847836,-128.81835691945824L134.98307864178793,-128.7119140346901L135.88830597596137,-128.59938469998883L136.81160356799026,-128.4798522685653L137.7608609148663,-128.35240009363085L138.7439675135812,-128.21611152839685L139.76881286112626,-128.0700699260745L140.1900216377975,-128.0127446237675L140.6144396739703,-127.96242921888258L141.0510036473178,-127.91874148100814L141.50865023551276,-127.88129917973222L141.99631611622812,-127.84972008464331L142.5229379671367,-127.82362196532966L143.09745246591137,-127.80262259137949L143.72879629022506,-127.78633973238115L144.42590611775046,-127.77439115792279L145.19771862616042,-127.76639463759302L146.05317049312816,-127.7619679409796L147.00119839632623,-127.76072883767127L148.31738650200262,-127.76600127041702L149.5027319083411,-127.7824412858474L150.57283297764903,-127.81178989140524L151.54328807223382,-127.85578809453409L152.42969555440212,-127.91617690267678L153.24765378646146,-127.99469732327674L154.0127611307187,-128.09309036377687L154.74061594948114,-128.21309703162072L155.44681660505626,-128.35645833425127L156.14696145975043,-128.52491527911167L156.85664887587154,-128.72020887364505L157.59147721572626,-128.94408012529476L158.0429637032781,-129.0931226441793L158.44451521437136,-129.23915753054555L158.8002587357815,-129.3852769348531L159.11432125428405,-129.53457300756128L159.39082975665477,-129.69013789912918L159.63391122966894,-129.85506376001666L159.84769266010235,-130.0324427406828L160.03630103473034,-130.22536699158715L160.20386334032844,-130.43692866318915L160.35450656367226,-130.6702199059479L160.49235769153734,-130.92833287032292L160.6215437106993,-131.21435970677365L160.68964077918008,-131.37268034366696L160.77869561352077,-131.5732009270164L160.88659825947687,-131.81142894124997L161.01123876280363,-132.08287187079586L161.1505071692566,-132.38303720008173L161.30229352459065,-132.70743241353568L161.46448787456146,-133.05156499558572L161.6349802649245,-133.41094243065993L161.81166074143482,-133.7810722031859L161.99241934984798,-134.15746179759188L162.17514613591922,-134.53561869830574L162.35773114540407,-134.91105038975553L162.74782424207822,-135.72011266948286L163.08911552981095,-136.45001934229032L163.3838195509741,-137.10757158131307L163.63415084794016,-137.69957055968572L163.84232396308087,-138.2328174505428L164.01055343876854,-138.71411342701975L164.14105381737534,-139.15025966225093L164.23603964127295,-139.5480573293714L164.2977254528338,-139.9143076015158L164.32832579443004,-140.2558116518192L164.33005520843352,-140.5793706534164L164.30512823721634,-140.89178577944185L164.28141080073982,-141.09406600448193L164.2642372124695,-141.26644454744573L164.2549699922944,-141.41312025795682L164.25497166010183,-141.53829198563955L164.26560473578036,-141.64615858011746L164.288231739218,-141.7409188910148L164.32421519030285,-141.8267717679554L164.37491760892343,-141.90791606056317L164.4417015149673,-141.98855061846203L164.52592942832288,-142.0728742912759L164.62896386887854,-142.16508592862886L164.75216735652194,-142.26938438014483L165.09384736934683,-142.56055752448685L165.40565239443129,-142.83906769484395L165.69081630232577,-143.10895392792156L165.9525729635802,-143.37425526042483L166.19415624874424,-143.63901072905912L166.41880002836825,-143.90725937052997L166.62973817300184,-144.18304022154248L166.83020455319524,-144.47039231880242L167.02343303949834,-144.77335469901493L167.2126575024611,-145.0959663988854L167.4011118126334,-145.4422664551192L167.5920298405652,-145.81629390442177L167.7360501990544,-146.1111553080007L167.86522787093983,-146.3860954557285L167.9803258481497,-146.6433805767091L168.08210712261354,-146.88527690004733L168.1713346862593,-147.114050654847L168.2487715310163,-147.331968070213L168.3151806488129,-147.5412953752492L168.371325031578,-147.74429879906037L168.4179676712405,-147.94324457075064L168.45587155972888,-148.14039891942417L168.48579968897187,-148.33802807418567L168.5085150508982,-148.53839826413906L168.6122558520778,-149.62331100848237L169.14048643104755,-149.57342666651917L169.24739580758265,-149.56694897506998L169.34757414364287,-149.56956053566861L169.4435693500772,-149.58284728849966L169.53792933773482,-149.60839517374734L169.6332020174646,-149.64779013159617L169.73193530011596,-149.70261810223022L169.8366770965374,-149.77446502583422L169.94997531757832,-149.86491684259278L170.07437787408765,-149.9755594926899L170.21243267691443,-150.10797891631026L170.36668763690787,-150.2637610536379L170.53969066491683,-150.44449184485768L170.66831689748923,-150.58550628571624L170.8130130146293,-150.75309226194054L170.97128193065734,-150.94394551608866L171.14062655989312,-151.15476179071922L171.31854981665657,-151.3822368283904L171.50255461526785,-151.62306637166077L171.6901438700467,-151.8739461630883L171.87882049531333,-152.13157194523149L172.06608740538746,-152.39263946064867L172.2494475145893,-152.65384445189838L172.42640373723862,-152.91188266153847L172.5944589876554,-153.1634498321279L172.87638004332092,-153.58274994373926L173.15839411250593,-153.98465091288503L173.43942686116367,-154.36792180580684L173.7184039552465,-154.73133168874625L173.9942510607077,-155.0736496279443L174.26589384349947,-155.39364468964246L174.53225796957514,-155.69008594008224L174.79226910488734,-155.9617424455052L175.0448529153889,-156.20738327215224L175.28893506703238,-156.42577748626516L175.52344122577105,-156.61569415408522L175.74729705755738,-156.77590234185388L175.9380680359473,-156.9578830412325L176.04955718840333,-157.19700071484584L176.08213791078256,-157.49249994828435L176.03618359894327,-157.8436253271386L175.91206764874227,-158.2496214369994L175.71016345603712,-158.70973286345682L175.43084441668583,-159.2232041921019L175.07448392654592,-159.78928000852497L174.6414553814744,-160.40720489831637L174.13213217732908,-161.07622344706726L173.54688770996782,-161.79558024036774L172.8860953752477,-162.5645198638084L172.47101081840654,-163.03981884580355L172.09102804980154,-163.4842183001296L171.7367173657283,-163.91068690035672L171.39864906248226,-164.33219332005555L171.06739343635897,-164.76170623279626L170.73352078365355,-165.21219431214965L170.38760140066177,-165.6966262316862L170.02020558367911,-166.2279706649762L169.6219036290011,-166.81919628559012L169.183265832923,-167.48327176709856L168.69486249174022,-168.23316578307194L168.14726390174846,-169.08184700708085L167.9837182169105,-169.33112437327648L167.79974199348004,-169.6025599242159L167.59851011317323,-169.89188292624056L167.3831974577059,-170.19482264569208L167.15697890879463,-170.50710834891225L166.9230293481555,-170.82446930224256L166.6845236575046,-171.142634772025L166.4446367185582,-171.45733402460124L166.20654341303228,-171.7642963263127L165.9734186226433,-172.0592509435011L165.74843722910714,-172.3379271425083L165.53477411414016,-172.59605418967595L165.14609385052862,-173.06269430459358L164.80684358138862,-173.4789108166429L164.51412401224795,-173.8494023174358L164.26503584863474,-174.17886739858395L164.05667979607693,-174.4720046516988L163.88615656010222,-174.73351266839222L163.75056684623885,-174.96809004027574L163.6470113600143,-175.180435358961L163.57259080695695,-175.37524721605988L163.5244058925945,-175.55722420318378L163.49955732245513,-175.73106491194443L163.49514580206622,-175.90146793395334L163.49589927207347,-175.9980071940324L163.49074412727379,-176.0809941915012L163.47741650433093,-176.1519980307514L163.45365253990852,-176.2125878161744L163.41718837067017,-176.2643326521611L163.36576013327925,-176.30880164310324L163.2971039643991,-176.3475638933919L163.2089560006937,-176.38218850741842L163.09905237882668,-176.41424458957417L162.96512923546106,-176.4453012442505L162.804922707261,-176.47692757583866L162.61616893088967,-176.5106926887298L161.7242689501263,-176.66544255324507L162.45569173294703,-177.1581864441333L162.74901159156528,-177.34610989717356L163.01782828098135,-177.48764172911905L163.27652134812513,-177.57668461456657L163.53947033992614,-177.60714122811186L163.82105480331458,-177.57291424435135L164.1356542852199,-177.46790633788132L164.49764833257228,-177.28602018329815L164.92141649230143,-177.02115845519785L165.4213383113369,-176.6672238281767L166.01179333660895,-176.21811897683114L166.707161115047,-175.66774657575732L167.5218211935812,-175.01000929955129L167.77070422863906,-174.81107966804785L168.07132792133729,-174.57600392773446L168.41755384546857,-174.30935873077658L168.80324357482593,-174.0157207293398L169.22225868320157,-173.69966657558982L169.66846074438809,-173.3657729216921L170.1357113321783,-173.01861641981233L170.61787202036484,-172.66277372211587L171.10880438274032,-172.30282148076853L171.60236999309734,-171.94333634793594L172.09243042522849,-171.58889497578335L172.57284725292632,-171.24407401647662L173.58289576856993,-170.51918983480087L174.48094736263715,-169.86809345978153L175.2737770294516,-169.28529967138545L175.96815976333752,-168.7653232495784L176.57087055861894,-168.3026789743275L177.0886844096197,-167.89188162559907L177.52837631066402,-167.5274459833594L177.8967212560756,-167.2038868275756L178.20049424017873,-166.91571893821367L178.44647025729725,-166.65745709524046L178.64142430175522,-166.42361607862222L178.79213136787646,-166.20871066832555L178.91023767438818,-166.03122622855264L179.0308671323987,-165.8719894580424L179.15856903591,-165.72834195399108L179.29789267892414,-165.597625313596L179.45338735544235,-165.4771811340533L179.62960235946662,-165.36435101256L179.83108698499896,-165.25647654631308L180.06239052604076,-165.15089933250903L180.3280622765943,-165.04496096834447L180.63265153066095,-164.93600305101617L180.98070758224253,-164.82136717772116L181.376779725341,-164.69839494565608L181.72976080783312,-164.60017174963642L182.0798345451802,-164.51976095689452L182.4220401621905,-164.4571662043569L182.75141688367282,-164.412391128951L183.06300393443541,-164.3854393676026L183.3518405392864,-164.3763145572393L183.61296592303444,-164.38502033478758L183.84141931048774,-164.41156033717425L184.03223992645493,-164.455938201326L184.18046699574398,-164.51815756416948L184.28113974316364,-164.5982220626321L184.32929739352227,-164.6961353336398L184.3081790026145,-164.91465810546396L184.18364179507034,-165.21576109920906L183.96308599176837,-165.59100566312537L183.65391181358754,-166.0319531454634L183.26351948140623,-166.5301648944735L182.79930921610318,-167.07720225840578L182.268681238557,-167.66462658551114L181.6790357696466,-168.28399922403932L181.0377730302505,-168.9268815222412L180.35229324124737,-169.58483482836704L179.62999662351564,-170.24942049066675L178.87828339793438,-170.91219985739147L178.58568397802435,-171.16017624544344L178.2615776001149,-171.42682655057695L177.9113252355208,-171.708115521315L177.540287855558,-172.00000790618034L177.1538264315417,-172.2984684536971L176.7573019347876,-172.59946191238814L176.35607533661081,-172.89895303077665L175.95550760832705,-173.19290655738615L175.56095972125138,-173.47728724073988L175.1777926466997,-173.74805982936093L174.81136735598702,-174.0011890717726L174.46704482042927,-174.23263971649843L173.66408782261843,-174.7738271190132L172.94614234993688,-175.2801084140765L172.30842551881562,-175.75646340895318L171.74615444568525,-176.20787191090795L171.25454624697704,-176.63931372720566L170.82881803912164,-177.055768665111L170.46418693855009,-177.4622165318889L170.1558700616935,-177.86363713480398L169.89908452498278,-178.26501028112116L169.6890474448485,-178.67131577810486L169.52097593772203,-179.0875334330202L169.39008712003408,-179.51864305313205L169.3628384442207,-179.62363226415042L169.3351197715373,-179.72980241001193L169.30727439256196,-179.83587066542745L169.27964559787299,-179.94055420510867L169.25257667804846,-180.04257020376645L169.2264109236669,-180.14063583611247L169.20149162530564,-180.23346827685808L169.1781620735439,-180.31978470071428L169.15676555895922,-180.39830228239262L169.13764537212992,-180.46773819660464L169.1211448036342,-180.5268096180613L169.10760714405026,-180.57423372147403L169.08648935341193,-180.62619092809084L169.04791889039558,-180.6984612535302L168.99324326815264,-180.789161264059L168.9238099998342,-180.89640752594403L168.84096659859242,-181.01831660545216L168.74606057757794,-181.15300506885038L168.64043944994265,-181.29858948240536L168.52545072883788,-181.45318641238393L168.40244192741503,-181.6149124250535L168.2727605588255,-181.7818840866802L168.13775413622085,-181.95221796353152L167.99877017275224,-182.12403062187394L167.75820765052782,-182.4222709552395L167.55330673490798,-182.68576945725243L167.38275186826326,-182.91769957604376L167.24522749296403,-183.12123475974522L167.13941805138032,-183.299548456488L167.06400798588285,-183.45581411440386L167.01768173884128,-183.59320518162437L166.9991237526265,-183.71489510628052L167.00701846960854,-183.82405733650367L167.04005033215776,-183.9238653204256L167.09690378264438,-184.01749250617792L167.17626326343884,-184.10811234189154L167.20854396054457,-184.1473458696251L167.22920736014206,-184.1897289900754L167.2377902448751,-184.2360903293407L167.23382939738755,-184.28725851351987L167.2168616003234,-184.34406216871153L167.18642363632645,-184.4073299210142L167.14205228804104,-184.47789039652696L167.08328433811081,-184.55657222134803L167.0096565691797,-184.6442040215761L166.9207057638919,-184.74161442331004L166.81596870489133,-184.84963205264827L166.6949821748216,-184.9690855356898L166.5681524134144,-185.09654317425333L166.45248971210435,-185.22263156284862L166.3467424172425,-185.34964552459283L166.24965887518135,-185.479879882603L166.1599874322722,-185.61562945999594L166.07647643486703,-185.75918907988896L165.9978742293176,-185.91285356539888L165.9229291619753,-186.07891773964295L165.8503895791924,-186.25967642573792L165.77900382732,-186.45742444680118L165.70752025271048,-186.67445662594952L165.63468720171505,-186.9130677863001L165.50447540442096,-187.38250580782233L165.3822529960202,-187.88073699026222L165.2686974900691,-188.40283090381507L165.1644864001238,-188.94385711867665L165.07029723974097,-189.49888520504186L164.986807522477,-190.0629847331071L164.91469476188834,-190.63122527306734L164.8546364715309,-191.19867639511844L164.80731016496156,-191.76040766945528L164.7733933557366,-192.311488666274L164.75356355741235,-192.84698895577006L164.74849828354527,-193.3619781081387L164.75582209953654,-193.83492770958406L164.77291548474352,-194.2646177335972L164.7999647416234,-194.65176527620926L164.8371561726333,-194.99708743345172L164.8846760802304,-195.30130130135555L164.94271076687158,-195.56512397595233L165.0114465350139,-195.78927255327366L165.0910696871149,-195.97446412935065L165.1817665256316,-196.12141580021444L165.28372335302078,-196.2308446618969L165.39712647173988,-196.303467810429L165.52216218424599,-196.34000234184197L165.68336545283694,-196.34869641413565L165.83024521141857,-196.32506793877153L165.96385236234264,-196.26696117153702L166.08523780796108,-196.17222036822037L166.19545245062614,-196.0386897846094L166.29554719268924,-195.8642136764921L166.38657293650274,-195.64663629965645L166.46958058441842,-195.38380190989L166.5456210387881,-195.07355476298048L166.61574520196393,-194.71373911471616L166.68100397629752,-194.30219922088492L166.74244826414136,-193.83677933727435L166.8656716324743,-192.93345475021L167.00942825609891,-192.10936677819578L167.17991568423423,-191.3522460545301L167.38333146609932,-190.64982321251176L167.6258731509133,-189.98982888543938L167.9137382878951,-189.35999370661156L168.25312442626392,-188.74804830932698L168.65022911523866,-188.14172332688426L169.11124990403843,-187.52874939258209L169.64238434188218,-186.89685713971886L170.24982997798912,-186.2337772015934L170.93978436157835,-185.52724021150422L172.1691290691857,-184.307022784781L173.41477907998453,-183.0850944417701L174.66309009240024,-181.87417471596424L175.90041780485848,-180.68698314085668L177.11311791578458,-179.53623924994002L178.28754612360422,-178.43466257670747L179.41005812674257,-177.39497265465192L180.4670096236253,-176.42988901726662L181.44475631267758,-175.55213119804404L182.32965389232518,-174.7744187304776L183.10805806099347,-174.10947114806004L183.76632451710807,-173.5700079842842L184.1269882013608,-173.28214040149857L184.49568718452818,-172.98631715790177L184.86776280351106,-172.68635420181678L185.23855639521054,-172.3860674815664L185.60340929652784,-172.089272945473L185.95766284436368,-171.79978654186021L186.2966583756191,-171.5214242190501L186.6157372271951,-171.25800192536585L186.9102407359928,-171.01333560913045L187.17551023891315,-170.7912412186662L187.4068870728572,-170.59553470229622L187.59971257472603,-170.4300320083432L187.89698806908046,-170.17707276577593L188.17040267550215,-169.95478770971943L188.4216492739472,-169.76231789693597L188.65242074437126,-169.59880438418762L188.86440996672943,-169.46338822823643L189.05930982097848,-169.35521048584482L189.23881318707345,-169.27341221377483L189.4046129449706,-169.21713446878874L189.55840197462538,-169.18551830764866L189.7018731559936,-169.1777047871168L189.83671936903107,-169.19283496395536L189.96463349369364,-169.23004989492622L190.07664387189914,-169.28834688284735L190.15658941578505,-169.36493874945916L190.2044854428148,-169.45978755066923L190.22034727045403,-169.57285534238508L190.20419021616638,-169.7041041805143L190.15602959741645,-169.85349612096448L190.0758807316686,-170.02099321964351L189.96375893638756,-170.20655753245845L189.81967952903761,-170.4101511153172L189.6436578270834,-170.6317360241272L189.43570914798866,-170.87127431479632L189.19584880921886,-171.12872804323183L188.74144117267826,-171.62909246095577L188.34345330134903,-172.13787000132174L187.99486591241975,-172.6816889851875L187.68865972307793,-173.28717773341043L187.41781545051242,-173.9809645668477L187.1753138119111,-174.7896778063569L186.95413552446215,-175.73994577279566L186.7472613053538,-176.85839678702092L186.54767187177433,-178.1716591698906L186.34834794091174,-179.70636124226178L186.14227022995456,-181.48913132499197L185.9224194560908,-183.54659773893874L185.73598984071245,-185.28685548321116L185.55771081129674,-186.83166544608673L185.3843024389706,-188.19643773124298L185.21248479486044,-189.39658244235795L185.03897795009343,-190.44750968310908L184.86050197579598,-191.36462955717465L184.67377694309513,-192.16335216823163L184.47552292311795,-192.85908761995842L184.2624599869908,-193.4672460160325L184.03130820584053,-194.00323746013186L183.7787876507941,-194.4824720559341L183.50161839297806,-194.92035990711696L183.34185603946779,-195.14374329622925L183.18242758408417,-195.3468539823095L183.01901685630074,-195.53274968859716L182.84730768559174,-195.70448813833227L182.66298390143083,-195.86512705475488L182.46172933329188,-196.01772416110447L182.23922781064897,-196.16533718062118L181.99116316297602,-196.3110238365447L181.71321921974678,-196.45784185211488L181.401079810435,-196.60884895057177L181.05042876451495,-196.767102855155L180.65694991146037,-196.9356612891046L180.29917226160947,-197.0908876545863L179.98852622386815,-197.23682939090102L179.7241678405493,-197.37437851260324L179.50525315396604,-197.50442703424793L179.33093820643114,-197.6278669703892L179.20037904025753,-197.74559033558165L179.11273169775814,-197.85848914438006L179.06715222124583,-197.96745541133896L179.0627966530335,-198.0733811510127L179.09882103543424,-198.17715837795575L179.17438141076084,-198.279679106723L179.2886338213263,-198.38183535186877L179.4532152405306,-198.47164762270305L179.6741092662531,-198.53671997805696L179.94274084433505,-198.5778887274778L180.2505349206175,-198.59599018051372L180.58891644094132,-198.59186064671226L180.9493103511477,-198.56633643562174L181.32314159707786,-198.5202538567896L181.70183512457282,-198.45444921976406L182.07681587947368,-198.36975883409283L182.4395088076216,-198.2670190093234L182.7813388548573,-198.14706605500396L183.09373096702237,-198.01073628068255L183.54860438559956,-197.76212272542142L184.00459510339414,-197.46248930903556L184.4579306951504,-197.11616658027086L184.90483873561317,-196.7274850878724L185.3415467995272,-196.30077538058572L185.76428246163695,-195.84036800715606L186.1692732966873,-195.35059351632884L186.55274687942276,-194.83578245684944L186.91093078458817,-194.30026537746346L187.24005258692807,-193.7483728269159L187.53633986118712,-193.1844353539524L187.79602018210997,-192.6127835073183L187.85091104097543,-192.4711094456414L187.90601978353433,-192.30884353531098L187.9607757512571,-192.12857986555275L188.01460828561534,-191.9329125255931L188.0669467280798,-191.7244356046583L188.11722042012158,-191.5057431919741L188.16485870321176,-191.2794293767674L188.20929091882135,-191.0480882482637L188.2499464084217,-190.81431389568937L188.28625451348316,-190.5807004082709L188.31764457547743,-190.34984187523395L188.343545935875,-190.1243323858051L188.37623847904052,-189.8297950324024L188.41140912524696,-189.55797592928175L188.44998397729245,-189.305484825103L188.49288913797568,-189.0689314685276L188.54105071009465,-188.84492560821496L188.595394796448,-188.63007699282593L188.6568474998343,-188.42099537102123L188.72633492305147,-188.21429049146096L188.8047831688985,-188.00657210280568L188.89311834017303,-187.79444995371585L188.99226653967403,-187.57453379285204L189.1031538701996,-187.34343336887426L189.19190646297795,-187.15469498882635L189.28142122849354,-186.94808453165356L189.37093994872578,-186.72594338019775L189.45970440565358,-186.49061291730092L189.54695638125585,-186.24443452580434L189.63193765751186,-185.9897495885504L189.71389001640048,-185.72889948838073L189.7920552399007,-185.46422560813735L189.86567510999166,-185.19806933066172L189.9339914086523,-184.9327720387958L189.99624591786198,-184.67067511538173L190.05168041959936,-184.41411994326103L190.10371036710595,-184.16788828314563L190.16256899421307,-183.90359959228928L190.22722548994057,-183.62523000621883L190.29664904330943,-183.33675566046102L190.36980884333963,-183.04215269054342L190.44567407905154,-182.74539723199268L190.52321393946534,-182.45046542033592L190.6013976136012,-182.16133339110036L190.67919429047976,-181.88197727981276L190.75557315912073,-181.61637322200053L190.829503408545,-181.36849735319043L190.89995422777278,-181.14232580890965L190.96824227375052,-180.92399187009033L191.0358829185134,-180.69893654454165L191.10213122058852,-180.47009755810555L191.16624223850286,-180.24041263662411L191.22747103078427,-180.0128195059395L191.2850726559596,-179.79025589189357L191.33830217255655,-179.57565952032834L191.38641463910201,-179.37196811708623L191.4286651141236,-179.18211940800893L191.46430865614835,-179.00905111893871L191.49260032370384,-178.85570097571747L191.51279517531694,-178.72500670418736L191.586647430905,-178.2574691487501L191.68387011896004,-177.79121336636456L191.80752851905498,-177.31926512267663L191.96068791076303,-176.83465018333322L192.1464135736572,-176.33039431398026L192.36777078731092,-175.7995232802644L192.62782483129715,-175.2350628478316L192.92964098518914,-174.63003878232857L193.2762845285598,-173.97747684940137L193.67082074098258,-173.27040281469655L194.11631490203072,-172.5018424438602L194.61583229127734,-171.66482150253893L195.19948416487918,-170.68631055863767L195.70455424680156,-169.8091949441799L196.13728848210633,-169.0161190044573L196.50393281585607,-168.28972708476203L196.8107331931129,-167.61266353038638L197.06393555893897,-166.96757268662222L197.26978585839657,-166.33709889876164L197.43453003654767,-165.70388651209666L197.56441403845477,-165.05057987191947L197.66568380918022,-164.35982332352236L197.7445852937856,-163.61426121219722L197.80736443733406,-162.79653788323603L197.86625286605462,-161.95566120867298L197.92759151000274,-161.18828568737803L197.99300034817287,-160.48463614291245L198.06409935955867,-159.8349373988373L198.14250852315507,-159.22941427871385L198.229847817956,-158.6582916061034L198.3277372229561,-158.11179420456696L198.43779671714933,-157.58014689766614L198.56164627953,-157.0535745089618L198.7009058890926,-156.5223018620152L198.8571955248314,-155.97655378038775L199.0321351657407,-155.4065550876405L199.1272467154899,-155.10118132492727L199.22608884111958,-154.7761539841737L199.3273309570779,-154.4362307376312L199.4296424778109,-154.08616925755138L199.5316928177673,-153.7307272161853L199.6321513913947,-153.37466228578467L199.72968761314027,-153.02273213860062L199.82297089745165,-152.67969444688458L199.91067065877678,-152.35030688288788L199.99145631156296,-152.03932711886196L200.06399727025772,-151.7515128270581L200.12696294930876,-151.49162167972773L200.24644780878828,-151.00888732577977L200.36989745517118,-150.55759267846537L200.4990108770372,-150.13401202055533L200.63548706296737,-149.73441963482128L200.78102500154162,-149.3550898040344L200.93732368133996,-148.99229681096617L201.10608209094363,-148.6423149383878L201.2889992189325,-148.30141846907074L201.48777405388716,-147.96588168578623L201.7041055843875,-147.63197887130568L201.93969279901424,-147.29598430840022L202.19623468634782,-146.95417227984152L202.39911406976984,-146.6874135554491L202.5817447256279,-146.4374618182842L202.74527153022566,-146.20213590801907L202.8908393598653,-145.97925466432628L203.0195930908497,-145.76663692687802L203.13267759948184,-145.56210153534678L203.23123776206407,-145.36346732940493L203.31641845489946,-145.1685531487247L203.38936455429095,-144.97517783297863L203.45122093654084,-144.78116022183886L203.50313247795208,-144.58431915497806L203.5462440548275,-144.38247347206837L203.58279558681363,-144.22431609316968L203.63067132944386,-144.0705003785945L203.68855102180027,-143.92282016656134L203.75511440296546,-143.7830692952885L203.82904121202134,-143.65304160299462L203.90901118805155,-143.5345309278977L203.99370407013777,-143.42933110821662L204.0817995973626,-143.33923598216958L204.17197750880842,-143.2660393879749L204.262917543558,-143.21153516385127L204.35329944069292,-143.17751714801685L204.44180293929648,-143.16577917869003L204.53279262810105,-143.13746572253L204.64842039843637,-143.05463716324485L204.78649991353322,-142.9204612146273L204.94484483662285,-142.73810559046944L205.1212688309364,-142.5107380045642L205.31358555970442,-142.2415261707037L205.51960868615782,-141.9336378026809L205.73715187352832,-141.59024061428798L205.96402878504563,-141.21450231931757L206.1980530839416,-140.80959063156217L206.43703843344713,-140.37867326481427L206.67879849679264,-139.92491793286632L206.91306645448213,-139.48813103709332L207.14431016278203,-139.08003209265476L207.3711477943132,-138.70239251593895L207.59219752169713,-138.35698372333448L207.80607751755412,-138.04557713122924L208.01140595450545,-137.76994415601163L208.2068010051721,-137.53185621407002L208.39088084217494,-137.33308472179272L208.56226363813522,-137.17540109556765L208.7195675656732,-137.06057675178334L208.86141079740983,-136.99038310682826L208.98641150596694,-136.96659157709004L209.03059392473364,-136.96317700071302L209.07443559524003,-136.95319652858498L209.11751390659387,-136.93704504621033L209.15940624790326,-136.91511743909373L209.19969000827655,-136.88780859273956L209.237942576821,-136.85551339265248L209.2737413426454,-136.81862672433687L209.30666369485766,-136.77754347329733L209.3362870225654,-136.73265852503826L209.36218871487674,-136.68436676506434L209.3839461609,-136.63306307888027L209.40113674974342,-136.5791423519901L209.45719013518774,-136.2948551164687L209.49217480378888,-135.94804849518437L209.50705215418904,-135.54882152760882L209.50278358503172,-135.1072732532145L209.48033049496027,-134.63350271147348L209.44065428261737,-134.13760894185793L209.38471634664643,-133.62969098384016L209.31347808569066,-133.1198478768921L209.22790089839316,-132.61817866048602L209.12894618339683,-132.13478237409396L209.01757533934526,-131.67975805718828L208.89474976488145,-131.26320474924086L208.79868476711658,-131.00733449399988L208.68010573780535,-130.75838655333476L208.54080599964044,-130.51813725171908L208.38257887531444,-130.28836291362668L208.2072176875204,-130.07083986353172L208.01651575895147,-129.86734442590807L207.81226641229995,-129.67965292522965L207.59626297025898,-129.50954168597028L207.37029875552176,-129.35878703260414L207.1361670907808,-129.2291652896049L206.895661298729,-129.1224527814465L206.65057470205937,-129.04042583260284L206.36417642474646,-128.97677747179287L206.0314412073564,-128.93215872656535L205.65690482017317,-128.90622590380832L205.24510303348063,-128.89863531041013L204.80057161756233,-128.90904325325909L204.3278463427024,-128.93710603924302L203.83146297918427,-128.9824799752502L203.31595729729145,-129.04482136816864L202.7858650673086,-129.12378652488712L202.24572205951836,-129.21903175229312L201.70006404420525,-129.33021335727543L201.15342679165266,-129.4569876467217L200.40393404522626,-129.63749632882207L199.70139967314054,-129.7975108649522L199.03819840290046,-129.93808359104867L198.40670496201037,-130.06026684304805L197.79929407797457,-130.16511295688727L197.20834047829774,-130.25367426850278L196.62621889048467,-130.32700311383132L196.04530404203928,-130.38615182880957L195.45797066046651,-130.43217274937427L194.85659347327123,-130.46611821146192L194.23354720795706,-130.48904055100905L193.58120659202896,-130.50199210395272L192.97099481298804,-130.51274621043413L192.43306529415617,-130.52941588778617L191.96375448503505,-130.55274690373477L191.5593988351276,-130.58348502600595L191.21633479393594,-130.62237602232557L190.93089881096222,-130.6701656604199L190.69942733570906,-130.72759970801462L190.5182568176784,-130.79542393283586L190.38372370637282,-130.87438410260967L190.29216445129444,-130.96522598506186L190.23991550194583,-131.06869534791846L190.22331330782896,-131.18553795890554L190.21535990803287,-131.2657065935277L190.19229353794606,-131.33529803520497L190.1553049415207,-131.39402469836568L190.10558486270884,-131.44159899743855L190.04432404546301,-131.47773334685198L189.97271323373482,-131.50214016103448L189.89194317147698,-131.5145318544146L189.80320460264107,-131.51462084142094L189.70768827118002,-131.50211953648167L189.60658492104562,-131.47674035402585L189.50108529618976,-131.43819570848157L189.39238014056485,-131.38619801427748L189.04455133099492,-131.12017641019975L188.60079818209795,-130.65792753597884L188.0833555718697,-130.03362039640672L187.51445837830562,-129.28142399627495L186.91634147940164,-128.43550734037532L186.31123975315327,-127.53003943349981L185.7213880775564,-126.59918928044014L185.16902133060648,-125.67712588598785L184.67637439029946,-124.79801825493495L184.265682134631,-123.9960353920733L183.9591794415969,-123.30534630219434L183.77910118919237,-122.76011999009005L183.75722498750545,-122.68474028881153L183.72587995160646,-122.60157274087949L183.68591710823813,-122.51197760634393L183.63818748414386,-122.41731514525496L183.58354210606606,-122.31894561766293L183.52283200074766,-122.21822928361784L183.45690819493143,-122.11652640316971L183.38662171536038,-122.01519723636912L183.31282358877698,-121.91560204326579L183.23636484192465,-121.81910108390997L183.15809650154554,-121.72705461835184L183.07886959438287,-121.64082290664159L182.87995473421645,-121.41868323702734L182.64793351570563,-121.13284073979949L182.38286453927483,-120.78338340739998L182.0848064053479,-120.37039923227081L181.7538177143492,-119.89397620685442L181.38995706670298,-119.3542023235926L180.99328306283294,-118.75116557492763L180.5638543031636,-118.08495395330185L180.10172938811914,-117.3556554511569L179.60696691812353,-116.56335806093533L179.07962549360064,-115.7081497750791L178.5197637149751,-114.79011858603026L177.61150538603115,-113.333809245173L176.6587297032579,-111.88563453723442L175.65959669243176,-110.44334203224591L174.61226637932927,-109.00467930023915L173.51489878972663,-107.56739391124526L172.36565394940038,-106.12923343529589L171.16269188412684,-104.68794544242246L169.90417261968253,-103.2412775026563L168.58825618184386,-101.78697718602902L167.21310259638724,-100.32279206257198L165.77687188908894,-98.8464697023166L164.2777240857256,-97.35575767529438L163.60023369032356,-96.6960076696657L162.97324150775353,-96.09343461621856L162.38259393251406,-95.53581358231588L161.81413735910314,-95.01091963532112L161.25371818201893,-94.50652784259748L160.68718279575955,-94.0104132715083L160.10037759482333,-93.5103509894171L159.47914897370853,-92.99411606368699L158.80934332691345,-92.44948356168115L158.076807048936,-91.86422855076306L157.2673865342748,-91.22612609829595L156.3669281774277,-90.52295127164324L155.90818850088402,-90.15980014603994L155.46992537888437,-89.8000003672527L155.05063677479188,-89.44205592958723L154.64882065196986,-89.08447082735L154.2629749737817,-88.72574905484666L153.89159770359066,-88.36439460638333L153.53318680476016,-87.99891147626592L153.1862402406536,-87.62780365880047L152.84925597463408,-87.2495751482929L152.52073197006524,-86.86272993904936L152.1991661903102,-86.46577202537568L151.88305659873214,-86.05720540157797L151.36585064768437,-85.41373125298097L150.7943830414051,-84.77662750296196L150.1743180285316,-84.1501194271257L149.51131985770067,-83.53843230107658L148.81105277754943,-82.94579140041904L148.07918103671497,-82.37642200075797L147.32136888383425,-81.83454937769764L146.54328056754434,-81.32439880684267L145.75058033648244,-80.85019556379767L144.94893243928507,-80.41616492416709L144.14400112458964,-80.02653216355563L143.34145064103336,-79.68552255756758L142.55275579039133,-79.37775698937705L141.90214367982367,-79.11436090392856L141.37563992310555,-78.8648743049821L140.95927013401283,-78.59883719629696L140.63905992632093,-78.28578958163317L140.4010349138057,-77.89527146475015L140.23122071024252,-77.39682284940774L140.11564292940693,-76.75998373936552L140.04032718507494,-75.95429413838332L139.99129909102166,-74.94929405022069L139.95458426102303,-73.71452347863735L139.9162083088545,-72.21952242739297L139.89733751986546,-71.375489845514L139.87834767978592,-70.25835940057985L139.8594634588847,-68.89512697609872L139.84090952743125,-67.31278845557875L139.82291055569476,-65.53833972252784L139.80569121394424,-63.59877666045435L139.78947617244881,-61.521095152866366L139.77449010147782,-59.33229108327194L139.76095767130022,-57.0593603351793L139.7491035521854,-54.7292987920965L139.73915241440235,-52.36910233753165L139.7313289282203,-50.00576685499293L139.72137867083245,-46.30223094498227L139.71472889271962,-43.167167742684384L139.71209318010227,-40.550384049839195L139.71418511920083,-38.401686668186585L139.72171829623596,-36.670882399466564L139.73540629742763,-35.30777804541909L139.75596270899695,-34.26218040778407L139.78410111716394,-33.483896288301445L139.82053510814896,-32.92273248871117L139.8659782681731,-32.52849581075319L139.92114418345614,-32.25099305616747L139.986746440219,-32.04003102669392L140.05976986491063,-31.81598460111229L140.12658110087045,-31.551159999090157L140.1887625360997,-31.227299488023924L140.24789655860005,-30.826145335310052L140.30556555637278,-30.329439808344954L140.3633519174198,-29.718925174525122L140.42283802974234,-28.976343701247004L140.4856062813424,-28.083437655906984L140.55323906022102,-27.021949305901536L140.62731875438018,-25.77362091862713L140.70942775182098,-24.320194761480167L140.80114844054555,-22.643413101857146L140.87553221356245,-21.41202607625028L140.96016316549444,-20.318986050523677L141.0590566612437,-19.34984376174521L141.17622806571285,-18.490149946982722L141.31569274380396,-17.72545534330412L141.48146606041925,-17.041310687777255L141.67756338046144,-16.423266717470035L141.9080000688324,-15.856874169450315L142.176791490435,-15.32768378078597L142.48795301017088,-14.82124628854488L142.84549999294305,-14.323112429794902L143.25344780365342,-13.818832941603928L143.7567372403386,-13.215585275902688L144.2048931974782,-12.656470473781017L144.60010798628753,-12.137537865261342L144.94457391798247,-11.654836780366054L145.2404833037789,-11.204416549117601L145.4900284548926,-10.782326501538398L145.6954016825395,-10.384615967650852L145.8587952979349,-10.00733427747739L145.98240161229492,-9.646530761040424L146.06841293683533,-9.29825474836238L146.11902158277158,-8.958555569465672L146.13641986131987,-8.623482554372721L146.13320344566458,-8.38134693537639L146.12053730555218,-8.163342862285177L146.09736636499304,-7.9673793988036055L146.06263554799645,-7.791365608636188L146.01528977857234,-7.633210555487449L145.95427398073062,-7.490823303061892L145.87853307848073,-7.362112915064054L145.78701199583247,-7.244988455198454L145.67865565679605,-7.137358987169602L145.5524089853807,-7.037133574682017L145.4072169055965,-6.94222128144022L145.24202434145303,-6.850531171148721L145.04800824511108,-6.7686920430909225L144.82532366028911,-6.70720519261096L144.57845824390787,-6.665686652046667L144.31189965288726,-6.643752453735854L144.03013554414792,-6.641018630016336L143.73765357461008,-6.657101213225941L143.43894140119406,-6.691616235702485L143.13848668082025,-6.744179729783785L142.84077707040908,-6.814407727807664L142.5503002268805,-6.901916262111926L142.2715438071554,-7.0063213650344105L142.0089954681536,-7.127239068912924L141.7306471892952,-7.283600611048953L141.45184726768846,-7.467816400847442L141.17537043129778,-7.676827881753272L140.90399140808753,-7.907576497211319L140.6404849260217,-8.157003690666476L140.38762571306503,-8.422050905563594L140.14818849718156,-8.699659585347584L139.92494800633565,-8.986771173463318L139.72067896849174,-9.28032711335568L139.53815611161392,-9.577268848469544L139.3801541636666,-9.874537822249797L139.24944785261422,-10.169075478141318L139.06956950995203,-10.605500020661228L138.8659238154644,-11.070726622210756L138.6414710580634,-11.559086055447281L138.39917152666112,-12.064909093028191L138.14198551016986,-12.582526507610849L137.87287329750106,-13.106269071852624L137.59479517756768,-13.630467558410896L137.3107114392813,-14.149452739943058L137.02358237155389,-14.657555389106468L136.736368263298,-15.14910627855848L136.4520294034252,-15.618436180956513L136.1735260808481,-16.059875868957928L135.85205036505317,-16.56320696669825L135.58075896353034,-17.00178612115727L135.35708199556777,-17.383934211214882L135.17844958045382,-17.717972115750925L135.04229183747708,-18.012220713645274L134.94603888592582,-18.275000883777775L134.88712084508833,-18.514633505028307L134.86296783425323,-18.739439456276724L134.8710099727088,-18.957739616402883L134.90867737974332,-19.177854864286676L134.9734001746455,-19.408106078807954L135.0626084767034,-19.656814138846524L135.1237745867284,-19.82627489315349L135.17668024029172,-19.999470107437425L135.2218441973307,-20.18266342411683L135.25978521778217,-20.382118485610274L135.29102206158302,-20.604098934336307L135.31607348867,-20.854868412713504L135.3354582589801,-21.140690563160405L135.34969513245028,-21.4678290280956L135.3593028690171,-21.8425474499376L135.36480022861798,-22.271109471104964L135.3667059711893,-22.75977873401632L135.36553885666822,-23.31481888109011L135.3514544245722,-24.38751076050521L135.31874773387932,-25.38947993628726L135.26749154431107,-26.320299892261747L135.19775861558892,-27.1795441122541L135.10962170743488,-27.966786080089854L135.00315357957015,-28.681599279594476L134.87842699171657,-29.323557194593363L134.73551470359567,-29.892233308912097L134.57448947492918,-30.387201106376107L134.3954240654384,-30.808034070810855L134.19839123484527,-31.15430568604182L133.98346374287118,-31.42558943589451L133.5166738654293,-31.912817514192316L133.87613115517456,-32.2201572900627L134.015454341513,-32.35834678865033L134.1381536086878,-32.52466251346574L134.2454288035612,-32.726442327982724L134.33847977299507,-32.971024095675176L134.41850636385217,-33.2657456800169L134.486708422994,-33.617944944481835L134.54428579728292,-34.034959752543685L134.59243833358101,-34.524127967676456L134.63236587875048,-35.09278745335387L134.66526827965316,-35.748276073049894L134.69234538315138,-36.49793169023826L134.7147970361073,-37.349092168392914L134.72911480824675,-38.023826053420464L134.73912438991303,-38.61170207623895L134.74449877548568,-39.11958525746855L134.74491095934388,-39.55434061772972L134.7400339358672,-39.92283317764276L134.72954069943484,-40.23192795782795L134.71310424442635,-40.48848997890561L134.69039756522128,-40.69938426149615L134.66109365619877,-40.87147582621978L134.6248655117384,-41.01162969369695L134.58138612621946,-41.12671088454786L134.53032849402146,-41.22358441939294L134.35832496528894,-41.512960566451504L134.2115932684683,-41.787589702797426L134.08638264450104,-42.07113779827393L133.97894233432874,-42.38727082272415L133.88552157889302,-42.75965474599121L133.80236961913508,-43.211955537918335L133.72573569599652,-43.76783916834862L133.6518690504189,-44.45097160712532L133.57701892334373,-45.28501882409157L133.4974345557125,-46.293646789090445L133.40936518846647,-47.500521471965165L133.3090600625474,-48.92930884255896L133.15455009395976,-51.121043864366335L133.00776241553763,-53.14187094691259L132.86786560463298,-55.001078497531246L132.73402823859757,-56.70795492355584L132.60541889478338,-58.27178863232001L132.48120615054214,-59.70186803115729L132.36055858322544,-61.00748152740126L132.24264477018545,-62.197917528385595L132.12663328877383,-63.28246444144376L132.01169271634245,-64.27041067390937L131.89699163024315,-65.17104463311607L131.78169860782762,-65.99365472639735L131.6599079414767,-66.79518858651953L131.547763153521,-67.46953180793783L131.44218472034592,-68.02125352179452L131.34009311833694,-68.45492285923177L131.2384088238795,-68.775108951392L131.134052313359,-68.98638092941717L131.02394406316103,-69.0933079244498L130.90500454967068,-69.1004590676319L130.77415424927375,-69.01240349010583L130.62831363835545,-68.83371032301365L130.4644031933014,-68.5689486974978L130.27934339049682,-68.22268774470028L130.21443681662333,-68.08408046327045L130.15419581247883,-67.9305651717944L130.09808995877455,-67.75916029651108L130.04558883622215,-67.56688426365908L129.99616202553273,-67.35075549947709L129.94927910741816,-67.10779243020413L129.9044096625894,-66.83501348207874L129.86102327175814,-66.52943708133964L129.81858951563578,-66.18808165422575L129.77657797493387,-65.80796562697577L129.7344582303636,-65.38610742582838L129.6916998626366,-64.91952547702233L129.62540172995674,-64.18765908447108L129.56108765735885,-63.523435949620385L129.49658882888065,-62.91276567887425L129.42973642855932,-62.34155787863712L129.35836164043246,-61.79572215531319L129.2802956485372,-61.26116811530681L129.1933696369114,-60.723805365022166L129.09541478959238,-60.16954351086352L128.9842622906174,-59.5842921592352L128.8577433240242,-58.95396091654143L128.7136890738499,-58.2644593891865L128.54993072413228,-57.50169718357471L128.47305293034054,-57.14263380713272L128.38742906914933,-56.734674513620476L128.29449725908975,-56.28504547401885L128.195695618693,-55.80097285930836L128.09246226649063,-55.28968284046981L127.98623532101338,-54.758401588484L127.87845290079298,-54.21435527433143L127.77055312436038,-53.664770068992894L127.66397411024683,-53.116872143449044L127.56015397698364,-52.57788766868065L127.46053084310196,-52.05504281566841L127.36654282713327,-51.55556375539292L127.27500608451392,-51.06797848145126L127.18252123392384,-50.57976542451318L127.09020156336756,-50.096574885778125L126.99916036084971,-49.624057166445354L126.91051091437528,-49.16786256771429L126.82536651194864,-48.7336413907844L126.74484044157475,-48.32704393685492L126.67004599125832,-47.9537205071253L126.6020964490039,-47.61932140279493L126.54210510281641,-47.32949692506316L126.49118524070045,-47.08989737512936L126.45045015066074,-46.9061730541929L126.38232848290178,-46.574581305415L126.30400138673474,-46.13328168852863L126.21713453225354,-45.594808091335125L126.12339358955217,-44.97169440163571L126.02444422872422,-44.27647450723159L125.92195211986378,-43.52168229592417L125.81758293306436,-42.719851655514724L125.7130023384203,-41.88351647380443L125.609876006025,-41.02521063859453L125.50986960597257,-40.15746803768639L125.41464880835689,-39.29282255888124L125.3258792832717,-38.44380808998035L125.29895117018656,-38.201432198416654L125.26756775117451,-37.9592716199804L125.2321830206276,-37.71945527036947L125.19325097293822,-37.48411206528173L125.15122560249846,-37.255370920415L125.10656090370051,-37.03536075146723L125.05971087093673,-36.82621047413627L125.01112949859915,-36.630049004119925L124.96127078108012,-36.44900525711615L124.9105887127718,-36.28520814882271L124.85953728806625,-36.14078659493754L124.80857050135576,-36.01786951115853L124.67779632689742,-35.65930953246297L124.56025997271537,-35.18270185944993L124.4555545549777,-34.58097249297994L124.36327318985239,-33.847047433913716L124.28300899350785,-32.97385268311181L124.21435508211174,-31.9543142414349L124.15690457183261,-30.781358109743604L124.1102505788383,-29.44791028889849L124.07398621929694,-27.946896779760287L124.0477046093767,-26.27124358318951L124.03099886524558,-24.41387670004685L124.02346210307176,-22.367722131192927L124.02246605357936,-20.468441002790176L124.02689956148565,-18.85710651854712L124.03901733778314,-17.509069220060994L124.06107409346454,-16.399679648929055L124.09532453952215,-15.50428834674854L124.14402338694882,-14.798245855116699L124.20942534673682,-14.256902715630767L124.29378512987876,-13.855609469887991L124.39935744736727,-13.56971665948562L124.52839701019475,-13.374574826020877L124.68315852935378,-13.24553451109104L124.86589671583701,-13.157946256293325L124.95048450839418,-13.123274963665082L125.02242779408003,-13.086760766085849L125.08266829682306,-13.04559866082411L125.13214774055179,-12.996983645148328L125.17180784919476,-12.938110716326992L125.20259034668068,-12.866174871628601L125.22543695693798,-12.778371108321611L125.2412894038953,-12.67189442367453L125.25108941148105,-12.54393981495581L125.25577870362397,-12.39170227943395L125.25629900425255,-12.21237681437743L125.2535920372952,-12.003158417054722L125.25825879108505,-11.685771763952005L125.28480467493544,-11.357311932897254L125.33529933323074,-11.011516319585004L125.41181241035517,-10.642122319709792L125.51641355069306,-10.242867328966113L125.65117239862893,-9.807488743048516L125.81815859854699,-9.329723957651522L126.01944179483145,-8.803310368469655L126.2570916318668,-8.221985371197437L126.53317775403728,-7.579486361529384L126.84976980572723,-6.869550735160041L127.20893743132103,-6.085915887783919L127.73188442194882,-4.931632719804674L128.15958159958265,-3.9215536704540206L128.4919907305882,-3.0407638513039146L128.72907358133122,-2.2743483739263284L128.87079191817787,-1.6073923498932068L128.9171075074938,-1.0249808907765205L128.86798211564457,-0.5121991081482379L128.7233775089964,-0.05413211358032669L128.48325545391515,0.36413498135527994L128.1475777167664,0.7575170650865712L127.71630606391601,1.1409290260416347L127.18940226173,1.529285752648482L126.87739289079435,1.7362357175247847L126.58960363022734,1.909325336170159L126.32252103927053,2.048961654842329L126.0726316771654,2.155551719799092L125.83642210315338,2.229502577298154L125.61037887647595,2.271221273597306L125.39098855637467,2.2811148549542932L125.1747377020909,2.25959036762688L124.95811287286595,2.2070548578728157L124.73760062794156,2.1239153719498596L124.509687526559,2.0105789561157574L124.27086622952237,1.8674099456900863L123.96052025236459,1.6539147378634382L123.63509564739161,1.4046770424175876L123.3009741688675,1.1263513336911728L122.96453757105633,0.82559208602288L122.63216760822208,0.5090537737513553L122.31024603462895,0.183390871215275L122.00515460454059,-0.14474214724669607L121.72327507222147,-0.4686908072959173L121.47098919193525,-0.7818006345937127L121.25467871794622,-1.0774171548014175L121.08072540451815,-1.348885893580381L120.95551100591544,-1.589552376591919L120.88689399343676,-1.751110706927704L120.82796949676,-1.905711038433437L120.7782446593416,-2.057323270895699L120.7372266246373,-2.209917304101054L120.7044225361035,-2.367463037836057L120.67933953719636,-2.533930371887268L120.6614847713723,-2.713289206041258L120.65036538208712,-2.90950944008458L120.64548851279724,-3.1265609738038127L120.64636130695878,-3.368413706985503L120.652490908028,-3.6390375394162215L120.66338445946107,-3.9424023708825184L120.6948682058644,-4.758080781853474L120.71784972845019,-5.470747344763887L120.73174620793647,-6.089904466543946L120.73597482504105,-6.625054554123853L120.72995276048181,-7.0857000144337805L120.7130971949763,-7.4813432544039165L120.68482530924244,-7.82148668096446L120.64455428399813,-8.115632701045591L120.5917012999609,-8.373283721577488L120.52568353784902,-8.60394214949035L120.44591817837976,-8.817110391714367L120.35182240227142,-9.022290855179719L120.290298738795,-9.138124521473701L120.21267696396178,-9.270924041606579L120.12068383411149,-9.418282808162239L120.01604610558388,-9.577794213724587L119.9004905347188,-9.747051650877506L119.77574387785594,-9.923648512204892L119.6435328913352,-10.105178190290648L119.50558433149631,-10.289234077718657L119.36362495467914,-10.473409567072807L119.21938151722334,-10.655298050937013L119.0745807754688,-10.832492921895149L118.93094948575522,-11.002587572531125L118.58002868579787,-11.420127739963053L118.28403182896977,-11.801546734484937L118.03881278343033,-12.165425247798462L117.84022541733894,-12.53034397160539L117.68412359885512,-12.91488359760744L117.56636119613803,-13.337624817506349L117.48279207734728,-13.817148323003854L117.42927011064236,-14.372034805801658L117.40164916418227,-15.020864957601516L117.39578310612696,-15.78221947010517L117.4075258046354,-16.67467903501432L117.43273112786727,-17.716824344030716L117.47692392658763,-18.998043230394423L117.54112307112217,-20.34871147936008L117.62413867201985,-21.75599786494164L117.72478083982956,-23.20707116115292L117.84185968510064,-24.689100142007838L117.97418531838187,-26.189253581520262L118.12056785022253,-27.69470025370403L118.27981739117162,-29.192608932573066L118.4507440517782,-30.6701483921413L118.63215794259155,-32.11448740642257L118.82286917416046,-33.51279474943075L119.02168785703414,-34.85223919517975L119.09079128316407,-35.348103404466386L119.14594608522309,-35.853732938710564L119.18716630245444,-36.36811191598727L119.2144659741016,-36.89022445437167L119.22785913940855,-37.41905467193878L119.22735983761824,-37.95358668676368L119.21298210797491,-38.49280461692146L119.18473998972169,-39.03569258048719L119.14264752210244,-39.58123469553596L119.08671874436044,-40.12841508014282L119.0169676957395,-40.67621785238284L118.93340841548306,-41.22362713033114L118.85153172114943,-42.077139759691065L118.79723428750374,-43.42545797958061L118.76906219127252,-45.19412464051366L118.7655615091828,-47.30868259300426L118.78527831796104,-49.694674687566454L118.82675869433402,-52.277643774714214L118.88854871502876,-54.98313270496158L118.96919445677175,-57.7366843288226L119.06724199628965,-60.46384149681118L119.18123741030959,-63.090147059441314L119.30972677555796,-65.54114386722712L119.4512561687618,-67.74237477068253L119.51560442847132,-68.60393092500283L119.57907589222282,-69.38359262642922L119.64243855889862,-70.08666395485565L119.70646042738109,-70.71844899017579L119.7719094965525,-71.2842518122834L119.83955376529492,-71.78937650107235L119.91016123249099,-72.2391271364364L119.9844998970229,-72.63880779826934L120.06333775777294,-72.9937225664649L120.1474428136232,-73.3091755209171L120.23758306345631,-73.59047074151937L120.33452650615463,-73.84291230816571L120.50114864499373,-74.27782440113918L120.61780722748581,-74.67282921686544L120.68324806472634,-75.03042432123985L120.69621696781155,-75.35310728015821L120.65545974783757,-75.6433756595162L120.55972221590018,-75.90372702520918L120.4077501830953,-76.13665894313297L120.19828946051904,-76.34466897918315L119.93008585926731,-76.53025469925518L119.60188519043619,-76.69591366924476L119.21243326512163,-76.84414345504757L118.7604758944197,-76.97744162255914L118.53729163823007,-77.03156672119444L118.30338947886976,-77.07908129227812L118.05302487989539,-77.12034711468809L117.78045330486236,-77.1557259673021L117.47993021732712,-77.18557962899807L117.14571108084547,-77.21026987865366L116.7720513589735,-77.23015849514687L116.35320651526716,-77.24560725735545L115.88343201328264,-77.25697794415717L115.35698331657588,-77.26463233442985L114.76811588870278,-77.26893220705148L114.11108519321954,-77.27023934089955L113.21335002708346,-77.26575734181324L112.3974581638204,-77.25219431790183L111.65984340251653,-77.22911693816671L110.99693954225826,-77.19609187160948L110.40518038213158,-77.15268578723172L109.88099972122242,-77.09846535403487L109.42083135861726,-77.03299724102035L109.02110909340203,-76.95584811718989L108.67826672466313,-76.86658465154477L108.3887380514866,-76.76477351308645L108.14895687295855,-76.64998137081676L107.95535698816515,-76.52177489373702L107.87227918522663,-76.46031563564361L107.78929222777575,-76.40780568912993L107.70381091763622,-76.36386194103493L107.61325005663232,-76.32810127819779L107.51502444658793,-76.30014058745756L107.40654888932686,-76.2795967556533L107.28523818667323,-76.26608666962393L107.14850714045073,-76.2592272162087L106.99377055248358,-76.25863528224649L106.81844322459568,-76.26392775457666L106.61993995861083,-76.274721520038L106.39567555635318,-76.29063346546958L106.08384024237745,-76.30731928536221L105.76732511463132,-76.30729798168117L105.43425576960011,-76.28792424455928L105.0727578037688,-76.24655276412983L104.67095681362237,-76.18053823052605L104.216978395646,-76.08723533388083L103.69894814632471,-75.96399876432757L103.10499166214353,-75.80818321199926L102.4232345395877,-75.61714336702924L101.64180237514212,-75.38823391955049L100.74882076529208,-75.11880955969626L99.73241530652234,-74.80622497759961L98.7438108232653,-74.51205135689285L97.75404659820859,-74.24112790996128L96.76578017965437,-73.99389877971589L95.78166911590449,-73.77080810906737L94.80437095526109,-73.57230004092679L93.83654324602627,-73.39881871820513L92.88084353650187,-73.2508082838132L91.93992937498987,-73.12871288066196L91.01645830979257,-73.03297665166234L90.11308788921173,-72.96404373972531L89.23247566154951,-72.92235828776172L88.3772791751078,-72.90836443868254L87.79198684508374,-72.91504214815765L87.16474851083674,-72.93440060665598L86.50637015978522,-72.96542780928746L85.82765777934762,-73.0071117511613L85.13941735694266,-73.05844042738742L84.45245487998864,-73.11840183307544L83.77757633590407,-73.18598396333488L83.12558771210762,-73.26017481327567L82.50729499601754,-73.3399623780071L81.93350417505239,-73.42433465263895L81.41502123663074,-73.51227963228102L80.96265216817105,-73.60278531204277L80.37285343163322,-73.74597450682357L79.70430300597015,-73.93181979636094L78.97266029030109,-74.1545377326253L78.19358468374492,-74.40834486758712L77.3827355854209,-74.6874577532168L76.55577239444821,-74.98609294148498L75.7283545099459,-75.29846698436195L74.91614133103313,-75.61879643381822L74.13479225682912,-75.94129784182431L73.39996668645281,-76.26018776035056L72.72732401902353,-76.5696827413676L72.1325236536602,-76.86399933684575L71.69640645852434,-77.09254496217655L71.29123833800585,-77.31241748462712L70.90452125804588,-77.53211707297483L70.52375718458543,-77.76014389599662L70.13644808356543,-78.0049981224699L69.73009592092694,-78.2751799211719L69.29220266261086,-78.57918946087966L68.81027027455823,-78.92552691037037L68.27180072271017,-79.3226924384212L67.66429597300753,-79.7791862138095L66.97525799139126,-80.30350840531233L66.1921887438026,-80.90415918170676L65.77570301560453,-81.20154061891446L65.33209423151472,-81.47695408618034L64.87144030858236,-81.72725400200017L64.40381916385601,-81.94929478486972L63.93930871438472,-82.13993085328518L63.48798687721721,-82.29601662574233L63.05993156940238,-82.41440652073689L62.66522070798901,-82.49195495676507L62.31393221002612,-82.5255163523226L62.01614399256238,-82.51194512590543L61.781933972646726,-82.4480956960093L61.62138006732798,-82.3308224811304L61.58352773492507,-82.28186135596398L61.55240091345589,-82.23380115758809L61.527984497315906,-82.18587801838697L61.5102633809004,-82.13732807074463L61.499222458604834,-82.08738744704505L61.4948466248245,-82.03529227967225L61.49712077395488,-81.98027870101039L61.506029800391154,-81.92158284344332L61.521558598529005,-81.85844083935527L61.543692062763405,-81.79008882113007L61.57241508748995,-81.7157629211519L61.60771256710396,-81.63469927180483L61.662518233607976,-81.49878215449507L61.700637086831975,-81.36943213347534L61.72243999444008,-81.24765023929763L61.72829782409582,-81.13443750251409L61.71858144346293,-81.03079495367666L61.693661720205334,-80.93772362333763L61.65390952198686,-80.85622454204884L61.59969571647107,-80.7872987403626L61.531391171321914,-80.73194724883072L61.44936675420307,-80.69117109800538L61.35399333277844,-80.66597131843861L61.24564177471159,-80.65734894068258L61.067601785545435,-80.64644485157788L60.881347518294966,-80.61368680842044L60.68676206165394,-80.55900614744489L60.48372850431552,-80.48233420488604L60.27212993497331,-80.38360231697858L60.05184944232078,-80.26274181995747L59.82277011505135,-80.11968405005724L59.58477504185854,-79.954360343513L59.33774731143591,-79.76670203655922L59.08157001247663,-79.55664046543073L58.816126233674474,-79.32410696636235L58.54129906372281,-79.06903287558885L58.248802989029514,-78.78236633667316L57.969863979101824,-78.49331297804801L57.70674595377229,-78.20498713189475L57.46171283287325,-77.92050313039563L57.23702853623718,-77.6429753057321L57.034956983696404,-77.37551799008602L56.85776209508334,-77.12124551563902L56.70770779023027,-76.88327221457294L56.587057988969605,-76.66471241906959L56.49807661113385,-76.46868046131054L56.44302757655534,-76.29829067347778L56.4241748050664,-76.156657387753L56.363354491450515,-75.95875785985281L56.181051593315054,-75.64365117731728L55.87750317472828,-75.21161136668985L55.45294629975825,-74.66291245451391L54.90761803247326,-73.997828467333L54.241755436941375,-73.21663343169058L53.45559557723096,-72.31960137413016L52.549375517410056,-71.30700632119523L51.523332321547066,-70.17912229942927L50.37770305370993,-68.93622333537567L49.11272477796695,-67.57858345557791L47.72863455838638,-66.10647668657975L46.38755526461538,-64.68066995521008L45.17979316454393,-63.385483300887124L44.10020803065752,-62.21493450870519L43.14365963544116,-61.16304136375886L42.305007751380195,-60.22382165114234L41.579112150959745,-59.39129315595005L40.96083260666505,-58.65947366327633L40.44502889098122,-58.02238095821558L40.02656077639349,-57.47403282586224L39.70028803538722,-57.00844705131051L39.461070440447315,-56.61964141965502L39.303767764059195,-56.301633715989894L39.257340690579056,-56.20113408863898L39.196399856977834,-56.08748085528736L39.12239802129993,-55.96266296291653L39.03678794158941,-55.82866935850841L38.94102237589084,-55.687488989044816L38.8365540822483,-55.54111080150734L38.72483581870612,-55.39152374287773L38.60732034330854,-55.240716760137744L38.48546041409993,-55.090678800269224L38.36070878912451,-54.9433988102539L38.234518226426594,-54.80086573707338L38.1083414840504,-54.66506852770954L37.9639301500472,-54.509389043522816L37.825534773155766,-54.351546682510346L37.693446604122386,-54.19197986736808L37.56795689369313,-54.031127020791885L37.449356892614425,-53.86942656547793L37.33793785163241,-53.70731692412208L37.233991021493324,-53.54523651942034L37.13780765294345,-53.3836237740687L37.04967899672905,-53.22291711076321L36.96989630359625,-53.06355495219976L36.89875082429136,-52.905975721074405L36.83653380956058,-52.75061784008313L36.52221761600349,-51.75741322117725L36.27811014711224,-50.64846332271424L36.10404309438995,-49.42758637404077L35.99984814933944,-48.09860060450366L35.965357003463794,-46.66532424344973L36.000401348265875,-45.13157552022581L36.10481287524869,-43.50117266417863L36.27842327591515,-41.777933904655015L36.52106424176824,-39.965677471001726L36.832567464310884,-38.06822159256557L37.212764635046064,-36.08938449869337L37.661487445476844,-34.03298441873191L37.75887885750956,-33.608476772920326L37.86159977261357,-33.15659827291848L37.968192213931225,-32.6839658868162L38.077198204604805,-32.19719658270337L38.18715976777671,-31.702907328669866L38.29661892658926,-31.207715092805454L38.4041177041848,-30.71823684320013L38.508198123705576,-30.24108954794364L38.60740220829408,-29.78289017512586L38.700271981092556,-29.350255692836672L38.785349465243364,-28.949803069165945L38.86117668388881,-28.588149272203502L39.14520253148147,-27.33816510633448L39.48490446690971,-26.04654810741732L39.87670859168655,-24.722253328432636L40.31704100732493,-23.374235822360998L40.802327815337755,-22.011450642183043L41.328995117238115,-20.642852840879353L41.893469014538915,-19.27739747143055L42.49217560875306,-17.924039586817244L43.12154100139364,-16.591734240020056L43.7779912939735,-15.289436484019557L44.457952588005725,-14.026101371796393L45.157850985003165,-12.810683956331127L45.461192595457035,-12.292041144963969L45.74171586599151,-11.791906463312758L45.99921594935404,-11.310759957464644L46.233487998291785,-10.849081673506786L46.444327165552096,-10.407351657526332L46.631528603882245,-9.986049955610422L46.794887466029515,-9.585656613846218L46.934198904741194,-9.206651678320855L47.04925807276464,-8.849515195121496L47.139860122847104,-8.514727210335284L47.205800207735805,-8.20276777004938L47.2468734801782,-7.914116920350921L47.26419551037984,-7.7319621816673605L47.27552939360115,-7.5718414425672895L47.28006687053342,-7.430598147208311L47.27699968186792,-7.30507573974805L47.26551956829605,-7.192117664344116L47.244818270509136,-7.088567365154117L47.21408752919838,-6.9912682863356705L47.17251908505526,-6.897063872046387L47.119304678771094,-6.802797566443877L47.05363605103708,-6.705312813685753L46.97470494254463,-6.6014530579296276L46.88170309398503,-6.488061743333124L46.71824255207475,-6.308758069235312L46.54778577770026,-6.151299733557962L46.36991571775866,-6.015564584995173L46.18421531914707,-5.901430472241054L45.990267528762594,-5.808775243989705L45.78765529350227,-5.737476748935244L45.57596156026328,-5.687412835771767L45.35476927594271,-5.6584613531933865L45.12366138743765,-5.6505001498942065L44.882220841645136,-5.663407074568331L44.630030585462386,-5.697059975909862L44.366673565786414,-5.751336702612916L43.95445550045632,-5.869761552122656L43.567389608616,-6.020732235408705L43.2063371498374,-6.2033134478948195L42.87215938369209,-6.416569885004784L42.565717569752024,-6.659566242162347L42.287872967588825,-6.93136721479127L42.03948683677435,-7.231037498315318L41.82142043688025,-7.557641788158253L41.63453502747846,-7.910244779743843L41.47969186814061,-8.287911168495837L41.35775221843857,-8.68970564983801L41.26957733794401,-9.114692919194118L41.209550393423044,-9.43017137568263L41.13272874248161,-9.733252904676668L41.036159836153,-10.028728765269857L40.91689112547005,-10.321390216555855L40.77197006146598,-10.616028517628305L40.59844409517378,-10.917434927580846L40.39336067762658,-11.230400705507122L40.153767259857325,-11.55971711050079L39.87671129289918,-11.910175401655483L39.55924022778517,-12.286566838064832L39.19840151554837,-12.693682678822498L38.79124260722183,-13.136314183022128L38.41977034968389,-13.541627520495048L38.08902872018257,-13.91925049093247L37.79645750587574,-14.273576268840364L37.539496493921106,-14.608998028724661L37.31558547147669,-14.929908945091327L37.12216422570021,-15.240702192446344L36.95667254374951,-15.54577094529565L36.816550212782474,-15.849508378145183L36.6992370199569,-16.15630766550094L36.6021727524306,-16.470561981868837L36.522797197361534,-16.79666450175484L36.4585501419074,-17.139008399664917L36.19882778093572,-18.387862236938304L35.757280725912295,-20.119903992947112L35.15909047172519,-22.257048334172367L34.42943851326212,-24.72120992709506L33.593506345411136,-27.434303438196213L32.676475463060086,-30.318243533956874L31.70352736109689,-33.29494488085809L30.699843534409293,-36.286322145380794L29.69060547788535,-39.21428999400605L28.700994686412873,-42.00076309321488L27.756192654879786,-44.56765610948833L26.881380878174003,-46.836883709307315L26.51563017382142,-47.773238118004706L26.19418855804036,-48.62981372708192L25.915332134598717,-49.41363832905308L25.677337007263898,-50.131739716432534L25.478479279803857,-50.7911456817346L25.317035055986086,-51.398884017473485L25.191280439578335,-51.96198251616352L25.09949153434824,-52.48746897031893L25.039944444063575,-52.982371172453995L25.010915272491953,-53.45371691508292L25.010680123401087,-53.90853399072006L25.037515100558625,-54.353850191879744L25.054601925173483,-54.55427079976062L25.066867618461036,-54.72626649438818L25.073864174599994,-54.871933395561136L25.075143587768622,-54.99336762307855L25.070257852145673,-55.092665296739156L25.058758961909376,-55.17192253634196L25.040198911238413,-55.23323546168593L25.01412969431111,-55.27870019256972L24.980103305306134,-55.31041284879242L24.937671738401875,-55.33046955015281L24.886386987776845,-55.34096641644989L24.825801047609577,-55.34399956748246L24.770397147845102,-55.3289863407915L24.68841999665045,-55.28527276190486L24.58218885164102,-55.21484798260214L24.454022970432295,-55.11970115466294L24.30624161063967,-55.00182142986672L24.14116402987851,-54.86319795999317L23.961109485764233,-54.70581989682176L23.76839723591227,-54.53167639213213L23.565346537938037,-54.34275659770374L23.354276649456956,-54.14104966531631L23.137506828084387,-53.928544746749225L22.917356331435805,-53.707230993782076L22.268957190769505,-53.03043561861899L21.649983626684936,-52.35031475059905L21.060852692285195,-51.66746425250686L20.501981440672935,-50.982479987127064L19.973786924951234,-50.29595781724437L19.47668619822296,-49.60849360564339L19.01109631359093,-48.92068321510877L18.57743432415806,-48.233122508425204L18.17611728302739,-47.54640734837731L17.807562243301675,-46.86113359774973L17.472186258083845,-46.177897119327135L17.17040638047682,-45.49729377589411L16.984567210157067,-45.06203080423022L16.809877070664168,-44.669674303249245L16.644912892575668,-44.317946892958766L16.488251606468825,-44.00457119336628L16.338470142921327,-43.72726982447931L16.194145432510492,-43.483765406305416L16.053854405813773,-43.27178055885207L15.916173993408538,-43.08903790212681L15.779681125872347,-42.933260056137215L15.64295273378261,-42.80216964089067L15.504565747716729,-42.69348927639492L15.3630970982522,-42.60494158265733L15.286246330710616,-42.55899698694419L15.212914950126276,-42.508139284497226L15.143417073981203,-42.452767117801656L15.078066819757401,-42.39327912934271L15.01717830493694,-42.33007396160542L14.961065647001739,-42.26355025707518L14.910042963433813,-42.19410665823717L14.864424371715094,-42.12214180757641L14.824523989327732,-42.04805434757822L14.790655933753637,-41.97224292072782L14.763134322474754,-41.895106169510306L14.742273272973197,-41.817042736410926L14.638812123215365,-41.35805028992507L14.542225379467423,-40.94504888706222L14.450136461910887,-40.57057971358164L14.36016879072698,-40.22718395524246L14.269945786097104,-39.907402797803925L14.177090868202505,-39.60377742702521L14.079227457224528,-39.30884902866548L13.973978973344396,-39.01515878848399L13.858968836743593,-38.71524789223994L13.731820467603336,-38.40165752569235L13.590157286104988,-38.06692887460064L13.431602712429825,-37.70360312472392L13.182068235519644,-37.129764962506705L12.964741527682897,-36.61032571243142L12.778190917988846,-36.139853889175L12.620984735506212,-35.71291800741447L12.491691309304416,-35.32408658182672L12.388878968452335,-34.9679281270888L12.311116042019066,-34.639011157877604L12.256970859073542,-34.33190418887018L12.225011748684958,-34.04117573474342L12.213807039922395,-33.76139431017435L12.221925061854769,-33.487128429839956L12.247934143551227,-33.2129466084171L12.271321667219816,-33.01894890739179L12.288767674252734,-32.85350354623511L12.299599347319521,-32.7139337115261L12.303143869089537,-32.597562589843776L12.298728422232331,-32.50171336776719L12.285680189417251,-32.42370923187533L12.263326353313825,-32.360873368747285L12.230994096591457,-32.31052896496207L12.188010601919688,-32.269999207098635L12.133703051967938,-32.23660728173615L12.067398629405584,-32.207676375453545L11.988424516902194,-32.180529674829906L11.836359438798727,-32.09855524956485L11.679227945139132,-31.94651326182691L11.516346237192543,-31.722627549568056L11.347030516228198,-31.425121950740248L11.170596983515235,-31.052220303295375L10.986361840322928,-30.602146445185333L10.793641287920279,-30.073124214362164L10.591751527576617,-29.46337744877776L10.380008760561026,-28.771129986384057L10.157729188142708,-27.99460566513299L9.924229011590848,-27.132028322976502L9.678824432174606,-26.18162179786652L9.548690426272778,-25.67184568216816L9.412772018972108,-25.148453957775878L9.27293269387358,-24.618174303655564L9.131035934577916,-24.08773439877308L8.988945224685962,-23.563861922094265L8.848524047798394,-23.053284552585026L8.711635887516017,-22.56272996921126L8.580144227439659,-22.098925850938773L8.45591255117011,-21.66859987673356L8.340804342308077,-21.278479725561365L8.236683084454402,-20.935293076388145L8.145412261209803,-20.645767608179728L7.926739872809067,-19.959745543977398L7.73670696221787,-19.340019549175803L7.573467481897926,-18.776887425979556L7.4351753843110515,-18.260646976593243L7.319984621919132,-17.781596003221566L7.226049147183789,-17.330032308069097L7.1515229125669695,-16.89625369334049L7.094559870530362,-16.47055796124038L7.053313973535755,-16.04324291397341L7.0259391740449955,-15.604606353744169L7.010589424519794,-15.144946082757334L7.005418677422013,-14.654559903217532L7.011230439338498,-14.098445327936604L7.03097881993676,-13.567874287715155L7.065711141138014,-13.057561409880838L7.116474724863224,-12.562221321761331L7.184316893033646,-12.07656865068426L7.2702849675702685,-11.595318023977299L7.375426270394209,-11.113184068968103L7.500788123426531,-10.624881412984323L7.647417848588443,-10.125124683353615L7.8163627678009435,-9.60862850740365L8.008670202985172,-9.070107512462057L8.225387476062226,-8.504276325856518L8.71652297080291,-7.181685908452427L9.097987545786419,-5.97871627272164L9.36916469602044,-4.891710365200727L9.529437916512528,-3.9170111324262527L9.578190702270389,-3.05096152093478L9.51480654830161,-2.289904477262865L9.338668949613766,-1.6301829479470864L9.04916140121447,-1.068139879523985L8.645667398111433,-0.6001182185301406L8.127570435312181,-0.22246091150210384L7.49425400782437,0.06848909502355668L6.745101610655628,0.2763888545102759L6.4447018325932195,0.3312358313236487L6.159693627536914,0.36753847864112027L5.888941215032032,0.3850485956303313L5.631308814623612,0.38351798145895416L5.385660645856954,0.36269843529464935L5.150860928277198,0.3223417563050808L4.925773881429541,0.2621997436579145L4.709263724859204,0.18202419652081342L4.500194678111342,0.08156691406143016L4.297430960731126,-0.0394203045525505L4.099836792263781,-0.1811856601534914L3.906276392254409,-0.3439773535737145L3.6829715254505766,-0.5585072788396244L3.4923495586595994,-0.7744795527710063L3.332484905107906,-1.0017304098046411L3.2014519780215362,-1.2500960843772537L3.0973251906267603,-1.529412810925595L3.0181789561497037,-1.8495168238863955L2.9620876878165388,-2.2202443576964095L2.9271257988534827,-2.651431646792384L2.911367702486684,-3.1529149256110593L2.912887811942389,-3.734530428589177L2.9297605404466736,-4.406114390163481L2.960060301225822,-5.177503044770723L3.083769482940809,-7.982049684485121L2.4859139731424005,-8.545211709339911L2.3984173065186445,-8.625765716961082L2.3014094619684307,-8.711707524411928L2.1964991899160315,-8.801769228396596L2.085295240785652,-8.894682925619186L1.9694063650015188,-8.989180712783826L1.8504413129879176,-9.083994686594641L1.7300088351689624,-9.177856943755744L1.609717681968948,-9.269499580971255L1.491176603812063,-9.357654694945284L1.3759943511225965,-9.441054382381957L1.2657796743246748,-9.5184307399854L1.1621413238425928,-9.588515864459723L0.9337111609326655,-9.752074838792888L0.7302882311528661,-9.924077231721471L0.551846157956566,-10.104583931755572L0.39835856479696696,-10.293655827405328L0.26979907512764467,-10.491353807180817L0.16614131240171784,-10.697738759592173L0.08735890007267466,-10.912871573149506L0.033425461593797424,-11.13681313636292L0.004314620418469972,-11.369624337742541L0,-11.611366065798471L0.020455223791706476,-11.86209920904083L0.06565391524699016,-12.121884655979727L0.10443024832822405,-12.28905185715154L0.17281033915547492,-12.571317791166782L0.2684744004639852,-12.959474564482584L0.3891026449886024,-13.444314283556121L0.5323752854646283,-14.016629054844577L0.6959725346269612,-14.667210984805084L0.8775746052105827,-15.386852179894795L1.0748617099507507,-16.166344746570918L1.2855140615823508,-16.996480791290583L1.5072118728405508,-17.868052420510956L1.7376353564603253,-18.771851740689215L1.9744647251767895,-19.698670858282536L2.4769091178048885,-21.675376048056503L2.9206836315868743,-23.449803449178212L3.308682900079113,-25.035868720331983L3.643801556837641,-26.44748752020225L3.928934235418776,-27.698575507473358L4.1669755693786135,-28.803048340829704L4.360820192273428,-29.774821678955632L4.513362737659311,-30.627811180535563L4.62749783909259,-31.375932504253846L4.70612013012934,-32.03310130879487L4.7521242443258345,-32.613233252842925L4.768404815238196,-33.1302439950825L4.771722396308125,-33.38322484381958L4.779361564453234,-33.623086019435874L4.791483912214789,-33.850922625302104L4.808251032133535,-34.06782976478913L4.829824516750574,-34.27490254126775L4.856365958606913,-34.47323605810877L4.888036950243487,-34.66392541868303L4.92499908420127,-34.848065726361305L4.967413953021308,-35.026752084514456L5.015443149244559,-35.201079596513274L5.069248265411985,-35.37214336572855L5.128990894064616,-35.54103849553111L5.338011175391678,-36.10274225163252L5.518614685944061,-36.59252844300637L5.673719653399179,-37.01959291543407L5.806244305434302,-37.39313151469725L5.919106869726797,-37.72234008657737L6.015225573953899,-38.01641447685587L6.097518645792953,-38.2845505313143L6.168904312921264,-38.53594409573419L6.2323008030161935,-38.779791015896976L6.29062634375495,-39.02528713758419L6.346799162814899,-39.28162830657735L6.403737487873408,-39.55801036865791L6.439762836590353,-39.74607777337866L6.479028284535632,-39.96776317789085L6.520914184129792,-40.218774895600625L6.564800887793207,-40.49482123991434L6.610068747946279,-40.79161052423812L6.656098117009395,-41.104851061978216L6.702269347402978,-41.430251166540884L6.7479627915474145,-41.76351915133236L6.792558801863094,-42.10036332975879L6.8354377307704315,-42.436492015226435L6.875979930689771,-42.76761352114156L6.9135657540416355,-43.08943616091034L6.954465736927359,-43.42772210891877L7.004654805098071,-43.80677840161667L7.063074471620577,-44.22013217089664L7.128666249561552,-44.66131054865133L7.200371651987884,-45.123840666773276L7.277132191966334,-45.601249657155186L7.357889382563678,-46.087064651689566L7.441584736846689,-46.57481278226912L7.52715976788213,-47.05802118078643L7.613555988736831,-47.530216979134096L7.699714912477513,-47.98492730920473L7.784578052171,-48.41567930289093L7.89387408598994,-48.96891557312226L7.991470966730766,-49.48579308378773L8.078004867038658,-49.97131133099075L8.154111959558392,-50.43046981083468L8.220428416935041,-50.86826801942281L8.277590411813598,-51.28970545285866L8.326234116839016,-51.69978160724535L8.366995704656214,-52.103495978686375L8.400511347910214,-52.505848063285036L8.427417219245996,-52.911837357144734L8.448349491308573,-53.326463356368784L8.463944336742808,-53.754725557060524L8.484891770905936,-54.31716674302723L8.512450798981646,-54.814814715421264L8.547463478980752,-55.25069733231078L8.590771868913983,-55.62784245176408L8.64321802679215,-55.94927793184956L8.705644010625983,-56.21803163063536L8.778891878426245,-56.43713140618988L8.863803688203618,-56.60960511658127L8.961221497969001,-56.73848061987801L9.071987365733085,-56.82678577414827L9.19694334950664,-56.87754843746035L9.336931507300411,-56.8937964678825L9.381006782674946,-56.8971695938872L9.420028368206065,-56.907492103089645L9.454115512720314,-56.925068692271985L9.48338746504404,-56.95020405821673L9.507963474003857,-56.983202897706136L9.527962788426068,-57.02436990752254L9.543504657137186,-57.07400978444827L9.554708328963725,-57.132427225265715L9.561693052732121,-57.19992692675721L9.564578077268832,-57.27681358570504L9.563482651400316,-57.363391898891564L9.55852602395303,-57.459966563099094L9.554647645251485,-57.53859344090082L9.55342385587656,-57.618134677405344L9.554731169805546,-57.69762763812052L9.558446101015708,-57.7761096885544L9.564445163484438,-57.85261819421492L9.572604871188984,-57.92619052060997L9.582801738106532,-57.99586403324752L9.594912278214473,-58.06067609763564L9.608813005490068,-58.119664079282174L9.6243804339106,-58.17186534369499L9.641491077453374,-58.21631725638223L9.660021450095627,-58.252057182851765L9.765794069266885,-58.379569560105764L9.942364122088915,-58.53608470531384L10.187255885413045,-58.72016757191202L10.497993636090154,-58.930383113336305L10.872101650971347,-59.165296283022585L11.307104206907772,-59.42347203440713L11.800525580750433,-59.70347532092583L12.349890049350257,-60.0038710960148L12.952721889558523,-60.32322431311006L13.606545378226189,-60.6600999256477L14.308884792204347,-61.01306288706365L15.057264408344016,-61.38067815079413L16.160870891608127,-61.922501987247614L17.10476502616267,-62.400739363620424L17.901102600663656,-62.825759843179085L18.56203940376687,-63.207932989190574L19.099731224128316,-63.5576283649214L19.52633385040384,-63.88521553363855L19.85400307124925,-64.20106405860852L20.09489467532054,-64.51554350309813L20.261164451273658,-64.83902343037418L20.364968187764347,-65.18187340370342L20.418461673448533,-65.55446298635246L20.43380069698222,-65.96716174158817L20.437377627418584,-66.19787186447229L20.448332717065075,-66.3972066437342L20.46740511655966,-66.56614257655964L20.495333976540042,-66.70565616013447L20.532858447644205,-66.81672389164436L20.580717680509874,-66.90032226827522L20.639650825774936,-66.95742778721265L20.710397034077147,-66.9890169456427L20.793695456054486,-66.99606624075089L20.890285242344657,-66.97955216972319L21.000905543585542,-66.94045122974528L21.126295510415027,-66.87973991800294L21.50068352746344,-66.81827381330665L22.003153887042505,-66.93983589351285L22.605834601761536,-67.22000706245497L23.280853684229637,-67.63436822396645L24.00033914705624,-68.1585002818805L24.736419002850447,-68.7679841400306L25.46122126422154,-69.43840070225009L26.146873943778743,-70.14533087237234L26.765505054131342,-70.86435555423063L27.289242607888543,-71.57105565165843L27.690214617659628,-72.24101206848918L27.940549096053793,-72.84980570855608L27.989415761168846,-73.01039101973811L28.0385169056624,-73.15607975424176L28.08839412089714,-73.2877211803736L28.139588998235677,-73.40616456643995L28.192643129040768,-73.51225918074718L28.248098104675034,-73.60685429160162L28.30649551650126,-73.69079916730985L28.3683769558819,-73.76494307617803L28.434284014179934,-73.83013528651264L28.504758282757873,-73.88722506662009L28.580341352978397,-73.93706168480678L28.661574816204208,-73.98049440937899L28.726800182599558,-74.01543709560401L28.79636698733456,-74.0592948286151L28.8692499207228,-74.1111013440553L28.9444236730775,-74.16989037756795L29.020862934712344,-74.23469566479595L29.097542395940554,-74.30455094138273L29.173436747075602,-74.37848994297127L29.24752067843089,-74.45554640520493L29.318768880319872,-74.53475406372654L29.386156043055955,-74.61514665417955L29.448656856952525,-74.69575791220704L29.50524601232304,-74.77562157345216L29.652850822271922,-75.01508734803839L29.807233550210302,-75.3030166903134L29.966009007748927,-75.63288139438676L30.12679200649885,-75.9981532543682L30.28719735807106,-76.39230406436714L30.444839874076425,-76.80880561849331L30.59733436612587,-77.24112971085613L30.742295645830318,-77.68274813556538L30.87733852480081,-78.1271326867306L31.000077814648208,-78.5677551584612L31.108128326983447,-78.99808734486699L31.199104873417454,-79.4116010400574L31.26022293481374,-79.7186415957216L31.31026908235492,-79.98688610710308L31.34926150067489,-80.22396642141338L31.377218374407523,-80.43751438586433L31.39415788818679,-80.63516184766758L31.400098226646488,-80.82454065403473L31.395057574420505,-81.01328265217751L31.379054116142886,-81.20901968930741L31.35210603644746,-81.41938361263627L31.314231519968132,-81.65200626937579L31.265448751338802,-81.91451950673755L31.20577591519344,-82.21455517193318L31.160730645552345,-82.4211079914669L31.103626802661317,-82.65706549114311L31.035745862968263,-82.91818994506195L30.958369302920975,-83.20024362732406L30.872778598967432,-83.4989888120298L30.780255227555372,-83.81018777327972L30.68208066513277,-84.12960278517433L30.579536388147385,-84.45299612181402L30.473903873047238,-84.77613005729923L30.366464596280057,-85.09476686573056L30.258500034293775,-85.4046688212084L30.151291663536224,-85.70159819783316L29.857324746209642,-86.51857563312949L29.60029710552095,-87.27168926266441L29.38047550828428,-87.95957095932692L29.198126721313436,-88.58085259600578L29.05351751142239,-89.13416604558974L28.94691464542499,-89.61814318096772L28.878584890135105,-90.03141587502851L28.848795012366697,-90.37261600066074L28.85781177893369,-90.64037543075358L28.90590195664998,-90.8333260381956L28.993332312329468,-90.95009969587556L29.120369612785996,-90.98932827668256L29.23770707886109,-90.99716780771446L29.33047429385534,-91.02035944933141L29.398765895546923,-91.05841277431549L29.442676521714205,-91.11083735544874L29.46230081013533,-91.17714276551308L29.4577333985886,-91.25683857729085L29.429068924852217,-91.3494343635638L29.376402026704408,-91.45443969711418L29.2998273419235,-91.57136415072362L29.19943950828767,-91.69971729717469L29.075333163575124,-91.83900870924914L28.927602945564214,-91.98874795972905L28.736990899697595,-92.18416510619706L28.568450281981168,-92.38187254198223L28.419887536120104,-92.58816165607634L28.289209105819,-92.80932383747154L28.174321434782815,-93.05165047515987L28.073130966716356,-93.32143295813322L27.983544145324394,-93.6249626753836L27.903467414311788,-93.96853101590303L27.830807217383484,-94.3584293686834L27.763469998244204,-94.80094912271697L27.699362200598863,-95.30238166699563L27.63639026815222,-95.86901839051121L27.571343343038027,-96.7330021299L27.544364052861194,-97.70256131288644L27.553927586055327,-98.76243324078845L27.598509131053696,-99.89735521492388L27.676583876290106,-101.09206453661015L27.786627010197858,-102.33129850716516L27.927113721210414,-103.59979442790696L28.096519197761253,-104.88228960015319L28.293318628284048,-106.16352132522152L28.515987201212102,-107.42822690442976L28.763000104978882,-108.66114363909571L29.032832528018016,-109.84700883053735L29.25785134659006,-110.73775210851252L29.485986354648198,-111.56656144706822L29.718138620222962,-112.33548372272125L29.95520921134488,-113.04656581198805L30.19809919604465,-113.70185459138483L30.447709642352592,-114.30339693742823L30.704941618299376,-114.85323972663484L30.97069619191546,-115.35342983552104L31.245874431231506,-115.80601414060322L31.531377404277862,-116.213039518398L31.828106179085193,-116.57655284542177L32.13696182368402,-116.89860099819084L32.26809374109079,-117.02830948012844L32.37878839688684,-117.14750782275163L32.46952561823767,-117.25803858497372L32.54078523230851,-117.36174432570822L32.59304706626482,-117.46046760386812L32.626790947271836,-117.556050978367L32.642496702494896,-117.65033700811804L32.640644159099466,-117.74516825203455L32.62171314425077,-117.84238726902997L32.5861834851142,-117.94383661801727L32.534535008855116,-118.05135885791003L32.467247542638816,-118.16679654762146L32.40924379106127,-118.29268641180252L32.385739573830904,-118.43315559259271L32.398533015796524,-118.59101671261453L32.44942224180652,-118.76908239449094L32.540205376709714,-118.97016526084484L32.67268054535464,-119.19707793429858L32.84864587259,-119.45263303747556L33.06989948326426,-119.73964319299792L33.33823950222619,-120.060921023489L33.65546405432439,-120.41927915157117L34.02337126440744,-120.81753019986735L34.44375925732399,-121.25848679100038L35.22023007691046,-122.04210490380527L36.01117822379213,-122.80049131800868L36.81073544951865,-123.52922583285472L37.61303350563941,-124.2238882475871L38.412204143704116,-124.88005836144984L39.20237911526211,-125.49331597368725L39.97769017186295,-126.05924088354284L40.732269065056116,-126.57341289026073L41.46024754639123,-127.03141179308489L42.155757367417685,-127.42881739125934L42.81293027968503,-127.76120948402797L43.425898034742794,-128.02416787063467L44.369726030194904,-128.37972666205846L45.29472199052568,-128.71216055947596L46.20247555640441,-129.02190161566517L47.09457636850004,-129.30938188340372L47.97261406748185,-129.57503341546897L48.83817829401886,-129.81928826463877L49.692858688780284,-130.04257848369062L50.538244892435344,-130.24533612540208L51.37592654565296,-130.4279932425511L52.20749328910245,-130.59098188791495L53.0345347634529,-130.73473411427153L53.85864060937341,-130.8596819743983L54.683118494071685,-130.95129105419647L55.75571592049728,-131.03151203349344L57.04969915341235,-131.09999106403018L58.53833445757847,-131.15637429754796L60.194888097757755,-131.20030788578788L61.99262633871189,-131.23143798049108L63.90481544520296,-131.24941073339886L65.90472168199251,-131.2538722962523L67.9656113138427,-131.24446882079252L70.06075060551514,-131.22084645876078L72.16340582177195,-131.1826513618982L74.24684322737484,-131.12952968194594L76.45511645575067,-131.06215380545288L78.4266626990185,-130.99624912586972L80.18523364550136,-130.93026199044766L81.75458098352286,-130.86263874643757L83.15845640140614,-130.7918257410904L84.4206115874746,-130.71626932165734L85.56479823005147,-130.63441583538918L86.61476801746001,-130.54471162953706L87.59427263802363,-130.44560305135215L88.52706378006557,-130.33553644808515L89.43689313190907,-130.21295816698728L90.3475123818775,-130.07631455530955L91.66369280881258,-129.87204241254227L92.82178471481905,-129.69942014840427L93.8608237788135,-129.5558088088231L94.81984567971269,-129.43856943972614L95.7378860964333,-129.345063087041L96.653980707892,-129.27265079669542L97.6071651930054,-129.21869361461646L98.63647523069034,-129.180552586732L99.78094649986329,-129.15558875896957L101.07961467944105,-129.14116317725637L102.5715154483403,-129.1346368875203L104.29568448547758,-129.1333709356887L106.04835211835719,-129.13653602241953L107.58123225754468,-129.14620495116233L108.92045207657345,-129.16425208805035L110.09213874897627,-129.19255179921657L111.12241944828614,-129.23297845079415L112.03742134803596,-129.28740640891633L112.8632716217585,-129.35771003971632L113.62609744298709,-129.44576370932708L114.35202598525441,-129.55344178388205L115.06718442209349,-129.68261862951397L115.79769992703719,-129.83516861235617L116.56969967361857,-130.01296609854214L118.42563434205685,-130.4553781995429L121.39128867451576,-130.09848356608953L121.83019543133398,-130.04691476559785L122.32560844160096,-129.99093570057548L122.86890113391338,-129.931418873288L123.45144693686817,-129.86923678600127L124.06461927906187,-129.8052619409814L124.69979158909118,-129.7403668404937L125.34833729555285,-129.6754239868044L126.0016298270434,-129.6113058821791L126.65104261215967,-129.5488850288838L127.28794907949818,-129.48903392918413L127.90372265765582,-129.43262508534602L128.48973677522895,-129.38053099963525L129.48937822018016,-129.29135723190373L130.45186344404522,-129.20159689497146L131.38508194381606,-129.11033334204947L132.2969232164839,-129.0166499263491L133.19527675904084,-128.91963000108157"/>
</svg>