 0
SECTION
 2
ENTITIES
  0
POLYLINE
 8
Layer0
 66
     1
70
    8
 10
0.0
 20
 0.0
 30
0.0
  0
VERTEX
  8
MY3DLAYER
10
44.81590047344765
20
127.26666747625504
30
0.0
 70
     32
  0
VERTEX
  8
MY3DLAYER
10
45.67866321123929
20
125.97545179106358
30
0.0
 70
     32
  0
VERTEX
  8
MY3DLAYER
10
46.365507427484154
20
124.58266950010193
30
0.0
 70
     32
  0
VERTEX
  8
MY3DLAYER
10
46.864681027213855
20
123.11215149452073
30
0.0
 70
     32
  0
VERTEX
  8
MY3DLAYER
10
47.16764301173974
20
121.5890587451
30
0.0
 70
     32
  0
VERTEX
  8
MY3DLAYER
10
47.26920961751017
20
120.03945179106366
30
0.0
 70
     32
  0
VERTEX
  8
MY3DLAYER
10
47.16764301173974
20
118.48984483702715
30
0.0
 70
     32
  0
VERTEX
  8
MY3DLAYER
10
46.864681027213855
20
116.96675208760641
30
0.0
 70
     32
  0
VERTEX
  8
MY3DLAYER
10
46.365507427484154
20
115.4962340820252
30
0.0
 70
     32
  0
VERTEX
  8
MY3DLAYER
10
45.67866321123929
20
114.10345179106352
30
0.0
 70
     32
  0
VERTEX
  8
MY3DLAYER
10
44.81590047344765
20
112.81223610587203
30
0.0
 70
     32
  0
VERTEX
  8
MY3DLAYER
10
43.79198132375674
20
111.64468008481691
30
0.0
 70
     32
  0
VERTEX
  8
MY3DLAYER
10
42.62442530270166
20
110.62076093512604
30
0.0
 70
     32
  0
VERTEX
  8
MY3DLAYER
10
41.33320961751011
20
109.7579981973348
30
0.0
 70
     32
  0
VERTEX
  8
MY3DLAYER
10
39.940427326548395
20
109.07115398108957
30
0.0
 70
     32
  0
VERTEX
  8
MY3DLAYER
10
38.469909320967524
20
108.57198038135977
30
0.0
 70
     32
  0
VERTEX
  8
MY3DLAYER
10
36.94681657154646
20
108.26901839683366
30
0.0
 70
     32
  0
VERTEX
  8
MY3DLAYER
10
35.397209617510136
20
108.16745179106357
30
0.0
 70
     32
  0
VERTEX
  8
MY3DLAYER
10
33.84760266347363
20
108.26901839683366
30
0.0
 70
     32
  0
VERTEX
  8
MY3DLAYER
10
32.32450991405292
20
108.57198038135977
30
0.0
 70
     32
  0
VERTEX
  8
MY3DLAYER
10
30.853991908471865
20
109.07115398108957
30
0.0
 70
     32
  0
VERTEX
  8
MY3DLAYER
10
29.461209617510065
20
109.7579981973348
30
0.0
 70
     32
  0
VERTEX
  8
MY3DLAYER
10
28.169993932318594
20
110.62076093512604
30
0.0
 70
     32
  0
VERTEX
  8
MY3DLAYER
10
27.00243791126335
20
111.64468008481691
30
0.0
 70
     32
  0
VERTEX
  8
MY3DLAYER
10
25.978518761572616
20
112.81223610587203
30
0.0
 70
     32
  0
VERTEX
  8
MY3DLAYER
10
25.115756023781334
20
114.10345179106352
30
0.0
 70
     32
  0
VERTEX
  8
MY3DLAYER
10
24.42891180753629
20
115.4962340820252
30
0.0
 70
     32
  0
VERTEX
  8
MY3DLAYER
10
23.929738207806228
20
116.96675208760641
30
0.0
 70
     32
  0
VERTEX
  8
MY3DLAYER
10
23.62677622328034
20
118.48984483702715
30
0.0
 70
     32
  0
VERTEX
  8
MY3DLAYER
10
23.525209617510185
20
120.03945179106366
30
0.0
 70
     32
  0
VERTEX
  8
MY3DLAYER
10
23.62677622328034
20
121.5890587451
30
0.0
 70
     32
  0
VERTEX
  8
MY3DLAYER
10
23.929738207806228
20
123.11215149452073
30
0.0
 70
     32
  0
VERTEX
  8
MY3DLAYER
10
24.42891180753629
20
124.58266950010193
30
0.0
 70
     32
  0
VERTEX
  8
MY3DLAYER
10
25.115756023781334
20
125.97545179106358
30
0.0
 70
     32
  0
VERTEX
  8
MY3DLAYER
10
25.978518761572616
20
127.26666747625504
30
0.0
 70
     32
  0
VERTEX
  8
MY3DLAYER
10
27.00243791126335
20
128.43422349731028
30
0.0
 70
     32
  0
VERTEX
  8
MY3DLAYER
10
28.169993932318594
20
129.45814264700104
30
0.0
 70
     32
  0
VERTEX
  8
MY3DLAYER
10
29.461209617509972
20
130.32090538479247
30
0.0
 70
     32
  0
VERTEX
  8
MY3DLAYER
10
30.853991908471865
20
131.00774960103763
30
0.0
 70
     32
  0
VERTEX
  8
MY3DLAYER
10
32.32450991405292
20
131.5069232007674
30
0.0
 70
     32
  0
VERTEX
  8
MY3DLAYER
10
33.84760266347363
20
131.8098851852935
30
0.0
 70
     32
  0
VERTEX
  8
MY3DLAYER
10
35.397209617510136
20
131.91145179106348
30
0.0
 70
     32
  0
VERTEX
  8
MY3DLAYER
10
36.94681657154646
20
131.8098851852935
30
0.0
 70
     32
  0
VERTEX
  8
MY3DLAYER
10
38.469909320967524
20
131.5069232007674
30
0.0
 70
     32
  0
VERTEX
  8
MY3DLAYER
10
39.940427326548395
20
131.00774960103763
30
0.0
 70
     32
  0
VERTEX
  8
MY3DLAYER
10
41.33320961750993
20
130.32090538479247
30
0.0
 70
     32
  0
VERTEX
  8
MY3DLAYER
10
42.62442530270166
20
129.4581426470011
30
0.0
 70
     32
  0
VERTEX
  8
MY3DLAYER
10
43.79198132375674
20
128.43422349731034
30
0.0
 70
     32
  0
VERTEX
  8
MY3DLAYER
10
44.81590047344765
20
127.26666747625504
30
0.0
 70
     32
  0
SEQEND
  0
POLYLINE
 8
Layer0
 66
     1
70
    8
 10
0.0
 20
 0.0
 30
0.0
  0
VERTEX
  8
MY3DLAYER
10
48.63152569075864
20
66.25229609091502
30
0.0
 70
     32
  0
VERTEX
  8
MY3DLAYER
10
75.51152569075882
20
66.25229609091502
30
0.0
 70
     32
  0
VERTEX
  8
MY3DLAYER
10
76.95566844239231
20
66.18350463996029
30
0.0
 70
     32
  0
VERTEX
  8
MY3DLAYER
10
78.3654648544726
20
65.8629510137055
30
0.0
 70
     32
  0
VERTEX
  8
MY3DLAYER
10
79.69736962217738
20
65.30053636188234
30
0.0
 70
     32
  0
VERTEX
  8
MY3DLAYER
10
80.91024333090176
20
64.51363235407412
30
0.0
 70
     32
  0
VERTEX
  8
MY3DLAYER
10
81.9666231562942
20
63.526544609583475
30
0.0
 70
     32
  0
VERTEX
  8
MY3DLAYER
10
82.83388000303869
20
62.369761953855075
30
0.0
 70
     32
  0
VERTEX
  8
MY3DLAYER
10
102.33197658458153
20
29.399765810439558
30
0.0
 70
     32
  0
VERTEX
  8
MY3DLAYER
10
102.974347895435
20
27.893718766187575
30
0.0
 70
     32
  0
VERTEX
  8
MY3DLAYER
10
103.20503727678259
20
26.272731101261932
30
0.0
 70
     32
  0
VERTEX
  8
MY3DLAYER
10
103.00832362851814
20
24.647270446218517
30
0.0
 70
     32
  0
VERTEX
  8
MY3DLAYER
10
102.39761266068568
20
23.1281092584978
30
0.0
 70
     32
  0
VERTEX
  8
MY3DLAYER
10
101.41452331649565
20
21.818775862510428
30
0.0
 70
     32
  0
VERTEX
  8
MY3DLAYER
10
100.126051510123
20
20.808499165417118
30
0.0
 70
     32
  0
VERTEX
  8
MY3DLAYER
10
98.62000446587071
20
20.166127854563683
30
0.0
 70
     32
  0
VERTEX
  8
MY3DLAYER
10
96.99901680094518
20
19.93543847321597
30
0.0
 70
     32
  0
VERTEX
  8
MY3DLAYER
10
95.37355614590176
20
20.132152121480548
30
0.0
 70
     32
  0
VERTEX
  8
MY3DLAYER
10
93.85439495818117
20
20.74286308931294
30
0.0
 70
     32
  0
VERTEX
  8
MY3DLAYER
10
92.54506156219385
20
21.725952433502886
30
0.0
 70
     32
  0
VERTEX
  8
MY3DLAYER
10
91.53478486510043
20
23.01442423987587
30
0.0
 70
     32
  0
VERTEX
  8
MY3DLAYER
10
76.59764654824606
20
48.27214058366209
30
0.0
 70
     32
  0
VERTEX
  8
MY3DLAYER
10
36.72564654824587
20
48.27214058366209
30
0.0
 70
     32
  0
VERTEX
  8
MY3DLAYER
10
35.40760561661185
20
48.34168002214524
30
0.0
 70
     32
  0
VERTEX
  8
MY3DLAYER
10
34.11214354372752
20
48.59435698723241
30
0.0
 70
     32
  0
VERTEX
  8
MY3DLAYER
10
32.864580467963705
20
49.025232842854805
30
0.0
 70
     32
  0
VERTEX
  8
MY3DLAYER
10
31.689300329511198
20
49.62588600993753
30
0.0
 70
     32
  0
VERTEX
  8
MY3DLAYER
10
30.609274280017765
20
50.38457656832278
30
0.0
 70
     32
  0
VERTEX
  8
MY3DLAYER
10
29.645611705539007
20
51.286475716518666
30
0.0
 70
     32
  0
VERTEX
  8
MY3DLAYER
10
28.81714763817654
20
52.313955604427015
30
0.0
 70
     32
  0
VERTEX
  8
MY3DLAYER
10
28.140074620543892
20
53.446933874192936
30
0.0
 70
     32
  0
VERTEX
  8
MY3DLAYER
10
27.62762621837349
20
54.66326617503847
30
0.0
 70
     32
  0
VERTEX
  8
MY3DLAYER
10
27.289818367076585
20
55.939178980276154
30
0.0
 70
     32
  0
VERTEX
  8
MY3DLAYER
10
27.13325360772073
20
57.249734246983856
30
0.0
 70
     32
  0
VERTEX
  8
MY3DLAYER
10
27.160992038670763
20
58.56931683644755
30
0.0
 70
     32
  0
VERTEX
  8
MY3DLAYER
10
25.771383044733472
20
97.96881889984905
30
0.0
 70
     32
  0
VERTEX
  8
MY3DLAYER
10
26.754094201438754
20
100.13839702986914
30
0.0
 70
     32
  0
VERTEX
  8
MY3DLAYER
10
28.164169812719756
20
102.05789624847897
30
0.0
 70
     32
  0
VERTEX
  8
MY3DLAYER
10
29.940665954676128
20
103.6443551787352
30
0.0
 70
     32
  0
VERTEX
  8
MY3DLAYER
10
32.006801889579805
20
104.8292065526527
30
0.0
 70
     32
  0
VERTEX
  8
MY3DLAYER
10
34.273278554190256
20
105.56124071070106
30
0.0
 70
     32
  0
VERTEX
  8
MY3DLAYER
10
36.642138094144656
20
105.80881889984904
30
0.0
 70
     32
  0
VERTEX
  8
MY3DLAYER
10
39.01099763409879
20
105.56124071070106
30
0.0
 70
     32
  0
VERTEX
  8
MY3DLAYER
10
41.27747429870987
20
104.8292065526527
30
0.0
 70
     32
  0
VERTEX
  8
MY3DLAYER
10
43.34361023361345
20
103.64435517873515
30
0.0
 70
     32
  0
VERTEX
  8
MY3DLAYER
10
45.120106375569186
20
102.05789624847897
30
0.0
 70
     32
  0
VERTEX
  8
MY3DLAYER
10
46.530181986850565
20
100.13839702986904
30
0.0
 70
     32
  0
VERTEX
  8
MY3DLAYER
10
47.512893143555665
20
97.96881889984905
30
0.0
 70
     32
  0
VERTEX
  8
MY3DLAYER
10
47.90656492945234
20
86.80706591148807
30
0.0
 70
     32
  0
VERTEX
  8
MY3DLAYER
10
70.0825649294524
20
86.80706591148807
30
0.0
 70
     32
  0
VERTEX
  8
MY3DLAYER
10
71.26821341745419
20
86.5442522491799
30
0.0
 70
     32
  0
VERTEX
  8
MY3DLAYER
10
72.35419857028049
20
86.0006810891299
30
0.0
 70
     32
  0
VERTEX
  8
MY3DLAYER
10
73.27516426879173
20
85.2090653108874
30
0.0
 70
     32
  0
VERTEX
  8
MY3DLAYER
10
73.97568549750049
20
84.21704546918787
30
0.0
 70
     32
  0
VERTEX
  8
MY3DLAYER
10
74.4136039002227
20
83.08432271813449
30
0.0
 70
     32
  0
VERTEX
  8
MY3DLAYER
10
74.56256492945252
20
81.87906591148801
30
0.0
 70
     32
  0
VERTEX
  8
MY3DLAYER
10
74.4136039002227
20
80.67380910484155
30
0.0
 70
     32
  0
VERTEX
  8
MY3DLAYER
10
73.97568549750049
20
79.54108635378807
30
0.0
 70
     32
  0
VERTEX
  8
MY3DLAYER
10
73.27516426879173
20
78.5490665120887
30
0.0
 70
     32
  0
VERTEX
  8
MY3DLAYER
10
72.35419857028049
20
77.75745073384617
30
0.0
 70
     32
  0
VERTEX
  8
MY3DLAYER
10
71.26821341745419
20
77.2138795737962
30
0.0
 70
     32
  0
VERTEX
  8
MY3DLAYER
10
70.0825649294524
20
76.95106591148799
30
0.0
 70
     32
  0
VERTEX
  8
MY3DLAYER
10
48.25418318671384
20
76.95106591148799
30
0.0
 70
     32
  0
VERTEX
  8
MY3DLAYER
10
48.63152569075864
20
66.25229609091502
30
0.0
 70
     32
  0
SEQEND
  0
POLYLINE
 8
Layer0
 66
     1
70
    8
 10
0.0
 20
 0.0
 30
0.0
  0
VERTEX
  8
MY3DLAYER
10
76.35198982425435
20
35.403196167596356
30
0.0
 70
     32
  0
VERTEX
  8
MY3DLAYER
10
82.71355461944002
20
26.54035596912091
30
0.0
 70
     32
  0
VERTEX
  8
MY3DLAYER
10
80.2262259922875
20
21.496552466430217
30
0.0
 70
     32
  0
VERTEX
  8
MY3DLAYER
10
77.10182834083662
20
16.820560936410445
30
0.0
 70
     32
  0
VERTEX
  8
MY3DLAYER
10
73.39382097515077
20
12.592388890570001
30
0.0
 70
     32
  0
VERTEX
  8
MY3DLAYER
10
69.16564892931044
20
8.884381524884027
30
0.0
 70
     32
  0
VERTEX
  8
MY3DLAYER
10
64.4896573992905
20
5.759983873433238
30
0.0
 70
     32
  0
VERTEX
  8
MY3DLAYER
10
59.445853896599786
20
3.272655246280648
30
0.0
 70
     32
  0
VERTEX
  8
MY3DLAYER
10
54.120539297575725
20
1.4649545258546155
30
0.0
 70
     32
  0
VERTEX
  8
MY3DLAYER
10
48.604831211463704
20
0.36781197267094007
30
0.0
 70
     32
  0
VERTEX
  8
MY3DLAYER
10
42.993104932859836
20
0.0
30
0.0
 70
     32
  0
VERTEX
  8
MY3DLAYER
10
37.381378654256714
20
0.36781197267094007
30
0.0
 70
     32
  0
VERTEX
  8
MY3DLAYER
10
31.865670568144825
20
1.4649545258545902
30
0.0
 70
     32
  0
VERTEX
  8
MY3DLAYER
10
26.54035596912073
20
3.272655246280633
30
0.0
 70
     32
  0
VERTEX
  8
MY3DLAYER
10
21.496552466430032
20
5.759983873433224
30
0.0
 70
     32
  0
VERTEX
  8
MY3DLAYER
10
16.820560936410466
20
8.884381524884011
30
0.0
 70
     32
  0
VERTEX
  8
MY3DLAYER
10
12.592388890569856
20
12.592388890569989
30
0.0
 70
     32
  0
VERTEX
  8
MY3DLAYER
10
8.884381524884017
20
16.820560936410413
30
0.0
 70
     32
  0
VERTEX
  8
MY3DLAYER
10
5.759983873433272
20
21.49655246643018
30
0.0
 70
     32
  0
VERTEX
  8
MY3DLAYER
10
3.2726552462808365
20
26.54035596912091
30
0.0
 70
     32
  0
VERTEX
  8
MY3DLAYER
10
1.4649545258546097
20
31.86567056814492
30
0.0
 70
     32
  0
VERTEX
  8
MY3DLAYER
10
0.3678119726709284
20
37.38137865425701
30
0.0
 70
     32
  0
VERTEX
  8
MY3DLAYER
10
0.0
20
42.99310493286039
30
0.0
 70
     32
  0
VERTEX
  8
MY3DLAYER
10
0.3678119726709284
20
48.604831211463704
30
0.0
 70
     32
  0
VERTEX
  8
MY3DLAYER
10
1.4649545258546097
20
54.12053929757569
30
0.0
 70
     32
  0
VERTEX
  8
MY3DLAYER
10
3.2726552462808365
20
59.44585389659976
30
0.0
 70
     32
  0
VERTEX
  8
MY3DLAYER
10
5.759983873433272
20
64.48965739929044
30
0.0
 70
     32
  0
VERTEX
  8
MY3DLAYER
10
8.884381524884017
20
69.1656489293103
30
0.0
 70
     32
  0
VERTEX
  8
MY3DLAYER
10
12.592388890569856
20
73.39382097515069
30
0.0
 70
     32
  0
VERTEX
  8
MY3DLAYER
10
16.820560936410466
20
77.10182834083668
30
0.0
 70
     32
  0
VERTEX
  8
MY3DLAYER
10
20.421262088744626
20
79.50773993235785
30
0.0
 70
     32
  0
VERTEX
  8
MY3DLAYER
10
20.4443872829539
20
68.70498957450367
30
0.0
 70
     32
  0
VERTEX
  8
MY3DLAYER
10
18.75914132803504
20
67.22706853768568
30
0.0
 70
     32
  0
VERTEX
  8
MY3DLAYER
10
15.803299254399072
20
63.85657662784724
30
0.0
 70
     32
  0
VERTEX
  8
MY3DLAYER
10
13.312682294360146
20
60.12910493286036
30
0.0
 70
     32
  0
VERTEX
  8
MY3DLAYER
10
11.32990559463321
20
56.10843152687667
30
0.0
 70
     32
  0
VERTEX
  8
MY3DLAYER
10
9.888895014281335
20
51.863351246613966
30
0.0
 70
     32
  0
VERTEX
  8
MY3DLAYER
10
9.014306643857095
20
47.46649859262595
30
0.0
 70
     32
  0
VERTEX
  8
MY3DLAYER
10
8.721104932860404
20
42.99310493286039
30
0.0
 70
     32
  0
VERTEX
  8
MY3DLAYER
10
9.014306643857095
20
38.51971127309472
30
0.0
 70
     32
  0
VERTEX
  8
MY3DLAYER
10
9.888895014281335
20
34.12285861910677
30
0.0
 70
     32
  0
VERTEX
  8
MY3DLAYER
10
11.32990559463321
20
29.87777833884396
30
0.0
 70
     32
  0
VERTEX
  8
MY3DLAYER
10
13.312682294360146
20
25.857104932860384
30
0.0
 70
     32
  0
VERTEX
  8
MY3DLAYER
10
15.803299254399072
20
22.129633237873456
30
0.0
 70
     32
  0
VERTEX
  8
MY3DLAYER
10
18.75914132803504
20
18.75914132803496
30
0.0
 70
     32
  0
VERTEX
  8
MY3DLAYER
10
22.129633237873403
20
15.803299254399109
30
0.0
 70
     32
  0
VERTEX
  8
MY3DLAYER
10
25.857104932860352
20
13.312682294360023
30
0.0
 70
     32
  0
VERTEX
  8
MY3DLAYER
10
29.87777833884389
20
11.329905594633502
30
0.0
 70
     32
  0
VERTEX
  8
MY3DLAYER
10
34.12285861910669
20
9.888895014281369
30
0.0
 70
     32
  0
VERTEX
  8
MY3DLAYER
10
38.51971127309471
20
9.01430664385707
30
0.0
 70
     32
  0
VERTEX
  8
MY3DLAYER
10
42.993104932859836
20
8.721104932860303
30
0.0
 70
     32
  0
VERTEX
  8
MY3DLAYER
10
47.46649859262579
20
9.01430664385707
30
0.0
 70
     32
  0
VERTEX
  8
MY3DLAYER
10
51.863351246613504
20
9.888895014281369
30
0.0
 70
     32
  0
VERTEX
  8
MY3DLAYER
10
56.108431526876664
20
11.329905594633502
30
0.0
 70
     32
  0
VERTEX
  8
MY3DLAYER
10
60.12910493286026
20
13.312682294360043
30
0.0
 70
     32
  0
VERTEX
  8
MY3DLAYER
10
63.85657662784711
20
15.803299254399109
30
0.0
 70
     32
  0
VERTEX
  8
MY3DLAYER
10
67.2270685376856
20
18.75914132803496
30
0.0
 70
     32
  0
VERTEX
  8
MY3DLAYER
10
70.18291061132165
20
22.129633237873456
30
0.0
 70
     32
  0
VERTEX
  8
MY3DLAYER
10
72.67352757136085
20
25.857104932860384
30
0.0
 70
     32
  0
VERTEX
  8
MY3DLAYER
10
74.65630427108724
20
29.877778338844053
30
0.0
 70
     32
  0
VERTEX
  8
MY3DLAYER
10
76.09731485143938
20
34.12285861910677
30
0.0
 70
     32
  0
VERTEX
  8
MY3DLAYER
10
76.35198982425435
20
35.403196167596356
30
0.0
 70
     32
  0
SEQEND
 0
ENDSEC
 0
EOF
