<?xml version="1.0"?>
<svg 
  xmlns="http://www.w3.org/2000/svg" 
  xmlns:xlink="http://www.w3.org/1999/xlink" version="1.1" preserveAspectRatio="xMinYMin meet" viewBox="0 -148.46040647983244 63.43704212131588 148.46040647983244" width="100%" height="100%">
  <path fill="none" stroke="#000000" stroke-width="1%" d="M31.718521060657977,-121.13240647983233L29.93501117016328,-121.24930389402047L28.18201762837723,-121.59799598941842L26.489534640821333,-122.17251654759798L24.88652106065788,-122.96303536252155L23.400404894682776,-123.95602643809269L22.056614002524924,-125.13449942169918L20.878141018918495,-126.478290313857L19.885149943347404,-127.96440647983216L19.094631128423707,-129.56742005999567L18.52011057024411,-131.2599030475514L18.171418474846178,-133.01289658933743L18.054521060657923,-134.79640647983217L18.171418474846178,-136.57991637032697L18.52011057024411,-138.33290991211314L19.094631128423707,-140.02539289966887L19.885149943347404,-141.62840647983222L20.878141018918473,-143.11452264580745L22.05661400252488,-144.45831353796518L23.400404894682776,-145.6367865215717L24.88652106065788,-146.6297775971429L26.489534640821333,-147.42029641206656L28.18201762837723,-147.99481697024615L29.93501117016328,-148.3435090656441L31.718521060657977,-148.46040647983244L33.50203095115281,-148.3435090656441L35.25502449293881,-147.99481697024615L36.947507480494515,-147.42029641206656L38.550521060658,-146.6297775971429L40.036637226633054,-145.6367865215717L41.38042811879083,-144.45831353796518L42.558901102397336,-143.11452264580745L43.55189217796854,-141.62840647983222L44.34241099289216,-140.02539289966887L44.91693155107185,-138.33290991211314L45.26562364646974,-136.5799163703271L45.38252106065786,-134.79640647983217L45.26562364646974,-133.01289658933743L44.91693155107185,-131.2599030475514L44.34241099289216,-129.56742005999567L43.55189217796854,-127.96440647983216L42.558901102397336,-126.478290313857L41.38042811879083,-125.13449942169918L40.0366372266331,-123.95602643809269L38.550521060658,-122.96303536252155L36.947507480494515,-122.17251654759798L35.25502449293881,-121.59799598941842L33.50203095115281,-121.24930389402047L31.718521060657977,-121.13240647983233"/>
  <path fill="none" stroke="#000000" stroke-width="1%" d="M34.02928063051604,-5.039999999999967L34.02928063051604,-46.03200000000011L29.407761490799956,-46.03200000000011L29.407761490799956,-5.039999999999967L29.23602765529685,-3.735552012683293L28.732529525873336,-2.5199999999999854L27.931579667980035,-1.4761818228197838L26.88776149079986,-0.6752319649264215L25.672209478116617,-0.17173383550308682L24.367761490799754,0L23.063313503483176,-0.17173383550308682L21.84776149079983,-0.6752319649264215L20.80394331361959,-1.4761818228197838L20.00299345572629,-2.5199999999999854L19.49949532630291,-3.735552012683293L19.327761490799872,-5.039999999999967L19.327761490799872,-46.03200000000011L17.759761490799722,-46.03200000000011L5.952329444255372,-46.03200000000011L22.31052106065789,-102.39414075992033L17.759761490799722,-102.39414075992033L7.697104744765615,-66.13244798074228L7.297105325076682,-65.19053756564337L6.6669512008905425,-64.38424943749403L5.849586334391427,-63.76853079977361L4.900712790472038,-63.38534186011958L3.8849947330628427,-63.260796311519684L2.8716516692225995,-63.40338172728979L1.9297412541236325,-63.8033811469787L1.1234531259743072,-64.4335352711648L0.5077344882539548,-65.25090013766392L0.12454554859991926,-66.19977368158337L0,-67.21549173899267L0.14258541577017672,-68.2288348028328L11.243862838687342,-108.233291034026L11.654442443896295,-109.48302822281407L12.179870153896665,-110.6889902349925L12.815559045988733,-111.84064916268075L12.85157378121305,-111.89353795597893L13.555959630197767,-112.9279511576006L14.394608295675008,-113.94140419999898L15.324183737267592,-114.87216096287625L16.336570869659248,-115.71209604811875L17.42293167112013,-116.45387692027886L18.573782338407046,-117.09102791875492L19.77907607926021,-117.6179867895537L21.028290819730447,-118.03015324312027L22.31052106065789,-118.3239291143292L41.12652106065796,-118.3239291143292L42.40875130158554,-118.03015324312027L43.65796604205568,-117.6179867895537L44.863259782908806,-117.09102791875492L46.014110450195766,-116.45387692027886L47.10047125165671,-115.71209604811875L48.11285838404845,-114.87216096287625L49.04243382564101,-113.94140419999898L49.881082491118356,-112.9279511576006L50.58546834010289,-111.89353795597893L50.62148307532732,-111.84064916268075L51.25717196741934,-110.6889902349925L51.78259967741965,-109.48302822281407L52.193179282628556,-108.233291034026L63.294456705546025,-68.2288348028328L63.43704212131588,-67.21549173899267L63.31249657271612,-66.19977368158337L62.92930763306211,-65.25090013766392L62.313588995341554,-64.4335352711648L61.5073008671923,-63.8033811469787L60.56539045209344,-63.40338172728979L59.5520473882532,-63.260796311519684L58.536329330844026,-63.38534186011958L57.58745578692446,-63.76853079977361L56.770090920425446,-64.38424943749403L56.139936796239304,-65.19053756564337L55.73993737655046,-66.13244798074228L45.67728063051604,-102.39414075992033L41.12652106065796,-102.39414075992033L57.48471267706065,-46.03200000000011L45.67728063051604,-46.03200000000011L44.10928063051614,-46.03200000000011L44.10928063051614,-5.039999999999967L43.93754679501308,-3.735552012683293L43.43404866558965,-2.5199999999999854L42.63309880769617,-1.4761818228197838L41.58928063051604,-0.6752319649264215L40.37372861783285,-0.17173383550308682L39.069280630516126,0L37.764832643199355,-0.17173383550308682L36.549280630516165,-0.6752319649264215L35.50546245333587,-1.4761818228197838L34.70451259544248,-2.5199999999999854L34.20101446601919,-3.735552012683293L34.02928063051604,-5.039999999999967"/>
</svg>