<?xml version="1.0"?>
<svg 
  xmlns="http://www.w3.org/2000/svg" 
  xmlns:xlink="http://www.w3.org/1999/xlink" version="1.1" preserveAspectRatio="xMinYMin meet" viewBox="0 -131.91145179106348 103.20503727678259 131.91145179106348" width="100%" height="100%">
  <path fill="none" stroke="#000000" stroke-width="1%" d="M44.81590047344765,-127.26666747625504L45.67866321123929,-125.97545179106358L46.365507427484154,-124.58266950010193L46.864681027213855,-123.11215149452073L47.16764301173974,-121.5890587451L47.26920961751017,-120.03945179106366L47.16764301173974,-118.48984483702715L46.864681027213855,-116.96675208760641L46.365507427484154,-115.4962340820252L45.67866321123929,-114.10345179106352L44.81590047344765,-112.81223610587203L43.79198132375674,-111.64468008481691L42.62442530270166,-110.62076093512604L41.33320961751011,-109.7579981973348L39.940427326548395,-109.07115398108957L38.469909320967524,-108.57198038135977L36.94681657154646,-108.26901839683366L35.397209617510136,-108.16745179106357L33.84760266347363,-108.26901839683366L32.32450991405292,-108.57198038135977L30.853991908471865,-109.07115398108957L29.461209617510065,-109.7579981973348L28.169993932318594,-110.62076093512604L27.00243791126335,-111.64468008481691L25.978518761572616,-112.81223610587203L25.115756023781334,-114.10345179106352L24.42891180753629,-115.4962340820252L23.929738207806228,-116.96675208760641L23.62677622328034,-118.48984483702715L23.525209617510185,-120.03945179106366L23.62677622328034,-121.5890587451L23.929738207806228,-123.11215149452073L24.42891180753629,-124.58266950010193L25.115756023781334,-125.97545179106358L25.978518761572616,-127.26666747625504L27.00243791126335,-128.43422349731028L28.169993932318594,-129.45814264700104L29.461209617509972,-130.32090538479247L30.853991908471865,-131.00774960103763L32.32450991405292,-131.5069232007674L33.84760266347363,-131.8098851852935L35.397209617510136,-131.91145179106348L36.94681657154646,-131.8098851852935L38.469909320967524,-131.5069232007674L39.940427326548395,-131.00774960103763L41.33320961750993,-130.32090538479247L42.62442530270166,-129.4581426470011L43.79198132375674,-128.43422349731034L44.81590047344765,-127.26666747625504"/>
  <path fill="none" stroke="#000000" stroke-width="1%" d="M48.63152569075864,-66.25229609091502L75.51152569075882,-66.25229609091502L76.95566844239231,-66.18350463996029L78.3654648544726,-65.8629510137055L79.69736962217738,-65.30053636188234L80.91024333090176,-64.51363235407412L81.9666231562942,-63.526544609583475L82.83388000303869,-62.369761953855075L102.33197658458153,-29.399765810439558L102.974347895435,-27.893718766187575L103.20503727678259,-26.272731101261932L103.00832362851814,-24.647270446218517L102.39761266068568,-23.1281092584978L101.41452331649565,-21.818775862510428L100.126051510123,-20.808499165417118L98.62000446587071,-20.166127854563683L96.99901680094518,-19.93543847321597L95.37355614590176,-20.132152121480548L93.85439495818117,-20.74286308931294L92.54506156219385,-21.725952433502886L91.53478486510043,-23.01442423987587L76.59764654824606,-48.27214058366209L36.72564654824587,-48.27214058366209L35.40760561661185,-48.34168002214524L34.11214354372752,-48.59435698723241L32.864580467963705,-49.025232842854805L31.689300329511198,-49.62588600993753L30.609274280017765,-50.38457656832278L29.645611705539007,-51.286475716518666L28.81714763817654,-52.313955604427015L28.140074620543892,-53.446933874192936L27.62762621837349,-54.66326617503847L27.289818367076585,-55.939178980276154L27.13325360772073,-57.249734246983856L27.160992038670763,-58.56931683644755L25.771383044733472,-97.96881889984905L26.754094201438754,-100.13839702986914L28.164169812719756,-102.05789624847897L29.940665954676128,-103.6443551787352L32.006801889579805,-104.8292065526527L34.273278554190256,-105.56124071070106L36.642138094144656,-105.80881889984904L39.01099763409879,-105.56124071070106L41.27747429870987,-104.8292065526527L43.34361023361345,-103.64435517873515L45.120106375569186,-102.05789624847897L46.530181986850565,-100.13839702986904L47.512893143555665,-97.96881889984905L47.90656492945234,-86.80706591148807L70.0825649294524,-86.80706591148807L71.26821341745419,-86.5442522491799L72.35419857028049,-86.0006810891299L73.27516426879173,-85.2090653108874L73.97568549750049,-84.21704546918787L74.4136039002227,-83.08432271813449L74.56256492945252,-81.87906591148801L74.4136039002227,-80.67380910484155L73.97568549750049,-79.54108635378807L73.27516426879173,-78.5490665120887L72.35419857028049,-77.75745073384617L71.26821341745419,-77.2138795737962L70.0825649294524,-76.95106591148799L48.25418318671384,-76.95106591148799L48.63152569075864,-66.25229609091502"/>
  <path fill="none" stroke="#000000" stroke-width="1%" d="M76.35198982425435,-35.403196167596356L82.71355461944002,-26.54035596912091L80.2262259922875,-21.496552466430217L77.10182834083662,-16.820560936410445L73.39382097515077,-12.592388890570001L69.16564892931044,-8.884381524884027L64.4896573992905,-5.759983873433238L59.445853896599786,-3.272655246280648L54.120539297575725,-1.4649545258546155L48.604831211463704,-0.36781197267094007L42.993104932859836,0L37.381378654256714,-0.36781197267094007L31.865670568144825,-1.4649545258545902L26.54035596912073,-3.272655246280633L21.496552466430032,-5.759983873433224L16.820560936410466,-8.884381524884011L12.592388890569856,-12.592388890569989L8.884381524884017,-16.820560936410413L5.759983873433272,-21.49655246643018L3.2726552462808365,-26.54035596912091L1.4649545258546097,-31.86567056814492L0.3678119726709284,-37.38137865425701L0,-42.99310493286039L0.3678119726709284,-48.604831211463704L1.4649545258546097,-54.12053929757569L3.2726552462808365,-59.44585389659976L5.759983873433272,-64.48965739929044L8.884381524884017,-69.1656489293103L12.592388890569856,-73.39382097515069L16.820560936410466,-77.10182834083668L20.421262088744626,-79.50773993235785L20.4443872829539,-68.70498957450367L18.75914132803504,-67.22706853768568L15.803299254399072,-63.85657662784724L13.312682294360146,-60.12910493286036L11.32990559463321,-56.10843152687667L9.888895014281335,-51.863351246613966L9.014306643857095,-47.46649859262595L8.721104932860404,-42.99310493286039L9.014306643857095,-38.51971127309472L9.888895014281335,-34.12285861910677L11.32990559463321,-29.87777833884396L13.312682294360146,-25.857104932860384L15.803299254399072,-22.129633237873456L18.75914132803504,-18.75914132803496L22.129633237873403,-15.803299254399109L25.857104932860352,-13.312682294360023L29.87777833884389,-11.329905594633502L34.12285861910669,-9.888895014281369L38.51971127309471,-9.01430664385707L42.993104932859836,-8.721104932860303L47.46649859262579,-9.01430664385707L51.863351246613504,-9.888895014281369L56.108431526876664,-11.329905594633502L60.12910493286026,-13.312682294360043L63.85657662784711,-15.803299254399109L67.2270685376856,-18.75914132803496L70.18291061132165,-22.129633237873456L72.67352757136085,-25.857104932860384L74.65630427108724,-29.877778338844053L76.09731485143938,-34.12285861910677L76.35198982425435,-35.403196167596356"/>
</svg>