<?xml version="1.0"?>
<svg 
  xmlns="http://www.w3.org/2000/svg" 
  xmlns:xlink="http://www.w3.org/1999/xlink" version="1.1" preserveAspectRatio="xMinYMin meet" viewBox="0 -149.68659197462352 51.46184997181651 149.68659197462352" width="100%" height="100%">
  <path fill="none" stroke="#000000" stroke-width="1%" d="M25.73092498590825,-122.35859197462342L23.947415095413476,-122.47548938881165L22.194421553627404,-122.82418148420952L20.501938566071665,-123.39870204238916L18.898924985908252,-124.18922085731288L17.412808819933083,-125.18221193288389L16.069017927775235,-126.36068491649043L14.890544944168786,-127.70447580864837L13.897553868597665,-129.19059197462352L13.107035053674005,-130.79360555478686L12.532514495494398,-132.48608854234254L12.183822400096492,-134.23908208412857L12.06692498590823,-136.02259197462348L12.183822400096492,-137.80610186511825L12.532514495494398,-139.55909540690428L13.107035053674005,-141.25157839445995L13.897553868597665,-142.85459197462342L14.890544944168786,-144.3407081405985L16.069017927775235,-145.68449903275646L17.412808819933083,-146.86297201636287L18.898924985908224,-147.85596309193406L20.501938566071654,-148.64648190685776L22.194421553627393,-149.22100246503737L23.94741509541346,-149.56969456043527L25.73092498590825,-149.68659197462352L27.514434876403026,-149.56969456043527L29.267428418189063,-149.22100246503737L30.959911405744837,-148.64648190685776L32.56292498590822,-147.85596309193406L34.04904115188339,-146.862972016363L35.392832044041235,-145.68449903275646L36.571305027647675,-144.3407081405985L37.564296103218815,-142.85459197462342L38.35481491814247,-141.25157839445995L38.929335476322116,-139.55909540690428L39.27802757172004,-137.80610186511836L39.39492498590827,-136.02259197462348L39.27802757172004,-134.23908208412857L38.929335476322116,-132.48608854234254L38.35481491814247,-130.79360555478686L37.564296103218815,-129.19059197462352L36.571305027647675,-127.70447580864837L35.39283204404124,-126.36068491649043L34.04904115188339,-125.18221193288389L32.56292498590823,-124.18922085731288L30.959911405744837,-123.39870204238916L29.267428418189088,-122.82418148420952L27.514434876403026,-122.47548938881165L25.73092498590825,-122.35859197462342"/>
  <path fill="none" stroke="#000000" stroke-width="1%" d="M28.418924985908248,-5.93600000000003L28.418924985908248,-62.60800000000007L23.04292498590826,-62.60800000000007L23.04292498590826,-5.936000000000007L22.840660690760142,-4.399650148271439L22.247651782772678,-2.968000000000013L21.30431083903158,-1.7386141468766496L20.07492498590824,-0.7952732031355715L18.643274837636806,-0.20226429514809668L17.10692498590825,0L15.570575134179679,-0.20226429514809668L14.138924985908245,-0.7952732031355715L12.909539132784888,-1.7386141468766496L11.9661981890438,-2.968000000000013L11.373189281056321,-4.399650148271439L11.170924985908233,-5.936000000000007L11.170924985908233,-102.03200000000007L8.258924985908214,-102.03200000000007L8.258924985908214,-66.41600000000004L8.118216963590521,-65.34721646078691L7.705681915827383,-64.35126875352297L7.049433424377457,-63.49602906857671L6.194193739431164,-62.83978057712676L5.198246032167163,-62.42724552936363L4.129462492954101,-62.286537507045914L3.0606789537410495,-62.42724552936363L2.0647312464770535,-62.83978057712676L1.2094915615307495,-63.49602906857671L0.5532430700808304,-64.35126875352297L0.14070802231769555,-65.34721646078691L0,-66.41600000000004L0,-113.45600000000015L0.07260222970183773,-114.50213026017154L0.28859581320245126,-115.52829124992459L0.6438638460113336,-116.51492402348744L1.131634809568074,-117.44322305511194L1.7426116384800114,-118.29549467820931L2.465148925463395,-119.05549433210601L3.285474886407197,-119.70873618839354L4.187953854836761,-120.24276925529712L5.155384302551588,-120.64741469742972L6.169326706071876,-120.9149598475402L7.210455009657872,-121.04030521233861L8.258924985908214,-121.02106167041225L43.20292498590829,-121.02106167041225L44.25139496215864,-121.04030521233861L45.29252326574463,-120.9149598475402L46.3064656692649,-120.64741469742972L47.27389611697976,-120.24276925529712L48.17637508540929,-119.70873618839354L48.99670104635312,-119.05549433210601L49.719238333336506,-118.29549467820931L50.33021516224842,-117.44322305511194L50.81798612580511,-116.51492402348744L51.173254158614036,-115.52829124992459L51.38924774211464,-114.50213026017154L51.46184997181651,-113.45600000000015L51.46184997181651,-66.41600000000007L51.32114194949878,-65.347216460787L50.90860690173565,-64.35126875352304L50.252358410285744,-63.49602906857671L49.39711872533945,-62.83978057712676L48.40117101807544,-62.42724552936363L47.332387478862366,-62.286537507045956L46.263603939649315,-62.42724552936363L45.26765623238535,-62.83978057712676L44.412416547439044,-63.49602906857671L43.756168055989114,-64.35126875352304L43.34363300822597,-65.347216460787L43.20292498590829,-66.41600000000007L43.20292498590829,-102.03200000000007L40.2909249859083,-102.03200000000007L40.2909249859083,-5.93600000000003L40.088660690760186,-4.399650148271463L39.49565178277269,-2.968000000000036L38.5523108390316,-1.738614146876677L37.32292498590826,-0.7952732031355969L35.89127483763682,-0.20226429514812194L34.35492498590821,-2.5266899683629163e-14L32.81857513417969,-0.20226429514812194L31.386924985908216,-0.7952732031355969L30.157539132784866,-1.738614146876677L29.214198189043834,-2.968000000000036L28.62118928105634,-4.399650148271463L28.418924985908248,-5.93600000000003"/>
</svg>