 0
SECTION
 2
ENTITIES
  0
POLYLINE
 8
Layer0
 66
     1
70
    8
 10
0.0
 20
 0.0
 30
0.0
  0
VERTEX
  8
MY3DLAYER
10
31.718521060657977
20
121.13240647983233
30
0.0
 70
     32
  0
VERTEX
  8
MY3DLAYER
10
29.93501117016328
20
121.24930389402047
30
0.0
 70
     32
  0
VERTEX
  8
MY3DLAYER
10
28.18201762837723
20
121.59799598941842
30
0.0
 70
     32
  0
VERTEX
  8
MY3DLAYER
10
26.489534640821333
20
122.17251654759798
30
0.0
 70
     32
  0
VERTEX
  8
MY3DLAYER
10
24.88652106065788
20
122.96303536252155
30
0.0
 70
     32
  0
VERTEX
  8
MY3DLAYER
10
23.400404894682776
20
123.95602643809269
30
0.0
 70
     32
  0
VERTEX
  8
MY3DLAYER
10
22.056614002524924
20
125.13449942169918
30
0.0
 70
     32
  0
VERTEX
  8
MY3DLAYER
10
20.878141018918495
20
126.478290313857
30
0.0
 70
     32
  0
VERTEX
  8
MY3DLAYER
10
19.885149943347404
20
127.96440647983216
30
0.0
 70
     32
  0
VERTEX
  8
MY3DLAYER
10
19.094631128423707
20
129.56742005999567
30
0.0
 70
     32
  0
VERTEX
  8
MY3DLAYER
10
18.52011057024411
20
131.2599030475514
30
0.0
 70
     32
  0
VERTEX
  8
MY3DLAYER
10
18.171418474846178
20
133.01289658933743
30
0.0
 70
     32
  0
VERTEX
  8
MY3DLAYER
10
18.054521060657923
20
134.79640647983217
30
0.0
 70
     32
  0
VERTEX
  8
MY3DLAYER
10
18.171418474846178
20
136.57991637032697
30
0.0
 70
     32
  0
VERTEX
  8
MY3DLAYER
10
18.52011057024411
20
138.33290991211314
30
0.0
 70
     32
  0
VERTEX
  8
MY3DLAYER
10
19.094631128423707
20
140.02539289966887
30
0.0
 70
     32
  0
VERTEX
  8
MY3DLAYER
10
19.885149943347404
20
141.62840647983222
30
0.0
 70
     32
  0
VERTEX
  8
MY3DLAYER
10
20.878141018918473
20
143.11452264580745
30
0.0
 70
     32
  0
VERTEX
  8
MY3DLAYER
10
22.05661400252488
20
144.45831353796518
30
0.0
 70
     32
  0
VERTEX
  8
MY3DLAYER
10
23.400404894682776
20
145.6367865215717
30
0.0
 70
     32
  0
VERTEX
  8
MY3DLAYER
10
24.88652106065788
20
146.6297775971429
30
0.0
 70
     32
  0
VERTEX
  8
MY3DLAYER
10
26.489534640821333
20
147.42029641206656
30
0.0
 70
     32
  0
VERTEX
  8
MY3DLAYER
10
28.18201762837723
20
147.99481697024615
30
0.0
 70
     32
  0
VERTEX
  8
MY3DLAYER
10
29.93501117016328
20
148.3435090656441
30
0.0
 70
     32
  0
VERTEX
  8
MY3DLAYER
10
31.718521060657977
20
148.46040647983244
30
0.0
 70
     32
  0
VERTEX
  8
MY3DLAYER
10
33.50203095115281
20
148.3435090656441
30
0.0
 70
     32
  0
VERTEX
  8
MY3DLAYER
10
35.25502449293881
20
147.99481697024615
30
0.0
 70
     32
  0
VERTEX
  8
MY3DLAYER
10
36.947507480494515
20
147.42029641206656
30
0.0
 70
     32
  0
VERTEX
  8
MY3DLAYER
10
38.550521060658
20
146.6297775971429
30
0.0
 70
     32
  0
VERTEX
  8
MY3DLAYER
10
40.036637226633054
20
145.6367865215717
30
0.0
 70
     32
  0
VERTEX
  8
MY3DLAYER
10
41.38042811879083
20
144.45831353796518
30
0.0
 70
     32
  0
VERTEX
  8
MY3DLAYER
10
42.558901102397336
20
143.11452264580745
30
0.0
 70
     32
  0
VERTEX
  8
MY3DLAYER
10
43.55189217796854
20
141.62840647983222
30
0.0
 70
     32
  0
VERTEX
  8
MY3DLAYER
10
44.34241099289216
20
140.02539289966887
30
0.0
 70
     32
  0
VERTEX
  8
MY3DLAYER
10
44.91693155107185
20
138.33290991211314
30
0.0
 70
     32
  0
VERTEX
  8
MY3DLAYER
10
45.26562364646974
20
136.5799163703271
30
0.0
 70
     32
  0
VERTEX
  8
MY3DLAYER
10
45.38252106065786
20
134.79640647983217
30
0.0
 70
     32
  0
VERTEX
  8
MY3DLAYER
10
45.26562364646974
20
133.01289658933743
30
0.0
 70
     32
  0
VERTEX
  8
MY3DLAYER
10
44.91693155107185
20
131.2599030475514
30
0.0
 70
     32
  0
VERTEX
  8
MY3DLAYER
10
44.34241099289216
20
129.56742005999567
30
0.0
 70
     32
  0
VERTEX
  8
MY3DLAYER
10
43.55189217796854
20
127.96440647983216
30
0.0
 70
     32
  0
VERTEX
  8
MY3DLAYER
10
42.558901102397336
20
126.478290313857
30
0.0
 70
     32
  0
VERTEX
  8
MY3DLAYER
10
41.38042811879083
20
125.13449942169918
30
0.0
 70
     32
  0
VERTEX
  8
MY3DLAYER
10
40.0366372266331
20
123.95602643809269
30
0.0
 70
     32
  0
VERTEX
  8
MY3DLAYER
10
38.550521060658
20
122.96303536252155
30
0.0
 70
     32
  0
VERTEX
  8
MY3DLAYER
10
36.947507480494515
20
122.17251654759798
30
0.0
 70
     32
  0
VERTEX
  8
MY3DLAYER
10
35.25502449293881
20
121.59799598941842
30
0.0
 70
     32
  0
VERTEX
  8
MY3DLAYER
10
33.50203095115281
20
121.24930389402047
30
0.0
 70
     32
  0
VERTEX
  8
MY3DLAYER
10
31.718521060657977
20
121.13240647983233
30
0.0
 70
     32
  0
SEQEND
  0
POLYLINE
 8
Layer0
 66
     1
70
    8
 10
0.0
 20
 0.0
 30
0.0
  0
VERTEX
  8
MY3DLAYER
10
34.02928063051604
20
5.039999999999967
30
0.0
 70
     32
  0
VERTEX
  8
MY3DLAYER
10
34.02928063051604
20
46.03200000000011
30
0.0
 70
     32
  0
VERTEX
  8
MY3DLAYER
10
29.407761490799956
20
46.03200000000011
30
0.0
 70
     32
  0
VERTEX
  8
MY3DLAYER
10
29.407761490799956
20
5.039999999999967
30
0.0
 70
     32
  0
VERTEX
  8
MY3DLAYER
10
29.23602765529685
20
3.735552012683293
30
0.0
 70
     32
  0
VERTEX
  8
MY3DLAYER
10
28.732529525873336
20
2.5199999999999854
30
0.0
 70
     32
  0
VERTEX
  8
MY3DLAYER
10
27.931579667980035
20
1.4761818228197838
30
0.0
 70
     32
  0
VERTEX
  8
MY3DLAYER
10
26.88776149079986
20
0.6752319649264215
30
0.0
 70
     32
  0
VERTEX
  8
MY3DLAYER
10
25.672209478116617
20
0.17173383550308682
30
0.0
 70
     32
  0
VERTEX
  8
MY3DLAYER
10
24.367761490799754
20
0.0
30
0.0
 70
     32
  0
VERTEX
  8
MY3DLAYER
10
23.063313503483176
20
0.17173383550308682
30
0.0
 70
     32
  0
VERTEX
  8
MY3DLAYER
10
21.84776149079983
20
0.6752319649264215
30
0.0
 70
     32
  0
VERTEX
  8
MY3DLAYER
10
20.80394331361959
20
1.4761818228197838
30
0.0
 70
     32
  0
VERTEX
  8
MY3DLAYER
10
20.00299345572629
20
2.5199999999999854
30
0.0
 70
     32
  0
VERTEX
  8
MY3DLAYER
10
19.49949532630291
20
3.735552012683293
30
0.0
 70
     32
  0
VERTEX
  8
MY3DLAYER
10
19.327761490799872
20
5.039999999999967
30
0.0
 70
     32
  0
VERTEX
  8
MY3DLAYER
10
19.327761490799872
20
46.03200000000011
30
0.0
 70
     32
  0
VERTEX
  8
MY3DLAYER
10
17.759761490799722
20
46.03200000000011
30
0.0
 70
     32
  0
VERTEX
  8
MY3DLAYER
10
5.952329444255372
20
46.03200000000011
30
0.0
 70
     32
  0
VERTEX
  8
MY3DLAYER
10
22.31052106065789
20
102.39414075992033
30
0.0
 70
     32
  0
VERTEX
  8
MY3DLAYER
10
17.759761490799722
20
102.39414075992033
30
0.0
 70
     32
  0
VERTEX
  8
MY3DLAYER
10
7.697104744765615
20
66.13244798074228
30
0.0
 70
     32
  0
VERTEX
  8
MY3DLAYER
10
7.297105325076682
20
65.19053756564337
30
0.0
 70
     32
  0
VERTEX
  8
MY3DLAYER
10
6.6669512008905425
20
64.38424943749403
30
0.0
 70
     32
  0
VERTEX
  8
MY3DLAYER
10
5.849586334391427
20
63.76853079977361
30
0.0
 70
     32
  0
VERTEX
  8
MY3DLAYER
10
4.900712790472038
20
63.38534186011958
30
0.0
 70
     32
  0
VERTEX
  8
MY3DLAYER
10
3.8849947330628427
20
63.260796311519684
30
0.0
 70
     32
  0
VERTEX
  8
MY3DLAYER
10
2.8716516692225995
20
63.40338172728979
30
0.0
 70
     32
  0
VERTEX
  8
MY3DLAYER
10
1.9297412541236325
20
63.8033811469787
30
0.0
 70
     32
  0
VERTEX
  8
MY3DLAYER
10
1.1234531259743072
20
64.4335352711648
30
0.0
 70
     32
  0
VERTEX
  8
MY3DLAYER
10
0.5077344882539548
20
65.25090013766392
30
0.0
 70
     32
  0
VERTEX
  8
MY3DLAYER
10
0.12454554859991926
20
66.19977368158337
30
0.0
 70
     32
  0
VERTEX
  8
MY3DLAYER
10
0.0
20
67.21549173899267
30
0.0
 70
     32
  0
VERTEX
  8
MY3DLAYER
10
0.14258541577017672
20
68.2288348028328
30
0.0
 70
     32
  0
VERTEX
  8
MY3DLAYER
10
11.243862838687342
20
108.233291034026
30
0.0
 70
     32
  0
VERTEX
  8
MY3DLAYER
10
11.654442443896295
20
109.48302822281407
30
0.0
 70
     32
  0
VERTEX
  8
MY3DLAYER
10
12.179870153896665
20
110.6889902349925
30
0.0
 70
     32
  0
VERTEX
  8
MY3DLAYER
10
12.815559045988733
20
111.84064916268075
30
0.0
 70
     32
  0
VERTEX
  8
MY3DLAYER
10
12.85157378121305
20
111.89353795597893
30
0.0
 70
     32
  0
VERTEX
  8
MY3DLAYER
10
13.555959630197767
20
112.9279511576006
30
0.0
 70
     32
  0
VERTEX
  8
MY3DLAYER
10
14.394608295675008
20
113.94140419999898
30
0.0
 70
     32
  0
VERTEX
  8
MY3DLAYER
10
15.324183737267592
20
114.87216096287625
30
0.0
 70
     32
  0
VERTEX
  8
MY3DLAYER
10
16.336570869659248
20
115.71209604811875
30
0.0
 70
     32
  0
VERTEX
  8
MY3DLAYER
10
17.42293167112013
20
116.45387692027886
30
0.0
 70
     32
  0
VERTEX
  8
MY3DLAYER
10
18.573782338407046
20
117.09102791875492
30
0.0
 70
     32
  0
VERTEX
  8
MY3DLAYER
10
19.77907607926021
20
117.6179867895537
30
0.0
 70
     32
  0
VERTEX
  8
MY3DLAYER
10
21.028290819730447
20
118.03015324312027
30
0.0
 70
     32
  0
VERTEX
  8
MY3DLAYER
10
22.31052106065789
20
118.3239291143292
30
0.0
 70
     32
  0
VERTEX
  8
MY3DLAYER
10
41.12652106065796
20
118.3239291143292
30
0.0
 70
     32
  0
VERTEX
  8
MY3DLAYER
10
42.40875130158554
20
118.03015324312027
30
0.0
 70
     32
  0
VERTEX
  8
MY3DLAYER
10
43.65796604205568
20
117.6179867895537
30
0.0
 70
     32
  0
VERTEX
  8
MY3DLAYER
10
44.863259782908806
20
117.09102791875492
30
0.0
 70
     32
  0
VERTEX
  8
MY3DLAYER
10
46.014110450195766
20
116.45387692027886
30
0.0
 70
     32
  0
VERTEX
  8
MY3DLAYER
10
47.10047125165671
20
115.71209604811875
30
0.0
 70
     32
  0
VERTEX
  8
MY3DLAYER
10
48.11285838404845
20
114.87216096287625
30
0.0
 70
     32
  0
VERTEX
  8
MY3DLAYER
10
49.04243382564101
20
113.94140419999898
30
0.0
 70
     32
  0
VERTEX
  8
MY3DLAYER
10
49.881082491118356
20
112.9279511576006
30
0.0
 70
     32
  0
VERTEX
  8
MY3DLAYER
10
50.58546834010289
20
111.89353795597893
30
0.0
 70
     32
  0
VERTEX
  8
MY3DLAYER
10
50.62148307532732
20
111.84064916268075
30
0.0
 70
     32
  0
VERTEX
  8
MY3DLAYER
10
51.25717196741934
20
110.6889902349925
30
0.0
 70
     32
  0
VERTEX
  8
MY3DLAYER
10
51.78259967741965
20
109.48302822281407
30
0.0
 70
     32
  0
VERTEX
  8
MY3DLAYER
10
52.193179282628556
20
108.233291034026
30
0.0
 70
     32
  0
VERTEX
  8
MY3DLAYER
10
63.294456705546025
20
68.2288348028328
30
0.0
 70
     32
  0
VERTEX
  8
MY3DLAYER
10
63.43704212131588
20
67.21549173899267
30
0.0
 70
     32
  0
VERTEX
  8
MY3DLAYER
10
63.31249657271612
20
66.19977368158337
30
0.0
 70
     32
  0
VERTEX
  8
MY3DLAYER
10
62.92930763306211
20
65.25090013766392
30
0.0
 70
     32
  0
VERTEX
  8
MY3DLAYER
10
62.313588995341554
20
64.4335352711648
30
0.0
 70
     32
  0
VERTEX
  8
MY3DLAYER
10
61.5073008671923
20
63.8033811469787
30
0.0
 70
     32
  0
VERTEX
  8
MY3DLAYER
10
60.56539045209344
20
63.40338172728979
30
0.0
 70
     32
  0
VERTEX
  8
MY3DLAYER
10
59.5520473882532
20
63.260796311519684
30
0.0
 70
     32
  0
VERTEX
  8
MY3DLAYER
10
58.536329330844026
20
63.38534186011958
30
0.0
 70
     32
  0
VERTEX
  8
MY3DLAYER
10
57.58745578692446
20
63.76853079977361
30
0.0
 70
     32
  0
VERTEX
  8
MY3DLAYER
10
56.770090920425446
20
64.38424943749403
30
0.0
 70
     32
  0
VERTEX
  8
MY3DLAYER
10
56.139936796239304
20
65.19053756564337
30
0.0
 70
     32
  0
VERTEX
  8
MY3DLAYER
10
55.73993737655046
20
66.13244798074228
30
0.0
 70
     32
  0
VERTEX
  8
MY3DLAYER
10
45.67728063051604
20
102.39414075992033
30
0.0
 70
     32
  0
VERTEX
  8
MY3DLAYER
10
41.12652106065796
20
102.39414075992033
30
0.0
 70
     32
  0
VERTEX
  8
MY3DLAYER
10
57.48471267706065
20
46.03200000000011
30
0.0
 70
     32
  0
VERTEX
  8
MY3DLAYER
10
45.67728063051604
20
46.03200000000011
30
0.0
 70
     32
  0
VERTEX
  8
MY3DLAYER
10
44.10928063051614
20
46.03200000000011
30
0.0
 70
     32
  0
VERTEX
  8
MY3DLAYER
10
44.10928063051614
20
5.039999999999967
30
0.0
 70
     32
  0
VERTEX
  8
MY3DLAYER
10
43.93754679501308
20
3.735552012683293
30
0.0
 70
     32
  0
VERTEX
  8
MY3DLAYER
10
43.43404866558965
20
2.5199999999999854
30
0.0
 70
     32
  0
VERTEX
  8
MY3DLAYER
10
42.63309880769617
20
1.4761818228197838
30
0.0
 70
     32
  0
VERTEX
  8
MY3DLAYER
10
41.58928063051604
20
0.6752319649264215
30
0.0
 70
     32
  0
VERTEX
  8
MY3DLAYER
10
40.37372861783285
20
0.17173383550308682
30
0.0
 70
     32
  0
VERTEX
  8
MY3DLAYER
10
39.069280630516126
20
0.0
30
0.0
 70
     32
  0
VERTEX
  8
MY3DLAYER
10
37.764832643199355
20
0.17173383550308682
30
0.0
 70
     32
  0
VERTEX
  8
MY3DLAYER
10
36.549280630516165
20
0.6752319649264215
30
0.0
 70
     32
  0
VERTEX
  8
MY3DLAYER
10
35.50546245333587
20
1.4761818228197838
30
0.0
 70
     32
  0
VERTEX
  8
MY3DLAYER
10
34.70451259544248
20
2.5199999999999854
30
0.0
 70
     32
  0
VERTEX
  8
MY3DLAYER
10
34.20101446601919
20
3.735552012683293
30
0.0
 70
     32
  0
VERTEX
  8
MY3DLAYER
10
34.02928063051604
20
5.039999999999967
30
0.0
 70
     32
  0
SEQEND
 0
ENDSEC
 0
EOF
