 0
SECTION
 2
ENTITIES
  0
POLYLINE
 8
Layer0
 66
     1
70
    8
 10
0.0
 20
 0.0
 30
0.0
  0
VERTEX
  8
MY3DLAYER
10
25.73092498590825
20
122.35859197462342
30
0.0
 70
     32
  0
VERTEX
  8
MY3DLAYER
10
23.947415095413476
20
122.47548938881165
30
0.0
 70
     32
  0
VERTEX
  8
MY3DLAYER
10
22.194421553627404
20
122.82418148420952
30
0.0
 70
     32
  0
VERTEX
  8
MY3DLAYER
10
20.501938566071665
20
123.39870204238916
30
0.0
 70
     32
  0
VERTEX
  8
MY3DLAYER
10
18.898924985908252
20
124.18922085731288
30
0.0
 70
     32
  0
VERTEX
  8
MY3DLAYER
10
17.412808819933083
20
125.18221193288389
30
0.0
 70
     32
  0
VERTEX
  8
MY3DLAYER
10
16.069017927775235
20
126.36068491649043
30
0.0
 70
     32
  0
VERTEX
  8
MY3DLAYER
10
14.890544944168786
20
127.70447580864837
30
0.0
 70
     32
  0
VERTEX
  8
MY3DLAYER
10
13.897553868597665
20
129.19059197462352
30
0.0
 70
     32
  0
VERTEX
  8
MY3DLAYER
10
13.107035053674005
20
130.79360555478686
30
0.0
 70
     32
  0
VERTEX
  8
MY3DLAYER
10
12.532514495494398
20
132.48608854234254
30
0.0
 70
     32
  0
VERTEX
  8
MY3DLAYER
10
12.183822400096492
20
134.23908208412857
30
0.0
 70
     32
  0
VERTEX
  8
MY3DLAYER
10
12.06692498590823
20
136.02259197462348
30
0.0
 70
     32
  0
VERTEX
  8
MY3DLAYER
10
12.183822400096492
20
137.80610186511825
30
0.0
 70
     32
  0
VERTEX
  8
MY3DLAYER
10
12.532514495494398
20
139.55909540690428
30
0.0
 70
     32
  0
VERTEX
  8
MY3DLAYER
10
13.107035053674005
20
141.25157839445995
30
0.0
 70
     32
  0
VERTEX
  8
MY3DLAYER
10
13.897553868597665
20
142.85459197462342
30
0.0
 70
     32
  0
VERTEX
  8
MY3DLAYER
10
14.890544944168786
20
144.3407081405985
30
0.0
 70
     32
  0
VERTEX
  8
MY3DLAYER
10
16.069017927775235
20
145.68449903275646
30
0.0
 70
     32
  0
VERTEX
  8
MY3DLAYER
10
17.412808819933083
20
146.86297201636287
30
0.0
 70
     32
  0
VERTEX
  8
MY3DLAYER
10
18.898924985908224
20
147.85596309193406
30
0.0
 70
     32
  0
VERTEX
  8
MY3DLAYER
10
20.501938566071654
20
148.64648190685776
30
0.0
 70
     32
  0
VERTEX
  8
MY3DLAYER
10
22.194421553627393
20
149.22100246503737
30
0.0
 70
     32
  0
VERTEX
  8
MY3DLAYER
10
23.94741509541346
20
149.56969456043527
30
0.0
 70
     32
  0
VERTEX
  8
MY3DLAYER
10
25.73092498590825
20
149.68659197462352
30
0.0
 70
     32
  0
VERTEX
  8
MY3DLAYER
10
27.514434876403026
20
149.56969456043527
30
0.0
 70
     32
  0
VERTEX
  8
MY3DLAYER
10
29.267428418189063
20
149.22100246503737
30
0.0
 70
     32
  0
VERTEX
  8
MY3DLAYER
10
30.959911405744837
20
148.64648190685776
30
0.0
 70
     32
  0
VERTEX
  8
MY3DLAYER
10
32.56292498590822
20
147.85596309193406
30
0.0
 70
     32
  0
VERTEX
  8
MY3DLAYER
10
34.04904115188339
20
146.862972016363
30
0.0
 70
     32
  0
VERTEX
  8
MY3DLAYER
10
35.392832044041235
20
145.68449903275646
30
0.0
 70
     32
  0
VERTEX
  8
MY3DLAYER
10
36.571305027647675
20
144.3407081405985
30
0.0
 70
     32
  0
VERTEX
  8
MY3DLAYER
10
37.564296103218815
20
142.85459197462342
30
0.0
 70
     32
  0
VERTEX
  8
MY3DLAYER
10
38.35481491814247
20
141.25157839445995
30
0.0
 70
     32
  0
VERTEX
  8
MY3DLAYER
10
38.929335476322116
20
139.55909540690428
30
0.0
 70
     32
  0
VERTEX
  8
MY3DLAYER
10
39.27802757172004
20
137.80610186511836
30
0.0
 70
     32
  0
VERTEX
  8
MY3DLAYER
10
39.39492498590827
20
136.02259197462348
30
0.0
 70
     32
  0
VERTEX
  8
MY3DLAYER
10
39.27802757172004
20
134.23908208412857
30
0.0
 70
     32
  0
VERTEX
  8
MY3DLAYER
10
38.929335476322116
20
132.48608854234254
30
0.0
 70
     32
  0
VERTEX
  8
MY3DLAYER
10
38.35481491814247
20
130.79360555478686
30
0.0
 70
     32
  0
VERTEX
  8
MY3DLAYER
10
37.564296103218815
20
129.19059197462352
30
0.0
 70
     32
  0
VERTEX
  8
MY3DLAYER
10
36.571305027647675
20
127.70447580864837
30
0.0
 70
     32
  0
VERTEX
  8
MY3DLAYER
10
35.39283204404124
20
126.36068491649043
30
0.0
 70
     32
  0
VERTEX
  8
MY3DLAYER
10
34.04904115188339
20
125.18221193288389
30
0.0
 70
     32
  0
VERTEX
  8
MY3DLAYER
10
32.56292498590823
20
124.18922085731288
30
0.0
 70
     32
  0
VERTEX
  8
MY3DLAYER
10
30.959911405744837
20
123.39870204238916
30
0.0
 70
     32
  0
VERTEX
  8
MY3DLAYER
10
29.267428418189088
20
122.82418148420952
30
0.0
 70
     32
  0
VERTEX
  8
MY3DLAYER
10
27.514434876403026
20
122.47548938881165
30
0.0
 70
     32
  0
VERTEX
  8
MY3DLAYER
10
25.73092498590825
20
122.35859197462342
30
0.0
 70
     32
  0
SEQEND
  0
POLYLINE
 8
Layer0
 66
     1
70
    8
 10
0.0
 20
 0.0
 30
0.0
  0
VERTEX
  8
MY3DLAYER
10
28.418924985908248
20
5.93600000000003
30
0.0
 70
     32
  0
VERTEX
  8
MY3DLAYER
10
28.418924985908248
20
62.60800000000007
30
0.0
 70
     32
  0
VERTEX
  8
MY3DLAYER
10
23.04292498590826
20
62.60800000000007
30
0.0
 70
     32
  0
VERTEX
  8
MY3DLAYER
10
23.04292498590826
20
5.936000000000007
30
0.0
 70
     32
  0
VERTEX
  8
MY3DLAYER
10
22.840660690760142
20
4.399650148271439
30
0.0
 70
     32
  0
VERTEX
  8
MY3DLAYER
10
22.247651782772678
20
2.968000000000013
30
0.0
 70
     32
  0
VERTEX
  8
MY3DLAYER
10
21.30431083903158
20
1.7386141468766496
30
0.0
 70
     32
  0
VERTEX
  8
MY3DLAYER
10
20.07492498590824
20
0.7952732031355715
30
0.0
 70
     32
  0
VERTEX
  8
MY3DLAYER
10
18.643274837636806
20
0.20226429514809668
30
0.0
 70
     32
  0
VERTEX
  8
MY3DLAYER
10
17.10692498590825
20
0.0
30
0.0
 70
     32
  0
VERTEX
  8
MY3DLAYER
10
15.570575134179679
20
0.20226429514809668
30
0.0
 70
     32
  0
VERTEX
  8
MY3DLAYER
10
14.138924985908245
20
0.7952732031355715
30
0.0
 70
     32
  0
VERTEX
  8
MY3DLAYER
10
12.909539132784888
20
1.7386141468766496
30
0.0
 70
     32
  0
VERTEX
  8
MY3DLAYER
10
11.9661981890438
20
2.968000000000013
30
0.0
 70
     32
  0
VERTEX
  8
MY3DLAYER
10
11.373189281056321
20
4.399650148271439
30
0.0
 70
     32
  0
VERTEX
  8
MY3DLAYER
10
11.170924985908233
20
5.936000000000007
30
0.0
 70
     32
  0
VERTEX
  8
MY3DLAYER
10
11.170924985908233
20
102.03200000000007
30
0.0
 70
     32
  0
VERTEX
  8
MY3DLAYER
10
8.258924985908214
20
102.03200000000007
30
0.0
 70
     32
  0
VERTEX
  8
MY3DLAYER
10
8.258924985908214
20
66.41600000000004
30
0.0
 70
     32
  0
VERTEX
  8
MY3DLAYER
10
8.118216963590521
20
65.34721646078691
30
0.0
 70
     32
  0
VERTEX
  8
MY3DLAYER
10
7.705681915827383
20
64.35126875352297
30
0.0
 70
     32
  0
VERTEX
  8
MY3DLAYER
10
7.049433424377457
20
63.49602906857671
30
0.0
 70
     32
  0
VERTEX
  8
MY3DLAYER
10
6.194193739431164
20
62.83978057712676
30
0.0
 70
     32
  0
VERTEX
  8
MY3DLAYER
10
5.198246032167163
20
62.42724552936363
30
0.0
 70
     32
  0
VERTEX
  8
MY3DLAYER
10
4.129462492954101
20
62.286537507045914
30
0.0
 70
     32
  0
VERTEX
  8
MY3DLAYER
10
3.0606789537410495
20
62.42724552936363
30
0.0
 70
     32
  0
VERTEX
  8
MY3DLAYER
10
2.0647312464770535
20
62.83978057712676
30
0.0
 70
     32
  0
VERTEX
  8
MY3DLAYER
10
1.2094915615307495
20
63.49602906857671
30
0.0
 70
     32
  0
VERTEX
  8
MY3DLAYER
10
0.5532430700808304
20
64.35126875352297
30
0.0
 70
     32
  0
VERTEX
  8
MY3DLAYER
10
0.14070802231769555
20
65.34721646078691
30
0.0
 70
     32
  0
VERTEX
  8
MY3DLAYER
10
0.0
20
66.41600000000004
30
0.0
 70
     32
  0
VERTEX
  8
MY3DLAYER
10
0.0
20
113.45600000000015
30
0.0
 70
     32
  0
VERTEX
  8
MY3DLAYER
10
0.07260222970183773
20
114.50213026017154
30
0.0
 70
     32
  0
VERTEX
  8
MY3DLAYER
10
0.28859581320245126
20
115.52829124992459
30
0.0
 70
     32
  0
VERTEX
  8
MY3DLAYER
10
0.6438638460113336
20
116.51492402348744
30
0.0
 70
     32
  0
VERTEX
  8
MY3DLAYER
10
1.131634809568074
20
117.44322305511194
30
0.0
 70
     32
  0
VERTEX
  8
MY3DLAYER
10
1.7426116384800114
20
118.29549467820931
30
0.0
 70
     32
  0
VERTEX
  8
MY3DLAYER
10
2.465148925463395
20
119.05549433210601
30
0.0
 70
     32
  0
VERTEX
  8
MY3DLAYER
10
3.285474886407197
20
119.70873618839354
30
0.0
 70
     32
  0
VERTEX
  8
MY3DLAYER
10
4.187953854836761
20
120.24276925529712
30
0.0
 70
     32
  0
VERTEX
  8
MY3DLAYER
10
5.155384302551588
20
120.64741469742972
30
0.0
 70
     32
  0
VERTEX
  8
MY3DLAYER
10
6.169326706071876
20
120.9149598475402
30
0.0
 70
     32
  0
VERTEX
  8
MY3DLAYER
10
7.210455009657872
20
121.04030521233861
30
0.0
 70
     32
  0
VERTEX
  8
MY3DLAYER
10
8.258924985908214
20
121.02106167041225
30
0.0
 70
     32
  0
VERTEX
  8
MY3DLAYER
10
43.20292498590829
20
121.02106167041225
30
0.0
 70
     32
  0
VERTEX
  8
MY3DLAYER
10
44.25139496215864
20
121.04030521233861
30
0.0
 70
     32
  0
VERTEX
  8
MY3DLAYER
10
45.29252326574463
20
120.9149598475402
30
0.0
 70
     32
  0
VERTEX
  8
MY3DLAYER
10
46.3064656692649
20
120.64741469742972
30
0.0
 70
     32
  0
VERTEX
  8
MY3DLAYER
10
47.27389611697976
20
120.24276925529712
30
0.0
 70
     32
  0
VERTEX
  8
MY3DLAYER
10
48.17637508540929
20
119.70873618839354
30
0.0
 70
     32
  0
VERTEX
  8
MY3DLAYER
10
48.99670104635312
20
119.05549433210601
30
0.0
 70
     32
  0
VERTEX
  8
MY3DLAYER
10
49.719238333336506
20
118.29549467820931
30
0.0
 70
     32
  0
VERTEX
  8
MY3DLAYER
10
50.33021516224842
20
117.44322305511194
30
0.0
 70
     32
  0
VERTEX
  8
MY3DLAYER
10
50.81798612580511
20
116.51492402348744
30
0.0
 70
     32
  0
VERTEX
  8
MY3DLAYER
10
51.173254158614036
20
115.52829124992459
30
0.0
 70
     32
  0
VERTEX
  8
MY3DLAYER
10
51.38924774211464
20
114.50213026017154
30
0.0
 70
     32
  0
VERTEX
  8
MY3DLAYER
10
51.46184997181651
20
113.45600000000015
30
0.0
 70
     32
  0
VERTEX
  8
MY3DLAYER
10
51.46184997181651
20
66.41600000000007
30
0.0
 70
     32
  0
VERTEX
  8
MY3DLAYER
10
51.32114194949878
20
65.347216460787
30
0.0
 70
     32
  0
VERTEX
  8
MY3DLAYER
10
50.90860690173565
20
64.35126875352304
30
0.0
 70
     32
  0
VERTEX
  8
MY3DLAYER
10
50.252358410285744
20
63.49602906857671
30
0.0
 70
     32
  0
VERTEX
  8
MY3DLAYER
10
49.39711872533945
20
62.83978057712676
30
0.0
 70
     32
  0
VERTEX
  8
MY3DLAYER
10
48.40117101807544
20
62.42724552936363
30
0.0
 70
     32
  0
VERTEX
  8
MY3DLAYER
10
47.332387478862366
20
62.286537507045956
30
0.0
 70
     32
  0
VERTEX
  8
MY3DLAYER
10
46.263603939649315
20
62.42724552936363
30
0.0
 70
     32
  0
VERTEX
  8
MY3DLAYER
10
45.26765623238535
20
62.83978057712676
30
0.0
 70
     32
  0
VERTEX
  8
MY3DLAYER
10
44.412416547439044
20
63.49602906857671
30
0.0
 70
     32
  0
VERTEX
  8
MY3DLAYER
10
43.756168055989114
20
64.35126875352304
30
0.0
 70
     32
  0
VERTEX
  8
MY3DLAYER
10
43.34363300822597
20
65.347216460787
30
0.0
 70
     32
  0
VERTEX
  8
MY3DLAYER
10
43.20292498590829
20
66.41600000000007
30
0.0
 70
     32
  0
VERTEX
  8
MY3DLAYER
10
43.20292498590829
20
102.03200000000007
30
0.0
 70
     32
  0
VERTEX
  8
MY3DLAYER
10
40.2909249859083
20
102.03200000000007
30
0.0
 70
     32
  0
VERTEX
  8
MY3DLAYER
10
40.2909249859083
20
5.93600000000003
30
0.0
 70
     32
  0
VERTEX
  8
MY3DLAYER
10
40.088660690760186
20
4.399650148271463
30
0.0
 70
     32
  0
VERTEX
  8
MY3DLAYER
10
39.49565178277269
20
2.968000000000036
30
0.0
 70
     32
  0
VERTEX
  8
MY3DLAYER
10
38.5523108390316
20
1.738614146876677
30
0.0
 70
     32
  0
VERTEX
  8
MY3DLAYER
10
37.32292498590826
20
0.7952732031355969
30
0.0
 70
     32
  0
VERTEX
  8
MY3DLAYER
10
35.89127483763682
20
0.20226429514812194
30
0.0
 70
     32
  0
VERTEX
  8
MY3DLAYER
10
34.35492498590821
20
2.5266899683629163e-14
30
0.0
 70
     32
  0
VERTEX
  8
MY3DLAYER
10
32.81857513417969
20
0.20226429514812194
30
0.0
 70
     32
  0
VERTEX
  8
MY3DLAYER
10
31.386924985908216
20
0.7952732031355969
30
0.0
 70
     32
  0
VERTEX
  8
MY3DLAYER
10
30.157539132784866
20
1.738614146876677
30
0.0
 70
     32
  0
VERTEX
  8
MY3DLAYER
10
29.214198189043834
20
2.968000000000036
30
0.0
 70
     32
  0
VERTEX
  8
MY3DLAYER
10
28.62118928105634
20
4.399650148271463
30
0.0
 70
     32
  0
VERTEX
  8
MY3DLAYER
10
28.418924985908248
20
5.93600000000003
30
0.0
 70
     32
  0
SEQEND
 0
ENDSEC
 0
EOF
