<?xml version="1.0"?>
<svg 
  xmlns="http://www.w3.org/2000/svg" 
  xmlns:xlink="http://www.w3.org/1999/xlink" version="1.1" preserveAspectRatio="xMinYMin meet" viewBox="0 -99.21683105468753 113.38514881515493 99.21683105468753" width="100%" height="100%">
  <path fill="none" stroke="#000000" stroke-width="1%" d="M44.197120006561306,-43.43000000000001L44.88305189132714,-43.71895874023458"/>
  <path fill="none" stroke="#000000" stroke-width="1%" d="M44.88305189132714,-43.71895874023458L46.691807628631686,-44.214319580078346"/>
  <path fill="none" stroke="#000000" stroke-width="1%" d="M46.691807628631686,-44.214319580078346L49.24979322433461,-44.82320104980456"/>
  <path fill="none" stroke="#000000" stroke-width="1%" d="M49.24979322433461,-44.82320104980456L52.18342518234251,-45.45272167968751"/>
  <path fill="none" stroke="#000000" stroke-width="1%" d="M52.18342518234251,-45.45272167968751L55.11912000656128,-46.01"/>
  <path fill="none" stroke="#000000" stroke-width="1%" d="M55.11912000656128,-46.01L56.070967418670854,-46.223619506835846"/>
  <path fill="none" stroke="#000000" stroke-width="1%" d="M56.070967418670854,-46.223619506835846L57.08886329269417,-46.5425134277346"/>
  <path fill="none" stroke="#000000" stroke-width="1%" d="M57.08886329269417,-46.5425134277346L58.12533546066296,-46.94808972167958"/>
  <path fill="none" stroke="#000000" stroke-width="1%" d="M58.12533546066296,-46.94808972167958L59.13291175460835,-47.421777343750016"/>
  <path fill="none" stroke="#000000" stroke-width="1%" d="M59.13291175460835,-47.421777343750016L60.06412000656128,-47.94500000000003"/>
  <path fill="none" stroke="#000000" stroke-width="1%" d="M60.06412000656128,-47.94500000000003L61.711531261444186,-48.897188598632944"/>
  <path fill="none" stroke="#000000" stroke-width="1%" d="M61.711531261444186,-48.897188598632944L62.706725109100454,-49.31894238281251"/>
  <path fill="none" stroke="#000000" stroke-width="1%" d="M62.706725109100454,-49.31894238281251L63.08891175460836,-49.195784545898356"/>
  <path fill="none" stroke="#000000" stroke-width="1%" d="M63.08891175460836,-49.195784545898356L62.89730665206922,-48.51328552246086"/>
  <path fill="none" stroke="#000000" stroke-width="1%" d="M62.89730665206922,-48.51328552246086L62.17112000656129,-47.25700000000002"/>
  <path fill="none" stroke="#000000" stroke-width="1%" d="M35.597120006561305,-43.473L35.611567943573,-43.31613293457041"/>
  <path fill="none" stroke="#000000" stroke-width="1%" d="M35.611567943573,-43.31613293457041L35.650783397674594,-43.11592993164084"/>
  <path fill="none" stroke="#000000" stroke-width="1%" d="M35.650783397674594,-43.11592993164084L35.70857514572145,-42.890951538085815"/>
  <path fill="none" stroke="#000000" stroke-width="1%" d="M35.70857514572145,-42.890951538085815L35.77875196456912,-42.659784545898326"/>
  <path fill="none" stroke="#000000" stroke-width="1%" d="M35.77875196456912,-42.659784545898326L35.855120006561286,-42.44100000000001"/>
  <path fill="none" stroke="#000000" stroke-width="1%" d="M35.855120006561286,-42.44100000000001L35.84548542404176,-41.9483896484375"/>
  <path fill="none" stroke="#000000" stroke-width="1%" d="M35.84548542404176,-41.9483896484375L35.44782465744021,-41.61677734375"/>
  <path fill="none" stroke="#000000" stroke-width="1%" d="M35.44782465744021,-41.61677734375L34.728175670623784,-41.462666015625004"/>
  <path fill="none" stroke="#000000" stroke-width="1%" d="M34.728175670623784,-41.462666015625004L33.75259217453005,-41.50256909179709"/>
  <path fill="none" stroke="#000000" stroke-width="1%" d="M33.75259217453005,-41.50256909179709L32.58712000656128,-41.753"/>
  <path fill="none" stroke="#000000" stroke-width="1%" d="M32.58712000656128,-41.753L31.58573493576049,-42.108353637695416"/>
  <path fill="none" stroke="#000000" stroke-width="1%" d="M31.58573493576049,-42.108353637695416L31.05700867843629,-42.4182927246096"/>
  <path fill="none" stroke="#000000" stroke-width="1%" d="M31.05700867843629,-42.4182927246096L30.99887311935425,-42.70966076660166"/>
  <path fill="none" stroke="#000000" stroke-width="1%" d="M30.99887311935425,-42.70966076660166L31.409265392303496,-43.009290771484594"/>
  <path fill="none" stroke="#000000" stroke-width="1%" d="M31.409265392303496,-43.009290771484594L32.28612000656128,-43.34399999999999"/>
  <path fill="none" stroke="#000000" stroke-width="1%" d="M32.28612000656128,-43.34399999999999L33.307453990936274,-43.61747937011706"/>
  <path fill="none" stroke="#000000" stroke-width="1%" d="M33.307453990936274,-43.61747937011706L34.213209728241,-43.767118530273315"/>
  <path fill="none" stroke="#000000" stroke-width="1%" d="M34.213209728241,-43.767118530273315L34.93939112472537,-43.79291748046875"/>
  <path fill="none" stroke="#000000" stroke-width="1%" d="M34.93939112472537,-43.79291748046875L35.42202308273316,-43.69488146972667"/>
  <path fill="none" stroke="#000000" stroke-width="1%" d="M35.42202308273316,-43.69488146972667L35.597120006561305,-43.473"/>
  <path fill="none" stroke="#000000" stroke-width="1%" d="M75.15712000656127,-27.348000000000003L75.20114881515504,-27.045968566894548"/>
  <path fill="none" stroke="#000000" stroke-width="1%" d="M75.20114881515504,-27.045968566894548L75.32361902999881,-26.5829443359375"/>
  <path fill="none" stroke="#000000" stroke-width="1%" d="M75.32361902999881,-26.5829443359375L75.51006434249878,-26.004336608886703"/>
  <path fill="none" stroke="#000000" stroke-width="1%" d="M75.51006434249878,-26.004336608886703L75.7460499382021,-25.355552062988302"/>
  <path fill="none" stroke="#000000" stroke-width="1%" d="M75.7460499382021,-25.355552062988302L76.01712000656129,-24.682"/>
  <path fill="none" stroke="#000000" stroke-width="1%" d="M76.01712000656129,-24.682L76.2830302848817,-24.032871643066418"/>
  <path fill="none" stroke="#000000" stroke-width="1%" d="M76.2830302848817,-24.032871643066418L76.50354175949084,-23.451854614257844"/>
  <path fill="none" stroke="#000000" stroke-width="1%" d="M76.50354175949084,-23.451854614257844L76.66418287277212,-22.976104125976594"/>
  <path fill="none" stroke="#000000" stroke-width="1%" d="M76.66418287277212,-22.976104125976594L76.75052930831922,-22.642770141601595"/>
  <path fill="none" stroke="#000000" stroke-width="1%" d="M76.75052930831922,-22.642770141601595L76.74812000656127,-22.489000000000004"/>
  <path fill="none" stroke="#000000" stroke-width="1%" d="M76.74812000656127,-22.489000000000004L76.57026734542833,-22.496569091796882"/>
  <path fill="none" stroke="#000000" stroke-width="1%" d="M76.57026734542833,-22.496569091796882L76.17157777023338,-22.611464965820343"/>
  <path fill="none" stroke="#000000" stroke-width="1%" d="M76.17157777023338,-22.611464965820343L75.59950245285044,-22.817176818847678"/>
  <path fill="none" stroke="#000000" stroke-width="1%" d="M75.59950245285044,-22.817176818847678L74.90152930831921,-23.097191223144556"/>
  <path fill="none" stroke="#000000" stroke-width="1%" d="M74.90152930831921,-23.097191223144556L74.12512000656127,-23.434999999999995"/>
  <path fill="none" stroke="#000000" stroke-width="1%" d="M74.12512000656127,-23.434999999999995L71.63112000656125,-24.553000000000004"/>
  <path fill="none" stroke="#000000" stroke-width="1%" d="M71.63112000656125,-24.553000000000004L72.96412000656129,-25.886000000000003"/>
  <path fill="none" stroke="#000000" stroke-width="1%" d="M72.96412000656129,-25.886000000000003L73.38344874191293,-26.34145776367188"/>
  <path fill="none" stroke="#000000" stroke-width="1%" d="M73.38344874191293,-26.34145776367188L73.74913245773337,-26.763888671874994"/>
  <path fill="none" stroke="#000000" stroke-width="1%" d="M73.74913245773337,-26.763888671874994L74.03843238449086,-27.130590698242216"/>
  <path fill="none" stroke="#000000" stroke-width="1%" d="M74.03843238449086,-27.130590698242216L74.22866749191293,-27.418864440917957"/>
  <path fill="none" stroke="#000000" stroke-width="1%" d="M74.22866749191293,-27.418864440917957L74.29712000656129,-27.606000000000005"/>
  <path fill="none" stroke="#000000" stroke-width="1%" d="M74.29712000656129,-27.606000000000005L74.32119727706915,-27.70782318115233"/>
  <path fill="none" stroke="#000000" stroke-width="1%" d="M74.32119727706915,-27.70782318115233L74.38656336593627,-27.801394897460955"/>
  <path fill="none" stroke="#000000" stroke-width="1%" d="M74.38656336593627,-27.801394897460955L74.48288294601461,-27.8784479370117"/>
  <path fill="none" stroke="#000000" stroke-width="1%" d="M74.48288294601461,-27.8784479370117L74.59984168624877,-27.930736083984375"/>
  <path fill="none" stroke="#000000" stroke-width="1%" d="M74.59984168624877,-27.930736083984375L74.72712000656128,-27.95"/>
  <path fill="none" stroke="#000000" stroke-width="1%" d="M74.72712000656128,-27.95L74.87090650558461,-27.920413879394545"/>
  <path fill="none" stroke="#000000" stroke-width="1%" d="M74.87090650558461,-27.920413879394545L74.98993861007713,-27.837169616699214"/>
  <path fill="none" stroke="#000000" stroke-width="1%" d="M74.98993861007713,-27.837169616699214L75.08006434249879,-27.70851342773437"/>
  <path fill="none" stroke="#000000" stroke-width="1%" d="M75.08006434249879,-27.70851342773437L75.13716846847545,-27.54270465087892"/>
  <path fill="none" stroke="#000000" stroke-width="1%" d="M75.13716846847545,-27.54270465087892L75.15712000656127,-27.348000000000003"/>
  <path fill="none" stroke="#000000" stroke-width="1%" d="M44.31442518234256,-43.341937133789166L44.197120006561306,-43.43000000000001"/>
  <path fill="none" stroke="#000000" stroke-width="1%" d="M44.640195323944205,-43.28277014160166L44.31442518234256,-43.341937133789166"/>
  <path fill="none" stroke="#000000" stroke-width="1%" d="M45.135209728240845,-43.250430908203334L44.640195323944205,-43.28277014160166"/>
  <path fill="none" stroke="#000000" stroke-width="1%" d="M47.40113965988171,-43.31407531738292L46.47612000656128,-43.257999999999996"/>
  <path fill="none" stroke="#000000" stroke-width="1%" d="M46.47612000656128,-43.257999999999996L45.760252941131704,-43.242861816406254"/>
  <path fill="none" stroke="#000000" stroke-width="1%" d="M45.760252941131704,-43.242861816406254L45.135209728240845,-43.250430908203334"/>
  <path fill="none" stroke="#000000" stroke-width="1%" d="M48.654328258514624,-43.37633923339831L47.40113965988171,-43.31407531738292"/>
  <path fill="none" stroke="#000000" stroke-width="1%" d="M50.12011280441293,-43.440666015625006L48.654328258514624,-43.37633923339831"/>
  <path fill="none" stroke="#000000" stroke-width="1%" d="M59.92066944503794,-44.77263195800792L58.35684888839711,-44.12384741210959"/>
  <path fill="none" stroke="#000000" stroke-width="1%" d="M62.17112000656129,-47.25700000000002L61.11710035324085,-45.78674328613291"/>
  <path fill="none" stroke="#000000" stroke-width="1%" d="M61.11710035324085,-45.78674328613291L59.92066944503794,-44.77263195800792"/>
  <path fill="none" stroke="#000000" stroke-width="1%" d="M58.35684888839711,-44.12384741210959L56.20065504074087,-43.74957629394541"/>
  <path fill="none" stroke="#000000" stroke-width="1%" d="M56.20065504074087,-43.74957629394541L53.227120006561265,-43.559000000000005"/>
  <path fill="none" stroke="#000000" stroke-width="1%" d="M53.227120006561265,-43.559000000000005L51.682904552459604,-43.50292993164082"/>
  <path fill="none" stroke="#000000" stroke-width="1%" d="M51.682904552459604,-43.50292993164082L50.12011280441293,-43.440666015625006"/>
  <path fill="none" stroke="#000000" stroke-width="1%" d="M82.46712000656127,-90.85900000000004L83.9877725944519,-92.20163195800795L85.5084251823425,-93.54426391601588L88.3763446159362,-95.6123896484375L91.20712195968622,-97.13768237304708L94.13697986984243,-98.1944577636721L97.30212000656121,-98.85700000000001L100.27325623702995,-99.1638579101563L102.91826014327994,-99.21683105468753L105.0452169303896,-99.03037524414083L106.46214881515492,-98.6189567871096L106.9771200065612,-97.99700000000006L107.0063570671083,-97.8741938476563L107.08720252609245,-97.76789062500002L107.20932630538954,-97.68430517578126L107.36238782882707,-97.6296103515625L107.53612000656126,-97.61000000000001L107.82232825851455,-97.53191552734377L108.28810560226451,-97.31554028320333L108.88597986984246,-96.98770727539085L109.56846839523334,-96.57523901367212L110.28812000656123,-96.10500000000006L111.02393861007707,-95.63475048828127L111.70609119796741,-95.22229272460959L112.29123133468624,-94.89447021484376L112.73603358078002,-94.67808447265628L112.99712000656123,-94.60000000000002L113.31910560226451,-94.4465710449221L113.38514881515493,-94.07437329101586L113.23860657882705,-93.61547216796879L112.92281483077998,-93.20197509765622L112.48112000656123,-92.96600000000002L112.21486854171748,-92.97426196289085L111.94035511398333,-93.09397119140628L111.66997791671743,-93.31275048828122L111.41609315109251,-93.61822265625L111.1911200065612,-93.998L110.84609119796748,-94.6110124511721L110.36070350265494,-95.06302685546878L109.55334070968622,-95.44074658203125L108.24234461593622,-95.83083300781249L106.24612000656121,-96.32L105.22031385421748,-96.52055468750002L104.38645399093625,-96.60345776367207L103.6269098014833,-96.56459399414086L102.82399818038958,-96.39980615234376L101.86012000656119,-96.10500000000006L100.62275721359251,-95.58349902343754L99.6908560905458,-94.86384741210959L98.97774476242077,-93.82015258789086L98.39671986007707,-92.32649047851588L97.86112000656122,-90.25699999999998L97.66917371749868,-89.46133203125001L97.41942518234247,-88.65945971679709L97.13666028976458,-87.9071381835938L96.84563343429579,-87.26007006835965L96.57112000656122,-86.77400000000004L96.32550770187372,-86.39697314453124L96.11291175460833,-86.00756909179714L95.94573035812373,-85.63467846679715L95.83633021163955,-85.30718139648462L95.79712000656124,-85.05400000000004L95.93403553390495,-84.80219384765624L96.31449525070202,-84.43273608398458L96.89310560226453,-83.98277929687502L97.62445203781122,-83.48948657226585L98.46312000656121,-82.98999999999997L99.73213441085834,-82.21600000000001L100.64820447921747,-81.54519580078126L101.2092830924987,-80.97759790039083L101.41326014327997,-80.51319580078125L101.25812000656121,-80.152L100.66128504562376,-80.12207531738292L99.38332630538956,-80.25313818359376L97.80607874679579,-80.48946496582046L96.3113983268737,-80.77532678222668L95.28112000656121,-81.05500000000002L94.6887467155458,-81.13102685546876L94.4947323112487,-80.79631237792957L94.67430140304582,-80.13549182128915L95.2026890983583,-79.23317419433583L96.05512000656122,-78.17400000000004L96.75413245773333,-77.37729797363296L97.17863148117081,-76.75396594238293L97.3740211296083,-76.16779699707043L97.38570545577998,-75.4825369873046L97.2591200065612,-74.56200000000001L97.15282728195206,-73.59433203125002L97.21371595382706,-72.8784649658204L97.54704993820205,-72.21214343261708L98.25809315109241,-71.39307006835959L99.45212000656123,-70.21900000000001L100.62000672531121,-69.06729077148461L101.26156336593623,-68.38410412597669L101.41807874679583,-68.07037524414086L101.13083118820204,-68.02702880859378L100.4411200065612,-68.15500000000003L99.09642518234246,-68.53924951171875L97.99115931320205,-69.03082580566418L97.10673035812374,-69.64417944335959L96.4245777702333,-70.39374523925792L95.9261200065612,-71.29400000000001L95.41081287765495,-72.3707216796875L94.78610560226456,-73.33391748046876L94.11806238937375,-74.1113660888671L93.47270545577997,-74.6307937011721L92.91612000656119,-74.82000000000001L92.56868714523333,-74.80039489746086L92.4173158073424,-74.66313818359377L92.48267664718621,-74.29058874511708L92.7853983268737,-73.56508447265625L93.34612000656121,-72.36900000000003L94.24706238937372,-70.53720104980457L95.10464783859247,-69.04595874023458L95.93747889327996,-67.86432482910169L96.76409510421745,-66.96131433105462L97.6031200065612,-66.30600000000003L98.22954896163954,-65.8825350341796L98.56907679367082,-65.6014918212892L98.63409119796746,-65.39886901855459L98.43696937179581,-65.21070202636707L97.9901200065612,-64.973L97.62410560226454,-64.81854748535167L97.16727259445204,-64.71775048828124L96.65264783859247,-64.67268762207041L96.11325819015497,-64.68541650390627L95.5821200065612,-64.75800000000002L94.58486854171747,-64.82542370605458L94.11599427413955,-64.58531237792957L94.16725623702996,-64.0706876220704L94.73037147140496,-63.31457629394544L95.79712000656124,-62.35000000000003L96.7788973503112,-61.497915527343764L97.25292615890491,-60.940978393554595L97.22747889327997,-60.73698559570336L96.71078602218617,-60.94372888183585L95.71112000656123,-61.61900000000001L94.14729944992081,-62.537138183593726L92.00349329757704,-63.51512573242211L89.77299427413955,-64.36515258789085L87.94909510421746,-64.89938244628917L87.02512000656121,-64.93000000000002L86.96182728195205,-64.70812377929707L87.02442713546748,-64.3211237792971L87.20468909835832,-63.79996398925793L87.4943407096862,-63.175597900390855L87.88512000656121,-62.47900000000001L88.38977161788954,-61.55433203125002L88.73342518234244,-60.72666601562502L88.94085609054578,-59.8969423828125L89.03682923507704,-58.966070068359606L89.04612000656122,-57.83500000000003L89.01516126632703,-56.49821545410168L88.97388294601456,-54.33377014160169L88.92228504562368,-51.556307128906255L88.86035706710828,-48.380506225585854L88.78812000656116,-45.02100000000001L88.6161200065612,-34.787000000000006L90.42212000656123,-32.766L92.27112000656122,-30.745000000000015L98.85012000656121,-30.659L102.98534266281122,-30.598457763671888L105.50238587570206,-30.442968566894542L106.81613245773333,-30.076954162597662L107.34141273117079,-29.384825805664075L107.4931200065612,-28.251L107.62212000656123,-26.44500000000001L110.20212000656124,-26.44500000000001L111.58638196945205,-26.387208251953123L112.38032825851457,-26.17874328613284L112.65414881515498,-25.689576293945336L112.4780125846862,-24.789673217773462L111.92212000656116,-23.349000000000007L111.51070154953001,-22.575687622070344L111.05593665695204,-22.11610412597659L110.5660767936708,-21.974377868652343L110.04937342452997,-22.154631958007837L109.51412000656117,-22.661000000000005L109.23100867843625,-22.920375244140637L108.81786854171743,-23.21896856689455L108.30978406906122,-23.53407269287109L107.74183973312367,-23.842980346679724L107.14912000656119,-24.123L105.83950965499872,-24.55953765869141L104.59801063156122,-24.601847412109375L103.27603358077995,-24.206593322753925L101.72492615890494,-23.33042370605471L99.79612000656124,-21.930000000000003L98.77375721359249,-21.19452783203126L97.84014490890495,-20.597343811035163L97.02210560226457,-20.152895874023457L96.34648279952998,-19.875629333496082L95.8401200065612,-19.78L95.35404993820208,-19.858089721679715L94.70698182296748,-20.074462341308585L93.95466028976455,-20.40229534912108L93.15278797531117,-20.814753112792967L92.35712000656123,-21.285000000000007L90.68149525070207,-22.239256713867217L89.28245203781123,-22.727048461914098L88.10631385421749,-22.746312377929716L87.09942518234253,-22.294982971191413L86.20812000656124,-21.371000000000006L85.3835509147646,-20.225825805664087L84.97797986984253,-19.474871643066404L84.99758497238167,-18.965406677246094L85.44856531906126,-18.54469482421875L86.33712000656121,-18.059999999999995L87.14552210617083,-17.666121154785166L87.73720252609245,-17.458000000000002L88.22568714523332,-17.42531958007812L88.72448084640489,-17.557760314941415L89.34712000656123,-17.844999999999995L90.42384168624875,-18.237159790039065L91.83080042648331,-18.433239685058588L93.61960462570204,-18.433239685058588L95.84184168624871,-18.237157165527332L98.54912000656122,-17.844999999999995L101.64306238937368,-17.26880157470704L104.22924573898332,-16.651319580078123L106.17147889327995,-16.03384020996096L107.33349720382708,-15.457639160156248L107.57912000656121,-14.964000000000006L107.41916126632704,-14.855640472412105L107.11471790695204,-14.78856057739256L106.69675916671746,-14.762760314941417L106.19623328781118,-14.778238372802727L105.64412000656121,-14.835000000000006L104.6826458854675,-14.965032745361311L104.16492420577997,-14.925815979003909L104.08064588546749,-14.6925848083496L104.419480846405,-14.240566467285174L105.17112000656122,-13.545000000000002L105.80855091476454,-12.887960052490229L106.02906238937372,-12.427000000000001L105.84914686202998,-12.182759002685561L105.28532825851457,-12.17587884521483L104.35412000656123,-12.427000000000001L103.45593861007704,-12.678808776855458L102.92721497726457,-12.70770333862306L102.76587049484247,-12.50749508666994L102.96986854171745,-12.071991485595689L103.53712000656127,-11.395000000000007L104.08442518234247,-10.811576293945341L104.31387049484246,-10.484088409423817L104.19657581710828,-10.379512115478521L103.70360853195206,-10.464823181152331L102.80612000656122,-10.707000000000004L102.18727064132703,-10.861456451416029L101.78719007492077,-10.89000720214847L101.54604993820206,-10.75963195800784L101.40397986984247,-10.437303863525392L101.30112000656123,-9.889999999999999L101.25330140304581,-9.461720367431644L101.25914881515493,-9.023121154785168L101.31041077804579,-8.605159790039085L101.39881483077995,-8.238798950195331L101.51612000656124,-7.955000000000002L101.62414490890498,-7.695968566894536L101.688812877655,-7.399784545898458L101.70807679367083,-7.091215454101581L101.6798580436708,-6.79503274536131L101.6021200065612,-6.535999999999997L101.46830140304577,-6.280407989501935L101.30559217452995,-6.194064178466812L101.0850806999208,-6.291415191650397L100.7778973503112,-6.58691290283204L100.35512000656122,-7.094999999999997L99.56563538742083,-7.881727569580064L98.92064588546745,-8.135944335937497L98.45107874679582,-7.872095611572274L98.18791370773329,-7.1046306457519375L98.16212000656122,-5.847999999999998L98.21063148117082,-4.99831958007812L98.18895301437371,-4.427280944824205L98.07853455734251,-4.08328028869628L97.86077357101458,-3.9147197113037158L97.5171200065612,-3.869999999999999L97.22609315109248,-3.914032089233382L96.93300867843621,-4.036495742797865L96.65643763351459,-4.222944335937495L96.41494056320207,-4.458927307128914L96.2271200065612,-4.729999999999996L96.06371790695204,-5.001072692871078L95.88999622726453,-5.237055664062496L95.71628504562375,-5.423503601074204L95.55287244796747,-5.545968566894539L95.4101200065612,-5.589999999999995L95.05270350265494,-5.223640472412101L94.54255091476453,-4.330960052490223L94.02620447921744,-3.2215599212646358L93.6502169303896,-2.20503994750977L93.56112000656124,-1.5909999999999997L93.56662098312368,-1.4829842834472702L93.53291175460828,-1.418312377929709L93.46204993820203,-1.3990484619140837L93.35609315109242,-1.4272560577392386L93.21712000656122,-1.505L93.08984168624873,-1.6205841522216768L92.9728829460146,-1.800151931762698L92.87656336593618,-2.0251277008056565L92.81120252609247,-2.27693516540526L92.78712000656122,-2.5370000000000004L92.75753651046747,-2.8056640472412204L92.67428699874876,-3.1279921417236123L92.54563343429578,-3.47508840942381L92.37982728195205,-3.8180556640625003L92.1851200065612,-4.127999999999999L91.91852210617081,-4.45961624145506L91.72416126632706,-4.634368041992206L91.58140882492079,-4.660512115478518L91.46959412765497,-4.546303863525392L91.36812000656124,-4.299999999999995L91.27146448898333,-4.007944335937498L91.14177161788955,-3.5734721679687484L90.9873138542175,-3.0399279632568446L90.81634266281121,-2.450655532836907L90.63712000656119,-1.8490000000000004L90.44895301437371,-1.2604165039062507L90.25666028976458,-0.7523280944824379L90.0767552604675,-0.353632614135762L89.92573035812367,-0.09322396850585388L89.82012000656123,0L89.1015077018737,-0.7774400787353642L87.97214881515498,-2.710719711303719L86.7334107780458,-5.201279632568352L85.68660853195212,-7.650557952880851L85.13312000656126,-9.459999999999999L84.92775196456918,-10.645767517089835L84.8317735710146,-11.536383758544943L84.85138392257713,-12.311416503906246L84.99276636886583,-13.150432220458981L85.26212000656126,-14.233L85.3505293083192,-14.780992797851582L85.22634791183458,-15.201017028808584L84.76985609054586,-15.592142761230454L83.86134986495959,-16.053445312500003L82.38112000656129,-16.68399999999999L81.20808399581917,-17.181767517089824L79.82864063644422,-17.766222656249997L78.35632630538962,-18.389898498535164L76.90463538742084,-19.005309753417954L75.58712000656128,-19.564999999999998L70.15501588058461,-21.851225280761714L66.38236951828004,-23.27263195800784L63.78207154464713,-23.955128356933592L61.86702308273338,-24.024614929199217L60.15012000656128,-23.607000000000003L59.283926158905,-23.179409301757843L58.6489045524596,-22.62178454589847L58.24917567062379,-21.93825671386722L58.088870494842546,-21.132948913574207L58.172120006561286,-20.209999999999997L58.207897350311306,-19.3589443359375L57.859766368865834,-18.747312377929706L57.06375196456921,-18.346208251953108L55.755863292694215,-18.126733459472668L53.87212000656128,-18.059999999999995L51.03412000656126,-18.059999999999995L51.163120006561286,-16.68399999999999L51.237766368865856,-16.118464965820333L51.36814686203003,-15.69947216796875L51.56870154953001,-15.408450561523457L51.85387049484251,-15.226815979003916L52.23812000656129,-15.135999999999997L52.6127375602721,-14.992208251953123L53.08848804855337,-14.68742370605471L53.62203553390503,-14.256736083984377L54.170017833709615,-13.735231170654313L54.689120006561275,-13.158L56.19412000656129,-11.266000000000002L54.43112000656128,-10.104999999999993L53.758258190155026,-9.687039947509776L53.22780762863169,-9.413559265136708L52.82739112472546,-9.284560577392561L52.5446262321471,-9.300039947509777L52.36712000656127,-9.459999999999999L51.96842518234255,-9.797463653564439L51.468592174530016,-9.858352325439437L50.98320972824082,-9.686008514404316L50.627856090545876,-9.323774719238294L50.518120006561254,-8.815000000000001L49.95361902999877,-7.758232482910165L48.40664783859253,-6.263895874023456L46.329231334686256,-4.678744598388684L44.17338392257713,-3.349527832031249L42.391120006561295,-2.622999999999999L40.61160920333857,-2.2752161102295116L38.77430665206913,-2.0182481994628954L37.10005714035037,-1.8706719055175614L35.80970808029175,-1.8510641784668143L35.1241200065613,-1.9779999999999998L35.08352930831913,-2.093240341186511L35.25346381759644,-2.270400131225595L35.607095775604265,-2.4888402099609586L36.11758955001832,-2.7279194488525316L36.758120006561285,-2.9669999999999996L38.612279796600376,-3.736527832031251L40.19812000656131,-4.7475435485839785L41.58788294601462,-6.066096923828121L42.8538004264834,-7.758232482910165L44.06812000656128,-9.889999999999999L44.82182728195213,-11.358880157470693L45.35055091476464,-12.569760314941417L45.68732825851464,-13.605199737548814L45.865175670623785,-14.547760314941412L45.91712000656129,-15.479999999999997L45.8944179801942,-16.325552062988294L45.8180499382021,-16.970895874023455L45.67563343429585,-17.442864440917962L45.454786022186276,-17.76828552246096L45.1431200065613,-17.973999999999997L44.078786022186286,-18.30423968505858L42.51083448410046,-18.551920104980454L40.8644494132994,-18.686079895019525L39.56481220626835,-18.675760314941414L39.03712000656129,-18.49L39.09078602218628,-18.346208251953108L39.23939374923708,-18.227184020996077L39.46437214279176,-18.1370556640625L39.74713441085816,-18.079951538085957L40.0691200065613,-18.059999999999995L40.53180042648338,-17.98500720214846L41.00480042648339,-17.749024230957033L41.508759166717574,-17.33553765869141L42.064321056365884,-16.728031433105446L42.69212000656132,-15.91L43.19917567062381,-15.214777343749999L43.621606578827134,-14.600048461914085L43.93671070480338,-14.105034057617202L44.12178077316294,-13.768941711425795L44.154120006561286,-13.630999999999998L43.17750770187381,-12.964671905517562L42.40934986495964,-12.510937133789087L41.8414107780459,-12.265666015624998L41.46541798019422,-12.22472756958006L41.27312000656129,-12.383999999999999L41.168199901580664,-12.553248199462896L40.970398326873756,-12.695663391113289L40.70036231613172,-12.805055664062502L40.378717906952126,-12.875232482910166L40.02612000656129,-12.899999999999997L39.573761791229245,-12.875576293945333L39.28652210617067,-12.787168304443357L39.14376179122925,-12.612072692871084L39.124839061737084,-12.327583496093744L39.2091200065613,-11.910999999999998L39.234233959198,-11.418048461914081L38.98689735031129,-10.898263916015633L38.37010560226442,-10.242255401611319L37.286846263885494,-9.340631958007839L35.640120006561276,-8.083999999999994L33.83102570724487,-6.751343811035166L32.45743238449099,-5.86451211547852L31.253088573455834,-5.291407989501933L29.95173493576049,-4.899935821533182L28.28712000656127,-4.557999999999999L26.062473644256624,-4.17615979003908L24.287776195526128,-3.959440078735362L22.95890455245973,-3.9078402099609546L22.07172773361207,-4.021360183715824L21.622120006561282,-4.299999999999995L21.58840815353394,-4.443791748046872L21.682664867401105,-4.562815979003915L21.888374095916745,-4.652944335937498L22.189032909393326,-4.710047149658183L22.56812000656129,-4.729999999999996L23.786224132537868,-4.82460052490233L25.027030284881626,-5.0946391601562455L26.230686473846465,-5.519480682373062L27.337335460662874,-6.07848068237306L28.28712000656127,-6.750999999999998L28.808970043182374,-7.2945206298828325L29.458786022186295,-8.147640472412105L30.178778820037866,-9.227800262451188L30.911151439666753,-10.452439422607437L31.5981200065613,-11.739000000000004L32.70029682540895,-14.195504913330067L33.33600867843628,-16.313510803222663L33.52383448410038,-18.342767517089836L33.28234266281129,-20.53301440429688L32.630120006561285,-23.133999999999997L31.86127979660038,-25.91661755371097L31.340120006561293,-28.232767517089844L31.035681896209752,-30.24551342773438L30.916998851776132,-32.117903076171885L30.953120006561292,-34.01299999999999L31.034647838592534,-35.050506225585956L31.120304027557374,-36.007513427734374L31.20389472579958,-36.82416961669938L31.279228710174582,-37.4406123046875L31.340120006561293,-37.797L31.174313854217548,-38.43993713378918L30.436776195526132,-39.02920825195334L29.30914686203005,-39.49051342773459L27.9730446891785,-39.74954223632834L26.61012000656128,-39.73200000000001L25.81513703536986,-39.647034057617084L25.193529308319125,-39.661138183593756L24.68131122970583,-39.79082580566417L24.214502452850375,-40.052605102539175L23.729120006561278,-40.462999999999994L22.263681896209746,-41.656333984375L20.323519481658945,-42.93016699218749L17.722880321502696,-44.38563195800793L14.276000164031975,-46.12386706542959L9.797120006561286,-48.246000000000016L7.49404011154174,-49.341297973632926L4.9432804527283,-50.57900720214835L2.5679602165222395,-51.75067321777335L0.7911999015808131,-52.647820556640866L0.03612000656127938,-53.06200000000001L0,-53.42801965332041L0.19091994094848713,-54.0396463623046L0.5159998359680158,-54.70907531738293L0.8823596916198759,-55.248459716797115L1.1971200065612797,-55.470000000000006L1.490896038055422,-55.391915527343755L2.071567943572988,-55.175540283203354L2.875152095794668,-54.847707275390846L3.8376635551452627,-54.435244262695456L4.895120006561288,-53.96499999999999L5.9171442375183245,-53.49475048828128L6.827712017059351,-53.08229797363293L7.566968730926514,-52.75446496582042L8.075056484222404,-52.53808447265625L8.292120006561285,-52.46000000000001L8.476847576141347,-52.40633923339833L8.851463817596457,-52.25772888183586L9.378816143035893,-52.03275048828126L10.021751964569123,-51.74998559570335L10.743120006561284,-51.428L11.635112804412872,-51.023111328125005L12.750015880584744,-50.51089587402333L13.990823345184344,-49.93882580566415L15.260526683807377,-49.35436804199208L16.462120006561285,-48.80500000000003L18.185215618133554,-48.04372888183585L19.586328258514403,-47.56522265625001L21.127790599822983,-47.29105566406254L23.27194318771361,-47.14279174804709L26.481120006561284,-47.04200000000001L30.197008678436273,-46.99452783203125L32.61670350265505,-47.095666015624985L33.961057140350384,-47.40113818359375L34.45091175460815,-47.966667968749995L34.307120006561284,-48.848000000000006L34.167800426483176,-49.26252062988293L34.11104011154174,-49.58415979003918L34.1368390617371,-49.82324230957045L34.245197277069124,-49.990082519531256L34.43612000656128,-50.09499999999999L36.86373035812379,-50.6705134277346L41.173703502655044,-51.52054028320337L46.08018091964709,-52.41390832519542L50.297272594452124,-53.11944531250003L52.53912000656128,-53.40600000000003L53.12529944992085,-53.41907006835959L53.719725109100445,-53.50025671386709L54.27907154464711,-53.63510412597668L54.759976573944215,-53.809161743164175L55.11912000656128,-54.008000000000024L55.46346644210838,-54.20270727539086L55.90275196456921,-54.36851342773461L56.39776636886585,-54.49717224121083L56.90928895187379,-54.580416503906264L57.39812000656128,-54.61000000000003L58.67332825851463,-54.714235107422084L59.870105602264616,-55.09297839355461L61.14737672042837,-55.845305175781256L62.66406629562379,-57.07028552246085L64.57912000656125,-58.86700000000002L66.79757777023335,-60.84534643554712L68.9933282585146,-62.48519384765628L71.13335511398341,-63.76796594238294L73.1846209831238,-64.67509167480459L75.11412000656128,-65.18800000000002L75.72678602218629,-65.3108114013671L76.21766944503794,-65.46870202636713L76.5785293083192,-65.6554990234375L76.80109840011586,-65.86498754882835L76.87712000656128,-66.09100000000001L76.80557056808459,-66.34556188964835L76.55238917160047,-66.49691748046881L76.05977882003792,-66.5554020996096L75.26995301437378,-66.53131958007836L74.12512000656127,-66.43499999999999L73.09587574386585,-66.34177734375004L72.13473231124874,-66.31872888183584L71.25822413253798,-66.3637917480471L70.48284363937375,-66.47490307617208L69.82512000656128,-66.65000000000002L68.85022413253796,-67.1140556640625L68.35211280441295,-67.64828552246087L68.33284888839712,-68.12679699707044L68.79449525070211,-68.423666015625L69.73912000656127,-68.41300000000003L69.88497986984254,-68.40233923339835L70.10100867843629,-68.42056909179709L70.36451490402212,-68.46563195800795L70.6527807731629,-68.53546496582044L70.94312000656126,-68.62800000000001L71.29125098800668,-68.77626391601585L71.51966224288964,-68.97819384765629L71.64282007980337,-69.25649182128915L71.67515406417834,-69.6338546142579L71.63112000656125,-70.133L71.57848804855335,-70.55749902343753L71.57126539230336,-70.93865161132832L71.60325819015505,-71.25375048828126L71.66826734542838,-71.48010412597667L71.76012000656128,-71.59500000000001L71.84750049972544,-71.70611132812499L71.90184363937374,-71.87501965332044L71.92111805343625,-72.08726391601586L71.90322413253794,-72.32840930175792L71.84612000656129,-72.58400000000005L71.82032105636587,-72.89772888183582L71.89771790695208,-73.21558874511709L72.07832105636584,-73.53137524414085L72.36211475753792,-73.83891552734374L72.7491200065613,-74.132L73.78215406417836,-75.07800000000005L73.77905714035045,-75.74536083984376L72.96274476242087,-76.05152062988292L71.55612720870963,-75.91391748046874L69.78212000656124,-75.25000000000001L69.25132825851459,-74.98890832519542L68.76594581222543,-74.78147216796874L68.36105714035045,-74.64008447265627L68.07174671554586,-74.57713293457046L67.93312000656124,-74.605L68.14192615890502,-75.15024230957043L69.04630140304587,-76.07731958007835L70.28917567062376,-77.09728356933589L71.51346839523337,-77.92115979003916L72.36212000656127,-78.26L73.28989014816293,-78.43956909179711L74.1701828727721,-78.93286706542962L74.93489735031129,-79.67177209472666L75.5159065055846,-80.58818334960962L75.84512000656126,-81.61400000000002L75.96104993820214,-82.16852783203123L76.14302308273336,-82.76845971679712L76.37454175949082,-83.36633398437502L76.63907154464712,-83.91466796875L76.92012000656126,-84.366L77.17020972824089,-84.74405566406251L77.3934611930846,-85.08908447265624L77.57337672042834,-85.37840014648461L77.69342713546757,-85.58926391601592L77.73712000656127,-85.69900000000003L77.5510158805846,-85.8293752441409L77.03260657882711,-86.05056909179713L76.24175721359252,-86.33987426757841L75.2383014030459,-86.67458349609382L74.08212000656124,-87.03200000000005L72.92593861007713,-87.4200393066409L71.92248804855339,-87.79362280273465L71.13163343429585,-88.12799609375L70.61322413253795,-88.39836279296874L70.4271200065613,-88.58000000000003L70.66620252609252,-88.97181860351587L71.34904273605335,-89.21708447265625L72.42404273605335,-89.31375048828127L73.839594127655,-89.25973803710961L75.54412000656127,-89.05300000000001L77.68414686203002,-88.73720825195335L79.11415406417836,-88.67322265625002L80.16645203781133,-88.94773608398461L81.17333021163962,-89.64742041015622L82.46712000656127,-90.85900000000004"/>
</svg>