 0
SECTION
 2
ENTITIES
  0
LINE
 8
Layer0
10
44.197120006561306
20
43.43000000000001
30
0.0
11
44.88305189132714
21
43.71895874023458
31
0.0
  0
LINE
 8
Layer0
10
44.88305189132714
20
43.71895874023458
30
0.0
11
46.691807628631686
21
44.214319580078346
31
0.0
  0
LINE
 8
Layer0
10
46.691807628631686
20
44.214319580078346
30
0.0
11
49.24979322433461
21
44.82320104980456
31
0.0
  0
LINE
 8
Layer0
10
49.24979322433461
20
44.82320104980456
30
0.0
11
52.18342518234251
21
45.45272167968751
31
0.0
  0
LINE
 8
Layer0
10
52.18342518234251
20
45.45272167968751
30
0.0
11
55.11912000656128
21
46.01
31
0.0
  0
LINE
 8
Layer0
10
55.11912000656128
20
46.01
30
0.0
11
56.070967418670854
21
46.223619506835846
31
0.0
  0
LINE
 8
Layer0
10
56.070967418670854
20
46.223619506835846
30
0.0
11
57.08886329269417
21
46.5425134277346
31
0.0
  0
LINE
 8
Layer0
10
57.08886329269417
20
46.5425134277346
30
0.0
11
58.12533546066296
21
46.94808972167958
31
0.0
  0
LINE
 8
Layer0
10
58.12533546066296
20
46.94808972167958
30
0.0
11
59.13291175460835
21
47.421777343750016
31
0.0
  0
LINE
 8
Layer0
10
59.13291175460835
20
47.421777343750016
30
0.0
11
60.06412000656128
21
47.94500000000003
31
0.0
  0
LINE
 8
Layer0
10
60.06412000656128
20
47.94500000000003
30
0.0
11
61.711531261444186
21
48.897188598632944
31
0.0
  0
LINE
 8
Layer0
10
61.711531261444186
20
48.897188598632944
30
0.0
11
62.706725109100454
21
49.31894238281251
31
0.0
  0
LINE
 8
Layer0
10
62.706725109100454
20
49.31894238281251
30
0.0
11
63.08891175460836
21
49.195784545898356
31
0.0
  0
LINE
 8
Layer0
10
63.08891175460836
20
49.195784545898356
30
0.0
11
62.89730665206922
21
48.51328552246086
31
0.0
  0
LINE
 8
Layer0
10
62.89730665206922
20
48.51328552246086
30
0.0
11
62.17112000656129
21
47.25700000000002
31
0.0
  0
LINE
 8
Layer0
10
35.597120006561305
20
43.473
30
0.0
11
35.611567943573
21
43.31613293457041
31
0.0
  0
LINE
 8
Layer0
10
35.611567943573
20
43.31613293457041
30
0.0
11
35.650783397674594
21
43.11592993164084
31
0.0
  0
LINE
 8
Layer0
10
35.650783397674594
20
43.11592993164084
30
0.0
11
35.70857514572145
21
42.890951538085815
31
0.0
  0
LINE
 8
Layer0
10
35.70857514572145
20
42.890951538085815
30
0.0
11
35.77875196456912
21
42.659784545898326
31
0.0
  0
LINE
 8
Layer0
10
35.77875196456912
20
42.659784545898326
30
0.0
11
35.855120006561286
21
42.44100000000001
31
0.0
  0
LINE
 8
Layer0
10
35.855120006561286
20
42.44100000000001
30
0.0
11
35.84548542404176
21
41.9483896484375
31
0.0
  0
LINE
 8
Layer0
10
35.84548542404176
20
41.9483896484375
30
0.0
11
35.44782465744021
21
41.61677734375
31
0.0
  0
LINE
 8
Layer0
10
35.44782465744021
20
41.61677734375
30
0.0
11
34.728175670623784
21
41.462666015625004
31
0.0
  0
LINE
 8
Layer0
10
34.728175670623784
20
41.462666015625004
30
0.0
11
33.75259217453005
21
41.50256909179709
31
0.0
  0
LINE
 8
Layer0
10
33.75259217453005
20
41.50256909179709
30
0.0
11
32.58712000656128
21
41.753
31
0.0
  0
LINE
 8
Layer0
10
32.58712000656128
20
41.753
30
0.0
11
31.58573493576049
21
42.108353637695416
31
0.0
  0
LINE
 8
Layer0
10
31.58573493576049
20
42.108353637695416
30
0.0
11
31.05700867843629
21
42.4182927246096
31
0.0
  0
LINE
 8
Layer0
10
31.05700867843629
20
42.4182927246096
30
0.0
11
30.99887311935425
21
42.70966076660166
31
0.0
  0
LINE
 8
Layer0
10
30.99887311935425
20
42.70966076660166
30
0.0
11
31.409265392303496
21
43.009290771484594
31
0.0
  0
LINE
 8
Layer0
10
31.409265392303496
20
43.009290771484594
30
0.0
11
32.28612000656128
21
43.34399999999999
31
0.0
  0
LINE
 8
Layer0
10
32.28612000656128
20
43.34399999999999
30
0.0
11
33.307453990936274
21
43.61747937011706
31
0.0
  0
LINE
 8
Layer0
10
33.307453990936274
20
43.61747937011706
30
0.0
11
34.213209728241
21
43.767118530273315
31
0.0
  0
LINE
 8
Layer0
10
34.213209728241
20
43.767118530273315
30
0.0
11
34.93939112472537
21
43.79291748046875
31
0.0
  0
LINE
 8
Layer0
10
34.93939112472537
20
43.79291748046875
30
0.0
11
35.42202308273316
21
43.69488146972667
31
0.0
  0
LINE
 8
Layer0
10
35.42202308273316
20
43.69488146972667
30
0.0
11
35.597120006561305
21
43.473
31
0.0
  0
LINE
 8
Layer0
10
75.15712000656127
20
27.348000000000003
30
0.0
11
75.20114881515504
21
27.045968566894548
31
0.0
  0
LINE
 8
Layer0
10
75.20114881515504
20
27.045968566894548
30
0.0
11
75.32361902999881
21
26.5829443359375
31
0.0
  0
LINE
 8
Layer0
10
75.32361902999881
20
26.5829443359375
30
0.0
11
75.51006434249878
21
26.004336608886703
31
0.0
  0
LINE
 8
Layer0
10
75.51006434249878
20
26.004336608886703
30
0.0
11
75.7460499382021
21
25.355552062988302
31
0.0
  0
LINE
 8
Layer0
10
75.7460499382021
20
25.355552062988302
30
0.0
11
76.01712000656129
21
24.682
31
0.0
  0
LINE
 8
Layer0
10
76.01712000656129
20
24.682
30
0.0
11
76.2830302848817
21
24.032871643066418
31
0.0
  0
LINE
 8
Layer0
10
76.2830302848817
20
24.032871643066418
30
0.0
11
76.50354175949084
21
23.451854614257844
31
0.0
  0
LINE
 8
Layer0
10
76.50354175949084
20
23.451854614257844
30
0.0
11
76.66418287277212
21
22.976104125976594
31
0.0
  0
LINE
 8
Layer0
10
76.66418287277212
20
22.976104125976594
30
0.0
11
76.75052930831922
21
22.642770141601595
31
0.0
  0
LINE
 8
Layer0
10
76.75052930831922
20
22.642770141601595
30
0.0
11
76.74812000656127
21
22.489000000000004
31
0.0
  0
LINE
 8
Layer0
10
76.74812000656127
20
22.489000000000004
30
0.0
11
76.57026734542833
21
22.496569091796882
31
0.0
  0
LINE
 8
Layer0
10
76.57026734542833
20
22.496569091796882
30
0.0
11
76.17157777023338
21
22.611464965820343
31
0.0
  0
LINE
 8
Layer0
10
76.17157777023338
20
22.611464965820343
30
0.0
11
75.59950245285044
21
22.817176818847678
31
0.0
  0
LINE
 8
Layer0
10
75.59950245285044
20
22.817176818847678
30
0.0
11
74.90152930831921
21
23.097191223144556
31
0.0
  0
LINE
 8
Layer0
10
74.90152930831921
20
23.097191223144556
30
0.0
11
74.12512000656127
21
23.434999999999995
31
0.0
  0
LINE
 8
Layer0
10
74.12512000656127
20
23.434999999999995
30
0.0
11
71.63112000656125
21
24.553000000000004
31
0.0
  0
LINE
 8
Layer0
10
71.63112000656125
20
24.553000000000004
30
0.0
11
72.96412000656129
21
25.886000000000003
31
0.0
  0
LINE
 8
Layer0
10
72.96412000656129
20
25.886000000000003
30
0.0
11
73.38344874191293
21
26.34145776367188
31
0.0
  0
LINE
 8
Layer0
10
73.38344874191293
20
26.34145776367188
30
0.0
11
73.74913245773337
21
26.763888671874994
31
0.0
  0
LINE
 8
Layer0
10
73.74913245773337
20
26.763888671874994
30
0.0
11
74.03843238449086
21
27.130590698242216
31
0.0
  0
LINE
 8
Layer0
10
74.03843238449086
20
27.130590698242216
30
0.0
11
74.22866749191293
21
27.418864440917957
31
0.0
  0
LINE
 8
Layer0
10
74.22866749191293
20
27.418864440917957
30
0.0
11
74.29712000656129
21
27.606000000000005
31
0.0
  0
LINE
 8
Layer0
10
74.29712000656129
20
27.606000000000005
30
0.0
11
74.32119727706915
21
27.70782318115233
31
0.0
  0
LINE
 8
Layer0
10
74.32119727706915
20
27.70782318115233
30
0.0
11
74.38656336593627
21
27.801394897460955
31
0.0
  0
LINE
 8
Layer0
10
74.38656336593627
20
27.801394897460955
30
0.0
11
74.48288294601461
21
27.8784479370117
31
0.0
  0
LINE
 8
Layer0
10
74.48288294601461
20
27.8784479370117
30
0.0
11
74.59984168624877
21
27.930736083984375
31
0.0
  0
LINE
 8
Layer0
10
74.59984168624877
20
27.930736083984375
30
0.0
11
74.72712000656128
21
27.95
31
0.0
  0
LINE
 8
Layer0
10
74.72712000656128
20
27.95
30
0.0
11
74.87090650558461
21
27.920413879394545
31
0.0
  0
LINE
 8
Layer0
10
74.87090650558461
20
27.920413879394545
30
0.0
11
74.98993861007713
21
27.837169616699214
31
0.0
  0
LINE
 8
Layer0
10
74.98993861007713
20
27.837169616699214
30
0.0
11
75.08006434249879
21
27.70851342773437
31
0.0
  0
LINE
 8
Layer0
10
75.08006434249879
20
27.70851342773437
30
0.0
11
75.13716846847545
21
27.54270465087892
31
0.0
  0
LINE
 8
Layer0
10
75.13716846847545
20
27.54270465087892
30
0.0
11
75.15712000656127
21
27.348000000000003
31
0.0
  0
LINE
 8
Layer0
10
44.31442518234256
20
43.341937133789166
30
0.0
11
44.197120006561306
21
43.43000000000001
31
0.0
  0
LINE
 8
Layer0
10
44.640195323944205
20
43.28277014160166
30
0.0
11
44.31442518234256
21
43.341937133789166
31
0.0
  0
LINE
 8
Layer0
10
45.135209728240845
20
43.250430908203334
30
0.0
11
44.640195323944205
21
43.28277014160166
31
0.0
  0
LINE
 8
Layer0
10
47.40113965988171
20
43.31407531738292
30
0.0
11
46.47612000656128
21
43.257999999999996
31
0.0
  0
LINE
 8
Layer0
10
46.47612000656128
20
43.257999999999996
30
0.0
11
45.760252941131704
21
43.242861816406254
31
0.0
  0
LINE
 8
Layer0
10
45.760252941131704
20
43.242861816406254
30
0.0
11
45.135209728240845
21
43.250430908203334
31
0.0
  0
LINE
 8
Layer0
10
48.654328258514624
20
43.37633923339831
30
0.0
11
47.40113965988171
21
43.31407531738292
31
0.0
  0
LINE
 8
Layer0
10
50.12011280441293
20
43.440666015625006
30
0.0
11
48.654328258514624
21
43.37633923339831
31
0.0
  0
LINE
 8
Layer0
10
59.92066944503794
20
44.77263195800792
30
0.0
11
58.35684888839711
21
44.12384741210959
31
0.0
  0
LINE
 8
Layer0
10
62.17112000656129
20
47.25700000000002
30
0.0
11
61.11710035324085
21
45.78674328613291
31
0.0
  0
LINE
 8
Layer0
10
61.11710035324085
20
45.78674328613291
30
0.0
11
59.92066944503794
21
44.77263195800792
31
0.0
  0
LINE
 8
Layer0
10
58.35684888839711
20
44.12384741210959
30
0.0
11
56.20065504074087
21
43.74957629394541
31
0.0
  0
LINE
 8
Layer0
10
56.20065504074087
20
43.74957629394541
30
0.0
11
53.227120006561265
21
43.559000000000005
31
0.0
  0
LINE
 8
Layer0
10
53.227120006561265
20
43.559000000000005
30
0.0
11
51.682904552459604
21
43.50292993164082
31
0.0
  0
LINE
 8
Layer0
10
51.682904552459604
20
43.50292993164082
30
0.0
11
50.12011280441293
21
43.440666015625006
31
0.0
  0
POLYLINE
 8
Layer0
 66
     1
70
    8
 10
0.0
 20
 0.0
 30
0.0
  0
VERTEX
  8
MY3DLAYER
10
82.46712000656127
20
90.85900000000004
30
0.0
 70
     32
  0
VERTEX
  8
MY3DLAYER
10
83.9877725944519
20
92.20163195800795
30
0.0
 70
     32
  0
VERTEX
  8
MY3DLAYER
10
85.5084251823425
20
93.54426391601588
30
0.0
 70
     32
  0
VERTEX
  8
MY3DLAYER
10
88.3763446159362
20
95.6123896484375
30
0.0
 70
     32
  0
VERTEX
  8
MY3DLAYER
10
91.20712195968622
20
97.13768237304708
30
0.0
 70
     32
  0
VERTEX
  8
MY3DLAYER
10
94.13697986984243
20
98.1944577636721
30
0.0
 70
     32
  0
VERTEX
  8
MY3DLAYER
10
97.30212000656121
20
98.85700000000001
30
0.0
 70
     32
  0
VERTEX
  8
MY3DLAYER
10
100.27325623702995
20
99.1638579101563
30
0.0
 70
     32
  0
VERTEX
  8
MY3DLAYER
10
102.91826014327994
20
99.21683105468753
30
0.0
 70
     32
  0
VERTEX
  8
MY3DLAYER
10
105.0452169303896
20
99.03037524414083
30
0.0
 70
     32
  0
VERTEX
  8
MY3DLAYER
10
106.46214881515492
20
98.6189567871096
30
0.0
 70
     32
  0
VERTEX
  8
MY3DLAYER
10
106.9771200065612
20
97.99700000000006
30
0.0
 70
     32
  0
VERTEX
  8
MY3DLAYER
10
107.0063570671083
20
97.8741938476563
30
0.0
 70
     32
  0
VERTEX
  8
MY3DLAYER
10
107.08720252609245
20
97.76789062500002
30
0.0
 70
     32
  0
VERTEX
  8
MY3DLAYER
10
107.20932630538954
20
97.68430517578126
30
0.0
 70
     32
  0
VERTEX
  8
MY3DLAYER
10
107.36238782882707
20
97.6296103515625
30
0.0
 70
     32
  0
VERTEX
  8
MY3DLAYER
10
107.53612000656126
20
97.61000000000001
30
0.0
 70
     32
  0
VERTEX
  8
MY3DLAYER
10
107.82232825851455
20
97.53191552734377
30
0.0
 70
     32
  0
VERTEX
  8
MY3DLAYER
10
108.28810560226451
20
97.31554028320333
30
0.0
 70
     32
  0
VERTEX
  8
MY3DLAYER
10
108.88597986984246
20
96.98770727539085
30
0.0
 70
     32
  0
VERTEX
  8
MY3DLAYER
10
109.56846839523334
20
96.57523901367212
30
0.0
 70
     32
  0
VERTEX
  8
MY3DLAYER
10
110.28812000656123
20
96.10500000000006
30
0.0
 70
     32
  0
VERTEX
  8
MY3DLAYER
10
111.02393861007707
20
95.63475048828127
30
0.0
 70
     32
  0
VERTEX
  8
MY3DLAYER
10
111.70609119796741
20
95.22229272460959
30
0.0
 70
     32
  0
VERTEX
  8
MY3DLAYER
10
112.29123133468624
20
94.89447021484376
30
0.0
 70
     32
  0
VERTEX
  8
MY3DLAYER
10
112.73603358078002
20
94.67808447265628
30
0.0
 70
     32
  0
VERTEX
  8
MY3DLAYER
10
112.99712000656123
20
94.60000000000002
30
0.0
 70
     32
  0
VERTEX
  8
MY3DLAYER
10
113.31910560226451
20
94.4465710449221
30
0.0
 70
     32
  0
VERTEX
  8
MY3DLAYER
10
113.38514881515493
20
94.07437329101586
30
0.0
 70
     32
  0
VERTEX
  8
MY3DLAYER
10
113.23860657882705
20
93.61547216796879
30
0.0
 70
     32
  0
VERTEX
  8
MY3DLAYER
10
112.92281483077998
20
93.20197509765622
30
0.0
 70
     32
  0
VERTEX
  8
MY3DLAYER
10
112.48112000656123
20
92.96600000000002
30
0.0
 70
     32
  0
VERTEX
  8
MY3DLAYER
10
112.21486854171748
20
92.97426196289085
30
0.0
 70
     32
  0
VERTEX
  8
MY3DLAYER
10
111.94035511398333
20
93.09397119140628
30
0.0
 70
     32
  0
VERTEX
  8
MY3DLAYER
10
111.66997791671743
20
93.31275048828122
30
0.0
 70
     32
  0
VERTEX
  8
MY3DLAYER
10
111.41609315109251
20
93.61822265625
30
0.0
 70
     32
  0
VERTEX
  8
MY3DLAYER
10
111.1911200065612
20
93.998
30
0.0
 70
     32
  0
VERTEX
  8
MY3DLAYER
10
110.84609119796748
20
94.6110124511721
30
0.0
 70
     32
  0
VERTEX
  8
MY3DLAYER
10
110.36070350265494
20
95.06302685546878
30
0.0
 70
     32
  0
VERTEX
  8
MY3DLAYER
10
109.55334070968622
20
95.44074658203125
30
0.0
 70
     32
  0
VERTEX
  8
MY3DLAYER
10
108.24234461593622
20
95.83083300781249
30
0.0
 70
     32
  0
VERTEX
  8
MY3DLAYER
10
106.24612000656121
20
96.32
30
0.0
 70
     32
  0
VERTEX
  8
MY3DLAYER
10
105.22031385421748
20
96.52055468750002
30
0.0
 70
     32
  0
VERTEX
  8
MY3DLAYER
10
104.38645399093625
20
96.60345776367207
30
0.0
 70
     32
  0
VERTEX
  8
MY3DLAYER
10
103.6269098014833
20
96.56459399414086
30
0.0
 70
     32
  0
VERTEX
  8
MY3DLAYER
10
102.82399818038958
20
96.39980615234376
30
0.0
 70
     32
  0
VERTEX
  8
MY3DLAYER
10
101.86012000656119
20
96.10500000000006
30
0.0
 70
     32
  0
VERTEX
  8
MY3DLAYER
10
100.62275721359251
20
95.58349902343754
30
0.0
 70
     32
  0
VERTEX
  8
MY3DLAYER
10
99.6908560905458
20
94.86384741210959
30
0.0
 70
     32
  0
VERTEX
  8
MY3DLAYER
10
98.97774476242077
20
93.82015258789086
30
0.0
 70
     32
  0
VERTEX
  8
MY3DLAYER
10
98.39671986007707
20
92.32649047851588
30
0.0
 70
     32
  0
VERTEX
  8
MY3DLAYER
10
97.86112000656122
20
90.25699999999998
30
0.0
 70
     32
  0
VERTEX
  8
MY3DLAYER
10
97.66917371749868
20
89.46133203125001
30
0.0
 70
     32
  0
VERTEX
  8
MY3DLAYER
10
97.41942518234247
20
88.65945971679709
30
0.0
 70
     32
  0
VERTEX
  8
MY3DLAYER
10
97.13666028976458
20
87.9071381835938
30
0.0
 70
     32
  0
VERTEX
  8
MY3DLAYER
10
96.84563343429579
20
87.26007006835965
30
0.0
 70
     32
  0
VERTEX
  8
MY3DLAYER
10
96.57112000656122
20
86.77400000000004
30
0.0
 70
     32
  0
VERTEX
  8
MY3DLAYER
10
96.32550770187372
20
86.39697314453124
30
0.0
 70
     32
  0
VERTEX
  8
MY3DLAYER
10
96.11291175460833
20
86.00756909179714
30
0.0
 70
     32
  0
VERTEX
  8
MY3DLAYER
10
95.94573035812373
20
85.63467846679715
30
0.0
 70
     32
  0
VERTEX
  8
MY3DLAYER
10
95.83633021163955
20
85.30718139648462
30
0.0
 70
     32
  0
VERTEX
  8
MY3DLAYER
10
95.79712000656124
20
85.05400000000004
30
0.0
 70
     32
  0
VERTEX
  8
MY3DLAYER
10
95.93403553390495
20
84.80219384765624
30
0.0
 70
     32
  0
VERTEX
  8
MY3DLAYER
10
96.31449525070202
20
84.43273608398458
30
0.0
 70
     32
  0
VERTEX
  8
MY3DLAYER
10
96.89310560226453
20
83.98277929687502
30
0.0
 70
     32
  0
VERTEX
  8
MY3DLAYER
10
97.62445203781122
20
83.48948657226585
30
0.0
 70
     32
  0
VERTEX
  8
MY3DLAYER
10
98.46312000656121
20
82.98999999999997
30
0.0
 70
     32
  0
VERTEX
  8
MY3DLAYER
10
99.73213441085834
20
82.21600000000001
30
0.0
 70
     32
  0
VERTEX
  8
MY3DLAYER
10
100.64820447921747
20
81.54519580078126
30
0.0
 70
     32
  0
VERTEX
  8
MY3DLAYER
10
101.2092830924987
20
80.97759790039083
30
0.0
 70
     32
  0
VERTEX
  8
MY3DLAYER
10
101.41326014327997
20
80.51319580078125
30
0.0
 70
     32
  0
VERTEX
  8
MY3DLAYER
10
101.25812000656121
20
80.152
30
0.0
 70
     32
  0
VERTEX
  8
MY3DLAYER
10
100.66128504562376
20
80.12207531738292
30
0.0
 70
     32
  0
VERTEX
  8
MY3DLAYER
10
99.38332630538956
20
80.25313818359376
30
0.0
 70
     32
  0
VERTEX
  8
MY3DLAYER
10
97.80607874679579
20
80.48946496582046
30
0.0
 70
     32
  0
VERTEX
  8
MY3DLAYER
10
96.3113983268737
20
80.77532678222668
30
0.0
 70
     32
  0
VERTEX
  8
MY3DLAYER
10
95.28112000656121
20
81.05500000000002
30
0.0
 70
     32
  0
VERTEX
  8
MY3DLAYER
10
94.6887467155458
20
81.13102685546876
30
0.0
 70
     32
  0
VERTEX
  8
MY3DLAYER
10
94.4947323112487
20
80.79631237792957
30
0.0
 70
     32
  0
VERTEX
  8
MY3DLAYER
10
94.67430140304582
20
80.13549182128915
30
0.0
 70
     32
  0
VERTEX
  8
MY3DLAYER
10
95.2026890983583
20
79.23317419433583
30
0.0
 70
     32
  0
VERTEX
  8
MY3DLAYER
10
96.05512000656122
20
78.17400000000004
30
0.0
 70
     32
  0
VERTEX
  8
MY3DLAYER
10
96.75413245773333
20
77.37729797363296
30
0.0
 70
     32
  0
VERTEX
  8
MY3DLAYER
10
97.17863148117081
20
76.75396594238293
30
0.0
 70
     32
  0
VERTEX
  8
MY3DLAYER
10
97.3740211296083
20
76.16779699707043
30
0.0
 70
     32
  0
VERTEX
  8
MY3DLAYER
10
97.38570545577998
20
75.4825369873046
30
0.0
 70
     32
  0
VERTEX
  8
MY3DLAYER
10
97.2591200065612
20
74.56200000000001
30
0.0
 70
     32
  0
VERTEX
  8
MY3DLAYER
10
97.15282728195206
20
73.59433203125002
30
0.0
 70
     32
  0
VERTEX
  8
MY3DLAYER
10
97.21371595382706
20
72.8784649658204
30
0.0
 70
     32
  0
VERTEX
  8
MY3DLAYER
10
97.54704993820205
20
72.21214343261708
30
0.0
 70
     32
  0
VERTEX
  8
MY3DLAYER
10
98.25809315109241
20
71.39307006835959
30
0.0
 70
     32
  0
VERTEX
  8
MY3DLAYER
10
99.45212000656123
20
70.21900000000001
30
0.0
 70
     32
  0
VERTEX
  8
MY3DLAYER
10
100.62000672531121
20
69.06729077148461
30
0.0
 70
     32
  0
VERTEX
  8
MY3DLAYER
10
101.26156336593623
20
68.38410412597669
30
0.0
 70
     32
  0
VERTEX
  8
MY3DLAYER
10
101.41807874679583
20
68.07037524414086
30
0.0
 70
     32
  0
VERTEX
  8
MY3DLAYER
10
101.13083118820204
20
68.02702880859378
30
0.0
 70
     32
  0
VERTEX
  8
MY3DLAYER
10
100.4411200065612
20
68.15500000000003
30
0.0
 70
     32
  0
VERTEX
  8
MY3DLAYER
10
99.09642518234246
20
68.53924951171875
30
0.0
 70
     32
  0
VERTEX
  8
MY3DLAYER
10
97.99115931320205
20
69.03082580566418
30
0.0
 70
     32
  0
VERTEX
  8
MY3DLAYER
10
97.10673035812374
20
69.64417944335959
30
0.0
 70
     32
  0
VERTEX
  8
MY3DLAYER
10
96.4245777702333
20
70.39374523925792
30
0.0
 70
     32
  0
VERTEX
  8
MY3DLAYER
10
95.9261200065612
20
71.29400000000001
30
0.0
 70
     32
  0
VERTEX
  8
MY3DLAYER
10
95.41081287765495
20
72.3707216796875
30
0.0
 70
     32
  0
VERTEX
  8
MY3DLAYER
10
94.78610560226456
20
73.33391748046876
30
0.0
 70
     32
  0
VERTEX
  8
MY3DLAYER
10
94.11806238937375
20
74.1113660888671
30
0.0
 70
     32
  0
VERTEX
  8
MY3DLAYER
10
93.47270545577997
20
74.6307937011721
30
0.0
 70
     32
  0
VERTEX
  8
MY3DLAYER
10
92.91612000656119
20
74.82000000000001
30
0.0
 70
     32
  0
VERTEX
  8
MY3DLAYER
10
92.56868714523333
20
74.80039489746086
30
0.0
 70
     32
  0
VERTEX
  8
MY3DLAYER
10
92.4173158073424
20
74.66313818359377
30
0.0
 70
     32
  0
VERTEX
  8
MY3DLAYER
10
92.48267664718621
20
74.29058874511708
30
0.0
 70
     32
  0
VERTEX
  8
MY3DLAYER
10
92.7853983268737
20
73.56508447265625
30
0.0
 70
     32
  0
VERTEX
  8
MY3DLAYER
10
93.34612000656121
20
72.36900000000003
30
0.0
 70
     32
  0
VERTEX
  8
MY3DLAYER
10
94.24706238937372
20
70.53720104980457
30
0.0
 70
     32
  0
VERTEX
  8
MY3DLAYER
10
95.10464783859247
20
69.04595874023458
30
0.0
 70
     32
  0
VERTEX
  8
MY3DLAYER
10
95.93747889327996
20
67.86432482910169
30
0.0
 70
     32
  0
VERTEX
  8
MY3DLAYER
10
96.76409510421745
20
66.96131433105462
30
0.0
 70
     32
  0
VERTEX
  8
MY3DLAYER
10
97.6031200065612
20
66.30600000000003
30
0.0
 70
     32
  0
VERTEX
  8
MY3DLAYER
10
98.22954896163954
20
65.8825350341796
30
0.0
 70
     32
  0
VERTEX
  8
MY3DLAYER
10
98.56907679367082
20
65.6014918212892
30
0.0
 70
     32
  0
VERTEX
  8
MY3DLAYER
10
98.63409119796746
20
65.39886901855459
30
0.0
 70
     32
  0
VERTEX
  8
MY3DLAYER
10
98.43696937179581
20
65.21070202636707
30
0.0
 70
     32
  0
VERTEX
  8
MY3DLAYER
10
97.9901200065612
20
64.973
30
0.0
 70
     32
  0
VERTEX
  8
MY3DLAYER
10
97.62410560226454
20
64.81854748535167
30
0.0
 70
     32
  0
VERTEX
  8
MY3DLAYER
10
97.16727259445204
20
64.71775048828124
30
0.0
 70
     32
  0
VERTEX
  8
MY3DLAYER
10
96.65264783859247
20
64.67268762207041
30
0.0
 70
     32
  0
VERTEX
  8
MY3DLAYER
10
96.11325819015497
20
64.68541650390627
30
0.0
 70
     32
  0
VERTEX
  8
MY3DLAYER
10
95.5821200065612
20
64.75800000000002
30
0.0
 70
     32
  0
VERTEX
  8
MY3DLAYER
10
94.58486854171747
20
64.82542370605458
30
0.0
 70
     32
  0
VERTEX
  8
MY3DLAYER
10
94.11599427413955
20
64.58531237792957
30
0.0
 70
     32
  0
VERTEX
  8
MY3DLAYER
10
94.16725623702996
20
64.0706876220704
30
0.0
 70
     32
  0
VERTEX
  8
MY3DLAYER
10
94.73037147140496
20
63.31457629394544
30
0.0
 70
     32
  0
VERTEX
  8
MY3DLAYER
10
95.79712000656124
20
62.35000000000003
30
0.0
 70
     32
  0
VERTEX
  8
MY3DLAYER
10
96.7788973503112
20
61.497915527343764
30
0.0
 70
     32
  0
VERTEX
  8
MY3DLAYER
10
97.25292615890491
20
60.940978393554595
30
0.0
 70
     32
  0
VERTEX
  8
MY3DLAYER
10
97.22747889327997
20
60.73698559570336
30
0.0
 70
     32
  0
VERTEX
  8
MY3DLAYER
10
96.71078602218617
20
60.94372888183585
30
0.0
 70
     32
  0
VERTEX
  8
MY3DLAYER
10
95.71112000656123
20
61.61900000000001
30
0.0
 70
     32
  0
VERTEX
  8
MY3DLAYER
10
94.14729944992081
20
62.537138183593726
30
0.0
 70
     32
  0
VERTEX
  8
MY3DLAYER
10
92.00349329757704
20
63.51512573242211
30
0.0
 70
     32
  0
VERTEX
  8
MY3DLAYER
10
89.77299427413955
20
64.36515258789085
30
0.0
 70
     32
  0
VERTEX
  8
MY3DLAYER
10
87.94909510421746
20
64.89938244628917
30
0.0
 70
     32
  0
VERTEX
  8
MY3DLAYER
10
87.02512000656121
20
64.93000000000002
30
0.0
 70
     32
  0
VERTEX
  8
MY3DLAYER
10
86.96182728195205
20
64.70812377929707
30
0.0
 70
     32
  0
VERTEX
  8
MY3DLAYER
10
87.02442713546748
20
64.3211237792971
30
0.0
 70
     32
  0
VERTEX
  8
MY3DLAYER
10
87.20468909835832
20
63.79996398925793
30
0.0
 70
     32
  0
VERTEX
  8
MY3DLAYER
10
87.4943407096862
20
63.175597900390855
30
0.0
 70
     32
  0
VERTEX
  8
MY3DLAYER
10
87.88512000656121
20
62.47900000000001
30
0.0
 70
     32
  0
VERTEX
  8
MY3DLAYER
10
88.38977161788954
20
61.55433203125002
30
0.0
 70
     32
  0
VERTEX
  8
MY3DLAYER
10
88.73342518234244
20
60.72666601562502
30
0.0
 70
     32
  0
VERTEX
  8
MY3DLAYER
10
88.94085609054578
20
59.8969423828125
30
0.0
 70
     32
  0
VERTEX
  8
MY3DLAYER
10
89.03682923507704
20
58.966070068359606
30
0.0
 70
     32
  0
VERTEX
  8
MY3DLAYER
10
89.04612000656122
20
57.83500000000003
30
0.0
 70
     32
  0
VERTEX
  8
MY3DLAYER
10
89.01516126632703
20
56.49821545410168
30
0.0
 70
     32
  0
VERTEX
  8
MY3DLAYER
10
88.97388294601456
20
54.33377014160169
30
0.0
 70
     32
  0
VERTEX
  8
MY3DLAYER
10
88.92228504562368
20
51.556307128906255
30
0.0
 70
     32
  0
VERTEX
  8
MY3DLAYER
10
88.86035706710828
20
48.380506225585854
30
0.0
 70
     32
  0
VERTEX
  8
MY3DLAYER
10
88.78812000656116
20
45.02100000000001
30
0.0
 70
     32
  0
VERTEX
  8
MY3DLAYER
10
88.6161200065612
20
34.787000000000006
30
0.0
 70
     32
  0
VERTEX
  8
MY3DLAYER
10
90.42212000656123
20
32.766
30
0.0
 70
     32
  0
VERTEX
  8
MY3DLAYER
10
92.27112000656122
20
30.745000000000015
30
0.0
 70
     32
  0
VERTEX
  8
MY3DLAYER
10
98.85012000656121
20
30.659
30
0.0
 70
     32
  0
VERTEX
  8
MY3DLAYER
10
102.98534266281122
20
30.598457763671888
30
0.0
 70
     32
  0
VERTEX
  8
MY3DLAYER
10
105.50238587570206
20
30.442968566894542
30
0.0
 70
     32
  0
VERTEX
  8
MY3DLAYER
10
106.81613245773333
20
30.076954162597662
30
0.0
 70
     32
  0
VERTEX
  8
MY3DLAYER
10
107.34141273117079
20
29.384825805664075
30
0.0
 70
     32
  0
VERTEX
  8
MY3DLAYER
10
107.4931200065612
20
28.251
30
0.0
 70
     32
  0
VERTEX
  8
MY3DLAYER
10
107.62212000656123
20
26.44500000000001
30
0.0
 70
     32
  0
VERTEX
  8
MY3DLAYER
10
110.20212000656124
20
26.44500000000001
30
0.0
 70
     32
  0
VERTEX
  8
MY3DLAYER
10
111.58638196945205
20
26.387208251953123
30
0.0
 70
     32
  0
VERTEX
  8
MY3DLAYER
10
112.38032825851457
20
26.17874328613284
30
0.0
 70
     32
  0
VERTEX
  8
MY3DLAYER
10
112.65414881515498
20
25.689576293945336
30
0.0
 70
     32
  0
VERTEX
  8
MY3DLAYER
10
112.4780125846862
20
24.789673217773462
30
0.0
 70
     32
  0
VERTEX
  8
MY3DLAYER
10
111.92212000656116
20
23.349000000000007
30
0.0
 70
     32
  0
VERTEX
  8
MY3DLAYER
10
111.51070154953001
20
22.575687622070344
30
0.0
 70
     32
  0
VERTEX
  8
MY3DLAYER
10
111.05593665695204
20
22.11610412597659
30
0.0
 70
     32
  0
VERTEX
  8
MY3DLAYER
10
110.5660767936708
20
21.974377868652343
30
0.0
 70
     32
  0
VERTEX
  8
MY3DLAYER
10
110.04937342452997
20
22.154631958007837
30
0.0
 70
     32
  0
VERTEX
  8
MY3DLAYER
10
109.51412000656117
20
22.661000000000005
30
0.0
 70
     32
  0
VERTEX
  8
MY3DLAYER
10
109.23100867843625
20
22.920375244140637
30
0.0
 70
     32
  0
VERTEX
  8
MY3DLAYER
10
108.81786854171743
20
23.21896856689455
30
0.0
 70
     32
  0
VERTEX
  8
MY3DLAYER
10
108.30978406906122
20
23.53407269287109
30
0.0
 70
     32
  0
VERTEX
  8
MY3DLAYER
10
107.74183973312367
20
23.842980346679724
30
0.0
 70
     32
  0
VERTEX
  8
MY3DLAYER
10
107.14912000656119
20
24.123
30
0.0
 70
     32
  0
VERTEX
  8
MY3DLAYER
10
105.83950965499872
20
24.55953765869141
30
0.0
 70
     32
  0
VERTEX
  8
MY3DLAYER
10
104.59801063156122
20
24.601847412109375
30
0.0
 70
     32
  0
VERTEX
  8
MY3DLAYER
10
103.27603358077995
20
24.206593322753925
30
0.0
 70
     32
  0
VERTEX
  8
MY3DLAYER
10
101.72492615890494
20
23.33042370605471
30
0.0
 70
     32
  0
VERTEX
  8
MY3DLAYER
10
99.79612000656124
20
21.930000000000003
30
0.0
 70
     32
  0
VERTEX
  8
MY3DLAYER
10
98.77375721359249
20
21.19452783203126
30
0.0
 70
     32
  0
VERTEX
  8
MY3DLAYER
10
97.84014490890495
20
20.597343811035163
30
0.0
 70
     32
  0
VERTEX
  8
MY3DLAYER
10
97.02210560226457
20
20.152895874023457
30
0.0
 70
     32
  0
VERTEX
  8
MY3DLAYER
10
96.34648279952998
20
19.875629333496082
30
0.0
 70
     32
  0
VERTEX
  8
MY3DLAYER
10
95.8401200065612
20
19.78
30
0.0
 70
     32
  0
VERTEX
  8
MY3DLAYER
10
95.35404993820208
20
19.858089721679715
30
0.0
 70
     32
  0
VERTEX
  8
MY3DLAYER
10
94.70698182296748
20
20.074462341308585
30
0.0
 70
     32
  0
VERTEX
  8
MY3DLAYER
10
93.95466028976455
20
20.40229534912108
30
0.0
 70
     32
  0
VERTEX
  8
MY3DLAYER
10
93.15278797531117
20
20.814753112792967
30
0.0
 70
     32
  0
VERTEX
  8
MY3DLAYER
10
92.35712000656123
20
21.285000000000007
30
0.0
 70
     32
  0
VERTEX
  8
MY3DLAYER
10
90.68149525070207
20
22.239256713867217
30
0.0
 70
     32
  0
VERTEX
  8
MY3DLAYER
10
89.28245203781123
20
22.727048461914098
30
0.0
 70
     32
  0
VERTEX
  8
MY3DLAYER
10
88.10631385421749
20
22.746312377929716
30
0.0
 70
     32
  0
VERTEX
  8
MY3DLAYER
10
87.09942518234253
20
22.294982971191413
30
0.0
 70
     32
  0
VERTEX
  8
MY3DLAYER
10
86.20812000656124
20
21.371000000000006
30
0.0
 70
     32
  0
VERTEX
  8
MY3DLAYER
10
85.3835509147646
20
20.225825805664087
30
0.0
 70
     32
  0
VERTEX
  8
MY3DLAYER
10
84.97797986984253
20
19.474871643066404
30
0.0
 70
     32
  0
VERTEX
  8
MY3DLAYER
10
84.99758497238167
20
18.965406677246094
30
0.0
 70
     32
  0
VERTEX
  8
MY3DLAYER
10
85.44856531906126
20
18.54469482421875
30
0.0
 70
     32
  0
VERTEX
  8
MY3DLAYER
10
86.33712000656121
20
18.059999999999995
30
0.0
 70
     32
  0
VERTEX
  8
MY3DLAYER
10
87.14552210617083
20
17.666121154785166
30
0.0
 70
     32
  0
VERTEX
  8
MY3DLAYER
10
87.73720252609245
20
17.458000000000002
30
0.0
 70
     32
  0
VERTEX
  8
MY3DLAYER
10
88.22568714523332
20
17.42531958007812
30
0.0
 70
     32
  0
VERTEX
  8
MY3DLAYER
10
88.72448084640489
20
17.557760314941415
30
0.0
 70
     32
  0
VERTEX
  8
MY3DLAYER
10
89.34712000656123
20
17.844999999999995
30
0.0
 70
     32
  0
VERTEX
  8
MY3DLAYER
10
90.42384168624875
20
18.237159790039065
30
0.0
 70
     32
  0
VERTEX
  8
MY3DLAYER
10
91.83080042648331
20
18.433239685058588
30
0.0
 70
     32
  0
VERTEX
  8
MY3DLAYER
10
93.61960462570204
20
18.433239685058588
30
0.0
 70
     32
  0
VERTEX
  8
MY3DLAYER
10
95.84184168624871
20
18.237157165527332
30
0.0
 70
     32
  0
VERTEX
  8
MY3DLAYER
10
98.54912000656122
20
17.844999999999995
30
0.0
 70
     32
  0
VERTEX
  8
MY3DLAYER
10
101.64306238937368
20
17.26880157470704
30
0.0
 70
     32
  0
VERTEX
  8
MY3DLAYER
10
104.22924573898332
20
16.651319580078123
30
0.0
 70
     32
  0
VERTEX
  8
MY3DLAYER
10
106.17147889327995
20
16.03384020996096
30
0.0
 70
     32
  0
VERTEX
  8
MY3DLAYER
10
107.33349720382708
20
15.457639160156248
30
0.0
 70
     32
  0
VERTEX
  8
MY3DLAYER
10
107.57912000656121
20
14.964000000000006
30
0.0
 70
     32
  0
VERTEX
  8
MY3DLAYER
10
107.41916126632704
20
14.855640472412105
30
0.0
 70
     32
  0
VERTEX
  8
MY3DLAYER
10
107.11471790695204
20
14.78856057739256
30
0.0
 70
     32
  0
VERTEX
  8
MY3DLAYER
10
106.69675916671746
20
14.762760314941417
30
0.0
 70
     32
  0
VERTEX
  8
MY3DLAYER
10
106.19623328781118
20
14.778238372802727
30
0.0
 70
     32
  0
VERTEX
  8
MY3DLAYER
10
105.64412000656121
20
14.835000000000006
30
0.0
 70
     32
  0
VERTEX
  8
MY3DLAYER
10
104.6826458854675
20
14.965032745361311
30
0.0
 70
     32
  0
VERTEX
  8
MY3DLAYER
10
104.16492420577997
20
14.925815979003909
30
0.0
 70
     32
  0
VERTEX
  8
MY3DLAYER
10
104.08064588546749
20
14.6925848083496
30
0.0
 70
     32
  0
VERTEX
  8
MY3DLAYER
10
104.419480846405
20
14.240566467285174
30
0.0
 70
     32
  0
VERTEX
  8
MY3DLAYER
10
105.17112000656122
20
13.545000000000002
30
0.0
 70
     32
  0
VERTEX
  8
MY3DLAYER
10
105.80855091476454
20
12.887960052490229
30
0.0
 70
     32
  0
VERTEX
  8
MY3DLAYER
10
106.02906238937372
20
12.427000000000001
30
0.0
 70
     32
  0
VERTEX
  8
MY3DLAYER
10
105.84914686202998
20
12.182759002685561
30
0.0
 70
     32
  0
VERTEX
  8
MY3DLAYER
10
105.28532825851457
20
12.17587884521483
30
0.0
 70
     32
  0
VERTEX
  8
MY3DLAYER
10
104.35412000656123
20
12.427000000000001
30
0.0
 70
     32
  0
VERTEX
  8
MY3DLAYER
10
103.45593861007704
20
12.678808776855458
30
0.0
 70
     32
  0
VERTEX
  8
MY3DLAYER
10
102.92721497726457
20
12.70770333862306
30
0.0
 70
     32
  0
VERTEX
  8
MY3DLAYER
10
102.76587049484247
20
12.50749508666994
30
0.0
 70
     32
  0
VERTEX
  8
MY3DLAYER
10
102.96986854171745
20
12.071991485595689
30
0.0
 70
     32
  0
VERTEX
  8
MY3DLAYER
10
103.53712000656127
20
11.395000000000007
30
0.0
 70
     32
  0
VERTEX
  8
MY3DLAYER
10
104.08442518234247
20
10.811576293945341
30
0.0
 70
     32
  0
VERTEX
  8
MY3DLAYER
10
104.31387049484246
20
10.484088409423817
30
0.0
 70
     32
  0
VERTEX
  8
MY3DLAYER
10
104.19657581710828
20
10.379512115478521
30
0.0
 70
     32
  0
VERTEX
  8
MY3DLAYER
10
103.70360853195206
20
10.464823181152331
30
0.0
 70
     32
  0
VERTEX
  8
MY3DLAYER
10
102.80612000656122
20
10.707000000000004
30
0.0
 70
     32
  0
VERTEX
  8
MY3DLAYER
10
102.18727064132703
20
10.861456451416029
30
0.0
 70
     32
  0
VERTEX
  8
MY3DLAYER
10
101.78719007492077
20
10.89000720214847
30
0.0
 70
     32
  0
VERTEX
  8
MY3DLAYER
10
101.54604993820206
20
10.75963195800784
30
0.0
 70
     32
  0
VERTEX
  8
MY3DLAYER
10
101.40397986984247
20
10.437303863525392
30
0.0
 70
     32
  0
VERTEX
  8
MY3DLAYER
10
101.30112000656123
20
9.889999999999999
30
0.0
 70
     32
  0
VERTEX
  8
MY3DLAYER
10
101.25330140304581
20
9.461720367431644
30
0.0
 70
     32
  0
VERTEX
  8
MY3DLAYER
10
101.25914881515493
20
9.023121154785168
30
0.0
 70
     32
  0
VERTEX
  8
MY3DLAYER
10
101.31041077804579
20
8.605159790039085
30
0.0
 70
     32
  0
VERTEX
  8
MY3DLAYER
10
101.39881483077995
20
8.238798950195331
30
0.0
 70
     32
  0
VERTEX
  8
MY3DLAYER
10
101.51612000656124
20
7.955000000000002
30
0.0
 70
     32
  0
VERTEX
  8
MY3DLAYER
10
101.62414490890498
20
7.695968566894536
30
0.0
 70
     32
  0
VERTEX
  8
MY3DLAYER
10
101.688812877655
20
7.399784545898458
30
0.0
 70
     32
  0
VERTEX
  8
MY3DLAYER
10
101.70807679367083
20
7.091215454101581
30
0.0
 70
     32
  0
VERTEX
  8
MY3DLAYER
10
101.6798580436708
20
6.79503274536131
30
0.0
 70
     32
  0
VERTEX
  8
MY3DLAYER
10
101.6021200065612
20
6.535999999999997
30
0.0
 70
     32
  0
VERTEX
  8
MY3DLAYER
10
101.46830140304577
20
6.280407989501935
30
0.0
 70
     32
  0
VERTEX
  8
MY3DLAYER
10
101.30559217452995
20
6.194064178466812
30
0.0
 70
     32
  0
VERTEX
  8
MY3DLAYER
10
101.0850806999208
20
6.291415191650397
30
0.0
 70
     32
  0
VERTEX
  8
MY3DLAYER
10
100.7778973503112
20
6.58691290283204
30
0.0
 70
     32
  0
VERTEX
  8
MY3DLAYER
10
100.35512000656122
20
7.094999999999997
30
0.0
 70
     32
  0
VERTEX
  8
MY3DLAYER
10
99.56563538742083
20
7.881727569580064
30
0.0
 70
     32
  0
VERTEX
  8
MY3DLAYER
10
98.92064588546745
20
8.135944335937497
30
0.0
 70
     32
  0
VERTEX
  8
MY3DLAYER
10
98.45107874679582
20
7.872095611572274
30
0.0
 70
     32
  0
VERTEX
  8
MY3DLAYER
10
98.18791370773329
20
7.1046306457519375
30
0.0
 70
     32
  0
VERTEX
  8
MY3DLAYER
10
98.16212000656122
20
5.847999999999998
30
0.0
 70
     32
  0
VERTEX
  8
MY3DLAYER
10
98.21063148117082
20
4.99831958007812
30
0.0
 70
     32
  0
VERTEX
  8
MY3DLAYER
10
98.18895301437371
20
4.427280944824205
30
0.0
 70
     32
  0
VERTEX
  8
MY3DLAYER
10
98.07853455734251
20
4.08328028869628
30
0.0
 70
     32
  0
VERTEX
  8
MY3DLAYER
10
97.86077357101458
20
3.9147197113037158
30
0.0
 70
     32
  0
VERTEX
  8
MY3DLAYER
10
97.5171200065612
20
3.869999999999999
30
0.0
 70
     32
  0
VERTEX
  8
MY3DLAYER
10
97.22609315109248
20
3.914032089233382
30
0.0
 70
     32
  0
VERTEX
  8
MY3DLAYER
10
96.93300867843621
20
4.036495742797865
30
0.0
 70
     32
  0
VERTEX
  8
MY3DLAYER
10
96.65643763351459
20
4.222944335937495
30
0.0
 70
     32
  0
VERTEX
  8
MY3DLAYER
10
96.41494056320207
20
4.458927307128914
30
0.0
 70
     32
  0
VERTEX
  8
MY3DLAYER
10
96.2271200065612
20
4.729999999999996
30
0.0
 70
     32
  0
VERTEX
  8
MY3DLAYER
10
96.06371790695204
20
5.001072692871078
30
0.0
 70
     32
  0
VERTEX
  8
MY3DLAYER
10
95.88999622726453
20
5.237055664062496
30
0.0
 70
     32
  0
VERTEX
  8
MY3DLAYER
10
95.71628504562375
20
5.423503601074204
30
0.0
 70
     32
  0
VERTEX
  8
MY3DLAYER
10
95.55287244796747
20
5.545968566894539
30
0.0
 70
     32
  0
VERTEX
  8
MY3DLAYER
10
95.4101200065612
20
5.589999999999995
30
0.0
 70
     32
  0
VERTEX
  8
MY3DLAYER
10
95.05270350265494
20
5.223640472412101
30
0.0
 70
     32
  0
VERTEX
  8
MY3DLAYER
10
94.54255091476453
20
4.330960052490223
30
0.0
 70
     32
  0
VERTEX
  8
MY3DLAYER
10
94.02620447921744
20
3.2215599212646358
30
0.0
 70
     32
  0
VERTEX
  8
MY3DLAYER
10
93.6502169303896
20
2.20503994750977
30
0.0
 70
     32
  0
VERTEX
  8
MY3DLAYER
10
93.56112000656124
20
1.5909999999999997
30
0.0
 70
     32
  0
VERTEX
  8
MY3DLAYER
10
93.56662098312368
20
1.4829842834472702
30
0.0
 70
     32
  0
VERTEX
  8
MY3DLAYER
10
93.53291175460828
20
1.418312377929709
30
0.0
 70
     32
  0
VERTEX
  8
MY3DLAYER
10
93.46204993820203
20
1.3990484619140837
30
0.0
 70
     32
  0
VERTEX
  8
MY3DLAYER
10
93.35609315109242
20
1.4272560577392386
30
0.0
 70
     32
  0
VERTEX
  8
MY3DLAYER
10
93.21712000656122
20
1.505
30
0.0
 70
     32
  0
VERTEX
  8
MY3DLAYER
10
93.08984168624873
20
1.6205841522216768
30
0.0
 70
     32
  0
VERTEX
  8
MY3DLAYER
10
92.9728829460146
20
1.800151931762698
30
0.0
 70
     32
  0
VERTEX
  8
MY3DLAYER
10
92.87656336593618
20
2.0251277008056565
30
0.0
 70
     32
  0
VERTEX
  8
MY3DLAYER
10
92.81120252609247
20
2.27693516540526
30
0.0
 70
     32
  0
VERTEX
  8
MY3DLAYER
10
92.78712000656122
20
2.5370000000000004
30
0.0
 70
     32
  0
VERTEX
  8
MY3DLAYER
10
92.75753651046747
20
2.8056640472412204
30
0.0
 70
     32
  0
VERTEX
  8
MY3DLAYER
10
92.67428699874876
20
3.1279921417236123
30
0.0
 70
     32
  0
VERTEX
  8
MY3DLAYER
10
92.54563343429578
20
3.47508840942381
30
0.0
 70
     32
  0
VERTEX
  8
MY3DLAYER
10
92.37982728195205
20
3.8180556640625003
30
0.0
 70
     32
  0
VERTEX
  8
MY3DLAYER
10
92.1851200065612
20
4.127999999999999
30
0.0
 70
     32
  0
VERTEX
  8
MY3DLAYER
10
91.91852210617081
20
4.45961624145506
30
0.0
 70
     32
  0
VERTEX
  8
MY3DLAYER
10
91.72416126632706
20
4.634368041992206
30
0.0
 70
     32
  0
VERTEX
  8
MY3DLAYER
10
91.58140882492079
20
4.660512115478518
30
0.0
 70
     32
  0
VERTEX
  8
MY3DLAYER
10
91.46959412765497
20
4.546303863525392
30
0.0
 70
     32
  0
VERTEX
  8
MY3DLAYER
10
91.36812000656124
20
4.299999999999995
30
0.0
 70
     32
  0
VERTEX
  8
MY3DLAYER
10
91.27146448898333
20
4.007944335937498
30
0.0
 70
     32
  0
VERTEX
  8
MY3DLAYER
10
91.14177161788955
20
3.5734721679687484
30
0.0
 70
     32
  0
VERTEX
  8
MY3DLAYER
10
90.9873138542175
20
3.0399279632568446
30
0.0
 70
     32
  0
VERTEX
  8
MY3DLAYER
10
90.81634266281121
20
2.450655532836907
30
0.0
 70
     32
  0
VERTEX
  8
MY3DLAYER
10
90.63712000656119
20
1.8490000000000004
30
0.0
 70
     32
  0
VERTEX
  8
MY3DLAYER
10
90.44895301437371
20
1.2604165039062507
30
0.0
 70
     32
  0
VERTEX
  8
MY3DLAYER
10
90.25666028976458
20
0.7523280944824379
30
0.0
 70
     32
  0
VERTEX
  8
MY3DLAYER
10
90.0767552604675
20
0.353632614135762
30
0.0
 70
     32
  0
VERTEX
  8
MY3DLAYER
10
89.92573035812367
20
0.09322396850585388
30
0.0
 70
     32
  0
VERTEX
  8
MY3DLAYER
10
89.82012000656123
20
0.0
30
0.0
 70
     32
  0
VERTEX
  8
MY3DLAYER
10
89.1015077018737
20
0.7774400787353642
30
0.0
 70
     32
  0
VERTEX
  8
MY3DLAYER
10
87.97214881515498
20
2.710719711303719
30
0.0
 70
     32
  0
VERTEX
  8
MY3DLAYER
10
86.7334107780458
20
5.201279632568352
30
0.0
 70
     32
  0
VERTEX
  8
MY3DLAYER
10
85.68660853195212
20
7.650557952880851
30
0.0
 70
     32
  0
VERTEX
  8
MY3DLAYER
10
85.13312000656126
20
9.459999999999999
30
0.0
 70
     32
  0
VERTEX
  8
MY3DLAYER
10
84.92775196456918
20
10.645767517089835
30
0.0
 70
     32
  0
VERTEX
  8
MY3DLAYER
10
84.8317735710146
20
11.536383758544943
30
0.0
 70
     32
  0
VERTEX
  8
MY3DLAYER
10
84.85138392257713
20
12.311416503906246
30
0.0
 70
     32
  0
VERTEX
  8
MY3DLAYER
10
84.99276636886583
20
13.150432220458981
30
0.0
 70
     32
  0
VERTEX
  8
MY3DLAYER
10
85.26212000656126
20
14.233
30
0.0
 70
     32
  0
VERTEX
  8
MY3DLAYER
10
85.3505293083192
20
14.780992797851582
30
0.0
 70
     32
  0
VERTEX
  8
MY3DLAYER
10
85.22634791183458
20
15.201017028808584
30
0.0
 70
     32
  0
VERTEX
  8
MY3DLAYER
10
84.76985609054586
20
15.592142761230454
30
0.0
 70
     32
  0
VERTEX
  8
MY3DLAYER
10
83.86134986495959
20
16.053445312500003
30
0.0
 70
     32
  0
VERTEX
  8
MY3DLAYER
10
82.38112000656129
20
16.68399999999999
30
0.0
 70
     32
  0
VERTEX
  8
MY3DLAYER
10
81.20808399581917
20
17.181767517089824
30
0.0
 70
     32
  0
VERTEX
  8
MY3DLAYER
10
79.82864063644422
20
17.766222656249997
30
0.0
 70
     32
  0
VERTEX
  8
MY3DLAYER
10
78.35632630538962
20
18.389898498535164
30
0.0
 70
     32
  0
VERTEX
  8
MY3DLAYER
10
76.90463538742084
20
19.005309753417954
30
0.0
 70
     32
  0
VERTEX
  8
MY3DLAYER
10
75.58712000656128
20
19.564999999999998
30
0.0
 70
     32
  0
VERTEX
  8
MY3DLAYER
10
70.15501588058461
20
21.851225280761714
30
0.0
 70
     32
  0
VERTEX
  8
MY3DLAYER
10
66.38236951828004
20
23.27263195800784
30
0.0
 70
     32
  0
VERTEX
  8
MY3DLAYER
10
63.78207154464713
20
23.955128356933592
30
0.0
 70
     32
  0
VERTEX
  8
MY3DLAYER
10
61.86702308273338
20
24.024614929199217
30
0.0
 70
     32
  0
VERTEX
  8
MY3DLAYER
10
60.15012000656128
20
23.607000000000003
30
0.0
 70
     32
  0
VERTEX
  8
MY3DLAYER
10
59.283926158905
20
23.179409301757843
30
0.0
 70
     32
  0
VERTEX
  8
MY3DLAYER
10
58.6489045524596
20
22.62178454589847
30
0.0
 70
     32
  0
VERTEX
  8
MY3DLAYER
10
58.24917567062379
20
21.93825671386722
30
0.0
 70
     32
  0
VERTEX
  8
MY3DLAYER
10
58.088870494842546
20
21.132948913574207
30
0.0
 70
     32
  0
VERTEX
  8
MY3DLAYER
10
58.172120006561286
20
20.209999999999997
30
0.0
 70
     32
  0
VERTEX
  8
MY3DLAYER
10
58.207897350311306
20
19.3589443359375
30
0.0
 70
     32
  0
VERTEX
  8
MY3DLAYER
10
57.859766368865834
20
18.747312377929706
30
0.0
 70
     32
  0
VERTEX
  8
MY3DLAYER
10
57.06375196456921
20
18.346208251953108
30
0.0
 70
     32
  0
VERTEX
  8
MY3DLAYER
10
55.755863292694215
20
18.126733459472668
30
0.0
 70
     32
  0
VERTEX
  8
MY3DLAYER
10
53.87212000656128
20
18.059999999999995
30
0.0
 70
     32
  0
VERTEX
  8
MY3DLAYER
10
51.03412000656126
20
18.059999999999995
30
0.0
 70
     32
  0
VERTEX
  8
MY3DLAYER
10
51.163120006561286
20
16.68399999999999
30
0.0
 70
     32
  0
VERTEX
  8
MY3DLAYER
10
51.237766368865856
20
16.118464965820333
30
0.0
 70
     32
  0
VERTEX
  8
MY3DLAYER
10
51.36814686203003
20
15.69947216796875
30
0.0
 70
     32
  0
VERTEX
  8
MY3DLAYER
10
51.56870154953001
20
15.408450561523457
30
0.0
 70
     32
  0
VERTEX
  8
MY3DLAYER
10
51.85387049484251
20
15.226815979003916
30
0.0
 70
     32
  0
VERTEX
  8
MY3DLAYER
10
52.23812000656129
20
15.135999999999997
30
0.0
 70
     32
  0
VERTEX
  8
MY3DLAYER
10
52.6127375602721
20
14.992208251953123
30
0.0
 70
     32
  0
VERTEX
  8
MY3DLAYER
10
53.08848804855337
20
14.68742370605471
30
0.0
 70
     32
  0
VERTEX
  8
MY3DLAYER
10
53.62203553390503
20
14.256736083984377
30
0.0
 70
     32
  0
VERTEX
  8
MY3DLAYER
10
54.170017833709615
20
13.735231170654313
30
0.0
 70
     32
  0
VERTEX
  8
MY3DLAYER
10
54.689120006561275
20
13.158
30
0.0
 70
     32
  0
VERTEX
  8
MY3DLAYER
10
56.19412000656129
20
11.266000000000002
30
0.0
 70
     32
  0
VERTEX
  8
MY3DLAYER
10
54.43112000656128
20
10.104999999999993
30
0.0
 70
     32
  0
VERTEX
  8
MY3DLAYER
10
53.758258190155026
20
9.687039947509776
30
0.0
 70
     32
  0
VERTEX
  8
MY3DLAYER
10
53.22780762863169
20
9.413559265136708
30
0.0
 70
     32
  0
VERTEX
  8
MY3DLAYER
10
52.82739112472546
20
9.284560577392561
30
0.0
 70
     32
  0
VERTEX
  8
MY3DLAYER
10
52.5446262321471
20
9.300039947509777
30
0.0
 70
     32
  0
VERTEX
  8
MY3DLAYER
10
52.36712000656127
20
9.459999999999999
30
0.0
 70
     32
  0
VERTEX
  8
MY3DLAYER
10
51.96842518234255
20
9.797463653564439
30
0.0
 70
     32
  0
VERTEX
  8
MY3DLAYER
10
51.468592174530016
20
9.858352325439437
30
0.0
 70
     32
  0
VERTEX
  8
MY3DLAYER
10
50.98320972824082
20
9.686008514404316
30
0.0
 70
     32
  0
VERTEX
  8
MY3DLAYER
10
50.627856090545876
20
9.323774719238294
30
0.0
 70
     32
  0
VERTEX
  8
MY3DLAYER
10
50.518120006561254
20
8.815000000000001
30
0.0
 70
     32
  0
VERTEX
  8
MY3DLAYER
10
49.95361902999877
20
7.758232482910165
30
0.0
 70
     32
  0
VERTEX
  8
MY3DLAYER
10
48.40664783859253
20
6.263895874023456
30
0.0
 70
     32
  0
VERTEX
  8
MY3DLAYER
10
46.329231334686256
20
4.678744598388684
30
0.0
 70
     32
  0
VERTEX
  8
MY3DLAYER
10
44.17338392257713
20
3.349527832031249
30
0.0
 70
     32
  0
VERTEX
  8
MY3DLAYER
10
42.391120006561295
20
2.622999999999999
30
0.0
 70
     32
  0
VERTEX
  8
MY3DLAYER
10
40.61160920333857
20
2.2752161102295116
30
0.0
 70
     32
  0
VERTEX
  8
MY3DLAYER
10
38.77430665206913
20
2.0182481994628954
30
0.0
 70
     32
  0
VERTEX
  8
MY3DLAYER
10
37.10005714035037
20
1.8706719055175614
30
0.0
 70
     32
  0
VERTEX
  8
MY3DLAYER
10
35.80970808029175
20
1.8510641784668143
30
0.0
 70
     32
  0
VERTEX
  8
MY3DLAYER
10
35.1241200065613
20
1.9779999999999998
30
0.0
 70
     32
  0
VERTEX
  8
MY3DLAYER
10
35.08352930831913
20
2.093240341186511
30
0.0
 70
     32
  0
VERTEX
  8
MY3DLAYER
10
35.25346381759644
20
2.270400131225595
30
0.0
 70
     32
  0
VERTEX
  8
MY3DLAYER
10
35.607095775604265
20
2.4888402099609586
30
0.0
 70
     32
  0
VERTEX
  8
MY3DLAYER
10
36.11758955001832
20
2.7279194488525316
30
0.0
 70
     32
  0
VERTEX
  8
MY3DLAYER
10
36.758120006561285
20
2.9669999999999996
30
0.0
 70
     32
  0
VERTEX
  8
MY3DLAYER
10
38.612279796600376
20
3.736527832031251
30
0.0
 70
     32
  0
VERTEX
  8
MY3DLAYER
10
40.19812000656131
20
4.7475435485839785
30
0.0
 70
     32
  0
VERTEX
  8
MY3DLAYER
10
41.58788294601462
20
6.066096923828121
30
0.0
 70
     32
  0
VERTEX
  8
MY3DLAYER
10
42.8538004264834
20
7.758232482910165
30
0.0
 70
     32
  0
VERTEX
  8
MY3DLAYER
10
44.06812000656128
20
9.889999999999999
30
0.0
 70
     32
  0
VERTEX
  8
MY3DLAYER
10
44.82182728195213
20
11.358880157470693
30
0.0
 70
     32
  0
VERTEX
  8
MY3DLAYER
10
45.35055091476464
20
12.569760314941417
30
0.0
 70
     32
  0
VERTEX
  8
MY3DLAYER
10
45.68732825851464
20
13.605199737548814
30
0.0
 70
     32
  0
VERTEX
  8
MY3DLAYER
10
45.865175670623785
20
14.547760314941412
30
0.0
 70
     32
  0
VERTEX
  8
MY3DLAYER
10
45.91712000656129
20
15.479999999999997
30
0.0
 70
     32
  0
VERTEX
  8
MY3DLAYER
10
45.8944179801942
20
16.325552062988294
30
0.0
 70
     32
  0
VERTEX
  8
MY3DLAYER
10
45.8180499382021
20
16.970895874023455
30
0.0
 70
     32
  0
VERTEX
  8
MY3DLAYER
10
45.67563343429585
20
17.442864440917962
30
0.0
 70
     32
  0
VERTEX
  8
MY3DLAYER
10
45.454786022186276
20
17.76828552246096
30
0.0
 70
     32
  0
VERTEX
  8
MY3DLAYER
10
45.1431200065613
20
17.973999999999997
30
0.0
 70
     32
  0
VERTEX
  8
MY3DLAYER
10
44.078786022186286
20
18.30423968505858
30
0.0
 70
     32
  0
VERTEX
  8
MY3DLAYER
10
42.51083448410046
20
18.551920104980454
30
0.0
 70
     32
  0
VERTEX
  8
MY3DLAYER
10
40.8644494132994
20
18.686079895019525
30
0.0
 70
     32
  0
VERTEX
  8
MY3DLAYER
10
39.56481220626835
20
18.675760314941414
30
0.0
 70
     32
  0
VERTEX
  8
MY3DLAYER
10
39.03712000656129
20
18.49
30
0.0
 70
     32
  0
VERTEX
  8
MY3DLAYER
10
39.09078602218628
20
18.346208251953108
30
0.0
 70
     32
  0
VERTEX
  8
MY3DLAYER
10
39.23939374923708
20
18.227184020996077
30
0.0
 70
     32
  0
VERTEX
  8
MY3DLAYER
10
39.46437214279176
20
18.1370556640625
30
0.0
 70
     32
  0
VERTEX
  8
MY3DLAYER
10
39.74713441085816
20
18.079951538085957
30
0.0
 70
     32
  0
VERTEX
  8
MY3DLAYER
10
40.0691200065613
20
18.059999999999995
30
0.0
 70
     32
  0
VERTEX
  8
MY3DLAYER
10
40.53180042648338
20
17.98500720214846
30
0.0
 70
     32
  0
VERTEX
  8
MY3DLAYER
10
41.00480042648339
20
17.749024230957033
30
0.0
 70
     32
  0
VERTEX
  8
MY3DLAYER
10
41.508759166717574
20
17.33553765869141
30
0.0
 70
     32
  0
VERTEX
  8
MY3DLAYER
10
42.064321056365884
20
16.728031433105446
30
0.0
 70
     32
  0
VERTEX
  8
MY3DLAYER
10
42.69212000656132
20
15.91
30
0.0
 70
     32
  0
VERTEX
  8
MY3DLAYER
10
43.19917567062381
20
15.214777343749999
30
0.0
 70
     32
  0
VERTEX
  8
MY3DLAYER
10
43.621606578827134
20
14.600048461914085
30
0.0
 70
     32
  0
VERTEX
  8
MY3DLAYER
10
43.93671070480338
20
14.105034057617202
30
0.0
 70
     32
  0
VERTEX
  8
MY3DLAYER
10
44.12178077316294
20
13.768941711425795
30
0.0
 70
     32
  0
VERTEX
  8
MY3DLAYER
10
44.154120006561286
20
13.630999999999998
30
0.0
 70
     32
  0
VERTEX
  8
MY3DLAYER
10
43.17750770187381
20
12.964671905517562
30
0.0
 70
     32
  0
VERTEX
  8
MY3DLAYER
10
42.40934986495964
20
12.510937133789087
30
0.0
 70
     32
  0
VERTEX
  8
MY3DLAYER
10
41.8414107780459
20
12.265666015624998
30
0.0
 70
     32
  0
VERTEX
  8
MY3DLAYER
10
41.46541798019422
20
12.22472756958006
30
0.0
 70
     32
  0
VERTEX
  8
MY3DLAYER
10
41.27312000656129
20
12.383999999999999
30
0.0
 70
     32
  0
VERTEX
  8
MY3DLAYER
10
41.168199901580664
20
12.553248199462896
30
0.0
 70
     32
  0
VERTEX
  8
MY3DLAYER
10
40.970398326873756
20
12.695663391113289
30
0.0
 70
     32
  0
VERTEX
  8
MY3DLAYER
10
40.70036231613172
20
12.805055664062502
30
0.0
 70
     32
  0
VERTEX
  8
MY3DLAYER
10
40.378717906952126
20
12.875232482910166
30
0.0
 70
     32
  0
VERTEX
  8
MY3DLAYER
10
40.02612000656129
20
12.899999999999997
30
0.0
 70
     32
  0
VERTEX
  8
MY3DLAYER
10
39.573761791229245
20
12.875576293945333
30
0.0
 70
     32
  0
VERTEX
  8
MY3DLAYER
10
39.28652210617067
20
12.787168304443357
30
0.0
 70
     32
  0
VERTEX
  8
MY3DLAYER
10
39.14376179122925
20
12.612072692871084
30
0.0
 70
     32
  0
VERTEX
  8
MY3DLAYER
10
39.124839061737084
20
12.327583496093744
30
0.0
 70
     32
  0
VERTEX
  8
MY3DLAYER
10
39.2091200065613
20
11.910999999999998
30
0.0
 70
     32
  0
VERTEX
  8
MY3DLAYER
10
39.234233959198
20
11.418048461914081
30
0.0
 70
     32
  0
VERTEX
  8
MY3DLAYER
10
38.98689735031129
20
10.898263916015633
30
0.0
 70
     32
  0
VERTEX
  8
MY3DLAYER
10
38.37010560226442
20
10.242255401611319
30
0.0
 70
     32
  0
VERTEX
  8
MY3DLAYER
10
37.286846263885494
20
9.340631958007839
30
0.0
 70
     32
  0
VERTEX
  8
MY3DLAYER
10
35.640120006561276
20
8.083999999999994
30
0.0
 70
     32
  0
VERTEX
  8
MY3DLAYER
10
33.83102570724487
20
6.751343811035166
30
0.0
 70
     32
  0
VERTEX
  8
MY3DLAYER
10
32.45743238449099
20
5.86451211547852
30
0.0
 70
     32
  0
VERTEX
  8
MY3DLAYER
10
31.253088573455834
20
5.291407989501933
30
0.0
 70
     32
  0
VERTEX
  8
MY3DLAYER
10
29.95173493576049
20
4.899935821533182
30
0.0
 70
     32
  0
VERTEX
  8
MY3DLAYER
10
28.28712000656127
20
4.557999999999999
30
0.0
 70
     32
  0
VERTEX
  8
MY3DLAYER
10
26.062473644256624
20
4.17615979003908
30
0.0
 70
     32
  0
VERTEX
  8
MY3DLAYER
10
24.287776195526128
20
3.959440078735362
30
0.0
 70
     32
  0
VERTEX
  8
MY3DLAYER
10
22.95890455245973
20
3.9078402099609546
30
0.0
 70
     32
  0
VERTEX
  8
MY3DLAYER
10
22.07172773361207
20
4.021360183715824
30
0.0
 70
     32
  0
VERTEX
  8
MY3DLAYER
10
21.622120006561282
20
4.299999999999995
30
0.0
 70
     32
  0
VERTEX
  8
MY3DLAYER
10
21.58840815353394
20
4.443791748046872
30
0.0
 70
     32
  0
VERTEX
  8
MY3DLAYER
10
21.682664867401105
20
4.562815979003915
30
0.0
 70
     32
  0
VERTEX
  8
MY3DLAYER
10
21.888374095916745
20
4.652944335937498
30
0.0
 70
     32
  0
VERTEX
  8
MY3DLAYER
10
22.189032909393326
20
4.710047149658183
30
0.0
 70
     32
  0
VERTEX
  8
MY3DLAYER
10
22.56812000656129
20
4.729999999999996
30
0.0
 70
     32
  0
VERTEX
  8
MY3DLAYER
10
23.786224132537868
20
4.82460052490233
30
0.0
 70
     32
  0
VERTEX
  8
MY3DLAYER
10
25.027030284881626
20
5.0946391601562455
30
0.0
 70
     32
  0
VERTEX
  8
MY3DLAYER
10
26.230686473846465
20
5.519480682373062
30
0.0
 70
     32
  0
VERTEX
  8
MY3DLAYER
10
27.337335460662874
20
6.07848068237306
30
0.0
 70
     32
  0
VERTEX
  8
MY3DLAYER
10
28.28712000656127
20
6.750999999999998
30
0.0
 70
     32
  0
VERTEX
  8
MY3DLAYER
10
28.808970043182374
20
7.2945206298828325
30
0.0
 70
     32
  0
VERTEX
  8
MY3DLAYER
10
29.458786022186295
20
8.147640472412105
30
0.0
 70
     32
  0
VERTEX
  8
MY3DLAYER
10
30.178778820037866
20
9.227800262451188
30
0.0
 70
     32
  0
VERTEX
  8
MY3DLAYER
10
30.911151439666753
20
10.452439422607437
30
0.0
 70
     32
  0
VERTEX
  8
MY3DLAYER
10
31.5981200065613
20
11.739000000000004
30
0.0
 70
     32
  0
VERTEX
  8
MY3DLAYER
10
32.70029682540895
20
14.195504913330067
30
0.0
 70
     32
  0
VERTEX
  8
MY3DLAYER
10
33.33600867843628
20
16.313510803222663
30
0.0
 70
     32
  0
VERTEX
  8
MY3DLAYER
10
33.52383448410038
20
18.342767517089836
30
0.0
 70
     32
  0
VERTEX
  8
MY3DLAYER
10
33.28234266281129
20
20.53301440429688
30
0.0
 70
     32
  0
VERTEX
  8
MY3DLAYER
10
32.630120006561285
20
23.133999999999997
30
0.0
 70
     32
  0
VERTEX
  8
MY3DLAYER
10
31.86127979660038
20
25.91661755371097
30
0.0
 70
     32
  0
VERTEX
  8
MY3DLAYER
10
31.340120006561293
20
28.232767517089844
30
0.0
 70
     32
  0
VERTEX
  8
MY3DLAYER
10
31.035681896209752
20
30.24551342773438
30
0.0
 70
     32
  0
VERTEX
  8
MY3DLAYER
10
30.916998851776132
20
32.117903076171885
30
0.0
 70
     32
  0
VERTEX
  8
MY3DLAYER
10
30.953120006561292
20
34.01299999999999
30
0.0
 70
     32
  0
VERTEX
  8
MY3DLAYER
10
31.034647838592534
20
35.050506225585956
30
0.0
 70
     32
  0
VERTEX
  8
MY3DLAYER
10
31.120304027557374
20
36.007513427734374
30
0.0
 70
     32
  0
VERTEX
  8
MY3DLAYER
10
31.20389472579958
20
36.82416961669938
30
0.0
 70
     32
  0
VERTEX
  8
MY3DLAYER
10
31.279228710174582
20
37.4406123046875
30
0.0
 70
     32
  0
VERTEX
  8
MY3DLAYER
10
31.340120006561293
20
37.797
30
0.0
 70
     32
  0
VERTEX
  8
MY3DLAYER
10
31.174313854217548
20
38.43993713378918
30
0.0
 70
     32
  0
VERTEX
  8
MY3DLAYER
10
30.436776195526132
20
39.02920825195334
30
0.0
 70
     32
  0
VERTEX
  8
MY3DLAYER
10
29.30914686203005
20
39.49051342773459
30
0.0
 70
     32
  0
VERTEX
  8
MY3DLAYER
10
27.9730446891785
20
39.74954223632834
30
0.0
 70
     32
  0
VERTEX
  8
MY3DLAYER
10
26.61012000656128
20
39.73200000000001
30
0.0
 70
     32
  0
VERTEX
  8
MY3DLAYER
10
25.81513703536986
20
39.647034057617084
30
0.0
 70
     32
  0
VERTEX
  8
MY3DLAYER
10
25.193529308319125
20
39.661138183593756
30
0.0
 70
     32
  0
VERTEX
  8
MY3DLAYER
10
24.68131122970583
20
39.79082580566417
30
0.0
 70
     32
  0
VERTEX
  8
MY3DLAYER
10
24.214502452850375
20
40.052605102539175
30
0.0
 70
     32
  0
VERTEX
  8
MY3DLAYER
10
23.729120006561278
20
40.462999999999994
30
0.0
 70
     32
  0
VERTEX
  8
MY3DLAYER
10
22.263681896209746
20
41.656333984375
30
0.0
 70
     32
  0
VERTEX
  8
MY3DLAYER
10
20.323519481658945
20
42.93016699218749
30
0.0
 70
     32
  0
VERTEX
  8
MY3DLAYER
10
17.722880321502696
20
44.38563195800793
30
0.0
 70
     32
  0
VERTEX
  8
MY3DLAYER
10
14.276000164031975
20
46.12386706542959
30
0.0
 70
     32
  0
VERTEX
  8
MY3DLAYER
10
9.797120006561286
20
48.246000000000016
30
0.0
 70
     32
  0
VERTEX
  8
MY3DLAYER
10
7.49404011154174
20
49.341297973632926
30
0.0
 70
     32
  0
VERTEX
  8
MY3DLAYER
10
4.9432804527283
20
50.57900720214835
30
0.0
 70
     32
  0
VERTEX
  8
MY3DLAYER
10
2.5679602165222395
20
51.75067321777335
30
0.0
 70
     32
  0
VERTEX
  8
MY3DLAYER
10
0.7911999015808131
20
52.647820556640866
30
0.0
 70
     32
  0
VERTEX
  8
MY3DLAYER
10
0.03612000656127938
20
53.06200000000001
30
0.0
 70
     32
  0
VERTEX
  8
MY3DLAYER
10
0.0
20
53.42801965332041
30
0.0
 70
     32
  0
VERTEX
  8
MY3DLAYER
10
0.19091994094848713
20
54.0396463623046
30
0.0
 70
     32
  0
VERTEX
  8
MY3DLAYER
10
0.5159998359680158
20
54.70907531738293
30
0.0
 70
     32
  0
VERTEX
  8
MY3DLAYER
10
0.8823596916198759
20
55.248459716797115
30
0.0
 70
     32
  0
VERTEX
  8
MY3DLAYER
10
1.1971200065612797
20
55.470000000000006
30
0.0
 70
     32
  0
VERTEX
  8
MY3DLAYER
10
1.490896038055422
20
55.391915527343755
30
0.0
 70
     32
  0
VERTEX
  8
MY3DLAYER
10
2.071567943572988
20
55.175540283203354
30
0.0
 70
     32
  0
VERTEX
  8
MY3DLAYER
10
2.875152095794668
20
54.847707275390846
30
0.0
 70
     32
  0
VERTEX
  8
MY3DLAYER
10
3.8376635551452627
20
54.435244262695456
30
0.0
 70
     32
  0
VERTEX
  8
MY3DLAYER
10
4.895120006561288
20
53.96499999999999
30
0.0
 70
     32
  0
VERTEX
  8
MY3DLAYER
10
5.9171442375183245
20
53.49475048828128
30
0.0
 70
     32
  0
VERTEX
  8
MY3DLAYER
10
6.827712017059351
20
53.08229797363293
30
0.0
 70
     32
  0
VERTEX
  8
MY3DLAYER
10
7.566968730926514
20
52.75446496582042
30
0.0
 70
     32
  0
VERTEX
  8
MY3DLAYER
10
8.075056484222404
20
52.53808447265625
30
0.0
 70
     32
  0
VERTEX
  8
MY3DLAYER
10
8.292120006561285
20
52.46000000000001
30
0.0
 70
     32
  0
VERTEX
  8
MY3DLAYER
10
8.476847576141347
20
52.40633923339833
30
0.0
 70
     32
  0
VERTEX
  8
MY3DLAYER
10
8.851463817596457
20
52.25772888183586
30
0.0
 70
     32
  0
VERTEX
  8
MY3DLAYER
10
9.378816143035893
20
52.03275048828126
30
0.0
 70
     32
  0
VERTEX
  8
MY3DLAYER
10
10.021751964569123
20
51.74998559570335
30
0.0
 70
     32
  0
VERTEX
  8
MY3DLAYER
10
10.743120006561284
20
51.428
30
0.0
 70
     32
  0
VERTEX
  8
MY3DLAYER
10
11.635112804412872
20
51.023111328125005
30
0.0
 70
     32
  0
VERTEX
  8
MY3DLAYER
10
12.750015880584744
20
50.51089587402333
30
0.0
 70
     32
  0
VERTEX
  8
MY3DLAYER
10
13.990823345184344
20
49.93882580566415
30
0.0
 70
     32
  0
VERTEX
  8
MY3DLAYER
10
15.260526683807377
20
49.35436804199208
30
0.0
 70
     32
  0
VERTEX
  8
MY3DLAYER
10
16.462120006561285
20
48.80500000000003
30
0.0
 70
     32
  0
VERTEX
  8
MY3DLAYER
10
18.185215618133554
20
48.04372888183585
30
0.0
 70
     32
  0
VERTEX
  8
MY3DLAYER
10
19.586328258514403
20
47.56522265625001
30
0.0
 70
     32
  0
VERTEX
  8
MY3DLAYER
10
21.127790599822983
20
47.29105566406254
30
0.0
 70
     32
  0
VERTEX
  8
MY3DLAYER
10
23.27194318771361
20
47.14279174804709
30
0.0
 70
     32
  0
VERTEX
  8
MY3DLAYER
10
26.481120006561284
20
47.04200000000001
30
0.0
 70
     32
  0
VERTEX
  8
MY3DLAYER
10
30.197008678436273
20
46.99452783203125
30
0.0
 70
     32
  0
VERTEX
  8
MY3DLAYER
10
32.61670350265505
20
47.095666015624985
30
0.0
 70
     32
  0
VERTEX
  8
MY3DLAYER
10
33.961057140350384
20
47.40113818359375
30
0.0
 70
     32
  0
VERTEX
  8
MY3DLAYER
10
34.45091175460815
20
47.966667968749995
30
0.0
 70
     32
  0
VERTEX
  8
MY3DLAYER
10
34.307120006561284
20
48.848000000000006
30
0.0
 70
     32
  0
VERTEX
  8
MY3DLAYER
10
34.167800426483176
20
49.26252062988293
30
0.0
 70
     32
  0
VERTEX
  8
MY3DLAYER
10
34.11104011154174
20
49.58415979003918
30
0.0
 70
     32
  0
VERTEX
  8
MY3DLAYER
10
34.1368390617371
20
49.82324230957045
30
0.0
 70
     32
  0
VERTEX
  8
MY3DLAYER
10
34.245197277069124
20
49.990082519531256
30
0.0
 70
     32
  0
VERTEX
  8
MY3DLAYER
10
34.43612000656128
20
50.09499999999999
30
0.0
 70
     32
  0
VERTEX
  8
MY3DLAYER
10
36.86373035812379
20
50.6705134277346
30
0.0
 70
     32
  0
VERTEX
  8
MY3DLAYER
10
41.173703502655044
20
51.52054028320337
30
0.0
 70
     32
  0
VERTEX
  8
MY3DLAYER
10
46.08018091964709
20
52.41390832519542
30
0.0
 70
     32
  0
VERTEX
  8
MY3DLAYER
10
50.297272594452124
20
53.11944531250003
30
0.0
 70
     32
  0
VERTEX
  8
MY3DLAYER
10
52.53912000656128
20
53.40600000000003
30
0.0
 70
     32
  0
VERTEX
  8
MY3DLAYER
10
53.12529944992085
20
53.41907006835959
30
0.0
 70
     32
  0
VERTEX
  8
MY3DLAYER
10
53.719725109100445
20
53.50025671386709
30
0.0
 70
     32
  0
VERTEX
  8
MY3DLAYER
10
54.27907154464711
20
53.63510412597668
30
0.0
 70
     32
  0
VERTEX
  8
MY3DLAYER
10
54.759976573944215
20
53.809161743164175
30
0.0
 70
     32
  0
VERTEX
  8
MY3DLAYER
10
55.11912000656128
20
54.008000000000024
30
0.0
 70
     32
  0
VERTEX
  8
MY3DLAYER
10
55.46346644210838
20
54.20270727539086
30
0.0
 70
     32
  0
VERTEX
  8
MY3DLAYER
10
55.90275196456921
20
54.36851342773461
30
0.0
 70
     32
  0
VERTEX
  8
MY3DLAYER
10
56.39776636886585
20
54.49717224121083
30
0.0
 70
     32
  0
VERTEX
  8
MY3DLAYER
10
56.90928895187379
20
54.580416503906264
30
0.0
 70
     32
  0
VERTEX
  8
MY3DLAYER
10
57.39812000656128
20
54.61000000000003
30
0.0
 70
     32
  0
VERTEX
  8
MY3DLAYER
10
58.67332825851463
20
54.714235107422084
30
0.0
 70
     32
  0
VERTEX
  8
MY3DLAYER
10
59.870105602264616
20
55.09297839355461
30
0.0
 70
     32
  0
VERTEX
  8
MY3DLAYER
10
61.14737672042837
20
55.845305175781256
30
0.0
 70
     32
  0
VERTEX
  8
MY3DLAYER
10
62.66406629562379
20
57.07028552246085
30
0.0
 70
     32
  0
VERTEX
  8
MY3DLAYER
10
64.57912000656125
20
58.86700000000002
30
0.0
 70
     32
  0
VERTEX
  8
MY3DLAYER
10
66.79757777023335
20
60.84534643554712
30
0.0
 70
     32
  0
VERTEX
  8
MY3DLAYER
10
68.9933282585146
20
62.48519384765628
30
0.0
 70
     32
  0
VERTEX
  8
MY3DLAYER
10
71.13335511398341
20
63.76796594238294
30
0.0
 70
     32
  0
VERTEX
  8
MY3DLAYER
10
73.1846209831238
20
64.67509167480459
30
0.0
 70
     32
  0
VERTEX
  8
MY3DLAYER
10
75.11412000656128
20
65.18800000000002
30
0.0
 70
     32
  0
VERTEX
  8
MY3DLAYER
10
75.72678602218629
20
65.3108114013671
30
0.0
 70
     32
  0
VERTEX
  8
MY3DLAYER
10
76.21766944503794
20
65.46870202636713
30
0.0
 70
     32
  0
VERTEX
  8
MY3DLAYER
10
76.5785293083192
20
65.6554990234375
30
0.0
 70
     32
  0
VERTEX
  8
MY3DLAYER
10
76.80109840011586
20
65.86498754882835
30
0.0
 70
     32
  0
VERTEX
  8
MY3DLAYER
10
76.87712000656128
20
66.09100000000001
30
0.0
 70
     32
  0
VERTEX
  8
MY3DLAYER
10
76.80557056808459
20
66.34556188964835
30
0.0
 70
     32
  0
VERTEX
  8
MY3DLAYER
10
76.55238917160047
20
66.49691748046881
30
0.0
 70
     32
  0
VERTEX
  8
MY3DLAYER
10
76.05977882003792
20
66.5554020996096
30
0.0
 70
     32
  0
VERTEX
  8
MY3DLAYER
10
75.26995301437378
20
66.53131958007836
30
0.0
 70
     32
  0
VERTEX
  8
MY3DLAYER
10
74.12512000656127
20
66.43499999999999
30
0.0
 70
     32
  0
VERTEX
  8
MY3DLAYER
10
73.09587574386585
20
66.34177734375004
30
0.0
 70
     32
  0
VERTEX
  8
MY3DLAYER
10
72.13473231124874
20
66.31872888183584
30
0.0
 70
     32
  0
VERTEX
  8
MY3DLAYER
10
71.25822413253798
20
66.3637917480471
30
0.0
 70
     32
  0
VERTEX
  8
MY3DLAYER
10
70.48284363937375
20
66.47490307617208
30
0.0
 70
     32
  0
VERTEX
  8
MY3DLAYER
10
69.82512000656128
20
66.65000000000002
30
0.0
 70
     32
  0
VERTEX
  8
MY3DLAYER
10
68.85022413253796
20
67.1140556640625
30
0.0
 70
     32
  0
VERTEX
  8
MY3DLAYER
10
68.35211280441295
20
67.64828552246087
30
0.0
 70
     32
  0
VERTEX
  8
MY3DLAYER
10
68.33284888839712
20
68.12679699707044
30
0.0
 70
     32
  0
VERTEX
  8
MY3DLAYER
10
68.79449525070211
20
68.423666015625
30
0.0
 70
     32
  0
VERTEX
  8
MY3DLAYER
10
69.73912000656127
20
68.41300000000003
30
0.0
 70
     32
  0
VERTEX
  8
MY3DLAYER
10
69.88497986984254
20
68.40233923339835
30
0.0
 70
     32
  0
VERTEX
  8
MY3DLAYER
10
70.10100867843629
20
68.42056909179709
30
0.0
 70
     32
  0
VERTEX
  8
MY3DLAYER
10
70.36451490402212
20
68.46563195800795
30
0.0
 70
     32
  0
VERTEX
  8
MY3DLAYER
10
70.6527807731629
20
68.53546496582044
30
0.0
 70
     32
  0
VERTEX
  8
MY3DLAYER
10
70.94312000656126
20
68.62800000000001
30
0.0
 70
     32
  0
VERTEX
  8
MY3DLAYER
10
71.29125098800668
20
68.77626391601585
30
0.0
 70
     32
  0
VERTEX
  8
MY3DLAYER
10
71.51966224288964
20
68.97819384765629
30
0.0
 70
     32
  0
VERTEX
  8
MY3DLAYER
10
71.64282007980337
20
69.25649182128915
30
0.0
 70
     32
  0
VERTEX
  8
MY3DLAYER
10
71.67515406417834
20
69.6338546142579
30
0.0
 70
     32
  0
VERTEX
  8
MY3DLAYER
10
71.63112000656125
20
70.133
30
0.0
 70
     32
  0
VERTEX
  8
MY3DLAYER
10
71.57848804855335
20
70.55749902343753
30
0.0
 70
     32
  0
VERTEX
  8
MY3DLAYER
10
71.57126539230336
20
70.93865161132832
30
0.0
 70
     32
  0
VERTEX
  8
MY3DLAYER
10
71.60325819015505
20
71.25375048828126
30
0.0
 70
     32
  0
VERTEX
  8
MY3DLAYER
10
71.66826734542838
20
71.48010412597667
30
0.0
 70
     32
  0
VERTEX
  8
MY3DLAYER
10
71.76012000656128
20
71.59500000000001
30
0.0
 70
     32
  0
VERTEX
  8
MY3DLAYER
10
71.84750049972544
20
71.70611132812499
30
0.0
 70
     32
  0
VERTEX
  8
MY3DLAYER
10
71.90184363937374
20
71.87501965332044
30
0.0
 70
     32
  0
VERTEX
  8
MY3DLAYER
10
71.92111805343625
20
72.08726391601586
30
0.0
 70
     32
  0
VERTEX
  8
MY3DLAYER
10
71.90322413253794
20
72.32840930175792
30
0.0
 70
     32
  0
VERTEX
  8
MY3DLAYER
10
71.84612000656129
20
72.58400000000005
30
0.0
 70
     32
  0
VERTEX
  8
MY3DLAYER
10
71.82032105636587
20
72.89772888183582
30
0.0
 70
     32
  0
VERTEX
  8
MY3DLAYER
10
71.89771790695208
20
73.21558874511709
30
0.0
 70
     32
  0
VERTEX
  8
MY3DLAYER
10
72.07832105636584
20
73.53137524414085
30
0.0
 70
     32
  0
VERTEX
  8
MY3DLAYER
10
72.36211475753792
20
73.83891552734374
30
0.0
 70
     32
  0
VERTEX
  8
MY3DLAYER
10
72.7491200065613
20
74.132
30
0.0
 70
     32
  0
VERTEX
  8
MY3DLAYER
10
73.78215406417836
20
75.07800000000005
30
0.0
 70
     32
  0
VERTEX
  8
MY3DLAYER
10
73.77905714035045
20
75.74536083984376
30
0.0
 70
     32
  0
VERTEX
  8
MY3DLAYER
10
72.96274476242087
20
76.05152062988292
30
0.0
 70
     32
  0
VERTEX
  8
MY3DLAYER
10
71.55612720870963
20
75.91391748046874
30
0.0
 70
     32
  0
VERTEX
  8
MY3DLAYER
10
69.78212000656124
20
75.25000000000001
30
0.0
 70
     32
  0
VERTEX
  8
MY3DLAYER
10
69.25132825851459
20
74.98890832519542
30
0.0
 70
     32
  0
VERTEX
  8
MY3DLAYER
10
68.76594581222543
20
74.78147216796874
30
0.0
 70
     32
  0
VERTEX
  8
MY3DLAYER
10
68.36105714035045
20
74.64008447265627
30
0.0
 70
     32
  0
VERTEX
  8
MY3DLAYER
10
68.07174671554586
20
74.57713293457046
30
0.0
 70
     32
  0
VERTEX
  8
MY3DLAYER
10
67.93312000656124
20
74.605
30
0.0
 70
     32
  0
VERTEX
  8
MY3DLAYER
10
68.14192615890502
20
75.15024230957043
30
0.0
 70
     32
  0
VERTEX
  8
MY3DLAYER
10
69.04630140304587
20
76.07731958007835
30
0.0
 70
     32
  0
VERTEX
  8
MY3DLAYER
10
70.28917567062376
20
77.09728356933589
30
0.0
 70
     32
  0
VERTEX
  8
MY3DLAYER
10
71.51346839523337
20
77.92115979003916
30
0.0
 70
     32
  0
VERTEX
  8
MY3DLAYER
10
72.36212000656127
20
78.26
30
0.0
 70
     32
  0
VERTEX
  8
MY3DLAYER
10
73.28989014816293
20
78.43956909179711
30
0.0
 70
     32
  0
VERTEX
  8
MY3DLAYER
10
74.1701828727721
20
78.93286706542962
30
0.0
 70
     32
  0
VERTEX
  8
MY3DLAYER
10
74.93489735031129
20
79.67177209472666
30
0.0
 70
     32
  0
VERTEX
  8
MY3DLAYER
10
75.5159065055846
20
80.58818334960962
30
0.0
 70
     32
  0
VERTEX
  8
MY3DLAYER
10
75.84512000656126
20
81.61400000000002
30
0.0
 70
     32
  0
VERTEX
  8
MY3DLAYER
10
75.96104993820214
20
82.16852783203123
30
0.0
 70
     32
  0
VERTEX
  8
MY3DLAYER
10
76.14302308273336
20
82.76845971679712
30
0.0
 70
     32
  0
VERTEX
  8
MY3DLAYER
10
76.37454175949082
20
83.36633398437502
30
0.0
 70
     32
  0
VERTEX
  8
MY3DLAYER
10
76.63907154464712
20
83.91466796875
30
0.0
 70
     32
  0
VERTEX
  8
MY3DLAYER
10
76.92012000656126
20
84.366
30
0.0
 70
     32
  0
VERTEX
  8
MY3DLAYER
10
77.17020972824089
20
84.74405566406251
30
0.0
 70
     32
  0
VERTEX
  8
MY3DLAYER
10
77.3934611930846
20
85.08908447265624
30
0.0
 70
     32
  0
VERTEX
  8
MY3DLAYER
10
77.57337672042834
20
85.37840014648461
30
0.0
 70
     32
  0
VERTEX
  8
MY3DLAYER
10
77.69342713546757
20
85.58926391601592
30
0.0
 70
     32
  0
VERTEX
  8
MY3DLAYER
10
77.73712000656127
20
85.69900000000003
30
0.0
 70
     32
  0
VERTEX
  8
MY3DLAYER
10
77.5510158805846
20
85.8293752441409
30
0.0
 70
     32
  0
VERTEX
  8
MY3DLAYER
10
77.03260657882711
20
86.05056909179713
30
0.0
 70
     32
  0
VERTEX
  8
MY3DLAYER
10
76.24175721359252
20
86.33987426757841
30
0.0
 70
     32
  0
VERTEX
  8
MY3DLAYER
10
75.2383014030459
20
86.67458349609382
30
0.0
 70
     32
  0
VERTEX
  8
MY3DLAYER
10
74.08212000656124
20
87.03200000000005
30
0.0
 70
     32
  0
VERTEX
  8
MY3DLAYER
10
72.92593861007713
20
87.4200393066409
30
0.0
 70
     32
  0
VERTEX
  8
MY3DLAYER
10
71.92248804855339
20
87.79362280273465
30
0.0
 70
     32
  0
VERTEX
  8
MY3DLAYER
10
71.13163343429585
20
88.12799609375
30
0.0
 70
     32
  0
VERTEX
  8
MY3DLAYER
10
70.61322413253795
20
88.39836279296874
30
0.0
 70
     32
  0
VERTEX
  8
MY3DLAYER
10
70.4271200065613
20
88.58000000000003
30
0.0
 70
     32
  0
VERTEX
  8
MY3DLAYER
10
70.66620252609252
20
88.97181860351587
30
0.0
 70
     32
  0
VERTEX
  8
MY3DLAYER
10
71.34904273605335
20
89.21708447265625
30
0.0
 70
     32
  0
VERTEX
  8
MY3DLAYER
10
72.42404273605335
20
89.31375048828127
30
0.0
 70
     32
  0
VERTEX
  8
MY3DLAYER
10
73.839594127655
20
89.25973803710961
30
0.0
 70
     32
  0
VERTEX
  8
MY3DLAYER
10
75.54412000656127
20
89.05300000000001
30
0.0
 70
     32
  0
VERTEX
  8
MY3DLAYER
10
77.68414686203002
20
88.73720825195335
30
0.0
 70
     32
  0
VERTEX
  8
MY3DLAYER
10
79.11415406417836
20
88.67322265625002
30
0.0
 70
     32
  0
VERTEX
  8
MY3DLAYER
10
80.16645203781133
20
88.94773608398461
30
0.0
 70
     32
  0
VERTEX
  8
MY3DLAYER
10
81.17333021163962
20
89.64742041015622
30
0.0
 70
     32
  0
VERTEX
  8
MY3DLAYER
10
82.46712000656127
20
90.85900000000004
30
0.0
 70
     32
  0
SEQEND
 0
ENDSEC
 0
EOF
